<?xml version="1.0" encoding="UTF-8" standalone="no"?>
<svg width="361.244mm" height="128.411mm"
 viewBox="0 0 1024 364"
 xmlns="http://www.w3.org/2000/svg" xmlns:xlink="http://www.w3.org/1999/xlink"  version="1.2" baseProfile="tiny">
<title>Qt Svg Document</title>
<desc>Generated with Qt</desc>
<defs>
</defs>
<g fill="none" stroke="black" stroke-width="1" fill-rule="evenodd" stroke-linecap="square" stroke-linejoin="bevel" >

<g fill="#ffffff" fill-opacity="1" stroke="none" transform="matrix(1,0,0,1,0,0)"
font-family="Helvetica" font-size="12" font-weight="400" font-style="normal" 
>
<path vector-effect="non-scaling-stroke" fill-rule="evenodd" d="M0,0 L1024,0 L1024,364 L0,364 L0,0"/>
<path vector-effect="non-scaling-stroke" fill-rule="evenodd" d="M0,0 L1024,0 L1024,364 L0,364 L0,0"/>
<path vector-effect="non-scaling-stroke" fill-rule="evenodd" d="M0,0 L1024,0 L1024,364 L0,364 L0,0"/>
<path vector-effect="non-scaling-stroke" fill-rule="evenodd" d="M419,8 L605,8 L605,356 L419,356 L419,8"/>
<path vector-effect="non-scaling-stroke" fill-rule="evenodd" d="M419,9 L523,9 L523,49 L419,49 L419,9"/>
<path vector-effect="non-scaling-stroke" fill-rule="evenodd" d="M523,9 L605,9 L605,49 L523,49 L523,9"/>
</g>

<g fill="#f9e3d6" fill-opacity="1" stroke="none" transform="matrix(1,0,0,1,0,0)"
font-family="Helvetica" font-size="12" font-weight="400" font-style="normal" 
>
<path vector-effect="non-scaling-stroke" fill-rule="evenodd" d="M523,49 L605,49 L605,88 L523,88 L523,49"/>
</g>

<g fill="#f2f2f2" fill-opacity="1" stroke="none" transform="matrix(1,0,0,1,0,0)"
font-family="Helvetica" font-size="12" font-weight="400" font-style="normal" 
>
<path vector-effect="non-scaling-stroke" fill-rule="evenodd" d="M419,88 L523,88 L523,126 L419,126 L419,88"/>
<path vector-effect="non-scaling-stroke" fill-rule="evenodd" d="M523,88 L605,88 L605,126 L523,126 L523,88"/>
</g>

<g fill="#f9e3d6" fill-opacity="1" stroke="none" transform="matrix(1,0,0,1,0,0)"
font-family="Helvetica" font-size="12" font-weight="400" font-style="normal" 
>
<path vector-effect="non-scaling-stroke" fill-rule="evenodd" d="M523,88 L605,88 L605,126 L523,126 L523,88"/>
<path vector-effect="non-scaling-stroke" fill-rule="evenodd" d="M523,126 L605,126 L605,164 L523,164 L523,126"/>
</g>

<g fill="#f2f2f2" fill-opacity="1" stroke="none" transform="matrix(1,0,0,1,0,0)"
font-family="Helvetica" font-size="12" font-weight="400" font-style="normal" 
>
<path vector-effect="non-scaling-stroke" fill-rule="evenodd" d="M419,164 L523,164 L523,202 L419,202 L419,164"/>
<path vector-effect="non-scaling-stroke" fill-rule="evenodd" d="M523,164 L605,164 L605,202 L523,202 L523,164"/>
</g>

<g fill="#e0ffff" fill-opacity="1" stroke="none" transform="matrix(1,0,0,1,0,0)"
font-family="Helvetica" font-size="12" font-weight="400" font-style="normal" 
>
<path vector-effect="non-scaling-stroke" fill-rule="evenodd" d="M419,202 L523,202 L523,240 L419,240 L419,202"/>
</g>

<g fill="#f2f2f2" fill-opacity="1" stroke="none" transform="matrix(1,0,0,1,0,0)"
font-family="Helvetica" font-size="12" font-weight="400" font-style="normal" 
>
<path vector-effect="non-scaling-stroke" fill-rule="evenodd" d="M419,240 L523,240 L523,278 L419,278 L419,240"/>
<path vector-effect="non-scaling-stroke" fill-rule="evenodd" d="M523,240 L605,240 L605,278 L523,278 L523,240"/>
</g>

<g fill="#f9e3d6" fill-opacity="1" stroke="none" transform="matrix(1,0,0,1,0,0)"
font-family="Helvetica" font-size="12" font-weight="400" font-style="normal" 
>
<path vector-effect="non-scaling-stroke" fill-rule="evenodd" d="M523,240 L605,240 L605,278 L523,278 L523,240"/>
</g>

<g fill="#e0ffff" fill-opacity="1" stroke="none" transform="matrix(1,0,0,1,0,0)"
font-family="Helvetica" font-size="12" font-weight="400" font-style="normal" 
>
<path vector-effect="non-scaling-stroke" fill-rule="evenodd" d="M419,278 L523,278 L523,316 L419,316 L419,278"/>
</g>

<g fill="#f2f2f2" fill-opacity="1" stroke="none" transform="matrix(1,0,0,1,0,0)"
font-family="Helvetica" font-size="12" font-weight="400" font-style="normal" 
>
<path vector-effect="non-scaling-stroke" fill-rule="evenodd" d="M419,316 L523,316 L523,355 L419,355 L419,316"/>
</g>

<g fill="#e0ffff" fill-opacity="1" stroke="none" transform="matrix(1,0,0,1,0,0)"
font-family="Helvetica" font-size="12" font-weight="400" font-style="normal" 
>
<path vector-effect="non-scaling-stroke" fill-rule="evenodd" d="M419,316 L523,316 L523,355 L419,355 L419,316"/>
</g>

<g fill="#f2f2f2" fill-opacity="1" stroke="none" transform="matrix(1,0,0,1,0,0)"
font-family="Helvetica" font-size="12" font-weight="400" font-style="normal" 
>
<path vector-effect="non-scaling-stroke" fill-rule="evenodd" d="M523,316 L605,316 L605,355 L523,355 L523,316"/>
</g>

<g fill="#f9e3d6" fill-opacity="1" stroke="none" transform="matrix(1,0,0,1,0,0)"
font-family="Helvetica" font-size="12" font-weight="400" font-style="normal" 
>
<path vector-effect="non-scaling-stroke" fill-rule="evenodd" d="M523,316 L605,316 L605,355 L523,355 L523,316"/>
</g>

<g fill="#a8a8a8" fill-opacity="1" stroke="none" transform="matrix(1,0,0,1,0,0)"
font-family="Helvetica" font-size="12" font-weight="400" font-style="normal" 
>
<path vector-effect="non-scaling-stroke" fill-rule="evenodd" d="M419,8 L523,8 L523,10 L419,10 L419,8"/>
<path vector-effect="non-scaling-stroke" fill-rule="evenodd" d="M523,8 L605,8 L605,10 L523,10 L523,8"/>
<path vector-effect="non-scaling-stroke" fill-rule="evenodd" d="M419,48 L523,48 L523,50 L419,50 L419,48"/>
<path vector-effect="non-scaling-stroke" fill-rule="evenodd" d="M523,48 L605,48 L605,50 L523,50 L523,48"/>
<path vector-effect="non-scaling-stroke" fill-rule="evenodd" d="M419,48 L523,48 L523,50 L419,50 L419,48"/>
<path vector-effect="non-scaling-stroke" fill-rule="evenodd" d="M523,48 L605,48 L605,50 L523,50 L523,48"/>
<path vector-effect="non-scaling-stroke" fill-rule="evenodd" d="M419,354 L523,354 L523,356 L419,356 L419,354"/>
<path vector-effect="non-scaling-stroke" fill-rule="evenodd" d="M523,354 L605,354 L605,356 L523,356 L523,354"/>
</g>

<g fill="#000000" fill-opacity="1" stroke="#000000" stroke-opacity="1" stroke-width="1" stroke-linecap="square" stroke-linejoin="bevel" transform="matrix(1,0,0,1,0,0)"
font-family="Arial" font-size="16" font-weight="400" font-style="normal" 
>
<text fill="#000000" fill-opacity="1" stroke="none" xml:space="preserve" x="482" y="34" font-family="Arial" font-size="16" font-weight="400" font-style="normal" 
 >num</text>
<text fill="#000000" fill-opacity="1" stroke="none" xml:space="preserve" x="534" y="34" font-family="Arial" font-size="16" font-weight="400" font-style="normal" 
 >currency</text>
<text fill="#000000" fill-opacity="1" stroke="none" xml:space="preserve" x="491" y="74" font-family="Arial" font-size="16" font-weight="400" font-style="normal" 
 >0.1</text>
</g>

<g fill="#000000" fill-opacity="1" stroke="#000000" stroke-opacity="1" stroke-width="1" stroke-linecap="square" stroke-linejoin="bevel" transform="matrix(1,0,0,1,0,0)"
font-family="Arial" font-size="16" font-weight="400" font-style="italic" 
>
<text fill="#000000" fill-opacity="1" stroke="none" xml:space="preserve" x="564" y="74" font-family="Arial" font-size="16" font-weight="400" font-style="italic" 
 >50.0</text>
</g>

<g fill="#000000" fill-opacity="1" stroke="#000000" stroke-opacity="1" stroke-width="1" stroke-linecap="square" stroke-linejoin="bevel" transform="matrix(1,0,0,1,0,0)"
font-family="Arial" font-size="16" font-weight="400" font-style="normal" 
>
<text fill="#000000" fill-opacity="1" stroke="none" xml:space="preserve" x="491" y="112" font-family="Arial" font-size="16" font-weight="400" font-style="normal" 
 >2.2</text>
</g>

<g fill="#000000" fill-opacity="1" stroke="#000000" stroke-opacity="1" stroke-width="1" stroke-linecap="square" stroke-linejoin="bevel" transform="matrix(1,0,0,1,0,0)"
font-family="Arial" font-size="16" font-weight="400" font-style="italic" 
>
<text fill="#000000" fill-opacity="1" stroke="none" xml:space="preserve" x="564" y="112" font-family="Arial" font-size="16" font-weight="400" font-style="italic" 
 >17.9</text>
</g>

<g fill="#000000" fill-opacity="1" stroke="#000000" stroke-opacity="1" stroke-width="1" stroke-linecap="square" stroke-linejoin="bevel" transform="matrix(1,0,0,1,0,0)"
font-family="Arial" font-size="16" font-weight="400" font-style="normal" 
>
<text fill="#000000" fill-opacity="1" stroke="none" xml:space="preserve" x="482" y="150" font-family="Arial" font-size="16" font-weight="400" font-style="normal" 
 >33.3</text>
</g>

<g fill="#000000" fill-opacity="1" stroke="#000000" stroke-opacity="1" stroke-width="1" stroke-linecap="square" stroke-linejoin="bevel" transform="matrix(1,0,0,1,0,0)"
font-family="Arial" font-size="16" font-weight="400" font-style="italic" 
>
<text fill="#000000" fill-opacity="1" stroke="none" xml:space="preserve" x="573" y="150" font-family="Arial" font-size="16" font-weight="400" font-style="italic" 
 >1.4</text>
</g>

<g fill="#000000" fill-opacity="1" stroke="#000000" stroke-opacity="1" stroke-width="1" stroke-linecap="square" stroke-linejoin="bevel" transform="matrix(1,0,0,1,0,0)"
font-family="Arial" font-size="16" font-weight="400" font-style="normal" 
>
<text fill="#000000" fill-opacity="1" stroke="none" xml:space="preserve" x="473" y="188" font-family="Arial" font-size="16" font-weight="400" font-style="normal" 
 >444.4</text>
<text fill="#000000" fill-opacity="1" stroke="none" xml:space="preserve" x="533" y="188" font-family="Arial" font-size="16" font-weight="400" font-style="normal" 
 >65,100.0</text>
</g>

<g fill="#000000" fill-opacity="1" stroke="#000000" stroke-opacity="1" stroke-width="1" stroke-linecap="square" stroke-linejoin="bevel" transform="matrix(1,0,0,1,0,0)"
font-family="Arial" font-size="16" font-weight="700" font-style="normal" 
>
<text fill="#000000" fill-opacity="1" stroke="none" xml:space="preserve" x="460" y="226" font-family="Arial" font-size="16" font-weight="700" font-style="normal" 
 >5,550.0</text>
</g>

<g fill="#000000" fill-opacity="1" stroke="#000000" stroke-opacity="1" stroke-width="1" stroke-linecap="square" stroke-linejoin="bevel" transform="matrix(1,0,0,1,0,0)"
font-family="Arial" font-size="16" font-weight="400" font-style="normal" 
>
<text fill="#000000" fill-opacity="1" stroke="none" xml:space="preserve" x="542" y="226" font-family="Arial" font-size="16" font-weight="400" font-style="normal" 
 >1,325.8</text>
<text fill="#000000" fill-opacity="1" stroke="none" xml:space="preserve" x="490" y="264" font-family="Arial" font-size="16" font-weight="400" font-style="normal" 
 >NA</text>
</g>

<g fill="#000000" fill-opacity="1" stroke="#000000" stroke-opacity="1" stroke-width="1" stroke-linecap="square" stroke-linejoin="bevel" transform="matrix(1,0,0,1,0,0)"
font-family="Arial" font-size="16" font-weight="400" font-style="italic" 
>
<text fill="#000000" fill-opacity="1" stroke="none" xml:space="preserve" x="564" y="264" font-family="Arial" font-size="16" font-weight="400" font-style="italic" 
 >13.3</text>
</g>

<g fill="#000000" fill-opacity="1" stroke="#000000" stroke-opacity="1" stroke-width="1" stroke-linecap="square" stroke-linejoin="bevel" transform="matrix(1,0,0,1,0,0)"
font-family="Arial" font-size="16" font-weight="700" font-style="normal" 
>
<text fill="#000000" fill-opacity="1" stroke="none" xml:space="preserve" x="442" y="302" font-family="Arial" font-size="16" font-weight="700" font-style="normal" 
 >777,000.0</text>
</g>

<g fill="#000000" fill-opacity="1" stroke="#000000" stroke-opacity="1" stroke-width="1" stroke-linecap="square" stroke-linejoin="bevel" transform="matrix(1,0,0,1,0,0)"
font-family="Arial" font-size="16" font-weight="400" font-style="normal" 
>
<text fill="#000000" fill-opacity="1" stroke="none" xml:space="preserve" x="572" y="302" font-family="Arial" font-size="16" font-weight="400" font-style="normal" 
 >NA</text>
</g>

<g fill="#000000" fill-opacity="1" stroke="#000000" stroke-opacity="1" stroke-width="1" stroke-linecap="square" stroke-linejoin="bevel" transform="matrix(1,0,0,1,0,0)"
font-family="Arial" font-size="16" font-weight="700" font-style="normal" 
>
<text fill="#000000" fill-opacity="1" stroke="none" xml:space="preserve" x="429" y="340" font-family="Arial" font-size="16" font-weight="700" font-style="normal" 
 >8,880,000.0</text>
</g>

<g fill="#000000" fill-opacity="1" stroke="#000000" stroke-opacity="1" stroke-width="1" stroke-linecap="square" stroke-linejoin="bevel" transform="matrix(1,0,0,1,0,0)"
font-family="Arial" font-size="16" font-weight="400" font-style="italic" 
>
<text fill="#000000" fill-opacity="1" stroke="none" xml:space="preserve" x="573" y="340" font-family="Arial" font-size="16" font-weight="400" font-style="italic" 
 >0.4</text>
</g>
</g>
</svg>
