<?xml version="1.0" encoding="UTF-8" standalone="no"?>
<svg width="361.244mm" height="172.508mm"
 viewBox="0 0 1024 489"
 xmlns="http://www.w3.org/2000/svg" xmlns:xlink="http://www.w3.org/1999/xlink"  version="1.2" baseProfile="tiny">
<title>Qt Svg Document</title>
<desc>Generated with Qt</desc>
<defs>
</defs>
<g fill="none" stroke="black" stroke-width="1" fill-rule="evenodd" stroke-linecap="square" stroke-linejoin="bevel" >

<g fill="#ffffff" fill-opacity="1" stroke="none" transform="matrix(1,0,0,1,0,0)"
font-family="Helvetica" font-size="12" font-weight="400" font-style="normal" 
>
<path vector-effect="non-scaling-stroke" fill-rule="evenodd" d="M0,0 L1024,0 L1024,489 L0,489 L0,0"/>
<path vector-effect="non-scaling-stroke" fill-rule="evenodd" d="M0,0 L1024,0 L1024,489 L0,489 L0,0"/>
<path vector-effect="non-scaling-stroke" fill-rule="evenodd" d="M0,0 L1024,0 L1024,489 L0,489 L0,0"/>
<path vector-effect="non-scaling-stroke" fill-rule="evenodd" d="M139,8 L884,8 L884,481 L139,481 L139,8"/>
<path vector-effect="non-scaling-stroke" fill-rule="evenodd" d="M139,9 L884,9 L884,38 L139,38 L139,9"/>
<path vector-effect="non-scaling-stroke" fill-rule="evenodd" d="M139,38 L884,38 L884,60 L139,60 L139,38"/>
<path vector-effect="non-scaling-stroke" fill-rule="evenodd" d="M139,60 L209,60 L209,100 L139,100 L139,60"/>
<path vector-effect="non-scaling-stroke" fill-rule="evenodd" d="M209,60 L323,60 L323,100 L209,100 L209,60"/>
<path vector-effect="non-scaling-stroke" fill-rule="evenodd" d="M323,60 L417,60 L417,100 L323,100 L323,60"/>
<path vector-effect="non-scaling-stroke" fill-rule="evenodd" d="M417,60 L480,60 L480,100 L417,100 L417,60"/>
<path vector-effect="non-scaling-stroke" fill-rule="evenodd" d="M480,60 L582,60 L582,100 L480,100 L480,60"/>
<path vector-effect="non-scaling-stroke" fill-rule="evenodd" d="M582,60 L642,60 L642,100 L582,100 L582,60"/>
<path vector-effect="non-scaling-stroke" fill-rule="evenodd" d="M642,60 L788,60 L788,100 L642,100 L642,60"/>
<path vector-effect="non-scaling-stroke" fill-rule="evenodd" d="M788,60 L884,60 L884,100 L788,100 L788,60"/>
<path vector-effect="non-scaling-stroke" fill-rule="evenodd" d="M139,100 L884,100 L884,136 L139,136 L139,100"/>
</g>

<g fill="#f2f2f2" fill-opacity="1" stroke="none" transform="matrix(1,0,0,1,0,0)"
font-family="Helvetica" font-size="12" font-weight="400" font-style="normal" 
>
<path vector-effect="non-scaling-stroke" fill-rule="evenodd" d="M139,136 L209,136 L209,175 L139,175 L139,136"/>
</g>

<g fill="#ffffff" fill-opacity="1" stroke="none" transform="matrix(1,0,0,1,0,0)"
font-family="Helvetica" font-size="12" font-weight="400" font-style="normal" 
>
<path vector-effect="non-scaling-stroke" fill-rule="evenodd" d="M139,136 L209,136 L209,175 L139,175 L139,136"/>
</g>

<g fill="#f2f2f2" fill-opacity="1" stroke="none" transform="matrix(1,0,0,1,0,0)"
font-family="Helvetica" font-size="12" font-weight="400" font-style="normal" 
>
<path vector-effect="non-scaling-stroke" fill-rule="evenodd" d="M209,136 L323,136 L323,175 L209,175 L209,136"/>
<path vector-effect="non-scaling-stroke" fill-rule="evenodd" d="M323,136 L417,136 L417,175 L323,175 L323,136"/>
<path vector-effect="non-scaling-stroke" fill-rule="evenodd" d="M417,136 L480,136 L480,175 L417,175 L417,136"/>
<path vector-effect="non-scaling-stroke" fill-rule="evenodd" d="M480,136 L582,136 L582,175 L480,175 L480,136"/>
<path vector-effect="non-scaling-stroke" fill-rule="evenodd" d="M582,136 L642,136 L642,175 L582,175 L582,136"/>
<path vector-effect="non-scaling-stroke" fill-rule="evenodd" d="M642,136 L788,136 L788,175 L642,175 L642,136"/>
<path vector-effect="non-scaling-stroke" fill-rule="evenodd" d="M788,136 L884,136 L884,175 L788,175 L788,136"/>
</g>

<g fill="#ffffff" fill-opacity="1" stroke="none" transform="matrix(1,0,0,1,0,0)"
font-family="Helvetica" font-size="12" font-weight="400" font-style="normal" 
>
<path vector-effect="non-scaling-stroke" fill-rule="evenodd" d="M139,175 L209,175 L209,213 L139,213 L139,175"/>
</g>

<g fill="#f2f2f2" fill-opacity="1" stroke="none" transform="matrix(1,0,0,1,0,0)"
font-family="Helvetica" font-size="12" font-weight="400" font-style="normal" 
>
<path vector-effect="non-scaling-stroke" fill-rule="evenodd" d="M139,213 L209,213 L209,251 L139,251 L139,213"/>
</g>

<g fill="#ffffff" fill-opacity="1" stroke="none" transform="matrix(1,0,0,1,0,0)"
font-family="Helvetica" font-size="12" font-weight="400" font-style="normal" 
>
<path vector-effect="non-scaling-stroke" fill-rule="evenodd" d="M139,213 L209,213 L209,251 L139,251 L139,213"/>
</g>

<g fill="#f2f2f2" fill-opacity="1" stroke="none" transform="matrix(1,0,0,1,0,0)"
font-family="Helvetica" font-size="12" font-weight="400" font-style="normal" 
>
<path vector-effect="non-scaling-stroke" fill-rule="evenodd" d="M209,213 L323,213 L323,251 L209,251 L209,213"/>
<path vector-effect="non-scaling-stroke" fill-rule="evenodd" d="M323,213 L417,213 L417,251 L323,251 L323,213"/>
<path vector-effect="non-scaling-stroke" fill-rule="evenodd" d="M417,213 L480,213 L480,251 L417,251 L417,213"/>
<path vector-effect="non-scaling-stroke" fill-rule="evenodd" d="M480,213 L582,213 L582,251 L480,251 L480,213"/>
<path vector-effect="non-scaling-stroke" fill-rule="evenodd" d="M582,213 L642,213 L642,251 L582,251 L582,213"/>
<path vector-effect="non-scaling-stroke" fill-rule="evenodd" d="M642,213 L788,213 L788,251 L642,251 L642,213"/>
<path vector-effect="non-scaling-stroke" fill-rule="evenodd" d="M788,213 L884,213 L884,251 L788,251 L788,213"/>
</g>

<g fill="#ffffff" fill-opacity="1" stroke="none" transform="matrix(1,0,0,1,0,0)"
font-family="Helvetica" font-size="12" font-weight="400" font-style="normal" 
>
<path vector-effect="non-scaling-stroke" fill-rule="evenodd" d="M139,251 L209,251 L209,290 L139,290 L139,251"/>
</g>

<g fill="#f2f2f2" fill-opacity="1" stroke="none" transform="matrix(1,0,0,1,0,0)"
font-family="Helvetica" font-size="12" font-weight="400" font-style="normal" 
>
<path vector-effect="non-scaling-stroke" fill-rule="evenodd" d="M139,290 L884,290 L884,326 L139,326 L139,290"/>
</g>

<g fill="#ffffff" fill-opacity="1" stroke="none" transform="matrix(1,0,0,1,0,0)"
font-family="Helvetica" font-size="12" font-weight="400" font-style="normal" 
>
<path vector-effect="non-scaling-stroke" fill-rule="evenodd" d="M139,290 L884,290 L884,326 L139,326 L139,290"/>
<path vector-effect="non-scaling-stroke" fill-rule="evenodd" d="M139,326 L209,326 L209,365 L139,365 L139,326"/>
</g>

<g fill="#f2f2f2" fill-opacity="1" stroke="none" transform="matrix(1,0,0,1,0,0)"
font-family="Helvetica" font-size="12" font-weight="400" font-style="normal" 
>
<path vector-effect="non-scaling-stroke" fill-rule="evenodd" d="M139,365 L209,365 L209,403 L139,403 L139,365"/>
</g>

<g fill="#ffffff" fill-opacity="1" stroke="none" transform="matrix(1,0,0,1,0,0)"
font-family="Helvetica" font-size="12" font-weight="400" font-style="normal" 
>
<path vector-effect="non-scaling-stroke" fill-rule="evenodd" d="M139,365 L209,365 L209,403 L139,403 L139,365"/>
</g>

<g fill="#f2f2f2" fill-opacity="1" stroke="none" transform="matrix(1,0,0,1,0,0)"
font-family="Helvetica" font-size="12" font-weight="400" font-style="normal" 
>
<path vector-effect="non-scaling-stroke" fill-rule="evenodd" d="M209,365 L323,365 L323,403 L209,403 L209,365"/>
<path vector-effect="non-scaling-stroke" fill-rule="evenodd" d="M323,365 L417,365 L417,403 L323,403 L323,365"/>
<path vector-effect="non-scaling-stroke" fill-rule="evenodd" d="M417,365 L480,365 L480,403 L417,403 L417,365"/>
<path vector-effect="non-scaling-stroke" fill-rule="evenodd" d="M480,365 L582,365 L582,403 L480,403 L480,365"/>
<path vector-effect="non-scaling-stroke" fill-rule="evenodd" d="M582,365 L642,365 L642,403 L582,403 L582,365"/>
<path vector-effect="non-scaling-stroke" fill-rule="evenodd" d="M642,365 L788,365 L788,403 L642,403 L642,365"/>
<path vector-effect="non-scaling-stroke" fill-rule="evenodd" d="M788,365 L884,365 L884,403 L788,403 L788,365"/>
</g>

<g fill="#ffffff" fill-opacity="1" stroke="none" transform="matrix(1,0,0,1,0,0)"
font-family="Helvetica" font-size="12" font-weight="400" font-style="normal" 
>
<path vector-effect="non-scaling-stroke" fill-rule="evenodd" d="M139,403 L209,403 L209,441 L139,441 L139,403"/>
</g>

<g fill="#f2f2f2" fill-opacity="1" stroke="none" transform="matrix(1,0,0,1,0,0)"
font-family="Helvetica" font-size="12" font-weight="400" font-style="normal" 
>
<path vector-effect="non-scaling-stroke" fill-rule="evenodd" d="M139,441 L209,441 L209,480 L139,480 L139,441"/>
</g>

<g fill="#ffffff" fill-opacity="1" stroke="none" transform="matrix(1,0,0,1,0,0)"
font-family="Helvetica" font-size="12" font-weight="400" font-style="normal" 
>
<path vector-effect="non-scaling-stroke" fill-rule="evenodd" d="M139,441 L209,441 L209,480 L139,480 L139,441"/>
</g>

<g fill="#f2f2f2" fill-opacity="1" stroke="none" transform="matrix(1,0,0,1,0,0)"
font-family="Helvetica" font-size="12" font-weight="400" font-style="normal" 
>
<path vector-effect="non-scaling-stroke" fill-rule="evenodd" d="M209,441 L323,441 L323,480 L209,480 L209,441"/>
<path vector-effect="non-scaling-stroke" fill-rule="evenodd" d="M323,441 L417,441 L417,480 L323,480 L323,441"/>
<path vector-effect="non-scaling-stroke" fill-rule="evenodd" d="M417,441 L480,441 L480,480 L417,480 L417,441"/>
<path vector-effect="non-scaling-stroke" fill-rule="evenodd" d="M480,441 L582,441 L582,480 L480,480 L480,441"/>
<path vector-effect="non-scaling-stroke" fill-rule="evenodd" d="M582,441 L642,441 L642,480 L582,480 L582,441"/>
<path vector-effect="non-scaling-stroke" fill-rule="evenodd" d="M642,441 L788,441 L788,480 L642,480 L642,441"/>
<path vector-effect="non-scaling-stroke" fill-rule="evenodd" d="M788,441 L884,441 L884,480 L788,480 L788,441"/>
</g>

<g fill="#a8a8a8" fill-opacity="1" stroke="none" transform="matrix(1,0,0,1,0,0)"
font-family="Helvetica" font-size="12" font-weight="400" font-style="normal" 
>
<path vector-effect="non-scaling-stroke" fill-rule="evenodd" d="M139,8 L884,8 L884,10 L139,10 L139,8"/>
<path vector-effect="non-scaling-stroke" fill-rule="evenodd" d="M139,479 L210,479 L210,481 L139,481 L139,479"/>
<path vector-effect="non-scaling-stroke" fill-rule="evenodd" d="M208,479 L323,479 L323,481 L208,481 L208,479"/>
<path vector-effect="non-scaling-stroke" fill-rule="evenodd" d="M323,479 L417,479 L417,481 L323,481 L323,479"/>
<path vector-effect="non-scaling-stroke" fill-rule="evenodd" d="M417,479 L480,479 L480,481 L417,481 L417,479"/>
<path vector-effect="non-scaling-stroke" fill-rule="evenodd" d="M480,479 L582,479 L582,481 L480,481 L480,479"/>
<path vector-effect="non-scaling-stroke" fill-rule="evenodd" d="M582,479 L642,479 L642,481 L582,481 L582,479"/>
<path vector-effect="non-scaling-stroke" fill-rule="evenodd" d="M642,479 L788,479 L788,481 L642,481 L642,479"/>
<path vector-effect="non-scaling-stroke" fill-rule="evenodd" d="M788,479 L884,479 L884,481 L788,481 L788,479"/>
<path vector-effect="non-scaling-stroke" fill-rule="evenodd" d="M139,59 L884,59 L884,61 L139,61 L139,59"/>
<path vector-effect="non-scaling-stroke" fill-rule="evenodd" d="M139,59 L209,59 L209,61 L139,61 L139,59"/>
<path vector-effect="non-scaling-stroke" fill-rule="evenodd" d="M139,99 L209,99 L209,101 L139,101 L139,99"/>
<path vector-effect="non-scaling-stroke" fill-rule="evenodd" d="M209,59 L323,59 L323,61 L209,61 L209,59"/>
<path vector-effect="non-scaling-stroke" fill-rule="evenodd" d="M209,99 L323,99 L323,101 L209,101 L209,99"/>
<path vector-effect="non-scaling-stroke" fill-rule="evenodd" d="M323,59 L417,59 L417,61 L323,61 L323,59"/>
<path vector-effect="non-scaling-stroke" fill-rule="evenodd" d="M323,99 L417,99 L417,101 L323,101 L323,99"/>
<path vector-effect="non-scaling-stroke" fill-rule="evenodd" d="M417,59 L480,59 L480,61 L417,61 L417,59"/>
<path vector-effect="non-scaling-stroke" fill-rule="evenodd" d="M417,99 L480,99 L480,101 L417,101 L417,99"/>
<path vector-effect="non-scaling-stroke" fill-rule="evenodd" d="M480,59 L582,59 L582,61 L480,61 L480,59"/>
<path vector-effect="non-scaling-stroke" fill-rule="evenodd" d="M480,99 L582,99 L582,101 L480,101 L480,99"/>
<path vector-effect="non-scaling-stroke" fill-rule="evenodd" d="M582,59 L642,59 L642,61 L582,61 L582,59"/>
<path vector-effect="non-scaling-stroke" fill-rule="evenodd" d="M582,99 L642,99 L642,101 L582,101 L582,99"/>
<path vector-effect="non-scaling-stroke" fill-rule="evenodd" d="M642,59 L788,59 L788,61 L642,61 L642,59"/>
<path vector-effect="non-scaling-stroke" fill-rule="evenodd" d="M642,99 L788,99 L788,101 L642,101 L642,99"/>
<path vector-effect="non-scaling-stroke" fill-rule="evenodd" d="M788,59 L884,59 L884,61 L788,61 L788,59"/>
<path vector-effect="non-scaling-stroke" fill-rule="evenodd" d="M788,99 L884,99 L884,101 L788,101 L788,99"/>
<path vector-effect="non-scaling-stroke" fill-rule="evenodd" d="M139,99 L884,99 L884,101 L139,101 L139,99"/>
<path vector-effect="non-scaling-stroke" fill-rule="evenodd" d="M139,135 L884,135 L884,137 L139,137 L139,135"/>
<path vector-effect="non-scaling-stroke" fill-rule="evenodd" d="M139,135 L210,135 L210,137 L139,137 L139,135"/>
<path vector-effect="non-scaling-stroke" fill-rule="evenodd" d="M208,135 L210,135 L210,175 L208,175 L208,135"/>
<path vector-effect="non-scaling-stroke" fill-rule="evenodd" d="M208,135 L323,135 L323,137 L208,137 L208,135"/>
<path vector-effect="non-scaling-stroke" fill-rule="evenodd" d="M208,135 L210,135 L210,175 L208,175 L208,135"/>
<path vector-effect="non-scaling-stroke" fill-rule="evenodd" d="M323,135 L417,135 L417,137 L323,137 L323,135"/>
<path vector-effect="non-scaling-stroke" fill-rule="evenodd" d="M417,135 L480,135 L480,137 L417,137 L417,135"/>
<path vector-effect="non-scaling-stroke" fill-rule="evenodd" d="M480,135 L582,135 L582,137 L480,137 L480,135"/>
<path vector-effect="non-scaling-stroke" fill-rule="evenodd" d="M582,135 L642,135 L642,137 L582,137 L582,135"/>
<path vector-effect="non-scaling-stroke" fill-rule="evenodd" d="M642,135 L788,135 L788,137 L642,137 L642,135"/>
<path vector-effect="non-scaling-stroke" fill-rule="evenodd" d="M788,135 L884,135 L884,137 L788,137 L788,135"/>
<path vector-effect="non-scaling-stroke" fill-rule="evenodd" d="M208,175 L210,175 L210,213 L208,213 L208,175"/>
<path vector-effect="non-scaling-stroke" fill-rule="evenodd" d="M208,175 L210,175 L210,213 L208,213 L208,175"/>
<path vector-effect="non-scaling-stroke" fill-rule="evenodd" d="M208,213 L210,213 L210,251 L208,251 L208,213"/>
<path vector-effect="non-scaling-stroke" fill-rule="evenodd" d="M208,213 L210,213 L210,251 L208,251 L208,213"/>
<path vector-effect="non-scaling-stroke" fill-rule="evenodd" d="M139,289 L210,289 L210,291 L139,291 L139,289"/>
<path vector-effect="non-scaling-stroke" fill-rule="evenodd" d="M208,251 L210,251 L210,291 L208,291 L208,251"/>
<path vector-effect="non-scaling-stroke" fill-rule="evenodd" d="M208,289 L323,289 L323,291 L208,291 L208,289"/>
<path vector-effect="non-scaling-stroke" fill-rule="evenodd" d="M208,251 L210,251 L210,291 L208,291 L208,251"/>
<path vector-effect="non-scaling-stroke" fill-rule="evenodd" d="M323,289 L417,289 L417,291 L323,291 L323,289"/>
<path vector-effect="non-scaling-stroke" fill-rule="evenodd" d="M417,289 L480,289 L480,291 L417,291 L417,289"/>
<path vector-effect="non-scaling-stroke" fill-rule="evenodd" d="M480,289 L582,289 L582,291 L480,291 L480,289"/>
<path vector-effect="non-scaling-stroke" fill-rule="evenodd" d="M582,289 L642,289 L642,291 L582,291 L582,289"/>
<path vector-effect="non-scaling-stroke" fill-rule="evenodd" d="M642,289 L788,289 L788,291 L642,291 L642,289"/>
<path vector-effect="non-scaling-stroke" fill-rule="evenodd" d="M788,289 L884,289 L884,291 L788,291 L788,289"/>
<path vector-effect="non-scaling-stroke" fill-rule="evenodd" d="M139,289 L884,289 L884,291 L139,291 L139,289"/>
<path vector-effect="non-scaling-stroke" fill-rule="evenodd" d="M139,325 L884,325 L884,327 L139,327 L139,325"/>
<path vector-effect="non-scaling-stroke" fill-rule="evenodd" d="M139,325 L210,325 L210,327 L139,327 L139,325"/>
<path vector-effect="non-scaling-stroke" fill-rule="evenodd" d="M208,325 L210,325 L210,365 L208,365 L208,325"/>
<path vector-effect="non-scaling-stroke" fill-rule="evenodd" d="M208,325 L323,325 L323,327 L208,327 L208,325"/>
<path vector-effect="non-scaling-stroke" fill-rule="evenodd" d="M208,325 L210,325 L210,365 L208,365 L208,325"/>
<path vector-effect="non-scaling-stroke" fill-rule="evenodd" d="M323,325 L417,325 L417,327 L323,327 L323,325"/>
<path vector-effect="non-scaling-stroke" fill-rule="evenodd" d="M417,325 L480,325 L480,327 L417,327 L417,325"/>
<path vector-effect="non-scaling-stroke" fill-rule="evenodd" d="M480,325 L582,325 L582,327 L480,327 L480,325"/>
<path vector-effect="non-scaling-stroke" fill-rule="evenodd" d="M582,325 L642,325 L642,327 L582,327 L582,325"/>
<path vector-effect="non-scaling-stroke" fill-rule="evenodd" d="M642,325 L788,325 L788,327 L642,327 L642,325"/>
<path vector-effect="non-scaling-stroke" fill-rule="evenodd" d="M788,325 L884,325 L884,327 L788,327 L788,325"/>
<path vector-effect="non-scaling-stroke" fill-rule="evenodd" d="M208,365 L210,365 L210,403 L208,403 L208,365"/>
<path vector-effect="non-scaling-stroke" fill-rule="evenodd" d="M208,365 L210,365 L210,403 L208,403 L208,365"/>
<path vector-effect="non-scaling-stroke" fill-rule="evenodd" d="M208,403 L210,403 L210,441 L208,441 L208,403"/>
<path vector-effect="non-scaling-stroke" fill-rule="evenodd" d="M208,403 L210,403 L210,441 L208,441 L208,403"/>
<path vector-effect="non-scaling-stroke" fill-rule="evenodd" d="M208,441 L210,441 L210,481 L208,481 L208,441"/>
<path vector-effect="non-scaling-stroke" fill-rule="evenodd" d="M208,441 L210,441 L210,481 L208,481 L208,441"/>
</g>

<g fill="#000000" fill-opacity="1" stroke="#000000" stroke-opacity="1" stroke-width="1" stroke-linecap="square" stroke-linejoin="bevel" transform="matrix(1,0,0,1,0,0)"
font-family="Arial" font-size="20" font-weight="400" font-style="normal" 
>
<text fill="#000000" fill-opacity="1" stroke="none" xml:space="preserve" x="465.5" y="32" font-family="Arial" font-size="20" font-weight="400" font-style="normal" 
 >Table Title</text>
</g>

<g fill="#000000" fill-opacity="1" stroke="#000000" stroke-opacity="1" stroke-width="1" stroke-linecap="square" stroke-linejoin="bevel" transform="matrix(1,0,0,1,0,0)"
font-family="Arial" font-size="14" font-weight="400" font-style="normal" 
>
<text fill="#000000" fill-opacity="1" stroke="none" xml:space="preserve" x="488" y="52" font-family="Arial" font-size="14" font-weight="400" font-style="normal" 
 >Subtitle</text>
</g>

<g fill="#000000" fill-opacity="1" stroke="#000000" stroke-opacity="1" stroke-width="1" stroke-linecap="square" stroke-linejoin="bevel" transform="matrix(1,0,0,1,0,0)"
font-family="Arial" font-size="16" font-weight="400" font-style="normal" 
>
<text fill="#000000" fill-opacity="1" stroke="none" xml:space="preserve" x="259" y="85" font-family="Arial" font-size="16" font-weight="400" font-style="normal" 
 >number</text>
<text fill="#000000" fill-opacity="1" stroke="none" xml:space="preserve" x="333" y="85" font-family="Arial" font-size="16" font-weight="400" font-style="normal" 
 >char</text>
<text fill="#000000" fill-opacity="1" stroke="none" xml:space="preserve" x="438" y="85" font-family="Arial" font-size="16" font-weight="400" font-style="normal" 
 >fctr</text>
<text fill="#000000" fill-opacity="1" stroke="none" xml:space="preserve" x="490" y="85" font-family="Arial" font-size="16" font-weight="400" font-style="normal" 
 >date</text>
<text fill="#000000" fill-opacity="1" stroke="none" xml:space="preserve" x="592" y="85" font-family="Arial" font-size="16" font-weight="400" font-style="normal" 
 >time</text>
<text fill="#000000" fill-opacity="1" stroke="none" xml:space="preserve" x="652" y="85" font-family="Arial" font-size="16" font-weight="400" font-style="normal" 
 >datetime</text>
<text fill="#000000" fill-opacity="1" stroke="none" xml:space="preserve" x="813" y="85" font-family="Arial" font-size="16" font-weight="400" font-style="normal" 
 >currency</text>
<text fill="#000000" fill-opacity="1" stroke="none" xml:space="preserve" x="147" y="123" font-family="Arial" font-size="16" font-weight="400" font-style="normal" 
 >grp_a</text>
<text fill="#000000" fill-opacity="1" stroke="none" xml:space="preserve" x="154" y="161" font-family="Arial" font-size="16" font-weight="400" font-style="normal" 
 >row_1</text>
<text fill="#000000" fill-opacity="1" stroke="none" xml:space="preserve" x="282" y="161" font-family="Arial" font-size="16" font-weight="400" font-style="normal" 
 >0.11</text>
<text fill="#000000" fill-opacity="1" stroke="none" xml:space="preserve" x="333" y="161" font-family="Arial" font-size="16" font-weight="400" font-style="normal" 
 >apricot</text>
<text fill="#000000" fill-opacity="1" stroke="none" xml:space="preserve" x="435" y="161" font-family="Arial" font-size="16" font-weight="400" font-style="normal" 
 >one</text>
<text fill="#000000" fill-opacity="1" stroke="none" xml:space="preserve" x="490" y="161" font-family="Arial" font-size="16" font-weight="400" font-style="normal" 
 >2015-01-15</text>
<text fill="#000000" fill-opacity="1" stroke="none" xml:space="preserve" x="592" y="161" font-family="Arial" font-size="16" font-weight="400" font-style="normal" 
 >13:35</text>
<text fill="#000000" fill-opacity="1" stroke="none" xml:space="preserve" x="652" y="161" font-family="Arial" font-size="16" font-weight="400" font-style="normal" 
 >2018-01-01 02:22</text>
<text fill="#000000" fill-opacity="1" stroke="none" xml:space="preserve" x="825" y="161" font-family="Arial" font-size="16" font-weight="400" font-style="normal" 
 >49.950</text>
<text fill="#000000" fill-opacity="1" stroke="none" xml:space="preserve" x="154" y="199" font-family="Arial" font-size="16" font-weight="400" font-style="normal" 
 >row_2</text>
<text fill="#000000" fill-opacity="1" stroke="none" xml:space="preserve" x="282" y="199" font-family="Arial" font-size="16" font-weight="400" font-style="normal" 
 >2.22</text>
<text fill="#000000" fill-opacity="1" stroke="none" xml:space="preserve" x="333" y="199" font-family="Arial" font-size="16" font-weight="400" font-style="normal" 
 >banana</text>
<text fill="#000000" fill-opacity="1" stroke="none" xml:space="preserve" x="436" y="199" font-family="Arial" font-size="16" font-weight="400" font-style="normal" 
 >two</text>
<text fill="#000000" fill-opacity="1" stroke="none" xml:space="preserve" x="490" y="199" font-family="Arial" font-size="16" font-weight="400" font-style="normal" 
 >2015-02-15</text>
<text fill="#000000" fill-opacity="1" stroke="none" xml:space="preserve" x="592" y="199" font-family="Arial" font-size="16" font-weight="400" font-style="normal" 
 >14:40</text>
<text fill="#000000" fill-opacity="1" stroke="none" xml:space="preserve" x="652" y="199" font-family="Arial" font-size="16" font-weight="400" font-style="normal" 
 >2018-02-02 14:33</text>
<text fill="#000000" fill-opacity="1" stroke="none" xml:space="preserve" x="825" y="199" font-family="Arial" font-size="16" font-weight="400" font-style="normal" 
 >17.950</text>
<text fill="#000000" fill-opacity="1" stroke="none" xml:space="preserve" x="154" y="237" font-family="Arial" font-size="16" font-weight="400" font-style="normal" 
 >row_3</text>
<text fill="#000000" fill-opacity="1" stroke="none" xml:space="preserve" x="273" y="237" font-family="Arial" font-size="16" font-weight="400" font-style="normal" 
 >33.33</text>
<text fill="#000000" fill-opacity="1" stroke="none" xml:space="preserve" x="333" y="237" font-family="Arial" font-size="16" font-weight="400" font-style="normal" 
 >coconut</text>
<text fill="#000000" fill-opacity="1" stroke="none" xml:space="preserve" x="430.5" y="237" font-family="Arial" font-size="16" font-weight="400" font-style="normal" 
 >three</text>
<text fill="#000000" fill-opacity="1" stroke="none" xml:space="preserve" x="490" y="237" font-family="Arial" font-size="16" font-weight="400" font-style="normal" 
 >2015-03-15</text>
<text fill="#000000" fill-opacity="1" stroke="none" xml:space="preserve" x="592" y="237" font-family="Arial" font-size="16" font-weight="400" font-style="normal" 
 >15:45</text>
<text fill="#000000" fill-opacity="1" stroke="none" xml:space="preserve" x="652" y="237" font-family="Arial" font-size="16" font-weight="400" font-style="normal" 
 >2018-03-03 03:44</text>
<text fill="#000000" fill-opacity="1" stroke="none" xml:space="preserve" x="834" y="237" font-family="Arial" font-size="16" font-weight="400" font-style="normal" 
 >1.390</text>
<text fill="#000000" fill-opacity="1" stroke="none" xml:space="preserve" x="154" y="275" font-family="Arial" font-size="16" font-weight="400" font-style="normal" 
 >row_4</text>
<text fill="#000000" fill-opacity="1" stroke="none" xml:space="preserve" x="264" y="275" font-family="Arial" font-size="16" font-weight="400" font-style="normal" 
 >444.40</text>
<text fill="#000000" fill-opacity="1" stroke="none" xml:space="preserve" x="333" y="275" font-family="Arial" font-size="16" font-weight="400" font-style="normal" 
 >durian</text>
<text fill="#000000" fill-opacity="1" stroke="none" xml:space="preserve" x="435" y="275" font-family="Arial" font-size="16" font-weight="400" font-style="normal" 
 >four</text>
<text fill="#000000" fill-opacity="1" stroke="none" xml:space="preserve" x="490" y="275" font-family="Arial" font-size="16" font-weight="400" font-style="normal" 
 >2015-04-15</text>
<text fill="#000000" fill-opacity="1" stroke="none" xml:space="preserve" x="592" y="275" font-family="Arial" font-size="16" font-weight="400" font-style="normal" 
 >16:50</text>
<text fill="#000000" fill-opacity="1" stroke="none" xml:space="preserve" x="652" y="275" font-family="Arial" font-size="16" font-weight="400" font-style="normal" 
 >2018-04-04 15:55</text>
<text fill="#000000" fill-opacity="1" stroke="none" xml:space="preserve" x="798" y="275" font-family="Arial" font-size="16" font-weight="400" font-style="normal" 
 >65100.000</text>
<text fill="#000000" fill-opacity="1" stroke="none" xml:space="preserve" x="147" y="313" font-family="Arial" font-size="16" font-weight="400" font-style="normal" 
 >grp_b</text>
<text fill="#000000" fill-opacity="1" stroke="none" xml:space="preserve" x="154" y="351" font-family="Arial" font-size="16" font-weight="400" font-style="normal" 
 >row_5</text>
<text fill="#000000" fill-opacity="1" stroke="none" xml:space="preserve" x="251" y="351" font-family="Arial" font-size="16" font-weight="400" font-style="normal" 
 >5,550.00</text>
<text fill="#000000" fill-opacity="1" stroke="none" xml:space="preserve" x="333" y="351" font-family="Arial" font-size="16" font-weight="400" font-style="normal" 
 >NA</text>
<text fill="#000000" fill-opacity="1" stroke="none" xml:space="preserve" x="436" y="351" font-family="Arial" font-size="16" font-weight="400" font-style="normal" 
 >five</text>
<text fill="#000000" fill-opacity="1" stroke="none" xml:space="preserve" x="490" y="351" font-family="Arial" font-size="16" font-weight="400" font-style="normal" 
 >2015-05-15</text>
<text fill="#000000" fill-opacity="1" stroke="none" xml:space="preserve" x="592" y="351" font-family="Arial" font-size="16" font-weight="400" font-style="normal" 
 >17:55</text>
<text fill="#000000" fill-opacity="1" stroke="none" xml:space="preserve" x="652" y="351" font-family="Arial" font-size="16" font-weight="400" font-style="normal" 
 >2018-05-05 04:00</text>
<text fill="#000000" fill-opacity="1" stroke="none" xml:space="preserve" x="807" y="351" font-family="Arial" font-size="16" font-weight="400" font-style="normal" 
 >1325.810</text>
<text fill="#000000" fill-opacity="1" stroke="none" xml:space="preserve" x="154" y="389" font-family="Arial" font-size="16" font-weight="400" font-style="normal" 
 >row_6</text>
<text fill="#000000" fill-opacity="1" stroke="none" xml:space="preserve" x="290" y="389" font-family="Arial" font-size="16" font-weight="400" font-style="normal" 
 >NA</text>
<text fill="#000000" fill-opacity="1" stroke="none" xml:space="preserve" x="333" y="389" font-family="Arial" font-size="16" font-weight="400" font-style="normal" 
 >fig</text>
<text fill="#000000" fill-opacity="1" stroke="none" xml:space="preserve" x="438.5" y="389" font-family="Arial" font-size="16" font-weight="400" font-style="normal" 
 >six</text>
<text fill="#000000" fill-opacity="1" stroke="none" xml:space="preserve" x="490" y="389" font-family="Arial" font-size="16" font-weight="400" font-style="normal" 
 >2015-06-15</text>
<text fill="#000000" fill-opacity="1" stroke="none" xml:space="preserve" x="592" y="389" font-family="Arial" font-size="16" font-weight="400" font-style="normal" 
 >NA</text>
<text fill="#000000" fill-opacity="1" stroke="none" xml:space="preserve" x="652" y="389" font-family="Arial" font-size="16" font-weight="400" font-style="normal" 
 >2018-06-06 16:11</text>
<text fill="#000000" fill-opacity="1" stroke="none" xml:space="preserve" x="825" y="389" font-family="Arial" font-size="16" font-weight="400" font-style="normal" 
 >13.255</text>
<text fill="#000000" fill-opacity="1" stroke="none" xml:space="preserve" x="154" y="427" font-family="Arial" font-size="16" font-weight="400" font-style="normal" 
 >row_7</text>
<text fill="#000000" fill-opacity="1" stroke="none" xml:space="preserve" x="233" y="427" font-family="Arial" font-size="16" font-weight="400" font-style="normal" 
 >777,000.00</text>
<text fill="#000000" fill-opacity="1" stroke="none" xml:space="preserve" x="333" y="427" font-family="Arial" font-size="16" font-weight="400" font-style="normal" 
 >grapefruit</text>
<text fill="#000000" fill-opacity="1" stroke="none" xml:space="preserve" x="427" y="427" font-family="Arial" font-size="16" font-weight="400" font-style="normal" 
 >seven</text>
<text fill="#000000" fill-opacity="1" stroke="none" xml:space="preserve" x="490" y="427" font-family="Arial" font-size="16" font-weight="400" font-style="normal" 
 >NA</text>
<text fill="#000000" fill-opacity="1" stroke="none" xml:space="preserve" x="592" y="427" font-family="Arial" font-size="16" font-weight="400" font-style="normal" 
 >19:10</text>
<text fill="#000000" fill-opacity="1" stroke="none" xml:space="preserve" x="652" y="427" font-family="Arial" font-size="16" font-weight="400" font-style="normal" 
 >2018-07-07 05:22</text>
<text fill="#000000" fill-opacity="1" stroke="none" xml:space="preserve" x="851" y="427" font-family="Arial" font-size="16" font-weight="400" font-style="normal" 
 >NA</text>
<text fill="#000000" fill-opacity="1" stroke="none" xml:space="preserve" x="154" y="465" font-family="Arial" font-size="16" font-weight="400" font-style="normal" 
 >row_8</text>
<text fill="#000000" fill-opacity="1" stroke="none" xml:space="preserve" x="220" y="465" font-family="Arial" font-size="16" font-weight="400" font-style="normal" 
 >8,880,000.00</text>
<text fill="#000000" fill-opacity="1" stroke="none" xml:space="preserve" x="333" y="465" font-family="Arial" font-size="16" font-weight="400" font-style="normal" 
 >honeydew</text>
<text fill="#000000" fill-opacity="1" stroke="none" xml:space="preserve" x="431" y="465" font-family="Arial" font-size="16" font-weight="400" font-style="normal" 
 >eight</text>
<text fill="#000000" fill-opacity="1" stroke="none" xml:space="preserve" x="490" y="465" font-family="Arial" font-size="16" font-weight="400" font-style="normal" 
 >2015-08-15</text>
<text fill="#000000" fill-opacity="1" stroke="none" xml:space="preserve" x="592" y="465" font-family="Arial" font-size="16" font-weight="400" font-style="normal" 
 >20:20</text>
<text fill="#000000" fill-opacity="1" stroke="none" xml:space="preserve" x="652" y="465" font-family="Arial" font-size="16" font-weight="400" font-style="normal" 
 >NA</text>
<text fill="#000000" fill-opacity="1" stroke="none" xml:space="preserve" x="834" y="465" font-family="Arial" font-size="16" font-weight="400" font-style="normal" 
 >0.440</text>
</g>
</g>
</svg>
