<?xml version="1.0" encoding="UTF-8" standalone="no"?>
<svg width="361.244mm" height="127.706mm"
 viewBox="0 0 1024 362"
 xmlns="http://www.w3.org/2000/svg" xmlns:xlink="http://www.w3.org/1999/xlink"  version="1.2" baseProfile="tiny">
<title>Qt Svg Document</title>
<desc>Generated with Qt</desc>
<defs>
</defs>
<g fill="none" stroke="black" stroke-width="1" fill-rule="evenodd" stroke-linecap="square" stroke-linejoin="bevel" >

<g fill="#ffffff" fill-opacity="1" stroke="none" transform="matrix(1,0,0,1,0,0)"
font-family="Helvetica" font-size="12" font-weight="400" font-style="normal"
>
<path vector-effect="non-scaling-stroke" fill-rule="evenodd" d="M0,0 L1024,0 L1024,362 L0,362 L0,0"/>
<path vector-effect="non-scaling-stroke" fill-rule="evenodd" d="M0,0 L1024,0 L1024,362 L0,362 L0,0"/>
<path vector-effect="non-scaling-stroke" fill-rule="evenodd" d="M0,0 L1024,0 L1024,362 L0,362 L0,0"/>
<path vector-effect="non-scaling-stroke" fill-rule="evenodd" d="M422,8 L602,8 L602,354 L422,354 L422,8"/>
<path vector-effect="non-scaling-stroke" fill-rule="evenodd" d="M422,9 L458,9 L458,49 L422,49 L422,9"/>
<path vector-effect="non-scaling-stroke" fill-rule="evenodd" d="M458,9 L515,9 L515,49 L458,49 L458,9"/>
<path vector-effect="non-scaling-stroke" fill-rule="evenodd" d="M515,9 L602,9 L602,49 L515,49 L515,9"/>
<path vector-effect="non-scaling-stroke" fill-rule="evenodd" d="M422,49 L602,49 L602,85 L422,85 L422,49"/>
<path vector-effect="non-scaling-stroke" fill-rule="evenodd" d="M422,85 L458,85 L458,124 L422,124 L422,85"/>
</g>

<g fill="#b71c1c" fill-opacity="1" stroke="none" transform="matrix(1,0,0,1,0,0)"
font-family="Helvetica" font-size="12" font-weight="400" font-style="normal"
>
<path vector-effect="non-scaling-stroke" fill-rule="evenodd" d="M458,85 L515,85 L515,124 L458,124 L458,85"/>
<path vector-effect="non-scaling-stroke" fill-rule="evenodd" d="M515,85 L602,85 L602,124 L515,124 L515,85"/>
</g>

<g fill="#ffffff" fill-opacity="1" stroke="none" transform="matrix(1,0,0,1,0,0)"
font-family="Helvetica" font-size="12" font-weight="400" font-style="normal"
>
<path vector-effect="non-scaling-stroke" fill-rule="evenodd" d="M422,124 L458,124 L458,162 L422,162 L422,124"/>
</g>

<g fill="#ec3e35" fill-opacity="1" stroke="none" transform="matrix(1,0,0,1,0,0)"
font-family="Helvetica" font-size="12" font-weight="400" font-style="normal"
>
<path vector-effect="non-scaling-stroke" fill-rule="evenodd" d="M458,124 L515,124 L515,162 L458,162 L458,124"/>
</g>

<g fill="#f24c44" fill-opacity="1" stroke="none" transform="matrix(1,0,0,1,0,0)"
font-family="Helvetica" font-size="12" font-weight="400" font-style="normal"
>
<path vector-effect="non-scaling-stroke" fill-rule="evenodd" d="M515,124 L602,124 L602,162 L515,162 L515,124"/>
</g>

<g fill="#ffffff" fill-opacity="1" stroke="none" transform="matrix(1,0,0,1,0,0)"
font-family="Helvetica" font-size="12" font-weight="400" font-style="normal"
>
<path vector-effect="non-scaling-stroke" fill-rule="evenodd" d="M422,162 L458,162 L458,201 L422,201 L422,162"/>
</g>

<g fill="#ffebee" fill-opacity="1" stroke="none" transform="matrix(1,0,0,1,0,0)"
font-family="Helvetica" font-size="12" font-weight="400" font-style="normal"
>
<path vector-effect="non-scaling-stroke" fill-rule="evenodd" d="M458,162 L515,162 L515,201 L458,201 L458,162"/>
<path vector-effect="non-scaling-stroke" fill-rule="evenodd" d="M515,162 L602,162 L602,201 L515,201 L515,162"/>
</g>

<g fill="#ffffff" fill-opacity="1" stroke="none" transform="matrix(1,0,0,1,0,0)"
font-family="Helvetica" font-size="12" font-weight="400" font-style="normal"
>
<path vector-effect="non-scaling-stroke" fill-rule="evenodd" d="M422,201 L602,201 L602,237 L422,237 L422,201"/>
<path vector-effect="non-scaling-stroke" fill-rule="evenodd" d="M422,237 L458,237 L458,276 L422,276 L422,237"/>
</g>

<g fill="#c92a2a" fill-opacity="1" stroke="none" transform="matrix(1,0,0,1,0,0)"
font-family="Helvetica" font-size="12" font-weight="400" font-style="normal"
>
<path vector-effect="non-scaling-stroke" fill-rule="evenodd" d="M458,237 L515,237 L515,276 L458,276 L458,237"/>
</g>

<g fill="#c62828" fill-opacity="1" stroke="none" transform="matrix(1,0,0,1,0,0)"
font-family="Helvetica" font-size="12" font-weight="400" font-style="normal"
>
<path vector-effect="non-scaling-stroke" fill-rule="evenodd" d="M515,237 L602,237 L602,276 L515,276 L515,237"/>
</g>

<g fill="#ffffff" fill-opacity="1" stroke="none" transform="matrix(1,0,0,1,0,0)"
font-family="Helvetica" font-size="12" font-weight="400" font-style="normal"
>
<path vector-effect="non-scaling-stroke" fill-rule="evenodd" d="M422,276 L458,276 L458,314 L422,314 L422,276"/>
</g>

<g fill="#e43835" fill-opacity="1" stroke="none" transform="matrix(1,0,0,1,0,0)"
font-family="Helvetica" font-size="12" font-weight="400" font-style="normal"
>
<path vector-effect="non-scaling-stroke" fill-rule="evenodd" d="M458,276 L515,276 L515,314 L458,314 L458,276"/>
</g>

<g fill="#f24940" fill-opacity="1" stroke="none" transform="matrix(1,0,0,1,0,0)"
font-family="Helvetica" font-size="12" font-weight="400" font-style="normal"
>
<path vector-effect="non-scaling-stroke" fill-rule="evenodd" d="M515,276 L602,276 L602,314 L515,314 L515,276"/>
</g>

<g fill="#ffffff" fill-opacity="1" stroke="none" transform="matrix(1,0,0,1,0,0)"
font-family="Helvetica" font-size="12" font-weight="400" font-style="normal"
>
<path vector-effect="non-scaling-stroke" fill-rule="evenodd" d="M422,314 L458,314 L458,353 L422,353 L422,314"/>
</g>

<g fill="#ee5956" fill-opacity="1" stroke="none" transform="matrix(1,0,0,1,0,0)"
font-family="Helvetica" font-size="12" font-weight="400" font-style="normal"
>
<path vector-effect="non-scaling-stroke" fill-rule="evenodd" d="M458,314 L515,314 L515,353 L458,353 L458,314"/>
</g>

<g fill="#ec8e8d" fill-opacity="1" stroke="none" transform="matrix(1,0,0,1,0,0)"
font-family="Helvetica" font-size="12" font-weight="400" font-style="normal"
>
<path vector-effect="non-scaling-stroke" fill-rule="evenodd" d="M515,314 L602,314 L602,353 L515,353 L515,314"/>
</g>

<g fill="#a8a8a8" fill-opacity="1" stroke="none" transform="matrix(1,0,0,1,0,0)"
font-family="Helvetica" font-size="12" font-weight="400" font-style="normal"
>
<path vector-effect="non-scaling-stroke" fill-rule="evenodd" d="M422,8 L458,8 L458,10 L422,10 L422,8"/>
<path vector-effect="non-scaling-stroke" fill-rule="evenodd" d="M458,8 L515,8 L515,10 L458,10 L458,8"/>
<path vector-effect="non-scaling-stroke" fill-rule="evenodd" d="M515,8 L602,8 L602,10 L515,10 L515,8"/>
<path vector-effect="non-scaling-stroke" fill-rule="evenodd" d="M422,352 L459,352 L459,354 L422,354 L422,352"/>
<path vector-effect="non-scaling-stroke" fill-rule="evenodd" d="M457,352 L515,352 L515,354 L457,354 L457,352"/>
<path vector-effect="non-scaling-stroke" fill-rule="evenodd" d="M515,352 L602,352 L602,354 L515,354 L515,352"/>
<path vector-effect="non-scaling-stroke" fill-rule="evenodd" d="M422,48 L458,48 L458,50 L422,50 L422,48"/>
<path vector-effect="non-scaling-stroke" fill-rule="evenodd" d="M458,48 L515,48 L515,50 L458,50 L458,48"/>
<path vector-effect="non-scaling-stroke" fill-rule="evenodd" d="M515,48 L602,48 L602,50 L515,50 L515,48"/>
<path vector-effect="non-scaling-stroke" fill-rule="evenodd" d="M422,48 L602,48 L602,50 L422,50 L422,48"/>
<path vector-effect="non-scaling-stroke" fill-rule="evenodd" d="M422,84 L602,84 L602,86 L422,86 L422,84"/>
<path vector-effect="non-scaling-stroke" fill-rule="evenodd" d="M422,84 L459,84 L459,86 L422,86 L422,84"/>
<path vector-effect="non-scaling-stroke" fill-rule="evenodd" d="M457,84 L459,84 L459,124 L457,124 L457,84"/>
<path vector-effect="non-scaling-stroke" fill-rule="evenodd" d="M457,84 L515,84 L515,86 L457,86 L457,84"/>
<path vector-effect="non-scaling-stroke" fill-rule="evenodd" d="M457,84 L459,84 L459,124 L457,124 L457,84"/>
<path vector-effect="non-scaling-stroke" fill-rule="evenodd" d="M515,84 L602,84 L602,86 L515,86 L515,84"/>
<path vector-effect="non-scaling-stroke" fill-rule="evenodd" d="M457,124 L459,124 L459,162 L457,162 L457,124"/>
<path vector-effect="non-scaling-stroke" fill-rule="evenodd" d="M457,124 L459,124 L459,162 L457,162 L457,124"/>
<path vector-effect="non-scaling-stroke" fill-rule="evenodd" d="M422,200 L459,200 L459,202 L422,202 L422,200"/>
<path vector-effect="non-scaling-stroke" fill-rule="evenodd" d="M457,162 L459,162 L459,202 L457,202 L457,162"/>
<path vector-effect="non-scaling-stroke" fill-rule="evenodd" d="M457,200 L515,200 L515,202 L457,202 L457,200"/>
<path vector-effect="non-scaling-stroke" fill-rule="evenodd" d="M457,162 L459,162 L459,202 L457,202 L457,162"/>
<path vector-effect="non-scaling-stroke" fill-rule="evenodd" d="M515,200 L602,200 L602,202 L515,202 L515,200"/>
<path vector-effect="non-scaling-stroke" fill-rule="evenodd" d="M422,200 L602,200 L602,202 L422,202 L422,200"/>
<path vector-effect="non-scaling-stroke" fill-rule="evenodd" d="M422,236 L602,236 L602,238 L422,238 L422,236"/>
<path vector-effect="non-scaling-stroke" fill-rule="evenodd" d="M422,236 L459,236 L459,238 L422,238 L422,236"/>
<path vector-effect="non-scaling-stroke" fill-rule="evenodd" d="M457,236 L459,236 L459,276 L457,276 L457,236"/>
<path vector-effect="non-scaling-stroke" fill-rule="evenodd" d="M457,236 L515,236 L515,238 L457,238 L457,236"/>
<path vector-effect="non-scaling-stroke" fill-rule="evenodd" d="M457,236 L459,236 L459,276 L457,276 L457,236"/>
<path vector-effect="non-scaling-stroke" fill-rule="evenodd" d="M515,236 L602,236 L602,238 L515,238 L515,236"/>
<path vector-effect="non-scaling-stroke" fill-rule="evenodd" d="M457,276 L459,276 L459,314 L457,314 L457,276"/>
<path vector-effect="non-scaling-stroke" fill-rule="evenodd" d="M457,276 L459,276 L459,314 L457,314 L457,276"/>
<path vector-effect="non-scaling-stroke" fill-rule="evenodd" d="M457,314 L459,314 L459,354 L457,354 L457,314"/>
<path vector-effect="non-scaling-stroke" fill-rule="evenodd" d="M457,314 L459,314 L459,354 L457,354 L457,314"/>
</g>

<g fill="#000000" fill-opacity="1" stroke="#000000" stroke-opacity="1" stroke-width="1" stroke-linecap="square" stroke-linejoin="bevel" transform="matrix(1,0,0,1,0,0)"
font-family="Arial" font-size="16" font-weight="400" font-style="normal"
>
<text fill="#000000" fill-opacity="1" stroke="none" xml:space="preserve" x="475" y="34" font-family="Arial" font-size="16" font-weight="400" font-style="normal"
 >sold</text>
<text fill="#000000" fill-opacity="1" stroke="none" xml:space="preserve" x="540" y="34" font-family="Arial" font-size="16" font-weight="400" font-style="normal"
 >income</text>
<text fill="#000000" fill-opacity="1" stroke="none" xml:space="preserve" x="430" y="72" font-family="Arial" font-size="16" font-weight="400" font-style="normal"
 >chicken</text>
<text fill="#000000" fill-opacity="1" stroke="none" xml:space="preserve" x="434" y="110" font-family="Arial" font-size="16" font-weight="400" font-style="normal"
 >L</text>
<text fill="#FFFFFF" fill-opacity="1" stroke="none" xml:space="preserve" x="469" y="110" font-family="Arial" font-size="16" font-weight="400" font-style="normal"
 >4932</text>
<text fill="#FFFFFF" fill-opacity="1" stroke="none" xml:space="preserve" x="525" y="110" font-family="Arial" font-size="16" font-weight="400" font-style="normal"
 >102339.0</text>
<text fill="#000000" fill-opacity="1" stroke="none" xml:space="preserve" x="434" y="148" font-family="Arial" font-size="16" font-weight="400" font-style="normal"
 >M</text>
<text fill="#FFFFFF" fill-opacity="1" stroke="none" xml:space="preserve" x="469" y="148" font-family="Arial" font-size="16" font-weight="400" font-style="normal"
 >3894</text>
<text fill="#FFFFFF" fill-opacity="1" stroke="none" xml:space="preserve" x="534" y="148" font-family="Arial" font-size="16" font-weight="400" font-style="normal"
 >65224.5</text>
<text fill="#000000" fill-opacity="1" stroke="none" xml:space="preserve" x="434" y="186" font-family="Arial" font-size="16" font-weight="400" font-style="normal"
 >S</text>
<text fill="#000000" fill-opacity="1" stroke="none" xml:space="preserve" x="469" y="186" font-family="Arial" font-size="16" font-weight="400" font-style="normal"
 >2224</text>
<text fill="#000000" fill-opacity="1" stroke="none" xml:space="preserve" x="534" y="186" font-family="Arial" font-size="16" font-weight="400" font-style="normal"
 >28356.0</text>
<text fill="#000000" fill-opacity="1" stroke="none" xml:space="preserve" x="430" y="224" font-family="Arial" font-size="16" font-weight="400" font-style="normal"
 >supreme</text>
<text fill="#000000" fill-opacity="1" stroke="none" xml:space="preserve" x="434" y="262" font-family="Arial" font-size="16" font-weight="400" font-style="normal"
 >L</text>
<text fill="#FFFFFF" fill-opacity="1" stroke="none" xml:space="preserve" x="469" y="262" font-family="Arial" font-size="16" font-weight="400" font-style="normal"
 >4564</text>
<text fill="#FFFFFF" fill-opacity="1" stroke="none" xml:space="preserve" x="534" y="262" font-family="Arial" font-size="16" font-weight="400" font-style="normal"
 >94258.5</text>
<text fill="#000000" fill-opacity="1" stroke="none" xml:space="preserve" x="434" y="300" font-family="Arial" font-size="16" font-weight="400" font-style="normal"
 >M</text>
<text fill="#FFFFFF" fill-opacity="1" stroke="none" xml:space="preserve" x="469" y="300" font-family="Arial" font-size="16" font-weight="400" font-style="normal"
 >4046</text>
<text fill="#FFFFFF" fill-opacity="1" stroke="none" xml:space="preserve" x="534" y="300" font-family="Arial" font-size="16" font-weight="400" font-style="normal"
 >66475.0</text>
<text fill="#000000" fill-opacity="1" stroke="none" xml:space="preserve" x="434" y="338" font-family="Arial" font-size="16" font-weight="400" font-style="normal"
 >S</text>
<text fill="#000000" fill-opacity="1" stroke="none" xml:space="preserve" x="469" y="338" font-family="Arial" font-size="16" font-weight="400" font-style="normal"
 >3377</text>
<text fill="#000000" fill-opacity="1" stroke="none" xml:space="preserve" x="534" y="338" font-family="Arial" font-size="16" font-weight="400" font-style="normal"
 >47463.5</text>
</g>
</g>
</svg>
