<?xml version="1.0" encoding="UTF-8" standalone="no"?>
<svg width="361.244mm" height="96.6611mm"
 viewBox="0 0 1024 274"
 xmlns="http://www.w3.org/2000/svg" xmlns:xlink="http://www.w3.org/1999/xlink"  version="1.2" baseProfile="tiny">
<title>Qt Svg Document</title>
<desc>Generated with Qt</desc>
<defs>
</defs>
<g fill="none" stroke="black" stroke-width="1" fill-rule="evenodd" stroke-linecap="square" stroke-linejoin="bevel" >

<g fill="#ffffff" fill-opacity="1" stroke="none" transform="matrix(1,0,0,1,0,0)"
font-family="Helvetica" font-size="12" font-weight="400" font-style="normal" 
>
<path vector-effect="non-scaling-stroke" fill-rule="evenodd" d="M0,0 L1024,0 L1024,274 L0,274 L0,0"/>
<path vector-effect="non-scaling-stroke" fill-rule="evenodd" d="M0,0 L1024,0 L1024,274 L0,274 L0,0"/>
<path vector-effect="non-scaling-stroke" fill-rule="evenodd" d="M0,0 L1024,0 L1024,274 L0,274 L0,0"/>
<path vector-effect="non-scaling-stroke" fill-rule="evenodd" d="M384,8 L639,8 L639,266 L384,266 L384,8"/>
<path vector-effect="non-scaling-stroke" fill-rule="evenodd" d="M384,9 L451,9 L451,49 L384,49 L384,9"/>
<path vector-effect="non-scaling-stroke" fill-rule="evenodd" d="M451,9 L565,9 L565,49 L451,49 L451,9"/>
<path vector-effect="non-scaling-stroke" fill-rule="evenodd" d="M565,9 L639,9 L639,49 L565,49 L565,9"/>
</g>

<g fill="#f2f2f2" fill-opacity="1" stroke="none" transform="matrix(1,0,0,1,0,0)"
font-family="Helvetica" font-size="12" font-weight="400" font-style="normal" 
>
<path vector-effect="non-scaling-stroke" fill-rule="evenodd" d="M384,88 L451,88 L451,126 L384,126 L384,88"/>
<path vector-effect="non-scaling-stroke" fill-rule="evenodd" d="M451,88 L565,88 L565,126 L451,126 L451,88"/>
<path vector-effect="non-scaling-stroke" fill-rule="evenodd" d="M565,88 L639,88 L639,126 L565,126 L565,88"/>
<path vector-effect="non-scaling-stroke" fill-rule="evenodd" d="M384,164 L451,164 L451,202 L384,202 L384,164"/>
<path vector-effect="non-scaling-stroke" fill-rule="evenodd" d="M451,164 L565,164 L565,202 L451,202 L451,164"/>
<path vector-effect="non-scaling-stroke" fill-rule="evenodd" d="M565,164 L639,164 L639,202 L565,202 L565,164"/>
</g>

<g fill="#a8a8a8" fill-opacity="1" stroke="none" transform="matrix(1,0,0,1,0,0)"
font-family="Helvetica" font-size="12" font-weight="400" font-style="normal" 
>
<path vector-effect="non-scaling-stroke" fill-rule="evenodd" d="M384,8 L451,8 L451,10 L384,10 L384,8"/>
<path vector-effect="non-scaling-stroke" fill-rule="evenodd" d="M451,8 L565,8 L565,10 L451,10 L451,8"/>
<path vector-effect="non-scaling-stroke" fill-rule="evenodd" d="M565,8 L639,8 L639,10 L565,10 L565,8"/>
<path vector-effect="non-scaling-stroke" fill-rule="evenodd" d="M384,48 L451,48 L451,50 L384,50 L384,48"/>
<path vector-effect="non-scaling-stroke" fill-rule="evenodd" d="M451,48 L565,48 L565,50 L451,50 L451,48"/>
<path vector-effect="non-scaling-stroke" fill-rule="evenodd" d="M565,48 L639,48 L639,50 L565,50 L565,48"/>
<path vector-effect="non-scaling-stroke" fill-rule="evenodd" d="M384,48 L451,48 L451,50 L384,50 L384,48"/>
<path vector-effect="non-scaling-stroke" fill-rule="evenodd" d="M451,48 L565,48 L565,50 L451,50 L451,48"/>
<path vector-effect="non-scaling-stroke" fill-rule="evenodd" d="M565,48 L639,48 L639,50 L565,50 L565,48"/>
<path vector-effect="non-scaling-stroke" fill-rule="evenodd" d="M384,240 L451,240 L451,242 L384,242 L384,240"/>
<path vector-effect="non-scaling-stroke" fill-rule="evenodd" d="M451,240 L565,240 L565,242 L451,242 L451,240"/>
<path vector-effect="non-scaling-stroke" fill-rule="evenodd" d="M565,240 L639,240 L639,242 L565,242 L565,240"/>
<path vector-effect="non-scaling-stroke" fill-rule="evenodd" d="M384,240 L639,240 L639,242 L384,242 L384,240"/>
</g>

<g fill="#000000" fill-opacity="1" stroke="#000000" stroke-opacity="1" stroke-width="1" stroke-linecap="square" stroke-linejoin="bevel" transform="matrix(1,0,0,1,0,0)"
font-family="Arial" font-size="16" font-weight="400" font-style="normal" 
>
<text fill="#000000" fill-opacity="1" stroke="none" xml:space="preserve" x="394" y="34" font-family="Arial" font-size="16" font-weight="400" font-style="normal" 
 >mfr</text>
<text fill="#000000" fill-opacity="1" stroke="none" xml:space="preserve" x="461" y="34" font-family="Arial" font-size="16" font-weight="400" font-style="normal" 
 >model</text>
<text fill="#000000" fill-opacity="1" stroke="none" xml:space="preserve" x="594" y="34" font-family="Arial" font-size="16" font-weight="400" font-style="normal" 
 >msrp</text>
<text fill="#000000" fill-opacity="1" stroke="none" xml:space="preserve" x="394" y="74" font-family="Arial" font-size="16" font-weight="400" font-style="normal" 
 >Ford</text>
<text fill="#000000" fill-opacity="1" stroke="none" xml:space="preserve" x="461" y="74" font-family="Arial" font-size="16" font-weight="400" font-style="normal" 
 >GT</text>
<text fill="#000000" fill-opacity="1" stroke="none" xml:space="preserve" x="575" y="74" font-family="Arial" font-size="16" font-weight="400" font-style="normal" 
 >447000</text>
<text fill="#000000" fill-opacity="1" stroke="none" xml:space="preserve" x="394" y="112" font-family="Arial" font-size="16" font-weight="400" font-style="normal" 
 >Ferrari</text>
<text fill="#000000" fill-opacity="1" stroke="none" xml:space="preserve" x="461" y="112" font-family="Arial" font-size="16" font-weight="400" font-style="normal" 
 >458 Speciale</text>
<text fill="#000000" fill-opacity="1" stroke="none" xml:space="preserve" x="575" y="112" font-family="Arial" font-size="16" font-weight="400" font-style="normal" 
 >291744</text>
<text fill="#000000" fill-opacity="1" stroke="none" xml:space="preserve" x="394" y="150" font-family="Arial" font-size="16" font-weight="400" font-style="normal" 
 >Ferrari</text>
<text fill="#000000" fill-opacity="1" stroke="none" xml:space="preserve" x="461" y="150" font-family="Arial" font-size="16" font-weight="400" font-style="normal" 
 >458 Spider</text>
<text fill="#000000" fill-opacity="1" stroke="none" xml:space="preserve" x="575" y="150" font-family="Arial" font-size="16" font-weight="400" font-style="normal" 
 >263553</text>
<text fill="#000000" fill-opacity="1" stroke="none" xml:space="preserve" x="394" y="188" font-family="Arial" font-size="16" font-weight="400" font-style="normal" 
 >Ferrari</text>
<text fill="#000000" fill-opacity="1" stroke="none" xml:space="preserve" x="461" y="188" font-family="Arial" font-size="16" font-weight="400" font-style="normal" 
 >458 Italia</text>
<text fill="#000000" fill-opacity="1" stroke="none" xml:space="preserve" x="575" y="188" font-family="Arial" font-size="16" font-weight="400" font-style="normal" 
 >233509</text>
<text fill="#000000" fill-opacity="1" stroke="none" xml:space="preserve" x="394" y="226" font-family="Arial" font-size="16" font-weight="400" font-style="normal" 
 >Ferrari</text>
<text fill="#000000" fill-opacity="1" stroke="none" xml:space="preserve" x="461" y="226" font-family="Arial" font-size="16" font-weight="400" font-style="normal" 
 >488 GTB</text>
<text fill="#000000" fill-opacity="1" stroke="none" xml:space="preserve" x="575" y="226" font-family="Arial" font-size="16" font-weight="400" font-style="normal" 
 >245400</text>
</g>

<g fill="#000000" fill-opacity="1" stroke="#000000" stroke-opacity="1" stroke-width="1" stroke-linecap="square" stroke-linejoin="bevel" transform="matrix(1,0,0,1,0,0)"
font-family="Arial" font-size="14" font-weight="400" font-style="normal" 
>
<text fill="#000000" fill-opacity="1" stroke="none" xml:space="preserve" x="388" y="259" font-family="Arial" font-size="14" font-weight="400" font-style="normal" 
 >From edmunds.com</text>
</g>
</g>
</svg>
