<?xml version="1.0" encoding="UTF-8" standalone="no"?>
<svg width="361.244mm" height="128.411mm"
 viewBox="0 0 1024 364"
 xmlns="http://www.w3.org/2000/svg" xmlns:xlink="http://www.w3.org/1999/xlink"  version="1.2" baseProfile="tiny">
<title>Qt Svg Document</title>
<desc>Generated with Qt</desc>
<defs>
</defs>
<g fill="none" stroke="black" stroke-width="1" fill-rule="evenodd" stroke-linecap="square" stroke-linejoin="bevel" >

<g fill="#ffffff" fill-opacity="1" stroke="none" transform="matrix(1,0,0,1,0,0)"
font-family="Helvetica" font-size="12" font-weight="400" font-style="normal" 
>
<path vector-effect="non-scaling-stroke" fill-rule="evenodd" d="M0,0 L1024,0 L1024,364 L0,364 L0,0"/>
<path vector-effect="non-scaling-stroke" fill-rule="evenodd" d="M0,0 L1024,0 L1024,364 L0,364 L0,0"/>
<path vector-effect="non-scaling-stroke" fill-rule="evenodd" d="M0,0 L1024,0 L1024,364 L0,364 L0,0"/>
<path vector-effect="non-scaling-stroke" fill-rule="evenodd" d="M424,8 L600,8 L600,356 L424,356 L424,8"/>
<path vector-effect="non-scaling-stroke" fill-rule="evenodd" d="M424,9 L540,9 L540,49 L424,49 L424,9"/>
<path vector-effect="non-scaling-stroke" fill-rule="evenodd" d="M540,9 L600,9 L600,49 L540,49 L540,9"/>
</g>

<g fill="#f2f2f2" fill-opacity="1" stroke="none" transform="matrix(1,0,0,1,0,0)"
font-family="Helvetica" font-size="12" font-weight="400" font-style="normal" 
>
<path vector-effect="non-scaling-stroke" fill-rule="evenodd" d="M424,88 L540,88 L540,126 L424,126 L424,88"/>
<path vector-effect="non-scaling-stroke" fill-rule="evenodd" d="M540,88 L600,88 L600,126 L540,126 L540,88"/>
<path vector-effect="non-scaling-stroke" fill-rule="evenodd" d="M424,164 L540,164 L540,202 L424,202 L424,164"/>
<path vector-effect="non-scaling-stroke" fill-rule="evenodd" d="M540,164 L600,164 L600,202 L540,202 L540,164"/>
<path vector-effect="non-scaling-stroke" fill-rule="evenodd" d="M424,240 L540,240 L540,278 L424,278 L424,240"/>
<path vector-effect="non-scaling-stroke" fill-rule="evenodd" d="M540,240 L600,240 L600,278 L540,278 L540,240"/>
<path vector-effect="non-scaling-stroke" fill-rule="evenodd" d="M424,316 L540,316 L540,355 L424,355 L424,316"/>
<path vector-effect="non-scaling-stroke" fill-rule="evenodd" d="M540,316 L600,316 L600,355 L540,355 L540,316"/>
</g>

<g fill="#a8a8a8" fill-opacity="1" stroke="none" transform="matrix(1,0,0,1,0,0)"
font-family="Helvetica" font-size="12" font-weight="400" font-style="normal" 
>
<path vector-effect="non-scaling-stroke" fill-rule="evenodd" d="M424,8 L540,8 L540,10 L424,10 L424,8"/>
<path vector-effect="non-scaling-stroke" fill-rule="evenodd" d="M540,8 L600,8 L600,10 L540,10 L540,8"/>
<path vector-effect="non-scaling-stroke" fill-rule="evenodd" d="M424,48 L540,48 L540,50 L424,50 L424,48"/>
<path vector-effect="non-scaling-stroke" fill-rule="evenodd" d="M540,48 L600,48 L600,50 L540,50 L540,48"/>
<path vector-effect="non-scaling-stroke" fill-rule="evenodd" d="M424,48 L540,48 L540,50 L424,50 L424,48"/>
<path vector-effect="non-scaling-stroke" fill-rule="evenodd" d="M540,48 L600,48 L600,50 L540,50 L540,48"/>
<path vector-effect="non-scaling-stroke" fill-rule="evenodd" d="M424,354 L540,354 L540,356 L424,356 L424,354"/>
<path vector-effect="non-scaling-stroke" fill-rule="evenodd" d="M540,354 L600,354 L600,356 L540,356 L540,354"/>
</g>

<g fill="#000000" fill-opacity="1" stroke="#000000" stroke-opacity="1" stroke-width="1" stroke-linecap="square" stroke-linejoin="bevel" transform="matrix(1,0,0,1,0,0)"
font-family="Arial" font-size="16" font-weight="400" font-style="normal" 
>
<text fill="#000000" fill-opacity="1" stroke="none" xml:space="preserve" x="434" y="34" font-family="Arial" font-size="16" font-weight="400" font-style="normal" 
 >date</text>
<text fill="#000000" fill-opacity="1" stroke="none" xml:space="preserve" x="550" y="34" font-family="Arial" font-size="16" font-weight="400" font-style="normal" 
 >time</text>
<text fill="#000000" fill-opacity="1" stroke="none" xml:space="preserve" x="434" y="74" font-family="Arial" font-size="16" font-weight="400" font-style="normal" 
 >15 Jan 2015</text>
<text fill="#000000" fill-opacity="1" stroke="none" xml:space="preserve" x="550" y="74" font-family="Arial" font-size="16" font-weight="400" font-style="normal" 
 >13:35</text>
<text fill="#000000" fill-opacity="1" stroke="none" xml:space="preserve" x="434" y="112" font-family="Arial" font-size="16" font-weight="400" font-style="normal" 
 >15 Feb 2015</text>
<text fill="#000000" fill-opacity="1" stroke="none" xml:space="preserve" x="550" y="112" font-family="Arial" font-size="16" font-weight="400" font-style="normal" 
 >14:40</text>
<text fill="#000000" fill-opacity="1" stroke="none" xml:space="preserve" x="434" y="150" font-family="Arial" font-size="16" font-weight="400" font-style="normal" 
 >15 Mar 2015</text>
<text fill="#000000" fill-opacity="1" stroke="none" xml:space="preserve" x="550" y="150" font-family="Arial" font-size="16" font-weight="400" font-style="normal" 
 >15:45</text>
<text fill="#000000" fill-opacity="1" stroke="none" xml:space="preserve" x="434" y="188" font-family="Arial" font-size="16" font-weight="400" font-style="normal" 
 >Apr 15, 2015</text>
<text fill="#000000" fill-opacity="1" stroke="none" xml:space="preserve" x="550" y="188" font-family="Arial" font-size="16" font-weight="400" font-style="normal" 
 >16:50</text>
<text fill="#000000" fill-opacity="1" stroke="none" xml:space="preserve" x="434" y="226" font-family="Arial" font-size="16" font-weight="400" font-style="normal" 
 >May 15, 2015</text>
<text fill="#000000" fill-opacity="1" stroke="none" xml:space="preserve" x="550" y="226" font-family="Arial" font-size="16" font-weight="400" font-style="normal" 
 >17:55</text>
<text fill="#000000" fill-opacity="1" stroke="none" xml:space="preserve" x="434" y="264" font-family="Arial" font-size="16" font-weight="400" font-style="normal" 
 >Jun 15, 2015</text>
<text fill="#000000" fill-opacity="1" stroke="none" xml:space="preserve" x="550" y="264" font-family="Arial" font-size="16" font-weight="400" font-style="normal" 
 >NA</text>
<text fill="#000000" fill-opacity="1" stroke="none" xml:space="preserve" x="434" y="302" font-family="Arial" font-size="16" font-weight="400" font-style="normal" 
 >NA</text>
<text fill="#000000" fill-opacity="1" stroke="none" xml:space="preserve" x="550" y="302" font-family="Arial" font-size="16" font-weight="400" font-style="normal" 
 >19:10</text>
<text fill="#000000" fill-opacity="1" stroke="none" xml:space="preserve" x="434" y="340" font-family="Arial" font-size="16" font-weight="400" font-style="normal" 
 >Aug 15, 2015</text>
<text fill="#000000" fill-opacity="1" stroke="none" xml:space="preserve" x="550" y="340" font-family="Arial" font-size="16" font-weight="400" font-style="normal" 
 >20:20</text>
</g>
</g>
</svg>
