<?xml version="1.0" encoding="UTF-8" standalone="no"?>
<svg width="361.244mm" height="101.6mm"
 viewBox="0 0 1024 288"
 xmlns="http://www.w3.org/2000/svg" xmlns:xlink="http://www.w3.org/1999/xlink"  version="1.2" baseProfile="tiny">
<title>Qt Svg Document</title>
<desc>Generated with Qt</desc>
<defs>
</defs>
<g fill="none" stroke="black" stroke-width="1" fill-rule="evenodd" stroke-linecap="square" stroke-linejoin="bevel" >

<g fill="#ffffff" fill-opacity="1" stroke="none" transform="matrix(1,0,0,1,0,0)"
font-family="Helvetica" font-size="12" font-weight="400" font-style="normal" 
>
<path vector-effect="non-scaling-stroke" fill-rule="evenodd" d="M0,0 L1024,0 L1024,288 L0,288 L0,0"/>
<path vector-effect="non-scaling-stroke" fill-rule="evenodd" d="M0,0 L1024,0 L1024,288 L0,288 L0,0"/>
<path vector-effect="non-scaling-stroke" fill-rule="evenodd" d="M0,0 L1024,0 L1024,288 L0,288 L0,0"/>
<path vector-effect="non-scaling-stroke" fill-rule="evenodd" d="M309,8 L715,8 L715,280 L309,280 L309,8"/>
<path vector-effect="non-scaling-stroke" fill-rule="evenodd" d="M309,9 L411,9 L411,49 L309,49 L309,9"/>
<path vector-effect="non-scaling-stroke" fill-rule="evenodd" d="M411,9 L563,9 L563,49 L411,49 L411,9"/>
<path vector-effect="non-scaling-stroke" fill-rule="evenodd" d="M563,9 L715,9 L715,49 L563,49 L563,9"/>
</g>

<g fill="#f2f2f2" fill-opacity="1" stroke="none" transform="matrix(1,0,0,1,0,0)"
font-family="Helvetica" font-size="12" font-weight="400" font-style="normal" 
>
<path vector-effect="non-scaling-stroke" fill-rule="evenodd" d="M309,88 L411,88 L411,126 L309,126 L309,88"/>
<path vector-effect="non-scaling-stroke" fill-rule="evenodd" d="M411,88 L563,88 L563,126 L411,126 L411,88"/>
<path vector-effect="non-scaling-stroke" fill-rule="evenodd" d="M563,88 L715,88 L715,126 L563,126 L563,88"/>
<path vector-effect="non-scaling-stroke" fill-rule="evenodd" d="M309,164 L411,164 L411,202 L309,202 L309,164"/>
<path vector-effect="non-scaling-stroke" fill-rule="evenodd" d="M411,164 L563,164 L563,202 L411,202 L411,164"/>
<path vector-effect="non-scaling-stroke" fill-rule="evenodd" d="M563,164 L715,164 L715,202 L563,202 L563,164"/>
<path vector-effect="non-scaling-stroke" fill-rule="evenodd" d="M309,240 L411,240 L411,279 L309,279 L309,240"/>
<path vector-effect="non-scaling-stroke" fill-rule="evenodd" d="M411,240 L563,240 L563,279 L411,279 L411,240"/>
<path vector-effect="non-scaling-stroke" fill-rule="evenodd" d="M563,240 L715,240 L715,279 L563,279 L563,240"/>
</g>

<g fill="#a8a8a8" fill-opacity="1" stroke="none" transform="matrix(1,0,0,1,0,0)"
font-family="Helvetica" font-size="12" font-weight="400" font-style="normal" 
>
<path vector-effect="non-scaling-stroke" fill-rule="evenodd" d="M309,8 L411,8 L411,10 L309,10 L309,8"/>
<path vector-effect="non-scaling-stroke" fill-rule="evenodd" d="M411,8 L563,8 L563,10 L411,10 L411,8"/>
<path vector-effect="non-scaling-stroke" fill-rule="evenodd" d="M563,8 L715,8 L715,10 L563,10 L563,8"/>
<path vector-effect="non-scaling-stroke" fill-rule="evenodd" d="M309,48 L411,48 L411,50 L309,50 L309,48"/>
<path vector-effect="non-scaling-stroke" fill-rule="evenodd" d="M411,48 L563,48 L563,50 L411,50 L411,48"/>
<path vector-effect="non-scaling-stroke" fill-rule="evenodd" d="M563,48 L715,48 L715,50 L563,50 L563,48"/>
<path vector-effect="non-scaling-stroke" fill-rule="evenodd" d="M309,48 L411,48 L411,50 L309,50 L309,48"/>
<path vector-effect="non-scaling-stroke" fill-rule="evenodd" d="M411,48 L563,48 L563,50 L411,50 L411,48"/>
<path vector-effect="non-scaling-stroke" fill-rule="evenodd" d="M563,48 L715,48 L715,50 L563,50 L563,48"/>
<path vector-effect="non-scaling-stroke" fill-rule="evenodd" d="M309,278 L411,278 L411,280 L309,280 L309,278"/>
<path vector-effect="non-scaling-stroke" fill-rule="evenodd" d="M411,278 L563,278 L563,280 L411,280 L411,278"/>
<path vector-effect="non-scaling-stroke" fill-rule="evenodd" d="M563,278 L715,278 L715,280 L563,280 L563,278"/>
</g>

<g fill="#000000" fill-opacity="1" stroke="#000000" stroke-opacity="1" stroke-width="1" stroke-linecap="square" stroke-linejoin="bevel" transform="matrix(1,0,0,1,0,0)"
font-family="Arial" font-size="16" font-weight="400" font-style="normal" 
>
<text fill="#000000" fill-opacity="1" stroke="none" xml:space="preserve" x="319" y="34" font-family="Arial" font-size="16" font-weight="400" font-style="normal" 
 >date</text>
<text fill="#000000" fill-opacity="1" stroke="none" xml:space="preserve" x="475" y="34" font-family="Arial" font-size="16" font-weight="400" font-style="normal" 
 >open/close</text>
<text fill="#000000" fill-opacity="1" stroke="none" xml:space="preserve" x="645" y="34" font-family="Arial" font-size="16" font-weight="400" font-style="normal" 
 >low/high</text>
<text fill="#000000" fill-opacity="1" stroke="none" xml:space="preserve" x="319" y="74" font-family="Arial" font-size="16" font-weight="400" font-style="normal" 
 >2015-10-21</text>
<text fill="#000000" fill-opacity="1" stroke="none" xml:space="preserve" x="421" y="74" font-family="Arial" font-size="16" font-weight="400" font-style="normal" 
 >2033.47—2018.94</text>
<text fill="#000000" fill-opacity="1" stroke="none" xml:space="preserve" x="573" y="74" font-family="Arial" font-size="16" font-weight="400" font-style="normal" 
 >2017.22—2037.97</text>
<text fill="#000000" fill-opacity="1" stroke="none" xml:space="preserve" x="319" y="112" font-family="Arial" font-size="16" font-weight="400" font-style="normal" 
 >2015-10-20</text>
<text fill="#000000" fill-opacity="1" stroke="none" xml:space="preserve" x="421" y="112" font-family="Arial" font-size="16" font-weight="400" font-style="normal" 
 >2033.13—2030.77</text>
<text fill="#000000" fill-opacity="1" stroke="none" xml:space="preserve" x="573" y="112" font-family="Arial" font-size="16" font-weight="400" font-style="normal" 
 >2026.61—2039.12</text>
<text fill="#000000" fill-opacity="1" stroke="none" xml:space="preserve" x="319" y="150" font-family="Arial" font-size="16" font-weight="400" font-style="normal" 
 >2015-10-19</text>
<text fill="#000000" fill-opacity="1" stroke="none" xml:space="preserve" x="421" y="150" font-family="Arial" font-size="16" font-weight="400" font-style="normal" 
 >2031.73—2033.66</text>
<text fill="#000000" fill-opacity="1" stroke="none" xml:space="preserve" x="573" y="150" font-family="Arial" font-size="16" font-weight="400" font-style="normal" 
 >2022.31—2034.45</text>
<text fill="#000000" fill-opacity="1" stroke="none" xml:space="preserve" x="319" y="188" font-family="Arial" font-size="16" font-weight="400" font-style="normal" 
 >2015-10-16</text>
<text fill="#000000" fill-opacity="1" stroke="none" xml:space="preserve" x="421" y="188" font-family="Arial" font-size="16" font-weight="400" font-style="normal" 
 >2024.37—2033.11</text>
<text fill="#000000" fill-opacity="1" stroke="none" xml:space="preserve" x="573" y="188" font-family="Arial" font-size="16" font-weight="400" font-style="normal" 
 >2020.46—2033.54</text>
<text fill="#000000" fill-opacity="1" stroke="none" xml:space="preserve" x="319" y="226" font-family="Arial" font-size="16" font-weight="400" font-style="normal" 
 >2015-10-15</text>
<text fill="#000000" fill-opacity="1" stroke="none" xml:space="preserve" x="421" y="226" font-family="Arial" font-size="16" font-weight="400" font-style="normal" 
 >1996.47—2023.86</text>
<text fill="#000000" fill-opacity="1" stroke="none" xml:space="preserve" x="573" y="226" font-family="Arial" font-size="16" font-weight="400" font-style="normal" 
 >1996.47—2024.15</text>
<text fill="#000000" fill-opacity="1" stroke="none" xml:space="preserve" x="319" y="264" font-family="Arial" font-size="16" font-weight="400" font-style="normal" 
 >2015-10-14</text>
<text fill="#000000" fill-opacity="1" stroke="none" xml:space="preserve" x="421" y="264" font-family="Arial" font-size="16" font-weight="400" font-style="normal" 
 >2003.66—1994.24</text>
<text fill="#000000" fill-opacity="1" stroke="none" xml:space="preserve" x="573" y="264" font-family="Arial" font-size="16" font-weight="400" font-style="normal" 
 >1990.73—2009.56</text>
</g>
</g>
</svg>
