<?xml version="1.0" encoding="UTF-8" standalone="no"?>
<svg width="361.244mm" height="234.95mm"
 viewBox="0 0 1024 666"
 xmlns="http://www.w3.org/2000/svg" xmlns:xlink="http://www.w3.org/1999/xlink"  version="1.2" baseProfile="tiny">
<title>Qt Svg Document</title>
<desc>Generated with Qt</desc>
<defs>
</defs>
<g fill="none" stroke="black" stroke-width="1" fill-rule="evenodd" stroke-linecap="square" stroke-linejoin="bevel" >

<g fill="#ffffff" fill-opacity="1" stroke="none" transform="matrix(1,0,0,1,0,0)"
font-family="Helvetica" font-size="12" font-weight="400" font-style="normal" 
>
<path vector-effect="non-scaling-stroke" fill-rule="evenodd" d="M0,0 L1024,0 L1024,666 L0,666 L0,0"/>
<path vector-effect="non-scaling-stroke" fill-rule="evenodd" d="M0,0 L1024,0 L1024,666 L0,666 L0,0"/>
<path vector-effect="non-scaling-stroke" fill-rule="evenodd" d="M0,0 L1024,0 L1024,666 L0,666 L0,0"/>
<path vector-effect="non-scaling-stroke" fill-rule="evenodd" d="M311,8 L713,8 L713,658 L311,658 L311,8"/>
<path vector-effect="non-scaling-stroke" fill-rule="evenodd" d="M311,9 L364,9 L364,49 L311,49 L311,9"/>
<path vector-effect="non-scaling-stroke" fill-rule="evenodd" d="M364,9 L452,9 L452,49 L364,49 L364,9"/>
<path vector-effect="non-scaling-stroke" fill-rule="evenodd" d="M452,9 L539,9 L539,49 L452,49 L452,9"/>
<path vector-effect="non-scaling-stroke" fill-rule="evenodd" d="M539,9 L626,9 L626,49 L539,49 L539,9"/>
<path vector-effect="non-scaling-stroke" fill-rule="evenodd" d="M626,9 L713,9 L713,49 L626,49 L626,9"/>
<path vector-effect="non-scaling-stroke" fill-rule="evenodd" d="M311,49 L713,49 L713,85 L311,85 L311,49"/>
</g>

<g fill="#f2f2f2" fill-opacity="1" stroke="none" transform="matrix(1,0,0,1,0,0)"
font-family="Helvetica" font-size="12" font-weight="400" font-style="normal" 
>
<path vector-effect="non-scaling-stroke" fill-rule="evenodd" d="M311,85 L364,85 L364,124 L311,124 L311,85"/>
</g>

<g fill="#ffffff" fill-opacity="1" stroke="none" transform="matrix(1,0,0,1,0,0)"
font-family="Helvetica" font-size="12" font-weight="400" font-style="normal" 
>
<path vector-effect="non-scaling-stroke" fill-rule="evenodd" d="M311,85 L364,85 L364,124 L311,124 L311,85"/>
</g>

<g fill="#f2f2f2" fill-opacity="1" stroke="none" transform="matrix(1,0,0,1,0,0)"
font-family="Helvetica" font-size="12" font-weight="400" font-style="normal" 
>
<path vector-effect="non-scaling-stroke" fill-rule="evenodd" d="M364,85 L452,85 L452,124 L364,124 L364,85"/>
<path vector-effect="non-scaling-stroke" fill-rule="evenodd" d="M452,85 L539,85 L539,124 L452,124 L452,85"/>
<path vector-effect="non-scaling-stroke" fill-rule="evenodd" d="M539,85 L626,85 L626,124 L539,124 L539,85"/>
<path vector-effect="non-scaling-stroke" fill-rule="evenodd" d="M626,85 L713,85 L713,124 L626,124 L626,85"/>
</g>

<g fill="#ffffff" fill-opacity="1" stroke="none" transform="matrix(1,0,0,1,0,0)"
font-family="Helvetica" font-size="12" font-weight="400" font-style="normal" 
>
<path vector-effect="non-scaling-stroke" fill-rule="evenodd" d="M311,124 L364,124 L364,162 L311,162 L311,124"/>
</g>

<g fill="#f2f2f2" fill-opacity="1" stroke="none" transform="matrix(1,0,0,1,0,0)"
font-family="Helvetica" font-size="12" font-weight="400" font-style="normal" 
>
<path vector-effect="non-scaling-stroke" fill-rule="evenodd" d="M311,162 L364,162 L364,201 L311,201 L311,162"/>
</g>

<g fill="#ffffff" fill-opacity="1" stroke="none" transform="matrix(1,0,0,1,0,0)"
font-family="Helvetica" font-size="12" font-weight="400" font-style="normal" 
>
<path vector-effect="non-scaling-stroke" fill-rule="evenodd" d="M311,162 L364,162 L364,201 L311,201 L311,162"/>
</g>

<g fill="#f2f2f2" fill-opacity="1" stroke="none" transform="matrix(1,0,0,1,0,0)"
font-family="Helvetica" font-size="12" font-weight="400" font-style="normal" 
>
<path vector-effect="non-scaling-stroke" fill-rule="evenodd" d="M364,162 L452,162 L452,201 L364,201 L364,162"/>
<path vector-effect="non-scaling-stroke" fill-rule="evenodd" d="M452,162 L539,162 L539,201 L452,201 L452,162"/>
<path vector-effect="non-scaling-stroke" fill-rule="evenodd" d="M539,162 L626,162 L626,201 L539,201 L539,162"/>
<path vector-effect="non-scaling-stroke" fill-rule="evenodd" d="M626,162 L713,162 L713,201 L626,201 L626,162"/>
</g>

<g fill="#ffffff" fill-opacity="1" stroke="none" transform="matrix(1,0,0,1,0,0)"
font-family="Helvetica" font-size="12" font-weight="400" font-style="normal" 
>
<path vector-effect="non-scaling-stroke" fill-rule="evenodd" d="M311,201 L713,201 L713,237 L311,237 L311,201"/>
</g>

<g fill="#f2f2f2" fill-opacity="1" stroke="none" transform="matrix(1,0,0,1,0,0)"
font-family="Helvetica" font-size="12" font-weight="400" font-style="normal" 
>
<path vector-effect="non-scaling-stroke" fill-rule="evenodd" d="M311,237 L364,237 L364,276 L311,276 L311,237"/>
</g>

<g fill="#ffffff" fill-opacity="1" stroke="none" transform="matrix(1,0,0,1,0,0)"
font-family="Helvetica" font-size="12" font-weight="400" font-style="normal" 
>
<path vector-effect="non-scaling-stroke" fill-rule="evenodd" d="M311,237 L364,237 L364,276 L311,276 L311,237"/>
</g>

<g fill="#f2f2f2" fill-opacity="1" stroke="none" transform="matrix(1,0,0,1,0,0)"
font-family="Helvetica" font-size="12" font-weight="400" font-style="normal" 
>
<path vector-effect="non-scaling-stroke" fill-rule="evenodd" d="M364,237 L452,237 L452,276 L364,276 L364,237"/>
<path vector-effect="non-scaling-stroke" fill-rule="evenodd" d="M452,237 L539,237 L539,276 L452,276 L452,237"/>
<path vector-effect="non-scaling-stroke" fill-rule="evenodd" d="M539,237 L626,237 L626,276 L539,276 L539,237"/>
<path vector-effect="non-scaling-stroke" fill-rule="evenodd" d="M626,237 L713,237 L713,276 L626,276 L626,237"/>
</g>

<g fill="#ffffff" fill-opacity="1" stroke="none" transform="matrix(1,0,0,1,0,0)"
font-family="Helvetica" font-size="12" font-weight="400" font-style="normal" 
>
<path vector-effect="non-scaling-stroke" fill-rule="evenodd" d="M311,276 L364,276 L364,314 L311,314 L311,276"/>
</g>

<g fill="#f2f2f2" fill-opacity="1" stroke="none" transform="matrix(1,0,0,1,0,0)"
font-family="Helvetica" font-size="12" font-weight="400" font-style="normal" 
>
<path vector-effect="non-scaling-stroke" fill-rule="evenodd" d="M311,314 L364,314 L364,353 L311,353 L311,314"/>
</g>

<g fill="#ffffff" fill-opacity="1" stroke="none" transform="matrix(1,0,0,1,0,0)"
font-family="Helvetica" font-size="12" font-weight="400" font-style="normal" 
>
<path vector-effect="non-scaling-stroke" fill-rule="evenodd" d="M311,314 L364,314 L364,353 L311,353 L311,314"/>
</g>

<g fill="#f2f2f2" fill-opacity="1" stroke="none" transform="matrix(1,0,0,1,0,0)"
font-family="Helvetica" font-size="12" font-weight="400" font-style="normal" 
>
<path vector-effect="non-scaling-stroke" fill-rule="evenodd" d="M364,314 L452,314 L452,353 L364,353 L364,314"/>
<path vector-effect="non-scaling-stroke" fill-rule="evenodd" d="M452,314 L539,314 L539,353 L452,353 L452,314"/>
<path vector-effect="non-scaling-stroke" fill-rule="evenodd" d="M539,314 L626,314 L626,353 L539,353 L539,314"/>
<path vector-effect="non-scaling-stroke" fill-rule="evenodd" d="M626,314 L713,314 L713,353 L626,353 L626,314"/>
</g>

<g fill="#ffffff" fill-opacity="1" stroke="none" transform="matrix(1,0,0,1,0,0)"
font-family="Helvetica" font-size="12" font-weight="400" font-style="normal" 
>
<path vector-effect="non-scaling-stroke" fill-rule="evenodd" d="M311,353 L713,353 L713,389 L311,389 L311,353"/>
</g>

<g fill="#f2f2f2" fill-opacity="1" stroke="none" transform="matrix(1,0,0,1,0,0)"
font-family="Helvetica" font-size="12" font-weight="400" font-style="normal" 
>
<path vector-effect="non-scaling-stroke" fill-rule="evenodd" d="M311,389 L364,389 L364,428 L311,428 L311,389"/>
</g>

<g fill="#ffffff" fill-opacity="1" stroke="none" transform="matrix(1,0,0,1,0,0)"
font-family="Helvetica" font-size="12" font-weight="400" font-style="normal" 
>
<path vector-effect="non-scaling-stroke" fill-rule="evenodd" d="M311,389 L364,389 L364,428 L311,428 L311,389"/>
</g>

<g fill="#f2f2f2" fill-opacity="1" stroke="none" transform="matrix(1,0,0,1,0,0)"
font-family="Helvetica" font-size="12" font-weight="400" font-style="normal" 
>
<path vector-effect="non-scaling-stroke" fill-rule="evenodd" d="M364,389 L452,389 L452,428 L364,428 L364,389"/>
<path vector-effect="non-scaling-stroke" fill-rule="evenodd" d="M452,389 L539,389 L539,428 L452,428 L452,389"/>
<path vector-effect="non-scaling-stroke" fill-rule="evenodd" d="M539,389 L626,389 L626,428 L539,428 L539,389"/>
<path vector-effect="non-scaling-stroke" fill-rule="evenodd" d="M626,389 L713,389 L713,428 L626,428 L626,389"/>
</g>

<g fill="#ffffff" fill-opacity="1" stroke="none" transform="matrix(1,0,0,1,0,0)"
font-family="Helvetica" font-size="12" font-weight="400" font-style="normal" 
>
<path vector-effect="non-scaling-stroke" fill-rule="evenodd" d="M311,428 L364,428 L364,466 L311,466 L311,428"/>
</g>

<g fill="#f2f2f2" fill-opacity="1" stroke="none" transform="matrix(1,0,0,1,0,0)"
font-family="Helvetica" font-size="12" font-weight="400" font-style="normal" 
>
<path vector-effect="non-scaling-stroke" fill-rule="evenodd" d="M311,466 L364,466 L364,505 L311,505 L311,466"/>
</g>

<g fill="#ffffff" fill-opacity="1" stroke="none" transform="matrix(1,0,0,1,0,0)"
font-family="Helvetica" font-size="12" font-weight="400" font-style="normal" 
>
<path vector-effect="non-scaling-stroke" fill-rule="evenodd" d="M311,466 L364,466 L364,505 L311,505 L311,466"/>
</g>

<g fill="#f2f2f2" fill-opacity="1" stroke="none" transform="matrix(1,0,0,1,0,0)"
font-family="Helvetica" font-size="12" font-weight="400" font-style="normal" 
>
<path vector-effect="non-scaling-stroke" fill-rule="evenodd" d="M364,466 L452,466 L452,505 L364,505 L364,466"/>
<path vector-effect="non-scaling-stroke" fill-rule="evenodd" d="M452,466 L539,466 L539,505 L452,505 L452,466"/>
<path vector-effect="non-scaling-stroke" fill-rule="evenodd" d="M539,466 L626,466 L626,505 L539,505 L539,466"/>
<path vector-effect="non-scaling-stroke" fill-rule="evenodd" d="M626,466 L713,466 L713,505 L626,505 L626,466"/>
</g>

<g fill="#ffffff" fill-opacity="1" stroke="none" transform="matrix(1,0,0,1,0,0)"
font-family="Helvetica" font-size="12" font-weight="400" font-style="normal" 
>
<path vector-effect="non-scaling-stroke" fill-rule="evenodd" d="M311,505 L713,505 L713,541 L311,541 L311,505"/>
</g>

<g fill="#f2f2f2" fill-opacity="1" stroke="none" transform="matrix(1,0,0,1,0,0)"
font-family="Helvetica" font-size="12" font-weight="400" font-style="normal" 
>
<path vector-effect="non-scaling-stroke" fill-rule="evenodd" d="M311,541 L364,541 L364,580 L311,580 L311,541"/>
</g>

<g fill="#ffffff" fill-opacity="1" stroke="none" transform="matrix(1,0,0,1,0,0)"
font-family="Helvetica" font-size="12" font-weight="400" font-style="normal" 
>
<path vector-effect="non-scaling-stroke" fill-rule="evenodd" d="M311,541 L364,541 L364,580 L311,580 L311,541"/>
</g>

<g fill="#f2f2f2" fill-opacity="1" stroke="none" transform="matrix(1,0,0,1,0,0)"
font-family="Helvetica" font-size="12" font-weight="400" font-style="normal" 
>
<path vector-effect="non-scaling-stroke" fill-rule="evenodd" d="M364,541 L452,541 L452,580 L364,580 L364,541"/>
<path vector-effect="non-scaling-stroke" fill-rule="evenodd" d="M452,541 L539,541 L539,580 L452,580 L452,541"/>
<path vector-effect="non-scaling-stroke" fill-rule="evenodd" d="M539,541 L626,541 L626,580 L539,580 L539,541"/>
<path vector-effect="non-scaling-stroke" fill-rule="evenodd" d="M626,541 L713,541 L713,580 L626,580 L626,541"/>
</g>

<g fill="#ffffff" fill-opacity="1" stroke="none" transform="matrix(1,0,0,1,0,0)"
font-family="Helvetica" font-size="12" font-weight="400" font-style="normal" 
>
<path vector-effect="non-scaling-stroke" fill-rule="evenodd" d="M311,580 L364,580 L364,618 L311,618 L311,580"/>
</g>

<g fill="#f2f2f2" fill-opacity="1" stroke="none" transform="matrix(1,0,0,1,0,0)"
font-family="Helvetica" font-size="12" font-weight="400" font-style="normal" 
>
<path vector-effect="non-scaling-stroke" fill-rule="evenodd" d="M311,618 L364,618 L364,657 L311,657 L311,618"/>
</g>

<g fill="#ffffff" fill-opacity="1" stroke="none" transform="matrix(1,0,0,1,0,0)"
font-family="Helvetica" font-size="12" font-weight="400" font-style="normal" 
>
<path vector-effect="non-scaling-stroke" fill-rule="evenodd" d="M311,618 L364,618 L364,657 L311,657 L311,618"/>
</g>

<g fill="#f2f2f2" fill-opacity="1" stroke="none" transform="matrix(1,0,0,1,0,0)"
font-family="Helvetica" font-size="12" font-weight="400" font-style="normal" 
>
<path vector-effect="non-scaling-stroke" fill-rule="evenodd" d="M364,618 L452,618 L452,657 L364,657 L364,618"/>
<path vector-effect="non-scaling-stroke" fill-rule="evenodd" d="M452,618 L539,618 L539,657 L452,657 L452,618"/>
<path vector-effect="non-scaling-stroke" fill-rule="evenodd" d="M539,618 L626,618 L626,657 L539,657 L539,618"/>
<path vector-effect="non-scaling-stroke" fill-rule="evenodd" d="M626,618 L713,618 L713,657 L626,657 L626,618"/>
</g>

<g fill="#a8a8a8" fill-opacity="1" stroke="none" transform="matrix(1,0,0,1,0,0)"
font-family="Helvetica" font-size="12" font-weight="400" font-style="normal" 
>
<path vector-effect="non-scaling-stroke" fill-rule="evenodd" d="M311,8 L364,8 L364,10 L311,10 L311,8"/>
<path vector-effect="non-scaling-stroke" fill-rule="evenodd" d="M364,8 L452,8 L452,10 L364,10 L364,8"/>
<path vector-effect="non-scaling-stroke" fill-rule="evenodd" d="M452,8 L539,8 L539,10 L452,10 L452,8"/>
<path vector-effect="non-scaling-stroke" fill-rule="evenodd" d="M539,8 L626,8 L626,10 L539,10 L539,8"/>
<path vector-effect="non-scaling-stroke" fill-rule="evenodd" d="M626,8 L713,8 L713,10 L626,10 L626,8"/>
<path vector-effect="non-scaling-stroke" fill-rule="evenodd" d="M311,656 L365,656 L365,658 L311,658 L311,656"/>
<path vector-effect="non-scaling-stroke" fill-rule="evenodd" d="M363,656 L452,656 L452,658 L363,658 L363,656"/>
<path vector-effect="non-scaling-stroke" fill-rule="evenodd" d="M452,656 L539,656 L539,658 L452,658 L452,656"/>
<path vector-effect="non-scaling-stroke" fill-rule="evenodd" d="M539,656 L626,656 L626,658 L539,658 L539,656"/>
<path vector-effect="non-scaling-stroke" fill-rule="evenodd" d="M626,656 L713,656 L713,658 L626,658 L626,656"/>
<path vector-effect="non-scaling-stroke" fill-rule="evenodd" d="M311,48 L364,48 L364,50 L311,50 L311,48"/>
<path vector-effect="non-scaling-stroke" fill-rule="evenodd" d="M364,48 L452,48 L452,50 L364,50 L364,48"/>
<path vector-effect="non-scaling-stroke" fill-rule="evenodd" d="M452,48 L539,48 L539,50 L452,50 L452,48"/>
<path vector-effect="non-scaling-stroke" fill-rule="evenodd" d="M539,48 L626,48 L626,50 L539,50 L539,48"/>
<path vector-effect="non-scaling-stroke" fill-rule="evenodd" d="M626,48 L713,48 L713,50 L626,50 L626,48"/>
<path vector-effect="non-scaling-stroke" fill-rule="evenodd" d="M311,48 L713,48 L713,50 L311,50 L311,48"/>
<path vector-effect="non-scaling-stroke" fill-rule="evenodd" d="M311,84 L713,84 L713,86 L311,86 L311,84"/>
<path vector-effect="non-scaling-stroke" fill-rule="evenodd" d="M311,84 L365,84 L365,86 L311,86 L311,84"/>
<path vector-effect="non-scaling-stroke" fill-rule="evenodd" d="M363,84 L365,84 L365,124 L363,124 L363,84"/>
<path vector-effect="non-scaling-stroke" fill-rule="evenodd" d="M363,84 L452,84 L452,86 L363,86 L363,84"/>
<path vector-effect="non-scaling-stroke" fill-rule="evenodd" d="M363,84 L365,84 L365,124 L363,124 L363,84"/>
<path vector-effect="non-scaling-stroke" fill-rule="evenodd" d="M452,84 L539,84 L539,86 L452,86 L452,84"/>
<path vector-effect="non-scaling-stroke" fill-rule="evenodd" d="M539,84 L626,84 L626,86 L539,86 L539,84"/>
<path vector-effect="non-scaling-stroke" fill-rule="evenodd" d="M626,84 L713,84 L713,86 L626,86 L626,84"/>
<path vector-effect="non-scaling-stroke" fill-rule="evenodd" d="M363,124 L365,124 L365,162 L363,162 L363,124"/>
<path vector-effect="non-scaling-stroke" fill-rule="evenodd" d="M363,124 L365,124 L365,162 L363,162 L363,124"/>
<path vector-effect="non-scaling-stroke" fill-rule="evenodd" d="M311,200 L365,200 L365,202 L311,202 L311,200"/>
<path vector-effect="non-scaling-stroke" fill-rule="evenodd" d="M363,162 L365,162 L365,202 L363,202 L363,162"/>
<path vector-effect="non-scaling-stroke" fill-rule="evenodd" d="M363,200 L452,200 L452,202 L363,202 L363,200"/>
<path vector-effect="non-scaling-stroke" fill-rule="evenodd" d="M363,162 L365,162 L365,202 L363,202 L363,162"/>
<path vector-effect="non-scaling-stroke" fill-rule="evenodd" d="M452,200 L539,200 L539,202 L452,202 L452,200"/>
<path vector-effect="non-scaling-stroke" fill-rule="evenodd" d="M539,200 L626,200 L626,202 L539,202 L539,200"/>
<path vector-effect="non-scaling-stroke" fill-rule="evenodd" d="M626,200 L713,200 L713,202 L626,202 L626,200"/>
<path vector-effect="non-scaling-stroke" fill-rule="evenodd" d="M311,200 L713,200 L713,202 L311,202 L311,200"/>
<path vector-effect="non-scaling-stroke" fill-rule="evenodd" d="M311,236 L713,236 L713,238 L311,238 L311,236"/>
<path vector-effect="non-scaling-stroke" fill-rule="evenodd" d="M311,236 L365,236 L365,238 L311,238 L311,236"/>
<path vector-effect="non-scaling-stroke" fill-rule="evenodd" d="M363,236 L365,236 L365,276 L363,276 L363,236"/>
<path vector-effect="non-scaling-stroke" fill-rule="evenodd" d="M363,236 L452,236 L452,238 L363,238 L363,236"/>
<path vector-effect="non-scaling-stroke" fill-rule="evenodd" d="M363,236 L365,236 L365,276 L363,276 L363,236"/>
<path vector-effect="non-scaling-stroke" fill-rule="evenodd" d="M452,236 L539,236 L539,238 L452,238 L452,236"/>
<path vector-effect="non-scaling-stroke" fill-rule="evenodd" d="M539,236 L626,236 L626,238 L539,238 L539,236"/>
<path vector-effect="non-scaling-stroke" fill-rule="evenodd" d="M626,236 L713,236 L713,238 L626,238 L626,236"/>
<path vector-effect="non-scaling-stroke" fill-rule="evenodd" d="M363,276 L365,276 L365,314 L363,314 L363,276"/>
<path vector-effect="non-scaling-stroke" fill-rule="evenodd" d="M363,276 L365,276 L365,314 L363,314 L363,276"/>
<path vector-effect="non-scaling-stroke" fill-rule="evenodd" d="M311,352 L365,352 L365,354 L311,354 L311,352"/>
<path vector-effect="non-scaling-stroke" fill-rule="evenodd" d="M363,314 L365,314 L365,354 L363,354 L363,314"/>
<path vector-effect="non-scaling-stroke" fill-rule="evenodd" d="M363,352 L452,352 L452,354 L363,354 L363,352"/>
<path vector-effect="non-scaling-stroke" fill-rule="evenodd" d="M363,314 L365,314 L365,354 L363,354 L363,314"/>
<path vector-effect="non-scaling-stroke" fill-rule="evenodd" d="M452,352 L539,352 L539,354 L452,354 L452,352"/>
<path vector-effect="non-scaling-stroke" fill-rule="evenodd" d="M539,352 L626,352 L626,354 L539,354 L539,352"/>
<path vector-effect="non-scaling-stroke" fill-rule="evenodd" d="M626,352 L713,352 L713,354 L626,354 L626,352"/>
<path vector-effect="non-scaling-stroke" fill-rule="evenodd" d="M311,352 L713,352 L713,354 L311,354 L311,352"/>
<path vector-effect="non-scaling-stroke" fill-rule="evenodd" d="M311,388 L713,388 L713,390 L311,390 L311,388"/>
<path vector-effect="non-scaling-stroke" fill-rule="evenodd" d="M311,388 L365,388 L365,390 L311,390 L311,388"/>
<path vector-effect="non-scaling-stroke" fill-rule="evenodd" d="M363,388 L365,388 L365,428 L363,428 L363,388"/>
<path vector-effect="non-scaling-stroke" fill-rule="evenodd" d="M363,388 L452,388 L452,390 L363,390 L363,388"/>
<path vector-effect="non-scaling-stroke" fill-rule="evenodd" d="M363,388 L365,388 L365,428 L363,428 L363,388"/>
<path vector-effect="non-scaling-stroke" fill-rule="evenodd" d="M452,388 L539,388 L539,390 L452,390 L452,388"/>
<path vector-effect="non-scaling-stroke" fill-rule="evenodd" d="M539,388 L626,388 L626,390 L539,390 L539,388"/>
<path vector-effect="non-scaling-stroke" fill-rule="evenodd" d="M626,388 L713,388 L713,390 L626,390 L626,388"/>
<path vector-effect="non-scaling-stroke" fill-rule="evenodd" d="M363,428 L365,428 L365,466 L363,466 L363,428"/>
<path vector-effect="non-scaling-stroke" fill-rule="evenodd" d="M363,428 L365,428 L365,466 L363,466 L363,428"/>
<path vector-effect="non-scaling-stroke" fill-rule="evenodd" d="M311,504 L365,504 L365,506 L311,506 L311,504"/>
<path vector-effect="non-scaling-stroke" fill-rule="evenodd" d="M363,466 L365,466 L365,506 L363,506 L363,466"/>
<path vector-effect="non-scaling-stroke" fill-rule="evenodd" d="M363,504 L452,504 L452,506 L363,506 L363,504"/>
<path vector-effect="non-scaling-stroke" fill-rule="evenodd" d="M363,466 L365,466 L365,506 L363,506 L363,466"/>
<path vector-effect="non-scaling-stroke" fill-rule="evenodd" d="M452,504 L539,504 L539,506 L452,506 L452,504"/>
<path vector-effect="non-scaling-stroke" fill-rule="evenodd" d="M539,504 L626,504 L626,506 L539,506 L539,504"/>
<path vector-effect="non-scaling-stroke" fill-rule="evenodd" d="M626,504 L713,504 L713,506 L626,506 L626,504"/>
<path vector-effect="non-scaling-stroke" fill-rule="evenodd" d="M311,504 L713,504 L713,506 L311,506 L311,504"/>
<path vector-effect="non-scaling-stroke" fill-rule="evenodd" d="M311,540 L713,540 L713,542 L311,542 L311,540"/>
<path vector-effect="non-scaling-stroke" fill-rule="evenodd" d="M311,540 L365,540 L365,542 L311,542 L311,540"/>
<path vector-effect="non-scaling-stroke" fill-rule="evenodd" d="M363,540 L365,540 L365,580 L363,580 L363,540"/>
<path vector-effect="non-scaling-stroke" fill-rule="evenodd" d="M363,540 L452,540 L452,542 L363,542 L363,540"/>
<path vector-effect="non-scaling-stroke" fill-rule="evenodd" d="M363,540 L365,540 L365,580 L363,580 L363,540"/>
<path vector-effect="non-scaling-stroke" fill-rule="evenodd" d="M452,540 L539,540 L539,542 L452,542 L452,540"/>
<path vector-effect="non-scaling-stroke" fill-rule="evenodd" d="M539,540 L626,540 L626,542 L539,542 L539,540"/>
<path vector-effect="non-scaling-stroke" fill-rule="evenodd" d="M626,540 L713,540 L713,542 L626,542 L626,540"/>
<path vector-effect="non-scaling-stroke" fill-rule="evenodd" d="M363,580 L365,580 L365,618 L363,618 L363,580"/>
<path vector-effect="non-scaling-stroke" fill-rule="evenodd" d="M363,580 L365,580 L365,618 L363,618 L363,580"/>
<path vector-effect="non-scaling-stroke" fill-rule="evenodd" d="M363,618 L365,618 L365,658 L363,658 L363,618"/>
<path vector-effect="non-scaling-stroke" fill-rule="evenodd" d="M363,618 L365,618 L365,658 L363,658 L363,618"/>
</g>

<g fill="#000000" fill-opacity="1" stroke="#000000" stroke-opacity="1" stroke-width="1" stroke-linecap="square" stroke-linejoin="bevel" transform="matrix(1,0,0,1,0,0)"
font-family="Arial" font-size="16" font-weight="400" font-style="normal" 
>
<text fill="#000000" fill-opacity="1" stroke="none" xml:space="preserve" x="406" y="34" font-family="Arial" font-size="16" font-weight="400" font-style="normal" 
 >open</text>
<text fill="#000000" fill-opacity="1" stroke="none" xml:space="preserve" x="498" y="34" font-family="Arial" font-size="16" font-weight="400" font-style="normal" 
 >high</text>
<text fill="#000000" fill-opacity="1" stroke="none" xml:space="preserve" x="591" y="34" font-family="Arial" font-size="16" font-weight="400" font-style="normal" 
 >low</text>
<text fill="#000000" fill-opacity="1" stroke="none" xml:space="preserve" x="665" y="34" font-family="Arial" font-size="16" font-weight="400" font-style="normal" 
 >close</text>
<text fill="#000000" fill-opacity="1" stroke="none" xml:space="preserve" x="319" y="72" font-family="Arial" font-size="16" font-weight="400" font-style="normal" 
 >W02</text>
<text fill="#000000" fill-opacity="1" stroke="none" xml:space="preserve" x="323" y="110" font-family="Arial" font-size="16" font-weight="400" font-style="normal" 
 >min</text>
<text fill="#000000" fill-opacity="1" stroke="none" xml:space="preserve" x="375" y="110" font-family="Arial" font-size="16" font-weight="400" font-style="normal" 
 >2005.550</text>
<text fill="#000000" fill-opacity="1" stroke="none" xml:space="preserve" x="462" y="110" font-family="Arial" font-size="16" font-weight="400" font-style="normal" 
 >2029.610</text>
<text fill="#000000" fill-opacity="1" stroke="none" xml:space="preserve" x="549" y="110" font-family="Arial" font-size="16" font-weight="400" font-style="normal" 
 >1992.440</text>
<text fill="#000000" fill-opacity="1" stroke="none" xml:space="preserve" x="636" y="110" font-family="Arial" font-size="16" font-weight="400" font-style="normal" 
 >2002.610</text>
<text fill="#000000" fill-opacity="1" stroke="none" xml:space="preserve" x="323" y="148" font-family="Arial" font-size="16" font-weight="400" font-style="normal" 
 >max</text>
<text fill="#000000" fill-opacity="1" stroke="none" xml:space="preserve" x="375" y="148" font-family="Arial" font-size="16" font-weight="400" font-style="normal" 
 >2063.450</text>
<text fill="#000000" fill-opacity="1" stroke="none" xml:space="preserve" x="462" y="148" font-family="Arial" font-size="16" font-weight="400" font-style="normal" 
 >2064.430</text>
<text fill="#000000" fill-opacity="1" stroke="none" xml:space="preserve" x="549" y="148" font-family="Arial" font-size="16" font-weight="400" font-style="normal" 
 >2038.330</text>
<text fill="#000000" fill-opacity="1" stroke="none" xml:space="preserve" x="636" y="148" font-family="Arial" font-size="16" font-weight="400" font-style="normal" 
 >2062.140</text>
<text fill="#000000" fill-opacity="1" stroke="none" xml:space="preserve" x="323" y="186" font-family="Arial" font-size="16" font-weight="400" font-style="normal" 
 >avg</text>
<text fill="#000000" fill-opacity="1" stroke="none" xml:space="preserve" x="375" y="186" font-family="Arial" font-size="16" font-weight="400" font-style="normal" 
 >2035.240</text>
<text fill="#000000" fill-opacity="1" stroke="none" xml:space="preserve" x="462" y="186" font-family="Arial" font-size="16" font-weight="400" font-style="normal" 
 >2048.562</text>
<text fill="#000000" fill-opacity="1" stroke="none" xml:space="preserve" x="549" y="186" font-family="Arial" font-size="16" font-weight="400" font-style="normal" 
 >2016.854</text>
<text fill="#000000" fill-opacity="1" stroke="none" xml:space="preserve" x="636" y="186" font-family="Arial" font-size="16" font-weight="400" font-style="normal" 
 >2031.208</text>
<text fill="#000000" fill-opacity="1" stroke="none" xml:space="preserve" x="319" y="224" font-family="Arial" font-size="16" font-weight="400" font-style="normal" 
 >W03</text>
<text fill="#000000" fill-opacity="1" stroke="none" xml:space="preserve" x="323" y="262" font-family="Arial" font-size="16" font-weight="400" font-style="normal" 
 >min</text>
<text fill="#000000" fill-opacity="1" stroke="none" xml:space="preserve" x="375" y="262" font-family="Arial" font-size="16" font-weight="400" font-style="normal" 
 >1992.250</text>
<text fill="#000000" fill-opacity="1" stroke="none" xml:space="preserve" x="462" y="262" font-family="Arial" font-size="16" font-weight="400" font-style="normal" 
 >2018.400</text>
<text fill="#000000" fill-opacity="1" stroke="none" xml:space="preserve" x="549" y="262" font-family="Arial" font-size="16" font-weight="400" font-style="normal" 
 >1988.120</text>
<text fill="#000000" fill-opacity="1" stroke="none" xml:space="preserve" x="636" y="262" font-family="Arial" font-size="16" font-weight="400" font-style="normal" 
 >1992.670</text>
<text fill="#000000" fill-opacity="1" stroke="none" xml:space="preserve" x="323" y="300" font-family="Arial" font-size="16" font-weight="400" font-style="normal" 
 >max</text>
<text fill="#000000" fill-opacity="1" stroke="none" xml:space="preserve" x="375" y="300" font-family="Arial" font-size="16" font-weight="400" font-style="normal" 
 >2046.130</text>
<text fill="#000000" fill-opacity="1" stroke="none" xml:space="preserve" x="462" y="300" font-family="Arial" font-size="16" font-weight="400" font-style="normal" 
 >2056.930</text>
<text fill="#000000" fill-opacity="1" stroke="none" xml:space="preserve" x="549" y="300" font-family="Arial" font-size="16" font-weight="400" font-style="normal" 
 >2022.580</text>
<text fill="#000000" fill-opacity="1" stroke="none" xml:space="preserve" x="636" y="300" font-family="Arial" font-size="16" font-weight="400" font-style="normal" 
 >2028.260</text>
<text fill="#000000" fill-opacity="1" stroke="none" xml:space="preserve" x="323" y="338" font-family="Arial" font-size="16" font-weight="400" font-style="normal" 
 >avg</text>
<text fill="#000000" fill-opacity="1" stroke="none" xml:space="preserve" x="375" y="338" font-family="Arial" font-size="16" font-weight="400" font-style="normal" 
 >2020.422</text>
<text fill="#000000" fill-opacity="1" stroke="none" xml:space="preserve" x="462" y="338" font-family="Arial" font-size="16" font-weight="400" font-style="normal" 
 >2033.288</text>
<text fill="#000000" fill-opacity="1" stroke="none" xml:space="preserve" x="549" y="338" font-family="Arial" font-size="16" font-weight="400" font-style="normal" 
 >1999.772</text>
<text fill="#000000" fill-opacity="1" stroke="none" xml:space="preserve" x="636" y="338" font-family="Arial" font-size="16" font-weight="400" font-style="normal" 
 >2014.930</text>
<text fill="#000000" fill-opacity="1" stroke="none" xml:space="preserve" x="319" y="376" font-family="Arial" font-size="16" font-weight="400" font-style="normal" 
 >W04</text>
<text fill="#000000" fill-opacity="1" stroke="none" xml:space="preserve" x="323" y="414" font-family="Arial" font-size="16" font-weight="400" font-style="normal" 
 >min</text>
<text fill="#000000" fill-opacity="1" stroke="none" xml:space="preserve" x="375" y="414" font-family="Arial" font-size="16" font-weight="400" font-style="normal" 
 >2020.190</text>
<text fill="#000000" fill-opacity="1" stroke="none" xml:space="preserve" x="462" y="414" font-family="Arial" font-size="16" font-weight="400" font-style="normal" 
 >2028.940</text>
<text fill="#000000" fill-opacity="1" stroke="none" xml:space="preserve" x="549" y="414" font-family="Arial" font-size="16" font-weight="400" font-style="normal" 
 >2004.490</text>
<text fill="#000000" fill-opacity="1" stroke="none" xml:space="preserve" x="636" y="414" font-family="Arial" font-size="16" font-weight="400" font-style="normal" 
 >2022.550</text>
<text fill="#000000" fill-opacity="1" stroke="none" xml:space="preserve" x="323" y="452" font-family="Arial" font-size="16" font-weight="400" font-style="normal" 
 >max</text>
<text fill="#000000" fill-opacity="1" stroke="none" xml:space="preserve" x="375" y="452" font-family="Arial" font-size="16" font-weight="400" font-style="normal" 
 >2062.980</text>
<text fill="#000000" fill-opacity="1" stroke="none" xml:space="preserve" x="462" y="452" font-family="Arial" font-size="16" font-weight="400" font-style="normal" 
 >2064.620</text>
<text fill="#000000" fill-opacity="1" stroke="none" xml:space="preserve" x="549" y="452" font-family="Arial" font-size="16" font-weight="400" font-style="normal" 
 >2050.540</text>
<text fill="#000000" fill-opacity="1" stroke="none" xml:space="preserve" x="636" y="452" font-family="Arial" font-size="16" font-weight="400" font-style="normal" 
 >2063.150</text>
<text fill="#000000" fill-opacity="1" stroke="none" xml:space="preserve" x="323" y="490" font-family="Arial" font-size="16" font-weight="400" font-style="normal" 
 >avg</text>
<text fill="#000000" fill-opacity="1" stroke="none" xml:space="preserve" x="375" y="490" font-family="Arial" font-size="16" font-weight="400" font-style="normal" 
 >2034.557</text>
<text fill="#000000" fill-opacity="1" stroke="none" xml:space="preserve" x="462" y="490" font-family="Arial" font-size="16" font-weight="400" font-style="normal" 
 >2048.707</text>
<text fill="#000000" fill-opacity="1" stroke="none" xml:space="preserve" x="549" y="490" font-family="Arial" font-size="16" font-weight="400" font-style="normal" 
 >2023.362</text>
<text fill="#000000" fill-opacity="1" stroke="none" xml:space="preserve" x="636" y="490" font-family="Arial" font-size="16" font-weight="400" font-style="normal" 
 >2042.410</text>
<text fill="#000000" fill-opacity="1" stroke="none" xml:space="preserve" x="319" y="528" font-family="Arial" font-size="16" font-weight="400" font-style="normal" 
 >W05</text>
<text fill="#000000" fill-opacity="1" stroke="none" xml:space="preserve" x="323" y="566" font-family="Arial" font-size="16" font-weight="400" font-style="normal" 
 >min</text>
<text fill="#000000" fill-opacity="1" stroke="none" xml:space="preserve" x="375" y="566" font-family="Arial" font-size="16" font-weight="400" font-style="normal" 
 >2002.450</text>
<text fill="#000000" fill-opacity="1" stroke="none" xml:space="preserve" x="462" y="566" font-family="Arial" font-size="16" font-weight="400" font-style="normal" 
 >2023.320</text>
<text fill="#000000" fill-opacity="1" stroke="none" xml:space="preserve" x="549" y="566" font-family="Arial" font-size="16" font-weight="400" font-style="normal" 
 >1989.180</text>
<text fill="#000000" fill-opacity="1" stroke="none" xml:space="preserve" x="636" y="566" font-family="Arial" font-size="16" font-weight="400" font-style="normal" 
 >1994.990</text>
<text fill="#000000" fill-opacity="1" stroke="none" xml:space="preserve" x="323" y="604" font-family="Arial" font-size="16" font-weight="400" font-style="normal" 
 >max</text>
<text fill="#000000" fill-opacity="1" stroke="none" xml:space="preserve" x="375" y="604" font-family="Arial" font-size="16" font-weight="400" font-style="normal" 
 >2050.420</text>
<text fill="#000000" fill-opacity="1" stroke="none" xml:space="preserve" x="462" y="604" font-family="Arial" font-size="16" font-weight="400" font-style="normal" 
 >2057.620</text>
<text fill="#000000" fill-opacity="1" stroke="none" xml:space="preserve" x="549" y="604" font-family="Arial" font-size="16" font-weight="400" font-style="normal" 
 >2040.970</text>
<text fill="#000000" fill-opacity="1" stroke="none" xml:space="preserve" x="636" y="604" font-family="Arial" font-size="16" font-weight="400" font-style="normal" 
 >2057.090</text>
<text fill="#000000" fill-opacity="1" stroke="none" xml:space="preserve" x="323" y="642" font-family="Arial" font-size="16" font-weight="400" font-style="normal" 
 >avg</text>
<text fill="#000000" fill-opacity="1" stroke="none" xml:space="preserve" x="375" y="642" font-family="Arial" font-size="16" font-weight="400" font-style="normal" 
 >2030.484</text>
<text fill="#000000" fill-opacity="1" stroke="none" xml:space="preserve" x="462" y="642" font-family="Arial" font-size="16" font-weight="400" font-style="normal" 
 >2039.186</text>
<text fill="#000000" fill-opacity="1" stroke="none" xml:space="preserve" x="549" y="642" font-family="Arial" font-size="16" font-weight="400" font-style="normal" 
 >2008.986</text>
<text fill="#000000" fill-opacity="1" stroke="none" xml:space="preserve" x="636" y="642" font-family="Arial" font-size="16" font-weight="400" font-style="normal" 
 >2021.008</text>
</g>
</g>
</svg>
