<?xml version="1.0" encoding="UTF-8" standalone="no"?>
<svg width="361.244mm" height="128.411mm"
 viewBox="0 0 1024 364"
 xmlns="http://www.w3.org/2000/svg" xmlns:xlink="http://www.w3.org/1999/xlink"  version="1.2" baseProfile="tiny">
<title>Qt Svg Document</title>
<desc>Generated with Qt</desc>
<defs>
</defs>
<g fill="none" stroke="black" stroke-width="1" fill-rule="evenodd" stroke-linecap="square" stroke-linejoin="bevel" >

<g fill="#ffffff" fill-opacity="1" stroke="none" transform="matrix(1,0,0,1,0,0)"
font-family="Helvetica" font-size="12" font-weight="400" font-style="normal" 
>
<path vector-effect="non-scaling-stroke" fill-rule="evenodd" d="M0,0 L1024,0 L1024,364 L0,364 L0,0"/>
<path vector-effect="non-scaling-stroke" fill-rule="evenodd" d="M0,0 L1024,0 L1024,364 L0,364 L0,0"/>
<path vector-effect="non-scaling-stroke" fill-rule="evenodd" d="M0,0 L1024,0 L1024,364 L0,364 L0,0"/>
<path vector-effect="non-scaling-stroke" fill-rule="evenodd" d="M399,8 L625,8 L625,356 L399,356 L399,8"/>
<path vector-effect="non-scaling-stroke" fill-rule="evenodd" d="M399,9 L625,9 L625,49 L399,49 L399,9"/>
</g>

<g fill="#f2f2f2" fill-opacity="1" stroke="none" transform="matrix(1,0,0,1,0,0)"
font-family="Helvetica" font-size="12" font-weight="400" font-style="normal" 
>
<path vector-effect="non-scaling-stroke" fill-rule="evenodd" d="M399,88 L625,88 L625,126 L399,126 L399,88"/>
<path vector-effect="non-scaling-stroke" fill-rule="evenodd" d="M399,164 L625,164 L625,202 L399,202 L399,164"/>
<path vector-effect="non-scaling-stroke" fill-rule="evenodd" d="M399,240 L625,240 L625,278 L399,278 L399,240"/>
<path vector-effect="non-scaling-stroke" fill-rule="evenodd" d="M399,316 L625,316 L625,355 L399,355 L399,316"/>
</g>

<g fill="#a8a8a8" fill-opacity="1" stroke="none" transform="matrix(1,0,0,1,0,0)"
font-family="Helvetica" font-size="12" font-weight="400" font-style="normal" 
>
<path vector-effect="non-scaling-stroke" fill-rule="evenodd" d="M399,8 L625,8 L625,10 L399,10 L399,8"/>
<path vector-effect="non-scaling-stroke" fill-rule="evenodd" d="M399,48 L625,48 L625,50 L399,50 L399,48"/>
<path vector-effect="non-scaling-stroke" fill-rule="evenodd" d="M399,48 L625,48 L625,50 L399,50 L399,48"/>
<path vector-effect="non-scaling-stroke" fill-rule="evenodd" d="M399,354 L625,354 L625,356 L399,356 L399,354"/>
</g>

<g fill="#000000" fill-opacity="1" stroke="#000000" stroke-opacity="1" stroke-width="1" stroke-linecap="square" stroke-linejoin="bevel" transform="matrix(1,0,0,1,0,0)"
font-family="Arial" font-size="16" font-weight="400" font-style="normal" 
>
<text fill="#000000" fill-opacity="1" stroke="none" xml:space="preserve" x="409" y="34" font-family="Arial" font-size="16" font-weight="400" font-style="normal" 
 >datetime</text>
<text fill="#000000" fill-opacity="1" stroke="none" xml:space="preserve" x="409" y="74" font-family="Arial" font-size="16" font-weight="400" font-style="normal" 
 >January 1, 2018 2:22:00 AM</text>
<text fill="#000000" fill-opacity="1" stroke="none" xml:space="preserve" x="409" y="112" font-family="Arial" font-size="16" font-weight="400" font-style="normal" 
 >February 2, 2018 2:33:00 PM</text>
<text fill="#000000" fill-opacity="1" stroke="none" xml:space="preserve" x="409" y="150" font-family="Arial" font-size="16" font-weight="400" font-style="normal" 
 >March 3, 2018 3:44:00 AM</text>
<text fill="#000000" fill-opacity="1" stroke="none" xml:space="preserve" x="409" y="188" font-family="Arial" font-size="16" font-weight="400" font-style="normal" 
 >April 4, 2018 3:55:00 PM</text>
<text fill="#000000" fill-opacity="1" stroke="none" xml:space="preserve" x="409" y="226" font-family="Arial" font-size="16" font-weight="400" font-style="normal" 
 >May 5, 2018 4:00:00 AM</text>
<text fill="#000000" fill-opacity="1" stroke="none" xml:space="preserve" x="409" y="264" font-family="Arial" font-size="16" font-weight="400" font-style="normal" 
 >June 6, 2018 4:11:00 PM</text>
<text fill="#000000" fill-opacity="1" stroke="none" xml:space="preserve" x="409" y="302" font-family="Arial" font-size="16" font-weight="400" font-style="normal" 
 >July 7, 2018 5:22:00 AM</text>
<text fill="#000000" fill-opacity="1" stroke="none" xml:space="preserve" x="409" y="340" font-family="Arial" font-size="16" font-weight="400" font-style="normal" 
 >NA</text>
</g>
</g>
</svg>
