<?xml version="1.0" encoding="UTF-8" standalone="no"?>
<svg width="361.244mm" height="121.003mm"
 viewBox="0 0 1024 343"
 xmlns="http://www.w3.org/2000/svg" xmlns:xlink="http://www.w3.org/1999/xlink"  version="1.2" baseProfile="tiny">
<title>Qt Svg Document</title>
<desc>Generated with Qt</desc>
<defs>
</defs>
<g fill="none" stroke="black" stroke-width="1" fill-rule="evenodd" stroke-linecap="square" stroke-linejoin="bevel" >

<g fill="#ffffff" fill-opacity="1" stroke="none" transform="matrix(1,0,0,1,0,0)"
font-family="Helvetica" font-size="12" font-weight="400" font-style="normal" 
>
<path vector-effect="non-scaling-stroke" fill-rule="evenodd" d="M0,0 L1024,0 L1024,343 L0,343 L0,0"/>
<path vector-effect="non-scaling-stroke" fill-rule="evenodd" d="M0,0 L1024,0 L1024,343 L0,343 L0,0"/>
<path vector-effect="non-scaling-stroke" fill-rule="evenodd" d="M0,0 L1024,0 L1024,343 L0,343 L0,0"/>
<path vector-effect="non-scaling-stroke" fill-rule="evenodd" d="M325,8 L699,8 L699,335 L325,335 L325,8"/>
<path vector-effect="non-scaling-stroke" fill-rule="evenodd" d="M325,9 L699,9 L699,38 L325,38 L325,9"/>
<path vector-effect="non-scaling-stroke" fill-rule="evenodd" d="M325,38 L699,38 L699,62 L325,62 L325,38"/>
<path vector-effect="non-scaling-stroke" fill-rule="evenodd" d="M325,62 L520,62 L520,102 L325,102 L325,62"/>
<path vector-effect="non-scaling-stroke" fill-rule="evenodd" d="M520,62 L699,62 L699,142 L520,142 L520,62"/>
<path vector-effect="non-scaling-stroke" fill-rule="evenodd" d="M325,102 L428,102 L428,142 L325,142 L325,102"/>
<path vector-effect="non-scaling-stroke" fill-rule="evenodd" d="M428,102 L520,102 L520,142 L428,142 L428,102"/>
</g>

<g fill="#f2f2f2" fill-opacity="1" stroke="none" transform="matrix(1,0,0,1,0,0)"
font-family="Helvetica" font-size="12" font-weight="400" font-style="normal" 
>
<path vector-effect="non-scaling-stroke" fill-rule="evenodd" d="M325,181 L428,181 L428,219 L325,219 L325,181"/>
<path vector-effect="non-scaling-stroke" fill-rule="evenodd" d="M428,181 L520,181 L520,219 L428,219 L428,181"/>
<path vector-effect="non-scaling-stroke" fill-rule="evenodd" d="M520,181 L699,181 L699,219 L520,219 L520,181"/>
<path vector-effect="non-scaling-stroke" fill-rule="evenodd" d="M325,257 L428,257 L428,295 L325,295 L325,257"/>
<path vector-effect="non-scaling-stroke" fill-rule="evenodd" d="M428,257 L520,257 L520,295 L428,295 L428,257"/>
<path vector-effect="non-scaling-stroke" fill-rule="evenodd" d="M520,257 L699,257 L699,295 L520,295 L520,257"/>
</g>

<g fill="#a8a8a8" fill-opacity="1" stroke="none" transform="matrix(1,0,0,1,0,0)"
font-family="Helvetica" font-size="12" font-weight="400" font-style="normal" 
>
<path vector-effect="non-scaling-stroke" fill-rule="evenodd" d="M325,8 L699,8 L699,10 L325,10 L325,8"/>
<path vector-effect="non-scaling-stroke" fill-rule="evenodd" d="M520,141 L699,141 L699,143 L520,143 L520,141"/>
<path vector-effect="non-scaling-stroke" fill-rule="evenodd" d="M325,141 L428,141 L428,143 L325,143 L325,141"/>
<path vector-effect="non-scaling-stroke" fill-rule="evenodd" d="M428,141 L520,141 L520,143 L428,143 L428,141"/>
<path vector-effect="non-scaling-stroke" fill-rule="evenodd" d="M325,141 L428,141 L428,143 L325,143 L325,141"/>
<path vector-effect="non-scaling-stroke" fill-rule="evenodd" d="M428,141 L520,141 L520,143 L428,143 L428,141"/>
<path vector-effect="non-scaling-stroke" fill-rule="evenodd" d="M520,141 L699,141 L699,143 L520,143 L520,141"/>
<path vector-effect="non-scaling-stroke" fill-rule="evenodd" d="M325,333 L428,333 L428,335 L325,335 L325,333"/>
<path vector-effect="non-scaling-stroke" fill-rule="evenodd" d="M428,333 L520,333 L520,335 L428,335 L428,333"/>
<path vector-effect="non-scaling-stroke" fill-rule="evenodd" d="M520,333 L699,333 L699,335 L520,335 L520,333"/>
<path vector-effect="non-scaling-stroke" fill-rule="evenodd" d="M325,61 L699,61 L699,63 L325,63 L325,61"/>
<path vector-effect="non-scaling-stroke" fill-rule="evenodd" d="M325,61 L520,61 L520,63 L325,63 L325,61"/>
<path vector-effect="non-scaling-stroke" fill-rule="evenodd" d="M325,101 L520,101 L520,103 L325,103 L325,101"/>
<path vector-effect="non-scaling-stroke" fill-rule="evenodd" d="M520,61 L699,61 L699,63 L520,63 L520,61"/>
<path vector-effect="non-scaling-stroke" fill-rule="evenodd" d="M325,101 L428,101 L428,103 L325,103 L325,101"/>
<path vector-effect="non-scaling-stroke" fill-rule="evenodd" d="M428,101 L520,101 L520,103 L428,103 L428,101"/>
</g>

<g fill="#000000" fill-opacity="1" stroke="#000000" stroke-opacity="1" stroke-width="1" stroke-linecap="square" stroke-linejoin="bevel" transform="matrix(1,0,0,1,0,0)"
font-family="Arial" font-size="20" font-weight="400" font-style="normal" 
>
<text fill="#000000" fill-opacity="1" stroke="none" xml:space="preserve" x="418" y="32" font-family="Arial" font-size="20" font-weight="400" font-style="normal" 
 >Preset Time Formats</text>
</g>

<g fill="#000000" fill-opacity="1" stroke="#000000" stroke-opacity="1" stroke-width="1" stroke-linecap="square" stroke-linejoin="bevel" transform="matrix(1,0,0,1,0,0)"
font-family="Arial" font-size="14" font-weight="400" font-style="normal" 
>
<text fill="#000000" fill-opacity="1" stroke="none" xml:space="preserve" x="326" y="52" font-family="Arial" font-size="14" font-weight="400" font-style="normal" 
 >Usable in the </text>
</g>

<g fill="#000000" fill-opacity="1" stroke="#000000" stroke-opacity="1" stroke-width="1" stroke-linecap="square" stroke-linejoin="bevel" transform="matrix(1,0,0,1,0,0)"
font-family="Courier New" font-size="14" font-weight="400" font-style="normal" 
>
<text fill="#000000" fill-opacity="1" stroke="none" xml:space="preserve" x="413" y="52" font-family="Courier New" font-size="14" font-weight="400" font-style="normal" 
 >fmt_time()</text>
</g>

<g fill="#000000" fill-opacity="1" stroke="#000000" stroke-opacity="1" stroke-width="1" stroke-linecap="square" stroke-linejoin="bevel" transform="matrix(1,0,0,1,0,0)"
font-family="Arial" font-size="14" font-weight="400" font-style="normal" 
>
<text fill="#000000" fill-opacity="1" stroke="none" xml:space="preserve" x="493" y="52" font-family="Arial" font-size="14" font-weight="400" font-style="normal" 
 > and </text>
</g>

<g fill="#000000" fill-opacity="1" stroke="#000000" stroke-opacity="1" stroke-width="1" stroke-linecap="square" stroke-linejoin="bevel" transform="matrix(1,0,0,1,0,0)"
font-family="Courier New" font-size="14" font-weight="400" font-style="normal" 
>
<text fill="#000000" fill-opacity="1" stroke="none" xml:space="preserve" x="525" y="52" font-family="Courier New" font-size="14" font-weight="400" font-style="normal" 
 >fmt_datetime()</text>
</g>

<g fill="#000000" fill-opacity="1" stroke="#000000" stroke-opacity="1" stroke-width="1" stroke-linecap="square" stroke-linejoin="bevel" transform="matrix(1,0,0,1,0,0)"
font-family="Arial" font-size="14" font-weight="400" font-style="normal" 
>
<text fill="#000000" fill-opacity="1" stroke="none" xml:space="preserve" x="637" y="52" font-family="Arial" font-size="14" font-weight="400" font-style="normal" 
 > functions</text>
</g>

<g fill="#000000" fill-opacity="1" stroke="#000000" stroke-opacity="1" stroke-width="1" stroke-linecap="square" stroke-linejoin="bevel" transform="matrix(1,0,0,1,0,0)"
font-family="Arial" font-size="16" font-weight="400" font-style="normal" 
>
<text fill="#000000" fill-opacity="1" stroke="none" xml:space="preserve" x="373.5" y="87" font-family="Arial" font-size="16" font-weight="400" font-style="normal" 
 >Time Formats</text>
<text fill="#000000" fill-opacity="1" stroke="none" xml:space="preserve" x="553.5" y="107" font-family="Arial" font-size="16" font-weight="400" font-style="normal" 
 >Formatted Time</text>
<text fill="#000000" fill-opacity="1" stroke="none" xml:space="preserve" x="335" y="127" font-family="Arial" font-size="16" font-weight="400" font-style="normal" 
 >Number</text>
<text fill="#000000" fill-opacity="1" stroke="none" xml:space="preserve" x="438" y="127" font-family="Arial" font-size="16" font-weight="400" font-style="normal" 
 >Name</text>
<text fill="#000000" fill-opacity="1" stroke="none" xml:space="preserve" x="409" y="167" font-family="Arial" font-size="16" font-weight="400" font-style="normal" 
 >1</text>
<text fill="#000000" fill-opacity="1" stroke="none" xml:space="preserve" x="438" y="167" font-family="Arial" font-size="16" font-weight="400" font-style="normal" 
 >hms</text>
<text fill="#000000" fill-opacity="1" stroke="none" xml:space="preserve" x="530" y="167" font-family="Arial" font-size="16" font-weight="400" font-style="normal" 
 >14:35:00</text>
<text fill="#000000" fill-opacity="1" stroke="none" xml:space="preserve" x="409" y="205" font-family="Arial" font-size="16" font-weight="400" font-style="normal" 
 >2</text>
<text fill="#000000" fill-opacity="1" stroke="none" xml:space="preserve" x="438" y="205" font-family="Arial" font-size="16" font-weight="400" font-style="normal" 
 >hm</text>
<text fill="#000000" fill-opacity="1" stroke="none" xml:space="preserve" x="530" y="205" font-family="Arial" font-size="16" font-weight="400" font-style="normal" 
 >14:35</text>
<text fill="#000000" fill-opacity="1" stroke="none" xml:space="preserve" x="409" y="243" font-family="Arial" font-size="16" font-weight="400" font-style="normal" 
 >3</text>
<text fill="#000000" fill-opacity="1" stroke="none" xml:space="preserve" x="438" y="243" font-family="Arial" font-size="16" font-weight="400" font-style="normal" 
 >hms_p</text>
<text fill="#000000" fill-opacity="1" stroke="none" xml:space="preserve" x="530" y="243" font-family="Arial" font-size="16" font-weight="400" font-style="normal" 
 >2:35:00 PM</text>
<text fill="#000000" fill-opacity="1" stroke="none" xml:space="preserve" x="409" y="281" font-family="Arial" font-size="16" font-weight="400" font-style="normal" 
 >4</text>
<text fill="#000000" fill-opacity="1" stroke="none" xml:space="preserve" x="438" y="281" font-family="Arial" font-size="16" font-weight="400" font-style="normal" 
 >hm_p</text>
<text fill="#000000" fill-opacity="1" stroke="none" xml:space="preserve" x="530" y="281" font-family="Arial" font-size="16" font-weight="400" font-style="normal" 
 >2:35 PM</text>
<text fill="#000000" fill-opacity="1" stroke="none" xml:space="preserve" x="409" y="319" font-family="Arial" font-size="16" font-weight="400" font-style="normal" 
 >5</text>
<text fill="#000000" fill-opacity="1" stroke="none" xml:space="preserve" x="438" y="319" font-family="Arial" font-size="16" font-weight="400" font-style="normal" 
 >h_p</text>
<text fill="#000000" fill-opacity="1" stroke="none" xml:space="preserve" x="530" y="319" font-family="Arial" font-size="16" font-weight="400" font-style="normal" 
 >2 PM</text>
</g>
</g>
</svg>
