<?xml version="1.0" encoding="UTF-8" standalone="no"?>
<svg width="361.244mm" height="154.517mm"
 viewBox="0 0 1024 438"
 xmlns="http://www.w3.org/2000/svg" xmlns:xlink="http://www.w3.org/1999/xlink"  version="1.2" baseProfile="tiny">
<title>Qt Svg Document</title>
<desc>Generated with Qt</desc>
<defs>
</defs>
<g fill="none" stroke="black" stroke-width="1" fill-rule="evenodd" stroke-linecap="square" stroke-linejoin="bevel" >

<g fill="#ffffff" fill-opacity="1" stroke="none" transform="matrix(1,0,0,1,0,0)"
font-family="Helvetica" font-size="12" font-weight="400" font-style="normal" 
>
<path vector-effect="non-scaling-stroke" fill-rule="evenodd" d="M0,0 L1024,0 L1024,438 L0,438 L0,0"/>
<path vector-effect="non-scaling-stroke" fill-rule="evenodd" d="M0,0 L1024,0 L1024,438 L0,438 L0,0"/>
<path vector-effect="non-scaling-stroke" fill-rule="evenodd" d="M0,0 L1024,0 L1024,438 L0,438 L0,0"/>
<path vector-effect="non-scaling-stroke" fill-rule="evenodd" d="M376,8 L647,8 L647,430 L376,430 L376,8"/>
<path vector-effect="non-scaling-stroke" fill-rule="evenodd" d="M376,9 L496,9 L496,49 L376,49 L376,9"/>
<path vector-effect="non-scaling-stroke" fill-rule="evenodd" d="M496,9 L553,9 L553,49 L496,49 L496,9"/>
<path vector-effect="non-scaling-stroke" fill-rule="evenodd" d="M553,9 L600,9 L600,49 L553,49 L553,9"/>
<path vector-effect="non-scaling-stroke" fill-rule="evenodd" d="M600,9 L647,9 L647,49 L600,49 L600,9"/>
<path vector-effect="non-scaling-stroke" fill-rule="evenodd" d="M376,49 L647,49 L647,85 L376,85 L376,49"/>
</g>

<g fill="#f2f2f2" fill-opacity="1" stroke="none" transform="matrix(1,0,0,1,0,0)"
font-family="Helvetica" font-size="12" font-weight="400" font-style="normal" 
>
<path vector-effect="non-scaling-stroke" fill-rule="evenodd" d="M376,85 L496,85 L496,124 L376,124 L376,85"/>
</g>

<g fill="#ffffff" fill-opacity="1" stroke="none" transform="matrix(1,0,0,1,0,0)"
font-family="Helvetica" font-size="12" font-weight="400" font-style="normal" 
>
<path vector-effect="non-scaling-stroke" fill-rule="evenodd" d="M376,85 L496,85 L496,124 L376,124 L376,85"/>
</g>

<g fill="#f2f2f2" fill-opacity="1" stroke="none" transform="matrix(1,0,0,1,0,0)"
font-family="Helvetica" font-size="12" font-weight="400" font-style="normal" 
>
<path vector-effect="non-scaling-stroke" fill-rule="evenodd" d="M496,85 L553,85 L553,124 L496,124 L496,85"/>
<path vector-effect="non-scaling-stroke" fill-rule="evenodd" d="M553,85 L600,85 L600,124 L553,124 L553,85"/>
<path vector-effect="non-scaling-stroke" fill-rule="evenodd" d="M600,85 L647,85 L647,124 L600,124 L600,85"/>
</g>

<g fill="#ffffff" fill-opacity="1" stroke="none" transform="matrix(1,0,0,1,0,0)"
font-family="Helvetica" font-size="12" font-weight="400" font-style="normal" 
>
<path vector-effect="non-scaling-stroke" fill-rule="evenodd" d="M376,124 L496,124 L496,162 L376,162 L376,124"/>
</g>

<g fill="#f2f2f2" fill-opacity="1" stroke="none" transform="matrix(1,0,0,1,0,0)"
font-family="Helvetica" font-size="12" font-weight="400" font-style="normal" 
>
<path vector-effect="non-scaling-stroke" fill-rule="evenodd" d="M376,162 L496,162 L496,200 L376,200 L376,162"/>
</g>

<g fill="#ffffff" fill-opacity="1" stroke="none" transform="matrix(1,0,0,1,0,0)"
font-family="Helvetica" font-size="12" font-weight="400" font-style="normal" 
>
<path vector-effect="non-scaling-stroke" fill-rule="evenodd" d="M376,162 L496,162 L496,200 L376,200 L376,162"/>
</g>

<g fill="#f2f2f2" fill-opacity="1" stroke="none" transform="matrix(1,0,0,1,0,0)"
font-family="Helvetica" font-size="12" font-weight="400" font-style="normal" 
>
<path vector-effect="non-scaling-stroke" fill-rule="evenodd" d="M496,162 L553,162 L553,200 L496,200 L496,162"/>
<path vector-effect="non-scaling-stroke" fill-rule="evenodd" d="M553,162 L600,162 L600,200 L553,200 L553,162"/>
<path vector-effect="non-scaling-stroke" fill-rule="evenodd" d="M600,162 L647,162 L647,200 L600,200 L600,162"/>
</g>

<g fill="#ffffff" fill-opacity="1" stroke="none" transform="matrix(1,0,0,1,0,0)"
font-family="Helvetica" font-size="12" font-weight="400" font-style="normal" 
>
<path vector-effect="non-scaling-stroke" fill-rule="evenodd" d="M376,200 L496,200 L496,239 L376,239 L376,200"/>
</g>

<g fill="#f2f2f2" fill-opacity="1" stroke="none" transform="matrix(1,0,0,1,0,0)"
font-family="Helvetica" font-size="12" font-weight="400" font-style="normal" 
>
<path vector-effect="non-scaling-stroke" fill-rule="evenodd" d="M376,239 L647,239 L647,275 L376,275 L376,239"/>
</g>

<g fill="#ffffff" fill-opacity="1" stroke="none" transform="matrix(1,0,0,1,0,0)"
font-family="Helvetica" font-size="12" font-weight="400" font-style="normal" 
>
<path vector-effect="non-scaling-stroke" fill-rule="evenodd" d="M376,239 L647,239 L647,275 L376,275 L376,239"/>
<path vector-effect="non-scaling-stroke" fill-rule="evenodd" d="M376,275 L496,275 L496,314 L376,314 L376,275"/>
</g>

<g fill="#f2f2f2" fill-opacity="1" stroke="none" transform="matrix(1,0,0,1,0,0)"
font-family="Helvetica" font-size="12" font-weight="400" font-style="normal" 
>
<path vector-effect="non-scaling-stroke" fill-rule="evenodd" d="M376,314 L496,314 L496,352 L376,352 L376,314"/>
</g>

<g fill="#ffffff" fill-opacity="1" stroke="none" transform="matrix(1,0,0,1,0,0)"
font-family="Helvetica" font-size="12" font-weight="400" font-style="normal" 
>
<path vector-effect="non-scaling-stroke" fill-rule="evenodd" d="M376,314 L496,314 L496,352 L376,352 L376,314"/>
</g>

<g fill="#f2f2f2" fill-opacity="1" stroke="none" transform="matrix(1,0,0,1,0,0)"
font-family="Helvetica" font-size="12" font-weight="400" font-style="normal" 
>
<path vector-effect="non-scaling-stroke" fill-rule="evenodd" d="M496,314 L553,314 L553,352 L496,352 L496,314"/>
<path vector-effect="non-scaling-stroke" fill-rule="evenodd" d="M553,314 L600,314 L600,352 L553,352 L553,314"/>
<path vector-effect="non-scaling-stroke" fill-rule="evenodd" d="M600,314 L647,314 L647,352 L600,352 L600,314"/>
</g>

<g fill="#ffffff" fill-opacity="1" stroke="none" transform="matrix(1,0,0,1,0,0)"
font-family="Helvetica" font-size="12" font-weight="400" font-style="normal" 
>
<path vector-effect="non-scaling-stroke" fill-rule="evenodd" d="M376,352 L496,352 L496,390 L376,390 L376,352"/>
</g>

<g fill="#f2f2f2" fill-opacity="1" stroke="none" transform="matrix(1,0,0,1,0,0)"
font-family="Helvetica" font-size="12" font-weight="400" font-style="normal" 
>
<path vector-effect="non-scaling-stroke" fill-rule="evenodd" d="M376,390 L496,390 L496,429 L376,429 L376,390"/>
</g>

<g fill="#ffffff" fill-opacity="1" stroke="none" transform="matrix(1,0,0,1,0,0)"
font-family="Helvetica" font-size="12" font-weight="400" font-style="normal" 
>
<path vector-effect="non-scaling-stroke" fill-rule="evenodd" d="M376,390 L496,390 L496,429 L376,429 L376,390"/>
</g>

<g fill="#f2f2f2" fill-opacity="1" stroke="none" transform="matrix(1,0,0,1,0,0)"
font-family="Helvetica" font-size="12" font-weight="400" font-style="normal" 
>
<path vector-effect="non-scaling-stroke" fill-rule="evenodd" d="M496,390 L553,390 L553,429 L496,429 L496,390"/>
<path vector-effect="non-scaling-stroke" fill-rule="evenodd" d="M553,390 L600,390 L600,429 L553,429 L553,390"/>
<path vector-effect="non-scaling-stroke" fill-rule="evenodd" d="M600,390 L647,390 L647,429 L600,429 L600,390"/>
</g>

<g fill="#a8a8a8" fill-opacity="1" stroke="none" transform="matrix(1,0,0,1,0,0)"
font-family="Helvetica" font-size="12" font-weight="400" font-style="normal" 
>
<path vector-effect="non-scaling-stroke" fill-rule="evenodd" d="M376,8 L496,8 L496,10 L376,10 L376,8"/>
<path vector-effect="non-scaling-stroke" fill-rule="evenodd" d="M496,8 L553,8 L553,10 L496,10 L496,8"/>
<path vector-effect="non-scaling-stroke" fill-rule="evenodd" d="M553,8 L600,8 L600,10 L553,10 L553,8"/>
<path vector-effect="non-scaling-stroke" fill-rule="evenodd" d="M600,8 L647,8 L647,10 L600,10 L600,8"/>
<path vector-effect="non-scaling-stroke" fill-rule="evenodd" d="M376,428 L497,428 L497,430 L376,430 L376,428"/>
<path vector-effect="non-scaling-stroke" fill-rule="evenodd" d="M495,428 L553,428 L553,430 L495,430 L495,428"/>
<path vector-effect="non-scaling-stroke" fill-rule="evenodd" d="M553,428 L600,428 L600,430 L553,430 L553,428"/>
<path vector-effect="non-scaling-stroke" fill-rule="evenodd" d="M600,428 L647,428 L647,430 L600,430 L600,428"/>
<path vector-effect="non-scaling-stroke" fill-rule="evenodd" d="M376,48 L496,48 L496,50 L376,50 L376,48"/>
<path vector-effect="non-scaling-stroke" fill-rule="evenodd" d="M496,48 L553,48 L553,50 L496,50 L496,48"/>
<path vector-effect="non-scaling-stroke" fill-rule="evenodd" d="M553,48 L600,48 L600,50 L553,50 L553,48"/>
<path vector-effect="non-scaling-stroke" fill-rule="evenodd" d="M600,48 L647,48 L647,50 L600,50 L600,48"/>
<path vector-effect="non-scaling-stroke" fill-rule="evenodd" d="M376,48 L647,48 L647,50 L376,50 L376,48"/>
<path vector-effect="non-scaling-stroke" fill-rule="evenodd" d="M376,84 L647,84 L647,86 L376,86 L376,84"/>
<path vector-effect="non-scaling-stroke" fill-rule="evenodd" d="M376,84 L497,84 L497,86 L376,86 L376,84"/>
<path vector-effect="non-scaling-stroke" fill-rule="evenodd" d="M495,84 L497,84 L497,124 L495,124 L495,84"/>
<path vector-effect="non-scaling-stroke" fill-rule="evenodd" d="M495,84 L553,84 L553,86 L495,86 L495,84"/>
<path vector-effect="non-scaling-stroke" fill-rule="evenodd" d="M495,84 L497,84 L497,124 L495,124 L495,84"/>
<path vector-effect="non-scaling-stroke" fill-rule="evenodd" d="M553,84 L600,84 L600,86 L553,86 L553,84"/>
<path vector-effect="non-scaling-stroke" fill-rule="evenodd" d="M600,84 L647,84 L647,86 L600,86 L600,84"/>
<path vector-effect="non-scaling-stroke" fill-rule="evenodd" d="M495,124 L497,124 L497,162 L495,162 L495,124"/>
<path vector-effect="non-scaling-stroke" fill-rule="evenodd" d="M495,124 L497,124 L497,162 L495,162 L495,124"/>
<path vector-effect="non-scaling-stroke" fill-rule="evenodd" d="M495,162 L497,162 L497,200 L495,200 L495,162"/>
<path vector-effect="non-scaling-stroke" fill-rule="evenodd" d="M495,162 L497,162 L497,200 L495,200 L495,162"/>
<path vector-effect="non-scaling-stroke" fill-rule="evenodd" d="M376,238 L497,238 L497,240 L376,240 L376,238"/>
<path vector-effect="non-scaling-stroke" fill-rule="evenodd" d="M495,200 L497,200 L497,240 L495,240 L495,200"/>
<path vector-effect="non-scaling-stroke" fill-rule="evenodd" d="M495,238 L553,238 L553,240 L495,240 L495,238"/>
<path vector-effect="non-scaling-stroke" fill-rule="evenodd" d="M495,200 L497,200 L497,240 L495,240 L495,200"/>
<path vector-effect="non-scaling-stroke" fill-rule="evenodd" d="M553,238 L600,238 L600,240 L553,240 L553,238"/>
<path vector-effect="non-scaling-stroke" fill-rule="evenodd" d="M600,238 L647,238 L647,240 L600,240 L600,238"/>
<path vector-effect="non-scaling-stroke" fill-rule="evenodd" d="M376,238 L647,238 L647,240 L376,240 L376,238"/>
<path vector-effect="non-scaling-stroke" fill-rule="evenodd" d="M376,274 L647,274 L647,276 L376,276 L376,274"/>
<path vector-effect="non-scaling-stroke" fill-rule="evenodd" d="M376,274 L497,274 L497,276 L376,276 L376,274"/>
<path vector-effect="non-scaling-stroke" fill-rule="evenodd" d="M495,274 L497,274 L497,314 L495,314 L495,274"/>
<path vector-effect="non-scaling-stroke" fill-rule="evenodd" d="M495,274 L553,274 L553,276 L495,276 L495,274"/>
<path vector-effect="non-scaling-stroke" fill-rule="evenodd" d="M495,274 L497,274 L497,314 L495,314 L495,274"/>
<path vector-effect="non-scaling-stroke" fill-rule="evenodd" d="M553,274 L600,274 L600,276 L553,276 L553,274"/>
<path vector-effect="non-scaling-stroke" fill-rule="evenodd" d="M600,274 L647,274 L647,276 L600,276 L600,274"/>
<path vector-effect="non-scaling-stroke" fill-rule="evenodd" d="M495,314 L497,314 L497,352 L495,352 L495,314"/>
<path vector-effect="non-scaling-stroke" fill-rule="evenodd" d="M495,314 L497,314 L497,352 L495,352 L495,314"/>
<path vector-effect="non-scaling-stroke" fill-rule="evenodd" d="M495,352 L497,352 L497,390 L495,390 L495,352"/>
<path vector-effect="non-scaling-stroke" fill-rule="evenodd" d="M495,352 L497,352 L497,390 L495,390 L495,352"/>
<path vector-effect="non-scaling-stroke" fill-rule="evenodd" d="M495,390 L497,390 L497,430 L495,430 L495,390"/>
<path vector-effect="non-scaling-stroke" fill-rule="evenodd" d="M495,390 L497,390 L497,430 L495,430 L495,390"/>
</g>

<g fill="#000000" fill-opacity="1" stroke="#000000" stroke-opacity="1" stroke-width="1" stroke-linecap="square" stroke-linejoin="bevel" transform="matrix(1,0,0,1,0,0)"
font-family="Arial" font-size="16" font-weight="400" font-style="normal" 
>
<text fill="#000000" fill-opacity="1" stroke="none" xml:space="preserve" x="512" y="34" font-family="Arial" font-size="16" font-weight="400" font-style="normal" 
 >year</text>
<text fill="#000000" fill-opacity="1" stroke="none" xml:space="preserve" x="572" y="34" font-family="Arial" font-size="16" font-weight="400" font-style="normal" 
 >hp</text>
<text fill="#000000" fill-opacity="1" stroke="none" xml:space="preserve" x="619" y="34" font-family="Arial" font-size="16" font-weight="400" font-style="normal" 
 >trq</text>
<text fill="#000000" fill-opacity="1" stroke="none" xml:space="preserve" x="384" y="72" font-family="Arial" font-size="16" font-weight="400" font-style="normal" 
 >powerful</text>
<text fill="#000000" fill-opacity="1" stroke="none" xml:space="preserve" x="391" y="110" font-family="Arial" font-size="16" font-weight="400" font-style="normal" 
 >458 Speciale</text>
<text fill="#000000" fill-opacity="1" stroke="none" xml:space="preserve" x="507" y="110" font-family="Arial" font-size="16" font-weight="400" font-style="normal" 
 >2015</text>
<text fill="#000000" fill-opacity="1" stroke="none" xml:space="preserve" x="563" y="110" font-family="Arial" font-size="16" font-weight="400" font-style="normal" 
 >597</text>
<text fill="#000000" fill-opacity="1" stroke="none" xml:space="preserve" x="610" y="110" font-family="Arial" font-size="16" font-weight="400" font-style="normal" 
 >398</text>
<text fill="#000000" fill-opacity="1" stroke="none" xml:space="preserve" x="391" y="148" font-family="Arial" font-size="16" font-weight="400" font-style="normal" 
 >458 Spider</text>
<text fill="#000000" fill-opacity="1" stroke="none" xml:space="preserve" x="507" y="148" font-family="Arial" font-size="16" font-weight="400" font-style="normal" 
 >2015</text>
<text fill="#000000" fill-opacity="1" stroke="none" xml:space="preserve" x="563" y="148" font-family="Arial" font-size="16" font-weight="400" font-style="normal" 
 >562</text>
<text fill="#000000" fill-opacity="1" stroke="none" xml:space="preserve" x="610" y="148" font-family="Arial" font-size="16" font-weight="400" font-style="normal" 
 >398</text>
<text fill="#000000" fill-opacity="1" stroke="none" xml:space="preserve" x="391" y="186" font-family="Arial" font-size="16" font-weight="400" font-style="normal" 
 >458 Italia</text>
<text fill="#000000" fill-opacity="1" stroke="none" xml:space="preserve" x="507" y="186" font-family="Arial" font-size="16" font-weight="400" font-style="normal" 
 >2014</text>
<text fill="#000000" fill-opacity="1" stroke="none" xml:space="preserve" x="563" y="186" font-family="Arial" font-size="16" font-weight="400" font-style="normal" 
 >562</text>
<text fill="#000000" fill-opacity="1" stroke="none" xml:space="preserve" x="610" y="186" font-family="Arial" font-size="16" font-weight="400" font-style="normal" 
 >398</text>
<text fill="#000000" fill-opacity="1" stroke="none" xml:space="preserve" x="391" y="224" font-family="Arial" font-size="16" font-weight="400" font-style="normal" 
 >California</text>
<text fill="#000000" fill-opacity="1" stroke="none" xml:space="preserve" x="507" y="224" font-family="Arial" font-size="16" font-weight="400" font-style="normal" 
 >2015</text>
<text fill="#000000" fill-opacity="1" stroke="none" xml:space="preserve" x="563" y="224" font-family="Arial" font-size="16" font-weight="400" font-style="normal" 
 >553</text>
<text fill="#000000" fill-opacity="1" stroke="none" xml:space="preserve" x="610" y="224" font-family="Arial" font-size="16" font-weight="400" font-style="normal" 
 >557</text>
<text fill="#000000" fill-opacity="1" stroke="none" xml:space="preserve" x="384" y="262" font-family="Arial" font-size="16" font-weight="400" font-style="normal" 
 >super powerful</text>
<text fill="#000000" fill-opacity="1" stroke="none" xml:space="preserve" x="391" y="300" font-family="Arial" font-size="16" font-weight="400" font-style="normal" 
 >GT</text>
<text fill="#000000" fill-opacity="1" stroke="none" xml:space="preserve" x="507" y="300" font-family="Arial" font-size="16" font-weight="400" font-style="normal" 
 >2017</text>
<text fill="#000000" fill-opacity="1" stroke="none" xml:space="preserve" x="563" y="300" font-family="Arial" font-size="16" font-weight="400" font-style="normal" 
 >647</text>
<text fill="#000000" fill-opacity="1" stroke="none" xml:space="preserve" x="610" y="300" font-family="Arial" font-size="16" font-weight="400" font-style="normal" 
 >550</text>
<text fill="#000000" fill-opacity="1" stroke="none" xml:space="preserve" x="391" y="338" font-family="Arial" font-size="16" font-weight="400" font-style="normal" 
 >488 GTB</text>
<text fill="#000000" fill-opacity="1" stroke="none" xml:space="preserve" x="507" y="338" font-family="Arial" font-size="16" font-weight="400" font-style="normal" 
 >2016</text>
<text fill="#000000" fill-opacity="1" stroke="none" xml:space="preserve" x="563" y="338" font-family="Arial" font-size="16" font-weight="400" font-style="normal" 
 >661</text>
<text fill="#000000" fill-opacity="1" stroke="none" xml:space="preserve" x="610" y="338" font-family="Arial" font-size="16" font-weight="400" font-style="normal" 
 >561</text>
<text fill="#000000" fill-opacity="1" stroke="none" xml:space="preserve" x="391" y="376" font-family="Arial" font-size="16" font-weight="400" font-style="normal" 
 >GTC4Lusso</text>
<text fill="#000000" fill-opacity="1" stroke="none" xml:space="preserve" x="507" y="376" font-family="Arial" font-size="16" font-weight="400" font-style="normal" 
 >2017</text>
<text fill="#000000" fill-opacity="1" stroke="none" xml:space="preserve" x="563" y="376" font-family="Arial" font-size="16" font-weight="400" font-style="normal" 
 >680</text>
<text fill="#000000" fill-opacity="1" stroke="none" xml:space="preserve" x="610" y="376" font-family="Arial" font-size="16" font-weight="400" font-style="normal" 
 >514</text>
<text fill="#000000" fill-opacity="1" stroke="none" xml:space="preserve" x="391" y="414" font-family="Arial" font-size="16" font-weight="400" font-style="normal" 
 >FF</text>
<text fill="#000000" fill-opacity="1" stroke="none" xml:space="preserve" x="507" y="414" font-family="Arial" font-size="16" font-weight="400" font-style="normal" 
 >2015</text>
<text fill="#000000" fill-opacity="1" stroke="none" xml:space="preserve" x="563" y="414" font-family="Arial" font-size="16" font-weight="400" font-style="normal" 
 >652</text>
<text fill="#000000" fill-opacity="1" stroke="none" xml:space="preserve" x="610" y="414" font-family="Arial" font-size="16" font-weight="400" font-style="normal" 
 >504</text>
</g>
</g>
</svg>
