<?xml version="1.0" encoding="UTF-8" standalone="no"?>
<svg width="361.244mm" height="177.447mm"
 viewBox="0 0 1024 503"
 xmlns="http://www.w3.org/2000/svg" xmlns:xlink="http://www.w3.org/1999/xlink"  version="1.2" baseProfile="tiny">
<title>Qt Svg Document</title>
<desc>Generated with Qt</desc>
<defs>
</defs>
<g fill="none" stroke="black" stroke-width="1" fill-rule="evenodd" stroke-linecap="square" stroke-linejoin="bevel" >

<g fill="#ffffff" fill-opacity="1" stroke="none" transform="matrix(1,0,0,1,0,0)"
font-family="Helvetica" font-size="12" font-weight="400" font-style="normal" 
>
<path vector-effect="non-scaling-stroke" fill-rule="evenodd" d="M0,0 L1024,0 L1024,503 L0,503 L0,0"/>
<path vector-effect="non-scaling-stroke" fill-rule="evenodd" d="M0,0 L1024,0 L1024,503 L0,503 L0,0"/>
<path vector-effect="non-scaling-stroke" fill-rule="evenodd" d="M0,0 L1024,0 L1024,503 L0,503 L0,0"/>
<path vector-effect="non-scaling-stroke" fill-rule="evenodd" d="M411,8 L612,8 L612,495 L411,495 L411,8"/>
<path vector-effect="non-scaling-stroke" fill-rule="evenodd" d="M411,9 L516,9 L516,50 L411,50 L411,9"/>
<path vector-effect="non-scaling-stroke" fill-rule="evenodd" d="M516,9 L612,9 L612,50 L516,50 L516,9"/>
</g>

<g fill="#451e7d" fill-opacity="1" stroke="none" transform="matrix(1,0,0,1,0,0)"
font-family="Helvetica" font-size="12" font-weight="400" font-style="normal" 
>
<path vector-effect="non-scaling-stroke" fill-rule="evenodd" d="M516,50 L612,50 L612,89 L516,89 L516,50"/>
</g>

<g fill="#f2f2f2" fill-opacity="1" stroke="none" transform="matrix(1,0,0,1,0,0)"
font-family="Helvetica" font-size="12" font-weight="400" font-style="normal" 
>
<path vector-effect="non-scaling-stroke" fill-rule="evenodd" d="M411,89 L516,89 L516,127 L411,127 L411,89"/>
<path vector-effect="non-scaling-stroke" fill-rule="evenodd" d="M516,89 L612,89 L612,127 L516,127 L516,89"/>
</g>

<g fill="#6c3f78" fill-opacity="1" stroke="none" transform="matrix(1,0,0,1,0,0)"
font-family="Helvetica" font-size="12" font-weight="400" font-style="normal" 
>
<path vector-effect="non-scaling-stroke" fill-rule="evenodd" d="M516,89 L612,89 L612,127 L516,127 L516,89"/>
</g>

<g fill="#8a5f72" fill-opacity="1" stroke="none" transform="matrix(1,0,0,1,0,0)"
font-family="Helvetica" font-size="12" font-weight="400" font-style="normal" 
>
<path vector-effect="non-scaling-stroke" fill-rule="evenodd" d="M516,127 L612,127 L612,165 L516,165 L516,127"/>
</g>

<g fill="#f2f2f2" fill-opacity="1" stroke="none" transform="matrix(1,0,0,1,0,0)"
font-family="Helvetica" font-size="12" font-weight="400" font-style="normal" 
>
<path vector-effect="non-scaling-stroke" fill-rule="evenodd" d="M411,165 L516,165 L516,203 L411,203 L411,165"/>
<path vector-effect="non-scaling-stroke" fill-rule="evenodd" d="M516,165 L612,165 L612,203 L516,203 L516,165"/>
</g>

<g fill="#a88369" fill-opacity="1" stroke="none" transform="matrix(1,0,0,1,0,0)"
font-family="Helvetica" font-size="12" font-weight="400" font-style="normal" 
>
<path vector-effect="non-scaling-stroke" fill-rule="evenodd" d="M516,165 L612,165 L612,203 L516,203 L516,165"/>
</g>

<g fill="#bc9d60" fill-opacity="1" stroke="none" transform="matrix(1,0,0,1,0,0)"
font-family="Helvetica" font-size="12" font-weight="400" font-style="normal" 
>
<path vector-effect="non-scaling-stroke" fill-rule="evenodd" d="M516,203 L612,203 L612,241 L516,241 L516,203"/>
</g>

<g fill="#f2f2f2" fill-opacity="1" stroke="none" transform="matrix(1,0,0,1,0,0)"
font-family="Helvetica" font-size="12" font-weight="400" font-style="normal" 
>
<path vector-effect="non-scaling-stroke" fill-rule="evenodd" d="M411,241 L516,241 L516,279 L411,279 L411,241"/>
<path vector-effect="non-scaling-stroke" fill-rule="evenodd" d="M516,241 L612,241 L612,279 L516,279 L516,241"/>
</g>

<g fill="#d1ba54" fill-opacity="1" stroke="none" transform="matrix(1,0,0,1,0,0)"
font-family="Helvetica" font-size="12" font-weight="400" font-style="normal" 
>
<path vector-effect="non-scaling-stroke" fill-rule="evenodd" d="M516,241 L612,241 L612,279 L516,279 L516,241"/>
</g>

<g fill="#e3d444" fill-opacity="1" stroke="none" transform="matrix(1,0,0,1,0,0)"
font-family="Helvetica" font-size="12" font-weight="400" font-style="normal" 
>
<path vector-effect="non-scaling-stroke" fill-rule="evenodd" d="M516,279 L612,279 L612,317 L516,317 L516,279"/>
</g>

<g fill="#f2f2f2" fill-opacity="1" stroke="none" transform="matrix(1,0,0,1,0,0)"
font-family="Helvetica" font-size="12" font-weight="400" font-style="normal" 
>
<path vector-effect="non-scaling-stroke" fill-rule="evenodd" d="M411,317 L516,317 L516,355 L411,355 L411,317"/>
<path vector-effect="non-scaling-stroke" fill-rule="evenodd" d="M516,317 L612,317 L612,355 L516,355 L516,317"/>
</g>

<g fill="#f2eb2f" fill-opacity="1" stroke="none" transform="matrix(1,0,0,1,0,0)"
font-family="Helvetica" font-size="12" font-weight="400" font-style="normal" 
>
<path vector-effect="non-scaling-stroke" fill-rule="evenodd" d="M516,317 L612,317 L612,355 L516,355 L516,317"/>
</g>

<g fill="#fdfc0e" fill-opacity="1" stroke="none" transform="matrix(1,0,0,1,0,0)"
font-family="Helvetica" font-size="12" font-weight="400" font-style="normal" 
>
<path vector-effect="non-scaling-stroke" fill-rule="evenodd" d="M516,355 L612,355 L612,393 L516,393 L516,355"/>
</g>

<g fill="#f2f2f2" fill-opacity="1" stroke="none" transform="matrix(1,0,0,1,0,0)"
font-family="Helvetica" font-size="12" font-weight="400" font-style="normal" 
>
<path vector-effect="non-scaling-stroke" fill-rule="evenodd" d="M411,393 L516,393 L516,431 L411,431 L411,393"/>
<path vector-effect="non-scaling-stroke" fill-rule="evenodd" d="M516,393 L612,393 L612,431 L516,431 L516,393"/>
</g>

<g fill="#ffff1f" fill-opacity="1" stroke="none" transform="matrix(1,0,0,1,0,0)"
font-family="Helvetica" font-size="12" font-weight="400" font-style="normal" 
>
<path vector-effect="non-scaling-stroke" fill-rule="evenodd" d="M516,393 L612,393 L612,431 L516,431 L516,393"/>
</g>

<g fill="#ffff27" fill-opacity="1" stroke="none" transform="matrix(1,0,0,1,0,0)"
font-family="Helvetica" font-size="12" font-weight="400" font-style="normal" 
>
<path vector-effect="non-scaling-stroke" fill-rule="evenodd" d="M516,431 L612,431 L612,470 L516,470 L516,431"/>
</g>

<g fill="#a8a8a8" fill-opacity="1" stroke="none" transform="matrix(1,0,0,1,0,0)"
font-family="Helvetica" font-size="12" font-weight="400" font-style="normal" 
>
<path vector-effect="non-scaling-stroke" fill-rule="evenodd" d="M411,8 L516,8 L516,10 L411,10 L411,8"/>
<path vector-effect="non-scaling-stroke" fill-rule="evenodd" d="M516,8 L612,8 L612,10 L516,10 L516,8"/>
<path vector-effect="non-scaling-stroke" fill-rule="evenodd" d="M411,49 L516,49 L516,51 L411,51 L411,49"/>
<path vector-effect="non-scaling-stroke" fill-rule="evenodd" d="M516,49 L612,49 L612,51 L516,51 L516,49"/>
<path vector-effect="non-scaling-stroke" fill-rule="evenodd" d="M411,49 L516,49 L516,51 L411,51 L411,49"/>
<path vector-effect="non-scaling-stroke" fill-rule="evenodd" d="M516,49 L612,49 L612,51 L516,51 L516,49"/>
<path vector-effect="non-scaling-stroke" fill-rule="evenodd" d="M411,469 L516,469 L516,471 L411,471 L411,469"/>
<path vector-effect="non-scaling-stroke" fill-rule="evenodd" d="M516,469 L612,469 L612,471 L516,471 L516,469"/>
<path vector-effect="non-scaling-stroke" fill-rule="evenodd" d="M411,469 L612,469 L612,471 L411,471 L411,469"/>
</g>

<g fill="#000000" fill-opacity="1" stroke="#000000" stroke-opacity="1" stroke-width="1" stroke-linecap="square" stroke-linejoin="bevel" transform="matrix(1,0,0,1,0,0)"
font-family="Arial" font-size="16" font-weight="400" font-style="normal" 
>
<text fill="#000000" fill-opacity="1" stroke="none" xml:space="preserve" x="421" y="34" font-family="Arial" font-size="16" font-weight="400" font-style="normal" 
 >tst</text>
<text fill="#000000" fill-opacity="1" stroke="none" xml:space="preserve" x="571" y="35" font-family="Arial" font-size="16" font-weight="400" font-style="normal" 
 >sza</text>
</g>

<g fill="#000000" fill-opacity="1" stroke="#000000" stroke-opacity="1" stroke-width="1" stroke-linecap="square" stroke-linejoin="bevel" transform="matrix(1,0,0,1,0,0)"
font-family="Arial" font-size="10" font-weight="400" font-style="italic" 
>
<text fill="#000000" fill-opacity="1" stroke="none" xml:space="preserve" x="596" y="29" font-family="Arial" font-size="10" font-weight="400" font-style="italic" 
 >1</text>
</g>

<g fill="#000000" fill-opacity="1" stroke="#000000" stroke-opacity="1" stroke-width="1" stroke-linecap="square" stroke-linejoin="bevel" transform="matrix(1,0,0,1,0,0)"
font-family="Arial" font-size="16" font-weight="400" font-style="normal" 
>
<text fill="#000000" fill-opacity="1" stroke="none" xml:space="preserve" x="421" y="75" font-family="Arial" font-size="16" font-weight="400" font-style="normal" 
 >0700</text>
<text fill="#000000" fill-opacity="1" stroke="none" xml:space="preserve" x="571" y="75" font-family="Arial" font-size="16" font-weight="400" font-style="normal" 
 >84.9</text>
<text fill="#000000" fill-opacity="1" stroke="none" xml:space="preserve" x="421" y="113" font-family="Arial" font-size="16" font-weight="400" font-style="normal" 
 >0730</text>
<text fill="#000000" fill-opacity="1" stroke="none" xml:space="preserve" x="571" y="113" font-family="Arial" font-size="16" font-weight="400" font-style="normal" 
 >78.7</text>
<text fill="#000000" fill-opacity="1" stroke="none" xml:space="preserve" x="421" y="151" font-family="Arial" font-size="16" font-weight="400" font-style="normal" 
 >0800</text>
<text fill="#000000" fill-opacity="1" stroke="none" xml:space="preserve" x="571" y="151" font-family="Arial" font-size="16" font-weight="400" font-style="normal" 
 >72.7</text>
<text fill="#000000" fill-opacity="1" stroke="none" xml:space="preserve" x="421" y="189" font-family="Arial" font-size="16" font-weight="400" font-style="normal" 
 >0830</text>
<text fill="#000000" fill-opacity="1" stroke="none" xml:space="preserve" x="571" y="189" font-family="Arial" font-size="16" font-weight="400" font-style="normal" 
 >66.1</text>
<text fill="#000000" fill-opacity="1" stroke="none" xml:space="preserve" x="421" y="227" font-family="Arial" font-size="16" font-weight="400" font-style="normal" 
 >0900</text>
<text fill="#000000" fill-opacity="1" stroke="none" xml:space="preserve" x="571" y="227" font-family="Arial" font-size="16" font-weight="400" font-style="normal" 
 >61.5</text>
<text fill="#000000" fill-opacity="1" stroke="none" xml:space="preserve" x="421" y="265" font-family="Arial" font-size="16" font-weight="400" font-style="normal" 
 >0930</text>
<text fill="#000000" fill-opacity="1" stroke="none" xml:space="preserve" x="571" y="265" font-family="Arial" font-size="16" font-weight="400" font-style="normal" 
 >56.5</text>
<text fill="#000000" fill-opacity="1" stroke="none" xml:space="preserve" x="421" y="303" font-family="Arial" font-size="16" font-weight="400" font-style="normal" 
 >1000</text>
<text fill="#000000" fill-opacity="1" stroke="none" xml:space="preserve" x="571" y="303" font-family="Arial" font-size="16" font-weight="400" font-style="normal" 
 >52.1</text>
<text fill="#000000" fill-opacity="1" stroke="none" xml:space="preserve" x="421" y="341" font-family="Arial" font-size="16" font-weight="400" font-style="normal" 
 >1030</text>
<text fill="#000000" fill-opacity="1" stroke="none" xml:space="preserve" x="571" y="341" font-family="Arial" font-size="16" font-weight="400" font-style="normal" 
 >48.3</text>
<text fill="#000000" fill-opacity="1" stroke="none" xml:space="preserve" x="421" y="379" font-family="Arial" font-size="16" font-weight="400" font-style="normal" 
 >1100</text>
<text fill="#000000" fill-opacity="1" stroke="none" xml:space="preserve" x="571" y="379" font-family="Arial" font-size="16" font-weight="400" font-style="normal" 
 >45.5</text>
<text fill="#000000" fill-opacity="1" stroke="none" xml:space="preserve" x="421" y="417" font-family="Arial" font-size="16" font-weight="400" font-style="normal" 
 >1130</text>
<text fill="#000000" fill-opacity="1" stroke="none" xml:space="preserve" x="571" y="417" font-family="Arial" font-size="16" font-weight="400" font-style="normal" 
 >43.6</text>
<text fill="#000000" fill-opacity="1" stroke="none" xml:space="preserve" x="421" y="455" font-family="Arial" font-size="16" font-weight="400" font-style="normal" 
 >1200</text>
<text fill="#000000" fill-opacity="1" stroke="none" xml:space="preserve" x="571" y="455" font-family="Arial" font-size="16" font-weight="400" font-style="normal" 
 >43.0</text>
</g>

<g fill="#000000" fill-opacity="1" stroke="#000000" stroke-opacity="1" stroke-width="1" stroke-linecap="square" stroke-linejoin="bevel" transform="matrix(1,0,0,1,0,0)"
font-family="Arial" font-size="9" font-weight="400" font-style="italic" 
>
<text fill="#000000" fill-opacity="1" stroke="none" xml:space="preserve" x="415" y="483" font-family="Arial" font-size="9" font-weight="400" font-style="italic" 
 >1</text>
</g>

<g fill="#000000" fill-opacity="1" stroke="#000000" stroke-opacity="1" stroke-width="1" stroke-linecap="square" stroke-linejoin="bevel" transform="matrix(1,0,0,1,0,0)"
font-family="Arial" font-size="14" font-weight="400" font-style="normal" 
>
<text fill="#000000" fill-opacity="1" stroke="none" xml:space="preserve" x="420" y="488" font-family="Arial" font-size="14" font-weight="400" font-style="normal" 
 > Color indicates height of sun.</text>
</g>
</g>
</svg>
