<?xml version="1.0" encoding="UTF-8" standalone="no"?>
<svg width="361.244mm" height="142.522mm"
 viewBox="0 0 1024 404"
 xmlns="http://www.w3.org/2000/svg" xmlns:xlink="http://www.w3.org/1999/xlink"  version="1.2" baseProfile="tiny">
<title>Qt Svg Document</title>
<desc>Generated with Qt</desc>
<defs>
</defs>
<g fill="none" stroke="black" stroke-width="1" fill-rule="evenodd" stroke-linecap="square" stroke-linejoin="bevel" >

<g fill="#ffffff" fill-opacity="1" stroke="none" transform="matrix(1,0,0,1,0,0)"
font-family="Helvetica" font-size="12" font-weight="400" font-style="normal" 
>
<path vector-effect="non-scaling-stroke" fill-rule="evenodd" d="M0,0 L1024,0 L1024,404 L0,404 L0,0"/>
<path vector-effect="non-scaling-stroke" fill-rule="evenodd" d="M0,0 L1024,0 L1024,404 L0,404 L0,0"/>
<path vector-effect="non-scaling-stroke" fill-rule="evenodd" d="M0,0 L1024,0 L1024,404 L0,404 L0,0"/>
<path vector-effect="non-scaling-stroke" fill-rule="evenodd" d="M148,8 L876,8 L876,396 L148,396 L148,8"/>
<path vector-effect="non-scaling-stroke" fill-rule="evenodd" d="M148,9 L268,9 L268,89 L148,89 L148,9"/>
<path vector-effect="non-scaling-stroke" fill-rule="evenodd" d="M268,9 L325,9 L325,89 L268,89 L268,9"/>
<path vector-effect="non-scaling-stroke" fill-rule="evenodd" d="M325,9 L423,9 L423,89 L325,89 L325,9"/>
<path vector-effect="non-scaling-stroke" fill-rule="evenodd" d="M423,9 L802,9 L802,49 L423,49 L423,9"/>
<path vector-effect="non-scaling-stroke" fill-rule="evenodd" d="M802,9 L876,9 L876,89 L802,89 L802,9"/>
<path vector-effect="non-scaling-stroke" fill-rule="evenodd" d="M423,49 L470,49 L470,89 L423,89 L423,49"/>
<path vector-effect="non-scaling-stroke" fill-rule="evenodd" d="M470,49 L544,49 L544,89 L470,89 L470,49"/>
<path vector-effect="non-scaling-stroke" fill-rule="evenodd" d="M544,49 L591,49 L591,89 L544,89 L544,49"/>
<path vector-effect="non-scaling-stroke" fill-rule="evenodd" d="M591,49 L665,49 L665,89 L591,89 L591,49"/>
<path vector-effect="non-scaling-stroke" fill-rule="evenodd" d="M665,49 L733,49 L733,89 L665,89 L665,49"/>
<path vector-effect="non-scaling-stroke" fill-rule="evenodd" d="M733,49 L802,49 L802,89 L733,89 L733,49"/>
<path vector-effect="non-scaling-stroke" fill-rule="evenodd" d="M148,89 L268,89 L268,128 L148,128 L148,89"/>
</g>

<g fill="#f2f2f2" fill-opacity="1" stroke="none" transform="matrix(1,0,0,1,0,0)"
font-family="Helvetica" font-size="12" font-weight="400" font-style="normal" 
>
<path vector-effect="non-scaling-stroke" fill-rule="evenodd" d="M148,128 L268,128 L268,166 L148,166 L148,128"/>
</g>

<g fill="#ffffff" fill-opacity="1" stroke="none" transform="matrix(1,0,0,1,0,0)"
font-family="Helvetica" font-size="12" font-weight="400" font-style="normal" 
>
<path vector-effect="non-scaling-stroke" fill-rule="evenodd" d="M148,128 L268,128 L268,166 L148,166 L148,128"/>
</g>

<g fill="#f2f2f2" fill-opacity="1" stroke="none" transform="matrix(1,0,0,1,0,0)"
font-family="Helvetica" font-size="12" font-weight="400" font-style="normal" 
>
<path vector-effect="non-scaling-stroke" fill-rule="evenodd" d="M268,128 L325,128 L325,166 L268,166 L268,128"/>
<path vector-effect="non-scaling-stroke" fill-rule="evenodd" d="M325,128 L423,128 L423,166 L325,166 L325,128"/>
<path vector-effect="non-scaling-stroke" fill-rule="evenodd" d="M423,128 L470,128 L470,166 L423,166 L423,128"/>
<path vector-effect="non-scaling-stroke" fill-rule="evenodd" d="M470,128 L544,128 L544,166 L470,166 L470,128"/>
<path vector-effect="non-scaling-stroke" fill-rule="evenodd" d="M544,128 L591,128 L591,166 L544,166 L544,128"/>
<path vector-effect="non-scaling-stroke" fill-rule="evenodd" d="M591,128 L665,128 L665,166 L591,166 L591,128"/>
<path vector-effect="non-scaling-stroke" fill-rule="evenodd" d="M665,128 L733,128 L733,166 L665,166 L665,128"/>
<path vector-effect="non-scaling-stroke" fill-rule="evenodd" d="M733,128 L802,128 L802,166 L733,166 L733,128"/>
<path vector-effect="non-scaling-stroke" fill-rule="evenodd" d="M802,128 L876,128 L876,166 L802,166 L802,128"/>
</g>

<g fill="#ffffff" fill-opacity="1" stroke="none" transform="matrix(1,0,0,1,0,0)"
font-family="Helvetica" font-size="12" font-weight="400" font-style="normal" 
>
<path vector-effect="non-scaling-stroke" fill-rule="evenodd" d="M148,166 L268,166 L268,204 L148,204 L148,166"/>
</g>

<g fill="#f2f2f2" fill-opacity="1" stroke="none" transform="matrix(1,0,0,1,0,0)"
font-family="Helvetica" font-size="12" font-weight="400" font-style="normal" 
>
<path vector-effect="non-scaling-stroke" fill-rule="evenodd" d="M148,204 L268,204 L268,242 L148,242 L148,204"/>
</g>

<g fill="#ffffff" fill-opacity="1" stroke="none" transform="matrix(1,0,0,1,0,0)"
font-family="Helvetica" font-size="12" font-weight="400" font-style="normal" 
>
<path vector-effect="non-scaling-stroke" fill-rule="evenodd" d="M148,204 L268,204 L268,242 L148,242 L148,204"/>
</g>

<g fill="#f2f2f2" fill-opacity="1" stroke="none" transform="matrix(1,0,0,1,0,0)"
font-family="Helvetica" font-size="12" font-weight="400" font-style="normal" 
>
<path vector-effect="non-scaling-stroke" fill-rule="evenodd" d="M268,204 L325,204 L325,242 L268,242 L268,204"/>
<path vector-effect="non-scaling-stroke" fill-rule="evenodd" d="M325,204 L423,204 L423,242 L325,242 L325,204"/>
<path vector-effect="non-scaling-stroke" fill-rule="evenodd" d="M423,204 L470,204 L470,242 L423,242 L423,204"/>
<path vector-effect="non-scaling-stroke" fill-rule="evenodd" d="M470,204 L544,204 L544,242 L470,242 L470,204"/>
<path vector-effect="non-scaling-stroke" fill-rule="evenodd" d="M544,204 L591,204 L591,242 L544,242 L544,204"/>
<path vector-effect="non-scaling-stroke" fill-rule="evenodd" d="M591,204 L665,204 L665,242 L591,242 L591,204"/>
<path vector-effect="non-scaling-stroke" fill-rule="evenodd" d="M665,204 L733,204 L733,242 L665,242 L665,204"/>
<path vector-effect="non-scaling-stroke" fill-rule="evenodd" d="M733,204 L802,204 L802,242 L733,242 L733,204"/>
<path vector-effect="non-scaling-stroke" fill-rule="evenodd" d="M802,204 L876,204 L876,242 L802,242 L802,204"/>
</g>

<g fill="#ffffff" fill-opacity="1" stroke="none" transform="matrix(1,0,0,1,0,0)"
font-family="Helvetica" font-size="12" font-weight="400" font-style="normal" 
>
<path vector-effect="non-scaling-stroke" fill-rule="evenodd" d="M148,242 L268,242 L268,280 L148,280 L148,242"/>
</g>

<g fill="#f2f2f2" fill-opacity="1" stroke="none" transform="matrix(1,0,0,1,0,0)"
font-family="Helvetica" font-size="12" font-weight="400" font-style="normal" 
>
<path vector-effect="non-scaling-stroke" fill-rule="evenodd" d="M148,280 L268,280 L268,318 L148,318 L148,280"/>
</g>

<g fill="#ffffff" fill-opacity="1" stroke="none" transform="matrix(1,0,0,1,0,0)"
font-family="Helvetica" font-size="12" font-weight="400" font-style="normal" 
>
<path vector-effect="non-scaling-stroke" fill-rule="evenodd" d="M148,280 L268,280 L268,318 L148,318 L148,280"/>
</g>

<g fill="#f2f2f2" fill-opacity="1" stroke="none" transform="matrix(1,0,0,1,0,0)"
font-family="Helvetica" font-size="12" font-weight="400" font-style="normal" 
>
<path vector-effect="non-scaling-stroke" fill-rule="evenodd" d="M268,280 L325,280 L325,318 L268,318 L268,280"/>
<path vector-effect="non-scaling-stroke" fill-rule="evenodd" d="M325,280 L423,280 L423,318 L325,318 L325,280"/>
<path vector-effect="non-scaling-stroke" fill-rule="evenodd" d="M423,280 L470,280 L470,318 L423,318 L423,280"/>
<path vector-effect="non-scaling-stroke" fill-rule="evenodd" d="M470,280 L544,280 L544,318 L470,318 L470,280"/>
<path vector-effect="non-scaling-stroke" fill-rule="evenodd" d="M544,280 L591,280 L591,318 L544,318 L544,280"/>
<path vector-effect="non-scaling-stroke" fill-rule="evenodd" d="M591,280 L665,280 L665,318 L591,318 L591,280"/>
<path vector-effect="non-scaling-stroke" fill-rule="evenodd" d="M665,280 L733,280 L733,318 L665,318 L665,280"/>
<path vector-effect="non-scaling-stroke" fill-rule="evenodd" d="M733,280 L802,280 L802,318 L733,318 L733,280"/>
<path vector-effect="non-scaling-stroke" fill-rule="evenodd" d="M802,280 L876,280 L876,318 L802,318 L802,280"/>
</g>

<g fill="#ffffff" fill-opacity="1" stroke="none" transform="matrix(1,0,0,1,0,0)"
font-family="Helvetica" font-size="12" font-weight="400" font-style="normal" 
>
<path vector-effect="non-scaling-stroke" fill-rule="evenodd" d="M148,318 L268,318 L268,356 L148,356 L148,318"/>
</g>

<g fill="#f2f2f2" fill-opacity="1" stroke="none" transform="matrix(1,0,0,1,0,0)"
font-family="Helvetica" font-size="12" font-weight="400" font-style="normal" 
>
<path vector-effect="non-scaling-stroke" fill-rule="evenodd" d="M148,356 L268,356 L268,395 L148,395 L148,356"/>
</g>

<g fill="#ffffff" fill-opacity="1" stroke="none" transform="matrix(1,0,0,1,0,0)"
font-family="Helvetica" font-size="12" font-weight="400" font-style="normal" 
>
<path vector-effect="non-scaling-stroke" fill-rule="evenodd" d="M148,356 L268,356 L268,395 L148,395 L148,356"/>
</g>

<g fill="#f2f2f2" fill-opacity="1" stroke="none" transform="matrix(1,0,0,1,0,0)"
font-family="Helvetica" font-size="12" font-weight="400" font-style="normal" 
>
<path vector-effect="non-scaling-stroke" fill-rule="evenodd" d="M268,356 L325,356 L325,395 L268,395 L268,356"/>
<path vector-effect="non-scaling-stroke" fill-rule="evenodd" d="M325,356 L423,356 L423,395 L325,395 L325,356"/>
<path vector-effect="non-scaling-stroke" fill-rule="evenodd" d="M423,356 L470,356 L470,395 L423,395 L423,356"/>
<path vector-effect="non-scaling-stroke" fill-rule="evenodd" d="M470,356 L544,356 L544,395 L470,395 L470,356"/>
<path vector-effect="non-scaling-stroke" fill-rule="evenodd" d="M544,356 L591,356 L591,395 L544,395 L544,356"/>
<path vector-effect="non-scaling-stroke" fill-rule="evenodd" d="M591,356 L665,356 L665,395 L591,395 L591,356"/>
<path vector-effect="non-scaling-stroke" fill-rule="evenodd" d="M665,356 L733,356 L733,395 L665,395 L665,356"/>
<path vector-effect="non-scaling-stroke" fill-rule="evenodd" d="M733,356 L802,356 L802,395 L733,395 L733,356"/>
<path vector-effect="non-scaling-stroke" fill-rule="evenodd" d="M802,356 L876,356 L876,395 L802,395 L802,356"/>
</g>

<g fill="#a8a8a8" fill-opacity="1" stroke="none" transform="matrix(1,0,0,1,0,0)"
font-family="Helvetica" font-size="12" font-weight="400" font-style="normal" 
>
<path vector-effect="non-scaling-stroke" fill-rule="evenodd" d="M148,8 L268,8 L268,10 L148,10 L148,8"/>
<path vector-effect="non-scaling-stroke" fill-rule="evenodd" d="M268,8 L325,8 L325,10 L268,10 L268,8"/>
<path vector-effect="non-scaling-stroke" fill-rule="evenodd" d="M325,8 L423,8 L423,10 L325,10 L325,8"/>
<path vector-effect="non-scaling-stroke" fill-rule="evenodd" d="M423,8 L802,8 L802,10 L423,10 L423,8"/>
<path vector-effect="non-scaling-stroke" fill-rule="evenodd" d="M802,8 L876,8 L876,10 L802,10 L802,8"/>
<path vector-effect="non-scaling-stroke" fill-rule="evenodd" d="M148,88 L268,88 L268,90 L148,90 L148,88"/>
<path vector-effect="non-scaling-stroke" fill-rule="evenodd" d="M268,88 L325,88 L325,90 L268,90 L268,88"/>
<path vector-effect="non-scaling-stroke" fill-rule="evenodd" d="M325,88 L423,88 L423,90 L325,90 L325,88"/>
<path vector-effect="non-scaling-stroke" fill-rule="evenodd" d="M802,88 L876,88 L876,90 L802,90 L802,88"/>
<path vector-effect="non-scaling-stroke" fill-rule="evenodd" d="M423,88 L470,88 L470,90 L423,90 L423,88"/>
<path vector-effect="non-scaling-stroke" fill-rule="evenodd" d="M470,88 L544,88 L544,90 L470,90 L470,88"/>
<path vector-effect="non-scaling-stroke" fill-rule="evenodd" d="M544,88 L591,88 L591,90 L544,90 L544,88"/>
<path vector-effect="non-scaling-stroke" fill-rule="evenodd" d="M591,88 L665,88 L665,90 L591,90 L591,88"/>
<path vector-effect="non-scaling-stroke" fill-rule="evenodd" d="M665,88 L733,88 L733,90 L665,90 L665,88"/>
<path vector-effect="non-scaling-stroke" fill-rule="evenodd" d="M733,88 L802,88 L802,90 L733,90 L733,88"/>
<path vector-effect="non-scaling-stroke" fill-rule="evenodd" d="M148,88 L269,88 L269,90 L148,90 L148,88"/>
<path vector-effect="non-scaling-stroke" fill-rule="evenodd" d="M267,88 L325,88 L325,90 L267,90 L267,88"/>
<path vector-effect="non-scaling-stroke" fill-rule="evenodd" d="M325,88 L423,88 L423,90 L325,90 L325,88"/>
<path vector-effect="non-scaling-stroke" fill-rule="evenodd" d="M423,88 L470,88 L470,90 L423,90 L423,88"/>
<path vector-effect="non-scaling-stroke" fill-rule="evenodd" d="M470,88 L544,88 L544,90 L470,90 L470,88"/>
<path vector-effect="non-scaling-stroke" fill-rule="evenodd" d="M544,88 L591,88 L591,90 L544,90 L544,88"/>
<path vector-effect="non-scaling-stroke" fill-rule="evenodd" d="M591,88 L665,88 L665,90 L591,90 L591,88"/>
<path vector-effect="non-scaling-stroke" fill-rule="evenodd" d="M665,88 L733,88 L733,90 L665,90 L665,88"/>
<path vector-effect="non-scaling-stroke" fill-rule="evenodd" d="M733,88 L802,88 L802,90 L733,90 L733,88"/>
<path vector-effect="non-scaling-stroke" fill-rule="evenodd" d="M802,88 L876,88 L876,90 L802,90 L802,88"/>
<path vector-effect="non-scaling-stroke" fill-rule="evenodd" d="M148,394 L269,394 L269,396 L148,396 L148,394"/>
<path vector-effect="non-scaling-stroke" fill-rule="evenodd" d="M267,394 L325,394 L325,396 L267,396 L267,394"/>
<path vector-effect="non-scaling-stroke" fill-rule="evenodd" d="M325,394 L423,394 L423,396 L325,396 L325,394"/>
<path vector-effect="non-scaling-stroke" fill-rule="evenodd" d="M423,394 L470,394 L470,396 L423,396 L423,394"/>
<path vector-effect="non-scaling-stroke" fill-rule="evenodd" d="M470,394 L544,394 L544,396 L470,396 L470,394"/>
<path vector-effect="non-scaling-stroke" fill-rule="evenodd" d="M544,394 L591,394 L591,396 L544,396 L544,394"/>
<path vector-effect="non-scaling-stroke" fill-rule="evenodd" d="M591,394 L665,394 L665,396 L591,396 L591,394"/>
<path vector-effect="non-scaling-stroke" fill-rule="evenodd" d="M665,394 L733,394 L733,396 L665,396 L665,394"/>
<path vector-effect="non-scaling-stroke" fill-rule="evenodd" d="M733,394 L802,394 L802,396 L733,396 L733,394"/>
<path vector-effect="non-scaling-stroke" fill-rule="evenodd" d="M802,394 L876,394 L876,396 L802,396 L802,394"/>
<path vector-effect="non-scaling-stroke" fill-rule="evenodd" d="M423,48 L802,48 L802,50 L423,50 L423,48"/>
<path vector-effect="non-scaling-stroke" fill-rule="evenodd" d="M423,48 L470,48 L470,50 L423,50 L423,48"/>
<path vector-effect="non-scaling-stroke" fill-rule="evenodd" d="M470,48 L544,48 L544,50 L470,50 L470,48"/>
<path vector-effect="non-scaling-stroke" fill-rule="evenodd" d="M544,48 L591,48 L591,50 L544,50 L544,48"/>
<path vector-effect="non-scaling-stroke" fill-rule="evenodd" d="M591,48 L665,48 L665,50 L591,50 L591,48"/>
<path vector-effect="non-scaling-stroke" fill-rule="evenodd" d="M665,48 L733,48 L733,50 L665,50 L665,48"/>
<path vector-effect="non-scaling-stroke" fill-rule="evenodd" d="M733,48 L802,48 L802,50 L733,50 L733,48"/>
<path vector-effect="non-scaling-stroke" fill-rule="evenodd" d="M267,88 L269,88 L269,128 L267,128 L267,88"/>
<path vector-effect="non-scaling-stroke" fill-rule="evenodd" d="M267,88 L269,88 L269,128 L267,128 L267,88"/>
<path vector-effect="non-scaling-stroke" fill-rule="evenodd" d="M267,128 L269,128 L269,166 L267,166 L267,128"/>
<path vector-effect="non-scaling-stroke" fill-rule="evenodd" d="M267,128 L269,128 L269,166 L267,166 L267,128"/>
<path vector-effect="non-scaling-stroke" fill-rule="evenodd" d="M267,166 L269,166 L269,204 L267,204 L267,166"/>
<path vector-effect="non-scaling-stroke" fill-rule="evenodd" d="M267,166 L269,166 L269,204 L267,204 L267,166"/>
<path vector-effect="non-scaling-stroke" fill-rule="evenodd" d="M267,204 L269,204 L269,242 L267,242 L267,204"/>
<path vector-effect="non-scaling-stroke" fill-rule="evenodd" d="M267,204 L269,204 L269,242 L267,242 L267,204"/>
<path vector-effect="non-scaling-stroke" fill-rule="evenodd" d="M267,242 L269,242 L269,280 L267,280 L267,242"/>
<path vector-effect="non-scaling-stroke" fill-rule="evenodd" d="M267,242 L269,242 L269,280 L267,280 L267,242"/>
<path vector-effect="non-scaling-stroke" fill-rule="evenodd" d="M267,280 L269,280 L269,318 L267,318 L267,280"/>
<path vector-effect="non-scaling-stroke" fill-rule="evenodd" d="M267,280 L269,280 L269,318 L267,318 L267,280"/>
<path vector-effect="non-scaling-stroke" fill-rule="evenodd" d="M267,318 L269,318 L269,356 L267,356 L267,318"/>
<path vector-effect="non-scaling-stroke" fill-rule="evenodd" d="M267,318 L269,318 L269,356 L267,356 L267,318"/>
<path vector-effect="non-scaling-stroke" fill-rule="evenodd" d="M267,356 L269,356 L269,396 L267,396 L267,356"/>
<path vector-effect="non-scaling-stroke" fill-rule="evenodd" d="M267,356 L269,356 L269,396 L267,396 L267,356"/>
</g>

<g fill="#000000" fill-opacity="1" stroke="#000000" stroke-opacity="1" stroke-width="1" stroke-linecap="square" stroke-linejoin="bevel" transform="matrix(1,0,0,1,0,0)"
font-family="Arial" font-size="16" font-weight="400" font-style="normal" 
>
<text fill="#000000" fill-opacity="1" stroke="none" xml:space="preserve" x="281" y="54" font-family="Arial" font-size="16" font-weight="400" font-style="normal" 
 >year</text>
<text fill="#000000" fill-opacity="1" stroke="none" xml:space="preserve" x="340" y="54" font-family="Arial" font-size="16" font-weight="400" font-style="normal" 
 >bdy_style</text>
<text fill="#000000" fill-opacity="1" stroke="none" xml:space="preserve" x="568" y="34" font-family="Arial" font-size="16" font-weight="400" font-style="normal" 
 >performance</text>
<text fill="#000000" fill-opacity="1" stroke="none" xml:space="preserve" x="821.5" y="54" font-family="Arial" font-size="16" font-weight="400" font-style="normal" 
 >msrp</text>
<text fill="#000000" fill-opacity="1" stroke="none" xml:space="preserve" x="442" y="74" font-family="Arial" font-size="16" font-weight="400" font-style="normal" 
 >hp</text>
<text fill="#000000" fill-opacity="1" stroke="none" xml:space="preserve" x="480" y="74" font-family="Arial" font-size="16" font-weight="400" font-style="normal" 
 >hp_rpm</text>
<text fill="#000000" fill-opacity="1" stroke="none" xml:space="preserve" x="563" y="74" font-family="Arial" font-size="16" font-weight="400" font-style="normal" 
 >trq</text>
<text fill="#000000" fill-opacity="1" stroke="none" xml:space="preserve" x="601" y="74" font-family="Arial" font-size="16" font-weight="400" font-style="normal" 
 >trq_rpm</text>
<text fill="#000000" fill-opacity="1" stroke="none" xml:space="preserve" x="675" y="74" font-family="Arial" font-size="16" font-weight="400" font-style="normal" 
 >mpg_c</text>
<text fill="#000000" fill-opacity="1" stroke="none" xml:space="preserve" x="743" y="74" font-family="Arial" font-size="16" font-weight="400" font-style="normal" 
 >mpg_h</text>
<text fill="#000000" fill-opacity="1" stroke="none" xml:space="preserve" x="163" y="114" font-family="Arial" font-size="16" font-weight="400" font-style="normal" 
 >GT</text>
<text fill="#000000" fill-opacity="1" stroke="none" xml:space="preserve" x="279" y="114" font-family="Arial" font-size="16" font-weight="400" font-style="normal" 
 >2017</text>
<text fill="#000000" fill-opacity="1" stroke="none" xml:space="preserve" x="335" y="114" font-family="Arial" font-size="16" font-weight="400" font-style="normal" 
 >coupe</text>
<text fill="#000000" fill-opacity="1" stroke="none" xml:space="preserve" x="433" y="114" font-family="Arial" font-size="16" font-weight="400" font-style="normal" 
 >647</text>
<text fill="#000000" fill-opacity="1" stroke="none" xml:space="preserve" x="498" y="114" font-family="Arial" font-size="16" font-weight="400" font-style="normal" 
 >6250</text>
<text fill="#000000" fill-opacity="1" stroke="none" xml:space="preserve" x="554" y="114" font-family="Arial" font-size="16" font-weight="400" font-style="normal" 
 >550</text>
<text fill="#000000" fill-opacity="1" stroke="none" xml:space="preserve" x="619" y="114" font-family="Arial" font-size="16" font-weight="400" font-style="normal" 
 >5900</text>
<text fill="#000000" fill-opacity="1" stroke="none" xml:space="preserve" x="705" y="114" font-family="Arial" font-size="16" font-weight="400" font-style="normal" 
 >11</text>
<text fill="#000000" fill-opacity="1" stroke="none" xml:space="preserve" x="774" y="114" font-family="Arial" font-size="16" font-weight="400" font-style="normal" 
 >18</text>
<text fill="#000000" fill-opacity="1" stroke="none" xml:space="preserve" x="812" y="114" font-family="Arial" font-size="16" font-weight="400" font-style="normal" 
 >447000</text>
<text fill="#000000" fill-opacity="1" stroke="none" xml:space="preserve" x="163" y="152" font-family="Arial" font-size="16" font-weight="400" font-style="normal" 
 >458 Speciale</text>
<text fill="#000000" fill-opacity="1" stroke="none" xml:space="preserve" x="279" y="152" font-family="Arial" font-size="16" font-weight="400" font-style="normal" 
 >2015</text>
<text fill="#000000" fill-opacity="1" stroke="none" xml:space="preserve" x="335" y="152" font-family="Arial" font-size="16" font-weight="400" font-style="normal" 
 >coupe</text>
<text fill="#000000" fill-opacity="1" stroke="none" xml:space="preserve" x="433" y="152" font-family="Arial" font-size="16" font-weight="400" font-style="normal" 
 >597</text>
<text fill="#000000" fill-opacity="1" stroke="none" xml:space="preserve" x="498" y="152" font-family="Arial" font-size="16" font-weight="400" font-style="normal" 
 >9000</text>
<text fill="#000000" fill-opacity="1" stroke="none" xml:space="preserve" x="554" y="152" font-family="Arial" font-size="16" font-weight="400" font-style="normal" 
 >398</text>
<text fill="#000000" fill-opacity="1" stroke="none" xml:space="preserve" x="619" y="152" font-family="Arial" font-size="16" font-weight="400" font-style="normal" 
 >6000</text>
<text fill="#000000" fill-opacity="1" stroke="none" xml:space="preserve" x="705" y="152" font-family="Arial" font-size="16" font-weight="400" font-style="normal" 
 >13</text>
<text fill="#000000" fill-opacity="1" stroke="none" xml:space="preserve" x="774" y="152" font-family="Arial" font-size="16" font-weight="400" font-style="normal" 
 >17</text>
<text fill="#000000" fill-opacity="1" stroke="none" xml:space="preserve" x="812" y="152" font-family="Arial" font-size="16" font-weight="400" font-style="normal" 
 >291744</text>
<text fill="#000000" fill-opacity="1" stroke="none" xml:space="preserve" x="163" y="190" font-family="Arial" font-size="16" font-weight="400" font-style="normal" 
 >458 Spider</text>
<text fill="#000000" fill-opacity="1" stroke="none" xml:space="preserve" x="279" y="190" font-family="Arial" font-size="16" font-weight="400" font-style="normal" 
 >2015</text>
<text fill="#000000" fill-opacity="1" stroke="none" xml:space="preserve" x="335" y="190" font-family="Arial" font-size="16" font-weight="400" font-style="normal" 
 >convertible</text>
<text fill="#000000" fill-opacity="1" stroke="none" xml:space="preserve" x="433" y="190" font-family="Arial" font-size="16" font-weight="400" font-style="normal" 
 >562</text>
<text fill="#000000" fill-opacity="1" stroke="none" xml:space="preserve" x="498" y="190" font-family="Arial" font-size="16" font-weight="400" font-style="normal" 
 >9000</text>
<text fill="#000000" fill-opacity="1" stroke="none" xml:space="preserve" x="554" y="190" font-family="Arial" font-size="16" font-weight="400" font-style="normal" 
 >398</text>
<text fill="#000000" fill-opacity="1" stroke="none" xml:space="preserve" x="619" y="190" font-family="Arial" font-size="16" font-weight="400" font-style="normal" 
 >6000</text>
<text fill="#000000" fill-opacity="1" stroke="none" xml:space="preserve" x="705" y="190" font-family="Arial" font-size="16" font-weight="400" font-style="normal" 
 >13</text>
<text fill="#000000" fill-opacity="1" stroke="none" xml:space="preserve" x="774" y="190" font-family="Arial" font-size="16" font-weight="400" font-style="normal" 
 >17</text>
<text fill="#000000" fill-opacity="1" stroke="none" xml:space="preserve" x="812" y="190" font-family="Arial" font-size="16" font-weight="400" font-style="normal" 
 >263553</text>
<text fill="#000000" fill-opacity="1" stroke="none" xml:space="preserve" x="163" y="228" font-family="Arial" font-size="16" font-weight="400" font-style="normal" 
 >458 Italia</text>
<text fill="#000000" fill-opacity="1" stroke="none" xml:space="preserve" x="279" y="228" font-family="Arial" font-size="16" font-weight="400" font-style="normal" 
 >2014</text>
<text fill="#000000" fill-opacity="1" stroke="none" xml:space="preserve" x="335" y="228" font-family="Arial" font-size="16" font-weight="400" font-style="normal" 
 >coupe</text>
<text fill="#000000" fill-opacity="1" stroke="none" xml:space="preserve" x="433" y="228" font-family="Arial" font-size="16" font-weight="400" font-style="normal" 
 >562</text>
<text fill="#000000" fill-opacity="1" stroke="none" xml:space="preserve" x="498" y="228" font-family="Arial" font-size="16" font-weight="400" font-style="normal" 
 >9000</text>
<text fill="#000000" fill-opacity="1" stroke="none" xml:space="preserve" x="554" y="228" font-family="Arial" font-size="16" font-weight="400" font-style="normal" 
 >398</text>
<text fill="#000000" fill-opacity="1" stroke="none" xml:space="preserve" x="619" y="228" font-family="Arial" font-size="16" font-weight="400" font-style="normal" 
 >6000</text>
<text fill="#000000" fill-opacity="1" stroke="none" xml:space="preserve" x="705" y="228" font-family="Arial" font-size="16" font-weight="400" font-style="normal" 
 >13</text>
<text fill="#000000" fill-opacity="1" stroke="none" xml:space="preserve" x="774" y="228" font-family="Arial" font-size="16" font-weight="400" font-style="normal" 
 >17</text>
<text fill="#000000" fill-opacity="1" stroke="none" xml:space="preserve" x="812" y="228" font-family="Arial" font-size="16" font-weight="400" font-style="normal" 
 >233509</text>
<text fill="#000000" fill-opacity="1" stroke="none" xml:space="preserve" x="163" y="266" font-family="Arial" font-size="16" font-weight="400" font-style="normal" 
 >488 GTB</text>
<text fill="#000000" fill-opacity="1" stroke="none" xml:space="preserve" x="279" y="266" font-family="Arial" font-size="16" font-weight="400" font-style="normal" 
 >2016</text>
<text fill="#000000" fill-opacity="1" stroke="none" xml:space="preserve" x="335" y="266" font-family="Arial" font-size="16" font-weight="400" font-style="normal" 
 >coupe</text>
<text fill="#000000" fill-opacity="1" stroke="none" xml:space="preserve" x="433" y="266" font-family="Arial" font-size="16" font-weight="400" font-style="normal" 
 >661</text>
<text fill="#000000" fill-opacity="1" stroke="none" xml:space="preserve" x="498" y="266" font-family="Arial" font-size="16" font-weight="400" font-style="normal" 
 >8000</text>
<text fill="#000000" fill-opacity="1" stroke="none" xml:space="preserve" x="554" y="266" font-family="Arial" font-size="16" font-weight="400" font-style="normal" 
 >561</text>
<text fill="#000000" fill-opacity="1" stroke="none" xml:space="preserve" x="619" y="266" font-family="Arial" font-size="16" font-weight="400" font-style="normal" 
 >3000</text>
<text fill="#000000" fill-opacity="1" stroke="none" xml:space="preserve" x="705" y="266" font-family="Arial" font-size="16" font-weight="400" font-style="normal" 
 >15</text>
<text fill="#000000" fill-opacity="1" stroke="none" xml:space="preserve" x="774" y="266" font-family="Arial" font-size="16" font-weight="400" font-style="normal" 
 >22</text>
<text fill="#000000" fill-opacity="1" stroke="none" xml:space="preserve" x="812" y="266" font-family="Arial" font-size="16" font-weight="400" font-style="normal" 
 >245400</text>
<text fill="#000000" fill-opacity="1" stroke="none" xml:space="preserve" x="163" y="304" font-family="Arial" font-size="16" font-weight="400" font-style="normal" 
 >California</text>
<text fill="#000000" fill-opacity="1" stroke="none" xml:space="preserve" x="279" y="304" font-family="Arial" font-size="16" font-weight="400" font-style="normal" 
 >2015</text>
<text fill="#000000" fill-opacity="1" stroke="none" xml:space="preserve" x="335" y="304" font-family="Arial" font-size="16" font-weight="400" font-style="normal" 
 >convertible</text>
<text fill="#000000" fill-opacity="1" stroke="none" xml:space="preserve" x="433" y="304" font-family="Arial" font-size="16" font-weight="400" font-style="normal" 
 >553</text>
<text fill="#000000" fill-opacity="1" stroke="none" xml:space="preserve" x="498" y="304" font-family="Arial" font-size="16" font-weight="400" font-style="normal" 
 >7500</text>
<text fill="#000000" fill-opacity="1" stroke="none" xml:space="preserve" x="554" y="304" font-family="Arial" font-size="16" font-weight="400" font-style="normal" 
 >557</text>
<text fill="#000000" fill-opacity="1" stroke="none" xml:space="preserve" x="619" y="304" font-family="Arial" font-size="16" font-weight="400" font-style="normal" 
 >4750</text>
<text fill="#000000" fill-opacity="1" stroke="none" xml:space="preserve" x="705" y="304" font-family="Arial" font-size="16" font-weight="400" font-style="normal" 
 >16</text>
<text fill="#000000" fill-opacity="1" stroke="none" xml:space="preserve" x="774" y="304" font-family="Arial" font-size="16" font-weight="400" font-style="normal" 
 >23</text>
<text fill="#000000" fill-opacity="1" stroke="none" xml:space="preserve" x="812" y="304" font-family="Arial" font-size="16" font-weight="400" font-style="normal" 
 >198973</text>
<text fill="#000000" fill-opacity="1" stroke="none" xml:space="preserve" x="163" y="342" font-family="Arial" font-size="16" font-weight="400" font-style="normal" 
 >GTC4Lusso</text>
<text fill="#000000" fill-opacity="1" stroke="none" xml:space="preserve" x="279" y="342" font-family="Arial" font-size="16" font-weight="400" font-style="normal" 
 >2017</text>
<text fill="#000000" fill-opacity="1" stroke="none" xml:space="preserve" x="335" y="342" font-family="Arial" font-size="16" font-weight="400" font-style="normal" 
 >coupe</text>
<text fill="#000000" fill-opacity="1" stroke="none" xml:space="preserve" x="433" y="342" font-family="Arial" font-size="16" font-weight="400" font-style="normal" 
 >680</text>
<text fill="#000000" fill-opacity="1" stroke="none" xml:space="preserve" x="498" y="342" font-family="Arial" font-size="16" font-weight="400" font-style="normal" 
 >8250</text>
<text fill="#000000" fill-opacity="1" stroke="none" xml:space="preserve" x="554" y="342" font-family="Arial" font-size="16" font-weight="400" font-style="normal" 
 >514</text>
<text fill="#000000" fill-opacity="1" stroke="none" xml:space="preserve" x="619" y="342" font-family="Arial" font-size="16" font-weight="400" font-style="normal" 
 >5750</text>
<text fill="#000000" fill-opacity="1" stroke="none" xml:space="preserve" x="705" y="342" font-family="Arial" font-size="16" font-weight="400" font-style="normal" 
 >12</text>
<text fill="#000000" fill-opacity="1" stroke="none" xml:space="preserve" x="774" y="342" font-family="Arial" font-size="16" font-weight="400" font-style="normal" 
 >17</text>
<text fill="#000000" fill-opacity="1" stroke="none" xml:space="preserve" x="812" y="342" font-family="Arial" font-size="16" font-weight="400" font-style="normal" 
 >298000</text>
<text fill="#000000" fill-opacity="1" stroke="none" xml:space="preserve" x="163" y="380" font-family="Arial" font-size="16" font-weight="400" font-style="normal" 
 >FF</text>
<text fill="#000000" fill-opacity="1" stroke="none" xml:space="preserve" x="279" y="380" font-family="Arial" font-size="16" font-weight="400" font-style="normal" 
 >2015</text>
<text fill="#000000" fill-opacity="1" stroke="none" xml:space="preserve" x="335" y="380" font-family="Arial" font-size="16" font-weight="400" font-style="normal" 
 >coupe</text>
<text fill="#000000" fill-opacity="1" stroke="none" xml:space="preserve" x="433" y="380" font-family="Arial" font-size="16" font-weight="400" font-style="normal" 
 >652</text>
<text fill="#000000" fill-opacity="1" stroke="none" xml:space="preserve" x="498" y="380" font-family="Arial" font-size="16" font-weight="400" font-style="normal" 
 >8000</text>
<text fill="#000000" fill-opacity="1" stroke="none" xml:space="preserve" x="554" y="380" font-family="Arial" font-size="16" font-weight="400" font-style="normal" 
 >504</text>
<text fill="#000000" fill-opacity="1" stroke="none" xml:space="preserve" x="619" y="380" font-family="Arial" font-size="16" font-weight="400" font-style="normal" 
 >6000</text>
<text fill="#000000" fill-opacity="1" stroke="none" xml:space="preserve" x="705" y="380" font-family="Arial" font-size="16" font-weight="400" font-style="normal" 
 >11</text>
<text fill="#000000" fill-opacity="1" stroke="none" xml:space="preserve" x="774" y="380" font-family="Arial" font-size="16" font-weight="400" font-style="normal" 
 >16</text>
<text fill="#000000" fill-opacity="1" stroke="none" xml:space="preserve" x="812" y="380" font-family="Arial" font-size="16" font-weight="400" font-style="normal" 
 >295000</text>
</g>
</g>
</svg>
