<?xml version="1.0" encoding="UTF-8" standalone="no"?>
<svg width="361.244mm" height="130.881mm"
 viewBox="0 0 1024 371"
 xmlns="http://www.w3.org/2000/svg" xmlns:xlink="http://www.w3.org/1999/xlink"  version="1.2" baseProfile="tiny">
<title>Qt Svg Document</title>
<desc>Generated with Qt</desc>
<defs>
<linearGradient gradientUnits="userSpaceOnUse" x1="0" y1="0" x2="1" y2="1" id="gradient1">
    <stop offset="1e-07" stop-color="#cbced0" stop-opacity="1" />
    <stop offset="1" stop-color="#84838b" stop-opacity="1" />
</linearGradient>
<linearGradient gradientUnits="userSpaceOnUse" x1="0" y1="0" x2="1" y2="1" id="gradient2">
    <stop offset="1e-07" stop-color="#276dc3" stop-opacity="1" />
    <stop offset="1" stop-color="#165caa" stop-opacity="1" />
</linearGradient>
<linearGradient gradientUnits="userSpaceOnUse" x1="0" y1="0" x2="1" y2="1" id="gradient3">
    <stop offset="1e-07" stop-color="#cbced0" stop-opacity="1" />
    <stop offset="1" stop-color="#84838b" stop-opacity="1" />
</linearGradient>
<linearGradient gradientUnits="userSpaceOnUse" x1="0" y1="0" x2="1" y2="1" id="gradient4">
    <stop offset="1e-07" stop-color="#276dc3" stop-opacity="1" />
    <stop offset="1" stop-color="#165caa" stop-opacity="1" />
</linearGradient>
<linearGradient gradientUnits="userSpaceOnUse" x1="0" y1="0" x2="1" y2="1" id="gradient5">
    <stop offset="1e-07" stop-color="#cbced0" stop-opacity="1" />
    <stop offset="1" stop-color="#84838b" stop-opacity="1" />
</linearGradient>
<linearGradient gradientUnits="userSpaceOnUse" x1="0" y1="0" x2="1" y2="1" id="gradient6">
    <stop offset="1e-07" stop-color="#276dc3" stop-opacity="1" />
    <stop offset="1" stop-color="#165caa" stop-opacity="1" />
</linearGradient>
<linearGradient gradientUnits="userSpaceOnUse" x1="0" y1="0" x2="1" y2="1" id="gradient7">
    <stop offset="1e-07" stop-color="#cbced0" stop-opacity="1" />
    <stop offset="1" stop-color="#84838b" stop-opacity="1" />
</linearGradient>
<linearGradient gradientUnits="userSpaceOnUse" x1="0" y1="0" x2="1" y2="1" id="gradient8">
    <stop offset="1e-07" stop-color="#276dc3" stop-opacity="1" />
    <stop offset="1" stop-color="#165caa" stop-opacity="1" />
</linearGradient>
<linearGradient gradientUnits="userSpaceOnUse" x1="0" y1="0" x2="1" y2="1" id="gradient9">
    <stop offset="1e-07" stop-color="#cbced0" stop-opacity="1" />
    <stop offset="1" stop-color="#84838b" stop-opacity="1" />
</linearGradient>
<linearGradient gradientUnits="userSpaceOnUse" x1="0" y1="0" x2="1" y2="1" id="gradient10">
    <stop offset="1e-07" stop-color="#276dc3" stop-opacity="1" />
    <stop offset="1" stop-color="#165caa" stop-opacity="1" />
</linearGradient>
<linearGradient gradientUnits="userSpaceOnUse" x1="0" y1="0" x2="1" y2="1" id="gradient11">
    <stop offset="1e-07" stop-color="#cbced0" stop-opacity="1" />
    <stop offset="1" stop-color="#84838b" stop-opacity="1" />
</linearGradient>
<linearGradient gradientUnits="userSpaceOnUse" x1="0" y1="0" x2="1" y2="1" id="gradient12">
    <stop offset="1e-07" stop-color="#276dc3" stop-opacity="1" />
    <stop offset="1" stop-color="#165caa" stop-opacity="1" />
</linearGradient>
</defs>
<g fill="none" stroke="black" stroke-width="1" fill-rule="evenodd" stroke-linecap="square" stroke-linejoin="bevel" >

<g fill="#ffffff" fill-opacity="1" stroke="none" transform="matrix(1,0,0,1,0,0)"
font-family="Helvetica" font-size="12" font-weight="400" font-style="normal" 
>
<path vector-effect="non-scaling-stroke" fill-rule="evenodd" d="M0,0 L1024,0 L1024,371 L0,371 L0,0"/>
<path vector-effect="non-scaling-stroke" fill-rule="evenodd" d="M0,0 L1024,0 L1024,371 L0,371 L0,0"/>
<path vector-effect="non-scaling-stroke" fill-rule="evenodd" d="M0,0 L1024,0 L1024,371 L0,371 L0,0"/>
<path vector-effect="non-scaling-stroke" fill-rule="evenodd" d="M449,8 L575,8 L575,363 L449,363 L449,8"/>
<path vector-effect="non-scaling-stroke" fill-rule="evenodd" d="M449,9 L575,9 L575,70 L449,70 L449,9"/>
<path vector-effect="non-scaling-stroke" fill-rule="evenodd" d="M449,70 L575,70 L575,92 L449,92 L449,70"/>
<path vector-effect="non-scaling-stroke" fill-rule="evenodd" d="M449,92 L511,92 L511,132 L449,132 L449,92"/>
<path vector-effect="non-scaling-stroke" fill-rule="evenodd" d="M511,92 L575,92 L575,132 L511,132 L511,92"/>
</g>

<g fill="#f2f2f2" fill-opacity="1" stroke="none" transform="matrix(1,0,0,1,0,0)"
font-family="Helvetica" font-size="12" font-weight="400" font-style="normal" 
>
<path vector-effect="non-scaling-stroke" fill-rule="evenodd" d="M449,171 L511,171 L511,209 L449,209 L449,171"/>
<path vector-effect="non-scaling-stroke" fill-rule="evenodd" d="M511,171 L575,171 L575,209 L511,209 L511,171"/>
<path vector-effect="non-scaling-stroke" fill-rule="evenodd" d="M449,247 L511,247 L511,285 L449,285 L449,247"/>
<path vector-effect="non-scaling-stroke" fill-rule="evenodd" d="M511,247 L575,247 L575,285 L511,285 L511,247"/>
<path vector-effect="non-scaling-stroke" fill-rule="evenodd" d="M449,323 L511,323 L511,362 L449,362 L449,323"/>
<path vector-effect="non-scaling-stroke" fill-rule="evenodd" d="M511,323 L575,323 L575,362 L511,362 L511,323"/>
</g>

<g fill="#a8a8a8" fill-opacity="1" stroke="none" transform="matrix(1,0,0,1,0,0)"
font-family="Helvetica" font-size="12" font-weight="400" font-style="normal" 
>
<path vector-effect="non-scaling-stroke" fill-rule="evenodd" d="M449,8 L575,8 L575,10 L449,10 L449,8"/>
<path vector-effect="non-scaling-stroke" fill-rule="evenodd" d="M449,131 L511,131 L511,133 L449,133 L449,131"/>
<path vector-effect="non-scaling-stroke" fill-rule="evenodd" d="M511,131 L575,131 L575,133 L511,133 L511,131"/>
<path vector-effect="non-scaling-stroke" fill-rule="evenodd" d="M449,131 L511,131 L511,133 L449,133 L449,131"/>
<path vector-effect="non-scaling-stroke" fill-rule="evenodd" d="M511,131 L575,131 L575,133 L511,133 L511,131"/>
<path vector-effect="non-scaling-stroke" fill-rule="evenodd" d="M449,361 L511,361 L511,363 L449,363 L449,361"/>
<path vector-effect="non-scaling-stroke" fill-rule="evenodd" d="M511,361 L575,361 L575,363 L511,363 L511,361"/>
<path vector-effect="non-scaling-stroke" fill-rule="evenodd" d="M449,91 L575,91 L575,93 L449,93 L449,91"/>
<path vector-effect="non-scaling-stroke" fill-rule="evenodd" d="M449,91 L511,91 L511,93 L449,93 L449,91"/>
<path vector-effect="non-scaling-stroke" fill-rule="evenodd" d="M511,91 L575,91 L575,93 L511,93 L511,91"/>
</g>

<g fill="url(#gradient1)" stroke="none" transform="matrix(0.0883978,0,0,0.0891266,480,14)"
font-family="Helvetica" font-size="12" font-weight="400" font-style="normal" 
>
<path vector-effect="non-scaling-stroke" fill-rule="evenodd" d="M361.453,485.937 C162.329,485.937 0.906,377.828 0.906,244.469 C0.906,111.109 162.329,3 361.453,3 C560.578,3 722,111.109 722,244.469 C722,377.828 560.578,485.937 361.453,485.937 M416.641,97.406 C265.289,97.406 142.594,171.314 142.594,262.484 C142.594,353.654 265.289,427.562 416.641,427.562 C567.992,427.562 679.687,377.033 679.687,262.484 C679.687,147.971 567.992,97.406 416.641,97.406 "/>
</g>

<g fill="url(#gradient2)" stroke="none" transform="matrix(0.0883978,0,0,0.0891266,480,14)"
font-family="Helvetica" font-size="12" font-weight="400" font-style="normal" 
>
<path vector-effect="non-scaling-stroke" fill-rule="evenodd" d="M550,377 C550,377 571.822,383.585 584.5,390 C588.899,392.226 596.51,396.668 602,402.5 C607.378,408.212 610,414 610,414 L696,559 L557,559.062 L492,437 C492,437 478.69,414.131 470.5,407.5 C463.668,401.969 460.755,400 454,400 C449.298,400 420.974,400 420.974,400 L421,558.974 L298,559.026 L298,152.938 L545,152.938 C545,152.938 657.5,154.967 657.5,262 C657.5,369.033 550,377 550,377 M496.5,241.024 L422.037,240.976 L422,310.026 L496.5,310.002 C496.5,310.002 531,309.895 531,274.877 C531,239.155 496.5,241.024 496.5,241.024 "/>
</g>

<g fill="url(#gradient3)" stroke="none" transform="matrix(0.0207182,0,0,0.0213904,467,72)"
font-family="Helvetica" font-size="12" font-weight="400" font-style="normal" 
>
<path vector-effect="non-scaling-stroke" fill-rule="evenodd" d="M361.453,485.937 C162.329,485.937 0.906,377.828 0.906,244.469 C0.906,111.109 162.329,3 361.453,3 C560.578,3 722,111.109 722,244.469 C722,377.828 560.578,485.937 361.453,485.937 M416.641,97.406 C265.289,97.406 142.594,171.314 142.594,262.484 C142.594,353.654 265.289,427.562 416.641,427.562 C567.992,427.562 679.687,377.033 679.687,262.484 C679.687,147.971 567.992,97.406 416.641,97.406 "/>
</g>

<g fill="url(#gradient4)" stroke="none" transform="matrix(0.0207182,0,0,0.0213904,467,72)"
font-family="Helvetica" font-size="12" font-weight="400" font-style="normal" 
>
<path vector-effect="non-scaling-stroke" fill-rule="evenodd" d="M550,377 C550,377 571.822,383.585 584.5,390 C588.899,392.226 596.51,396.668 602,402.5 C607.378,408.212 610,414 610,414 L696,559 L557,559.062 L492,437 C492,437 478.69,414.131 470.5,407.5 C463.668,401.969 460.755,400 454,400 C449.298,400 420.974,400 420.974,400 L421,558.974 L298,559.026 L298,152.938 L545,152.938 C545,152.938 657.5,154.967 657.5,262 C657.5,369.033 550,377 550,377 M496.5,241.024 L422.037,240.976 L422,310.026 L496.5,310.002 C496.5,310.002 531,309.895 531,274.877 C531,239.155 496.5,241.024 496.5,241.024 "/>
</g>

<g fill="#000000" fill-opacity="1" stroke="#000000" stroke-opacity="1" stroke-width="1" stroke-linecap="square" stroke-linejoin="bevel" transform="matrix(1,0,0,1,0,0)"
font-family="Arial" font-size="14" font-weight="400" font-style="normal" 
>
<text fill="#000000" fill-opacity="1" stroke="none" xml:space="preserve" x="481.5" y="84" font-family="Arial" font-size="14" font-weight="400" font-style="normal" 
 > </text>
</g>

<g fill="url(#gradient5)" stroke="none" transform="matrix(0.0207182,0,0,0.0213904,486,72)"
font-family="Arial" font-size="14" font-weight="400" font-style="normal" 
>
<path vector-effect="non-scaling-stroke" fill-rule="evenodd" d="M361.453,485.937 C162.329,485.937 0.906,377.828 0.906,244.469 C0.906,111.109 162.329,3 361.453,3 C560.578,3 722,111.109 722,244.469 C722,377.828 560.578,485.937 361.453,485.937 M416.641,97.406 C265.289,97.406 142.594,171.314 142.594,262.484 C142.594,353.654 265.289,427.562 416.641,427.562 C567.992,427.562 679.687,377.033 679.687,262.484 C679.687,147.971 567.992,97.406 416.641,97.406 "/>
</g>

<g fill="url(#gradient6)" stroke="none" transform="matrix(0.0207182,0,0,0.0213904,486,72)"
font-family="Arial" font-size="14" font-weight="400" font-style="normal" 
>
<path vector-effect="non-scaling-stroke" fill-rule="evenodd" d="M550,377 C550,377 571.822,383.585 584.5,390 C588.899,392.226 596.51,396.668 602,402.5 C607.378,408.212 610,414 610,414 L696,559 L557,559.062 L492,437 C492,437 478.69,414.131 470.5,407.5 C463.668,401.969 460.755,400 454,400 C449.298,400 420.974,400 420.974,400 L421,558.974 L298,559.026 L298,152.938 L545,152.938 C545,152.938 657.5,154.967 657.5,262 C657.5,369.033 550,377 550,377 M496.5,241.024 L422.037,240.976 L422,310.026 L496.5,310.002 C496.5,310.002 531,309.895 531,274.877 C531,239.155 496.5,241.024 496.5,241.024 "/>
</g>

<g fill="#000000" fill-opacity="1" stroke="#000000" stroke-opacity="1" stroke-width="1" stroke-linecap="square" stroke-linejoin="bevel" transform="matrix(1,0,0,1,0,0)"
font-family="Arial" font-size="14" font-weight="400" font-style="normal" 
>
<text fill="#000000" fill-opacity="1" stroke="none" xml:space="preserve" x="500.5" y="84" font-family="Arial" font-size="14" font-weight="400" font-style="normal" 
 > </text>
</g>

<g fill="url(#gradient7)" stroke="none" transform="matrix(0.0207182,0,0,0.0213904,505,72)"
font-family="Arial" font-size="14" font-weight="400" font-style="normal" 
>
<path vector-effect="non-scaling-stroke" fill-rule="evenodd" d="M361.453,485.937 C162.329,485.937 0.906,377.828 0.906,244.469 C0.906,111.109 162.329,3 361.453,3 C560.578,3 722,111.109 722,244.469 C722,377.828 560.578,485.937 361.453,485.937 M416.641,97.406 C265.289,97.406 142.594,171.314 142.594,262.484 C142.594,353.654 265.289,427.562 416.641,427.562 C567.992,427.562 679.687,377.033 679.687,262.484 C679.687,147.971 567.992,97.406 416.641,97.406 "/>
</g>

<g fill="url(#gradient8)" stroke="none" transform="matrix(0.0207182,0,0,0.0213904,505,72)"
font-family="Arial" font-size="14" font-weight="400" font-style="normal" 
>
<path vector-effect="non-scaling-stroke" fill-rule="evenodd" d="M550,377 C550,377 571.822,383.585 584.5,390 C588.899,392.226 596.51,396.668 602,402.5 C607.378,408.212 610,414 610,414 L696,559 L557,559.062 L492,437 C492,437 478.69,414.131 470.5,407.5 C463.668,401.969 460.755,400 454,400 C449.298,400 420.974,400 420.974,400 L421,558.974 L298,559.026 L298,152.938 L545,152.938 C545,152.938 657.5,154.967 657.5,262 C657.5,369.033 550,377 550,377 M496.5,241.024 L422.037,240.976 L422,310.026 L496.5,310.002 C496.5,310.002 531,309.895 531,274.877 C531,239.155 496.5,241.024 496.5,241.024 "/>
</g>

<g fill="#000000" fill-opacity="1" stroke="#000000" stroke-opacity="1" stroke-width="1" stroke-linecap="square" stroke-linejoin="bevel" transform="matrix(1,0,0,1,0,0)"
font-family="Arial" font-size="14" font-weight="400" font-style="normal" 
>
<text fill="#000000" fill-opacity="1" stroke="none" xml:space="preserve" x="519.5" y="84" font-family="Arial" font-size="14" font-weight="400" font-style="normal" 
 > </text>
</g>

<g fill="url(#gradient9)" stroke="none" transform="matrix(0.0207182,0,0,0.0213904,524,72)"
font-family="Arial" font-size="14" font-weight="400" font-style="normal" 
>
<path vector-effect="non-scaling-stroke" fill-rule="evenodd" d="M361.453,485.937 C162.329,485.937 0.906,377.828 0.906,244.469 C0.906,111.109 162.329,3 361.453,3 C560.578,3 722,111.109 722,244.469 C722,377.828 560.578,485.937 361.453,485.937 M416.641,97.406 C265.289,97.406 142.594,171.314 142.594,262.484 C142.594,353.654 265.289,427.562 416.641,427.562 C567.992,427.562 679.687,377.033 679.687,262.484 C679.687,147.971 567.992,97.406 416.641,97.406 "/>
</g>

<g fill="url(#gradient10)" stroke="none" transform="matrix(0.0207182,0,0,0.0213904,524,72)"
font-family="Arial" font-size="14" font-weight="400" font-style="normal" 
>
<path vector-effect="non-scaling-stroke" fill-rule="evenodd" d="M550,377 C550,377 571.822,383.585 584.5,390 C588.899,392.226 596.51,396.668 602,402.5 C607.378,408.212 610,414 610,414 L696,559 L557,559.062 L492,437 C492,437 478.69,414.131 470.5,407.5 C463.668,401.969 460.755,400 454,400 C449.298,400 420.974,400 420.974,400 L421,558.974 L298,559.026 L298,152.938 L545,152.938 C545,152.938 657.5,154.967 657.5,262 C657.5,369.033 550,377 550,377 M496.5,241.024 L422.037,240.976 L422,310.026 L496.5,310.002 C496.5,310.002 531,309.895 531,274.877 C531,239.155 496.5,241.024 496.5,241.024 "/>
</g>

<g fill="#000000" fill-opacity="1" stroke="#000000" stroke-opacity="1" stroke-width="1" stroke-linecap="square" stroke-linejoin="bevel" transform="matrix(1,0,0,1,0,0)"
font-family="Arial" font-size="14" font-weight="400" font-style="normal" 
>
<text fill="#000000" fill-opacity="1" stroke="none" xml:space="preserve" x="538.5" y="84" font-family="Arial" font-size="14" font-weight="400" font-style="normal" 
 > </text>
</g>

<g fill="url(#gradient11)" stroke="none" transform="matrix(0.0207182,0,0,0.0213904,543,72)"
font-family="Arial" font-size="14" font-weight="400" font-style="normal" 
>
<path vector-effect="non-scaling-stroke" fill-rule="evenodd" d="M361.453,485.937 C162.329,485.937 0.906,377.828 0.906,244.469 C0.906,111.109 162.329,3 361.453,3 C560.578,3 722,111.109 722,244.469 C722,377.828 560.578,485.937 361.453,485.937 M416.641,97.406 C265.289,97.406 142.594,171.314 142.594,262.484 C142.594,353.654 265.289,427.562 416.641,427.562 C567.992,427.562 679.687,377.033 679.687,262.484 C679.687,147.971 567.992,97.406 416.641,97.406 "/>
</g>

<g fill="url(#gradient12)" stroke="none" transform="matrix(0.0207182,0,0,0.0213904,543,72)"
font-family="Arial" font-size="14" font-weight="400" font-style="normal" 
>
<path vector-effect="non-scaling-stroke" fill-rule="evenodd" d="M550,377 C550,377 571.822,383.585 584.5,390 C588.899,392.226 596.51,396.668 602,402.5 C607.378,408.212 610,414 610,414 L696,559 L557,559.062 L492,437 C492,437 478.69,414.131 470.5,407.5 C463.668,401.969 460.755,400 454,400 C449.298,400 420.974,400 420.974,400 L421,558.974 L298,559.026 L298,152.938 L545,152.938 C545,152.938 657.5,154.967 657.5,262 C657.5,369.033 550,377 550,377 M496.5,241.024 L422.037,240.976 L422,310.026 L496.5,310.002 C496.5,310.002 531,309.895 531,274.877 C531,239.155 496.5,241.024 496.5,241.024 "/>
</g>

<g fill="#000000" fill-opacity="1" stroke="#000000" stroke-opacity="1" stroke-width="1" stroke-linecap="square" stroke-linejoin="bevel" transform="matrix(1,0,0,1,0,0)"
font-family="Arial" font-size="16" font-weight="400" font-style="normal" 
>
<text fill="#000000" fill-opacity="1" stroke="none" xml:space="preserve" x="459" y="117" font-family="Arial" font-size="16" font-weight="400" font-style="normal" 
 >pixels</text>
<text fill="#000000" fill-opacity="1" stroke="none" xml:space="preserve" x="521" y="117" font-family="Arial" font-size="16" font-weight="400" font-style="normal" 
 >image</text>
<text fill="#000000" fill-opacity="1" stroke="none" xml:space="preserve" x="459" y="157" font-family="Arial" font-size="16" font-weight="400" font-style="normal" 
 >10px</text>
<text fill="#000000" fill-opacity="1" stroke="none" xml:space="preserve" x="547" y="157" font-family="Arial" font-size="16" font-weight="400" font-style="normal" 
 >10</text>
<text fill="#000000" fill-opacity="1" stroke="none" xml:space="preserve" x="459" y="195" font-family="Arial" font-size="16" font-weight="400" font-style="normal" 
 >15px</text>
<text fill="#000000" fill-opacity="1" stroke="none" xml:space="preserve" x="547" y="195" font-family="Arial" font-size="16" font-weight="400" font-style="normal" 
 >15</text>
<text fill="#000000" fill-opacity="1" stroke="none" xml:space="preserve" x="459" y="233" font-family="Arial" font-size="16" font-weight="400" font-style="normal" 
 >20px</text>
<text fill="#000000" fill-opacity="1" stroke="none" xml:space="preserve" x="547" y="233" font-family="Arial" font-size="16" font-weight="400" font-style="normal" 
 >20</text>
<text fill="#000000" fill-opacity="1" stroke="none" xml:space="preserve" x="459" y="271" font-family="Arial" font-size="16" font-weight="400" font-style="normal" 
 >25px</text>
<text fill="#000000" fill-opacity="1" stroke="none" xml:space="preserve" x="547" y="271" font-family="Arial" font-size="16" font-weight="400" font-style="normal" 
 >25</text>
<text fill="#000000" fill-opacity="1" stroke="none" xml:space="preserve" x="459" y="309" font-family="Arial" font-size="16" font-weight="400" font-style="normal" 
 >30px</text>
<text fill="#000000" fill-opacity="1" stroke="none" xml:space="preserve" x="547" y="309" font-family="Arial" font-size="16" font-weight="400" font-style="normal" 
 >30</text>
<text fill="#000000" fill-opacity="1" stroke="none" xml:space="preserve" x="459" y="347" font-family="Arial" font-size="16" font-weight="400" font-style="normal" 
 >35px</text>
<text fill="#000000" fill-opacity="1" stroke="none" xml:space="preserve" x="547" y="347" font-family="Arial" font-size="16" font-weight="400" font-style="normal" 
 >35</text>
</g>
</g>
</svg>
