<?xml version="1.0" encoding="UTF-8" standalone="no"?>
<svg width="361.244mm" height="106.892mm"
 viewBox="0 0 1024 303"
 xmlns="http://www.w3.org/2000/svg" xmlns:xlink="http://www.w3.org/1999/xlink"  version="1.2" baseProfile="tiny">
<title>Qt Svg Document</title>
<desc>Generated with Qt</desc>
<defs>
</defs>
<g fill="none" stroke="black" stroke-width="1" fill-rule="evenodd" stroke-linecap="square" stroke-linejoin="bevel" >

<g fill="#ffffff" fill-opacity="1" stroke="none" transform="matrix(1,0,0,1,0,0)"
font-family="Helvetica" font-size="12" font-weight="400" font-style="normal" 
>
<path vector-effect="non-scaling-stroke" fill-rule="evenodd" d="M0,0 L1024,0 L1024,303 L0,303 L0,0"/>
<path vector-effect="non-scaling-stroke" fill-rule="evenodd" d="M0,0 L1024,0 L1024,303 L0,303 L0,0"/>
<path vector-effect="non-scaling-stroke" fill-rule="evenodd" d="M0,0 L1024,0 L1024,303 L0,303 L0,0"/>
<path vector-effect="non-scaling-stroke" fill-rule="evenodd" d="M384,8 L639,8 L639,295 L384,295 L384,8"/>
<path vector-effect="non-scaling-stroke" fill-rule="evenodd" d="M384,9 L639,9 L639,38 L384,38 L384,9"/>
<path vector-effect="non-scaling-stroke" fill-rule="evenodd" d="M384,38 L639,38 L639,62 L384,62 L384,38"/>
<path vector-effect="non-scaling-stroke" fill-rule="evenodd" d="M384,62 L451,62 L451,102 L384,102 L384,62"/>
<path vector-effect="non-scaling-stroke" fill-rule="evenodd" d="M451,62 L565,62 L565,102 L451,102 L451,62"/>
<path vector-effect="non-scaling-stroke" fill-rule="evenodd" d="M565,62 L639,62 L639,102 L565,102 L565,62"/>
</g>

<g fill="#f2f2f2" fill-opacity="1" stroke="none" transform="matrix(1,0,0,1,0,0)"
font-family="Helvetica" font-size="12" font-weight="400" font-style="normal" 
>
<path vector-effect="non-scaling-stroke" fill-rule="evenodd" d="M384,141 L451,141 L451,179 L384,179 L384,141"/>
<path vector-effect="non-scaling-stroke" fill-rule="evenodd" d="M451,141 L565,141 L565,179 L451,179 L451,141"/>
<path vector-effect="non-scaling-stroke" fill-rule="evenodd" d="M565,141 L639,141 L639,179 L565,179 L565,141"/>
<path vector-effect="non-scaling-stroke" fill-rule="evenodd" d="M384,217 L451,217 L451,255 L384,255 L384,217"/>
<path vector-effect="non-scaling-stroke" fill-rule="evenodd" d="M451,217 L565,217 L565,255 L451,255 L451,217"/>
<path vector-effect="non-scaling-stroke" fill-rule="evenodd" d="M565,217 L639,217 L639,255 L565,255 L565,217"/>
</g>

<g fill="#a8a8a8" fill-opacity="1" stroke="none" transform="matrix(1,0,0,1,0,0)"
font-family="Helvetica" font-size="12" font-weight="400" font-style="normal" 
>
<path vector-effect="non-scaling-stroke" fill-rule="evenodd" d="M384,8 L639,8 L639,10 L384,10 L384,8"/>
<path vector-effect="non-scaling-stroke" fill-rule="evenodd" d="M384,101 L451,101 L451,103 L384,103 L384,101"/>
<path vector-effect="non-scaling-stroke" fill-rule="evenodd" d="M451,101 L565,101 L565,103 L451,103 L451,101"/>
<path vector-effect="non-scaling-stroke" fill-rule="evenodd" d="M565,101 L639,101 L639,103 L565,103 L565,101"/>
<path vector-effect="non-scaling-stroke" fill-rule="evenodd" d="M384,101 L451,101 L451,103 L384,103 L384,101"/>
<path vector-effect="non-scaling-stroke" fill-rule="evenodd" d="M451,101 L565,101 L565,103 L451,103 L451,101"/>
<path vector-effect="non-scaling-stroke" fill-rule="evenodd" d="M565,101 L639,101 L639,103 L565,103 L565,101"/>
<path vector-effect="non-scaling-stroke" fill-rule="evenodd" d="M384,293 L451,293 L451,295 L384,295 L384,293"/>
<path vector-effect="non-scaling-stroke" fill-rule="evenodd" d="M451,293 L565,293 L565,295 L451,295 L451,293"/>
<path vector-effect="non-scaling-stroke" fill-rule="evenodd" d="M565,293 L639,293 L639,295 L565,295 L565,293"/>
<path vector-effect="non-scaling-stroke" fill-rule="evenodd" d="M384,61 L639,61 L639,63 L384,63 L384,61"/>
<path vector-effect="non-scaling-stroke" fill-rule="evenodd" d="M384,61 L451,61 L451,63 L384,63 L384,61"/>
<path vector-effect="non-scaling-stroke" fill-rule="evenodd" d="M451,61 L565,61 L565,63 L451,63 L451,61"/>
<path vector-effect="non-scaling-stroke" fill-rule="evenodd" d="M565,61 L639,61 L639,63 L565,63 L565,61"/>
</g>

<g fill="#000000" fill-opacity="1" stroke="#000000" stroke-opacity="1" stroke-width="1" stroke-linecap="square" stroke-linejoin="bevel" transform="matrix(1,0,0,1,0,0)"
font-family="Arial" font-size="20" font-weight="400" font-style="normal" 
>
<text fill="#000000" fill-opacity="1" stroke="none" xml:space="preserve" x="406" y="32" font-family="Arial" font-size="20" font-weight="400" font-style="normal" 
 >Data listing from </text>
</g>

<g fill="#000000" fill-opacity="1" stroke="#000000" stroke-opacity="1" stroke-width="1" stroke-linecap="square" stroke-linejoin="bevel" transform="matrix(1,0,0,1,0,0)"
font-family="Arial" font-size="20" font-weight="700" font-style="normal" 
>
<text fill="#000000" fill-opacity="1" stroke="none" xml:space="preserve" x="557" y="32" font-family="Arial" font-size="20" font-weight="700" font-style="normal" 
 >gtcars</text>
</g>

<g fill="#000000" fill-opacity="1" stroke="#000000" stroke-opacity="1" stroke-width="1" stroke-linecap="square" stroke-linejoin="bevel" transform="matrix(1,0,0,1,0,0)"
font-family="Courier New" font-size="14" font-weight="400" font-style="normal" 
>
<text fill="#000000" fill-opacity="1" stroke="none" xml:space="preserve" x="438" y="52" font-family="Courier New" font-size="14" font-weight="400" font-style="normal" 
 >gtcars</text>
</g>

<g fill="#000000" fill-opacity="1" stroke="#000000" stroke-opacity="1" stroke-width="1" stroke-linecap="square" stroke-linejoin="bevel" transform="matrix(1,0,0,1,0,0)"
font-family="Arial" font-size="14" font-weight="400" font-style="normal" 
>
<text fill="#000000" fill-opacity="1" stroke="none" xml:space="preserve" x="486" y="52" font-family="Arial" font-size="14" font-weight="400" font-style="normal" 
 > is an R dataset</text>
</g>

<g fill="#000000" fill-opacity="1" stroke="#000000" stroke-opacity="1" stroke-width="1" stroke-linecap="square" stroke-linejoin="bevel" transform="matrix(1,0,0,1,0,0)"
font-family="Arial" font-size="16" font-weight="400" font-style="normal" 
>
<text fill="#000000" fill-opacity="1" stroke="none" xml:space="preserve" x="394" y="87" font-family="Arial" font-size="16" font-weight="400" font-style="normal" 
 >mfr</text>
<text fill="#000000" fill-opacity="1" stroke="none" xml:space="preserve" x="461" y="87" font-family="Arial" font-size="16" font-weight="400" font-style="normal" 
 >model</text>
<text fill="#000000" fill-opacity="1" stroke="none" xml:space="preserve" x="594" y="87" font-family="Arial" font-size="16" font-weight="400" font-style="normal" 
 >msrp</text>
<text fill="#000000" fill-opacity="1" stroke="none" xml:space="preserve" x="394" y="127" font-family="Arial" font-size="16" font-weight="400" font-style="normal" 
 >Ford</text>
<text fill="#000000" fill-opacity="1" stroke="none" xml:space="preserve" x="461" y="127" font-family="Arial" font-size="16" font-weight="400" font-style="normal" 
 >GT</text>
<text fill="#000000" fill-opacity="1" stroke="none" xml:space="preserve" x="575" y="127" font-family="Arial" font-size="16" font-weight="400" font-style="normal" 
 >447000</text>
<text fill="#000000" fill-opacity="1" stroke="none" xml:space="preserve" x="394" y="165" font-family="Arial" font-size="16" font-weight="400" font-style="normal" 
 >Ferrari</text>
<text fill="#000000" fill-opacity="1" stroke="none" xml:space="preserve" x="461" y="165" font-family="Arial" font-size="16" font-weight="400" font-style="normal" 
 >458 Speciale</text>
<text fill="#000000" fill-opacity="1" stroke="none" xml:space="preserve" x="575" y="165" font-family="Arial" font-size="16" font-weight="400" font-style="normal" 
 >291744</text>
<text fill="#000000" fill-opacity="1" stroke="none" xml:space="preserve" x="394" y="203" font-family="Arial" font-size="16" font-weight="400" font-style="normal" 
 >Ferrari</text>
<text fill="#000000" fill-opacity="1" stroke="none" xml:space="preserve" x="461" y="203" font-family="Arial" font-size="16" font-weight="400" font-style="normal" 
 >458 Spider</text>
<text fill="#000000" fill-opacity="1" stroke="none" xml:space="preserve" x="575" y="203" font-family="Arial" font-size="16" font-weight="400" font-style="normal" 
 >263553</text>
<text fill="#000000" fill-opacity="1" stroke="none" xml:space="preserve" x="394" y="241" font-family="Arial" font-size="16" font-weight="400" font-style="normal" 
 >Ferrari</text>
<text fill="#000000" fill-opacity="1" stroke="none" xml:space="preserve" x="461" y="241" font-family="Arial" font-size="16" font-weight="400" font-style="normal" 
 >458 Italia</text>
<text fill="#000000" fill-opacity="1" stroke="none" xml:space="preserve" x="575" y="241" font-family="Arial" font-size="16" font-weight="400" font-style="normal" 
 >233509</text>
<text fill="#000000" fill-opacity="1" stroke="none" xml:space="preserve" x="394" y="279" font-family="Arial" font-size="16" font-weight="400" font-style="normal" 
 >Ferrari</text>
<text fill="#000000" fill-opacity="1" stroke="none" xml:space="preserve" x="461" y="279" font-family="Arial" font-size="16" font-weight="400" font-style="normal" 
 >488 GTB</text>
<text fill="#000000" fill-opacity="1" stroke="none" xml:space="preserve" x="575" y="279" font-family="Arial" font-size="16" font-weight="400" font-style="normal" 
 >245400</text>
</g>
</g>
</svg>
