<?xml version="1.0" encoding="UTF-8" standalone="no"?>
<svg width="361.244mm" height="168.628mm"
 viewBox="0 0 1024 478"
 xmlns="http://www.w3.org/2000/svg" xmlns:xlink="http://www.w3.org/1999/xlink"  version="1.2" baseProfile="tiny">
<title>Qt Svg Document</title>
<desc>Generated with Qt</desc>
<defs>
</defs>
<g fill="none" stroke="black" stroke-width="1" fill-rule="evenodd" stroke-linecap="square" stroke-linejoin="bevel" >

<g fill="#ffffff" fill-opacity="1" stroke="none" transform="matrix(1,0,0,1,0,0)"
font-family="Helvetica" font-size="12" font-weight="400" font-style="normal" 
>
<path vector-effect="non-scaling-stroke" fill-rule="evenodd" d="M0,0 L1024,0 L1024,478 L0,478 L0,0"/>
<path vector-effect="non-scaling-stroke" fill-rule="evenodd" d="M0,0 L1024,0 L1024,478 L0,478 L0,0"/>
<path vector-effect="non-scaling-stroke" fill-rule="evenodd" d="M0,0 L1024,0 L1024,478 L0,478 L0,0"/>
<path vector-effect="non-scaling-stroke" fill-rule="evenodd" d="M305,8 L719,8 L719,470 L305,470 L305,8"/>
<path vector-effect="non-scaling-stroke" fill-rule="evenodd" d="M305,9 L407,9 L407,49 L305,49 L305,9"/>
<path vector-effect="non-scaling-stroke" fill-rule="evenodd" d="M407,9 L485,9 L485,49 L407,49 L407,9"/>
<path vector-effect="non-scaling-stroke" fill-rule="evenodd" d="M485,9 L563,9 L563,49 L485,49 L485,9"/>
<path vector-effect="non-scaling-stroke" fill-rule="evenodd" d="M563,9 L641,9 L641,49 L563,49 L563,9"/>
<path vector-effect="non-scaling-stroke" fill-rule="evenodd" d="M641,9 L719,9 L719,49 L641,49 L641,9"/>
</g>

<g fill="#90ee90" fill-opacity="1" stroke="none" transform="matrix(1,0,0,1,0,0)"
font-family="Helvetica" font-size="12" font-weight="400" font-style="normal" 
>
<path vector-effect="non-scaling-stroke" fill-rule="evenodd" d="M305,49 L407,49 L407,88 L305,88 L305,49"/>
<path vector-effect="non-scaling-stroke" fill-rule="evenodd" d="M407,49 L485,49 L485,88 L407,88 L407,49"/>
<path vector-effect="non-scaling-stroke" fill-rule="evenodd" d="M485,49 L563,49 L563,88 L485,88 L485,49"/>
<path vector-effect="non-scaling-stroke" fill-rule="evenodd" d="M563,49 L641,49 L641,88 L563,88 L563,49"/>
<path vector-effect="non-scaling-stroke" fill-rule="evenodd" d="M641,49 L719,49 L719,88 L641,88 L641,49"/>
</g>

<g fill="#f2f2f2" fill-opacity="1" stroke="none" transform="matrix(1,0,0,1,0,0)"
font-family="Helvetica" font-size="12" font-weight="400" font-style="normal" 
>
<path vector-effect="non-scaling-stroke" fill-rule="evenodd" d="M305,88 L407,88 L407,126 L305,126 L305,88"/>
</g>

<g fill="#90ee90" fill-opacity="1" stroke="none" transform="matrix(1,0,0,1,0,0)"
font-family="Helvetica" font-size="12" font-weight="400" font-style="normal" 
>
<path vector-effect="non-scaling-stroke" fill-rule="evenodd" d="M305,88 L407,88 L407,126 L305,126 L305,88"/>
</g>

<g fill="#f2f2f2" fill-opacity="1" stroke="none" transform="matrix(1,0,0,1,0,0)"
font-family="Helvetica" font-size="12" font-weight="400" font-style="normal" 
>
<path vector-effect="non-scaling-stroke" fill-rule="evenodd" d="M407,88 L485,88 L485,126 L407,126 L407,88"/>
</g>

<g fill="#90ee90" fill-opacity="1" stroke="none" transform="matrix(1,0,0,1,0,0)"
font-family="Helvetica" font-size="12" font-weight="400" font-style="normal" 
>
<path vector-effect="non-scaling-stroke" fill-rule="evenodd" d="M407,88 L485,88 L485,126 L407,126 L407,88"/>
</g>

<g fill="#f2f2f2" fill-opacity="1" stroke="none" transform="matrix(1,0,0,1,0,0)"
font-family="Helvetica" font-size="12" font-weight="400" font-style="normal" 
>
<path vector-effect="non-scaling-stroke" fill-rule="evenodd" d="M485,88 L563,88 L563,126 L485,126 L485,88"/>
</g>

<g fill="#90ee90" fill-opacity="1" stroke="none" transform="matrix(1,0,0,1,0,0)"
font-family="Helvetica" font-size="12" font-weight="400" font-style="normal" 
>
<path vector-effect="non-scaling-stroke" fill-rule="evenodd" d="M485,88 L563,88 L563,126 L485,126 L485,88"/>
</g>

<g fill="#f2f2f2" fill-opacity="1" stroke="none" transform="matrix(1,0,0,1,0,0)"
font-family="Helvetica" font-size="12" font-weight="400" font-style="normal" 
>
<path vector-effect="non-scaling-stroke" fill-rule="evenodd" d="M563,88 L641,88 L641,126 L563,126 L563,88"/>
</g>

<g fill="#90ee90" fill-opacity="1" stroke="none" transform="matrix(1,0,0,1,0,0)"
font-family="Helvetica" font-size="12" font-weight="400" font-style="normal" 
>
<path vector-effect="non-scaling-stroke" fill-rule="evenodd" d="M563,88 L641,88 L641,126 L563,126 L563,88"/>
</g>

<g fill="#f2f2f2" fill-opacity="1" stroke="none" transform="matrix(1,0,0,1,0,0)"
font-family="Helvetica" font-size="12" font-weight="400" font-style="normal" 
>
<path vector-effect="non-scaling-stroke" fill-rule="evenodd" d="M641,88 L719,88 L719,126 L641,126 L641,88"/>
</g>

<g fill="#90ee90" fill-opacity="1" stroke="none" transform="matrix(1,0,0,1,0,0)"
font-family="Helvetica" font-size="12" font-weight="400" font-style="normal" 
>
<path vector-effect="non-scaling-stroke" fill-rule="evenodd" d="M641,88 L719,88 L719,126 L641,126 L641,88"/>
</g>

<g fill="#dc143c" fill-opacity="1" stroke="none" transform="matrix(1,0,0,1,0,0)"
font-family="Helvetica" font-size="12" font-weight="400" font-style="normal" 
>
<path vector-effect="non-scaling-stroke" fill-rule="evenodd" d="M305,126 L407,126 L407,164 L305,164 L305,126"/>
<path vector-effect="non-scaling-stroke" fill-rule="evenodd" d="M407,126 L485,126 L485,164 L407,164 L407,126"/>
<path vector-effect="non-scaling-stroke" fill-rule="evenodd" d="M485,126 L563,126 L563,164 L485,164 L485,126"/>
<path vector-effect="non-scaling-stroke" fill-rule="evenodd" d="M563,126 L641,126 L641,164 L563,164 L563,126"/>
<path vector-effect="non-scaling-stroke" fill-rule="evenodd" d="M641,126 L719,126 L719,164 L641,164 L641,126"/>
</g>

<g fill="#f2f2f2" fill-opacity="1" stroke="none" transform="matrix(1,0,0,1,0,0)"
font-family="Helvetica" font-size="12" font-weight="400" font-style="normal" 
>
<path vector-effect="non-scaling-stroke" fill-rule="evenodd" d="M305,164 L407,164 L407,202 L305,202 L305,164"/>
</g>

<g fill="#90ee90" fill-opacity="1" stroke="none" transform="matrix(1,0,0,1,0,0)"
font-family="Helvetica" font-size="12" font-weight="400" font-style="normal" 
>
<path vector-effect="non-scaling-stroke" fill-rule="evenodd" d="M305,164 L407,164 L407,202 L305,202 L305,164"/>
</g>

<g fill="#f2f2f2" fill-opacity="1" stroke="none" transform="matrix(1,0,0,1,0,0)"
font-family="Helvetica" font-size="12" font-weight="400" font-style="normal" 
>
<path vector-effect="non-scaling-stroke" fill-rule="evenodd" d="M407,164 L485,164 L485,202 L407,202 L407,164"/>
</g>

<g fill="#90ee90" fill-opacity="1" stroke="none" transform="matrix(1,0,0,1,0,0)"
font-family="Helvetica" font-size="12" font-weight="400" font-style="normal" 
>
<path vector-effect="non-scaling-stroke" fill-rule="evenodd" d="M407,164 L485,164 L485,202 L407,202 L407,164"/>
</g>

<g fill="#f2f2f2" fill-opacity="1" stroke="none" transform="matrix(1,0,0,1,0,0)"
font-family="Helvetica" font-size="12" font-weight="400" font-style="normal" 
>
<path vector-effect="non-scaling-stroke" fill-rule="evenodd" d="M485,164 L563,164 L563,202 L485,202 L485,164"/>
</g>

<g fill="#90ee90" fill-opacity="1" stroke="none" transform="matrix(1,0,0,1,0,0)"
font-family="Helvetica" font-size="12" font-weight="400" font-style="normal" 
>
<path vector-effect="non-scaling-stroke" fill-rule="evenodd" d="M485,164 L563,164 L563,202 L485,202 L485,164"/>
</g>

<g fill="#f2f2f2" fill-opacity="1" stroke="none" transform="matrix(1,0,0,1,0,0)"
font-family="Helvetica" font-size="12" font-weight="400" font-style="normal" 
>
<path vector-effect="non-scaling-stroke" fill-rule="evenodd" d="M563,164 L641,164 L641,202 L563,202 L563,164"/>
</g>

<g fill="#90ee90" fill-opacity="1" stroke="none" transform="matrix(1,0,0,1,0,0)"
font-family="Helvetica" font-size="12" font-weight="400" font-style="normal" 
>
<path vector-effect="non-scaling-stroke" fill-rule="evenodd" d="M563,164 L641,164 L641,202 L563,202 L563,164"/>
</g>

<g fill="#f2f2f2" fill-opacity="1" stroke="none" transform="matrix(1,0,0,1,0,0)"
font-family="Helvetica" font-size="12" font-weight="400" font-style="normal" 
>
<path vector-effect="non-scaling-stroke" fill-rule="evenodd" d="M641,164 L719,164 L719,202 L641,202 L641,164"/>
</g>

<g fill="#90ee90" fill-opacity="1" stroke="none" transform="matrix(1,0,0,1,0,0)"
font-family="Helvetica" font-size="12" font-weight="400" font-style="normal" 
>
<path vector-effect="non-scaling-stroke" fill-rule="evenodd" d="M641,164 L719,164 L719,202 L641,202 L641,164"/>
</g>

<g fill="#dc143c" fill-opacity="1" stroke="none" transform="matrix(1,0,0,1,0,0)"
font-family="Helvetica" font-size="12" font-weight="400" font-style="normal" 
>
<path vector-effect="non-scaling-stroke" fill-rule="evenodd" d="M305,202 L407,202 L407,240 L305,240 L305,202"/>
<path vector-effect="non-scaling-stroke" fill-rule="evenodd" d="M407,202 L485,202 L485,240 L407,240 L407,202"/>
<path vector-effect="non-scaling-stroke" fill-rule="evenodd" d="M485,202 L563,202 L563,240 L485,240 L485,202"/>
<path vector-effect="non-scaling-stroke" fill-rule="evenodd" d="M563,202 L641,202 L641,240 L563,240 L563,202"/>
<path vector-effect="non-scaling-stroke" fill-rule="evenodd" d="M641,202 L719,202 L719,240 L641,240 L641,202"/>
</g>

<g fill="#f2f2f2" fill-opacity="1" stroke="none" transform="matrix(1,0,0,1,0,0)"
font-family="Helvetica" font-size="12" font-weight="400" font-style="normal" 
>
<path vector-effect="non-scaling-stroke" fill-rule="evenodd" d="M305,240 L407,240 L407,278 L305,278 L305,240"/>
</g>

<g fill="#dc143c" fill-opacity="1" stroke="none" transform="matrix(1,0,0,1,0,0)"
font-family="Helvetica" font-size="12" font-weight="400" font-style="normal" 
>
<path vector-effect="non-scaling-stroke" fill-rule="evenodd" d="M305,240 L407,240 L407,278 L305,278 L305,240"/>
</g>

<g fill="#f2f2f2" fill-opacity="1" stroke="none" transform="matrix(1,0,0,1,0,0)"
font-family="Helvetica" font-size="12" font-weight="400" font-style="normal" 
>
<path vector-effect="non-scaling-stroke" fill-rule="evenodd" d="M407,240 L485,240 L485,278 L407,278 L407,240"/>
</g>

<g fill="#dc143c" fill-opacity="1" stroke="none" transform="matrix(1,0,0,1,0,0)"
font-family="Helvetica" font-size="12" font-weight="400" font-style="normal" 
>
<path vector-effect="non-scaling-stroke" fill-rule="evenodd" d="M407,240 L485,240 L485,278 L407,278 L407,240"/>
</g>

<g fill="#f2f2f2" fill-opacity="1" stroke="none" transform="matrix(1,0,0,1,0,0)"
font-family="Helvetica" font-size="12" font-weight="400" font-style="normal" 
>
<path vector-effect="non-scaling-stroke" fill-rule="evenodd" d="M485,240 L563,240 L563,278 L485,278 L485,240"/>
</g>

<g fill="#dc143c" fill-opacity="1" stroke="none" transform="matrix(1,0,0,1,0,0)"
font-family="Helvetica" font-size="12" font-weight="400" font-style="normal" 
>
<path vector-effect="non-scaling-stroke" fill-rule="evenodd" d="M485,240 L563,240 L563,278 L485,278 L485,240"/>
</g>

<g fill="#f2f2f2" fill-opacity="1" stroke="none" transform="matrix(1,0,0,1,0,0)"
font-family="Helvetica" font-size="12" font-weight="400" font-style="normal" 
>
<path vector-effect="non-scaling-stroke" fill-rule="evenodd" d="M563,240 L641,240 L641,278 L563,278 L563,240"/>
</g>

<g fill="#dc143c" fill-opacity="1" stroke="none" transform="matrix(1,0,0,1,0,0)"
font-family="Helvetica" font-size="12" font-weight="400" font-style="normal" 
>
<path vector-effect="non-scaling-stroke" fill-rule="evenodd" d="M563,240 L641,240 L641,278 L563,278 L563,240"/>
</g>

<g fill="#f2f2f2" fill-opacity="1" stroke="none" transform="matrix(1,0,0,1,0,0)"
font-family="Helvetica" font-size="12" font-weight="400" font-style="normal" 
>
<path vector-effect="non-scaling-stroke" fill-rule="evenodd" d="M641,240 L719,240 L719,278 L641,278 L641,240"/>
</g>

<g fill="#dc143c" fill-opacity="1" stroke="none" transform="matrix(1,0,0,1,0,0)"
font-family="Helvetica" font-size="12" font-weight="400" font-style="normal" 
>
<path vector-effect="non-scaling-stroke" fill-rule="evenodd" d="M641,240 L719,240 L719,278 L641,278 L641,240"/>
<path vector-effect="non-scaling-stroke" fill-rule="evenodd" d="M305,278 L407,278 L407,316 L305,316 L305,278"/>
<path vector-effect="non-scaling-stroke" fill-rule="evenodd" d="M407,278 L485,278 L485,316 L407,316 L407,278"/>
<path vector-effect="non-scaling-stroke" fill-rule="evenodd" d="M485,278 L563,278 L563,316 L485,316 L485,278"/>
<path vector-effect="non-scaling-stroke" fill-rule="evenodd" d="M563,278 L641,278 L641,316 L563,316 L563,278"/>
<path vector-effect="non-scaling-stroke" fill-rule="evenodd" d="M641,278 L719,278 L719,316 L641,316 L641,278"/>
</g>

<g fill="#f2f2f2" fill-opacity="1" stroke="none" transform="matrix(1,0,0,1,0,0)"
font-family="Helvetica" font-size="12" font-weight="400" font-style="normal" 
>
<path vector-effect="non-scaling-stroke" fill-rule="evenodd" d="M305,316 L407,316 L407,354 L305,354 L305,316"/>
</g>

<g fill="#90ee90" fill-opacity="1" stroke="none" transform="matrix(1,0,0,1,0,0)"
font-family="Helvetica" font-size="12" font-weight="400" font-style="normal" 
>
<path vector-effect="non-scaling-stroke" fill-rule="evenodd" d="M305,316 L407,316 L407,354 L305,354 L305,316"/>
</g>

<g fill="#f2f2f2" fill-opacity="1" stroke="none" transform="matrix(1,0,0,1,0,0)"
font-family="Helvetica" font-size="12" font-weight="400" font-style="normal" 
>
<path vector-effect="non-scaling-stroke" fill-rule="evenodd" d="M407,316 L485,316 L485,354 L407,354 L407,316"/>
</g>

<g fill="#90ee90" fill-opacity="1" stroke="none" transform="matrix(1,0,0,1,0,0)"
font-family="Helvetica" font-size="12" font-weight="400" font-style="normal" 
>
<path vector-effect="non-scaling-stroke" fill-rule="evenodd" d="M407,316 L485,316 L485,354 L407,354 L407,316"/>
</g>

<g fill="#f2f2f2" fill-opacity="1" stroke="none" transform="matrix(1,0,0,1,0,0)"
font-family="Helvetica" font-size="12" font-weight="400" font-style="normal" 
>
<path vector-effect="non-scaling-stroke" fill-rule="evenodd" d="M485,316 L563,316 L563,354 L485,354 L485,316"/>
</g>

<g fill="#90ee90" fill-opacity="1" stroke="none" transform="matrix(1,0,0,1,0,0)"
font-family="Helvetica" font-size="12" font-weight="400" font-style="normal" 
>
<path vector-effect="non-scaling-stroke" fill-rule="evenodd" d="M485,316 L563,316 L563,354 L485,354 L485,316"/>
</g>

<g fill="#f2f2f2" fill-opacity="1" stroke="none" transform="matrix(1,0,0,1,0,0)"
font-family="Helvetica" font-size="12" font-weight="400" font-style="normal" 
>
<path vector-effect="non-scaling-stroke" fill-rule="evenodd" d="M563,316 L641,316 L641,354 L563,354 L563,316"/>
</g>

<g fill="#90ee90" fill-opacity="1" stroke="none" transform="matrix(1,0,0,1,0,0)"
font-family="Helvetica" font-size="12" font-weight="400" font-style="normal" 
>
<path vector-effect="non-scaling-stroke" fill-rule="evenodd" d="M563,316 L641,316 L641,354 L563,354 L563,316"/>
</g>

<g fill="#f2f2f2" fill-opacity="1" stroke="none" transform="matrix(1,0,0,1,0,0)"
font-family="Helvetica" font-size="12" font-weight="400" font-style="normal" 
>
<path vector-effect="non-scaling-stroke" fill-rule="evenodd" d="M641,316 L719,316 L719,354 L641,354 L641,316"/>
</g>

<g fill="#90ee90" fill-opacity="1" stroke="none" transform="matrix(1,0,0,1,0,0)"
font-family="Helvetica" font-size="12" font-weight="400" font-style="normal" 
>
<path vector-effect="non-scaling-stroke" fill-rule="evenodd" d="M641,316 L719,316 L719,354 L641,354 L641,316"/>
</g>

<g fill="#dc143c" fill-opacity="1" stroke="none" transform="matrix(1,0,0,1,0,0)"
font-family="Helvetica" font-size="12" font-weight="400" font-style="normal" 
>
<path vector-effect="non-scaling-stroke" fill-rule="evenodd" d="M305,354 L407,354 L407,392 L305,392 L305,354"/>
<path vector-effect="non-scaling-stroke" fill-rule="evenodd" d="M407,354 L485,354 L485,392 L407,392 L407,354"/>
<path vector-effect="non-scaling-stroke" fill-rule="evenodd" d="M485,354 L563,354 L563,392 L485,392 L485,354"/>
<path vector-effect="non-scaling-stroke" fill-rule="evenodd" d="M563,354 L641,354 L641,392 L563,392 L563,354"/>
<path vector-effect="non-scaling-stroke" fill-rule="evenodd" d="M641,354 L719,354 L719,392 L641,392 L641,354"/>
</g>

<g fill="#f2f2f2" fill-opacity="1" stroke="none" transform="matrix(1,0,0,1,0,0)"
font-family="Helvetica" font-size="12" font-weight="400" font-style="normal" 
>
<path vector-effect="non-scaling-stroke" fill-rule="evenodd" d="M305,392 L407,392 L407,430 L305,430 L305,392"/>
</g>

<g fill="#dc143c" fill-opacity="1" stroke="none" transform="matrix(1,0,0,1,0,0)"
font-family="Helvetica" font-size="12" font-weight="400" font-style="normal" 
>
<path vector-effect="non-scaling-stroke" fill-rule="evenodd" d="M305,392 L407,392 L407,430 L305,430 L305,392"/>
</g>

<g fill="#f2f2f2" fill-opacity="1" stroke="none" transform="matrix(1,0,0,1,0,0)"
font-family="Helvetica" font-size="12" font-weight="400" font-style="normal" 
>
<path vector-effect="non-scaling-stroke" fill-rule="evenodd" d="M407,392 L485,392 L485,430 L407,430 L407,392"/>
</g>

<g fill="#dc143c" fill-opacity="1" stroke="none" transform="matrix(1,0,0,1,0,0)"
font-family="Helvetica" font-size="12" font-weight="400" font-style="normal" 
>
<path vector-effect="non-scaling-stroke" fill-rule="evenodd" d="M407,392 L485,392 L485,430 L407,430 L407,392"/>
</g>

<g fill="#f2f2f2" fill-opacity="1" stroke="none" transform="matrix(1,0,0,1,0,0)"
font-family="Helvetica" font-size="12" font-weight="400" font-style="normal" 
>
<path vector-effect="non-scaling-stroke" fill-rule="evenodd" d="M485,392 L563,392 L563,430 L485,430 L485,392"/>
</g>

<g fill="#dc143c" fill-opacity="1" stroke="none" transform="matrix(1,0,0,1,0,0)"
font-family="Helvetica" font-size="12" font-weight="400" font-style="normal" 
>
<path vector-effect="non-scaling-stroke" fill-rule="evenodd" d="M485,392 L563,392 L563,430 L485,430 L485,392"/>
</g>

<g fill="#f2f2f2" fill-opacity="1" stroke="none" transform="matrix(1,0,0,1,0,0)"
font-family="Helvetica" font-size="12" font-weight="400" font-style="normal" 
>
<path vector-effect="non-scaling-stroke" fill-rule="evenodd" d="M563,392 L641,392 L641,430 L563,430 L563,392"/>
</g>

<g fill="#dc143c" fill-opacity="1" stroke="none" transform="matrix(1,0,0,1,0,0)"
font-family="Helvetica" font-size="12" font-weight="400" font-style="normal" 
>
<path vector-effect="non-scaling-stroke" fill-rule="evenodd" d="M563,392 L641,392 L641,430 L563,430 L563,392"/>
</g>

<g fill="#f2f2f2" fill-opacity="1" stroke="none" transform="matrix(1,0,0,1,0,0)"
font-family="Helvetica" font-size="12" font-weight="400" font-style="normal" 
>
<path vector-effect="non-scaling-stroke" fill-rule="evenodd" d="M641,392 L719,392 L719,430 L641,430 L641,392"/>
</g>

<g fill="#dc143c" fill-opacity="1" stroke="none" transform="matrix(1,0,0,1,0,0)"
font-family="Helvetica" font-size="12" font-weight="400" font-style="normal" 
>
<path vector-effect="non-scaling-stroke" fill-rule="evenodd" d="M641,392 L719,392 L719,430 L641,430 L641,392"/>
</g>

<g fill="#90ee90" fill-opacity="1" stroke="none" transform="matrix(1,0,0,1,0,0)"
font-family="Helvetica" font-size="12" font-weight="400" font-style="normal" 
>
<path vector-effect="non-scaling-stroke" fill-rule="evenodd" d="M305,430 L407,430 L407,469 L305,469 L305,430"/>
<path vector-effect="non-scaling-stroke" fill-rule="evenodd" d="M407,430 L485,430 L485,469 L407,469 L407,430"/>
<path vector-effect="non-scaling-stroke" fill-rule="evenodd" d="M485,430 L563,430 L563,469 L485,469 L485,430"/>
<path vector-effect="non-scaling-stroke" fill-rule="evenodd" d="M563,430 L641,430 L641,469 L563,469 L563,430"/>
<path vector-effect="non-scaling-stroke" fill-rule="evenodd" d="M641,430 L719,430 L719,469 L641,469 L641,430"/>
</g>

<g fill="#a8a8a8" fill-opacity="1" stroke="none" transform="matrix(1,0,0,1,0,0)"
font-family="Helvetica" font-size="12" font-weight="400" font-style="normal" 
>
<path vector-effect="non-scaling-stroke" fill-rule="evenodd" d="M305,8 L407,8 L407,10 L305,10 L305,8"/>
<path vector-effect="non-scaling-stroke" fill-rule="evenodd" d="M407,8 L485,8 L485,10 L407,10 L407,8"/>
<path vector-effect="non-scaling-stroke" fill-rule="evenodd" d="M485,8 L563,8 L563,10 L485,10 L485,8"/>
<path vector-effect="non-scaling-stroke" fill-rule="evenodd" d="M563,8 L641,8 L641,10 L563,10 L563,8"/>
<path vector-effect="non-scaling-stroke" fill-rule="evenodd" d="M641,8 L719,8 L719,10 L641,10 L641,8"/>
<path vector-effect="non-scaling-stroke" fill-rule="evenodd" d="M305,48 L407,48 L407,50 L305,50 L305,48"/>
<path vector-effect="non-scaling-stroke" fill-rule="evenodd" d="M407,48 L485,48 L485,50 L407,50 L407,48"/>
<path vector-effect="non-scaling-stroke" fill-rule="evenodd" d="M485,48 L563,48 L563,50 L485,50 L485,48"/>
<path vector-effect="non-scaling-stroke" fill-rule="evenodd" d="M563,48 L641,48 L641,50 L563,50 L563,48"/>
<path vector-effect="non-scaling-stroke" fill-rule="evenodd" d="M641,48 L719,48 L719,50 L641,50 L641,48"/>
<path vector-effect="non-scaling-stroke" fill-rule="evenodd" d="M305,48 L407,48 L407,50 L305,50 L305,48"/>
<path vector-effect="non-scaling-stroke" fill-rule="evenodd" d="M407,48 L485,48 L485,50 L407,50 L407,48"/>
<path vector-effect="non-scaling-stroke" fill-rule="evenodd" d="M485,48 L563,48 L563,50 L485,50 L485,48"/>
<path vector-effect="non-scaling-stroke" fill-rule="evenodd" d="M563,48 L641,48 L641,50 L563,50 L563,48"/>
<path vector-effect="non-scaling-stroke" fill-rule="evenodd" d="M641,48 L719,48 L719,50 L641,50 L641,48"/>
<path vector-effect="non-scaling-stroke" fill-rule="evenodd" d="M305,468 L407,468 L407,470 L305,470 L305,468"/>
<path vector-effect="non-scaling-stroke" fill-rule="evenodd" d="M407,468 L485,468 L485,470 L407,470 L407,468"/>
<path vector-effect="non-scaling-stroke" fill-rule="evenodd" d="M485,468 L563,468 L563,470 L485,470 L485,468"/>
<path vector-effect="non-scaling-stroke" fill-rule="evenodd" d="M563,468 L641,468 L641,470 L563,470 L563,468"/>
<path vector-effect="non-scaling-stroke" fill-rule="evenodd" d="M641,468 L719,468 L719,470 L641,470 L641,468"/>
</g>

<g fill="#000000" fill-opacity="1" stroke="#000000" stroke-opacity="1" stroke-width="1" stroke-linecap="square" stroke-linejoin="bevel" transform="matrix(1,0,0,1,0,0)"
font-family="Arial" font-size="16" font-weight="400" font-style="normal" 
>
<text fill="#000000" fill-opacity="1" stroke="none" xml:space="preserve" x="315" y="34" font-family="Arial" font-size="16" font-weight="400" font-style="normal" 
 >date</text>
<text fill="#000000" fill-opacity="1" stroke="none" xml:space="preserve" x="439" y="34" font-family="Arial" font-size="16" font-weight="400" font-style="normal" 
 >open</text>
<text fill="#000000" fill-opacity="1" stroke="none" xml:space="preserve" x="522" y="34" font-family="Arial" font-size="16" font-weight="400" font-style="normal" 
 >high</text>
<text fill="#000000" fill-opacity="1" stroke="none" xml:space="preserve" x="606" y="34" font-family="Arial" font-size="16" font-weight="400" font-style="normal" 
 >low</text>
<text fill="#000000" fill-opacity="1" stroke="none" xml:space="preserve" x="671" y="34" font-family="Arial" font-size="16" font-weight="400" font-style="normal" 
 >close</text>
<text fill="#000000" fill-opacity="1" stroke="none" xml:space="preserve" x="315" y="74" font-family="Arial" font-size="16" font-weight="400" font-style="normal" 
 >2015-12-15</text>
<text fill="#000000" fill-opacity="1" stroke="none" xml:space="preserve" x="417" y="74" font-family="Arial" font-size="16" font-weight="400" font-style="normal" 
 >2025.55</text>
<text fill="#000000" fill-opacity="1" stroke="none" xml:space="preserve" x="495" y="74" font-family="Arial" font-size="16" font-weight="400" font-style="normal" 
 >2053.87</text>
<text fill="#000000" fill-opacity="1" stroke="none" xml:space="preserve" x="573" y="74" font-family="Arial" font-size="16" font-weight="400" font-style="normal" 
 >2025.55</text>
<text fill="#000000" fill-opacity="1" stroke="none" xml:space="preserve" x="651" y="74" font-family="Arial" font-size="16" font-weight="400" font-style="normal" 
 >2043.41</text>
<text fill="#000000" fill-opacity="1" stroke="none" xml:space="preserve" x="315" y="112" font-family="Arial" font-size="16" font-weight="400" font-style="normal" 
 >2015-12-14</text>
<text fill="#000000" fill-opacity="1" stroke="none" xml:space="preserve" x="417" y="112" font-family="Arial" font-size="16" font-weight="400" font-style="normal" 
 >2013.37</text>
<text fill="#000000" fill-opacity="1" stroke="none" xml:space="preserve" x="495" y="112" font-family="Arial" font-size="16" font-weight="400" font-style="normal" 
 >2022.92</text>
<text fill="#000000" fill-opacity="1" stroke="none" xml:space="preserve" x="573" y="112" font-family="Arial" font-size="16" font-weight="400" font-style="normal" 
 >1993.26</text>
<text fill="#000000" fill-opacity="1" stroke="none" xml:space="preserve" x="651" y="112" font-family="Arial" font-size="16" font-weight="400" font-style="normal" 
 >2021.94</text>
</g>

<g fill="#ffffff" fill-opacity="1" stroke="#ffffff" stroke-opacity="1" stroke-width="1" stroke-linecap="square" stroke-linejoin="bevel" transform="matrix(1,0,0,1,0,0)"
font-family="Arial" font-size="16" font-weight="400" font-style="normal" 
>
<text fill="#ffffff" fill-opacity="1" stroke="none" xml:space="preserve" x="315" y="150" font-family="Arial" font-size="16" font-weight="400" font-style="normal" 
 >2015-12-11</text>
<text fill="#ffffff" fill-opacity="1" stroke="none" xml:space="preserve" x="417" y="150" font-family="Arial" font-size="16" font-weight="400" font-style="normal" 
 >2047.27</text>
<text fill="#ffffff" fill-opacity="1" stroke="none" xml:space="preserve" x="495" y="150" font-family="Arial" font-size="16" font-weight="400" font-style="normal" 
 >2047.27</text>
<text fill="#ffffff" fill-opacity="1" stroke="none" xml:space="preserve" x="573" y="150" font-family="Arial" font-size="16" font-weight="400" font-style="normal" 
 >2008.80</text>
<text fill="#ffffff" fill-opacity="1" stroke="none" xml:space="preserve" x="651" y="150" font-family="Arial" font-size="16" font-weight="400" font-style="normal" 
 >2012.37</text>
</g>

<g fill="#000000" fill-opacity="1" stroke="#000000" stroke-opacity="1" stroke-width="1" stroke-linecap="square" stroke-linejoin="bevel" transform="matrix(1,0,0,1,0,0)"
font-family="Arial" font-size="16" font-weight="400" font-style="normal" 
>
<text fill="#000000" fill-opacity="1" stroke="none" xml:space="preserve" x="315" y="188" font-family="Arial" font-size="16" font-weight="400" font-style="normal" 
 >2015-12-10</text>
<text fill="#000000" fill-opacity="1" stroke="none" xml:space="preserve" x="417" y="188" font-family="Arial" font-size="16" font-weight="400" font-style="normal" 
 >2047.93</text>
<text fill="#000000" fill-opacity="1" stroke="none" xml:space="preserve" x="495" y="188" font-family="Arial" font-size="16" font-weight="400" font-style="normal" 
 >2067.65</text>
<text fill="#000000" fill-opacity="1" stroke="none" xml:space="preserve" x="573" y="188" font-family="Arial" font-size="16" font-weight="400" font-style="normal" 
 >2045.67</text>
<text fill="#000000" fill-opacity="1" stroke="none" xml:space="preserve" x="651" y="188" font-family="Arial" font-size="16" font-weight="400" font-style="normal" 
 >2052.23</text>
</g>

<g fill="#ffffff" fill-opacity="1" stroke="#ffffff" stroke-opacity="1" stroke-width="1" stroke-linecap="square" stroke-linejoin="bevel" transform="matrix(1,0,0,1,0,0)"
font-family="Arial" font-size="16" font-weight="400" font-style="normal" 
>
<text fill="#ffffff" fill-opacity="1" stroke="none" xml:space="preserve" x="315" y="226" font-family="Arial" font-size="16" font-weight="400" font-style="normal" 
 >2015-12-09</text>
<text fill="#ffffff" fill-opacity="1" stroke="none" xml:space="preserve" x="417" y="226" font-family="Arial" font-size="16" font-weight="400" font-style="normal" 
 >2061.17</text>
<text fill="#ffffff" fill-opacity="1" stroke="none" xml:space="preserve" x="495" y="226" font-family="Arial" font-size="16" font-weight="400" font-style="normal" 
 >2080.33</text>
<text fill="#ffffff" fill-opacity="1" stroke="none" xml:space="preserve" x="573" y="226" font-family="Arial" font-size="16" font-weight="400" font-style="normal" 
 >2036.53</text>
<text fill="#ffffff" fill-opacity="1" stroke="none" xml:space="preserve" x="651" y="226" font-family="Arial" font-size="16" font-weight="400" font-style="normal" 
 >2047.62</text>
<text fill="#ffffff" fill-opacity="1" stroke="none" xml:space="preserve" x="315" y="264" font-family="Arial" font-size="16" font-weight="400" font-style="normal" 
 >2015-12-08</text>
<text fill="#ffffff" fill-opacity="1" stroke="none" xml:space="preserve" x="417" y="264" font-family="Arial" font-size="16" font-weight="400" font-style="normal" 
 >2073.39</text>
<text fill="#ffffff" fill-opacity="1" stroke="none" xml:space="preserve" x="495" y="264" font-family="Arial" font-size="16" font-weight="400" font-style="normal" 
 >2073.85</text>
<text fill="#ffffff" fill-opacity="1" stroke="none" xml:space="preserve" x="573" y="264" font-family="Arial" font-size="16" font-weight="400" font-style="normal" 
 >2052.32</text>
<text fill="#ffffff" fill-opacity="1" stroke="none" xml:space="preserve" x="651" y="264" font-family="Arial" font-size="16" font-weight="400" font-style="normal" 
 >2063.59</text>
<text fill="#ffffff" fill-opacity="1" stroke="none" xml:space="preserve" x="315" y="302" font-family="Arial" font-size="16" font-weight="400" font-style="normal" 
 >2015-12-07</text>
<text fill="#ffffff" fill-opacity="1" stroke="none" xml:space="preserve" x="417" y="302" font-family="Arial" font-size="16" font-weight="400" font-style="normal" 
 >2090.42</text>
<text fill="#ffffff" fill-opacity="1" stroke="none" xml:space="preserve" x="495" y="302" font-family="Arial" font-size="16" font-weight="400" font-style="normal" 
 >2090.42</text>
<text fill="#ffffff" fill-opacity="1" stroke="none" xml:space="preserve" x="573" y="302" font-family="Arial" font-size="16" font-weight="400" font-style="normal" 
 >2066.78</text>
<text fill="#ffffff" fill-opacity="1" stroke="none" xml:space="preserve" x="651" y="302" font-family="Arial" font-size="16" font-weight="400" font-style="normal" 
 >2077.07</text>
</g>

<g fill="#000000" fill-opacity="1" stroke="#000000" stroke-opacity="1" stroke-width="1" stroke-linecap="square" stroke-linejoin="bevel" transform="matrix(1,0,0,1,0,0)"
font-family="Arial" font-size="16" font-weight="400" font-style="normal" 
>
<text fill="#000000" fill-opacity="1" stroke="none" xml:space="preserve" x="315" y="340" font-family="Arial" font-size="16" font-weight="400" font-style="normal" 
 >2015-12-04</text>
<text fill="#000000" fill-opacity="1" stroke="none" xml:space="preserve" x="417" y="340" font-family="Arial" font-size="16" font-weight="400" font-style="normal" 
 >2051.24</text>
<text fill="#000000" fill-opacity="1" stroke="none" xml:space="preserve" x="495" y="340" font-family="Arial" font-size="16" font-weight="400" font-style="normal" 
 >2093.84</text>
<text fill="#000000" fill-opacity="1" stroke="none" xml:space="preserve" x="573" y="340" font-family="Arial" font-size="16" font-weight="400" font-style="normal" 
 >2051.24</text>
<text fill="#000000" fill-opacity="1" stroke="none" xml:space="preserve" x="651" y="340" font-family="Arial" font-size="16" font-weight="400" font-style="normal" 
 >2091.69</text>
</g>

<g fill="#ffffff" fill-opacity="1" stroke="#ffffff" stroke-opacity="1" stroke-width="1" stroke-linecap="square" stroke-linejoin="bevel" transform="matrix(1,0,0,1,0,0)"
font-family="Arial" font-size="16" font-weight="400" font-style="normal" 
>
<text fill="#ffffff" fill-opacity="1" stroke="none" xml:space="preserve" x="315" y="378" font-family="Arial" font-size="16" font-weight="400" font-style="normal" 
 >2015-12-03</text>
<text fill="#ffffff" fill-opacity="1" stroke="none" xml:space="preserve" x="417" y="378" font-family="Arial" font-size="16" font-weight="400" font-style="normal" 
 >2080.71</text>
<text fill="#ffffff" fill-opacity="1" stroke="none" xml:space="preserve" x="495" y="378" font-family="Arial" font-size="16" font-weight="400" font-style="normal" 
 >2085.00</text>
<text fill="#ffffff" fill-opacity="1" stroke="none" xml:space="preserve" x="573" y="378" font-family="Arial" font-size="16" font-weight="400" font-style="normal" 
 >2042.35</text>
<text fill="#ffffff" fill-opacity="1" stroke="none" xml:space="preserve" x="651" y="378" font-family="Arial" font-size="16" font-weight="400" font-style="normal" 
 >2049.62</text>
<text fill="#ffffff" fill-opacity="1" stroke="none" xml:space="preserve" x="315" y="416" font-family="Arial" font-size="16" font-weight="400" font-style="normal" 
 >2015-12-02</text>
<text fill="#ffffff" fill-opacity="1" stroke="none" xml:space="preserve" x="417" y="416" font-family="Arial" font-size="16" font-weight="400" font-style="normal" 
 >2101.71</text>
<text fill="#ffffff" fill-opacity="1" stroke="none" xml:space="preserve" x="495" y="416" font-family="Arial" font-size="16" font-weight="400" font-style="normal" 
 >2104.27</text>
<text fill="#ffffff" fill-opacity="1" stroke="none" xml:space="preserve" x="573" y="416" font-family="Arial" font-size="16" font-weight="400" font-style="normal" 
 >2077.11</text>
<text fill="#ffffff" fill-opacity="1" stroke="none" xml:space="preserve" x="651" y="416" font-family="Arial" font-size="16" font-weight="400" font-style="normal" 
 >2079.51</text>
</g>

<g fill="#000000" fill-opacity="1" stroke="#000000" stroke-opacity="1" stroke-width="1" stroke-linecap="square" stroke-linejoin="bevel" transform="matrix(1,0,0,1,0,0)"
font-family="Arial" font-size="16" font-weight="400" font-style="normal" 
>
<text fill="#000000" fill-opacity="1" stroke="none" xml:space="preserve" x="315" y="454" font-family="Arial" font-size="16" font-weight="400" font-style="normal" 
 >2015-12-01</text>
<text fill="#000000" fill-opacity="1" stroke="none" xml:space="preserve" x="417" y="454" font-family="Arial" font-size="16" font-weight="400" font-style="normal" 
 >2082.93</text>
<text fill="#000000" fill-opacity="1" stroke="none" xml:space="preserve" x="495" y="454" font-family="Arial" font-size="16" font-weight="400" font-style="normal" 
 >2103.37</text>
<text fill="#000000" fill-opacity="1" stroke="none" xml:space="preserve" x="573" y="454" font-family="Arial" font-size="16" font-weight="400" font-style="normal" 
 >2082.93</text>
<text fill="#000000" fill-opacity="1" stroke="none" xml:space="preserve" x="651" y="454" font-family="Arial" font-size="16" font-weight="400" font-style="normal" 
 >2102.63</text>
</g>
</g>
</svg>
