<?xml version="1.0" encoding="UTF-8" standalone="no"?>
<svg width="361.244mm" height="128.411mm"
 viewBox="0 0 1024 364"
 xmlns="http://www.w3.org/2000/svg" xmlns:xlink="http://www.w3.org/1999/xlink"  version="1.2" baseProfile="tiny">
<title>Qt Svg Document</title>
<desc>Generated with Qt</desc>
<defs>
</defs>
<g fill="none" stroke="black" stroke-width="1" fill-rule="evenodd" stroke-linecap="square" stroke-linejoin="bevel" >

<g fill="#ffffff" fill-opacity="1" stroke="none" transform="matrix(1,0,0,1,0,0)"
font-family="Helvetica" font-size="12" font-weight="400" font-style="normal" 
>
<path vector-effect="non-scaling-stroke" fill-rule="evenodd" d="M0,0 L1024,0 L1024,364 L0,364 L0,0"/>
<path vector-effect="non-scaling-stroke" fill-rule="evenodd" d="M0,0 L1024,0 L1024,364 L0,364 L0,0"/>
<path vector-effect="non-scaling-stroke" fill-rule="evenodd" d="M0,0 L1024,0 L1024,364 L0,364 L0,0"/>
<path vector-effect="non-scaling-stroke" fill-rule="evenodd" d="M461,8 L563,8 L563,356 L461,356 L461,8"/>
<path vector-effect="non-scaling-stroke" fill-rule="evenodd" d="M461,9 L563,9 L563,49 L461,49 L461,9"/>
</g>

<g fill="#f2f2f2" fill-opacity="1" stroke="none" transform="matrix(1,0,0,1,0,0)"
font-family="Helvetica" font-size="12" font-weight="400" font-style="normal" 
>
<path vector-effect="non-scaling-stroke" fill-rule="evenodd" d="M461,88 L563,88 L563,126 L461,126 L461,88"/>
<path vector-effect="non-scaling-stroke" fill-rule="evenodd" d="M461,164 L563,164 L563,202 L461,202 L461,164"/>
<path vector-effect="non-scaling-stroke" fill-rule="evenodd" d="M461,240 L563,240 L563,278 L461,278 L461,240"/>
<path vector-effect="non-scaling-stroke" fill-rule="evenodd" d="M461,316 L563,316 L563,355 L461,355 L461,316"/>
</g>

<g fill="#a8a8a8" fill-opacity="1" stroke="none" transform="matrix(1,0,0,1,0,0)"
font-family="Helvetica" font-size="12" font-weight="400" font-style="normal" 
>
<path vector-effect="non-scaling-stroke" fill-rule="evenodd" d="M461,8 L563,8 L563,10 L461,10 L461,8"/>
<path vector-effect="non-scaling-stroke" fill-rule="evenodd" d="M461,48 L563,48 L563,50 L461,50 L461,48"/>
<path vector-effect="non-scaling-stroke" fill-rule="evenodd" d="M461,48 L563,48 L563,50 L461,50 L461,48"/>
<path vector-effect="non-scaling-stroke" fill-rule="evenodd" d="M461,354 L563,354 L563,356 L461,356 L461,354"/>
</g>

<g fill="#000000" fill-opacity="1" stroke="#000000" stroke-opacity="1" stroke-width="1" stroke-linecap="square" stroke-linejoin="bevel" transform="matrix(1,0,0,1,0,0)"
font-family="Arial" font-size="16" font-weight="400" font-style="normal" 
>
<text fill="#000000" fill-opacity="1" stroke="none" xml:space="preserve" x="471" y="34" font-family="Arial" font-size="16" font-weight="400" font-style="normal" 
 >char</text>
<text fill="#000000" fill-opacity="1" stroke="none" xml:space="preserve" x="471" y="74" font-family="Arial" font-size="16" font-weight="400" font-style="normal" 
 >apricots</text>
<text fill="#000000" fill-opacity="1" stroke="none" xml:space="preserve" x="471" y="112" font-family="Arial" font-size="16" font-weight="400" font-style="normal" 
 >bananas</text>
<text fill="#000000" fill-opacity="1" stroke="none" xml:space="preserve" x="471" y="150" font-family="Arial" font-size="16" font-weight="400" font-style="normal" 
 >coconuts</text>
<text fill="#000000" fill-opacity="1" stroke="none" xml:space="preserve" x="471" y="188" font-family="Arial" font-size="16" font-weight="400" font-style="normal" 
 >durians</text>
<text fill="#000000" fill-opacity="1" stroke="none" xml:space="preserve" x="471" y="226" font-family="Arial" font-size="16" font-weight="400" font-style="normal" 
 >NA</text>
<text fill="#000000" fill-opacity="1" stroke="none" xml:space="preserve" x="471" y="264" font-family="Arial" font-size="16" font-weight="400" font-style="normal" 
 >figs</text>
<text fill="#000000" fill-opacity="1" stroke="none" xml:space="preserve" x="471" y="302" font-family="Arial" font-size="16" font-weight="400" font-style="normal" 
 >grapefruits</text>
<text fill="#000000" fill-opacity="1" stroke="none" xml:space="preserve" x="471" y="340" font-family="Arial" font-size="16" font-weight="400" font-style="normal" 
 >honeydews</text>
</g>
</g>
</svg>
