<?xml version="1.0" encoding="UTF-8" standalone="no"?>
<svg width="361.244mm" height="164.042mm"
 viewBox="0 0 1024 465"
 xmlns="http://www.w3.org/2000/svg" xmlns:xlink="http://www.w3.org/1999/xlink"  version="1.2" baseProfile="tiny">
<title>Qt Svg Document</title>
<desc>Generated with Qt</desc>
<defs>
</defs>
<g fill="none" stroke="black" stroke-width="1" fill-rule="evenodd" stroke-linecap="square" stroke-linejoin="bevel" >

<g fill="#ffffff" fill-opacity="1" stroke="none" transform="matrix(1,0,0,1,0,0)"
font-family="Helvetica" font-size="12" font-weight="400" font-style="normal" 
>
<path vector-effect="non-scaling-stroke" fill-rule="evenodd" d="M0,0 L1024,0 L1024,465 L0,465 L0,0"/>
<path vector-effect="non-scaling-stroke" fill-rule="evenodd" d="M0,0 L1024,0 L1024,465 L0,465 L0,0"/>
<path vector-effect="non-scaling-stroke" fill-rule="evenodd" d="M0,0 L1024,0 L1024,465 L0,465 L0,0"/>
<path vector-effect="non-scaling-stroke" fill-rule="evenodd" d="M340,8 L684,8 L684,457 L340,457 L340,8"/>
<path vector-effect="non-scaling-stroke" fill-rule="evenodd" d="M340,9 L449,9 L449,49 L340,49 L340,9"/>
<path vector-effect="non-scaling-stroke" fill-rule="evenodd" d="M449,9 L577,9 L577,49 L449,49 L449,9"/>
<path vector-effect="non-scaling-stroke" fill-rule="evenodd" d="M577,9 L633,9 L633,49 L577,49 L577,9"/>
<path vector-effect="non-scaling-stroke" fill-rule="evenodd" d="M633,9 L684,9 L684,49 L633,49 L633,9"/>
</g>

<g fill="#f2f2f2" fill-opacity="1" stroke="none" transform="matrix(1,0,0,1,0,0)"
font-family="Helvetica" font-size="12" font-weight="400" font-style="normal" 
>
<path vector-effect="non-scaling-stroke" fill-rule="evenodd" d="M340,88 L449,88 L449,126 L340,126 L340,88"/>
<path vector-effect="non-scaling-stroke" fill-rule="evenodd" d="M449,88 L577,88 L577,126 L449,126 L449,88"/>
<path vector-effect="non-scaling-stroke" fill-rule="evenodd" d="M577,88 L633,88 L633,126 L577,126 L577,88"/>
<path vector-effect="non-scaling-stroke" fill-rule="evenodd" d="M633,88 L684,88 L684,126 L633,126 L633,88"/>
<path vector-effect="non-scaling-stroke" fill-rule="evenodd" d="M340,164 L449,164 L449,202 L340,202 L340,164"/>
<path vector-effect="non-scaling-stroke" fill-rule="evenodd" d="M449,164 L577,164 L577,202 L449,202 L449,164"/>
<path vector-effect="non-scaling-stroke" fill-rule="evenodd" d="M577,164 L633,164 L633,202 L577,202 L577,164"/>
<path vector-effect="non-scaling-stroke" fill-rule="evenodd" d="M633,164 L684,164 L684,202 L633,202 L633,164"/>
<path vector-effect="non-scaling-stroke" fill-rule="evenodd" d="M340,240 L449,240 L449,278 L340,278 L340,240"/>
<path vector-effect="non-scaling-stroke" fill-rule="evenodd" d="M449,240 L577,240 L577,278 L449,278 L449,240"/>
<path vector-effect="non-scaling-stroke" fill-rule="evenodd" d="M577,240 L633,240 L633,278 L577,278 L577,240"/>
<path vector-effect="non-scaling-stroke" fill-rule="evenodd" d="M633,240 L684,240 L684,278 L633,278 L633,240"/>
<path vector-effect="non-scaling-stroke" fill-rule="evenodd" d="M340,316 L449,316 L449,354 L340,354 L340,316"/>
<path vector-effect="non-scaling-stroke" fill-rule="evenodd" d="M449,316 L577,316 L577,354 L449,354 L449,316"/>
<path vector-effect="non-scaling-stroke" fill-rule="evenodd" d="M577,316 L633,316 L633,354 L577,354 L577,316"/>
<path vector-effect="non-scaling-stroke" fill-rule="evenodd" d="M633,316 L684,316 L684,354 L633,354 L633,316"/>
<path vector-effect="non-scaling-stroke" fill-rule="evenodd" d="M340,392 L449,392 L449,432 L340,432 L340,392"/>
<path vector-effect="non-scaling-stroke" fill-rule="evenodd" d="M449,392 L577,392 L577,432 L449,432 L449,392"/>
<path vector-effect="non-scaling-stroke" fill-rule="evenodd" d="M577,392 L633,392 L633,432 L577,432 L577,392"/>
<path vector-effect="non-scaling-stroke" fill-rule="evenodd" d="M633,392 L684,392 L684,432 L633,432 L633,392"/>
</g>

<g fill="#a8a8a8" fill-opacity="1" stroke="none" transform="matrix(1,0,0,1,0,0)"
font-family="Helvetica" font-size="12" font-weight="400" font-style="normal" 
>
<path vector-effect="non-scaling-stroke" fill-rule="evenodd" d="M340,8 L449,8 L449,10 L340,10 L340,8"/>
<path vector-effect="non-scaling-stroke" fill-rule="evenodd" d="M449,8 L577,8 L577,10 L449,10 L449,8"/>
<path vector-effect="non-scaling-stroke" fill-rule="evenodd" d="M577,8 L633,8 L633,10 L577,10 L577,8"/>
<path vector-effect="non-scaling-stroke" fill-rule="evenodd" d="M633,8 L684,8 L684,10 L633,10 L633,8"/>
<path vector-effect="non-scaling-stroke" fill-rule="evenodd" d="M340,48 L449,48 L449,50 L340,50 L340,48"/>
<path vector-effect="non-scaling-stroke" fill-rule="evenodd" d="M449,48 L577,48 L577,50 L449,50 L449,48"/>
<path vector-effect="non-scaling-stroke" fill-rule="evenodd" d="M577,48 L633,48 L633,50 L577,50 L577,48"/>
<path vector-effect="non-scaling-stroke" fill-rule="evenodd" d="M633,48 L684,48 L684,50 L633,50 L633,48"/>
<path vector-effect="non-scaling-stroke" fill-rule="evenodd" d="M340,48 L449,48 L449,50 L340,50 L340,48"/>
<path vector-effect="non-scaling-stroke" fill-rule="evenodd" d="M449,48 L577,48 L577,50 L449,50 L449,48"/>
<path vector-effect="non-scaling-stroke" fill-rule="evenodd" d="M577,48 L633,48 L633,50 L577,50 L577,48"/>
<path vector-effect="non-scaling-stroke" fill-rule="evenodd" d="M633,48 L684,48 L684,50 L633,50 L633,48"/>
<path vector-effect="non-scaling-stroke" fill-rule="evenodd" d="M340,431 L449,431 L449,433 L340,433 L340,431"/>
<path vector-effect="non-scaling-stroke" fill-rule="evenodd" d="M449,431 L577,431 L577,433 L449,433 L449,431"/>
<path vector-effect="non-scaling-stroke" fill-rule="evenodd" d="M577,431 L633,431 L633,433 L577,433 L577,431"/>
<path vector-effect="non-scaling-stroke" fill-rule="evenodd" d="M633,431 L684,431 L684,433 L633,433 L633,431"/>
<path vector-effect="non-scaling-stroke" fill-rule="evenodd" d="M340,431 L684,431 L684,433 L340,433 L340,431"/>
</g>

<g fill="#000000" fill-opacity="1" stroke="#000000" stroke-opacity="1" stroke-width="1" stroke-linecap="square" stroke-linejoin="bevel" transform="matrix(1,0,0,1,0,0)"
font-family="Arial" font-size="16" font-weight="400" font-style="normal" 
>
<text fill="#000000" fill-opacity="1" stroke="none" xml:space="preserve" x="350" y="34" font-family="Arial" font-size="16" font-weight="400" font-style="normal" 
 >mfr</text>
<text fill="#000000" fill-opacity="1" stroke="none" xml:space="preserve" x="459" y="34" font-family="Arial" font-size="16" font-weight="400" font-style="normal" 
 >model</text>
<text fill="#000000" fill-opacity="1" stroke="none" xml:space="preserve" x="592" y="34" font-family="Arial" font-size="16" font-weight="400" font-style="normal" 
 >year</text>
<text fill="#000000" fill-opacity="1" stroke="none" xml:space="preserve" x="656" y="34" font-family="Arial" font-size="16" font-weight="400" font-style="normal" 
 >hp</text>
<text fill="#000000" fill-opacity="1" stroke="none" xml:space="preserve" x="350" y="74" font-family="Arial" font-size="16" font-weight="400" font-style="normal" 
 >Bentley</text>
<text fill="#000000" fill-opacity="1" stroke="none" xml:space="preserve" x="459" y="74" font-family="Arial" font-size="16" font-weight="400" font-style="normal" 
 >Continental GT</text>
<text fill="#000000" fill-opacity="1" stroke="none" xml:space="preserve" x="587" y="74" font-family="Arial" font-size="16" font-weight="400" font-style="normal" 
 >2016</text>
<text fill="#000000" fill-opacity="1" stroke="none" xml:space="preserve" x="647" y="74" font-family="Arial" font-size="16" font-weight="400" font-style="normal" 
 >500</text>
<text fill="#000000" fill-opacity="1" stroke="none" xml:space="preserve" x="350" y="112" font-family="Arial" font-size="16" font-weight="400" font-style="normal" 
 >Aston Martin</text>
<text fill="#000000" fill-opacity="1" stroke="none" xml:space="preserve" x="459" y="112" font-family="Arial" font-size="16" font-weight="400" font-style="normal" 
 >DB11</text>
<text fill="#000000" fill-opacity="1" stroke="none" xml:space="preserve" x="587" y="112" font-family="Arial" font-size="16" font-weight="400" font-style="normal" 
 >2017</text>
<text fill="#000000" fill-opacity="1" stroke="none" xml:space="preserve" x="647" y="112" font-family="Arial" font-size="16" font-weight="400" font-style="normal" 
 >608</text>
<text fill="#000000" fill-opacity="1" stroke="none" xml:space="preserve" x="350" y="150" font-family="Arial" font-size="16" font-weight="400" font-style="normal" 
 >Aston Martin</text>
<text fill="#000000" fill-opacity="1" stroke="none" xml:space="preserve" x="459" y="150" font-family="Arial" font-size="16" font-weight="400" font-style="normal" 
 >Rapide S</text>
<text fill="#000000" fill-opacity="1" stroke="none" xml:space="preserve" x="587" y="150" font-family="Arial" font-size="16" font-weight="400" font-style="normal" 
 >2016</text>
<text fill="#000000" fill-opacity="1" stroke="none" xml:space="preserve" x="647" y="150" font-family="Arial" font-size="16" font-weight="400" font-style="normal" 
 >552</text>
<text fill="#000000" fill-opacity="1" stroke="none" xml:space="preserve" x="350" y="188" font-family="Arial" font-size="16" font-weight="400" font-style="normal" 
 >Aston Martin</text>
<text fill="#000000" fill-opacity="1" stroke="none" xml:space="preserve" x="459" y="188" font-family="Arial" font-size="16" font-weight="400" font-style="normal" 
 >Vanquish</text>
<text fill="#000000" fill-opacity="1" stroke="none" xml:space="preserve" x="587" y="188" font-family="Arial" font-size="16" font-weight="400" font-style="normal" 
 >2016</text>
<text fill="#000000" fill-opacity="1" stroke="none" xml:space="preserve" x="647" y="188" font-family="Arial" font-size="16" font-weight="400" font-style="normal" 
 >568</text>
<text fill="#000000" fill-opacity="1" stroke="none" xml:space="preserve" x="350" y="226" font-family="Arial" font-size="16" font-weight="400" font-style="normal" 
 >Aston Martin</text>
<text fill="#000000" fill-opacity="1" stroke="none" xml:space="preserve" x="459" y="226" font-family="Arial" font-size="16" font-weight="400" font-style="normal" 
 >Vantage</text>
<text fill="#000000" fill-opacity="1" stroke="none" xml:space="preserve" x="587" y="226" font-family="Arial" font-size="16" font-weight="400" font-style="normal" 
 >2016</text>
<text fill="#000000" fill-opacity="1" stroke="none" xml:space="preserve" x="647" y="226" font-family="Arial" font-size="16" font-weight="400" font-style="normal" 
 >430</text>
<text fill="#000000" fill-opacity="1" stroke="none" xml:space="preserve" x="350" y="264" font-family="Arial" font-size="16" font-weight="400" font-style="normal" 
 >Lotus</text>
<text fill="#000000" fill-opacity="1" stroke="none" xml:space="preserve" x="459" y="264" font-family="Arial" font-size="16" font-weight="400" font-style="normal" 
 >Evora</text>
<text fill="#000000" fill-opacity="1" stroke="none" xml:space="preserve" x="587" y="264" font-family="Arial" font-size="16" font-weight="400" font-style="normal" 
 >2017</text>
<text fill="#000000" fill-opacity="1" stroke="none" xml:space="preserve" x="647" y="264" font-family="Arial" font-size="16" font-weight="400" font-style="normal" 
 >400</text>
<text fill="#000000" fill-opacity="1" stroke="none" xml:space="preserve" x="350" y="302" font-family="Arial" font-size="16" font-weight="400" font-style="normal" 
 >Jaguar</text>
<text fill="#000000" fill-opacity="1" stroke="none" xml:space="preserve" x="459" y="302" font-family="Arial" font-size="16" font-weight="400" font-style="normal" 
 >F-Type</text>
<text fill="#000000" fill-opacity="1" stroke="none" xml:space="preserve" x="587" y="302" font-family="Arial" font-size="16" font-weight="400" font-style="normal" 
 >2016</text>
<text fill="#000000" fill-opacity="1" stroke="none" xml:space="preserve" x="647" y="302" font-family="Arial" font-size="16" font-weight="400" font-style="normal" 
 >340</text>
<text fill="#000000" fill-opacity="1" stroke="none" xml:space="preserve" x="350" y="340" font-family="Arial" font-size="16" font-weight="400" font-style="normal" 
 >McLaren</text>
<text fill="#000000" fill-opacity="1" stroke="none" xml:space="preserve" x="459" y="340" font-family="Arial" font-size="16" font-weight="400" font-style="normal" 
 >570</text>
<text fill="#000000" fill-opacity="1" stroke="none" xml:space="preserve" x="587" y="340" font-family="Arial" font-size="16" font-weight="400" font-style="normal" 
 >2016</text>
<text fill="#000000" fill-opacity="1" stroke="none" xml:space="preserve" x="647" y="340" font-family="Arial" font-size="16" font-weight="400" font-style="normal" 
 >570</text>
<text fill="#000000" fill-opacity="1" stroke="none" xml:space="preserve" x="350" y="378" font-family="Arial" font-size="16" font-weight="400" font-style="normal" 
 >Rolls-Royce</text>
<text fill="#000000" fill-opacity="1" stroke="none" xml:space="preserve" x="459" y="378" font-family="Arial" font-size="16" font-weight="400" font-style="normal" 
 >Dawn</text>
<text fill="#000000" fill-opacity="1" stroke="none" xml:space="preserve" x="587" y="378" font-family="Arial" font-size="16" font-weight="400" font-style="normal" 
 >2016</text>
<text fill="#000000" fill-opacity="1" stroke="none" xml:space="preserve" x="647" y="378" font-family="Arial" font-size="16" font-weight="400" font-style="normal" 
 >563</text>
<text fill="#000000" fill-opacity="1" stroke="none" xml:space="preserve" x="350" y="416" font-family="Arial" font-size="16" font-weight="400" font-style="normal" 
 >Rolls-Royce</text>
<text fill="#000000" fill-opacity="1" stroke="none" xml:space="preserve" x="459" y="416" font-family="Arial" font-size="16" font-weight="400" font-style="normal" 
 >Wraith</text>
<text fill="#000000" fill-opacity="1" stroke="none" xml:space="preserve" x="587" y="416" font-family="Arial" font-size="16" font-weight="400" font-style="normal" 
 >2016</text>
<text fill="#000000" fill-opacity="1" stroke="none" xml:space="preserve" x="643" y="417" font-family="Arial" font-size="16" font-weight="400" font-style="normal" 
 >624</text>
</g>

<g fill="#000000" fill-opacity="1" stroke="#000000" stroke-opacity="1" stroke-width="1" stroke-linecap="square" stroke-linejoin="bevel" transform="matrix(1,0,0,1,0,0)"
font-family="Arial" font-size="10" font-weight="400" font-style="italic" 
>
<text fill="#000000" fill-opacity="1" stroke="none" xml:space="preserve" x="670" y="411" font-family="Arial" font-size="10" font-weight="400" font-style="italic" 
 >*</text>
</g>

<g fill="#000000" fill-opacity="1" stroke="#000000" stroke-opacity="1" stroke-width="1" stroke-linecap="square" stroke-linejoin="bevel" transform="matrix(1,0,0,1,0,0)"
font-family="Arial" font-size="9" font-weight="400" font-style="italic" 
>
<text fill="#000000" fill-opacity="1" stroke="none" xml:space="preserve" x="344" y="445" font-family="Arial" font-size="9" font-weight="400" font-style="italic" 
 >*</text>
</g>

<g fill="#000000" fill-opacity="1" stroke="#000000" stroke-opacity="1" stroke-width="1" stroke-linecap="square" stroke-linejoin="bevel" transform="matrix(1,0,0,1,0,0)"
font-family="Arial" font-size="14" font-weight="400" font-style="normal" 
>
<text fill="#000000" fill-opacity="1" stroke="none" xml:space="preserve" x="348" y="450" font-family="Arial" font-size="14" font-weight="400" font-style="normal" 
 > Highest horsepower.</text>
</g>
</g>
</svg>
