<?xml version="1.0" encoding="UTF-8" standalone="no"?>
<svg width="361.244mm" height="97.3667mm"
 viewBox="0 0 1024 276"
 xmlns="http://www.w3.org/2000/svg" xmlns:xlink="http://www.w3.org/1999/xlink"  version="1.2" baseProfile="tiny">
<title>Qt Svg Document</title>
<desc>Generated with Qt</desc>
<defs>
</defs>
<g fill="none" stroke="black" stroke-width="1" fill-rule="evenodd" stroke-linecap="square" stroke-linejoin="bevel" >

<g fill="#ffffff" fill-opacity="1" stroke="none" transform="matrix(1,0,0,1,0,0)"
font-family="Helvetica" font-size="12" font-weight="400" font-style="normal" 
>
<path vector-effect="non-scaling-stroke" fill-rule="evenodd" d="M0,0 L1024,0 L1024,276 L0,276 L0,0"/>
<path vector-effect="non-scaling-stroke" fill-rule="evenodd" d="M0,0 L1024,0 L1024,276 L0,276 L0,0"/>
<path vector-effect="non-scaling-stroke" fill-rule="evenodd" d="M0,0 L1024,0 L1024,276 L0,276 L0,0"/>
<path vector-effect="non-scaling-stroke" fill-rule="evenodd" d="M353,8 L670,8 L670,268 L353,268 L353,8"/>
<path vector-effect="non-scaling-stroke" fill-rule="evenodd" d="M353,9 L474,9 L474,49 L353,49 L353,9"/>
<path vector-effect="non-scaling-stroke" fill-rule="evenodd" d="M474,9 L608,9 L608,49 L474,49 L474,9"/>
<path vector-effect="non-scaling-stroke" fill-rule="evenodd" d="M608,9 L670,9 L670,49 L608,49 L608,9"/>
</g>

<g fill="#f2f2f2" fill-opacity="1" stroke="none" transform="matrix(1,0,0,1,0,0)"
font-family="Helvetica" font-size="12" font-weight="400" font-style="normal" 
>
<path vector-effect="non-scaling-stroke" fill-rule="evenodd" d="M353,88 L474,88 L474,126 L353,126 L353,88"/>
<path vector-effect="non-scaling-stroke" fill-rule="evenodd" d="M474,88 L608,88 L608,126 L474,126 L474,88"/>
<path vector-effect="non-scaling-stroke" fill-rule="evenodd" d="M608,88 L670,88 L670,126 L608,126 L608,88"/>
<path vector-effect="non-scaling-stroke" fill-rule="evenodd" d="M353,164 L474,164 L474,203 L353,203 L353,164"/>
<path vector-effect="non-scaling-stroke" fill-rule="evenodd" d="M474,164 L608,164 L608,203 L474,203 L474,164"/>
<path vector-effect="non-scaling-stroke" fill-rule="evenodd" d="M608,164 L670,164 L670,203 L608,203 L608,164"/>
</g>

<g fill="#a8a8a8" fill-opacity="1" stroke="none" transform="matrix(1,0,0,1,0,0)"
font-family="Helvetica" font-size="12" font-weight="400" font-style="normal" 
>
<path vector-effect="non-scaling-stroke" fill-rule="evenodd" d="M353,8 L474,8 L474,10 L353,10 L353,8"/>
<path vector-effect="non-scaling-stroke" fill-rule="evenodd" d="M474,8 L608,8 L608,10 L474,10 L474,8"/>
<path vector-effect="non-scaling-stroke" fill-rule="evenodd" d="M608,8 L670,8 L670,10 L608,10 L608,8"/>
<path vector-effect="non-scaling-stroke" fill-rule="evenodd" d="M353,48 L474,48 L474,50 L353,50 L353,48"/>
<path vector-effect="non-scaling-stroke" fill-rule="evenodd" d="M474,48 L608,48 L608,50 L474,50 L474,48"/>
<path vector-effect="non-scaling-stroke" fill-rule="evenodd" d="M608,48 L670,48 L670,50 L608,50 L608,48"/>
<path vector-effect="non-scaling-stroke" fill-rule="evenodd" d="M353,48 L474,48 L474,50 L353,50 L353,48"/>
<path vector-effect="non-scaling-stroke" fill-rule="evenodd" d="M474,48 L608,48 L608,50 L474,50 L474,48"/>
<path vector-effect="non-scaling-stroke" fill-rule="evenodd" d="M608,48 L670,48 L670,50 L608,50 L608,48"/>
<path vector-effect="non-scaling-stroke" fill-rule="evenodd" d="M353,242 L474,242 L474,244 L353,244 L353,242"/>
<path vector-effect="non-scaling-stroke" fill-rule="evenodd" d="M474,242 L608,242 L608,244 L474,244 L474,242"/>
<path vector-effect="non-scaling-stroke" fill-rule="evenodd" d="M608,242 L670,242 L670,244 L608,244 L608,242"/>
<path vector-effect="non-scaling-stroke" fill-rule="evenodd" d="M353,242 L670,242 L670,244 L353,244 L353,242"/>
</g>

<g fill="#000000" fill-opacity="1" stroke="#000000" stroke-opacity="1" stroke-width="1" stroke-linecap="square" stroke-linejoin="bevel" transform="matrix(1,0,0,1,0,0)"
font-family="Arial" font-size="16" font-weight="400" font-style="normal" 
>
<text fill="#000000" fill-opacity="1" stroke="none" xml:space="preserve" x="363" y="34" font-family="Arial" font-size="16" font-weight="400" font-style="normal" 
 >country_name</text>
<text fill="#000000" fill-opacity="1" stroke="none" xml:space="preserve" x="484" y="34" font-family="Arial" font-size="16" font-weight="400" font-style="normal" 
 >country_code_2</text>
<text fill="#000000" fill-opacity="1" stroke="none" xml:space="preserve" x="629" y="34" font-family="Arial" font-size="16" font-weight="400" font-style="normal" 
 >year</text>
<text fill="#000000" fill-opacity="1" stroke="none" xml:space="preserve" x="363" y="74" font-family="Arial" font-size="16" font-weight="400" font-style="normal" 
 >Mongolia</text>
<text fill="#000000" fill-opacity="1" stroke="none" xml:space="preserve" x="484" y="74" font-family="Arial" font-size="16" font-weight="400" font-style="normal" 
 >MN</text>
<text fill="#000000" fill-opacity="1" stroke="none" xml:space="preserve" x="624" y="74" font-family="Arial" font-size="16" font-weight="400" font-style="normal" 
 >2013</text>
<text fill="#000000" fill-opacity="1" stroke="none" xml:space="preserve" x="363" y="112" font-family="Arial" font-size="16" font-weight="400" font-style="normal" 
 >Mongolia</text>
<text fill="#000000" fill-opacity="1" stroke="none" xml:space="preserve" x="484" y="112" font-family="Arial" font-size="16" font-weight="400" font-style="normal" 
 >MN</text>
<text fill="#000000" fill-opacity="1" stroke="none" xml:space="preserve" x="624" y="112" font-family="Arial" font-size="16" font-weight="400" font-style="normal" 
 >2014</text>
<text fill="#000000" fill-opacity="1" stroke="none" xml:space="preserve" x="363" y="150" font-family="Arial" font-size="16" font-weight="400" font-style="normal" 
 >Mongolia</text>
<text fill="#000000" fill-opacity="1" stroke="none" xml:space="preserve" x="484" y="150" font-family="Arial" font-size="16" font-weight="400" font-style="normal" 
 >MN</text>
<text fill="#000000" fill-opacity="1" stroke="none" xml:space="preserve" x="624" y="150" font-family="Arial" font-size="16" font-weight="400" font-style="normal" 
 >2015</text>
<text fill="#000000" fill-opacity="1" stroke="none" xml:space="preserve" x="363" y="188" font-family="Arial" font-size="16" font-weight="400" font-style="normal" 
 >Mongolia</text>
<text fill="#000000" fill-opacity="1" stroke="none" xml:space="preserve" x="484" y="188" font-family="Arial" font-size="16" font-weight="400" font-style="normal" 
 >MN</text>
<text fill="#000000" fill-opacity="1" stroke="none" xml:space="preserve" x="618" y="189" font-family="Arial" font-size="16" font-weight="400" font-style="normal" 
 >2016</text>
</g>

<g fill="#000000" fill-opacity="1" stroke="#000000" stroke-opacity="1" stroke-width="1" stroke-linecap="square" stroke-linejoin="bevel" transform="matrix(1,0,0,1,0,0)"
font-family="Arial" font-size="10" font-weight="400" font-style="italic" 
>
<text fill="#000000" fill-opacity="1" stroke="none" xml:space="preserve" x="654" y="183" font-family="Arial" font-size="10" font-weight="400" font-style="italic" 
 >1</text>
</g>

<g fill="#000000" fill-opacity="1" stroke="#000000" stroke-opacity="1" stroke-width="1" stroke-linecap="square" stroke-linejoin="bevel" transform="matrix(1,0,0,1,0,0)"
font-family="Arial" font-size="16" font-weight="400" font-style="normal" 
>
<text fill="#000000" fill-opacity="1" stroke="none" xml:space="preserve" x="363" y="227" font-family="Arial" font-size="16" font-weight="400" font-style="normal" 
 >Mongolia</text>
<text fill="#000000" fill-opacity="1" stroke="none" xml:space="preserve" x="484" y="227" font-family="Arial" font-size="16" font-weight="400" font-style="normal" 
 >MN</text>
<text fill="#000000" fill-opacity="1" stroke="none" xml:space="preserve" x="618" y="228" font-family="Arial" font-size="16" font-weight="400" font-style="normal" 
 >2017</text>
</g>

<g fill="#000000" fill-opacity="1" stroke="#000000" stroke-opacity="1" stroke-width="1" stroke-linecap="square" stroke-linejoin="bevel" transform="matrix(1,0,0,1,0,0)"
font-family="Arial" font-size="10" font-weight="400" font-style="italic" 
>
<text fill="#000000" fill-opacity="1" stroke="none" xml:space="preserve" x="654" y="222" font-family="Arial" font-size="10" font-weight="400" font-style="italic" 
 >1</text>
</g>

<g fill="#000000" fill-opacity="1" stroke="#000000" stroke-opacity="1" stroke-width="1" stroke-linecap="square" stroke-linejoin="bevel" transform="matrix(1,0,0,1,0,0)"
font-family="Arial" font-size="9" font-weight="400" font-style="italic" 
>
<text fill="#000000" fill-opacity="1" stroke="none" xml:space="preserve" x="357" y="256" font-family="Arial" font-size="9" font-weight="400" font-style="italic" 
 >1</text>
</g>

<g fill="#000000" fill-opacity="1" stroke="#000000" stroke-opacity="1" stroke-width="1" stroke-linecap="square" stroke-linejoin="bevel" transform="matrix(1,0,0,1,0,0)"
font-family="Arial" font-size="14" font-weight="400" font-style="normal" 
>
<text fill="#000000" fill-opacity="1" stroke="none" xml:space="preserve" x="362" y="261" font-family="Arial" font-size="14" font-weight="400" font-style="normal" 
 > Population above 3,000,000.</text>
</g>
</g>
</svg>
