<?xml version="1.0" encoding="UTF-8" standalone="no"?>
<svg width="361.244mm" height="74.7889mm"
 viewBox="0 0 1024 212"
 xmlns="http://www.w3.org/2000/svg" xmlns:xlink="http://www.w3.org/1999/xlink"  version="1.2" baseProfile="tiny">
<title>Qt Svg Document</title>
<desc>Generated with Qt</desc>
<defs>
</defs>
<g fill="none" stroke="black" stroke-width="1" fill-rule="evenodd" stroke-linecap="square" stroke-linejoin="bevel" >

<g fill="#ffffff" fill-opacity="1" stroke="none" transform="matrix(1,0,0,1,0,0)"
font-family="Helvetica" font-size="12" font-weight="400" font-style="normal" 
>
<path vector-effect="non-scaling-stroke" fill-rule="evenodd" d="M0,0 L1024,0 L1024,212 L0,212 L0,0"/>
<path vector-effect="non-scaling-stroke" fill-rule="evenodd" d="M0,0 L1024,0 L1024,212 L0,212 L0,0"/>
<path vector-effect="non-scaling-stroke" fill-rule="evenodd" d="M0,0 L1024,0 L1024,212 L0,212 L0,0"/>
<path vector-effect="non-scaling-stroke" fill-rule="evenodd" d="M374,8 L650,8 L650,204 L374,204 L374,8"/>
<path vector-effect="non-scaling-stroke" fill-rule="evenodd" d="M374,9 L493,9 L493,49 L374,49 L374,9"/>
<path vector-effect="non-scaling-stroke" fill-rule="evenodd" d="M493,9 L569,9 L569,49 L493,49 L493,9"/>
<path vector-effect="non-scaling-stroke" fill-rule="evenodd" d="M569,9 L650,9 L650,49 L569,49 L569,9"/>
</g>

<g fill="#f2f2f2" fill-opacity="1" stroke="none" transform="matrix(1,0,0,1,0,0)"
font-family="Helvetica" font-size="12" font-weight="400" font-style="normal" 
>
<path vector-effect="non-scaling-stroke" fill-rule="evenodd" d="M374,88 L493,88 L493,126 L374,126 L374,88"/>
<path vector-effect="non-scaling-stroke" fill-rule="evenodd" d="M493,88 L569,88 L569,126 L493,126 L493,88"/>
<path vector-effect="non-scaling-stroke" fill-rule="evenodd" d="M569,88 L650,88 L650,126 L569,126 L569,88"/>
<path vector-effect="non-scaling-stroke" fill-rule="evenodd" d="M374,164 L493,164 L493,203 L374,203 L374,164"/>
<path vector-effect="non-scaling-stroke" fill-rule="evenodd" d="M493,164 L569,164 L569,203 L493,203 L493,164"/>
<path vector-effect="non-scaling-stroke" fill-rule="evenodd" d="M569,164 L650,164 L650,203 L569,203 L569,164"/>
</g>

<g fill="#a8a8a8" fill-opacity="1" stroke="none" transform="matrix(1,0,0,1,0,0)"
font-family="Helvetica" font-size="12" font-weight="400" font-style="normal" 
>
<path vector-effect="non-scaling-stroke" fill-rule="evenodd" d="M374,8 L493,8 L493,10 L374,10 L374,8"/>
<path vector-effect="non-scaling-stroke" fill-rule="evenodd" d="M493,8 L569,8 L569,10 L493,10 L493,8"/>
<path vector-effect="non-scaling-stroke" fill-rule="evenodd" d="M569,8 L650,8 L650,10 L569,10 L569,8"/>
<path vector-effect="non-scaling-stroke" fill-rule="evenodd" d="M374,48 L493,48 L493,50 L374,50 L374,48"/>
<path vector-effect="non-scaling-stroke" fill-rule="evenodd" d="M493,48 L569,48 L569,50 L493,50 L493,48"/>
<path vector-effect="non-scaling-stroke" fill-rule="evenodd" d="M569,48 L650,48 L650,50 L569,50 L569,48"/>
<path vector-effect="non-scaling-stroke" fill-rule="evenodd" d="M374,48 L493,48 L493,50 L374,50 L374,48"/>
<path vector-effect="non-scaling-stroke" fill-rule="evenodd" d="M493,48 L569,48 L569,50 L493,50 L493,48"/>
<path vector-effect="non-scaling-stroke" fill-rule="evenodd" d="M569,48 L650,48 L650,50 L569,50 L569,48"/>
<path vector-effect="non-scaling-stroke" fill-rule="evenodd" d="M374,202 L493,202 L493,204 L374,204 L374,202"/>
<path vector-effect="non-scaling-stroke" fill-rule="evenodd" d="M493,202 L569,202 L569,204 L493,204 L493,202"/>
<path vector-effect="non-scaling-stroke" fill-rule="evenodd" d="M569,202 L650,202 L650,204 L569,204 L569,202"/>
</g>

<g fill="#000000" fill-opacity="1" stroke="#000000" stroke-opacity="1" stroke-width="1" stroke-linecap="square" stroke-linejoin="bevel" transform="matrix(1,0,0,1,0,0)"
font-family="Arial" font-size="16" font-weight="400" font-style="normal" 
>
<text fill="#000000" fill-opacity="1" stroke="none" xml:space="preserve" x="452" y="34" font-family="Arial" font-size="16" font-weight="400" font-style="normal" 
 >num</text>
<text fill="#000000" fill-opacity="1" stroke="none" xml:space="preserve" x="503" y="34" font-family="Arial" font-size="16" font-weight="400" font-style="normal" 
 >char</text>
<text fill="#000000" fill-opacity="1" stroke="none" xml:space="preserve" x="579" y="34" font-family="Arial" font-size="16" font-weight="400" font-style="normal" 
 >currency</text>
<text fill="#000000" fill-opacity="1" stroke="none" xml:space="preserve" x="400" y="74" font-family="Arial" font-size="16" font-weight="400" font-style="normal" 
 >0.11 (small)</text>
<text fill="#000000" fill-opacity="1" stroke="none" xml:space="preserve" x="503" y="74" font-family="Arial" font-size="16" font-weight="400" font-style="normal" 
 >apricot</text>
<text fill="#000000" fill-opacity="1" stroke="none" xml:space="preserve" x="591" y="74" font-family="Arial" font-size="16" font-weight="400" font-style="normal" 
 >$49.95</text>
<text fill="#000000" fill-opacity="1" stroke="none" xml:space="preserve" x="400" y="112" font-family="Arial" font-size="16" font-weight="400" font-style="normal" 
 >2.22 (small)</text>
<text fill="#000000" fill-opacity="1" stroke="none" xml:space="preserve" x="503" y="112" font-family="Arial" font-size="16" font-weight="400" font-style="normal" 
 >banana</text>
<text fill="#000000" fill-opacity="1" stroke="none" xml:space="preserve" x="591" y="112" font-family="Arial" font-size="16" font-weight="400" font-style="normal" 
 >$17.95</text>
<text fill="#000000" fill-opacity="1" stroke="none" xml:space="preserve" x="393" y="150" font-family="Arial" font-size="16" font-weight="400" font-style="normal" 
 >33.33 (large)</text>
<text fill="#000000" fill-opacity="1" stroke="none" xml:space="preserve" x="503" y="150" font-family="Arial" font-size="16" font-weight="400" font-style="normal" 
 >coconut</text>
<text fill="#000000" fill-opacity="1" stroke="none" xml:space="preserve" x="600" y="150" font-family="Arial" font-size="16" font-weight="400" font-style="normal" 
 >$1.39</text>
<text fill="#000000" fill-opacity="1" stroke="none" xml:space="preserve" x="384" y="188" font-family="Arial" font-size="16" font-weight="400" font-style="normal" 
 >444.40 (large)</text>
<text fill="#000000" fill-opacity="1" stroke="none" xml:space="preserve" x="503" y="188" font-family="Arial" font-size="16" font-weight="400" font-style="normal" 
 >durian</text>
<text fill="#000000" fill-opacity="1" stroke="none" xml:space="preserve" x="582" y="188" font-family="Arial" font-size="16" font-weight="400" font-style="normal" 
 >$65,100</text>
</g>
</g>
</svg>
