<?xml version="1.0" encoding="UTF-8" standalone="no"?>
<svg width="361.244mm" height="110.772mm"
 viewBox="0 0 1024 314"
 xmlns="http://www.w3.org/2000/svg" xmlns:xlink="http://www.w3.org/1999/xlink"  version="1.2" baseProfile="tiny">
<title>Qt Svg Document</title>
<desc>Generated with Qt</desc>
<defs>
</defs>
<g fill="none" stroke="black" stroke-width="1" fill-rule="evenodd" stroke-linecap="square" stroke-linejoin="bevel" >

<g fill="#ffffff" fill-opacity="1" stroke="none" transform="matrix(1,0,0,1,0,0)"
font-family="Helvetica" font-size="12" font-weight="400" font-style="normal" 
>
<path vector-effect="non-scaling-stroke" fill-rule="evenodd" d="M0,0 L1024,0 L1024,314 L0,314 L0,0"/>
<path vector-effect="non-scaling-stroke" fill-rule="evenodd" d="M0,0 L1024,0 L1024,314 L0,314 L0,0"/>
<path vector-effect="non-scaling-stroke" fill-rule="evenodd" d="M0,0 L1024,0 L1024,314 L0,314 L0,0"/>
<path vector-effect="non-scaling-stroke" fill-rule="evenodd" d="M343,8 L680,8 L680,306 L343,306 L343,8"/>
<path vector-effect="non-scaling-stroke" fill-rule="evenodd" d="M343,9 L401,9 L401,49 L343,49 L343,9"/>
<path vector-effect="non-scaling-stroke" fill-rule="evenodd" d="M401,9 L510,9 L510,49 L401,49 L401,9"/>
<path vector-effect="non-scaling-stroke" fill-rule="evenodd" d="M510,9 L624,9 L624,49 L510,49 L510,9"/>
<path vector-effect="non-scaling-stroke" fill-rule="evenodd" d="M624,9 L680,9 L680,49 L624,49 L624,9"/>
<path vector-effect="non-scaling-stroke" fill-rule="evenodd" d="M343,49 L401,49 L401,89 L343,89 L343,49"/>
</g>

<g fill="#f2f2f2" fill-opacity="1" stroke="none" transform="matrix(1,0,0,1,0,0)"
font-family="Helvetica" font-size="12" font-weight="400" font-style="normal" 
>
<path vector-effect="non-scaling-stroke" fill-rule="evenodd" d="M343,89 L401,89 L401,128 L343,128 L343,89"/>
</g>

<g fill="#ffffff" fill-opacity="1" stroke="none" transform="matrix(1,0,0,1,0,0)"
font-family="Helvetica" font-size="12" font-weight="400" font-style="normal" 
>
<path vector-effect="non-scaling-stroke" fill-rule="evenodd" d="M343,89 L401,89 L401,128 L343,128 L343,89"/>
</g>

<g fill="#f2f2f2" fill-opacity="1" stroke="none" transform="matrix(1,0,0,1,0,0)"
font-family="Helvetica" font-size="12" font-weight="400" font-style="normal" 
>
<path vector-effect="non-scaling-stroke" fill-rule="evenodd" d="M401,89 L510,89 L510,128 L401,128 L401,89"/>
<path vector-effect="non-scaling-stroke" fill-rule="evenodd" d="M510,89 L624,89 L624,128 L510,128 L510,89"/>
<path vector-effect="non-scaling-stroke" fill-rule="evenodd" d="M624,89 L680,89 L680,128 L624,128 L624,89"/>
</g>

<g fill="#ffffff" fill-opacity="1" stroke="none" transform="matrix(1,0,0,1,0,0)"
font-family="Helvetica" font-size="12" font-weight="400" font-style="normal" 
>
<path vector-effect="non-scaling-stroke" fill-rule="evenodd" d="M343,128 L401,128 L401,167 L343,167 L343,128"/>
</g>

<g fill="#f2f2f2" fill-opacity="1" stroke="none" transform="matrix(1,0,0,1,0,0)"
font-family="Helvetica" font-size="12" font-weight="400" font-style="normal" 
>
<path vector-effect="non-scaling-stroke" fill-rule="evenodd" d="M343,167 L401,167 L401,206 L343,206 L343,167"/>
</g>

<g fill="#ffffff" fill-opacity="1" stroke="none" transform="matrix(1,0,0,1,0,0)"
font-family="Helvetica" font-size="12" font-weight="400" font-style="normal" 
>
<path vector-effect="non-scaling-stroke" fill-rule="evenodd" d="M343,167 L401,167 L401,206 L343,206 L343,167"/>
</g>

<g fill="#f2f2f2" fill-opacity="1" stroke="none" transform="matrix(1,0,0,1,0,0)"
font-family="Helvetica" font-size="12" font-weight="400" font-style="normal" 
>
<path vector-effect="non-scaling-stroke" fill-rule="evenodd" d="M401,167 L510,167 L510,206 L401,206 L401,167"/>
<path vector-effect="non-scaling-stroke" fill-rule="evenodd" d="M510,167 L624,167 L624,206 L510,206 L510,167"/>
<path vector-effect="non-scaling-stroke" fill-rule="evenodd" d="M624,167 L680,167 L680,206 L624,206 L624,167"/>
</g>

<g fill="#ffffff" fill-opacity="1" stroke="none" transform="matrix(1,0,0,1,0,0)"
font-family="Helvetica" font-size="12" font-weight="400" font-style="normal" 
>
<path vector-effect="non-scaling-stroke" fill-rule="evenodd" d="M343,206 L401,206 L401,246 L343,246 L343,206"/>
</g>

<g fill="#f2f2f2" fill-opacity="1" stroke="none" transform="matrix(1,0,0,1,0,0)"
font-family="Helvetica" font-size="12" font-weight="400" font-style="normal" 
>
<path vector-effect="non-scaling-stroke" fill-rule="evenodd" d="M343,246 L401,246 L401,264 L343,264 L343,246"/>
</g>

<g fill="#e4e4e4" fill-opacity="1" stroke="none" transform="matrix(1,0,0,1,0,0)"
font-family="Helvetica" font-size="12" font-weight="400" font-style="normal" 
>
<path vector-effect="non-scaling-stroke" fill-rule="evenodd" d="M343,246 L401,246 L401,264 L343,264 L343,246"/>
</g>

<g fill="#f2f2f2" fill-opacity="1" stroke="none" transform="matrix(1,0,0,1,0,0)"
font-family="Helvetica" font-size="12" font-weight="400" font-style="normal" 
>
<path vector-effect="non-scaling-stroke" fill-rule="evenodd" d="M401,246 L510,246 L510,264 L401,264 L401,246"/>
</g>

<g fill="#e4e4e4" fill-opacity="1" stroke="none" transform="matrix(1,0,0,1,0,0)"
font-family="Helvetica" font-size="12" font-weight="400" font-style="normal" 
>
<path vector-effect="non-scaling-stroke" fill-rule="evenodd" d="M401,246 L510,246 L510,264 L401,264 L401,246"/>
</g>

<g fill="#f2f2f2" fill-opacity="1" stroke="none" transform="matrix(1,0,0,1,0,0)"
font-family="Helvetica" font-size="12" font-weight="400" font-style="normal" 
>
<path vector-effect="non-scaling-stroke" fill-rule="evenodd" d="M510,246 L624,246 L624,264 L510,264 L510,246"/>
</g>

<g fill="#e4e4e4" fill-opacity="1" stroke="none" transform="matrix(1,0,0,1,0,0)"
font-family="Helvetica" font-size="12" font-weight="400" font-style="normal" 
>
<path vector-effect="non-scaling-stroke" fill-rule="evenodd" d="M510,246 L624,246 L624,264 L510,264 L510,246"/>
</g>

<g fill="#f2f2f2" fill-opacity="1" stroke="none" transform="matrix(1,0,0,1,0,0)"
font-family="Helvetica" font-size="12" font-weight="400" font-style="normal" 
>
<path vector-effect="non-scaling-stroke" fill-rule="evenodd" d="M624,246 L680,246 L680,264 L624,264 L624,246"/>
</g>

<g fill="#e4e4e4" fill-opacity="1" stroke="none" transform="matrix(1,0,0,1,0,0)"
font-family="Helvetica" font-size="12" font-weight="400" font-style="normal" 
>
<path vector-effect="non-scaling-stroke" fill-rule="evenodd" d="M624,246 L680,246 L680,264 L624,264 L624,246"/>
</g>

<g fill="#ffffff" fill-opacity="1" stroke="none" transform="matrix(1,0,0,1,0,0)"
font-family="Helvetica" font-size="12" font-weight="400" font-style="normal" 
>
<path vector-effect="non-scaling-stroke" fill-rule="evenodd" d="M343,264 L401,264 L401,305 L343,305 L343,264"/>
</g>

<g fill="#a8a8a8" fill-opacity="1" stroke="none" transform="matrix(1,0,0,1,0,0)"
font-family="Helvetica" font-size="12" font-weight="400" font-style="normal" 
>
<path vector-effect="non-scaling-stroke" fill-rule="evenodd" d="M343,8 L401,8 L401,10 L343,10 L343,8"/>
<path vector-effect="non-scaling-stroke" fill-rule="evenodd" d="M401,8 L510,8 L510,10 L401,10 L401,8"/>
<path vector-effect="non-scaling-stroke" fill-rule="evenodd" d="M510,8 L624,8 L624,10 L510,10 L510,8"/>
<path vector-effect="non-scaling-stroke" fill-rule="evenodd" d="M624,8 L680,8 L680,10 L624,10 L624,8"/>
<path vector-effect="non-scaling-stroke" fill-rule="evenodd" d="M343,48 L401,48 L401,50 L343,50 L343,48"/>
<path vector-effect="non-scaling-stroke" fill-rule="evenodd" d="M401,48 L510,48 L510,50 L401,50 L401,48"/>
<path vector-effect="non-scaling-stroke" fill-rule="evenodd" d="M510,48 L624,48 L624,50 L510,50 L510,48"/>
<path vector-effect="non-scaling-stroke" fill-rule="evenodd" d="M624,48 L680,48 L680,50 L624,50 L624,48"/>
<path vector-effect="non-scaling-stroke" fill-rule="evenodd" d="M343,48 L402,48 L402,50 L343,50 L343,48"/>
<path vector-effect="non-scaling-stroke" fill-rule="evenodd" d="M400,48 L510,48 L510,50 L400,50 L400,48"/>
<path vector-effect="non-scaling-stroke" fill-rule="evenodd" d="M510,48 L624,48 L624,50 L510,50 L510,48"/>
<path vector-effect="non-scaling-stroke" fill-rule="evenodd" d="M624,48 L680,48 L680,50 L624,50 L624,48"/>
<path vector-effect="non-scaling-stroke" fill-rule="evenodd" d="M343,304 L402,304 L402,306 L343,306 L343,304"/>
<path vector-effect="non-scaling-stroke" fill-rule="evenodd" d="M400,304 L510,304 L510,306 L400,306 L400,304"/>
<path vector-effect="non-scaling-stroke" fill-rule="evenodd" d="M510,304 L624,304 L624,306 L510,306 L510,304"/>
<path vector-effect="non-scaling-stroke" fill-rule="evenodd" d="M624,304 L680,304 L680,306 L624,306 L624,304"/>
<path vector-effect="non-scaling-stroke" fill-rule="evenodd" d="M400,48 L402,48 L402,89 L400,89 L400,48"/>
<path vector-effect="non-scaling-stroke" fill-rule="evenodd" d="M400,48 L402,48 L402,89 L400,89 L400,48"/>
<path vector-effect="non-scaling-stroke" fill-rule="evenodd" d="M400,89 L402,89 L402,128 L400,128 L400,89"/>
<path vector-effect="non-scaling-stroke" fill-rule="evenodd" d="M400,89 L402,89 L402,128 L400,128 L400,89"/>
<path vector-effect="non-scaling-stroke" fill-rule="evenodd" d="M400,128 L402,128 L402,167 L400,167 L400,128"/>
<path vector-effect="non-scaling-stroke" fill-rule="evenodd" d="M400,128 L402,128 L402,167 L400,167 L400,128"/>
<path vector-effect="non-scaling-stroke" fill-rule="evenodd" d="M400,167 L402,167 L402,206 L400,206 L400,167"/>
<path vector-effect="non-scaling-stroke" fill-rule="evenodd" d="M400,167 L402,167 L402,206 L400,206 L400,167"/>
<path vector-effect="non-scaling-stroke" fill-rule="evenodd" d="M400,206 L402,206 L402,247 L400,247 L400,206"/>
<path vector-effect="non-scaling-stroke" fill-rule="evenodd" d="M400,206 L402,206 L402,247 L400,247 L400,206"/>
<path vector-effect="non-scaling-stroke" fill-rule="evenodd" d="M400,245 L402,245 L402,265 L400,265 L400,245"/>
<path vector-effect="non-scaling-stroke" fill-rule="evenodd" d="M400,245 L402,245 L402,265 L400,265 L400,245"/>
<path vector-effect="non-scaling-stroke" fill-rule="evenodd" d="M400,263 L402,263 L402,306 L400,306 L400,263"/>
<path vector-effect="non-scaling-stroke" fill-rule="evenodd" d="M400,263 L402,263 L402,306 L400,306 L400,263"/>
</g>

<g fill="#d1d1d1" fill-opacity="1" stroke="none" transform="matrix(1,0,0,1,0,0)"
font-family="Helvetica" font-size="12" font-weight="400" font-style="normal" 
>
<path vector-effect="non-scaling-stroke" fill-rule="evenodd" d="M343,245 L402,245 L402,247 L343,247 L343,245"/>
<path vector-effect="non-scaling-stroke" fill-rule="evenodd" d="M400,245 L510,245 L510,247 L400,247 L400,245"/>
<path vector-effect="non-scaling-stroke" fill-rule="evenodd" d="M510,245 L624,245 L624,247 L510,247 L510,245"/>
<path vector-effect="non-scaling-stroke" fill-rule="evenodd" d="M624,245 L680,245 L680,247 L624,247 L624,245"/>
<path vector-effect="non-scaling-stroke" fill-rule="evenodd" d="M343,245 L402,245 L402,247 L343,247 L343,245"/>
<path vector-effect="non-scaling-stroke" fill-rule="evenodd" d="M343,263 L402,263 L402,265 L343,265 L343,263"/>
<path vector-effect="non-scaling-stroke" fill-rule="evenodd" d="M400,245 L510,245 L510,247 L400,247 L400,245"/>
<path vector-effect="non-scaling-stroke" fill-rule="evenodd" d="M400,263 L510,263 L510,265 L400,265 L400,263"/>
<path vector-effect="non-scaling-stroke" fill-rule="evenodd" d="M510,245 L624,245 L624,247 L510,247 L510,245"/>
<path vector-effect="non-scaling-stroke" fill-rule="evenodd" d="M510,263 L624,263 L624,265 L510,265 L510,263"/>
<path vector-effect="non-scaling-stroke" fill-rule="evenodd" d="M624,245 L680,245 L680,247 L624,247 L624,245"/>
<path vector-effect="non-scaling-stroke" fill-rule="evenodd" d="M624,263 L680,263 L680,265 L624,265 L624,263"/>
<path vector-effect="non-scaling-stroke" fill-rule="evenodd" d="M343,263 L402,263 L402,265 L343,265 L343,263"/>
<path vector-effect="non-scaling-stroke" fill-rule="evenodd" d="M400,263 L510,263 L510,265 L400,265 L400,263"/>
<path vector-effect="non-scaling-stroke" fill-rule="evenodd" d="M510,263 L624,263 L624,265 L510,265 L510,263"/>
<path vector-effect="non-scaling-stroke" fill-rule="evenodd" d="M624,263 L680,263 L680,265 L624,265 L624,263"/>
</g>

<g fill="#000000" fill-opacity="1" stroke="#000000" stroke-opacity="1" stroke-width="1" stroke-linecap="square" stroke-linejoin="bevel" transform="matrix(1,0,0,1,0,0)"
font-family="Arial" font-size="16" font-weight="400" font-style="normal" 
>
<text fill="#000000" fill-opacity="1" stroke="none" xml:space="preserve" x="411" y="34" font-family="Arial" font-size="16" font-weight="400" font-style="normal" 
 >mfr</text>
<text fill="#000000" fill-opacity="1" stroke="none" xml:space="preserve" x="520" y="34" font-family="Arial" font-size="16" font-weight="400" font-style="normal" 
 >model</text>
<text fill="#000000" fill-opacity="1" stroke="none" xml:space="preserve" x="634" y="34" font-family="Arial" font-size="16" font-weight="400" font-style="normal" 
 >year</text>
</g>

<g fill="#000000" fill-opacity="1" stroke="#000000" stroke-opacity="1" stroke-width="1" stroke-linecap="square" stroke-linejoin="bevel" transform="matrix(1,0,0,1,0,0)"
font-family="Courier New" font-size="16" font-weight="400" font-style="normal" 
>
<text fill="#000000" fill-opacity="1" stroke="none" xml:space="preserve" x="355" y="74" font-family="Courier New" font-size="16" font-weight="400" font-style="normal" 
 >1</text>
</g>

<g fill="#000000" fill-opacity="1" stroke="#000000" stroke-opacity="1" stroke-width="1" stroke-linecap="square" stroke-linejoin="bevel" transform="matrix(1,0,0,1,0,0)"
font-family="Arial" font-size="16" font-weight="400" font-style="normal" 
>
<text fill="#000000" fill-opacity="1" stroke="none" xml:space="preserve" x="412" y="74" font-family="Arial" font-size="16" font-weight="400" font-style="normal" 
 >Ford</text>
<text fill="#000000" fill-opacity="1" stroke="none" xml:space="preserve" x="520" y="74" font-family="Arial" font-size="16" font-weight="400" font-style="normal" 
 >GT</text>
<text fill="#000000" fill-opacity="1" stroke="none" xml:space="preserve" x="634" y="74" font-family="Arial" font-size="16" font-weight="400" font-style="normal" 
 >2017</text>
</g>

<g fill="#000000" fill-opacity="1" stroke="#000000" stroke-opacity="1" stroke-width="1" stroke-linecap="square" stroke-linejoin="bevel" transform="matrix(1,0,0,1,0,0)"
font-family="Courier New" font-size="16" font-weight="400" font-style="normal" 
>
<text fill="#000000" fill-opacity="1" stroke="none" xml:space="preserve" x="355" y="113" font-family="Courier New" font-size="16" font-weight="400" font-style="normal" 
 >2</text>
</g>

<g fill="#000000" fill-opacity="1" stroke="#000000" stroke-opacity="1" stroke-width="1" stroke-linecap="square" stroke-linejoin="bevel" transform="matrix(1,0,0,1,0,0)"
font-family="Arial" font-size="16" font-weight="400" font-style="normal" 
>
<text fill="#000000" fill-opacity="1" stroke="none" xml:space="preserve" x="412" y="113" font-family="Arial" font-size="16" font-weight="400" font-style="normal" 
 >Ferrari</text>
<text fill="#000000" fill-opacity="1" stroke="none" xml:space="preserve" x="520" y="113" font-family="Arial" font-size="16" font-weight="400" font-style="normal" 
 >458 Speciale</text>
<text fill="#000000" fill-opacity="1" stroke="none" xml:space="preserve" x="634" y="113" font-family="Arial" font-size="16" font-weight="400" font-style="normal" 
 >2015</text>
</g>

<g fill="#000000" fill-opacity="1" stroke="#000000" stroke-opacity="1" stroke-width="1" stroke-linecap="square" stroke-linejoin="bevel" transform="matrix(1,0,0,1,0,0)"
font-family="Courier New" font-size="16" font-weight="400" font-style="normal" 
>
<text fill="#000000" fill-opacity="1" stroke="none" xml:space="preserve" x="355" y="152" font-family="Courier New" font-size="16" font-weight="400" font-style="normal" 
 >3</text>
</g>

<g fill="#000000" fill-opacity="1" stroke="#000000" stroke-opacity="1" stroke-width="1" stroke-linecap="square" stroke-linejoin="bevel" transform="matrix(1,0,0,1,0,0)"
font-family="Arial" font-size="16" font-weight="400" font-style="normal" 
>
<text fill="#000000" fill-opacity="1" stroke="none" xml:space="preserve" x="412" y="152" font-family="Arial" font-size="16" font-weight="400" font-style="normal" 
 >Ferrari</text>
<text fill="#000000" fill-opacity="1" stroke="none" xml:space="preserve" x="520" y="152" font-family="Arial" font-size="16" font-weight="400" font-style="normal" 
 >458 Spider</text>
<text fill="#000000" fill-opacity="1" stroke="none" xml:space="preserve" x="634" y="152" font-family="Arial" font-size="16" font-weight="400" font-style="normal" 
 >2015</text>
</g>

<g fill="#000000" fill-opacity="1" stroke="#000000" stroke-opacity="1" stroke-width="1" stroke-linecap="square" stroke-linejoin="bevel" transform="matrix(1,0,0,1,0,0)"
font-family="Courier New" font-size="16" font-weight="400" font-style="normal" 
>
<text fill="#000000" fill-opacity="1" stroke="none" xml:space="preserve" x="355" y="191" font-family="Courier New" font-size="16" font-weight="400" font-style="normal" 
 >4</text>
</g>

<g fill="#000000" fill-opacity="1" stroke="#000000" stroke-opacity="1" stroke-width="1" stroke-linecap="square" stroke-linejoin="bevel" transform="matrix(1,0,0,1,0,0)"
font-family="Arial" font-size="16" font-weight="400" font-style="normal" 
>
<text fill="#000000" fill-opacity="1" stroke="none" xml:space="preserve" x="412" y="191" font-family="Arial" font-size="16" font-weight="400" font-style="normal" 
 >Ferrari</text>
<text fill="#000000" fill-opacity="1" stroke="none" xml:space="preserve" x="520" y="191" font-family="Arial" font-size="16" font-weight="400" font-style="normal" 
 >458 Italia</text>
<text fill="#000000" fill-opacity="1" stroke="none" xml:space="preserve" x="634" y="191" font-family="Arial" font-size="16" font-weight="400" font-style="normal" 
 >2014</text>
</g>

<g fill="#000000" fill-opacity="1" stroke="#000000" stroke-opacity="1" stroke-width="1" stroke-linecap="square" stroke-linejoin="bevel" transform="matrix(1,0,0,1,0,0)"
font-family="Courier New" font-size="16" font-weight="400" font-style="normal" 
>
<text fill="#000000" fill-opacity="1" stroke="none" xml:space="preserve" x="355" y="230" font-family="Courier New" font-size="16" font-weight="400" font-style="normal" 
 >5</text>
</g>

<g fill="#000000" fill-opacity="1" stroke="#000000" stroke-opacity="1" stroke-width="1" stroke-linecap="square" stroke-linejoin="bevel" transform="matrix(1,0,0,1,0,0)"
font-family="Arial" font-size="16" font-weight="400" font-style="normal" 
>
<text fill="#000000" fill-opacity="1" stroke="none" xml:space="preserve" x="412" y="230" font-family="Arial" font-size="16" font-weight="400" font-style="normal" 
 >Ferrari</text>
<text fill="#000000" fill-opacity="1" stroke="none" xml:space="preserve" x="520" y="230" font-family="Arial" font-size="16" font-weight="400" font-style="normal" 
 >488 GTB</text>
<text fill="#000000" fill-opacity="1" stroke="none" xml:space="preserve" x="634" y="230" font-family="Arial" font-size="16" font-weight="400" font-style="normal" 
 >2016</text>
</g>

<g fill="#000000" fill-opacity="1" stroke="#000000" stroke-opacity="1" stroke-width="1" stroke-linecap="square" stroke-linejoin="bevel" transform="matrix(1,0,0,1,0,0)"
font-family="Courier New" font-size="12" font-weight="400" font-style="normal" 
>
<text fill="#000000" fill-opacity="1" stroke="none" xml:space="preserve" x="355" y="258" font-family="Courier New" font-size="12" font-weight="400" font-style="normal" 
 >6..46</text>
</g>

<g fill="#000000" fill-opacity="1" stroke="#000000" stroke-opacity="1" stroke-width="1" stroke-linecap="square" stroke-linejoin="bevel" transform="matrix(1,0,0,1,0,0)"
font-family="Courier New" font-size="16" font-weight="400" font-style="normal" 
>
<text fill="#000000" fill-opacity="1" stroke="none" xml:space="preserve" x="355" y="289" font-family="Courier New" font-size="16" font-weight="400" font-style="normal" 
 >47</text>
</g>

<g fill="#000000" fill-opacity="1" stroke="#000000" stroke-opacity="1" stroke-width="1" stroke-linecap="square" stroke-linejoin="bevel" transform="matrix(1,0,0,1,0,0)"
font-family="Arial" font-size="16" font-weight="400" font-style="normal" 
>
<text fill="#000000" fill-opacity="1" stroke="none" xml:space="preserve" x="412" y="289" font-family="Arial" font-size="16" font-weight="400" font-style="normal" 
 >Rolls-Royce</text>
<text fill="#000000" fill-opacity="1" stroke="none" xml:space="preserve" x="520" y="289" font-family="Arial" font-size="16" font-weight="400" font-style="normal" 
 >Wraith</text>
<text fill="#000000" fill-opacity="1" stroke="none" xml:space="preserve" x="634" y="289" font-family="Arial" font-size="16" font-weight="400" font-style="normal" 
 >2016</text>
</g>
</g>
</svg>
