<?xml version="1.0" encoding="UTF-8" standalone="no"?>
<svg width="361.244mm" height="115.006mm"
 viewBox="0 0 1024 326"
 xmlns="http://www.w3.org/2000/svg" xmlns:xlink="http://www.w3.org/1999/xlink"  version="1.2" baseProfile="tiny">
<title>Qt Svg Document</title>
<desc>Generated with Qt</desc>
<defs>
</defs>
<g fill="none" stroke="black" stroke-width="1" fill-rule="evenodd" stroke-linecap="square" stroke-linejoin="bevel" >

<g fill="#ffffff" fill-opacity="1" stroke="none" transform="matrix(1,0,0,1,0,0)"
font-family="Helvetica" font-size="12" font-weight="400" font-style="normal" 
>
<path vector-effect="non-scaling-stroke" fill-rule="evenodd" d="M0,0 L1024,0 L1024,326 L0,326 L0,0"/>
<path vector-effect="non-scaling-stroke" fill-rule="evenodd" d="M0,0 L1024,0 L1024,326 L0,326 L0,0"/>
<path vector-effect="non-scaling-stroke" fill-rule="evenodd" d="M0,0 L1024,0 L1024,326 L0,326 L0,0"/>
<path vector-effect="non-scaling-stroke" fill-rule="evenodd" d="M426,8 L597,8 L597,318 L426,318 L426,8"/>
<path vector-effect="non-scaling-stroke" fill-rule="evenodd" d="M426,9 L597,9 L597,49 L426,49 L426,9"/>
</g>

<g fill="#f2f2f2" fill-opacity="1" stroke="none" transform="matrix(1,0,0,1,0,0)"
font-family="Helvetica" font-size="12" font-weight="400" font-style="normal" 
>
<path vector-effect="non-scaling-stroke" fill-rule="evenodd" d="M426,88 L597,88 L597,126 L426,126 L426,88"/>
<path vector-effect="non-scaling-stroke" fill-rule="evenodd" d="M426,164 L597,164 L597,202 L426,202 L426,164"/>
<path vector-effect="non-scaling-stroke" fill-rule="evenodd" d="M426,240 L597,240 L597,278 L426,278 L426,240"/>
</g>

<g fill="#a8a8a8" fill-opacity="1" stroke="none" transform="matrix(1,0,0,1,0,0)"
font-family="Helvetica" font-size="12" font-weight="400" font-style="normal" 
>
<path vector-effect="non-scaling-stroke" fill-rule="evenodd" d="M426,8 L597,8 L597,10 L426,10 L426,8"/>
<path vector-effect="non-scaling-stroke" fill-rule="evenodd" d="M426,48 L597,48 L597,50 L426,50 L426,48"/>
<path vector-effect="non-scaling-stroke" fill-rule="evenodd" d="M426,48 L597,48 L597,50 L426,50 L426,48"/>
<path vector-effect="non-scaling-stroke" fill-rule="evenodd" d="M426,316 L597,316 L597,318 L426,318 L426,316"/>
</g>

<g fill="#000000" fill-opacity="1" stroke="#000000" stroke-opacity="1" stroke-width="1" stroke-linecap="square" stroke-linejoin="bevel" transform="matrix(1,0,0,1,0,0)"
font-family="Arial" font-size="16" font-weight="400" font-style="normal" 
>
<text fill="#000000" fill-opacity="1" stroke="none" xml:space="preserve" x="483" y="34" font-family="Arial" font-size="16" font-weight="400" font-style="normal" 
 >value + uncert.</text>
<text fill="#000000" fill-opacity="1" stroke="none" xml:space="preserve" x="481" y="74" font-family="Arial" font-size="16" font-weight="400" font-style="normal" 
 >49.950 ± 0.111</text>
<text fill="#000000" fill-opacity="1" stroke="none" xml:space="preserve" x="481" y="112" font-family="Arial" font-size="16" font-weight="400" font-style="normal" 
 >17.950 ± 2.222</text>
<text fill="#000000" fill-opacity="1" stroke="none" xml:space="preserve" x="481" y="150" font-family="Arial" font-size="16" font-weight="400" font-style="normal" 
 >1.390 ± 33.330</text>
<text fill="#000000" fill-opacity="1" stroke="none" xml:space="preserve" x="436" y="188" font-family="Arial" font-size="16" font-weight="400" font-style="normal" 
 >65100.000 ± 444.400</text>
<text fill="#000000" fill-opacity="1" stroke="none" xml:space="preserve" x="436" y="226" font-family="Arial" font-size="16" font-weight="400" font-style="normal" 
 >1325.810 ± 5550.000</text>
<text fill="#000000" fill-opacity="1" stroke="none" xml:space="preserve" x="538" y="264" font-family="Arial" font-size="16" font-weight="400" font-style="normal" 
 >13.255</text>
<text fill="#000000" fill-opacity="1" stroke="none" xml:space="preserve" x="564" y="302" font-family="Arial" font-size="16" font-weight="400" font-style="normal" 
 >NA</text>
</g>
</g>
</svg>
