<?xml version="1.0" encoding="UTF-8" standalone="no"?>
<svg width="361.244mm" height="88.1944mm"
 viewBox="0 0 1024 250"
 xmlns="http://www.w3.org/2000/svg" xmlns:xlink="http://www.w3.org/1999/xlink"  version="1.2" baseProfile="tiny">
<title>Qt Svg Document</title>
<desc>Generated with Qt</desc>
<defs>
</defs>
<g fill="none" stroke="black" stroke-width="1" fill-rule="evenodd" stroke-linecap="square" stroke-linejoin="bevel" >

<g fill="#ffffff" fill-opacity="1" stroke="none" transform="matrix(1,0,0,1,0,0)"
font-family="Helvetica" font-size="12" font-weight="400" font-style="normal" 
>
<path vector-effect="non-scaling-stroke" fill-rule="evenodd" d="M0,0 L1024,0 L1024,250 L0,250 L0,0"/>
<path vector-effect="non-scaling-stroke" fill-rule="evenodd" d="M0,0 L1024,0 L1024,250 L0,250 L0,0"/>
<path vector-effect="non-scaling-stroke" fill-rule="evenodd" d="M0,0 L1024,0 L1024,250 L0,250 L0,0"/>
<path vector-effect="non-scaling-stroke" fill-rule="evenodd" d="M389,8 L634,8 L634,242 L389,242 L389,8"/>
<path vector-effect="non-scaling-stroke" fill-rule="evenodd" d="M389,9 L475,9 L475,49 L389,49 L389,9"/>
<path vector-effect="non-scaling-stroke" fill-rule="evenodd" d="M475,9 L531,9 L531,49 L475,49 L475,9"/>
<path vector-effect="non-scaling-stroke" fill-rule="evenodd" d="M531,9 L634,9 L634,49 L531,49 L531,9"/>
</g>

<g fill="#f2f2f2" fill-opacity="1" stroke="none" transform="matrix(1,0,0,1,0,0)"
font-family="Helvetica" font-size="12" font-weight="400" font-style="normal" 
>
<path vector-effect="non-scaling-stroke" fill-rule="evenodd" d="M389,88 L475,88 L475,126 L389,126 L389,88"/>
<path vector-effect="non-scaling-stroke" fill-rule="evenodd" d="M475,88 L531,88 L531,126 L475,126 L475,88"/>
<path vector-effect="non-scaling-stroke" fill-rule="evenodd" d="M531,88 L634,88 L634,126 L531,126 L531,88"/>
<path vector-effect="non-scaling-stroke" fill-rule="evenodd" d="M389,164 L475,164 L475,202 L389,202 L389,164"/>
<path vector-effect="non-scaling-stroke" fill-rule="evenodd" d="M475,164 L531,164 L531,202 L475,202 L475,164"/>
<path vector-effect="non-scaling-stroke" fill-rule="evenodd" d="M531,164 L634,164 L634,202 L531,202 L531,164"/>
</g>

<g fill="#a8a8a8" fill-opacity="1" stroke="none" transform="matrix(1,0,0,1,0,0)"
font-family="Helvetica" font-size="12" font-weight="400" font-style="normal" 
>
<path vector-effect="non-scaling-stroke" fill-rule="evenodd" d="M389,8 L475,8 L475,10 L389,10 L389,8"/>
<path vector-effect="non-scaling-stroke" fill-rule="evenodd" d="M475,8 L531,8 L531,10 L475,10 L475,8"/>
<path vector-effect="non-scaling-stroke" fill-rule="evenodd" d="M531,8 L634,8 L634,10 L531,10 L531,8"/>
<path vector-effect="non-scaling-stroke" fill-rule="evenodd" d="M389,48 L475,48 L475,50 L389,50 L389,48"/>
<path vector-effect="non-scaling-stroke" fill-rule="evenodd" d="M475,48 L531,48 L531,50 L475,50 L475,48"/>
<path vector-effect="non-scaling-stroke" fill-rule="evenodd" d="M531,48 L634,48 L634,50 L531,50 L531,48"/>
<path vector-effect="non-scaling-stroke" fill-rule="evenodd" d="M389,48 L475,48 L475,50 L389,50 L389,48"/>
<path vector-effect="non-scaling-stroke" fill-rule="evenodd" d="M475,48 L531,48 L531,50 L475,50 L475,48"/>
<path vector-effect="non-scaling-stroke" fill-rule="evenodd" d="M531,48 L634,48 L634,50 L531,50 L531,48"/>
<path vector-effect="non-scaling-stroke" fill-rule="evenodd" d="M389,240 L475,240 L475,242 L389,242 L389,240"/>
<path vector-effect="non-scaling-stroke" fill-rule="evenodd" d="M475,240 L531,240 L531,242 L475,242 L475,240"/>
<path vector-effect="non-scaling-stroke" fill-rule="evenodd" d="M531,240 L634,240 L634,242 L531,242 L531,240"/>
</g>

<g fill="#000000" fill-opacity="1" stroke="#000000" stroke-opacity="1" stroke-width="1" stroke-linecap="square" stroke-linejoin="bevel" transform="matrix(1,0,0,1,0,0)"
font-family="Arial" font-size="16" font-weight="700" font-style="normal" 
>
<text fill="#000000" fill-opacity="1" stroke="none" xml:space="preserve" x="399" y="34" font-family="Arial" font-size="16" font-weight="700" font-style="normal" 
 >Name</text>
<text fill="#000000" fill-opacity="1" stroke="none" xml:space="preserve" x="486" y="34" font-family="Arial" font-size="16" font-weight="700" font-style="normal" 
 >Year</text>
<text fill="#000000" fill-opacity="1" stroke="none" xml:space="preserve" x="541" y="34" font-family="Arial" font-size="16" font-weight="700" font-style="normal" 
 >Population</text>
</g>

<g fill="#000000" fill-opacity="1" stroke="#000000" stroke-opacity="1" stroke-width="1" stroke-linecap="square" stroke-linejoin="bevel" transform="matrix(1,0,0,1,0,0)"
font-family="Arial" font-size="16" font-weight="400" font-style="normal" 
>
<text fill="#000000" fill-opacity="1" stroke="none" xml:space="preserve" x="399" y="74" font-family="Arial" font-size="16" font-weight="400" font-style="normal" 
 >Mongolia</text>
<text fill="#000000" fill-opacity="1" stroke="none" xml:space="preserve" x="485" y="74" font-family="Arial" font-size="16" font-weight="400" font-style="normal" 
 >2013</text>
<text fill="#000000" fill-opacity="1" stroke="none" xml:space="preserve" x="561" y="74" font-family="Arial" font-size="16" font-weight="400" font-style="normal" 
 >2869107</text>
<text fill="#000000" fill-opacity="1" stroke="none" xml:space="preserve" x="399" y="112" font-family="Arial" font-size="16" font-weight="400" font-style="normal" 
 >Mongolia</text>
<text fill="#000000" fill-opacity="1" stroke="none" xml:space="preserve" x="485" y="112" font-family="Arial" font-size="16" font-weight="400" font-style="normal" 
 >2014</text>
<text fill="#000000" fill-opacity="1" stroke="none" xml:space="preserve" x="561" y="112" font-family="Arial" font-size="16" font-weight="400" font-style="normal" 
 >2923896</text>
<text fill="#000000" fill-opacity="1" stroke="none" xml:space="preserve" x="399" y="150" font-family="Arial" font-size="16" font-weight="400" font-style="normal" 
 >Mongolia</text>
<text fill="#000000" fill-opacity="1" stroke="none" xml:space="preserve" x="485" y="150" font-family="Arial" font-size="16" font-weight="400" font-style="normal" 
 >2015</text>
<text fill="#000000" fill-opacity="1" stroke="none" xml:space="preserve" x="561" y="150" font-family="Arial" font-size="16" font-weight="400" font-style="normal" 
 >2976877</text>
<text fill="#000000" fill-opacity="1" stroke="none" xml:space="preserve" x="399" y="188" font-family="Arial" font-size="16" font-weight="400" font-style="normal" 
 >Mongolia</text>
<text fill="#000000" fill-opacity="1" stroke="none" xml:space="preserve" x="485" y="188" font-family="Arial" font-size="16" font-weight="400" font-style="normal" 
 >2016</text>
<text fill="#000000" fill-opacity="1" stroke="none" xml:space="preserve" x="561" y="188" font-family="Arial" font-size="16" font-weight="400" font-style="normal" 
 >3027398</text>
<text fill="#000000" fill-opacity="1" stroke="none" xml:space="preserve" x="399" y="226" font-family="Arial" font-size="16" font-weight="400" font-style="normal" 
 >Mongolia</text>
<text fill="#000000" fill-opacity="1" stroke="none" xml:space="preserve" x="485" y="226" font-family="Arial" font-size="16" font-weight="400" font-style="normal" 
 >2017</text>
<text fill="#000000" fill-opacity="1" stroke="none" xml:space="preserve" x="561" y="226" font-family="Arial" font-size="16" font-weight="400" font-style="normal" 
 >3075647</text>
</g>
</g>
</svg>
