<?xml version="1.0" encoding="UTF-8" standalone="no"?>
<svg width="361.244mm" height="128.411mm"
 viewBox="0 0 1024 364"
 xmlns="http://www.w3.org/2000/svg" xmlns:xlink="http://www.w3.org/1999/xlink"  version="1.2" baseProfile="tiny">
<title>Qt Svg Document</title>
<desc>Generated with Qt</desc>
<defs>
</defs>
<g fill="none" stroke="black" stroke-width="1" fill-rule="evenodd" stroke-linecap="square" stroke-linejoin="bevel" >

<g fill="#ffffff" fill-opacity="1" stroke="none" transform="matrix(1,0,0,1,0,0)"
font-family="Helvetica" font-size="12" font-weight="400" font-style="normal" 
>
<path vector-effect="non-scaling-stroke" fill-rule="evenodd" d="M0,0 L1024,0 L1024,364 L0,364 L0,0"/>
<path vector-effect="non-scaling-stroke" fill-rule="evenodd" d="M0,0 L1024,0 L1024,364 L0,364 L0,0"/>
<path vector-effect="non-scaling-stroke" fill-rule="evenodd" d="M0,0 L1024,0 L1024,364 L0,364 L0,0"/>
<path vector-effect="non-scaling-stroke" fill-rule="evenodd" d="M407,8 L617,8 L617,356 L407,356 L407,8"/>
<path vector-effect="non-scaling-stroke" fill-rule="evenodd" d="M407,9 L557,9 L557,49 L407,49 L407,9"/>
<path vector-effect="non-scaling-stroke" fill-rule="evenodd" d="M557,9 L617,9 L617,49 L557,49 L557,9"/>
</g>

<g fill="#f2f2f2" fill-opacity="1" stroke="none" transform="matrix(1,0,0,1,0,0)"
font-family="Helvetica" font-size="12" font-weight="400" font-style="normal" 
>
<path vector-effect="non-scaling-stroke" fill-rule="evenodd" d="M407,88 L557,88 L557,126 L407,126 L407,88"/>
<path vector-effect="non-scaling-stroke" fill-rule="evenodd" d="M557,88 L617,88 L617,126 L557,126 L557,88"/>
<path vector-effect="non-scaling-stroke" fill-rule="evenodd" d="M407,164 L557,164 L557,202 L407,202 L407,164"/>
<path vector-effect="non-scaling-stroke" fill-rule="evenodd" d="M557,164 L617,164 L617,202 L557,202 L557,164"/>
<path vector-effect="non-scaling-stroke" fill-rule="evenodd" d="M407,240 L557,240 L557,278 L407,278 L407,240"/>
<path vector-effect="non-scaling-stroke" fill-rule="evenodd" d="M557,240 L617,240 L617,278 L557,278 L557,240"/>
<path vector-effect="non-scaling-stroke" fill-rule="evenodd" d="M407,316 L557,316 L557,355 L407,355 L407,316"/>
<path vector-effect="non-scaling-stroke" fill-rule="evenodd" d="M557,316 L617,316 L617,355 L557,355 L557,316"/>
</g>

<g fill="#a8a8a8" fill-opacity="1" stroke="none" transform="matrix(1,0,0,1,0,0)"
font-family="Helvetica" font-size="12" font-weight="400" font-style="normal" 
>
<path vector-effect="non-scaling-stroke" fill-rule="evenodd" d="M407,8 L557,8 L557,10 L407,10 L407,8"/>
<path vector-effect="non-scaling-stroke" fill-rule="evenodd" d="M557,8 L617,8 L617,10 L557,10 L557,8"/>
<path vector-effect="non-scaling-stroke" fill-rule="evenodd" d="M407,48 L557,48 L557,50 L407,50 L407,48"/>
<path vector-effect="non-scaling-stroke" fill-rule="evenodd" d="M557,48 L617,48 L617,50 L557,50 L557,48"/>
<path vector-effect="non-scaling-stroke" fill-rule="evenodd" d="M407,48 L557,48 L557,50 L407,50 L407,48"/>
<path vector-effect="non-scaling-stroke" fill-rule="evenodd" d="M557,48 L617,48 L617,50 L557,50 L557,48"/>
<path vector-effect="non-scaling-stroke" fill-rule="evenodd" d="M407,354 L557,354 L557,356 L407,356 L407,354"/>
<path vector-effect="non-scaling-stroke" fill-rule="evenodd" d="M557,354 L617,354 L617,356 L557,356 L557,354"/>
</g>

<g fill="#000000" fill-opacity="1" stroke="#000000" stroke-opacity="1" stroke-width="1" stroke-linecap="square" stroke-linejoin="bevel" transform="matrix(1,0,0,1,0,0)"
font-family="Arial" font-size="16" font-weight="400" font-style="normal" 
>
<text fill="#000000" fill-opacity="1" stroke="none" xml:space="preserve" x="417" y="34" font-family="Arial" font-size="16" font-weight="400" font-style="normal" 
 >date</text>
<text fill="#000000" fill-opacity="1" stroke="none" xml:space="preserve" x="567" y="34" font-family="Arial" font-size="16" font-weight="400" font-style="normal" 
 >time</text>
<text fill="#000000" fill-opacity="1" stroke="none" xml:space="preserve" x="417" y="74" font-family="Arial" font-size="16" font-weight="400" font-style="normal" 
 >January 15, 2015</text>
<text fill="#000000" fill-opacity="1" stroke="none" xml:space="preserve" x="567" y="74" font-family="Arial" font-size="16" font-weight="400" font-style="normal" 
 >13:35</text>
<text fill="#000000" fill-opacity="1" stroke="none" xml:space="preserve" x="417" y="112" font-family="Arial" font-size="16" font-weight="400" font-style="normal" 
 >February 15, 2015</text>
<text fill="#000000" fill-opacity="1" stroke="none" xml:space="preserve" x="567" y="112" font-family="Arial" font-size="16" font-weight="400" font-style="normal" 
 >14:40</text>
<text fill="#000000" fill-opacity="1" stroke="none" xml:space="preserve" x="417" y="150" font-family="Arial" font-size="16" font-weight="400" font-style="normal" 
 >March 15, 2015</text>
<text fill="#000000" fill-opacity="1" stroke="none" xml:space="preserve" x="567" y="150" font-family="Arial" font-size="16" font-weight="400" font-style="normal" 
 >15:45</text>
<text fill="#000000" fill-opacity="1" stroke="none" xml:space="preserve" x="417" y="188" font-family="Arial" font-size="16" font-weight="400" font-style="normal" 
 >April 15, 2015</text>
<text fill="#000000" fill-opacity="1" stroke="none" xml:space="preserve" x="567" y="188" font-family="Arial" font-size="16" font-weight="400" font-style="normal" 
 >16:50</text>
<text fill="#000000" fill-opacity="1" stroke="none" xml:space="preserve" x="417" y="226" font-family="Arial" font-size="16" font-weight="400" font-style="normal" 
 >May 15, 2015</text>
<text fill="#000000" fill-opacity="1" stroke="none" xml:space="preserve" x="567" y="226" font-family="Arial" font-size="16" font-weight="400" font-style="normal" 
 >17:55</text>
<text fill="#000000" fill-opacity="1" stroke="none" xml:space="preserve" x="417" y="264" font-family="Arial" font-size="16" font-weight="400" font-style="normal" 
 >June 15, 2015</text>
<text fill="#000000" fill-opacity="1" stroke="none" xml:space="preserve" x="567" y="264" font-family="Arial" font-size="16" font-weight="400" font-style="normal" 
 >NA</text>
<text fill="#000000" fill-opacity="1" stroke="none" xml:space="preserve" x="417" y="302" font-family="Arial" font-size="16" font-weight="400" font-style="normal" 
 >NA</text>
<text fill="#000000" fill-opacity="1" stroke="none" xml:space="preserve" x="567" y="302" font-family="Arial" font-size="16" font-weight="400" font-style="normal" 
 >19:10</text>
<text fill="#000000" fill-opacity="1" stroke="none" xml:space="preserve" x="417" y="340" font-family="Arial" font-size="16" font-weight="400" font-style="normal" 
 >August 15, 2015</text>
<text fill="#000000" fill-opacity="1" stroke="none" xml:space="preserve" x="567" y="340" font-family="Arial" font-size="16" font-weight="400" font-style="normal" 
 >20:20</text>
</g>
</g>
</svg>
