<?xml version="1.0" encoding="UTF-8"?>
<svg width="500px" height="501px" viewBox="0 0 500 501" version="1.1" xmlns="http://www.w3.org/2000/svg" xmlns:xlink="http://www.w3.org/1999/xlink">
    <!-- Generator: Sketch 48.2 (47327) - http://www.bohemiancoding.com/sketch -->
    <title>exibble</title>
    <desc>Created with Sketch.</desc>
    <defs>
        <radialGradient cx="98.3399%" cy="1.66010002%" fx="98.3399%" fy="1.66010002%" r="96.5682336%" gradientTransform="translate(0.983399,0.016601),scale(1.000000,0.995693),rotate(134.876355),translate(-0.983399,-0.016601)" id="radialGradient-1">
            <stop stop-color="#4FD863" offset="0%"></stop>
            <stop stop-color="#7FD88C" offset="33.6814413%"></stop>
            <stop stop-color="#4FD863" offset="100%"></stop>
        </radialGradient>
        <path d="M428.802903,172.747616 C448.167123,186.981898 462.022895,198.330019 470.370219,206.791981 C478.717544,215.253943 488.945118,228.319917 501.052943,245.989901 C510.578294,263.175777 517.052272,276.000324 520.474876,284.463542 C523.89748,292.92676 527.776144,305.701628 532.110868,322.788146 L533.188135,328.015655 L388.226741,361.080421 L312.973228,285.826909 L348.780258,139.913007 L350.840984,140.362302 C368.273714,144.857438 381.121898,148.821361 389.385535,152.254068 C397.649172,155.686776 410.788295,162.517959 428.802903,172.747616 Z" id="path-2"></path>
        <filter x="-2.0%" y="-2.0%" width="104.1%" height="104.1%" filterUnits="objectBoundingBox" id="filter-3">
            <feOffset dx="0" dy="0" in="SourceAlpha" result="shadowOffsetOuter1"></feOffset>
            <feGaussianBlur stdDeviation="1.5" in="shadowOffsetOuter1" result="shadowBlurOuter1"></feGaussianBlur>
            <feColorMatrix values="0 0 0 0 0.352941176   0 0 0 0 0.352941176   0 0 0 0 0.784313725  0 0 0 1 0" type="matrix" in="shadowBlurOuter1"></feColorMatrix>
        </filter>
        <radialGradient cx="98.3399%" cy="1.66010002%" fx="98.3399%" fy="1.66010002%" r="96.5682336%" gradientTransform="translate(0.983399,0.016601),scale(0.978923,1.000000),rotate(135.610232),translate(-0.983399,-0.016601)" id="radialGradient-4">
            <stop stop-color="#FAC115" offset="0%"></stop>
            <stop stop-color="#FFDA6C" offset="33.077567%"></stop>
            <stop stop-color="#FAC115" offset="100%"></stop>
        </radialGradient>
        <path d="M251.59208,348.693376 C270.110422,361.606342 283.350145,371.903642 291.31125,379.585276 C299.272354,387.26691 309.955002,400.052198 323.359193,417.941139 C333.739217,435.27567 340.886284,448.464304 344.800394,457.507043 C348.714504,466.549782 352.940692,479.636693 357.478959,496.767778 L358.343775,500.621149 L212.197991,533.956068 L136.944478,458.702555 L171.663253,317.223299 L175.157706,317.816203 C192.850484,322.336652 206.034664,326.349213 214.710246,329.853885 C223.385829,333.358558 235.679773,339.638388 251.59208,348.693376 Z" id="path-5"></path>
        <filter x="-2.0%" y="-2.1%" width="104.1%" height="104.2%" filterUnits="objectBoundingBox" id="filter-6">
            <feOffset dx="0" dy="0" in="SourceAlpha" result="shadowOffsetOuter1"></feOffset>
            <feGaussianBlur stdDeviation="1.5" in="shadowOffsetOuter1" result="shadowBlurOuter1"></feGaussianBlur>
            <feColorMatrix values="0 0 0 0 0.352941176   0 0 0 0 0.352941176   0 0 0 0 0.784313725  0 0 0 1 0" type="matrix" in="shadowBlurOuter1"></feColorMatrix>
        </filter>
        <radialGradient cx="100%" cy="0%" fx="100%" fy="0%" r="100%" gradientTransform="translate(1.000000,0.000000),scale(0.978292,1.000000),rotate(135.628681),translate(-1.000000,-0.000000)" id="radialGradient-7">
            <stop stop-color="#5A5AC8" offset="0%"></stop>
            <stop stop-color="#7676D1" offset="36.9049202%"></stop>
            <stop stop-color="#5A5AC8" offset="100%"></stop>
        </radialGradient>
        <path d="M251.470416,0.238039245 L272.922863,15.2382041 L293.574281,33.5615056 C301.012733,41.7598205 306.470136,47.9932629 309.946492,52.2618327 C313.422848,56.5304025 318.119944,62.7655318 324.03778,70.9672206 C333.707645,87.4126784 340.379805,99.8624219 344.054259,108.316451 C347.728713,116.770481 352.071238,129.662857 357.081833,146.993581 L213.51897,183.97157 L138.265458,108.718057 L176.620225,-30.0947856 C192.866754,-25.8741428 205.089908,-22.1023528 213.289687,-18.7794158 C221.489467,-15.4564788 234.216376,-9.11732713 251.470416,0.238039245 Z" id="path-8"></path>
        <filter x="-2.1%" y="-2.1%" width="104.1%" height="104.2%" filterUnits="objectBoundingBox" id="filter-9">
            <feOffset dx="0" dy="0" in="SourceAlpha" result="shadowOffsetOuter1"></feOffset>
            <feGaussianBlur stdDeviation="1.5" in="shadowOffsetOuter1" result="shadowBlurOuter1"></feGaussianBlur>
            <feColorMatrix values="0 0 0 0 0.352941176   0 0 0 0 0.352941176   0 0 0 0 0.784313725  0 0 0 1 0" type="matrix" in="shadowBlurOuter1"></feColorMatrix>
        </filter>
        <radialGradient cx="98.3399%" cy="1.66010002%" fx="98.3399%" fy="1.66010002%" r="96.5682336%" gradientTransform="translate(0.983399,0.016601),scale(1.000000,0.996179),rotate(134.890334),translate(-0.983399,-0.016601)" id="radialGradient-10">
            <stop stop-color="#F7596F" offset="0%"></stop>
            <stop stop-color="#F47587" offset="34.5296256%"></stop>
            <stop stop-color="#F7596F" offset="100%"></stop>
        </radialGradient>
        <path d="M77.7075302,174.59548 C95.0973795,186.8869 107.478074,196.743836 114.849615,204.166289 C119.726687,209.077046 127.058887,216.459828 135.632158,227.376597 C138.555461,231.098984 143.221537,237.645144 149.630384,247.015076 C157.715512,261.433294 163.408039,272.364653 166.707966,279.809152 C170.007893,287.253652 173.381453,296.775015 176.828647,308.373243 L181.533804,326.538336 L41.6062895,358.454907 L-33.6472233,283.201394 L0.893285997,142.448575 L4.1911774,143.200029 C21.2110034,148.06008 33.7536292,152.212292 41.819055,155.656664 C49.8844807,159.101036 61.8473058,165.413975 77.7075302,174.59548 Z" id="path-11"></path>
        <filter x="-2.1%" y="-2.1%" width="104.2%" height="104.2%" filterUnits="objectBoundingBox" id="filter-12">
            <feOffset dx="0" dy="0" in="SourceAlpha" result="shadowOffsetOuter1"></feOffset>
            <feGaussianBlur stdDeviation="1.5" in="shadowOffsetOuter1" result="shadowBlurOuter1"></feGaussianBlur>
            <feColorMatrix values="0 0 0 0 0.352941176   0 0 0 0 0.352941176   0 0 0 0 0.784313725  0 0 0 1 0" type="matrix" in="shadowBlurOuter1"></feColorMatrix>
        </filter>
        <path d="M246.586788,176.522169 L172.819303,250.289653 L48.3145429,125.784893 C54.9842833,115.915461 60.0352031,108.797487 63.4673024,104.43097 C66.8994016,100.064454 72.4161412,93.7376363 80.0175209,85.450518 C88.741322,77.0567535 95.4167535,70.9768977 100.043815,67.2109507 C104.670877,63.4450038 111.869379,58.2329212 121.639322,51.5747031 L246.586788,176.522169 Z" id="path-13"></path>
        <filter x="-2.3%" y="-2.3%" width="104.5%" height="104.5%" filterUnits="objectBoundingBox" id="filter-14">
            <feOffset dx="0" dy="0" in="SourceAlpha" result="shadowOffsetOuter1"></feOffset>
            <feGaussianBlur stdDeviation="1.5" in="shadowOffsetOuter1" result="shadowBlurOuter1"></feGaussianBlur>
            <feColorMatrix values="0 0 0 0 0.917647059   0 0 0 0 0.262745098   0 0 0 0 0.68627451  0 0 0 1 0" type="matrix" in="shadowBlurOuter1"></feColorMatrix>
        </filter>
        <path d="M246.586788,376.687577 L172.819303,450.455061 L47.4196128,325.055371 C53.8443159,315.35385 58.9194651,308.111985 62.6450603,303.329776 C66.3706556,298.547567 72.3083601,291.653229 80.4581738,282.646762 C89.2973849,274.348327 95.8702425,268.445478 100.176746,264.938214 C104.48325,261.43095 111.153956,256.548096 120.188864,250.289653 L246.586788,376.687577 Z" id="path-15"></path>
        <filter x="-2.3%" y="-2.2%" width="104.5%" height="104.5%" filterUnits="objectBoundingBox" id="filter-16">
            <feOffset dx="0" dy="0" in="SourceAlpha" result="shadowOffsetOuter1"></feOffset>
            <feGaussianBlur stdDeviation="1.5" in="shadowOffsetOuter1" result="shadowBlurOuter1"></feGaussianBlur>
            <feColorMatrix values="0 0 0 0 0.984313725   0 0 0 0 0.509803922   0 0 0 0 0.168627451  0 0 0 1 0" type="matrix" in="shadowBlurOuter1"></feColorMatrix>
        </filter>
        <path d="M320.354272,250.289653 L246.586788,176.522169 L374.025673,49.0832836 L395.164126,64.0934849 L416.945012,82.4692007 L435.341222,103.281661 L448.92528,121.718645 L320.354272,250.289653 Z" id="path-17"></path>
        <filter x="-2.2%" y="-2.2%" width="104.4%" height="104.5%" filterUnits="objectBoundingBox" id="filter-18">
            <feOffset dx="0" dy="0" in="SourceAlpha" result="shadowOffsetOuter1"></feOffset>
            <feGaussianBlur stdDeviation="1.5" in="shadowOffsetOuter1" result="shadowBlurOuter1"></feGaussianBlur>
            <feColorMatrix values="0 0 0 0 0.466666667   0 0 0 0 0.803921569   0 0 0 0 0.917647059  0 0 0 1 0" type="matrix" in="shadowBlurOuter1"></feColorMatrix>
        </filter>
        <path d="M417.022532,282.987363 C425.509765,291.978438 431.674384,298.853825 435.516391,303.613523 C439.358397,308.373221 444.135697,315.053313 449.848289,323.653798 L320.519506,452.982581 L246.752022,379.215097 L375.690023,250.277095 C385.176015,256.688931 392.122516,261.638687 396.529526,265.126365 C400.936535,268.614042 407.767537,274.567708 417.022532,282.987363 Z" id="path-19"></path>
        <filter x="-2.2%" y="-2.2%" width="104.4%" height="104.4%" filterUnits="objectBoundingBox" id="filter-20">
            <feOffset dx="0" dy="0" in="SourceAlpha" result="shadowOffsetOuter1"></feOffset>
            <feGaussianBlur stdDeviation="1.5" in="shadowOffsetOuter1" result="shadowBlurOuter1"></feGaussianBlur>
            <feColorMatrix values="0 0 0 0 0.647058824   0 0 0 0 0.921568627   0 0 0 0 0.537254902  0 0 0 1 0" type="matrix" in="shadowBlurOuter1"></feColorMatrix>
        </filter>
    </defs>
    <g id="dataset-badges" stroke="none" stroke-width="1" fill="none" fill-rule="evenodd">
        <circle id="Oval-7" fill="#FFFFFF" cx="246.586788" cy="251.439835" r="108.5"></circle>
        <g id="Combined-Shape-Copy-3" transform="translate(423.080681, 250.496714) scale(1, -1) rotate(-315.000000) translate(-423.080681, -250.496714) ">
            <use fill="black" fill-opacity="1" filter="url(#filter-3)" xlink:href="#path-2"></use>
            <use fill="url(#radialGradient-1)" fill-rule="evenodd" xlink:href="#path-2"></use>
        </g>
        <g id="Combined-Shape-Copy-5" transform="translate(247.644127, 425.589683) scale(1, -1) rotate(-45.000000) translate(-247.644127, -425.589683) ">
            <use fill="black" fill-opacity="1" filter="url(#filter-6)" xlink:href="#path-5"></use>
            <use fill="url(#radialGradient-4)" fill-rule="evenodd" xlink:href="#path-5"></use>
        </g>
        <g id="Combined-Shape-Copy-6" transform="translate(247.673645, 76.938392) rotate(-45.000000) translate(-247.673645, -76.938392) ">
            <use fill="black" fill-opacity="1" filter="url(#filter-9)" xlink:href="#path-8"></use>
            <use fill="url(#radialGradient-7)" fill-rule="evenodd" xlink:href="#path-8"></use>
        </g>
        <g id="Combined-Shape-Copy-4" transform="translate(73.943291, 250.451741) scale(-1, -1) rotate(-315.000000) translate(-73.943291, -250.451741) ">
            <use fill="black" fill-opacity="1" filter="url(#filter-12)" xlink:href="#path-11"></use>
            <use fill="url(#radialGradient-10)" fill-rule="evenodd" xlink:href="#path-11"></use>
        </g>
        <g id="Combined-Shape">
            <use fill="black" fill-opacity="1" filter="url(#filter-14)" xlink:href="#path-13"></use>
            <use fill="#EA43AF" fill-rule="evenodd" xlink:href="#path-13"></use>
        </g>
        <g id="Combined-Shape-Copy-2" transform="translate(147.003200, 350.372357) scale(1, -1) translate(-147.003200, -350.372357) ">
            <use fill="black" fill-opacity="1" filter="url(#filter-16)" xlink:href="#path-15"></use>
            <use fill="#FB822B" fill-rule="evenodd" xlink:href="#path-15"></use>
        </g>
        <g id="Combined-Shape">
            <use fill="black" fill-opacity="1" filter="url(#filter-18)" xlink:href="#path-17"></use>
            <use fill="#77CDEA" fill-rule="evenodd" xlink:href="#path-17"></use>
        </g>
        <g id="Combined-Shape-Copy" transform="translate(348.300155, 351.629838) scale(1, -1) translate(-348.300155, -351.629838) ">
            <use fill="black" fill-opacity="1" filter="url(#filter-20)" xlink:href="#path-19"></use>
            <use fill="#A5EB89" fill-rule="evenodd" xlink:href="#path-19"></use>
        </g>
        <circle id="Oval-Copy-7" stroke="#979797" cx="249.855072" cy="251.439835" r="237.5"></circle>
        <circle id="Oval-Copy-8" stroke="#FFFFFF" stroke-width="4" cx="249.855072" cy="251.439835" r="240.33248"></circle>
        <circle id="Oval-Copy-9" stroke="#FFFFFF" cx="249.855072" cy="251.439835" r="238.33248"></circle>
        <path d="M204.059191,246.14296 C203.027936,246.14296 202.228465,246.465874 201.660753,247.11171 C201.093042,247.757547 200.736275,248.632538 200.590441,249.73671 L207.512316,249.73671 C207.439399,248.559621 207.082632,247.666401 206.442003,247.057023 C205.801375,246.447645 205.007112,246.14296 204.059191,246.14296 Z M204.059191,242.471085 C205.475865,242.471085 206.751894,242.736708 207.887316,243.26796 C209.022738,243.799213 209.960229,244.637746 210.699816,245.783585 C211.366486,246.794007 211.798773,247.96587 211.996691,249.29921 C212.111275,250.080464 212.158149,251.205453 212.137316,252.67421 L200.481066,252.67421 C200.543566,254.382552 201.080019,255.580457 202.090441,256.26796 C202.705027,256.695046 203.444603,256.908585 204.309191,256.908585 C205.225862,256.908585 205.970646,256.648171 206.543566,256.127335 C206.856067,255.846084 207.132106,255.455463 207.371691,254.95546 L211.918566,254.95546 C211.803982,255.965882 211.277946,256.991913 210.340441,258.033585 C208.8821,259.689843 206.840454,260.51796 204.215441,260.51796 C202.048763,260.51796 200.137324,259.820051 198.481066,258.42421 C196.824808,257.02837 195.996691,254.757559 195.996691,251.61171 C195.996691,248.663779 196.744079,246.403385 198.238878,244.83046 C199.733678,243.257536 201.673762,242.471085 204.059191,242.471085 Z M211.895441,259.95546 L217.707941,251.33046 L212.145441,242.95546 L217.598566,242.95546 L220.442316,247.89296 L223.223566,242.95546 L228.520441,242.95546 L222.926691,251.252335 L228.739191,259.95546 L223.192316,259.95546 L220.254816,254.846085 L217.301691,259.95546 L211.895441,259.95546 Z M234.372316,240.89296 L229.856691,240.89296 L229.856691,236.783585 L234.372316,236.783585 L234.372316,240.89296 Z M229.856691,242.92421 L234.372316,242.92421 L234.372316,259.95546 L229.856691,259.95546 L229.856691,242.92421 Z M246.317941,242.54921 C248.557535,242.54921 250.310122,243.356494 251.575753,244.971085 C252.841385,246.585677 253.474191,248.668989 253.474191,251.221085 C253.474191,253.866932 252.849197,256.059618 251.599191,257.79921 C250.349185,259.538802 248.60441,260.408585 246.364816,260.408585 C244.958559,260.408585 243.828362,260.127338 242.974191,259.564835 C242.463772,259.2315 241.911694,258.648173 241.317941,257.814835 L241.317941,259.95546 L236.958566,259.95546 L236.958566,236.95546 L241.396066,236.95546 L241.396066,245.14296 C241.958569,244.35129 242.578354,243.747129 243.255441,243.33046 C244.057528,242.809624 245.078351,242.54921 246.317941,242.54921 Z M245.177316,256.73671 C246.323155,256.73671 247.213771,256.273173 247.849191,255.346085 C248.484611,254.418997 248.802316,253.200259 248.802316,251.689835 C248.802316,250.481496 248.646067,249.481506 248.333566,248.689835 C247.739813,247.189828 246.646074,246.439835 245.052316,246.439835 C243.437724,246.439835 242.32836,247.174203 241.724191,248.64296 C241.411689,249.424214 241.255441,250.434621 241.255441,251.67421 C241.255441,253.132551 241.578354,254.340872 242.224191,255.29921 C242.870027,256.257548 243.854392,256.73671 245.177316,256.73671 Z M264.294816,242.54921 C266.53441,242.54921 268.286997,243.356494 269.552628,244.971085 C270.81826,246.585677 271.451066,248.668989 271.451066,251.221085 C271.451066,253.866932 270.826072,256.059618 269.576066,257.79921 C268.326059,259.538802 266.581285,260.408585 264.341691,260.408585 C262.935434,260.408585 261.805237,260.127338 260.951066,259.564835 C260.440647,259.2315 259.888569,258.648173 259.294816,257.814835 L259.294816,259.95546 L254.935441,259.95546 L254.935441,236.95546 L259.372941,236.95546 L259.372941,245.14296 C259.935444,244.35129 260.555229,243.747129 261.232316,243.33046 C262.034403,242.809624 263.055226,242.54921 264.294816,242.54921 Z M263.154191,256.73671 C264.30003,256.73671 265.190646,256.273173 265.826066,255.346085 C266.461486,254.418997 266.779191,253.200259 266.779191,251.689835 C266.779191,250.481496 266.622942,249.481506 266.310441,248.689835 C265.716688,247.189828 264.622949,246.439835 263.029191,246.439835 C261.414599,246.439835 260.305235,247.174203 259.701066,248.64296 C259.388564,249.424214 259.232316,250.434621 259.232316,251.67421 C259.232316,253.132551 259.555229,254.340872 260.201066,255.29921 C260.846902,256.257548 261.831267,256.73671 263.154191,256.73671 Z M277.615441,259.95546 L273.162316,259.95546 L273.162316,236.92421 L277.615441,236.92421 L277.615441,259.95546 Z M287.107941,246.14296 C286.076685,246.14296 285.277214,246.465874 284.709503,247.11171 C284.141792,247.757547 283.785025,248.632538 283.639191,249.73671 L290.561066,249.73671 C290.488149,248.559621 290.131381,247.666401 289.490753,247.057023 C288.850125,246.447645 288.055862,246.14296 287.107941,246.14296 Z M287.107941,242.471085 C288.524614,242.471085 289.800643,242.736708 290.936066,243.26796 C292.071488,243.799213 293.008979,244.637746 293.748566,245.783585 C294.415236,246.794007 294.847523,247.96587 295.045441,249.29921 C295.160025,250.080464 295.206899,251.205453 295.186066,252.67421 L283.529816,252.67421 C283.592316,254.382552 284.128769,255.580457 285.139191,256.26796 C285.753777,256.695046 286.493353,256.908585 287.357941,256.908585 C288.274612,256.908585 289.019396,256.648171 289.592316,256.127335 C289.904817,255.846084 290.180856,255.455463 290.420441,254.95546 L294.967316,254.95546 C294.852732,255.965882 294.326695,256.991913 293.389191,258.033585 C291.93085,259.689843 289.889204,260.51796 287.264191,260.51796 C285.097513,260.51796 283.186074,259.820051 281.529816,258.42421 C279.873557,257.02837 279.045441,254.757559 279.045441,251.61171 C279.045441,248.663779 279.792829,246.403385 281.287628,244.83046 C282.782427,243.257536 284.722512,242.471085 287.107941,242.471085 Z" id="exibble" fill-opacity="0.758406929" fill="#878787"></path>
    </g>
</svg>