<?xml version="1.0" encoding="UTF-8" standalone="no"?>
<svg width="361.244mm" height="88.1944mm"
 viewBox="0 0 1024 250"
 xmlns="http://www.w3.org/2000/svg" xmlns:xlink="http://www.w3.org/1999/xlink"  version="1.2" baseProfile="tiny">
<title>Qt Svg Document</title>
<desc>Generated with Qt</desc>
<defs>
</defs>
<g fill="none" stroke="black" stroke-width="1" fill-rule="evenodd" stroke-linecap="square" stroke-linejoin="bevel" >

<g fill="#ffffff" fill-opacity="1" stroke="none" transform="matrix(1,0,0,1,0,0)"
font-family="Helvetica" font-size="12" font-weight="400" font-style="normal" 
>
<path vector-effect="non-scaling-stroke" fill-rule="evenodd" d="M0,0 L1024,0 L1024,250 L0,250 L0,0"/>
<path vector-effect="non-scaling-stroke" fill-rule="evenodd" d="M0,0 L1024,0 L1024,250 L0,250 L0,0"/>
<path vector-effect="non-scaling-stroke" fill-rule="evenodd" d="M0,0 L1024,0 L1024,250 L0,250 L0,0"/>
<path vector-effect="non-scaling-stroke" fill-rule="evenodd" d="M154,8 L870,8 L870,242 L154,242 L154,8"/>
<path vector-effect="non-scaling-stroke" fill-rule="evenodd" d="M154,9 L213,9 L213,49 L154,49 L154,9"/>
<path vector-effect="non-scaling-stroke" fill-rule="evenodd" d="M213,9 L296,9 L296,49 L213,49 L213,9"/>
<path vector-effect="non-scaling-stroke" fill-rule="evenodd" d="M296,9 L378,9 L378,49 L296,49 L296,9"/>
<path vector-effect="non-scaling-stroke" fill-rule="evenodd" d="M378,9 L460,9 L460,49 L378,49 L378,9"/>
<path vector-effect="non-scaling-stroke" fill-rule="evenodd" d="M460,9 L542,9 L542,49 L460,49 L460,9"/>
<path vector-effect="non-scaling-stroke" fill-rule="evenodd" d="M542,9 L624,9 L624,49 L542,49 L542,9"/>
<path vector-effect="non-scaling-stroke" fill-rule="evenodd" d="M624,9 L706,9 L706,49 L624,49 L624,9"/>
<path vector-effect="non-scaling-stroke" fill-rule="evenodd" d="M706,9 L788,9 L788,49 L706,49 L706,9"/>
<path vector-effect="non-scaling-stroke" fill-rule="evenodd" d="M788,9 L870,9 L870,49 L788,49 L788,9"/>
<path vector-effect="non-scaling-stroke" fill-rule="evenodd" d="M154,49 L213,49 L213,88 L154,88 L154,49"/>
<path vector-effect="non-scaling-stroke" fill-rule="evenodd" d="M154,88 L213,88 L213,126 L154,126 L154,88"/>
</g>

<g fill="#f2f2f2" fill-opacity="1" stroke="none" transform="matrix(1,0,0,1,0,0)"
font-family="Helvetica" font-size="12" font-weight="400" font-style="normal" 
>
<path vector-effect="non-scaling-stroke" fill-rule="evenodd" d="M213,88 L296,88 L296,126 L213,126 L213,88"/>
<path vector-effect="non-scaling-stroke" fill-rule="evenodd" d="M296,88 L378,88 L378,126 L296,126 L296,88"/>
<path vector-effect="non-scaling-stroke" fill-rule="evenodd" d="M378,88 L460,88 L460,126 L378,126 L378,88"/>
<path vector-effect="non-scaling-stroke" fill-rule="evenodd" d="M460,88 L542,88 L542,126 L460,126 L460,88"/>
<path vector-effect="non-scaling-stroke" fill-rule="evenodd" d="M542,88 L624,88 L624,126 L542,126 L542,88"/>
<path vector-effect="non-scaling-stroke" fill-rule="evenodd" d="M624,88 L706,88 L706,126 L624,126 L624,88"/>
<path vector-effect="non-scaling-stroke" fill-rule="evenodd" d="M706,88 L788,88 L788,126 L706,126 L706,88"/>
<path vector-effect="non-scaling-stroke" fill-rule="evenodd" d="M788,88 L870,88 L870,126 L788,126 L788,88"/>
</g>

<g fill="#ffffff" fill-opacity="1" stroke="none" transform="matrix(1,0,0,1,0,0)"
font-family="Helvetica" font-size="12" font-weight="400" font-style="normal" 
>
<path vector-effect="non-scaling-stroke" fill-rule="evenodd" d="M154,126 L213,126 L213,164 L154,164 L154,126"/>
<path vector-effect="non-scaling-stroke" fill-rule="evenodd" d="M154,164 L213,164 L213,202 L154,202 L154,164"/>
</g>

<g fill="#f2f2f2" fill-opacity="1" stroke="none" transform="matrix(1,0,0,1,0,0)"
font-family="Helvetica" font-size="12" font-weight="400" font-style="normal" 
>
<path vector-effect="non-scaling-stroke" fill-rule="evenodd" d="M213,164 L296,164 L296,202 L213,202 L213,164"/>
<path vector-effect="non-scaling-stroke" fill-rule="evenodd" d="M296,164 L378,164 L378,202 L296,202 L296,164"/>
<path vector-effect="non-scaling-stroke" fill-rule="evenodd" d="M378,164 L460,164 L460,202 L378,202 L378,164"/>
<path vector-effect="non-scaling-stroke" fill-rule="evenodd" d="M460,164 L542,164 L542,202 L460,202 L460,164"/>
<path vector-effect="non-scaling-stroke" fill-rule="evenodd" d="M542,164 L624,164 L624,202 L542,202 L542,164"/>
<path vector-effect="non-scaling-stroke" fill-rule="evenodd" d="M624,164 L706,164 L706,202 L624,202 L624,164"/>
<path vector-effect="non-scaling-stroke" fill-rule="evenodd" d="M706,164 L788,164 L788,202 L706,202 L706,164"/>
<path vector-effect="non-scaling-stroke" fill-rule="evenodd" d="M788,164 L870,164 L870,202 L788,202 L788,164"/>
</g>

<g fill="#ffffff" fill-opacity="1" stroke="none" transform="matrix(1,0,0,1,0,0)"
font-family="Helvetica" font-size="12" font-weight="400" font-style="normal" 
>
<path vector-effect="non-scaling-stroke" fill-rule="evenodd" d="M154,202 L213,202 L213,241 L154,241 L154,202"/>
</g>

<g fill="#a8a8a8" fill-opacity="1" stroke="none" transform="matrix(1,0,0,1,0,0)"
font-family="Helvetica" font-size="12" font-weight="400" font-style="normal" 
>
<path vector-effect="non-scaling-stroke" fill-rule="evenodd" d="M154,8 L213,8 L213,10 L154,10 L154,8"/>
<path vector-effect="non-scaling-stroke" fill-rule="evenodd" d="M213,8 L296,8 L296,10 L213,10 L213,8"/>
<path vector-effect="non-scaling-stroke" fill-rule="evenodd" d="M296,8 L378,8 L378,10 L296,10 L296,8"/>
<path vector-effect="non-scaling-stroke" fill-rule="evenodd" d="M378,8 L460,8 L460,10 L378,10 L378,8"/>
<path vector-effect="non-scaling-stroke" fill-rule="evenodd" d="M460,8 L542,8 L542,10 L460,10 L460,8"/>
<path vector-effect="non-scaling-stroke" fill-rule="evenodd" d="M542,8 L624,8 L624,10 L542,10 L542,8"/>
<path vector-effect="non-scaling-stroke" fill-rule="evenodd" d="M624,8 L706,8 L706,10 L624,10 L624,8"/>
<path vector-effect="non-scaling-stroke" fill-rule="evenodd" d="M706,8 L788,8 L788,10 L706,10 L706,8"/>
<path vector-effect="non-scaling-stroke" fill-rule="evenodd" d="M788,8 L870,8 L870,10 L788,10 L788,8"/>
<path vector-effect="non-scaling-stroke" fill-rule="evenodd" d="M154,48 L213,48 L213,50 L154,50 L154,48"/>
<path vector-effect="non-scaling-stroke" fill-rule="evenodd" d="M213,48 L296,48 L296,50 L213,50 L213,48"/>
<path vector-effect="non-scaling-stroke" fill-rule="evenodd" d="M296,48 L378,48 L378,50 L296,50 L296,48"/>
<path vector-effect="non-scaling-stroke" fill-rule="evenodd" d="M378,48 L460,48 L460,50 L378,50 L378,48"/>
<path vector-effect="non-scaling-stroke" fill-rule="evenodd" d="M460,48 L542,48 L542,50 L460,50 L460,48"/>
<path vector-effect="non-scaling-stroke" fill-rule="evenodd" d="M542,48 L624,48 L624,50 L542,50 L542,48"/>
<path vector-effect="non-scaling-stroke" fill-rule="evenodd" d="M624,48 L706,48 L706,50 L624,50 L624,48"/>
<path vector-effect="non-scaling-stroke" fill-rule="evenodd" d="M706,48 L788,48 L788,50 L706,50 L706,48"/>
<path vector-effect="non-scaling-stroke" fill-rule="evenodd" d="M788,48 L870,48 L870,50 L788,50 L788,48"/>
<path vector-effect="non-scaling-stroke" fill-rule="evenodd" d="M154,48 L214,48 L214,50 L154,50 L154,48"/>
<path vector-effect="non-scaling-stroke" fill-rule="evenodd" d="M212,48 L296,48 L296,50 L212,50 L212,48"/>
<path vector-effect="non-scaling-stroke" fill-rule="evenodd" d="M296,48 L378,48 L378,50 L296,50 L296,48"/>
<path vector-effect="non-scaling-stroke" fill-rule="evenodd" d="M378,48 L460,48 L460,50 L378,50 L378,48"/>
<path vector-effect="non-scaling-stroke" fill-rule="evenodd" d="M460,48 L542,48 L542,50 L460,50 L460,48"/>
<path vector-effect="non-scaling-stroke" fill-rule="evenodd" d="M542,48 L624,48 L624,50 L542,50 L542,48"/>
<path vector-effect="non-scaling-stroke" fill-rule="evenodd" d="M624,48 L706,48 L706,50 L624,50 L624,48"/>
<path vector-effect="non-scaling-stroke" fill-rule="evenodd" d="M706,48 L788,48 L788,50 L706,50 L706,48"/>
<path vector-effect="non-scaling-stroke" fill-rule="evenodd" d="M788,48 L870,48 L870,50 L788,50 L788,48"/>
<path vector-effect="non-scaling-stroke" fill-rule="evenodd" d="M154,240 L214,240 L214,242 L154,242 L154,240"/>
<path vector-effect="non-scaling-stroke" fill-rule="evenodd" d="M212,240 L296,240 L296,242 L212,242 L212,240"/>
<path vector-effect="non-scaling-stroke" fill-rule="evenodd" d="M296,240 L378,240 L378,242 L296,242 L296,240"/>
<path vector-effect="non-scaling-stroke" fill-rule="evenodd" d="M378,240 L460,240 L460,242 L378,242 L378,240"/>
<path vector-effect="non-scaling-stroke" fill-rule="evenodd" d="M460,240 L542,240 L542,242 L460,242 L460,240"/>
<path vector-effect="non-scaling-stroke" fill-rule="evenodd" d="M542,240 L624,240 L624,242 L542,242 L542,240"/>
<path vector-effect="non-scaling-stroke" fill-rule="evenodd" d="M624,240 L706,240 L706,242 L624,242 L624,240"/>
<path vector-effect="non-scaling-stroke" fill-rule="evenodd" d="M706,240 L788,240 L788,242 L706,242 L706,240"/>
<path vector-effect="non-scaling-stroke" fill-rule="evenodd" d="M788,240 L870,240 L870,242 L788,242 L788,240"/>
<path vector-effect="non-scaling-stroke" fill-rule="evenodd" d="M212,48 L214,48 L214,88 L212,88 L212,48"/>
<path vector-effect="non-scaling-stroke" fill-rule="evenodd" d="M212,48 L214,48 L214,88 L212,88 L212,48"/>
<path vector-effect="non-scaling-stroke" fill-rule="evenodd" d="M212,88 L214,88 L214,126 L212,126 L212,88"/>
<path vector-effect="non-scaling-stroke" fill-rule="evenodd" d="M212,88 L214,88 L214,126 L212,126 L212,88"/>
<path vector-effect="non-scaling-stroke" fill-rule="evenodd" d="M212,126 L214,126 L214,164 L212,164 L212,126"/>
<path vector-effect="non-scaling-stroke" fill-rule="evenodd" d="M212,126 L214,126 L214,164 L212,164 L212,126"/>
<path vector-effect="non-scaling-stroke" fill-rule="evenodd" d="M212,164 L214,164 L214,202 L212,202 L212,164"/>
<path vector-effect="non-scaling-stroke" fill-rule="evenodd" d="M212,164 L214,164 L214,202 L212,202 L212,164"/>
<path vector-effect="non-scaling-stroke" fill-rule="evenodd" d="M212,202 L214,202 L214,242 L212,242 L212,202"/>
<path vector-effect="non-scaling-stroke" fill-rule="evenodd" d="M212,202 L214,202 L214,242 L212,242 L212,202"/>
</g>

<g fill="#000000" fill-opacity="1" stroke="#000000" stroke-opacity="1" stroke-width="1" stroke-linecap="square" stroke-linejoin="bevel" transform="matrix(1,0,0,1,0,0)"
font-family="Arial" font-size="16" font-weight="400" font-style="normal" 
>
<text fill="#000000" fill-opacity="1" stroke="none" xml:space="preserve" x="250" y="34" font-family="Arial" font-size="16" font-weight="400" font-style="normal" 
 >1980</text>
<text fill="#000000" fill-opacity="1" stroke="none" xml:space="preserve" x="332" y="34" font-family="Arial" font-size="16" font-weight="400" font-style="normal" 
 >1985</text>
<text fill="#000000" fill-opacity="1" stroke="none" xml:space="preserve" x="414" y="34" font-family="Arial" font-size="16" font-weight="400" font-style="normal" 
 >1990</text>
<text fill="#000000" fill-opacity="1" stroke="none" xml:space="preserve" x="496" y="34" font-family="Arial" font-size="16" font-weight="400" font-style="normal" 
 >1995</text>
<text fill="#000000" fill-opacity="1" stroke="none" xml:space="preserve" x="578" y="34" font-family="Arial" font-size="16" font-weight="400" font-style="normal" 
 >2000</text>
<text fill="#000000" fill-opacity="1" stroke="none" xml:space="preserve" x="660" y="34" font-family="Arial" font-size="16" font-weight="400" font-style="normal" 
 >2005</text>
<text fill="#000000" fill-opacity="1" stroke="none" xml:space="preserve" x="742" y="34" font-family="Arial" font-size="16" font-weight="400" font-style="normal" 
 >2010</text>
<text fill="#000000" fill-opacity="1" stroke="none" xml:space="preserve" x="824" y="34" font-family="Arial" font-size="16" font-weight="400" font-style="normal" 
 >2015</text>
<text fill="#000000" fill-opacity="1" stroke="none" xml:space="preserve" x="166" y="74" font-family="Arial" font-size="16" font-weight="400" font-style="normal" 
 >CHN</text>
<text fill="#000000" fill-opacity="1" stroke="none" xml:space="preserve" x="224" y="74" font-family="Arial" font-size="16" font-weight="400" font-style="normal" 
 >981.23M</text>
<text fill="#000000" fill-opacity="1" stroke="none" xml:space="preserve" x="326" y="74" font-family="Arial" font-size="16" font-weight="400" font-style="normal" 
 >1.05B</text>
<text fill="#000000" fill-opacity="1" stroke="none" xml:space="preserve" x="408" y="74" font-family="Arial" font-size="16" font-weight="400" font-style="normal" 
 >1.14B</text>
<text fill="#000000" fill-opacity="1" stroke="none" xml:space="preserve" x="490" y="74" font-family="Arial" font-size="16" font-weight="400" font-style="normal" 
 >1.20B</text>
<text fill="#000000" fill-opacity="1" stroke="none" xml:space="preserve" x="572" y="74" font-family="Arial" font-size="16" font-weight="400" font-style="normal" 
 >1.26B</text>
<text fill="#000000" fill-opacity="1" stroke="none" xml:space="preserve" x="654" y="74" font-family="Arial" font-size="16" font-weight="400" font-style="normal" 
 >1.30B</text>
<text fill="#000000" fill-opacity="1" stroke="none" xml:space="preserve" x="736" y="74" font-family="Arial" font-size="16" font-weight="400" font-style="normal" 
 >1.34B</text>
<text fill="#000000" fill-opacity="1" stroke="none" xml:space="preserve" x="818" y="74" font-family="Arial" font-size="16" font-weight="400" font-style="normal" 
 >1.37B</text>
<text fill="#000000" fill-opacity="1" stroke="none" xml:space="preserve" x="166" y="112" font-family="Arial" font-size="16" font-weight="400" font-style="normal" 
 >IND</text>
<text fill="#000000" fill-opacity="1" stroke="none" xml:space="preserve" x="224" y="112" font-family="Arial" font-size="16" font-weight="400" font-style="normal" 
 >696.78M</text>
<text fill="#000000" fill-opacity="1" stroke="none" xml:space="preserve" x="306" y="112" font-family="Arial" font-size="16" font-weight="400" font-style="normal" 
 >781.67M</text>
<text fill="#000000" fill-opacity="1" stroke="none" xml:space="preserve" x="388" y="112" font-family="Arial" font-size="16" font-weight="400" font-style="normal" 
 >870.13M</text>
<text fill="#000000" fill-opacity="1" stroke="none" xml:space="preserve" x="470" y="112" font-family="Arial" font-size="16" font-weight="400" font-style="normal" 
 >960.48M</text>
<text fill="#000000" fill-opacity="1" stroke="none" xml:space="preserve" x="572" y="112" font-family="Arial" font-size="16" font-weight="400" font-style="normal" 
 >1.05B</text>
<text fill="#000000" fill-opacity="1" stroke="none" xml:space="preserve" x="654" y="112" font-family="Arial" font-size="16" font-weight="400" font-style="normal" 
 >1.14B</text>
<text fill="#000000" fill-opacity="1" stroke="none" xml:space="preserve" x="736" y="112" font-family="Arial" font-size="16" font-weight="400" font-style="normal" 
 >1.23B</text>
<text fill="#000000" fill-opacity="1" stroke="none" xml:space="preserve" x="818" y="112" font-family="Arial" font-size="16" font-weight="400" font-style="normal" 
 >1.31B</text>
<text fill="#000000" fill-opacity="1" stroke="none" xml:space="preserve" x="166" y="150" font-family="Arial" font-size="16" font-weight="400" font-style="normal" 
 >USA</text>
<text fill="#000000" fill-opacity="1" stroke="none" xml:space="preserve" x="224" y="150" font-family="Arial" font-size="16" font-weight="400" font-style="normal" 
 >227.22M</text>
<text fill="#000000" fill-opacity="1" stroke="none" xml:space="preserve" x="306" y="150" font-family="Arial" font-size="16" font-weight="400" font-style="normal" 
 >237.92M</text>
<text fill="#000000" fill-opacity="1" stroke="none" xml:space="preserve" x="388" y="150" font-family="Arial" font-size="16" font-weight="400" font-style="normal" 
 >249.62M</text>
<text fill="#000000" fill-opacity="1" stroke="none" xml:space="preserve" x="470" y="150" font-family="Arial" font-size="16" font-weight="400" font-style="normal" 
 >266.28M</text>
<text fill="#000000" fill-opacity="1" stroke="none" xml:space="preserve" x="552" y="150" font-family="Arial" font-size="16" font-weight="400" font-style="normal" 
 >282.16M</text>
<text fill="#000000" fill-opacity="1" stroke="none" xml:space="preserve" x="634" y="150" font-family="Arial" font-size="16" font-weight="400" font-style="normal" 
 >295.52M</text>
<text fill="#000000" fill-opacity="1" stroke="none" xml:space="preserve" x="716" y="150" font-family="Arial" font-size="16" font-weight="400" font-style="normal" 
 >309.34M</text>
<text fill="#000000" fill-opacity="1" stroke="none" xml:space="preserve" x="798" y="150" font-family="Arial" font-size="16" font-weight="400" font-style="normal" 
 >321.04M</text>
<text fill="#000000" fill-opacity="1" stroke="none" xml:space="preserve" x="166" y="188" font-family="Arial" font-size="16" font-weight="400" font-style="normal" 
 >IDN</text>
<text fill="#000000" fill-opacity="1" stroke="none" xml:space="preserve" x="224" y="188" font-family="Arial" font-size="16" font-weight="400" font-style="normal" 
 >147.49M</text>
<text fill="#000000" fill-opacity="1" stroke="none" xml:space="preserve" x="306" y="188" font-family="Arial" font-size="16" font-weight="400" font-style="normal" 
 >165.01M</text>
<text fill="#000000" fill-opacity="1" stroke="none" xml:space="preserve" x="388" y="188" font-family="Arial" font-size="16" font-weight="400" font-style="normal" 
 >181.44M</text>
<text fill="#000000" fill-opacity="1" stroke="none" xml:space="preserve" x="470" y="188" font-family="Arial" font-size="16" font-weight="400" font-style="normal" 
 >196.96M</text>
<text fill="#000000" fill-opacity="1" stroke="none" xml:space="preserve" x="552" y="188" font-family="Arial" font-size="16" font-weight="400" font-style="normal" 
 >211.54M</text>
<text fill="#000000" fill-opacity="1" stroke="none" xml:space="preserve" x="634" y="188" font-family="Arial" font-size="16" font-weight="400" font-style="normal" 
 >226.71M</text>
<text fill="#000000" fill-opacity="1" stroke="none" xml:space="preserve" x="716" y="188" font-family="Arial" font-size="16" font-weight="400" font-style="normal" 
 >242.52M</text>
<text fill="#000000" fill-opacity="1" stroke="none" xml:space="preserve" x="798" y="188" font-family="Arial" font-size="16" font-weight="400" font-style="normal" 
 >258.16M</text>
<text fill="#000000" fill-opacity="1" stroke="none" xml:space="preserve" x="166" y="226" font-family="Arial" font-size="16" font-weight="400" font-style="normal" 
 >PAK</text>
<text fill="#000000" fill-opacity="1" stroke="none" xml:space="preserve" x="233" y="226" font-family="Arial" font-size="16" font-weight="400" font-style="normal" 
 >78.07M</text>
<text fill="#000000" fill-opacity="1" stroke="none" xml:space="preserve" x="315" y="226" font-family="Arial" font-size="16" font-weight="400" font-style="normal" 
 >92.22M</text>
<text fill="#000000" fill-opacity="1" stroke="none" xml:space="preserve" x="388" y="226" font-family="Arial" font-size="16" font-weight="400" font-style="normal" 
 >107.68M</text>
<text fill="#000000" fill-opacity="1" stroke="none" xml:space="preserve" x="470" y="226" font-family="Arial" font-size="16" font-weight="400" font-style="normal" 
 >122.83M</text>
<text fill="#000000" fill-opacity="1" stroke="none" xml:space="preserve" x="552" y="226" font-family="Arial" font-size="16" font-weight="400" font-style="normal" 
 >138.52M</text>
<text fill="#000000" fill-opacity="1" stroke="none" xml:space="preserve" x="634" y="226" font-family="Arial" font-size="16" font-weight="400" font-style="normal" 
 >153.91M</text>
<text fill="#000000" fill-opacity="1" stroke="none" xml:space="preserve" x="716" y="226" font-family="Arial" font-size="16" font-weight="400" font-style="normal" 
 >170.56M</text>
<text fill="#000000" fill-opacity="1" stroke="none" xml:space="preserve" x="798" y="226" font-family="Arial" font-size="16" font-weight="400" font-style="normal" 
 >189.38M</text>
</g>
</g>
</svg>
