<?xml version="1.0" encoding="UTF-8" standalone="no"?>
<svg width="361.244mm" height="102.306mm"
 viewBox="0 0 1024 290"
 xmlns="http://www.w3.org/2000/svg" xmlns:xlink="http://www.w3.org/1999/xlink"  version="1.2" baseProfile="tiny">
<title>Qt Svg Document</title>
<desc>Generated with Qt</desc>
<defs>
</defs>
<g fill="none" stroke="black" stroke-width="1" fill-rule="evenodd" stroke-linecap="square" stroke-linejoin="bevel" >

<g fill="#ffffff" fill-opacity="1" stroke="none" transform="matrix(1,0,0,1,0,0)"
font-family="Helvetica" font-size="12" font-weight="400" font-style="normal" 
>
<path vector-effect="non-scaling-stroke" fill-rule="evenodd" d="M0,0 L1024,0 L1024,290 L0,290 L0,0"/>
<path vector-effect="non-scaling-stroke" fill-rule="evenodd" d="M0,0 L1024,0 L1024,290 L0,290 L0,0"/>
<path vector-effect="non-scaling-stroke" fill-rule="evenodd" d="M0,0 L1024,0 L1024,290 L0,290 L0,0"/>
<path vector-effect="non-scaling-stroke" fill-rule="evenodd" d="M398,8 L626,8 L626,282 L398,282 L398,8"/>
<path vector-effect="non-scaling-stroke" fill-rule="evenodd" d="M398,9 L626,9 L626,42 L398,42 L398,9"/>
<path vector-effect="non-scaling-stroke" fill-rule="evenodd" d="M398,42 L626,42 L626,47 L398,47 L398,42"/>
<path vector-effect="non-scaling-stroke" fill-rule="evenodd" d="M398,47 L490,47 L490,77 L398,77 L398,47"/>
<path vector-effect="non-scaling-stroke" fill-rule="evenodd" d="M490,47 L558,47 L558,77 L490,77 L490,47"/>
<path vector-effect="non-scaling-stroke" fill-rule="evenodd" d="M558,47 L626,47 L626,77 L558,77 L558,47"/>
</g>

<g fill="#808080" fill-opacity="0.0470588" stroke="none" transform="matrix(1,0,0,1,0,0)"
font-family="Helvetica" font-size="12" font-weight="400" font-style="normal" 
>
<path vector-effect="non-scaling-stroke" fill-rule="evenodd" d="M398,112 L490,112 L490,147 L398,147 L398,112"/>
<path vector-effect="non-scaling-stroke" fill-rule="evenodd" d="M490,112 L558,112 L558,147 L490,147 L490,112"/>
<path vector-effect="non-scaling-stroke" fill-rule="evenodd" d="M558,112 L626,112 L626,147 L558,147 L558,112"/>
<path vector-effect="non-scaling-stroke" fill-rule="evenodd" d="M398,182 L490,182 L490,217 L398,217 L398,182"/>
<path vector-effect="non-scaling-stroke" fill-rule="evenodd" d="M490,182 L558,182 L558,217 L490,217 L490,182"/>
<path vector-effect="non-scaling-stroke" fill-rule="evenodd" d="M558,182 L626,182 L626,217 L558,217 L558,182"/>
</g>

<g fill="#ffffff" fill-opacity="1" stroke="none" transform="matrix(1,0,0,1,0,0)"
font-family="Helvetica" font-size="12" font-weight="400" font-style="normal" 
>
<path vector-effect="non-scaling-stroke" fill-rule="evenodd" d="M398,253 L626,253 L626,281 L398,281 L398,253"/>
</g>

<g fill="#d3d3d3" fill-opacity="1" stroke="none" transform="matrix(1,0,0,1,0,0)"
font-family="Helvetica" font-size="12" font-weight="400" font-style="normal" 
>
<path vector-effect="non-scaling-stroke" fill-rule="evenodd" d="M398,112 L490,112 L490,113 L398,113 L398,112"/>
<path vector-effect="non-scaling-stroke" fill-rule="evenodd" d="M490,112 L558,112 L558,113 L490,113 L490,112"/>
<path vector-effect="non-scaling-stroke" fill-rule="evenodd" d="M558,112 L626,112 L626,113 L558,113 L558,112"/>
<path vector-effect="non-scaling-stroke" fill-rule="evenodd" d="M398,112 L490,112 L490,113 L398,113 L398,112"/>
<path vector-effect="non-scaling-stroke" fill-rule="evenodd" d="M398,147 L490,147 L490,148 L398,148 L398,147"/>
<path vector-effect="non-scaling-stroke" fill-rule="evenodd" d="M490,112 L558,112 L558,113 L490,113 L490,112"/>
<path vector-effect="non-scaling-stroke" fill-rule="evenodd" d="M490,147 L558,147 L558,148 L490,148 L490,147"/>
<path vector-effect="non-scaling-stroke" fill-rule="evenodd" d="M558,112 L626,112 L626,113 L558,113 L558,112"/>
<path vector-effect="non-scaling-stroke" fill-rule="evenodd" d="M558,147 L626,147 L626,148 L558,148 L558,147"/>
<path vector-effect="non-scaling-stroke" fill-rule="evenodd" d="M398,147 L490,147 L490,148 L398,148 L398,147"/>
<path vector-effect="non-scaling-stroke" fill-rule="evenodd" d="M398,182 L490,182 L490,183 L398,183 L398,182"/>
<path vector-effect="non-scaling-stroke" fill-rule="evenodd" d="M490,147 L558,147 L558,148 L490,148 L490,147"/>
<path vector-effect="non-scaling-stroke" fill-rule="evenodd" d="M490,182 L558,182 L558,183 L490,183 L490,182"/>
<path vector-effect="non-scaling-stroke" fill-rule="evenodd" d="M558,147 L626,147 L626,148 L558,148 L558,147"/>
<path vector-effect="non-scaling-stroke" fill-rule="evenodd" d="M558,182 L626,182 L626,183 L558,183 L558,182"/>
<path vector-effect="non-scaling-stroke" fill-rule="evenodd" d="M398,182 L490,182 L490,183 L398,183 L398,182"/>
<path vector-effect="non-scaling-stroke" fill-rule="evenodd" d="M398,217 L490,217 L490,218 L398,218 L398,217"/>
<path vector-effect="non-scaling-stroke" fill-rule="evenodd" d="M490,182 L558,182 L558,183 L490,183 L490,182"/>
<path vector-effect="non-scaling-stroke" fill-rule="evenodd" d="M490,217 L558,217 L558,218 L490,218 L490,217"/>
<path vector-effect="non-scaling-stroke" fill-rule="evenodd" d="M558,182 L626,182 L626,183 L558,183 L558,182"/>
<path vector-effect="non-scaling-stroke" fill-rule="evenodd" d="M558,217 L626,217 L626,218 L558,218 L558,217"/>
<path vector-effect="non-scaling-stroke" fill-rule="evenodd" d="M398,217 L490,217 L490,218 L398,218 L398,217"/>
<path vector-effect="non-scaling-stroke" fill-rule="evenodd" d="M490,217 L558,217 L558,218 L490,218 L490,217"/>
<path vector-effect="non-scaling-stroke" fill-rule="evenodd" d="M558,217 L626,217 L626,218 L558,218 L558,217"/>
</g>

<g fill="#a8a8a8" fill-opacity="1" stroke="none" transform="matrix(1,0,0,1,0,0)"
font-family="Helvetica" font-size="12" font-weight="400" font-style="normal" 
>
<path vector-effect="non-scaling-stroke" fill-rule="evenodd" d="M398,8 L626,8 L626,10 L398,10 L398,8"/>
<path vector-effect="non-scaling-stroke" fill-rule="evenodd" d="M398,280 L626,280 L626,282 L398,282 L398,280"/>
</g>

<g fill="#d3d3d3" fill-opacity="1" stroke="none" transform="matrix(1,0,0,1,0,0)"
font-family="Helvetica" font-size="12" font-weight="400" font-style="normal" 
>
<path vector-effect="non-scaling-stroke" fill-rule="evenodd" d="M398,76 L490,76 L490,78 L398,78 L398,76"/>
<path vector-effect="non-scaling-stroke" fill-rule="evenodd" d="M490,76 L558,76 L558,78 L490,78 L490,76"/>
<path vector-effect="non-scaling-stroke" fill-rule="evenodd" d="M558,76 L626,76 L626,78 L558,78 L558,76"/>
<path vector-effect="non-scaling-stroke" fill-rule="evenodd" d="M398,76 L490,76 L490,78 L398,78 L398,76"/>
<path vector-effect="non-scaling-stroke" fill-rule="evenodd" d="M490,76 L558,76 L558,78 L490,78 L490,76"/>
<path vector-effect="non-scaling-stroke" fill-rule="evenodd" d="M558,76 L626,76 L626,78 L558,78 L558,76"/>
<path vector-effect="non-scaling-stroke" fill-rule="evenodd" d="M398,252 L490,252 L490,254 L398,254 L398,252"/>
<path vector-effect="non-scaling-stroke" fill-rule="evenodd" d="M490,252 L558,252 L558,254 L490,254 L490,252"/>
<path vector-effect="non-scaling-stroke" fill-rule="evenodd" d="M558,252 L626,252 L626,254 L558,254 L558,252"/>
<path vector-effect="non-scaling-stroke" fill-rule="evenodd" d="M398,252 L626,252 L626,254 L398,254 L398,252"/>
<path vector-effect="non-scaling-stroke" fill-rule="evenodd" d="M398,46 L626,46 L626,48 L398,48 L398,46"/>
<path vector-effect="non-scaling-stroke" fill-rule="evenodd" d="M398,46 L490,46 L490,48 L398,48 L398,46"/>
<path vector-effect="non-scaling-stroke" fill-rule="evenodd" d="M490,46 L558,46 L558,48 L490,48 L490,46"/>
<path vector-effect="non-scaling-stroke" fill-rule="evenodd" d="M558,46 L626,46 L626,48 L558,48 L558,46"/>
</g>

<g fill="#333333" fill-opacity="1" stroke="#333333" stroke-opacity="1" stroke-width="1" stroke-linecap="square" stroke-linejoin="bevel" transform="matrix(1,0,0,1,0,0)"
font-family="Arial" font-size="20" font-weight="400" font-style="normal" 
>
<text fill="#333333" fill-opacity="1" stroke="none" xml:space="preserve" x="469.5" y="33" font-family="Arial" font-size="20" font-weight="400" font-style="normal" 
 >S&amp;P 500</text>
</g>

<g fill="#333333" fill-opacity="1" stroke="#333333" stroke-opacity="1" stroke-width="1" stroke-linecap="square" stroke-linejoin="bevel" transform="matrix(1,0,0,1,0,0)"
font-family="Arial" font-size="13" font-weight="400" font-style="italic" 
>
<text fill="#333333" fill-opacity="1" stroke="none" xml:space="preserve" x="547.5" y="26" font-family="Arial" font-size="13" font-weight="400" font-style="italic" 
 >1</text>
</g>

<g fill="#333333" fill-opacity="1" stroke="#333333" stroke-opacity="1" stroke-width="1" stroke-linecap="square" stroke-linejoin="bevel" transform="matrix(1,0,0,1,0,0)"
font-family="Arial" font-size="16" font-weight="400" font-style="normal" 
>
<text fill="#333333" fill-opacity="1" stroke="none" xml:space="preserve" x="403" y="67" font-family="Arial" font-size="16" font-weight="400" font-style="normal" 
 >date</text>
<text fill="#333333" fill-opacity="1" stroke="none" xml:space="preserve" x="517" y="67" font-family="Arial" font-size="16" font-weight="400" font-style="normal" 
 >open</text>
<text fill="#333333" fill-opacity="1" stroke="none" xml:space="preserve" x="583" y="67" font-family="Arial" font-size="16" font-weight="400" font-style="normal" 
 >close</text>
<text fill="#333333" fill-opacity="1" stroke="none" xml:space="preserve" x="403" y="100" font-family="Arial" font-size="16" font-weight="400" font-style="normal" 
 >2015-01-09</text>
<text fill="#333333" fill-opacity="1" stroke="none" xml:space="preserve" x="495" y="100" font-family="Arial" font-size="16" font-weight="400" font-style="normal" 
 >2063.45</text>
<text fill="#333333" fill-opacity="1" stroke="none" xml:space="preserve" x="563" y="100" font-family="Arial" font-size="16" font-weight="400" font-style="normal" 
 >2044.81</text>
<text fill="#333333" fill-opacity="1" stroke="none" xml:space="preserve" x="403" y="135" font-family="Arial" font-size="16" font-weight="400" font-style="normal" 
 >2015-01-08</text>
<text fill="#333333" fill-opacity="1" stroke="none" xml:space="preserve" x="495" y="135" font-family="Arial" font-size="16" font-weight="400" font-style="normal" 
 >2030.61</text>
<text fill="#333333" fill-opacity="1" stroke="none" xml:space="preserve" x="563" y="135" font-family="Arial" font-size="16" font-weight="400" font-style="normal" 
 >2062.14</text>
<text fill="#333333" fill-opacity="1" stroke="none" xml:space="preserve" x="403" y="170" font-family="Arial" font-size="16" font-weight="400" font-style="normal" 
 >2015-01-07</text>
<text fill="#333333" fill-opacity="1" stroke="none" xml:space="preserve" x="495" y="170" font-family="Arial" font-size="16" font-weight="400" font-style="normal" 
 >2005.55</text>
<text fill="#333333" fill-opacity="1" stroke="none" xml:space="preserve" x="563" y="170" font-family="Arial" font-size="16" font-weight="400" font-style="normal" 
 >2025.90</text>
<text fill="#333333" fill-opacity="1" stroke="none" xml:space="preserve" x="403" y="205" font-family="Arial" font-size="16" font-weight="400" font-style="normal" 
 >2015-01-06</text>
<text fill="#333333" fill-opacity="1" stroke="none" xml:space="preserve" x="495" y="205" font-family="Arial" font-size="16" font-weight="400" font-style="normal" 
 >2022.15</text>
<text fill="#333333" fill-opacity="1" stroke="none" xml:space="preserve" x="563" y="205" font-family="Arial" font-size="16" font-weight="400" font-style="normal" 
 >2002.61</text>
<text fill="#333333" fill-opacity="1" stroke="none" xml:space="preserve" x="403" y="240" font-family="Arial" font-size="16" font-weight="400" font-style="normal" 
 >2015-01-05</text>
<text fill="#333333" fill-opacity="1" stroke="none" xml:space="preserve" x="495" y="240" font-family="Arial" font-size="16" font-weight="400" font-style="normal" 
 >2054.44</text>
<text fill="#333333" fill-opacity="1" stroke="none" xml:space="preserve" x="563" y="240" font-family="Arial" font-size="16" font-weight="400" font-style="normal" 
 >2020.58</text>
</g>

<g fill="#333333" fill-opacity="1" stroke="#333333" stroke-opacity="1" stroke-width="1" stroke-linecap="square" stroke-linejoin="bevel" transform="matrix(1,0,0,1,0,0)"
font-family="Arial" font-size="9" font-weight="400" font-style="italic" 
>
<text fill="#333333" fill-opacity="1" stroke="none" xml:space="preserve" x="403" y="267" font-family="Arial" font-size="9" font-weight="400" font-style="italic" 
 >1</text>
<text fill="#333333" fill-opacity="1" stroke="none" xml:space="preserve" x="408" y="267" font-family="Arial" font-size="9" font-weight="400" font-style="italic" 
 > </text>
</g>

<g fill="#333333" fill-opacity="1" stroke="#333333" stroke-opacity="1" stroke-width="1" stroke-linecap="square" stroke-linejoin="bevel" transform="matrix(1,0,0,1,0,0)"
font-family="Arial" font-size="14" font-weight="400" font-style="normal" 
>
<text fill="#333333" fill-opacity="1" stroke="none" xml:space="preserve" x="411" y="272" font-family="Arial" font-size="14" font-weight="400" font-style="normal" 
 >All values in USD. </text>
</g>
</g>
</svg>
