<?xml version="1.0" encoding="UTF-8" standalone="no"?>
<svg width="361.244mm" height="128.411mm"
 viewBox="0 0 1024 364"
 xmlns="http://www.w3.org/2000/svg" xmlns:xlink="http://www.w3.org/1999/xlink"  version="1.2" baseProfile="tiny">
<title>Qt Svg Document</title>
<desc>Generated with Qt</desc>
<defs>
</defs>
<g fill="none" stroke="black" stroke-width="1" fill-rule="evenodd" stroke-linecap="square" stroke-linejoin="bevel" >

<g fill="#ffffff" fill-opacity="1" stroke="none" transform="matrix(1,0,0,1,0,0)"
font-family="Helvetica" font-size="12" font-weight="400" font-style="normal" 
>
<path vector-effect="non-scaling-stroke" fill-rule="evenodd" d="M0,0 L1024,0 L1024,364 L0,364 L0,0"/>
<path vector-effect="non-scaling-stroke" fill-rule="evenodd" d="M0,0 L1024,0 L1024,364 L0,364 L0,0"/>
<path vector-effect="non-scaling-stroke" fill-rule="evenodd" d="M0,0 L1024,0 L1024,364 L0,364 L0,0"/>
<path vector-effect="non-scaling-stroke" fill-rule="evenodd" d="M185,8 L839,8 L839,356 L185,356 L185,8"/>
<path vector-effect="non-scaling-stroke" fill-rule="evenodd" d="M185,9 L278,9 L278,49 L185,49 L185,9"/>
<path vector-effect="non-scaling-stroke" fill-rule="evenodd" d="M278,9 L372,9 L372,49 L278,49 L278,9"/>
<path vector-effect="non-scaling-stroke" fill-rule="evenodd" d="M372,9 L435,9 L435,49 L372,49 L372,9"/>
<path vector-effect="non-scaling-stroke" fill-rule="evenodd" d="M435,9 L537,9 L537,49 L435,49 L435,9"/>
<path vector-effect="non-scaling-stroke" fill-rule="evenodd" d="M537,9 L597,9 L597,49 L537,49 L537,9"/>
<path vector-effect="non-scaling-stroke" fill-rule="evenodd" d="M597,9 L743,9 L743,49 L597,49 L597,9"/>
<path vector-effect="non-scaling-stroke" fill-rule="evenodd" d="M743,9 L839,9 L839,49 L743,49 L743,9"/>
</g>

<g fill="#f2f2f2" fill-opacity="1" stroke="none" transform="matrix(1,0,0,1,0,0)"
font-family="Helvetica" font-size="12" font-weight="400" font-style="normal" 
>
<path vector-effect="non-scaling-stroke" fill-rule="evenodd" d="M185,88 L278,88 L278,126 L185,126 L185,88"/>
<path vector-effect="non-scaling-stroke" fill-rule="evenodd" d="M278,88 L372,88 L372,126 L278,126 L278,88"/>
<path vector-effect="non-scaling-stroke" fill-rule="evenodd" d="M372,88 L435,88 L435,126 L372,126 L372,88"/>
<path vector-effect="non-scaling-stroke" fill-rule="evenodd" d="M435,88 L537,88 L537,126 L435,126 L435,88"/>
<path vector-effect="non-scaling-stroke" fill-rule="evenodd" d="M537,88 L597,88 L597,126 L537,126 L537,88"/>
<path vector-effect="non-scaling-stroke" fill-rule="evenodd" d="M597,88 L743,88 L743,126 L597,126 L597,88"/>
<path vector-effect="non-scaling-stroke" fill-rule="evenodd" d="M743,88 L839,88 L839,126 L743,126 L743,88"/>
<path vector-effect="non-scaling-stroke" fill-rule="evenodd" d="M185,164 L278,164 L278,202 L185,202 L185,164"/>
<path vector-effect="non-scaling-stroke" fill-rule="evenodd" d="M278,164 L372,164 L372,202 L278,202 L278,164"/>
<path vector-effect="non-scaling-stroke" fill-rule="evenodd" d="M372,164 L435,164 L435,202 L372,202 L372,164"/>
<path vector-effect="non-scaling-stroke" fill-rule="evenodd" d="M435,164 L537,164 L537,202 L435,202 L435,164"/>
<path vector-effect="non-scaling-stroke" fill-rule="evenodd" d="M537,164 L597,164 L597,202 L537,202 L537,164"/>
<path vector-effect="non-scaling-stroke" fill-rule="evenodd" d="M597,164 L743,164 L743,202 L597,202 L597,164"/>
<path vector-effect="non-scaling-stroke" fill-rule="evenodd" d="M743,164 L839,164 L839,202 L743,202 L743,164"/>
<path vector-effect="non-scaling-stroke" fill-rule="evenodd" d="M185,240 L278,240 L278,278 L185,278 L185,240"/>
<path vector-effect="non-scaling-stroke" fill-rule="evenodd" d="M278,240 L372,240 L372,278 L278,278 L278,240"/>
<path vector-effect="non-scaling-stroke" fill-rule="evenodd" d="M372,240 L435,240 L435,278 L372,278 L372,240"/>
<path vector-effect="non-scaling-stroke" fill-rule="evenodd" d="M435,240 L537,240 L537,278 L435,278 L435,240"/>
<path vector-effect="non-scaling-stroke" fill-rule="evenodd" d="M537,240 L597,240 L597,278 L537,278 L537,240"/>
<path vector-effect="non-scaling-stroke" fill-rule="evenodd" d="M597,240 L743,240 L743,278 L597,278 L597,240"/>
<path vector-effect="non-scaling-stroke" fill-rule="evenodd" d="M743,240 L839,240 L839,278 L743,278 L743,240"/>
<path vector-effect="non-scaling-stroke" fill-rule="evenodd" d="M185,316 L278,316 L278,355 L185,355 L185,316"/>
<path vector-effect="non-scaling-stroke" fill-rule="evenodd" d="M278,316 L372,316 L372,355 L278,355 L278,316"/>
<path vector-effect="non-scaling-stroke" fill-rule="evenodd" d="M372,316 L435,316 L435,355 L372,355 L372,316"/>
<path vector-effect="non-scaling-stroke" fill-rule="evenodd" d="M435,316 L537,316 L537,355 L435,355 L435,316"/>
<path vector-effect="non-scaling-stroke" fill-rule="evenodd" d="M537,316 L597,316 L597,355 L537,355 L537,316"/>
<path vector-effect="non-scaling-stroke" fill-rule="evenodd" d="M597,316 L743,316 L743,355 L597,355 L597,316"/>
<path vector-effect="non-scaling-stroke" fill-rule="evenodd" d="M743,316 L839,316 L839,355 L743,355 L743,316"/>
</g>

<g fill="#a8a8a8" fill-opacity="1" stroke="none" transform="matrix(1,0,0,1,0,0)"
font-family="Helvetica" font-size="12" font-weight="400" font-style="normal" 
>
<path vector-effect="non-scaling-stroke" fill-rule="evenodd" d="M185,8 L278,8 L278,10 L185,10 L185,8"/>
<path vector-effect="non-scaling-stroke" fill-rule="evenodd" d="M278,8 L372,8 L372,10 L278,10 L278,8"/>
<path vector-effect="non-scaling-stroke" fill-rule="evenodd" d="M372,8 L435,8 L435,10 L372,10 L372,8"/>
<path vector-effect="non-scaling-stroke" fill-rule="evenodd" d="M435,8 L537,8 L537,10 L435,10 L435,8"/>
<path vector-effect="non-scaling-stroke" fill-rule="evenodd" d="M537,8 L597,8 L597,10 L537,10 L537,8"/>
<path vector-effect="non-scaling-stroke" fill-rule="evenodd" d="M597,8 L743,8 L743,10 L597,10 L597,8"/>
<path vector-effect="non-scaling-stroke" fill-rule="evenodd" d="M743,8 L839,8 L839,10 L743,10 L743,8"/>
<path vector-effect="non-scaling-stroke" fill-rule="evenodd" d="M185,48 L278,48 L278,50 L185,50 L185,48"/>
<path vector-effect="non-scaling-stroke" fill-rule="evenodd" d="M278,48 L372,48 L372,50 L278,50 L278,48"/>
<path vector-effect="non-scaling-stroke" fill-rule="evenodd" d="M372,48 L435,48 L435,50 L372,50 L372,48"/>
<path vector-effect="non-scaling-stroke" fill-rule="evenodd" d="M435,48 L537,48 L537,50 L435,50 L435,48"/>
<path vector-effect="non-scaling-stroke" fill-rule="evenodd" d="M537,48 L597,48 L597,50 L537,50 L537,48"/>
<path vector-effect="non-scaling-stroke" fill-rule="evenodd" d="M597,48 L743,48 L743,50 L597,50 L597,48"/>
<path vector-effect="non-scaling-stroke" fill-rule="evenodd" d="M743,48 L839,48 L839,50 L743,50 L743,48"/>
<path vector-effect="non-scaling-stroke" fill-rule="evenodd" d="M185,48 L278,48 L278,50 L185,50 L185,48"/>
<path vector-effect="non-scaling-stroke" fill-rule="evenodd" d="M278,48 L372,48 L372,50 L278,50 L278,48"/>
<path vector-effect="non-scaling-stroke" fill-rule="evenodd" d="M372,48 L435,48 L435,50 L372,50 L372,48"/>
<path vector-effect="non-scaling-stroke" fill-rule="evenodd" d="M435,48 L537,48 L537,50 L435,50 L435,48"/>
<path vector-effect="non-scaling-stroke" fill-rule="evenodd" d="M537,48 L597,48 L597,50 L537,50 L537,48"/>
<path vector-effect="non-scaling-stroke" fill-rule="evenodd" d="M597,48 L743,48 L743,50 L597,50 L597,48"/>
<path vector-effect="non-scaling-stroke" fill-rule="evenodd" d="M743,48 L839,48 L839,50 L743,50 L743,48"/>
<path vector-effect="non-scaling-stroke" fill-rule="evenodd" d="M185,354 L278,354 L278,356 L185,356 L185,354"/>
<path vector-effect="non-scaling-stroke" fill-rule="evenodd" d="M278,354 L372,354 L372,356 L278,356 L278,354"/>
<path vector-effect="non-scaling-stroke" fill-rule="evenodd" d="M372,354 L435,354 L435,356 L372,356 L372,354"/>
<path vector-effect="non-scaling-stroke" fill-rule="evenodd" d="M435,354 L537,354 L537,356 L435,356 L435,354"/>
<path vector-effect="non-scaling-stroke" fill-rule="evenodd" d="M537,354 L597,354 L597,356 L537,356 L537,354"/>
<path vector-effect="non-scaling-stroke" fill-rule="evenodd" d="M597,354 L743,354 L743,356 L597,356 L597,354"/>
<path vector-effect="non-scaling-stroke" fill-rule="evenodd" d="M743,354 L839,354 L839,356 L743,356 L743,354"/>
</g>

<g fill="#000000" fill-opacity="1" stroke="#000000" stroke-opacity="1" stroke-width="1" stroke-linecap="square" stroke-linejoin="bevel" transform="matrix(1,0,0,1,0,0)"
font-family="Arial" font-size="16" font-weight="400" font-style="normal" 
>
<text fill="#000000" fill-opacity="1" stroke="none" xml:space="preserve" x="237" y="34" font-family="Arial" font-size="16" font-weight="400" font-style="normal" 
 >num</text>
<text fill="#000000" fill-opacity="1" stroke="none" xml:space="preserve" x="288" y="34" font-family="Arial" font-size="16" font-weight="400" font-style="normal" 
 >char</text>
<text fill="#000000" fill-opacity="1" stroke="none" xml:space="preserve" x="393" y="34" font-family="Arial" font-size="16" font-weight="400" font-style="normal" 
 >fctr</text>
<text fill="#000000" fill-opacity="1" stroke="none" xml:space="preserve" x="445" y="34" font-family="Arial" font-size="16" font-weight="400" font-style="normal" 
 >date</text>
<text fill="#000000" fill-opacity="1" stroke="none" xml:space="preserve" x="547" y="34" font-family="Arial" font-size="16" font-weight="400" font-style="normal" 
 >time</text>
<text fill="#000000" fill-opacity="1" stroke="none" xml:space="preserve" x="607" y="34" font-family="Arial" font-size="16" font-weight="400" font-style="normal" 
 >datetime</text>
<text fill="#000000" fill-opacity="1" stroke="none" xml:space="preserve" x="768" y="34" font-family="Arial" font-size="16" font-weight="400" font-style="normal" 
 >currency</text>
<text fill="#000000" fill-opacity="1" stroke="none" xml:space="preserve" x="222" y="74" font-family="Arial" font-size="16" font-weight="400" font-style="normal" 
 >'111.1'</text>
<text fill="#000000" fill-opacity="1" stroke="none" xml:space="preserve" x="288" y="74" font-family="Arial" font-size="16" font-weight="400" font-style="normal" 
 >apricot</text>
<text fill="#000000" fill-opacity="1" stroke="none" xml:space="preserve" x="390" y="74" font-family="Arial" font-size="16" font-weight="400" font-style="normal" 
 >one</text>
<text fill="#000000" fill-opacity="1" stroke="none" xml:space="preserve" x="445" y="74" font-family="Arial" font-size="16" font-weight="400" font-style="normal" 
 >2015-01-15</text>
<text fill="#000000" fill-opacity="1" stroke="none" xml:space="preserve" x="547" y="74" font-family="Arial" font-size="16" font-weight="400" font-style="normal" 
 >13:35</text>
<text fill="#000000" fill-opacity="1" stroke="none" xml:space="preserve" x="607" y="74" font-family="Arial" font-size="16" font-weight="400" font-style="normal" 
 >2018-01-01 02:22</text>
<text fill="#000000" fill-opacity="1" stroke="none" xml:space="preserve" x="780" y="74" font-family="Arial" font-size="16" font-weight="400" font-style="normal" 
 >49.950</text>
<text fill="#000000" fill-opacity="1" stroke="none" xml:space="preserve" x="226" y="112" font-family="Arial" font-size="16" font-weight="400" font-style="normal" 
 >'2222'</text>
<text fill="#000000" fill-opacity="1" stroke="none" xml:space="preserve" x="288" y="112" font-family="Arial" font-size="16" font-weight="400" font-style="normal" 
 >banana</text>
<text fill="#000000" fill-opacity="1" stroke="none" xml:space="preserve" x="391" y="112" font-family="Arial" font-size="16" font-weight="400" font-style="normal" 
 >two</text>
<text fill="#000000" fill-opacity="1" stroke="none" xml:space="preserve" x="445" y="112" font-family="Arial" font-size="16" font-weight="400" font-style="normal" 
 >2015-02-15</text>
<text fill="#000000" fill-opacity="1" stroke="none" xml:space="preserve" x="547" y="112" font-family="Arial" font-size="16" font-weight="400" font-style="normal" 
 >14:40</text>
<text fill="#000000" fill-opacity="1" stroke="none" xml:space="preserve" x="607" y="112" font-family="Arial" font-size="16" font-weight="400" font-style="normal" 
 >2018-02-02 14:33</text>
<text fill="#000000" fill-opacity="1" stroke="none" xml:space="preserve" x="780" y="112" font-family="Arial" font-size="16" font-weight="400" font-style="normal" 
 >17.950</text>
<text fill="#000000" fill-opacity="1" stroke="none" xml:space="preserve" x="217" y="150" font-family="Arial" font-size="16" font-weight="400" font-style="normal" 
 >'33330'</text>
<text fill="#000000" fill-opacity="1" stroke="none" xml:space="preserve" x="288" y="150" font-family="Arial" font-size="16" font-weight="400" font-style="normal" 
 >coconut</text>
<text fill="#000000" fill-opacity="1" stroke="none" xml:space="preserve" x="385.5" y="150" font-family="Arial" font-size="16" font-weight="400" font-style="normal" 
 >three</text>
<text fill="#000000" fill-opacity="1" stroke="none" xml:space="preserve" x="445" y="150" font-family="Arial" font-size="16" font-weight="400" font-style="normal" 
 >2015-03-15</text>
<text fill="#000000" fill-opacity="1" stroke="none" xml:space="preserve" x="547" y="150" font-family="Arial" font-size="16" font-weight="400" font-style="normal" 
 >15:45</text>
<text fill="#000000" fill-opacity="1" stroke="none" xml:space="preserve" x="607" y="150" font-family="Arial" font-size="16" font-weight="400" font-style="normal" 
 >2018-03-03 03:44</text>
<text fill="#000000" fill-opacity="1" stroke="none" xml:space="preserve" x="789" y="150" font-family="Arial" font-size="16" font-weight="400" font-style="normal" 
 >1.390</text>
<text fill="#000000" fill-opacity="1" stroke="none" xml:space="preserve" x="208" y="188" font-family="Arial" font-size="16" font-weight="400" font-style="normal" 
 >'444400'</text>
<text fill="#000000" fill-opacity="1" stroke="none" xml:space="preserve" x="288" y="188" font-family="Arial" font-size="16" font-weight="400" font-style="normal" 
 >durian</text>
<text fill="#000000" fill-opacity="1" stroke="none" xml:space="preserve" x="390" y="188" font-family="Arial" font-size="16" font-weight="400" font-style="normal" 
 >four</text>
<text fill="#000000" fill-opacity="1" stroke="none" xml:space="preserve" x="445" y="188" font-family="Arial" font-size="16" font-weight="400" font-style="normal" 
 >2015-04-15</text>
<text fill="#000000" fill-opacity="1" stroke="none" xml:space="preserve" x="547" y="188" font-family="Arial" font-size="16" font-weight="400" font-style="normal" 
 >16:50</text>
<text fill="#000000" fill-opacity="1" stroke="none" xml:space="preserve" x="607" y="188" font-family="Arial" font-size="16" font-weight="400" font-style="normal" 
 >2018-04-04 15:55</text>
<text fill="#000000" fill-opacity="1" stroke="none" xml:space="preserve" x="753" y="188" font-family="Arial" font-size="16" font-weight="400" font-style="normal" 
 >65100.000</text>
<text fill="#000000" fill-opacity="1" stroke="none" xml:space="preserve" x="199" y="226" font-family="Arial" font-size="16" font-weight="400" font-style="normal" 
 >'5550000'</text>
<text fill="#000000" fill-opacity="1" stroke="none" xml:space="preserve" x="288" y="226" font-family="Arial" font-size="16" font-weight="400" font-style="normal" 
 >NA</text>
<text fill="#000000" fill-opacity="1" stroke="none" xml:space="preserve" x="391" y="226" font-family="Arial" font-size="16" font-weight="400" font-style="normal" 
 >five</text>
<text fill="#000000" fill-opacity="1" stroke="none" xml:space="preserve" x="445" y="226" font-family="Arial" font-size="16" font-weight="400" font-style="normal" 
 >2015-05-15</text>
<text fill="#000000" fill-opacity="1" stroke="none" xml:space="preserve" x="547" y="226" font-family="Arial" font-size="16" font-weight="400" font-style="normal" 
 >17:55</text>
<text fill="#000000" fill-opacity="1" stroke="none" xml:space="preserve" x="607" y="226" font-family="Arial" font-size="16" font-weight="400" font-style="normal" 
 >2018-05-05 04:00</text>
<text fill="#000000" fill-opacity="1" stroke="none" xml:space="preserve" x="762" y="226" font-family="Arial" font-size="16" font-weight="400" font-style="normal" 
 >1325.810</text>
<text fill="#000000" fill-opacity="1" stroke="none" xml:space="preserve" x="239" y="264" font-family="Arial" font-size="16" font-weight="400" font-style="normal" 
 >'NA'</text>
<text fill="#000000" fill-opacity="1" stroke="none" xml:space="preserve" x="288" y="264" font-family="Arial" font-size="16" font-weight="400" font-style="normal" 
 >fig</text>
<text fill="#000000" fill-opacity="1" stroke="none" xml:space="preserve" x="393.5" y="264" font-family="Arial" font-size="16" font-weight="400" font-style="normal" 
 >six</text>
<text fill="#000000" fill-opacity="1" stroke="none" xml:space="preserve" x="445" y="264" font-family="Arial" font-size="16" font-weight="400" font-style="normal" 
 >2015-06-15</text>
<text fill="#000000" fill-opacity="1" stroke="none" xml:space="preserve" x="547" y="264" font-family="Arial" font-size="16" font-weight="400" font-style="normal" 
 >NA</text>
<text fill="#000000" fill-opacity="1" stroke="none" xml:space="preserve" x="607" y="264" font-family="Arial" font-size="16" font-weight="400" font-style="normal" 
 >2018-06-06 16:11</text>
<text fill="#000000" fill-opacity="1" stroke="none" xml:space="preserve" x="780" y="264" font-family="Arial" font-size="16" font-weight="400" font-style="normal" 
 >13.255</text>
<text fill="#000000" fill-opacity="1" stroke="none" xml:space="preserve" x="195" y="302" font-family="Arial" font-size="16" font-weight="400" font-style="normal" 
 >'7.77e+08'</text>
<text fill="#000000" fill-opacity="1" stroke="none" xml:space="preserve" x="288" y="302" font-family="Arial" font-size="16" font-weight="400" font-style="normal" 
 >grapefruit</text>
<text fill="#000000" fill-opacity="1" stroke="none" xml:space="preserve" x="382" y="302" font-family="Arial" font-size="16" font-weight="400" font-style="normal" 
 >seven</text>
<text fill="#000000" fill-opacity="1" stroke="none" xml:space="preserve" x="445" y="302" font-family="Arial" font-size="16" font-weight="400" font-style="normal" 
 >NA</text>
<text fill="#000000" fill-opacity="1" stroke="none" xml:space="preserve" x="547" y="302" font-family="Arial" font-size="16" font-weight="400" font-style="normal" 
 >19:10</text>
<text fill="#000000" fill-opacity="1" stroke="none" xml:space="preserve" x="607" y="302" font-family="Arial" font-size="16" font-weight="400" font-style="normal" 
 >2018-07-07 05:22</text>
<text fill="#000000" fill-opacity="1" stroke="none" xml:space="preserve" x="806" y="302" font-family="Arial" font-size="16" font-weight="400" font-style="normal" 
 >NA</text>
<text fill="#000000" fill-opacity="1" stroke="none" xml:space="preserve" x="195" y="340" font-family="Arial" font-size="16" font-weight="400" font-style="normal" 
 >'8.88e+09'</text>
<text fill="#000000" fill-opacity="1" stroke="none" xml:space="preserve" x="288" y="340" font-family="Arial" font-size="16" font-weight="400" font-style="normal" 
 >honeydew</text>
<text fill="#000000" fill-opacity="1" stroke="none" xml:space="preserve" x="386" y="340" font-family="Arial" font-size="16" font-weight="400" font-style="normal" 
 >eight</text>
<text fill="#000000" fill-opacity="1" stroke="none" xml:space="preserve" x="445" y="340" font-family="Arial" font-size="16" font-weight="400" font-style="normal" 
 >2015-08-15</text>
<text fill="#000000" fill-opacity="1" stroke="none" xml:space="preserve" x="547" y="340" font-family="Arial" font-size="16" font-weight="400" font-style="normal" 
 >20:20</text>
<text fill="#000000" fill-opacity="1" stroke="none" xml:space="preserve" x="607" y="340" font-family="Arial" font-size="16" font-weight="400" font-style="normal" 
 >NA</text>
<text fill="#000000" fill-opacity="1" stroke="none" xml:space="preserve" x="789" y="340" font-family="Arial" font-size="16" font-weight="400" font-style="normal" 
 >0.440</text>
</g>
</g>
</svg>
