<?xml version="1.0" encoding="UTF-8" standalone="no"?>
<svg width="361.244mm" height="117.122mm"
 viewBox="0 0 1024 332"
 xmlns="http://www.w3.org/2000/svg" xmlns:xlink="http://www.w3.org/1999/xlink"  version="1.2" baseProfile="tiny">
<title>Qt Svg Document</title>
<desc>Generated with Qt</desc>
<defs>
</defs>
<g fill="none" stroke="black" stroke-width="1" fill-rule="evenodd" stroke-linecap="square" stroke-linejoin="bevel" >

<g fill="#ffffff" fill-opacity="1" stroke="none" transform="matrix(1,0,0,1,0,0)"
font-family="Helvetica" font-size="12" font-weight="400" font-style="normal" 
>
<path vector-effect="non-scaling-stroke" fill-rule="evenodd" d="M0,0 L1024,0 L1024,332 L0,332 L0,0"/>
<path vector-effect="non-scaling-stroke" fill-rule="evenodd" d="M0,0 L1024,0 L1024,332 L0,332 L0,0"/>
<path vector-effect="non-scaling-stroke" fill-rule="evenodd" d="M0,0 L1024,0 L1024,332 L0,332 L0,0"/>
<path vector-effect="non-scaling-stroke" fill-rule="evenodd" d="M157,8 L867,8 L867,324 L157,324 L157,8"/>
<path vector-effect="non-scaling-stroke" fill-rule="evenodd" d="M157,9 L307,9 L307,49 L157,49 L157,9"/>
<path vector-effect="non-scaling-stroke" fill-rule="evenodd" d="M307,9 L407,9 L407,49 L307,49 L307,9"/>
<path vector-effect="non-scaling-stroke" fill-rule="evenodd" d="M407,9 L607,9 L607,49 L407,49 L407,9"/>
<path vector-effect="non-scaling-stroke" fill-rule="evenodd" d="M607,9 L807,9 L807,49 L607,49 L607,9"/>
<path vector-effect="non-scaling-stroke" fill-rule="evenodd" d="M807,9 L867,9 L867,49 L807,49 L807,9"/>
</g>

<g fill="#f2f2f2" fill-opacity="1" stroke="none" transform="matrix(1,0,0,1,0,0)"
font-family="Helvetica" font-size="12" font-weight="400" font-style="normal" 
>
<path vector-effect="non-scaling-stroke" fill-rule="evenodd" d="M157,84 L307,84 L307,118 L157,118 L157,84"/>
<path vector-effect="non-scaling-stroke" fill-rule="evenodd" d="M307,84 L407,84 L407,118 L307,118 L307,84"/>
<path vector-effect="non-scaling-stroke" fill-rule="evenodd" d="M407,84 L607,84 L607,118 L407,118 L407,84"/>
<path vector-effect="non-scaling-stroke" fill-rule="evenodd" d="M607,84 L807,84 L807,118 L607,118 L607,84"/>
<path vector-effect="non-scaling-stroke" fill-rule="evenodd" d="M807,84 L867,84 L867,118 L807,118 L807,84"/>
<path vector-effect="non-scaling-stroke" fill-rule="evenodd" d="M157,152 L307,152 L307,186 L157,186 L157,152"/>
<path vector-effect="non-scaling-stroke" fill-rule="evenodd" d="M307,152 L407,152 L407,186 L307,186 L307,152"/>
<path vector-effect="non-scaling-stroke" fill-rule="evenodd" d="M407,152 L607,152 L607,186 L407,186 L407,152"/>
<path vector-effect="non-scaling-stroke" fill-rule="evenodd" d="M607,152 L807,152 L807,186 L607,186 L607,152"/>
<path vector-effect="non-scaling-stroke" fill-rule="evenodd" d="M807,152 L867,152 L867,186 L807,186 L807,152"/>
<path vector-effect="non-scaling-stroke" fill-rule="evenodd" d="M157,220 L307,220 L307,254 L157,254 L157,220"/>
<path vector-effect="non-scaling-stroke" fill-rule="evenodd" d="M307,220 L407,220 L407,254 L307,254 L307,220"/>
<path vector-effect="non-scaling-stroke" fill-rule="evenodd" d="M407,220 L607,220 L607,254 L407,254 L407,220"/>
<path vector-effect="non-scaling-stroke" fill-rule="evenodd" d="M607,220 L807,220 L807,254 L607,254 L607,220"/>
<path vector-effect="non-scaling-stroke" fill-rule="evenodd" d="M807,220 L867,220 L867,254 L807,254 L807,220"/>
<path vector-effect="non-scaling-stroke" fill-rule="evenodd" d="M157,288 L307,288 L307,323 L157,323 L157,288"/>
<path vector-effect="non-scaling-stroke" fill-rule="evenodd" d="M307,288 L407,288 L407,323 L307,323 L307,288"/>
<path vector-effect="non-scaling-stroke" fill-rule="evenodd" d="M407,288 L607,288 L607,323 L407,323 L407,288"/>
<path vector-effect="non-scaling-stroke" fill-rule="evenodd" d="M607,288 L807,288 L807,323 L607,323 L607,288"/>
<path vector-effect="non-scaling-stroke" fill-rule="evenodd" d="M807,288 L867,288 L867,323 L807,323 L807,288"/>
</g>

<g fill="#a8a8a8" fill-opacity="1" stroke="none" transform="matrix(1,0,0,1,0,0)"
font-family="Helvetica" font-size="12" font-weight="400" font-style="normal" 
>
<path vector-effect="non-scaling-stroke" fill-rule="evenodd" d="M157,8 L307,8 L307,10 L157,10 L157,8"/>
<path vector-effect="non-scaling-stroke" fill-rule="evenodd" d="M307,8 L407,8 L407,10 L307,10 L307,8"/>
<path vector-effect="non-scaling-stroke" fill-rule="evenodd" d="M407,8 L607,8 L607,10 L407,10 L407,8"/>
<path vector-effect="non-scaling-stroke" fill-rule="evenodd" d="M607,8 L807,8 L807,10 L607,10 L607,8"/>
<path vector-effect="non-scaling-stroke" fill-rule="evenodd" d="M807,8 L867,8 L867,10 L807,10 L807,8"/>
<path vector-effect="non-scaling-stroke" fill-rule="evenodd" d="M157,48 L307,48 L307,50 L157,50 L157,48"/>
<path vector-effect="non-scaling-stroke" fill-rule="evenodd" d="M307,48 L407,48 L407,50 L307,50 L307,48"/>
<path vector-effect="non-scaling-stroke" fill-rule="evenodd" d="M407,48 L607,48 L607,50 L407,50 L407,48"/>
<path vector-effect="non-scaling-stroke" fill-rule="evenodd" d="M607,48 L807,48 L807,50 L607,50 L607,48"/>
<path vector-effect="non-scaling-stroke" fill-rule="evenodd" d="M807,48 L867,48 L867,50 L807,50 L807,48"/>
<path vector-effect="non-scaling-stroke" fill-rule="evenodd" d="M157,48 L307,48 L307,50 L157,50 L157,48"/>
<path vector-effect="non-scaling-stroke" fill-rule="evenodd" d="M307,48 L407,48 L407,50 L307,50 L307,48"/>
<path vector-effect="non-scaling-stroke" fill-rule="evenodd" d="M407,48 L607,48 L607,50 L407,50 L407,48"/>
<path vector-effect="non-scaling-stroke" fill-rule="evenodd" d="M607,48 L807,48 L807,50 L607,50 L607,48"/>
<path vector-effect="non-scaling-stroke" fill-rule="evenodd" d="M807,48 L867,48 L867,50 L807,50 L807,48"/>
<path vector-effect="non-scaling-stroke" fill-rule="evenodd" d="M157,322 L307,322 L307,324 L157,324 L157,322"/>
<path vector-effect="non-scaling-stroke" fill-rule="evenodd" d="M307,322 L407,322 L407,324 L307,324 L307,322"/>
<path vector-effect="non-scaling-stroke" fill-rule="evenodd" d="M407,322 L607,322 L607,324 L407,324 L407,322"/>
<path vector-effect="non-scaling-stroke" fill-rule="evenodd" d="M607,322 L807,322 L807,324 L607,324 L607,322"/>
<path vector-effect="non-scaling-stroke" fill-rule="evenodd" d="M807,322 L867,322 L867,324 L807,324 L807,322"/>
</g>

<g fill="#000000" fill-opacity="1" stroke="#000000" stroke-opacity="1" stroke-width="1" stroke-linecap="square" stroke-linejoin="bevel" transform="matrix(1,0,0,1,0,0)"
font-family="Arial" font-size="16" font-weight="400" font-style="normal" 
>
<text fill="#000000" fill-opacity="1" stroke="none" xml:space="preserve" x="266" y="34" font-family="Arial" font-size="16" font-weight="400" font-style="normal" 
 >num</text>
<text fill="#000000" fill-opacity="1" stroke="none" xml:space="preserve" x="317" y="34" font-family="Arial" font-size="16" font-weight="400" font-style="normal" 
 >char</text>
<text fill="#000000" fill-opacity="1" stroke="none" xml:space="preserve" x="417" y="34" font-family="Arial" font-size="16" font-weight="400" font-style="normal" 
 >date</text>
<text fill="#000000" fill-opacity="1" stroke="none" xml:space="preserve" x="617" y="34" font-family="Arial" font-size="16" font-weight="400" font-style="normal" 
 >datetime</text>
<text fill="#000000" fill-opacity="1" stroke="none" xml:space="preserve" x="817" y="34" font-family="Arial" font-size="16" font-weight="400" font-style="normal" 
 >row</text>
<text fill="#000000" fill-opacity="1" stroke="none" xml:space="preserve" x="227" y="72" font-family="Arial" font-size="16" font-weight="400" font-style="normal" 
 >1.111e-01</text>
<text fill="#000000" fill-opacity="1" stroke="none" xml:space="preserve" x="315" y="72" font-family="Arial" font-size="16" font-weight="400" font-style="normal" 
 >apricot</text>
<text fill="#000000" fill-opacity="1" stroke="none" xml:space="preserve" x="415" y="72" font-family="Arial" font-size="16" font-weight="400" font-style="normal" 
 >2015-01-15</text>
<text fill="#000000" fill-opacity="1" stroke="none" xml:space="preserve" x="615" y="72" font-family="Arial" font-size="16" font-weight="400" font-style="normal" 
 >2018-01-01 02:22</text>
<text fill="#000000" fill-opacity="1" stroke="none" xml:space="preserve" x="815" y="72" font-family="Arial" font-size="16" font-weight="400" font-style="normal" 
 >row_1</text>
<text fill="#000000" fill-opacity="1" stroke="none" xml:space="preserve" x="223" y="106" font-family="Arial" font-size="16" font-weight="400" font-style="normal" 
 >2.222e+00</text>
<text fill="#000000" fill-opacity="1" stroke="none" xml:space="preserve" x="315" y="106" font-family="Arial" font-size="16" font-weight="400" font-style="normal" 
 >banana</text>
<text fill="#000000" fill-opacity="1" stroke="none" xml:space="preserve" x="415" y="106" font-family="Arial" font-size="16" font-weight="400" font-style="normal" 
 >2015-02-15</text>
<text fill="#000000" fill-opacity="1" stroke="none" xml:space="preserve" x="615" y="106" font-family="Arial" font-size="16" font-weight="400" font-style="normal" 
 >2018-02-02 14:33</text>
<text fill="#000000" fill-opacity="1" stroke="none" xml:space="preserve" x="815" y="106" font-family="Arial" font-size="16" font-weight="400" font-style="normal" 
 >row_2</text>
<text fill="#000000" fill-opacity="1" stroke="none" xml:space="preserve" x="223" y="140" font-family="Arial" font-size="16" font-weight="400" font-style="normal" 
 >3.333e+01</text>
<text fill="#000000" fill-opacity="1" stroke="none" xml:space="preserve" x="315" y="140" font-family="Arial" font-size="16" font-weight="400" font-style="normal" 
 >coconut</text>
<text fill="#000000" fill-opacity="1" stroke="none" xml:space="preserve" x="415" y="140" font-family="Arial" font-size="16" font-weight="400" font-style="normal" 
 >2015-03-15</text>
<text fill="#000000" fill-opacity="1" stroke="none" xml:space="preserve" x="615" y="140" font-family="Arial" font-size="16" font-weight="400" font-style="normal" 
 >2018-03-03 03:44</text>
<text fill="#000000" fill-opacity="1" stroke="none" xml:space="preserve" x="815" y="140" font-family="Arial" font-size="16" font-weight="400" font-style="normal" 
 >row_3</text>
<text fill="#000000" fill-opacity="1" stroke="none" xml:space="preserve" x="223" y="174" font-family="Arial" font-size="16" font-weight="400" font-style="normal" 
 >4.444e+02</text>
<text fill="#000000" fill-opacity="1" stroke="none" xml:space="preserve" x="315" y="174" font-family="Arial" font-size="16" font-weight="400" font-style="normal" 
 >durian</text>
<text fill="#000000" fill-opacity="1" stroke="none" xml:space="preserve" x="415" y="174" font-family="Arial" font-size="16" font-weight="400" font-style="normal" 
 >2015-04-15</text>
<text fill="#000000" fill-opacity="1" stroke="none" xml:space="preserve" x="615" y="174" font-family="Arial" font-size="16" font-weight="400" font-style="normal" 
 >2018-04-04 15:55</text>
<text fill="#000000" fill-opacity="1" stroke="none" xml:space="preserve" x="815" y="174" font-family="Arial" font-size="16" font-weight="400" font-style="normal" 
 >row_4</text>
<text fill="#000000" fill-opacity="1" stroke="none" xml:space="preserve" x="223" y="208" font-family="Arial" font-size="16" font-weight="400" font-style="normal" 
 >5.550e+03</text>
<text fill="#000000" fill-opacity="1" stroke="none" xml:space="preserve" x="315" y="208" font-family="Arial" font-size="16" font-weight="400" font-style="normal" 
 >NA</text>
<text fill="#000000" fill-opacity="1" stroke="none" xml:space="preserve" x="415" y="208" font-family="Arial" font-size="16" font-weight="400" font-style="normal" 
 >2015-05-15</text>
<text fill="#000000" fill-opacity="1" stroke="none" xml:space="preserve" x="615" y="208" font-family="Arial" font-size="16" font-weight="400" font-style="normal" 
 >2018-05-05 04:00</text>
<text fill="#000000" fill-opacity="1" stroke="none" xml:space="preserve" x="815" y="208" font-family="Arial" font-size="16" font-weight="400" font-style="normal" 
 >row_5</text>
<text fill="#000000" fill-opacity="1" stroke="none" xml:space="preserve" x="276" y="242" font-family="Arial" font-size="16" font-weight="400" font-style="normal" 
 >NA</text>
<text fill="#000000" fill-opacity="1" stroke="none" xml:space="preserve" x="315" y="242" font-family="Arial" font-size="16" font-weight="400" font-style="normal" 
 >fig</text>
<text fill="#000000" fill-opacity="1" stroke="none" xml:space="preserve" x="415" y="242" font-family="Arial" font-size="16" font-weight="400" font-style="normal" 
 >2015-06-15</text>
<text fill="#000000" fill-opacity="1" stroke="none" xml:space="preserve" x="615" y="242" font-family="Arial" font-size="16" font-weight="400" font-style="normal" 
 >2018-06-06 16:11</text>
<text fill="#000000" fill-opacity="1" stroke="none" xml:space="preserve" x="815" y="242" font-family="Arial" font-size="16" font-weight="400" font-style="normal" 
 >row_6</text>
<text fill="#000000" fill-opacity="1" stroke="none" xml:space="preserve" x="223" y="276" font-family="Arial" font-size="16" font-weight="400" font-style="normal" 
 >7.770e+05</text>
<text fill="#000000" fill-opacity="1" stroke="none" xml:space="preserve" x="315" y="276" font-family="Arial" font-size="16" font-weight="400" font-style="normal" 
 >grapefruit</text>
<text fill="#000000" fill-opacity="1" stroke="none" xml:space="preserve" x="415" y="276" font-family="Arial" font-size="16" font-weight="400" font-style="normal" 
 >NA</text>
<text fill="#000000" fill-opacity="1" stroke="none" xml:space="preserve" x="615" y="276" font-family="Arial" font-size="16" font-weight="400" font-style="normal" 
 >2018-07-07 05:22</text>
<text fill="#000000" fill-opacity="1" stroke="none" xml:space="preserve" x="815" y="276" font-family="Arial" font-size="16" font-weight="400" font-style="normal" 
 >row_7</text>
<text fill="#000000" fill-opacity="1" stroke="none" xml:space="preserve" x="223" y="310" font-family="Arial" font-size="16" font-weight="400" font-style="normal" 
 >8.880e+06</text>
<text fill="#000000" fill-opacity="1" stroke="none" xml:space="preserve" x="315" y="310" font-family="Arial" font-size="16" font-weight="400" font-style="normal" 
 >honeydew</text>
<text fill="#000000" fill-opacity="1" stroke="none" xml:space="preserve" x="415" y="310" font-family="Arial" font-size="16" font-weight="400" font-style="normal" 
 >2015-08-15</text>
<text fill="#000000" fill-opacity="1" stroke="none" xml:space="preserve" x="615" y="310" font-family="Arial" font-size="16" font-weight="400" font-style="normal" 
 >NA</text>
<text fill="#000000" fill-opacity="1" stroke="none" xml:space="preserve" x="815" y="310" font-family="Arial" font-size="16" font-weight="400" font-style="normal" 
 >row_8</text>
</g>
</g>
</svg>
