<?xml version="1.0" encoding="UTF-8" standalone="no"?>
<svg width="361.244mm" height="155.222mm"
 viewBox="0 0 1024 440"
 xmlns="http://www.w3.org/2000/svg" xmlns:xlink="http://www.w3.org/1999/xlink"  version="1.2" baseProfile="tiny">
<title>Qt Svg Document</title>
<desc>Generated with Qt</desc>
<defs>
</defs>
<g fill="none" stroke="black" stroke-width="1" fill-rule="evenodd" stroke-linecap="square" stroke-linejoin="bevel" >

<g fill="#ffffff" fill-opacity="1" stroke="none" transform="matrix(1,0,0,1,0,0)"
font-family="Helvetica" font-size="12" font-weight="400" font-style="normal" 
>
<path vector-effect="non-scaling-stroke" fill-rule="evenodd" d="M0,0 L1024,0 L1024,440 L0,440 L0,0"/>
<path vector-effect="non-scaling-stroke" fill-rule="evenodd" d="M0,0 L1024,0 L1024,440 L0,440 L0,0"/>
<path vector-effect="non-scaling-stroke" fill-rule="evenodd" d="M0,0 L1024,0 L1024,440 L0,440 L0,0"/>
<path vector-effect="non-scaling-stroke" fill-rule="evenodd" d="M376,8 L648,8 L648,432 L376,432 L376,8"/>
<path vector-effect="non-scaling-stroke" fill-rule="evenodd" d="M376,9 L497,9 L497,49 L376,49 L376,9"/>
<path vector-effect="non-scaling-stroke" fill-rule="evenodd" d="M497,9 L553,9 L553,49 L497,49 L497,9"/>
<path vector-effect="non-scaling-stroke" fill-rule="evenodd" d="M553,9 L648,9 L648,49 L553,49 L553,9"/>
</g>

<g fill="#ff9f00" fill-opacity="1" stroke="none" transform="matrix(1,0,0,1,0,0)"
font-family="Helvetica" font-size="12" font-weight="400" font-style="normal" 
>
<path vector-effect="non-scaling-stroke" fill-rule="evenodd" d="M553,49 L648,49 L648,88 L553,88 L553,49"/>
</g>

<g fill="#f2f2f2" fill-opacity="1" stroke="none" transform="matrix(1,0,0,1,0,0)"
font-family="Helvetica" font-size="12" font-weight="400" font-style="normal" 
>
<path vector-effect="non-scaling-stroke" fill-rule="evenodd" d="M376,88 L497,88 L497,126 L376,126 L376,88"/>
<path vector-effect="non-scaling-stroke" fill-rule="evenodd" d="M497,88 L553,88 L553,126 L497,126 L497,88"/>
<path vector-effect="non-scaling-stroke" fill-rule="evenodd" d="M553,88 L648,88 L648,126 L553,126 L553,88"/>
</g>

<g fill="#ffa500" fill-opacity="1" stroke="none" transform="matrix(1,0,0,1,0,0)"
font-family="Helvetica" font-size="12" font-weight="400" font-style="normal" 
>
<path vector-effect="non-scaling-stroke" fill-rule="evenodd" d="M553,88 L648,88 L648,126 L553,126 L553,88"/>
</g>

<g fill="#f7ad00" fill-opacity="1" stroke="none" transform="matrix(1,0,0,1,0,0)"
font-family="Helvetica" font-size="12" font-weight="400" font-style="normal" 
>
<path vector-effect="non-scaling-stroke" fill-rule="evenodd" d="M553,126 L648,126 L648,164 L553,164 L553,126"/>
</g>

<g fill="#f2f2f2" fill-opacity="1" stroke="none" transform="matrix(1,0,0,1,0,0)"
font-family="Helvetica" font-size="12" font-weight="400" font-style="normal" 
>
<path vector-effect="non-scaling-stroke" fill-rule="evenodd" d="M376,164 L497,164 L497,202 L376,202 L376,164"/>
<path vector-effect="non-scaling-stroke" fill-rule="evenodd" d="M497,164 L553,164 L553,202 L497,202 L497,164"/>
<path vector-effect="non-scaling-stroke" fill-rule="evenodd" d="M553,164 L648,164 L648,202 L553,202 L553,164"/>
</g>

<g fill="#eeb500" fill-opacity="1" stroke="none" transform="matrix(1,0,0,1,0,0)"
font-family="Helvetica" font-size="12" font-weight="400" font-style="normal" 
>
<path vector-effect="non-scaling-stroke" fill-rule="evenodd" d="M553,164 L648,164 L648,202 L553,202 L553,164"/>
</g>

<g fill="#e3bd00" fill-opacity="1" stroke="none" transform="matrix(1,0,0,1,0,0)"
font-family="Helvetica" font-size="12" font-weight="400" font-style="normal" 
>
<path vector-effect="non-scaling-stroke" fill-rule="evenodd" d="M553,202 L648,202 L648,240 L553,240 L553,202"/>
</g>

<g fill="#f2f2f2" fill-opacity="1" stroke="none" transform="matrix(1,0,0,1,0,0)"
font-family="Helvetica" font-size="12" font-weight="400" font-style="normal" 
>
<path vector-effect="non-scaling-stroke" fill-rule="evenodd" d="M376,240 L497,240 L497,278 L376,278 L376,240"/>
<path vector-effect="non-scaling-stroke" fill-rule="evenodd" d="M497,240 L553,240 L553,278 L497,278 L497,240"/>
<path vector-effect="non-scaling-stroke" fill-rule="evenodd" d="M553,240 L648,240 L648,278 L553,278 L553,240"/>
</g>

<g fill="#d8c500" fill-opacity="1" stroke="none" transform="matrix(1,0,0,1,0,0)"
font-family="Helvetica" font-size="12" font-weight="400" font-style="normal" 
>
<path vector-effect="non-scaling-stroke" fill-rule="evenodd" d="M553,240 L648,240 L648,278 L553,278 L553,240"/>
</g>

<g fill="#cccd00" fill-opacity="1" stroke="none" transform="matrix(1,0,0,1,0,0)"
font-family="Helvetica" font-size="12" font-weight="400" font-style="normal" 
>
<path vector-effect="non-scaling-stroke" fill-rule="evenodd" d="M553,278 L648,278 L648,316 L553,316 L553,278"/>
</g>

<g fill="#f2f2f2" fill-opacity="1" stroke="none" transform="matrix(1,0,0,1,0,0)"
font-family="Helvetica" font-size="12" font-weight="400" font-style="normal" 
>
<path vector-effect="non-scaling-stroke" fill-rule="evenodd" d="M376,316 L497,316 L497,354 L376,354 L376,316"/>
<path vector-effect="non-scaling-stroke" fill-rule="evenodd" d="M497,316 L553,316 L553,354 L497,354 L497,316"/>
<path vector-effect="non-scaling-stroke" fill-rule="evenodd" d="M553,316 L648,316 L648,354 L553,354 L553,316"/>
</g>

<g fill="#c0d400" fill-opacity="1" stroke="none" transform="matrix(1,0,0,1,0,0)"
font-family="Helvetica" font-size="12" font-weight="400" font-style="normal" 
>
<path vector-effect="non-scaling-stroke" fill-rule="evenodd" d="M553,316 L648,316 L648,354 L553,354 L553,316"/>
</g>

<g fill="#b3db00" fill-opacity="1" stroke="none" transform="matrix(1,0,0,1,0,0)"
font-family="Helvetica" font-size="12" font-weight="400" font-style="normal" 
>
<path vector-effect="non-scaling-stroke" fill-rule="evenodd" d="M553,354 L648,354 L648,392 L553,392 L553,354"/>
</g>

<g fill="#f2f2f2" fill-opacity="1" stroke="none" transform="matrix(1,0,0,1,0,0)"
font-family="Helvetica" font-size="12" font-weight="400" font-style="normal" 
>
<path vector-effect="non-scaling-stroke" fill-rule="evenodd" d="M376,392 L497,392 L497,431 L376,431 L376,392"/>
<path vector-effect="non-scaling-stroke" fill-rule="evenodd" d="M497,392 L553,392 L553,431 L497,431 L497,392"/>
<path vector-effect="non-scaling-stroke" fill-rule="evenodd" d="M553,392 L648,392 L648,431 L553,431 L553,392"/>
</g>

<g fill="#a5e100" fill-opacity="1" stroke="none" transform="matrix(1,0,0,1,0,0)"
font-family="Helvetica" font-size="12" font-weight="400" font-style="normal" 
>
<path vector-effect="non-scaling-stroke" fill-rule="evenodd" d="M553,392 L648,392 L648,431 L553,431 L553,392"/>
</g>

<g fill="#a8a8a8" fill-opacity="1" stroke="none" transform="matrix(1,0,0,1,0,0)"
font-family="Helvetica" font-size="12" font-weight="400" font-style="normal" 
>
<path vector-effect="non-scaling-stroke" fill-rule="evenodd" d="M376,8 L497,8 L497,10 L376,10 L376,8"/>
<path vector-effect="non-scaling-stroke" fill-rule="evenodd" d="M497,8 L553,8 L553,10 L497,10 L497,8"/>
<path vector-effect="non-scaling-stroke" fill-rule="evenodd" d="M553,8 L648,8 L648,10 L553,10 L553,8"/>
<path vector-effect="non-scaling-stroke" fill-rule="evenodd" d="M376,48 L497,48 L497,50 L376,50 L376,48"/>
<path vector-effect="non-scaling-stroke" fill-rule="evenodd" d="M497,48 L553,48 L553,50 L497,50 L497,48"/>
<path vector-effect="non-scaling-stroke" fill-rule="evenodd" d="M553,48 L648,48 L648,50 L553,50 L553,48"/>
<path vector-effect="non-scaling-stroke" fill-rule="evenodd" d="M376,48 L497,48 L497,50 L376,50 L376,48"/>
<path vector-effect="non-scaling-stroke" fill-rule="evenodd" d="M497,48 L553,48 L553,50 L497,50 L497,48"/>
<path vector-effect="non-scaling-stroke" fill-rule="evenodd" d="M553,48 L648,48 L648,50 L553,50 L553,48"/>
<path vector-effect="non-scaling-stroke" fill-rule="evenodd" d="M376,430 L497,430 L497,432 L376,432 L376,430"/>
<path vector-effect="non-scaling-stroke" fill-rule="evenodd" d="M497,430 L553,430 L553,432 L497,432 L497,430"/>
<path vector-effect="non-scaling-stroke" fill-rule="evenodd" d="M553,430 L648,430 L648,432 L553,432 L553,430"/>
</g>

<g fill="#000000" fill-opacity="1" stroke="#000000" stroke-opacity="1" stroke-width="1" stroke-linecap="square" stroke-linejoin="bevel" transform="matrix(1,0,0,1,0,0)"
font-family="Arial" font-size="16" font-weight="400" font-style="normal" 
>
<text fill="#000000" fill-opacity="1" stroke="none" xml:space="preserve" x="386" y="34" font-family="Arial" font-size="16" font-weight="400" font-style="normal" 
 >country_name</text>
<text fill="#000000" fill-opacity="1" stroke="none" xml:space="preserve" x="512" y="34" font-family="Arial" font-size="16" font-weight="400" font-style="normal" 
 >year</text>
<text fill="#000000" fill-opacity="1" stroke="none" xml:space="preserve" x="563" y="34" font-family="Arial" font-size="16" font-weight="400" font-style="normal" 
 >population</text>
<text fill="#000000" fill-opacity="1" stroke="none" xml:space="preserve" x="386" y="74" font-family="Arial" font-size="16" font-weight="400" font-style="normal" 
 >Mongolia</text>
<text fill="#000000" fill-opacity="1" stroke="none" xml:space="preserve" x="507" y="74" font-family="Arial" font-size="16" font-weight="400" font-style="normal" 
 >2008</text>
<text fill="#000000" fill-opacity="1" stroke="none" xml:space="preserve" x="575" y="74" font-family="Arial" font-size="16" font-weight="400" font-style="normal" 
 >2628131</text>
<text fill="#000000" fill-opacity="1" stroke="none" xml:space="preserve" x="386" y="112" font-family="Arial" font-size="16" font-weight="400" font-style="normal" 
 >Mongolia</text>
<text fill="#000000" fill-opacity="1" stroke="none" xml:space="preserve" x="507" y="112" font-family="Arial" font-size="16" font-weight="400" font-style="normal" 
 >2009</text>
<text fill="#000000" fill-opacity="1" stroke="none" xml:space="preserve" x="575" y="112" font-family="Arial" font-size="16" font-weight="400" font-style="normal" 
 >2668289</text>
<text fill="#000000" fill-opacity="1" stroke="none" xml:space="preserve" x="386" y="150" font-family="Arial" font-size="16" font-weight="400" font-style="normal" 
 >Mongolia</text>
<text fill="#000000" fill-opacity="1" stroke="none" xml:space="preserve" x="507" y="150" font-family="Arial" font-size="16" font-weight="400" font-style="normal" 
 >2010</text>
<text fill="#000000" fill-opacity="1" stroke="none" xml:space="preserve" x="575" y="150" font-family="Arial" font-size="16" font-weight="400" font-style="normal" 
 >2712650</text>
<text fill="#000000" fill-opacity="1" stroke="none" xml:space="preserve" x="386" y="188" font-family="Arial" font-size="16" font-weight="400" font-style="normal" 
 >Mongolia</text>
<text fill="#000000" fill-opacity="1" stroke="none" xml:space="preserve" x="507" y="188" font-family="Arial" font-size="16" font-weight="400" font-style="normal" 
 >2011</text>
<text fill="#000000" fill-opacity="1" stroke="none" xml:space="preserve" x="575" y="188" font-family="Arial" font-size="16" font-weight="400" font-style="normal" 
 >2761516</text>
<text fill="#000000" fill-opacity="1" stroke="none" xml:space="preserve" x="386" y="226" font-family="Arial" font-size="16" font-weight="400" font-style="normal" 
 >Mongolia</text>
<text fill="#000000" fill-opacity="1" stroke="none" xml:space="preserve" x="507" y="226" font-family="Arial" font-size="16" font-weight="400" font-style="normal" 
 >2012</text>
<text fill="#000000" fill-opacity="1" stroke="none" xml:space="preserve" x="575" y="226" font-family="Arial" font-size="16" font-weight="400" font-style="normal" 
 >2814226</text>
<text fill="#000000" fill-opacity="1" stroke="none" xml:space="preserve" x="386" y="264" font-family="Arial" font-size="16" font-weight="400" font-style="normal" 
 >Mongolia</text>
<text fill="#000000" fill-opacity="1" stroke="none" xml:space="preserve" x="507" y="264" font-family="Arial" font-size="16" font-weight="400" font-style="normal" 
 >2013</text>
<text fill="#000000" fill-opacity="1" stroke="none" xml:space="preserve" x="575" y="264" font-family="Arial" font-size="16" font-weight="400" font-style="normal" 
 >2869107</text>
<text fill="#000000" fill-opacity="1" stroke="none" xml:space="preserve" x="386" y="302" font-family="Arial" font-size="16" font-weight="400" font-style="normal" 
 >Mongolia</text>
<text fill="#000000" fill-opacity="1" stroke="none" xml:space="preserve" x="507" y="302" font-family="Arial" font-size="16" font-weight="400" font-style="normal" 
 >2014</text>
<text fill="#000000" fill-opacity="1" stroke="none" xml:space="preserve" x="575" y="302" font-family="Arial" font-size="16" font-weight="400" font-style="normal" 
 >2923896</text>
<text fill="#000000" fill-opacity="1" stroke="none" xml:space="preserve" x="386" y="340" font-family="Arial" font-size="16" font-weight="400" font-style="normal" 
 >Mongolia</text>
<text fill="#000000" fill-opacity="1" stroke="none" xml:space="preserve" x="507" y="340" font-family="Arial" font-size="16" font-weight="400" font-style="normal" 
 >2015</text>
<text fill="#000000" fill-opacity="1" stroke="none" xml:space="preserve" x="575" y="340" font-family="Arial" font-size="16" font-weight="400" font-style="normal" 
 >2976877</text>
<text fill="#000000" fill-opacity="1" stroke="none" xml:space="preserve" x="386" y="378" font-family="Arial" font-size="16" font-weight="400" font-style="normal" 
 >Mongolia</text>
<text fill="#000000" fill-opacity="1" stroke="none" xml:space="preserve" x="507" y="378" font-family="Arial" font-size="16" font-weight="400" font-style="normal" 
 >2016</text>
<text fill="#000000" fill-opacity="1" stroke="none" xml:space="preserve" x="575" y="378" font-family="Arial" font-size="16" font-weight="400" font-style="normal" 
 >3027398</text>
<text fill="#000000" fill-opacity="1" stroke="none" xml:space="preserve" x="386" y="416" font-family="Arial" font-size="16" font-weight="400" font-style="normal" 
 >Mongolia</text>
<text fill="#000000" fill-opacity="1" stroke="none" xml:space="preserve" x="507" y="416" font-family="Arial" font-size="16" font-weight="400" font-style="normal" 
 >2017</text>
<text fill="#000000" fill-opacity="1" stroke="none" xml:space="preserve" x="575" y="416" font-family="Arial" font-size="16" font-weight="400" font-style="normal" 
 >3075647</text>
</g>
</g>
</svg>
