<?xml version="1.0" encoding="UTF-8" standalone="no"?>
<svg width="361.244mm" height="88.1944mm"
 viewBox="0 0 1024 250"
 xmlns="http://www.w3.org/2000/svg" xmlns:xlink="http://www.w3.org/1999/xlink"  version="1.2" baseProfile="tiny">
<title>Qt Svg Document</title>
<desc>Generated with Qt</desc>
<defs>
</defs>
<g fill="none" stroke="black" stroke-width="1" fill-rule="evenodd" stroke-linecap="square" stroke-linejoin="bevel" >

<g fill="#ffffff" fill-opacity="1" stroke="none" transform="matrix(1,0,0,1,0,0)"
font-family="Helvetica" font-size="12" font-weight="400" font-style="normal" 
>
<path vector-effect="non-scaling-stroke" fill-rule="evenodd" d="M0,0 L1024,0 L1024,250 L0,250 L0,0"/>
<path vector-effect="non-scaling-stroke" fill-rule="evenodd" d="M0,0 L1024,0 L1024,250 L0,250 L0,0"/>
<path vector-effect="non-scaling-stroke" fill-rule="evenodd" d="M0,0 L1024,0 L1024,250 L0,250 L0,0"/>
<path vector-effect="non-scaling-stroke" fill-rule="evenodd" d="M376,8 L647,8 L647,242 L376,242 L376,8"/>
<path vector-effect="non-scaling-stroke" fill-rule="evenodd" d="M376,9 L496,9 L496,49 L376,49 L376,9"/>
<path vector-effect="non-scaling-stroke" fill-rule="evenodd" d="M496,9 L553,9 L553,49 L496,49 L496,9"/>
<path vector-effect="non-scaling-stroke" fill-rule="evenodd" d="M553,9 L600,9 L600,49 L553,49 L553,9"/>
<path vector-effect="non-scaling-stroke" fill-rule="evenodd" d="M600,9 L647,9 L647,49 L600,49 L600,9"/>
<path vector-effect="non-scaling-stroke" fill-rule="evenodd" d="M376,49 L496,49 L496,88 L376,88 L376,49"/>
</g>

<g fill="#f2f2f2" fill-opacity="1" stroke="none" transform="matrix(1,0,0,1,0,0)"
font-family="Helvetica" font-size="12" font-weight="400" font-style="normal" 
>
<path vector-effect="non-scaling-stroke" fill-rule="evenodd" d="M376,88 L496,88 L496,126 L376,126 L376,88"/>
</g>

<g fill="#ffffff" fill-opacity="1" stroke="none" transform="matrix(1,0,0,1,0,0)"
font-family="Helvetica" font-size="12" font-weight="400" font-style="normal" 
>
<path vector-effect="non-scaling-stroke" fill-rule="evenodd" d="M376,88 L496,88 L496,126 L376,126 L376,88"/>
</g>

<g fill="#f2f2f2" fill-opacity="1" stroke="none" transform="matrix(1,0,0,1,0,0)"
font-family="Helvetica" font-size="12" font-weight="400" font-style="normal" 
>
<path vector-effect="non-scaling-stroke" fill-rule="evenodd" d="M496,88 L553,88 L553,126 L496,126 L496,88"/>
<path vector-effect="non-scaling-stroke" fill-rule="evenodd" d="M553,88 L600,88 L600,126 L553,126 L553,88"/>
<path vector-effect="non-scaling-stroke" fill-rule="evenodd" d="M600,88 L647,88 L647,126 L600,126 L600,88"/>
</g>

<g fill="#ffffff" fill-opacity="1" stroke="none" transform="matrix(1,0,0,1,0,0)"
font-family="Helvetica" font-size="12" font-weight="400" font-style="normal" 
>
<path vector-effect="non-scaling-stroke" fill-rule="evenodd" d="M376,126 L496,126 L496,164 L376,164 L376,126"/>
</g>

<g fill="#f2f2f2" fill-opacity="1" stroke="none" transform="matrix(1,0,0,1,0,0)"
font-family="Helvetica" font-size="12" font-weight="400" font-style="normal" 
>
<path vector-effect="non-scaling-stroke" fill-rule="evenodd" d="M376,164 L496,164 L496,202 L376,202 L376,164"/>
</g>

<g fill="#ffffff" fill-opacity="1" stroke="none" transform="matrix(1,0,0,1,0,0)"
font-family="Helvetica" font-size="12" font-weight="400" font-style="normal" 
>
<path vector-effect="non-scaling-stroke" fill-rule="evenodd" d="M376,164 L496,164 L496,202 L376,202 L376,164"/>
</g>

<g fill="#f2f2f2" fill-opacity="1" stroke="none" transform="matrix(1,0,0,1,0,0)"
font-family="Helvetica" font-size="12" font-weight="400" font-style="normal" 
>
<path vector-effect="non-scaling-stroke" fill-rule="evenodd" d="M496,164 L553,164 L553,202 L496,202 L496,164"/>
<path vector-effect="non-scaling-stroke" fill-rule="evenodd" d="M553,164 L600,164 L600,202 L553,202 L553,164"/>
<path vector-effect="non-scaling-stroke" fill-rule="evenodd" d="M600,164 L647,164 L647,202 L600,202 L600,164"/>
</g>

<g fill="#ffffff" fill-opacity="1" stroke="none" transform="matrix(1,0,0,1,0,0)"
font-family="Helvetica" font-size="12" font-weight="400" font-style="normal" 
>
<path vector-effect="non-scaling-stroke" fill-rule="evenodd" d="M376,202 L496,202 L496,241 L376,241 L376,202"/>
</g>

<g fill="#a8a8a8" fill-opacity="1" stroke="none" transform="matrix(1,0,0,1,0,0)"
font-family="Helvetica" font-size="12" font-weight="400" font-style="normal" 
>
<path vector-effect="non-scaling-stroke" fill-rule="evenodd" d="M376,8 L496,8 L496,10 L376,10 L376,8"/>
<path vector-effect="non-scaling-stroke" fill-rule="evenodd" d="M496,8 L553,8 L553,10 L496,10 L496,8"/>
<path vector-effect="non-scaling-stroke" fill-rule="evenodd" d="M553,8 L600,8 L600,10 L553,10 L553,8"/>
<path vector-effect="non-scaling-stroke" fill-rule="evenodd" d="M600,8 L647,8 L647,10 L600,10 L600,8"/>
<path vector-effect="non-scaling-stroke" fill-rule="evenodd" d="M376,48 L496,48 L496,50 L376,50 L376,48"/>
<path vector-effect="non-scaling-stroke" fill-rule="evenodd" d="M496,48 L553,48 L553,50 L496,50 L496,48"/>
<path vector-effect="non-scaling-stroke" fill-rule="evenodd" d="M553,48 L600,48 L600,50 L553,50 L553,48"/>
<path vector-effect="non-scaling-stroke" fill-rule="evenodd" d="M600,48 L647,48 L647,50 L600,50 L600,48"/>
<path vector-effect="non-scaling-stroke" fill-rule="evenodd" d="M376,48 L497,48 L497,50 L376,50 L376,48"/>
<path vector-effect="non-scaling-stroke" fill-rule="evenodd" d="M495,48 L553,48 L553,50 L495,50 L495,48"/>
<path vector-effect="non-scaling-stroke" fill-rule="evenodd" d="M553,48 L600,48 L600,50 L553,50 L553,48"/>
<path vector-effect="non-scaling-stroke" fill-rule="evenodd" d="M600,48 L647,48 L647,50 L600,50 L600,48"/>
<path vector-effect="non-scaling-stroke" fill-rule="evenodd" d="M376,240 L497,240 L497,242 L376,242 L376,240"/>
<path vector-effect="non-scaling-stroke" fill-rule="evenodd" d="M495,240 L553,240 L553,242 L495,242 L495,240"/>
<path vector-effect="non-scaling-stroke" fill-rule="evenodd" d="M553,240 L600,240 L600,242 L553,242 L553,240"/>
<path vector-effect="non-scaling-stroke" fill-rule="evenodd" d="M600,240 L647,240 L647,242 L600,242 L600,240"/>
<path vector-effect="non-scaling-stroke" fill-rule="evenodd" d="M495,48 L497,48 L497,88 L495,88 L495,48"/>
<path vector-effect="non-scaling-stroke" fill-rule="evenodd" d="M495,48 L497,48 L497,88 L495,88 L495,48"/>
<path vector-effect="non-scaling-stroke" fill-rule="evenodd" d="M495,88 L497,88 L497,126 L495,126 L495,88"/>
<path vector-effect="non-scaling-stroke" fill-rule="evenodd" d="M495,88 L497,88 L497,126 L495,126 L495,88"/>
<path vector-effect="non-scaling-stroke" fill-rule="evenodd" d="M495,126 L497,126 L497,164 L495,164 L495,126"/>
<path vector-effect="non-scaling-stroke" fill-rule="evenodd" d="M495,126 L497,126 L497,164 L495,164 L495,126"/>
<path vector-effect="non-scaling-stroke" fill-rule="evenodd" d="M495,164 L497,164 L497,202 L495,202 L495,164"/>
<path vector-effect="non-scaling-stroke" fill-rule="evenodd" d="M495,164 L497,164 L497,202 L495,202 L495,164"/>
<path vector-effect="non-scaling-stroke" fill-rule="evenodd" d="M495,202 L497,202 L497,242 L495,242 L495,202"/>
<path vector-effect="non-scaling-stroke" fill-rule="evenodd" d="M495,202 L497,202 L497,242 L495,242 L495,202"/>
</g>

<g fill="#000000" fill-opacity="1" stroke="#000000" stroke-opacity="1" stroke-width="1" stroke-linecap="square" stroke-linejoin="bevel" transform="matrix(1,0,0,1,0,0)"
font-family="Arial" font-size="16" font-weight="400" font-style="normal" 
>
<text fill="#000000" fill-opacity="1" stroke="none" xml:space="preserve" x="386" y="34" font-family="Arial" font-size="16" font-weight="400" font-style="normal" 
 >car</text>
<text fill="#000000" fill-opacity="1" stroke="none" xml:space="preserve" x="512" y="34" font-family="Arial" font-size="16" font-weight="400" font-style="normal" 
 >year</text>
<text fill="#000000" fill-opacity="1" stroke="none" xml:space="preserve" x="572" y="34" font-family="Arial" font-size="16" font-weight="400" font-style="normal" 
 >hp</text>
<text fill="#000000" fill-opacity="1" stroke="none" xml:space="preserve" x="619" y="34" font-family="Arial" font-size="16" font-weight="400" font-style="normal" 
 >trq</text>
<text fill="#000000" fill-opacity="1" stroke="none" xml:space="preserve" x="391" y="74" font-family="Arial" font-size="16" font-weight="400" font-style="normal" 
 >GT</text>
<text fill="#000000" fill-opacity="1" stroke="none" xml:space="preserve" x="507" y="74" font-family="Arial" font-size="16" font-weight="400" font-style="normal" 
 >2017</text>
<text fill="#000000" fill-opacity="1" stroke="none" xml:space="preserve" x="563" y="74" font-family="Arial" font-size="16" font-weight="400" font-style="normal" 
 >647</text>
<text fill="#000000" fill-opacity="1" stroke="none" xml:space="preserve" x="610" y="74" font-family="Arial" font-size="16" font-weight="400" font-style="normal" 
 >550</text>
<text fill="#000000" fill-opacity="1" stroke="none" xml:space="preserve" x="391" y="112" font-family="Arial" font-size="16" font-weight="400" font-style="normal" 
 >458 Speciale</text>
<text fill="#000000" fill-opacity="1" stroke="none" xml:space="preserve" x="507" y="112" font-family="Arial" font-size="16" font-weight="400" font-style="normal" 
 >2015</text>
<text fill="#000000" fill-opacity="1" stroke="none" xml:space="preserve" x="563" y="112" font-family="Arial" font-size="16" font-weight="400" font-style="normal" 
 >597</text>
<text fill="#000000" fill-opacity="1" stroke="none" xml:space="preserve" x="610" y="112" font-family="Arial" font-size="16" font-weight="400" font-style="normal" 
 >398</text>
<text fill="#000000" fill-opacity="1" stroke="none" xml:space="preserve" x="391" y="150" font-family="Arial" font-size="16" font-weight="400" font-style="normal" 
 >458 Spider</text>
<text fill="#000000" fill-opacity="1" stroke="none" xml:space="preserve" x="507" y="150" font-family="Arial" font-size="16" font-weight="400" font-style="normal" 
 >2015</text>
<text fill="#000000" fill-opacity="1" stroke="none" xml:space="preserve" x="563" y="150" font-family="Arial" font-size="16" font-weight="400" font-style="normal" 
 >562</text>
<text fill="#000000" fill-opacity="1" stroke="none" xml:space="preserve" x="610" y="150" font-family="Arial" font-size="16" font-weight="400" font-style="normal" 
 >398</text>
<text fill="#000000" fill-opacity="1" stroke="none" xml:space="preserve" x="391" y="188" font-family="Arial" font-size="16" font-weight="400" font-style="normal" 
 >458 Italia</text>
<text fill="#000000" fill-opacity="1" stroke="none" xml:space="preserve" x="507" y="188" font-family="Arial" font-size="16" font-weight="400" font-style="normal" 
 >2014</text>
<text fill="#000000" fill-opacity="1" stroke="none" xml:space="preserve" x="563" y="188" font-family="Arial" font-size="16" font-weight="400" font-style="normal" 
 >562</text>
<text fill="#000000" fill-opacity="1" stroke="none" xml:space="preserve" x="610" y="188" font-family="Arial" font-size="16" font-weight="400" font-style="normal" 
 >398</text>
<text fill="#000000" fill-opacity="1" stroke="none" xml:space="preserve" x="391" y="226" font-family="Arial" font-size="16" font-weight="400" font-style="normal" 
 >488 GTB</text>
<text fill="#000000" fill-opacity="1" stroke="none" xml:space="preserve" x="507" y="226" font-family="Arial" font-size="16" font-weight="400" font-style="normal" 
 >2016</text>
<text fill="#000000" fill-opacity="1" stroke="none" xml:space="preserve" x="563" y="226" font-family="Arial" font-size="16" font-weight="400" font-style="normal" 
 >661</text>
<text fill="#000000" fill-opacity="1" stroke="none" xml:space="preserve" x="610" y="226" font-family="Arial" font-size="16" font-weight="400" font-style="normal" 
 >561</text>
</g>
</g>
</svg>
