<?xml version="1.0" encoding="UTF-8" standalone="no"?>
<svg width="361.244mm" height="117.122mm"
 viewBox="0 0 1024 332"
 xmlns="http://www.w3.org/2000/svg" xmlns:xlink="http://www.w3.org/1999/xlink"  version="1.2" baseProfile="tiny">
<title>Qt Svg Document</title>
<desc>Generated with Qt</desc>
<defs>
</defs>
<g fill="none" stroke="black" stroke-width="1" fill-rule="evenodd" stroke-linecap="square" stroke-linejoin="bevel" >

<g fill="#ffffff" fill-opacity="1" stroke="none" transform="matrix(1,0,0,1,0,0)"
font-family="Helvetica" font-size="12" font-weight="400" font-style="normal" 
>
<path vector-effect="non-scaling-stroke" fill-rule="evenodd" d="M0,0 L1024,0 L1024,332 L0,332 L0,0"/>
<path vector-effect="non-scaling-stroke" fill-rule="evenodd" d="M0,0 L1024,0 L1024,332 L0,332 L0,0"/>
<path vector-effect="non-scaling-stroke" fill-rule="evenodd" d="M0,0 L1024,0 L1024,332 L0,332 L0,0"/>
<path vector-effect="non-scaling-stroke" fill-rule="evenodd" d="M165,8 L859,8 L859,324 L165,324 L165,8"/>
<path vector-effect="non-scaling-stroke" fill-rule="evenodd" d="M165,9 L251,9 L251,39 L165,39 L165,9"/>
<path vector-effect="non-scaling-stroke" fill-rule="evenodd" d="M251,9 L335,9 L335,39 L251,39 L251,9"/>
<path vector-effect="non-scaling-stroke" fill-rule="evenodd" d="M335,9 L388,9 L388,39 L335,39 L335,9"/>
<path vector-effect="non-scaling-stroke" fill-rule="evenodd" d="M388,9 L480,9 L480,39 L388,39 L388,9"/>
<path vector-effect="non-scaling-stroke" fill-rule="evenodd" d="M480,9 L530,9 L530,39 L480,39 L480,9"/>
<path vector-effect="non-scaling-stroke" fill-rule="evenodd" d="M530,9 L667,9 L667,39 L530,39 L530,9"/>
<path vector-effect="non-scaling-stroke" fill-rule="evenodd" d="M667,9 L753,9 L753,39 L667,39 L667,9"/>
<path vector-effect="non-scaling-stroke" fill-rule="evenodd" d="M753,9 L808,9 L808,39 L753,39 L753,9"/>
<path vector-effect="non-scaling-stroke" fill-rule="evenodd" d="M808,9 L859,9 L859,39 L808,39 L808,9"/>
</g>

<g fill="#808080" fill-opacity="0.0470588" stroke="none" transform="matrix(1,0,0,1,0,0)"
font-family="Helvetica" font-size="12" font-weight="400" font-style="normal" 
>
<path vector-effect="non-scaling-stroke" fill-rule="evenodd" d="M165,74 L251,74 L251,109 L165,109 L165,74"/>
<path vector-effect="non-scaling-stroke" fill-rule="evenodd" d="M251,74 L335,74 L335,109 L251,109 L251,74"/>
<path vector-effect="non-scaling-stroke" fill-rule="evenodd" d="M335,74 L388,74 L388,109 L335,109 L335,74"/>
<path vector-effect="non-scaling-stroke" fill-rule="evenodd" d="M388,74 L480,74 L480,109 L388,109 L388,74"/>
<path vector-effect="non-scaling-stroke" fill-rule="evenodd" d="M480,74 L530,74 L530,109 L480,109 L480,74"/>
<path vector-effect="non-scaling-stroke" fill-rule="evenodd" d="M530,74 L667,74 L667,109 L530,109 L530,74"/>
<path vector-effect="non-scaling-stroke" fill-rule="evenodd" d="M667,74 L753,74 L753,109 L667,109 L667,74"/>
<path vector-effect="non-scaling-stroke" fill-rule="evenodd" d="M753,74 L808,74 L808,109 L753,109 L753,74"/>
<path vector-effect="non-scaling-stroke" fill-rule="evenodd" d="M808,74 L859,74 L859,109 L808,109 L808,74"/>
<path vector-effect="non-scaling-stroke" fill-rule="evenodd" d="M165,144 L251,144 L251,179 L165,179 L165,144"/>
<path vector-effect="non-scaling-stroke" fill-rule="evenodd" d="M251,144 L335,144 L335,179 L251,179 L251,144"/>
<path vector-effect="non-scaling-stroke" fill-rule="evenodd" d="M335,144 L388,144 L388,179 L335,179 L335,144"/>
<path vector-effect="non-scaling-stroke" fill-rule="evenodd" d="M388,144 L480,144 L480,179 L388,179 L388,144"/>
<path vector-effect="non-scaling-stroke" fill-rule="evenodd" d="M480,144 L530,144 L530,179 L480,179 L480,144"/>
<path vector-effect="non-scaling-stroke" fill-rule="evenodd" d="M530,144 L667,144 L667,179 L530,179 L530,144"/>
<path vector-effect="non-scaling-stroke" fill-rule="evenodd" d="M667,144 L753,144 L753,179 L667,179 L667,144"/>
<path vector-effect="non-scaling-stroke" fill-rule="evenodd" d="M753,144 L808,144 L808,179 L753,179 L753,144"/>
<path vector-effect="non-scaling-stroke" fill-rule="evenodd" d="M808,144 L859,144 L859,179 L808,179 L808,144"/>
<path vector-effect="non-scaling-stroke" fill-rule="evenodd" d="M165,215 L251,215 L251,251 L165,251 L165,215"/>
<path vector-effect="non-scaling-stroke" fill-rule="evenodd" d="M251,215 L335,215 L335,251 L251,251 L251,215"/>
<path vector-effect="non-scaling-stroke" fill-rule="evenodd" d="M335,215 L388,215 L388,251 L335,251 L335,215"/>
<path vector-effect="non-scaling-stroke" fill-rule="evenodd" d="M388,215 L480,215 L480,251 L388,251 L388,215"/>
<path vector-effect="non-scaling-stroke" fill-rule="evenodd" d="M480,215 L530,215 L530,251 L480,251 L480,215"/>
<path vector-effect="non-scaling-stroke" fill-rule="evenodd" d="M530,215 L667,215 L667,251 L530,251 L530,215"/>
<path vector-effect="non-scaling-stroke" fill-rule="evenodd" d="M667,215 L753,215 L753,251 L667,251 L667,215"/>
<path vector-effect="non-scaling-stroke" fill-rule="evenodd" d="M753,215 L808,215 L808,251 L753,251 L753,215"/>
<path vector-effect="non-scaling-stroke" fill-rule="evenodd" d="M808,215 L859,215 L859,251 L808,251 L808,215"/>
<path vector-effect="non-scaling-stroke" fill-rule="evenodd" d="M165,287 L251,287 L251,323 L165,323 L165,287"/>
<path vector-effect="non-scaling-stroke" fill-rule="evenodd" d="M251,287 L335,287 L335,323 L251,323 L251,287"/>
<path vector-effect="non-scaling-stroke" fill-rule="evenodd" d="M335,287 L388,287 L388,323 L335,323 L335,287"/>
<path vector-effect="non-scaling-stroke" fill-rule="evenodd" d="M388,287 L480,287 L480,323 L388,323 L388,287"/>
<path vector-effect="non-scaling-stroke" fill-rule="evenodd" d="M480,287 L530,287 L530,323 L480,323 L480,287"/>
<path vector-effect="non-scaling-stroke" fill-rule="evenodd" d="M530,287 L667,287 L667,323 L530,323 L530,287"/>
<path vector-effect="non-scaling-stroke" fill-rule="evenodd" d="M667,287 L753,287 L753,323 L667,323 L667,287"/>
<path vector-effect="non-scaling-stroke" fill-rule="evenodd" d="M753,287 L808,287 L808,323 L753,323 L753,287"/>
<path vector-effect="non-scaling-stroke" fill-rule="evenodd" d="M808,287 L859,287 L859,323 L808,323 L808,287"/>
</g>

<g fill="#d3d3d3" fill-opacity="1" stroke="none" transform="matrix(1,0,0,1,0,0)"
font-family="Helvetica" font-size="12" font-weight="400" font-style="normal" 
>
<path vector-effect="non-scaling-stroke" fill-rule="evenodd" d="M165,74 L251,74 L251,75 L165,75 L165,74"/>
<path vector-effect="non-scaling-stroke" fill-rule="evenodd" d="M251,74 L335,74 L335,75 L251,75 L251,74"/>
<path vector-effect="non-scaling-stroke" fill-rule="evenodd" d="M335,74 L388,74 L388,75 L335,75 L335,74"/>
<path vector-effect="non-scaling-stroke" fill-rule="evenodd" d="M388,74 L480,74 L480,75 L388,75 L388,74"/>
<path vector-effect="non-scaling-stroke" fill-rule="evenodd" d="M480,74 L530,74 L530,75 L480,75 L480,74"/>
<path vector-effect="non-scaling-stroke" fill-rule="evenodd" d="M530,74 L667,74 L667,75 L530,75 L530,74"/>
<path vector-effect="non-scaling-stroke" fill-rule="evenodd" d="M667,74 L753,74 L753,75 L667,75 L667,74"/>
<path vector-effect="non-scaling-stroke" fill-rule="evenodd" d="M753,74 L808,74 L808,75 L753,75 L753,74"/>
<path vector-effect="non-scaling-stroke" fill-rule="evenodd" d="M808,74 L859,74 L859,75 L808,75 L808,74"/>
<path vector-effect="non-scaling-stroke" fill-rule="evenodd" d="M165,74 L251,74 L251,75 L165,75 L165,74"/>
<path vector-effect="non-scaling-stroke" fill-rule="evenodd" d="M165,109 L251,109 L251,110 L165,110 L165,109"/>
<path vector-effect="non-scaling-stroke" fill-rule="evenodd" d="M251,74 L335,74 L335,75 L251,75 L251,74"/>
<path vector-effect="non-scaling-stroke" fill-rule="evenodd" d="M251,109 L335,109 L335,110 L251,110 L251,109"/>
<path vector-effect="non-scaling-stroke" fill-rule="evenodd" d="M335,74 L388,74 L388,75 L335,75 L335,74"/>
<path vector-effect="non-scaling-stroke" fill-rule="evenodd" d="M335,109 L388,109 L388,110 L335,110 L335,109"/>
<path vector-effect="non-scaling-stroke" fill-rule="evenodd" d="M388,74 L480,74 L480,75 L388,75 L388,74"/>
<path vector-effect="non-scaling-stroke" fill-rule="evenodd" d="M388,109 L480,109 L480,110 L388,110 L388,109"/>
<path vector-effect="non-scaling-stroke" fill-rule="evenodd" d="M480,74 L530,74 L530,75 L480,75 L480,74"/>
<path vector-effect="non-scaling-stroke" fill-rule="evenodd" d="M480,109 L530,109 L530,110 L480,110 L480,109"/>
<path vector-effect="non-scaling-stroke" fill-rule="evenodd" d="M530,74 L667,74 L667,75 L530,75 L530,74"/>
<path vector-effect="non-scaling-stroke" fill-rule="evenodd" d="M530,109 L667,109 L667,110 L530,110 L530,109"/>
<path vector-effect="non-scaling-stroke" fill-rule="evenodd" d="M667,74 L753,74 L753,75 L667,75 L667,74"/>
<path vector-effect="non-scaling-stroke" fill-rule="evenodd" d="M667,109 L753,109 L753,110 L667,110 L667,109"/>
<path vector-effect="non-scaling-stroke" fill-rule="evenodd" d="M753,74 L808,74 L808,75 L753,75 L753,74"/>
<path vector-effect="non-scaling-stroke" fill-rule="evenodd" d="M753,109 L808,109 L808,110 L753,110 L753,109"/>
<path vector-effect="non-scaling-stroke" fill-rule="evenodd" d="M808,74 L859,74 L859,75 L808,75 L808,74"/>
<path vector-effect="non-scaling-stroke" fill-rule="evenodd" d="M808,109 L859,109 L859,110 L808,110 L808,109"/>
<path vector-effect="non-scaling-stroke" fill-rule="evenodd" d="M165,109 L251,109 L251,110 L165,110 L165,109"/>
<path vector-effect="non-scaling-stroke" fill-rule="evenodd" d="M165,144 L251,144 L251,145 L165,145 L165,144"/>
<path vector-effect="non-scaling-stroke" fill-rule="evenodd" d="M251,109 L335,109 L335,110 L251,110 L251,109"/>
<path vector-effect="non-scaling-stroke" fill-rule="evenodd" d="M251,144 L335,144 L335,145 L251,145 L251,144"/>
<path vector-effect="non-scaling-stroke" fill-rule="evenodd" d="M335,109 L388,109 L388,110 L335,110 L335,109"/>
<path vector-effect="non-scaling-stroke" fill-rule="evenodd" d="M335,144 L388,144 L388,145 L335,145 L335,144"/>
<path vector-effect="non-scaling-stroke" fill-rule="evenodd" d="M388,109 L480,109 L480,110 L388,110 L388,109"/>
<path vector-effect="non-scaling-stroke" fill-rule="evenodd" d="M388,144 L480,144 L480,145 L388,145 L388,144"/>
<path vector-effect="non-scaling-stroke" fill-rule="evenodd" d="M480,109 L530,109 L530,110 L480,110 L480,109"/>
<path vector-effect="non-scaling-stroke" fill-rule="evenodd" d="M480,144 L530,144 L530,145 L480,145 L480,144"/>
<path vector-effect="non-scaling-stroke" fill-rule="evenodd" d="M530,109 L667,109 L667,110 L530,110 L530,109"/>
<path vector-effect="non-scaling-stroke" fill-rule="evenodd" d="M530,144 L667,144 L667,145 L530,145 L530,144"/>
<path vector-effect="non-scaling-stroke" fill-rule="evenodd" d="M667,109 L753,109 L753,110 L667,110 L667,109"/>
<path vector-effect="non-scaling-stroke" fill-rule="evenodd" d="M667,144 L753,144 L753,145 L667,145 L667,144"/>
<path vector-effect="non-scaling-stroke" fill-rule="evenodd" d="M753,109 L808,109 L808,110 L753,110 L753,109"/>
<path vector-effect="non-scaling-stroke" fill-rule="evenodd" d="M753,144 L808,144 L808,145 L753,145 L753,144"/>
<path vector-effect="non-scaling-stroke" fill-rule="evenodd" d="M808,109 L859,109 L859,110 L808,110 L808,109"/>
<path vector-effect="non-scaling-stroke" fill-rule="evenodd" d="M808,144 L859,144 L859,145 L808,145 L808,144"/>
<path vector-effect="non-scaling-stroke" fill-rule="evenodd" d="M165,144 L251,144 L251,145 L165,145 L165,144"/>
<path vector-effect="non-scaling-stroke" fill-rule="evenodd" d="M165,179 L251,179 L251,180 L165,180 L165,179"/>
<path vector-effect="non-scaling-stroke" fill-rule="evenodd" d="M251,144 L335,144 L335,145 L251,145 L251,144"/>
<path vector-effect="non-scaling-stroke" fill-rule="evenodd" d="M251,179 L335,179 L335,180 L251,180 L251,179"/>
<path vector-effect="non-scaling-stroke" fill-rule="evenodd" d="M335,144 L388,144 L388,145 L335,145 L335,144"/>
<path vector-effect="non-scaling-stroke" fill-rule="evenodd" d="M335,179 L388,179 L388,180 L335,180 L335,179"/>
<path vector-effect="non-scaling-stroke" fill-rule="evenodd" d="M388,144 L480,144 L480,145 L388,145 L388,144"/>
<path vector-effect="non-scaling-stroke" fill-rule="evenodd" d="M388,179 L480,179 L480,180 L388,180 L388,179"/>
<path vector-effect="non-scaling-stroke" fill-rule="evenodd" d="M480,144 L530,144 L530,145 L480,145 L480,144"/>
<path vector-effect="non-scaling-stroke" fill-rule="evenodd" d="M480,179 L530,179 L530,180 L480,180 L480,179"/>
<path vector-effect="non-scaling-stroke" fill-rule="evenodd" d="M530,144 L667,144 L667,145 L530,145 L530,144"/>
<path vector-effect="non-scaling-stroke" fill-rule="evenodd" d="M530,179 L667,179 L667,180 L530,180 L530,179"/>
<path vector-effect="non-scaling-stroke" fill-rule="evenodd" d="M667,144 L753,144 L753,145 L667,145 L667,144"/>
<path vector-effect="non-scaling-stroke" fill-rule="evenodd" d="M667,179 L753,179 L753,180 L667,180 L667,179"/>
<path vector-effect="non-scaling-stroke" fill-rule="evenodd" d="M753,144 L808,144 L808,145 L753,145 L753,144"/>
<path vector-effect="non-scaling-stroke" fill-rule="evenodd" d="M753,179 L808,179 L808,180 L753,180 L753,179"/>
<path vector-effect="non-scaling-stroke" fill-rule="evenodd" d="M808,144 L859,144 L859,145 L808,145 L808,144"/>
<path vector-effect="non-scaling-stroke" fill-rule="evenodd" d="M808,179 L859,179 L859,180 L808,180 L808,179"/>
<path vector-effect="non-scaling-stroke" fill-rule="evenodd" d="M165,179 L251,179 L251,180 L165,180 L165,179"/>
<path vector-effect="non-scaling-stroke" fill-rule="evenodd" d="M251,179 L335,179 L335,180 L251,180 L251,179"/>
<path vector-effect="non-scaling-stroke" fill-rule="evenodd" d="M251,215 L335,215 L335,216 L251,216 L251,215"/>
<path vector-effect="non-scaling-stroke" fill-rule="evenodd" d="M335,179 L388,179 L388,180 L335,180 L335,179"/>
<path vector-effect="non-scaling-stroke" fill-rule="evenodd" d="M335,215 L388,215 L388,216 L335,216 L335,215"/>
<path vector-effect="non-scaling-stroke" fill-rule="evenodd" d="M388,179 L480,179 L480,180 L388,180 L388,179"/>
<path vector-effect="non-scaling-stroke" fill-rule="evenodd" d="M388,215 L480,215 L480,216 L388,216 L388,215"/>
<path vector-effect="non-scaling-stroke" fill-rule="evenodd" d="M480,179 L530,179 L530,180 L480,180 L480,179"/>
<path vector-effect="non-scaling-stroke" fill-rule="evenodd" d="M480,215 L530,215 L530,216 L480,216 L480,215"/>
<path vector-effect="non-scaling-stroke" fill-rule="evenodd" d="M530,179 L667,179 L667,180 L530,180 L530,179"/>
<path vector-effect="non-scaling-stroke" fill-rule="evenodd" d="M530,215 L667,215 L667,216 L530,216 L530,215"/>
<path vector-effect="non-scaling-stroke" fill-rule="evenodd" d="M667,179 L753,179 L753,180 L667,180 L667,179"/>
<path vector-effect="non-scaling-stroke" fill-rule="evenodd" d="M667,215 L753,215 L753,216 L667,216 L667,215"/>
<path vector-effect="non-scaling-stroke" fill-rule="evenodd" d="M753,179 L808,179 L808,180 L753,180 L753,179"/>
<path vector-effect="non-scaling-stroke" fill-rule="evenodd" d="M753,215 L808,215 L808,216 L753,216 L753,215"/>
<path vector-effect="non-scaling-stroke" fill-rule="evenodd" d="M808,179 L859,179 L859,180 L808,180 L808,179"/>
<path vector-effect="non-scaling-stroke" fill-rule="evenodd" d="M808,215 L859,215 L859,216 L808,216 L808,215"/>
<path vector-effect="non-scaling-stroke" fill-rule="evenodd" d="M250,215 L335,215 L335,216 L250,216 L250,215"/>
<path vector-effect="non-scaling-stroke" fill-rule="evenodd" d="M250,251 L335,251 L335,252 L250,252 L250,251"/>
<path vector-effect="non-scaling-stroke" fill-rule="evenodd" d="M335,215 L388,215 L388,216 L335,216 L335,215"/>
<path vector-effect="non-scaling-stroke" fill-rule="evenodd" d="M335,251 L388,251 L388,252 L335,252 L335,251"/>
<path vector-effect="non-scaling-stroke" fill-rule="evenodd" d="M388,215 L480,215 L480,216 L388,216 L388,215"/>
<path vector-effect="non-scaling-stroke" fill-rule="evenodd" d="M388,251 L480,251 L480,252 L388,252 L388,251"/>
<path vector-effect="non-scaling-stroke" fill-rule="evenodd" d="M480,215 L530,215 L530,216 L480,216 L480,215"/>
<path vector-effect="non-scaling-stroke" fill-rule="evenodd" d="M480,251 L530,251 L530,252 L480,252 L480,251"/>
<path vector-effect="non-scaling-stroke" fill-rule="evenodd" d="M530,215 L667,215 L667,216 L530,216 L530,215"/>
<path vector-effect="non-scaling-stroke" fill-rule="evenodd" d="M530,251 L667,251 L667,252 L530,252 L530,251"/>
<path vector-effect="non-scaling-stroke" fill-rule="evenodd" d="M667,215 L753,215 L753,216 L667,216 L667,215"/>
<path vector-effect="non-scaling-stroke" fill-rule="evenodd" d="M753,215 L808,215 L808,216 L753,216 L753,215"/>
<path vector-effect="non-scaling-stroke" fill-rule="evenodd" d="M753,251 L808,251 L808,252 L753,252 L753,251"/>
<path vector-effect="non-scaling-stroke" fill-rule="evenodd" d="M808,215 L859,215 L859,216 L808,216 L808,215"/>
<path vector-effect="non-scaling-stroke" fill-rule="evenodd" d="M808,251 L859,251 L859,252 L808,252 L808,251"/>
<path vector-effect="non-scaling-stroke" fill-rule="evenodd" d="M165,287 L251,287 L251,288 L165,288 L165,287"/>
<path vector-effect="non-scaling-stroke" fill-rule="evenodd" d="M251,251 L335,251 L335,252 L251,252 L251,251"/>
<path vector-effect="non-scaling-stroke" fill-rule="evenodd" d="M251,287 L335,287 L335,288 L251,288 L251,287"/>
<path vector-effect="non-scaling-stroke" fill-rule="evenodd" d="M335,251 L388,251 L388,252 L335,252 L335,251"/>
<path vector-effect="non-scaling-stroke" fill-rule="evenodd" d="M335,287 L388,287 L388,288 L335,288 L335,287"/>
<path vector-effect="non-scaling-stroke" fill-rule="evenodd" d="M388,251 L480,251 L480,252 L388,252 L388,251"/>
<path vector-effect="non-scaling-stroke" fill-rule="evenodd" d="M388,287 L480,287 L480,288 L388,288 L388,287"/>
<path vector-effect="non-scaling-stroke" fill-rule="evenodd" d="M480,251 L530,251 L530,252 L480,252 L480,251"/>
<path vector-effect="non-scaling-stroke" fill-rule="evenodd" d="M480,287 L530,287 L530,288 L480,288 L480,287"/>
<path vector-effect="non-scaling-stroke" fill-rule="evenodd" d="M530,251 L668,251 L668,252 L530,252 L530,251"/>
<path vector-effect="non-scaling-stroke" fill-rule="evenodd" d="M530,287 L668,287 L668,288 L530,288 L530,287"/>
<path vector-effect="non-scaling-stroke" fill-rule="evenodd" d="M752,251 L808,251 L808,252 L752,252 L752,251"/>
<path vector-effect="non-scaling-stroke" fill-rule="evenodd" d="M752,287 L808,287 L808,288 L752,288 L752,287"/>
<path vector-effect="non-scaling-stroke" fill-rule="evenodd" d="M808,251 L859,251 L859,252 L808,252 L808,251"/>
<path vector-effect="non-scaling-stroke" fill-rule="evenodd" d="M808,287 L859,287 L859,288 L808,288 L808,287"/>
<path vector-effect="non-scaling-stroke" fill-rule="evenodd" d="M165,287 L251,287 L251,288 L165,288 L165,287"/>
<path vector-effect="non-scaling-stroke" fill-rule="evenodd" d="M251,287 L335,287 L335,288 L251,288 L251,287"/>
<path vector-effect="non-scaling-stroke" fill-rule="evenodd" d="M335,287 L388,287 L388,288 L335,288 L335,287"/>
<path vector-effect="non-scaling-stroke" fill-rule="evenodd" d="M388,287 L480,287 L480,288 L388,288 L388,287"/>
<path vector-effect="non-scaling-stroke" fill-rule="evenodd" d="M480,287 L530,287 L530,288 L480,288 L480,287"/>
<path vector-effect="non-scaling-stroke" fill-rule="evenodd" d="M530,287 L667,287 L667,288 L530,288 L530,287"/>
<path vector-effect="non-scaling-stroke" fill-rule="evenodd" d="M753,287 L808,287 L808,288 L753,288 L753,287"/>
<path vector-effect="non-scaling-stroke" fill-rule="evenodd" d="M808,287 L859,287 L859,288 L808,288 L808,287"/>
<path vector-effect="non-scaling-stroke" fill-rule="evenodd" d="M165,8 L251,8 L251,10 L165,10 L165,8"/>
<path vector-effect="non-scaling-stroke" fill-rule="evenodd" d="M165,38 L251,38 L251,40 L165,40 L165,38"/>
<path vector-effect="non-scaling-stroke" fill-rule="evenodd" d="M251,8 L335,8 L335,10 L251,10 L251,8"/>
<path vector-effect="non-scaling-stroke" fill-rule="evenodd" d="M251,38 L335,38 L335,40 L251,40 L251,38"/>
<path vector-effect="non-scaling-stroke" fill-rule="evenodd" d="M335,8 L388,8 L388,10 L335,10 L335,8"/>
<path vector-effect="non-scaling-stroke" fill-rule="evenodd" d="M335,38 L388,38 L388,40 L335,40 L335,38"/>
<path vector-effect="non-scaling-stroke" fill-rule="evenodd" d="M388,8 L480,8 L480,10 L388,10 L388,8"/>
<path vector-effect="non-scaling-stroke" fill-rule="evenodd" d="M388,38 L480,38 L480,40 L388,40 L388,38"/>
<path vector-effect="non-scaling-stroke" fill-rule="evenodd" d="M480,8 L530,8 L530,10 L480,10 L480,8"/>
<path vector-effect="non-scaling-stroke" fill-rule="evenodd" d="M480,38 L530,38 L530,40 L480,40 L480,38"/>
<path vector-effect="non-scaling-stroke" fill-rule="evenodd" d="M530,8 L667,8 L667,10 L530,10 L530,8"/>
<path vector-effect="non-scaling-stroke" fill-rule="evenodd" d="M530,38 L667,38 L667,40 L530,40 L530,38"/>
<path vector-effect="non-scaling-stroke" fill-rule="evenodd" d="M667,8 L753,8 L753,10 L667,10 L667,8"/>
<path vector-effect="non-scaling-stroke" fill-rule="evenodd" d="M667,38 L753,38 L753,40 L667,40 L667,38"/>
<path vector-effect="non-scaling-stroke" fill-rule="evenodd" d="M753,8 L808,8 L808,10 L753,10 L753,8"/>
<path vector-effect="non-scaling-stroke" fill-rule="evenodd" d="M753,38 L808,38 L808,40 L753,40 L753,38"/>
<path vector-effect="non-scaling-stroke" fill-rule="evenodd" d="M808,8 L859,8 L859,10 L808,10 L808,8"/>
<path vector-effect="non-scaling-stroke" fill-rule="evenodd" d="M808,38 L859,38 L859,40 L808,40 L808,38"/>
<path vector-effect="non-scaling-stroke" fill-rule="evenodd" d="M165,38 L251,38 L251,40 L165,40 L165,38"/>
<path vector-effect="non-scaling-stroke" fill-rule="evenodd" d="M251,38 L335,38 L335,40 L251,40 L251,38"/>
<path vector-effect="non-scaling-stroke" fill-rule="evenodd" d="M335,38 L388,38 L388,40 L335,40 L335,38"/>
<path vector-effect="non-scaling-stroke" fill-rule="evenodd" d="M388,38 L480,38 L480,40 L388,40 L388,38"/>
<path vector-effect="non-scaling-stroke" fill-rule="evenodd" d="M480,38 L530,38 L530,40 L480,40 L480,38"/>
<path vector-effect="non-scaling-stroke" fill-rule="evenodd" d="M530,38 L667,38 L667,40 L530,40 L530,38"/>
<path vector-effect="non-scaling-stroke" fill-rule="evenodd" d="M667,38 L753,38 L753,40 L667,40 L667,38"/>
<path vector-effect="non-scaling-stroke" fill-rule="evenodd" d="M753,38 L808,38 L808,40 L753,40 L753,38"/>
<path vector-effect="non-scaling-stroke" fill-rule="evenodd" d="M808,38 L859,38 L859,40 L808,40 L808,38"/>
<path vector-effect="non-scaling-stroke" fill-rule="evenodd" d="M165,322 L251,322 L251,324 L165,324 L165,322"/>
<path vector-effect="non-scaling-stroke" fill-rule="evenodd" d="M251,322 L335,322 L335,324 L251,324 L251,322"/>
<path vector-effect="non-scaling-stroke" fill-rule="evenodd" d="M335,322 L388,322 L388,324 L335,324 L335,322"/>
<path vector-effect="non-scaling-stroke" fill-rule="evenodd" d="M388,322 L480,322 L480,324 L388,324 L388,322"/>
<path vector-effect="non-scaling-stroke" fill-rule="evenodd" d="M480,322 L530,322 L530,324 L480,324 L480,322"/>
<path vector-effect="non-scaling-stroke" fill-rule="evenodd" d="M530,322 L667,322 L667,324 L530,324 L530,322"/>
<path vector-effect="non-scaling-stroke" fill-rule="evenodd" d="M667,322 L753,322 L753,324 L667,324 L667,322"/>
<path vector-effect="non-scaling-stroke" fill-rule="evenodd" d="M753,322 L808,322 L808,324 L753,324 L753,322"/>
<path vector-effect="non-scaling-stroke" fill-rule="evenodd" d="M808,322 L859,322 L859,324 L808,324 L808,322"/>
</g>

<g fill="#ff0000" fill-opacity="1" stroke="none" transform="matrix(1,0,0,1,0,0)"
font-family="Helvetica" font-size="12" font-weight="400" font-style="normal" 
>
<path vector-effect="non-scaling-stroke" fill-rule="evenodd" d="M165,214 L251,214 L251,216 L165,216 L165,214"/>
<path vector-effect="non-scaling-stroke" fill-rule="evenodd" d="M164,214 L252,214 L252,216 L164,216 L164,214"/>
<path vector-effect="non-scaling-stroke" fill-rule="evenodd" d="M164,250 L252,250 L252,252 L164,252 L164,250"/>
<path vector-effect="non-scaling-stroke" fill-rule="evenodd" d="M667,250 L753,250 L753,252 L667,252 L667,250"/>
<path vector-effect="non-scaling-stroke" fill-rule="evenodd" d="M165,250 L251,250 L251,252 L165,252 L165,250"/>
<path vector-effect="non-scaling-stroke" fill-rule="evenodd" d="M666,250 L754,250 L754,252 L666,252 L666,250"/>
<path vector-effect="non-scaling-stroke" fill-rule="evenodd" d="M666,286 L754,286 L754,288 L666,288 L666,286"/>
<path vector-effect="non-scaling-stroke" fill-rule="evenodd" d="M667,286 L753,286 L753,288 L667,288 L667,286"/>
</g>

<g fill="#0000ff" fill-opacity="1" stroke="none" transform="matrix(1,0,0,1,0,0)"
font-family="Helvetica" font-size="12" font-weight="400" font-style="normal" 
>
<path vector-effect="non-scaling-stroke" fill-rule="evenodd" d="M164,214 L166,214 L166,252 L164,252 L164,214"/>
<path vector-effect="non-scaling-stroke" fill-rule="evenodd" d="M250,214 L252,214 L252,252 L250,252 L250,214"/>
<path vector-effect="non-scaling-stroke" fill-rule="evenodd" d="M250,215 L252,215 L252,252 L250,252 L250,215"/>
<path vector-effect="non-scaling-stroke" fill-rule="evenodd" d="M666,251 L668,251 L668,288 L666,288 L666,251"/>
<path vector-effect="non-scaling-stroke" fill-rule="evenodd" d="M666,250 L668,250 L668,288 L666,288 L666,250"/>
<path vector-effect="non-scaling-stroke" fill-rule="evenodd" d="M752,250 L754,250 L754,288 L752,288 L752,250"/>
<path vector-effect="non-scaling-stroke" fill-rule="evenodd" d="M752,251 L754,251 L754,288 L752,288 L752,251"/>
</g>

<g fill="#333333" fill-opacity="1" stroke="#333333" stroke-opacity="1" stroke-width="1" stroke-linecap="square" stroke-linejoin="bevel" transform="matrix(1,0,0,1,0,0)"
font-family="Arial" font-size="16" font-weight="400" font-style="normal" 
>
<text fill="#333333" fill-opacity="1" stroke="none" xml:space="preserve" x="215" y="29" font-family="Arial" font-size="16" font-weight="400" font-style="normal" 
 >num</text>
<text fill="#333333" fill-opacity="1" stroke="none" xml:space="preserve" x="256" y="29" font-family="Arial" font-size="16" font-weight="400" font-style="normal" 
 >char</text>
<text fill="#333333" fill-opacity="1" stroke="none" xml:space="preserve" x="351" y="29" font-family="Arial" font-size="16" font-weight="400" font-style="normal" 
 >fctr</text>
<text fill="#333333" fill-opacity="1" stroke="none" xml:space="preserve" x="393" y="29" font-family="Arial" font-size="16" font-weight="400" font-style="normal" 
 >date</text>
<text fill="#333333" fill-opacity="1" stroke="none" xml:space="preserve" x="485" y="29" font-family="Arial" font-size="16" font-weight="400" font-style="normal" 
 >time</text>
<text fill="#333333" fill-opacity="1" stroke="none" xml:space="preserve" x="535" y="29" font-family="Arial" font-size="16" font-weight="400" font-style="normal" 
 >datetime</text>
<text fill="#333333" fill-opacity="1" stroke="none" xml:space="preserve" x="687" y="29" font-family="Arial" font-size="16" font-weight="400" font-style="normal" 
 >currency</text>
<text fill="#333333" fill-opacity="1" stroke="none" xml:space="preserve" x="758" y="29" font-family="Arial" font-size="16" font-weight="400" font-style="normal" 
 >row</text>
<text fill="#333333" fill-opacity="1" stroke="none" xml:space="preserve" x="813" y="29" font-family="Arial" font-size="16" font-weight="400" font-style="normal" 
 >group</text>
<text fill="#333333" fill-opacity="1" stroke="none" xml:space="preserve" x="174" y="62" font-family="Arial" font-size="16" font-weight="400" font-style="normal" 
 >1.111e-01</text>
<text fill="#333333" fill-opacity="1" stroke="none" xml:space="preserve" x="256" y="62" font-family="Arial" font-size="16" font-weight="400" font-style="normal" 
 >apricot</text>
<text fill="#333333" fill-opacity="1" stroke="none" xml:space="preserve" x="348" y="62" font-family="Arial" font-size="16" font-weight="400" font-style="normal" 
 >one</text>
<text fill="#333333" fill-opacity="1" stroke="none" xml:space="preserve" x="393" y="62" font-family="Arial" font-size="16" font-weight="400" font-style="normal" 
 >2015-01-15</text>
<text fill="#333333" fill-opacity="1" stroke="none" xml:space="preserve" x="485" y="62" font-family="Arial" font-size="16" font-weight="400" font-style="normal" 
 >13:35</text>
<text fill="#333333" fill-opacity="1" stroke="none" xml:space="preserve" x="535" y="62" font-family="Arial" font-size="16" font-weight="400" font-style="normal" 
 >2018-01-01 02:22</text>
<text fill="#333333" fill-opacity="1" stroke="none" xml:space="preserve" x="699" y="62" font-family="Arial" font-size="16" font-weight="400" font-style="normal" 
 >49.950</text>
<text fill="#333333" fill-opacity="1" stroke="none" xml:space="preserve" x="758" y="62" font-family="Arial" font-size="16" font-weight="400" font-style="normal" 
 >row_1</text>
<text fill="#333333" fill-opacity="1" stroke="none" xml:space="preserve" x="813" y="62" font-family="Arial" font-size="16" font-weight="400" font-style="normal" 
 >grp_a</text>
<text fill="#333333" fill-opacity="1" stroke="none" xml:space="preserve" x="170" y="97" font-family="Arial" font-size="16" font-weight="400" font-style="normal" 
 >2.222e+00</text>
<text fill="#333333" fill-opacity="1" stroke="none" xml:space="preserve" x="256" y="97" font-family="Arial" font-size="16" font-weight="400" font-style="normal" 
 >banana</text>
<text fill="#333333" fill-opacity="1" stroke="none" xml:space="preserve" x="349" y="97" font-family="Arial" font-size="16" font-weight="400" font-style="normal" 
 >two</text>
<text fill="#333333" fill-opacity="1" stroke="none" xml:space="preserve" x="393" y="97" font-family="Arial" font-size="16" font-weight="400" font-style="normal" 
 >2015-02-15</text>
<text fill="#333333" fill-opacity="1" stroke="none" xml:space="preserve" x="485" y="97" font-family="Arial" font-size="16" font-weight="400" font-style="normal" 
 >14:40</text>
<text fill="#333333" fill-opacity="1" stroke="none" xml:space="preserve" x="535" y="97" font-family="Arial" font-size="16" font-weight="400" font-style="normal" 
 >2018-02-02 14:33</text>
<text fill="#333333" fill-opacity="1" stroke="none" xml:space="preserve" x="699" y="97" font-family="Arial" font-size="16" font-weight="400" font-style="normal" 
 >17.950</text>
<text fill="#333333" fill-opacity="1" stroke="none" xml:space="preserve" x="758" y="97" font-family="Arial" font-size="16" font-weight="400" font-style="normal" 
 >row_2</text>
<text fill="#333333" fill-opacity="1" stroke="none" xml:space="preserve" x="813" y="97" font-family="Arial" font-size="16" font-weight="400" font-style="normal" 
 >grp_a</text>
<text fill="#333333" fill-opacity="1" stroke="none" xml:space="preserve" x="170" y="132" font-family="Arial" font-size="16" font-weight="400" font-style="normal" 
 >3.333e+01</text>
<text fill="#333333" fill-opacity="1" stroke="none" xml:space="preserve" x="256" y="132" font-family="Arial" font-size="16" font-weight="400" font-style="normal" 
 >coconut</text>
<text fill="#333333" fill-opacity="1" stroke="none" xml:space="preserve" x="343.5" y="132" font-family="Arial" font-size="16" font-weight="400" font-style="normal" 
 >three</text>
<text fill="#333333" fill-opacity="1" stroke="none" xml:space="preserve" x="393" y="132" font-family="Arial" font-size="16" font-weight="400" font-style="normal" 
 >2015-03-15</text>
<text fill="#333333" fill-opacity="1" stroke="none" xml:space="preserve" x="485" y="132" font-family="Arial" font-size="16" font-weight="400" font-style="normal" 
 >15:45</text>
<text fill="#333333" fill-opacity="1" stroke="none" xml:space="preserve" x="535" y="132" font-family="Arial" font-size="16" font-weight="400" font-style="normal" 
 >2018-03-03 03:44</text>
<text fill="#333333" fill-opacity="1" stroke="none" xml:space="preserve" x="708" y="132" font-family="Arial" font-size="16" font-weight="400" font-style="normal" 
 >1.390</text>
<text fill="#333333" fill-opacity="1" stroke="none" xml:space="preserve" x="758" y="132" font-family="Arial" font-size="16" font-weight="400" font-style="normal" 
 >row_3</text>
<text fill="#333333" fill-opacity="1" stroke="none" xml:space="preserve" x="813" y="132" font-family="Arial" font-size="16" font-weight="400" font-style="normal" 
 >grp_a</text>
<text fill="#333333" fill-opacity="1" stroke="none" xml:space="preserve" x="170" y="167" font-family="Arial" font-size="16" font-weight="400" font-style="normal" 
 >4.444e+02</text>
<text fill="#333333" fill-opacity="1" stroke="none" xml:space="preserve" x="256" y="167" font-family="Arial" font-size="16" font-weight="400" font-style="normal" 
 >durian</text>
<text fill="#333333" fill-opacity="1" stroke="none" xml:space="preserve" x="348" y="167" font-family="Arial" font-size="16" font-weight="400" font-style="normal" 
 >four</text>
<text fill="#333333" fill-opacity="1" stroke="none" xml:space="preserve" x="393" y="167" font-family="Arial" font-size="16" font-weight="400" font-style="normal" 
 >2015-04-15</text>
<text fill="#333333" fill-opacity="1" stroke="none" xml:space="preserve" x="485" y="167" font-family="Arial" font-size="16" font-weight="400" font-style="normal" 
 >16:50</text>
<text fill="#333333" fill-opacity="1" stroke="none" xml:space="preserve" x="535" y="167" font-family="Arial" font-size="16" font-weight="400" font-style="normal" 
 >2018-04-04 15:55</text>
<text fill="#333333" fill-opacity="1" stroke="none" xml:space="preserve" x="672" y="167" font-family="Arial" font-size="16" font-weight="400" font-style="normal" 
 >65100.000</text>
<text fill="#333333" fill-opacity="1" stroke="none" xml:space="preserve" x="758" y="167" font-family="Arial" font-size="16" font-weight="400" font-style="normal" 
 >row_4</text>
<text fill="#333333" fill-opacity="1" stroke="none" xml:space="preserve" x="813" y="167" font-family="Arial" font-size="16" font-weight="400" font-style="normal" 
 >grp_a</text>
<text fill="#333333" fill-opacity="1" stroke="none" xml:space="preserve" x="170" y="202" font-family="Arial" font-size="16" font-weight="400" font-style="normal" 
 >5.550e+03</text>
<text fill="#333333" fill-opacity="1" stroke="none" xml:space="preserve" x="256" y="202" font-family="Arial" font-size="16" font-weight="400" font-style="normal" 
 >NA</text>
<text fill="#333333" fill-opacity="1" stroke="none" xml:space="preserve" x="349" y="202" font-family="Arial" font-size="16" font-weight="400" font-style="normal" 
 >five</text>
<text fill="#333333" fill-opacity="1" stroke="none" xml:space="preserve" x="393" y="202" font-family="Arial" font-size="16" font-weight="400" font-style="normal" 
 >2015-05-15</text>
<text fill="#333333" fill-opacity="1" stroke="none" xml:space="preserve" x="485" y="202" font-family="Arial" font-size="16" font-weight="400" font-style="normal" 
 >17:55</text>
<text fill="#333333" fill-opacity="1" stroke="none" xml:space="preserve" x="535" y="202" font-family="Arial" font-size="16" font-weight="400" font-style="normal" 
 >2018-05-05 04:00</text>
<text fill="#333333" fill-opacity="1" stroke="none" xml:space="preserve" x="681" y="202" font-family="Arial" font-size="16" font-weight="400" font-style="normal" 
 >1325.810</text>
<text fill="#333333" fill-opacity="1" stroke="none" xml:space="preserve" x="758" y="202" font-family="Arial" font-size="16" font-weight="400" font-style="normal" 
 >row_5</text>
<text fill="#333333" fill-opacity="1" stroke="none" xml:space="preserve" x="813" y="202" font-family="Arial" font-size="16" font-weight="400" font-style="normal" 
 >grp_b</text>
<text fill="#333333" fill-opacity="1" stroke="none" xml:space="preserve" x="222" y="238" font-family="Arial" font-size="16" font-weight="400" font-style="normal" 
 >NA</text>
<text fill="#333333" fill-opacity="1" stroke="none" xml:space="preserve" x="257" y="238" font-family="Arial" font-size="16" font-weight="400" font-style="normal" 
 >fig</text>
<text fill="#333333" fill-opacity="1" stroke="none" xml:space="preserve" x="351.5" y="238" font-family="Arial" font-size="16" font-weight="400" font-style="normal" 
 >six</text>
<text fill="#333333" fill-opacity="1" stroke="none" xml:space="preserve" x="393" y="238" font-family="Arial" font-size="16" font-weight="400" font-style="normal" 
 >2015-06-15</text>
<text fill="#333333" fill-opacity="1" stroke="none" xml:space="preserve" x="485" y="238" font-family="Arial" font-size="16" font-weight="400" font-style="normal" 
 >NA</text>
<text fill="#333333" fill-opacity="1" stroke="none" xml:space="preserve" x="535" y="238" font-family="Arial" font-size="16" font-weight="400" font-style="normal" 
 >2018-06-06 16:11</text>
<text fill="#333333" fill-opacity="1" stroke="none" xml:space="preserve" x="699" y="238" font-family="Arial" font-size="16" font-weight="400" font-style="normal" 
 >13.255</text>
<text fill="#333333" fill-opacity="1" stroke="none" xml:space="preserve" x="758" y="238" font-family="Arial" font-size="16" font-weight="400" font-style="normal" 
 >row_6</text>
<text fill="#333333" fill-opacity="1" stroke="none" xml:space="preserve" x="813" y="238" font-family="Arial" font-size="16" font-weight="400" font-style="normal" 
 >grp_b</text>
<text fill="#333333" fill-opacity="1" stroke="none" xml:space="preserve" x="170" y="274" font-family="Arial" font-size="16" font-weight="400" font-style="normal" 
 >7.770e+05</text>
<text fill="#333333" fill-opacity="1" stroke="none" xml:space="preserve" x="256" y="274" font-family="Arial" font-size="16" font-weight="400" font-style="normal" 
 >grapefruit</text>
<text fill="#333333" fill-opacity="1" stroke="none" xml:space="preserve" x="340" y="274" font-family="Arial" font-size="16" font-weight="400" font-style="normal" 
 >seven</text>
<text fill="#333333" fill-opacity="1" stroke="none" xml:space="preserve" x="393" y="274" font-family="Arial" font-size="16" font-weight="400" font-style="normal" 
 >NA</text>
<text fill="#333333" fill-opacity="1" stroke="none" xml:space="preserve" x="485" y="274" font-family="Arial" font-size="16" font-weight="400" font-style="normal" 
 >19:10</text>
<text fill="#333333" fill-opacity="1" stroke="none" xml:space="preserve" x="535" y="274" font-family="Arial" font-size="16" font-weight="400" font-style="normal" 
 >2018-07-07 05:22</text>
<text fill="#333333" fill-opacity="1" stroke="none" xml:space="preserve" x="724" y="274" font-family="Arial" font-size="16" font-weight="400" font-style="normal" 
 >NA</text>
<text fill="#333333" fill-opacity="1" stroke="none" xml:space="preserve" x="759" y="274" font-family="Arial" font-size="16" font-weight="400" font-style="normal" 
 >row_7</text>
<text fill="#333333" fill-opacity="1" stroke="none" xml:space="preserve" x="813" y="274" font-family="Arial" font-size="16" font-weight="400" font-style="normal" 
 >grp_b</text>
<text fill="#333333" fill-opacity="1" stroke="none" xml:space="preserve" x="170" y="310" font-family="Arial" font-size="16" font-weight="400" font-style="normal" 
 >8.880e+06</text>
<text fill="#333333" fill-opacity="1" stroke="none" xml:space="preserve" x="256" y="310" font-family="Arial" font-size="16" font-weight="400" font-style="normal" 
 >honeydew</text>
<text fill="#333333" fill-opacity="1" stroke="none" xml:space="preserve" x="344" y="310" font-family="Arial" font-size="16" font-weight="400" font-style="normal" 
 >eight</text>
<text fill="#333333" fill-opacity="1" stroke="none" xml:space="preserve" x="393" y="310" font-family="Arial" font-size="16" font-weight="400" font-style="normal" 
 >2015-08-15</text>
<text fill="#333333" fill-opacity="1" stroke="none" xml:space="preserve" x="485" y="310" font-family="Arial" font-size="16" font-weight="400" font-style="normal" 
 >20:20</text>
<text fill="#333333" fill-opacity="1" stroke="none" xml:space="preserve" x="535" y="310" font-family="Arial" font-size="16" font-weight="400" font-style="normal" 
 >NA</text>
<text fill="#333333" fill-opacity="1" stroke="none" xml:space="preserve" x="708" y="310" font-family="Arial" font-size="16" font-weight="400" font-style="normal" 
 >0.440</text>
<text fill="#333333" fill-opacity="1" stroke="none" xml:space="preserve" x="758" y="310" font-family="Arial" font-size="16" font-weight="400" font-style="normal" 
 >row_8</text>
<text fill="#333333" fill-opacity="1" stroke="none" xml:space="preserve" x="813" y="310" font-family="Arial" font-size="16" font-weight="400" font-style="normal" 
 >grp_b</text>
</g>
</g>
</svg>
