<?xml version="1.0" encoding="UTF-8" standalone="no"?>
<svg width="361.244mm" height="116.064mm"
 viewBox="0 0 1024 329"
 xmlns="http://www.w3.org/2000/svg" xmlns:xlink="http://www.w3.org/1999/xlink"  version="1.2" baseProfile="tiny">
<title>Qt Svg Document</title>
<desc>Generated with Qt</desc>
<defs>
</defs>
<g fill="none" stroke="black" stroke-width="1" fill-rule="evenodd" stroke-linecap="square" stroke-linejoin="bevel" >

<g fill="#ffffff" fill-opacity="1" stroke="none" transform="matrix(1,0,0,1,0,0)"
font-family="Helvetica" font-size="12" font-weight="400" font-style="normal" 
>
<path vector-effect="non-scaling-stroke" fill-rule="evenodd" d="M0,0 L1024,0 L1024,329 L0,329 L0,0"/>
<path vector-effect="non-scaling-stroke" fill-rule="evenodd" d="M0,0 L1024,0 L1024,329 L0,329 L0,0"/>
<path vector-effect="non-scaling-stroke" fill-rule="evenodd" d="M0,0 L1024,0 L1024,329 L0,329 L0,0"/>
<path vector-effect="non-scaling-stroke" fill-rule="evenodd" d="M164,8 L860,8 L860,321 L164,321 L164,8"/>
<path vector-effect="non-scaling-stroke" fill-rule="evenodd" d="M164,9 L250,9 L250,39 L164,39 L164,9"/>
<path vector-effect="non-scaling-stroke" fill-rule="evenodd" d="M250,9 L334,9 L334,39 L250,39 L250,9"/>
<path vector-effect="non-scaling-stroke" fill-rule="evenodd" d="M334,9 L387,9 L387,39 L334,39 L334,9"/>
<path vector-effect="non-scaling-stroke" fill-rule="evenodd" d="M387,9 L479,9 L479,39 L387,39 L387,9"/>
<path vector-effect="non-scaling-stroke" fill-rule="evenodd" d="M479,9 L529,9 L529,39 L479,39 L479,9"/>
<path vector-effect="non-scaling-stroke" fill-rule="evenodd" d="M529,9 L665,9 L665,39 L529,39 L529,9"/>
<path vector-effect="non-scaling-stroke" fill-rule="evenodd" d="M665,9 L755,9 L755,39 L665,39 L665,9"/>
<path vector-effect="non-scaling-stroke" fill-rule="evenodd" d="M755,9 L809,9 L809,39 L755,39 L755,9"/>
<path vector-effect="non-scaling-stroke" fill-rule="evenodd" d="M809,9 L860,9 L860,39 L809,39 L809,9"/>
</g>

<g fill="#808080" fill-opacity="0.0470588" stroke="none" transform="matrix(1,0,0,1,0,0)"
font-family="Helvetica" font-size="12" font-weight="400" font-style="normal" 
>
<path vector-effect="non-scaling-stroke" fill-rule="evenodd" d="M164,74 L250,74 L250,109 L164,109 L164,74"/>
<path vector-effect="non-scaling-stroke" fill-rule="evenodd" d="M250,74 L334,74 L334,109 L250,109 L250,74"/>
<path vector-effect="non-scaling-stroke" fill-rule="evenodd" d="M334,74 L387,74 L387,109 L334,109 L334,74"/>
<path vector-effect="non-scaling-stroke" fill-rule="evenodd" d="M387,74 L479,74 L479,109 L387,109 L387,74"/>
<path vector-effect="non-scaling-stroke" fill-rule="evenodd" d="M479,74 L529,74 L529,109 L479,109 L479,74"/>
<path vector-effect="non-scaling-stroke" fill-rule="evenodd" d="M529,74 L665,74 L665,109 L529,109 L529,74"/>
<path vector-effect="non-scaling-stroke" fill-rule="evenodd" d="M665,74 L755,74 L755,109 L665,109 L665,74"/>
<path vector-effect="non-scaling-stroke" fill-rule="evenodd" d="M755,74 L809,74 L809,109 L755,109 L755,74"/>
<path vector-effect="non-scaling-stroke" fill-rule="evenodd" d="M809,74 L860,74 L860,109 L809,109 L809,74"/>
<path vector-effect="non-scaling-stroke" fill-rule="evenodd" d="M164,144 L250,144 L250,179 L164,179 L164,144"/>
<path vector-effect="non-scaling-stroke" fill-rule="evenodd" d="M250,144 L334,144 L334,179 L250,179 L250,144"/>
<path vector-effect="non-scaling-stroke" fill-rule="evenodd" d="M334,144 L387,144 L387,179 L334,179 L334,144"/>
<path vector-effect="non-scaling-stroke" fill-rule="evenodd" d="M387,144 L479,144 L479,179 L387,179 L387,144"/>
<path vector-effect="non-scaling-stroke" fill-rule="evenodd" d="M479,144 L529,144 L529,179 L479,179 L479,144"/>
<path vector-effect="non-scaling-stroke" fill-rule="evenodd" d="M529,144 L665,144 L665,179 L529,179 L529,144"/>
<path vector-effect="non-scaling-stroke" fill-rule="evenodd" d="M665,144 L755,144 L755,179 L665,179 L665,144"/>
<path vector-effect="non-scaling-stroke" fill-rule="evenodd" d="M755,144 L809,144 L809,179 L755,179 L755,144"/>
<path vector-effect="non-scaling-stroke" fill-rule="evenodd" d="M809,144 L860,144 L860,179 L809,179 L809,144"/>
<path vector-effect="non-scaling-stroke" fill-rule="evenodd" d="M164,214 L250,214 L250,249 L164,249 L164,214"/>
<path vector-effect="non-scaling-stroke" fill-rule="evenodd" d="M250,214 L334,214 L334,249 L250,249 L250,214"/>
<path vector-effect="non-scaling-stroke" fill-rule="evenodd" d="M334,214 L387,214 L387,249 L334,249 L334,214"/>
<path vector-effect="non-scaling-stroke" fill-rule="evenodd" d="M387,214 L479,214 L479,249 L387,249 L387,214"/>
<path vector-effect="non-scaling-stroke" fill-rule="evenodd" d="M479,214 L529,214 L529,249 L479,249 L479,214"/>
<path vector-effect="non-scaling-stroke" fill-rule="evenodd" d="M529,214 L665,214 L665,249 L529,249 L529,214"/>
<path vector-effect="non-scaling-stroke" fill-rule="evenodd" d="M665,214 L755,214 L755,249 L665,249 L665,214"/>
<path vector-effect="non-scaling-stroke" fill-rule="evenodd" d="M755,214 L809,214 L809,249 L755,249 L755,214"/>
<path vector-effect="non-scaling-stroke" fill-rule="evenodd" d="M809,214 L860,214 L860,249 L809,249 L809,214"/>
<path vector-effect="non-scaling-stroke" fill-rule="evenodd" d="M164,284 L250,284 L250,320 L164,320 L164,284"/>
<path vector-effect="non-scaling-stroke" fill-rule="evenodd" d="M250,284 L334,284 L334,320 L250,320 L250,284"/>
<path vector-effect="non-scaling-stroke" fill-rule="evenodd" d="M334,284 L387,284 L387,320 L334,320 L334,284"/>
<path vector-effect="non-scaling-stroke" fill-rule="evenodd" d="M387,284 L479,284 L479,320 L387,320 L387,284"/>
<path vector-effect="non-scaling-stroke" fill-rule="evenodd" d="M479,284 L529,284 L529,320 L479,320 L479,284"/>
<path vector-effect="non-scaling-stroke" fill-rule="evenodd" d="M529,284 L665,284 L665,320 L529,320 L529,284"/>
<path vector-effect="non-scaling-stroke" fill-rule="evenodd" d="M665,284 L755,284 L755,320 L665,320 L665,284"/>
<path vector-effect="non-scaling-stroke" fill-rule="evenodd" d="M755,284 L809,284 L809,320 L755,320 L755,284"/>
<path vector-effect="non-scaling-stroke" fill-rule="evenodd" d="M809,284 L860,284 L860,320 L809,320 L809,284"/>
</g>

<g fill="#d3d3d3" fill-opacity="1" stroke="none" transform="matrix(1,0,0,1,0,0)"
font-family="Helvetica" font-size="12" font-weight="400" font-style="normal" 
>
<path vector-effect="non-scaling-stroke" fill-rule="evenodd" d="M164,74 L250,74 L250,75 L164,75 L164,74"/>
<path vector-effect="non-scaling-stroke" fill-rule="evenodd" d="M250,74 L334,74 L334,75 L250,75 L250,74"/>
<path vector-effect="non-scaling-stroke" fill-rule="evenodd" d="M334,74 L387,74 L387,75 L334,75 L334,74"/>
<path vector-effect="non-scaling-stroke" fill-rule="evenodd" d="M387,74 L479,74 L479,75 L387,75 L387,74"/>
<path vector-effect="non-scaling-stroke" fill-rule="evenodd" d="M479,74 L529,74 L529,75 L479,75 L479,74"/>
<path vector-effect="non-scaling-stroke" fill-rule="evenodd" d="M529,74 L665,74 L665,75 L529,75 L529,74"/>
<path vector-effect="non-scaling-stroke" fill-rule="evenodd" d="M665,74 L755,74 L755,75 L665,75 L665,74"/>
<path vector-effect="non-scaling-stroke" fill-rule="evenodd" d="M755,74 L809,74 L809,75 L755,75 L755,74"/>
<path vector-effect="non-scaling-stroke" fill-rule="evenodd" d="M809,74 L860,74 L860,75 L809,75 L809,74"/>
<path vector-effect="non-scaling-stroke" fill-rule="evenodd" d="M164,74 L250,74 L250,75 L164,75 L164,74"/>
<path vector-effect="non-scaling-stroke" fill-rule="evenodd" d="M164,109 L250,109 L250,110 L164,110 L164,109"/>
<path vector-effect="non-scaling-stroke" fill-rule="evenodd" d="M250,74 L334,74 L334,75 L250,75 L250,74"/>
<path vector-effect="non-scaling-stroke" fill-rule="evenodd" d="M250,109 L334,109 L334,110 L250,110 L250,109"/>
<path vector-effect="non-scaling-stroke" fill-rule="evenodd" d="M334,74 L387,74 L387,75 L334,75 L334,74"/>
<path vector-effect="non-scaling-stroke" fill-rule="evenodd" d="M334,109 L387,109 L387,110 L334,110 L334,109"/>
<path vector-effect="non-scaling-stroke" fill-rule="evenodd" d="M387,74 L479,74 L479,75 L387,75 L387,74"/>
<path vector-effect="non-scaling-stroke" fill-rule="evenodd" d="M387,109 L479,109 L479,110 L387,110 L387,109"/>
<path vector-effect="non-scaling-stroke" fill-rule="evenodd" d="M479,74 L529,74 L529,75 L479,75 L479,74"/>
<path vector-effect="non-scaling-stroke" fill-rule="evenodd" d="M479,109 L529,109 L529,110 L479,110 L479,109"/>
<path vector-effect="non-scaling-stroke" fill-rule="evenodd" d="M529,74 L665,74 L665,75 L529,75 L529,74"/>
<path vector-effect="non-scaling-stroke" fill-rule="evenodd" d="M529,109 L665,109 L665,110 L529,110 L529,109"/>
<path vector-effect="non-scaling-stroke" fill-rule="evenodd" d="M665,74 L755,74 L755,75 L665,75 L665,74"/>
<path vector-effect="non-scaling-stroke" fill-rule="evenodd" d="M665,109 L755,109 L755,110 L665,110 L665,109"/>
<path vector-effect="non-scaling-stroke" fill-rule="evenodd" d="M755,74 L809,74 L809,75 L755,75 L755,74"/>
<path vector-effect="non-scaling-stroke" fill-rule="evenodd" d="M755,109 L809,109 L809,110 L755,110 L755,109"/>
<path vector-effect="non-scaling-stroke" fill-rule="evenodd" d="M809,74 L860,74 L860,75 L809,75 L809,74"/>
<path vector-effect="non-scaling-stroke" fill-rule="evenodd" d="M809,109 L860,109 L860,110 L809,110 L809,109"/>
<path vector-effect="non-scaling-stroke" fill-rule="evenodd" d="M164,109 L250,109 L250,110 L164,110 L164,109"/>
<path vector-effect="non-scaling-stroke" fill-rule="evenodd" d="M164,144 L250,144 L250,145 L164,145 L164,144"/>
<path vector-effect="non-scaling-stroke" fill-rule="evenodd" d="M250,109 L334,109 L334,110 L250,110 L250,109"/>
<path vector-effect="non-scaling-stroke" fill-rule="evenodd" d="M250,144 L334,144 L334,145 L250,145 L250,144"/>
<path vector-effect="non-scaling-stroke" fill-rule="evenodd" d="M334,109 L387,109 L387,110 L334,110 L334,109"/>
<path vector-effect="non-scaling-stroke" fill-rule="evenodd" d="M334,144 L387,144 L387,145 L334,145 L334,144"/>
<path vector-effect="non-scaling-stroke" fill-rule="evenodd" d="M387,109 L479,109 L479,110 L387,110 L387,109"/>
<path vector-effect="non-scaling-stroke" fill-rule="evenodd" d="M387,144 L479,144 L479,145 L387,145 L387,144"/>
<path vector-effect="non-scaling-stroke" fill-rule="evenodd" d="M479,109 L529,109 L529,110 L479,110 L479,109"/>
<path vector-effect="non-scaling-stroke" fill-rule="evenodd" d="M479,144 L529,144 L529,145 L479,145 L479,144"/>
<path vector-effect="non-scaling-stroke" fill-rule="evenodd" d="M529,109 L665,109 L665,110 L529,110 L529,109"/>
<path vector-effect="non-scaling-stroke" fill-rule="evenodd" d="M529,144 L665,144 L665,145 L529,145 L529,144"/>
<path vector-effect="non-scaling-stroke" fill-rule="evenodd" d="M665,109 L755,109 L755,110 L665,110 L665,109"/>
<path vector-effect="non-scaling-stroke" fill-rule="evenodd" d="M665,144 L755,144 L755,145 L665,145 L665,144"/>
<path vector-effect="non-scaling-stroke" fill-rule="evenodd" d="M755,109 L809,109 L809,110 L755,110 L755,109"/>
<path vector-effect="non-scaling-stroke" fill-rule="evenodd" d="M755,144 L809,144 L809,145 L755,145 L755,144"/>
<path vector-effect="non-scaling-stroke" fill-rule="evenodd" d="M809,109 L860,109 L860,110 L809,110 L809,109"/>
<path vector-effect="non-scaling-stroke" fill-rule="evenodd" d="M809,144 L860,144 L860,145 L809,145 L809,144"/>
<path vector-effect="non-scaling-stroke" fill-rule="evenodd" d="M164,144 L250,144 L250,145 L164,145 L164,144"/>
<path vector-effect="non-scaling-stroke" fill-rule="evenodd" d="M164,179 L250,179 L250,180 L164,180 L164,179"/>
<path vector-effect="non-scaling-stroke" fill-rule="evenodd" d="M250,144 L334,144 L334,145 L250,145 L250,144"/>
<path vector-effect="non-scaling-stroke" fill-rule="evenodd" d="M250,179 L334,179 L334,180 L250,180 L250,179"/>
<path vector-effect="non-scaling-stroke" fill-rule="evenodd" d="M334,144 L387,144 L387,145 L334,145 L334,144"/>
<path vector-effect="non-scaling-stroke" fill-rule="evenodd" d="M334,179 L387,179 L387,180 L334,180 L334,179"/>
<path vector-effect="non-scaling-stroke" fill-rule="evenodd" d="M387,144 L479,144 L479,145 L387,145 L387,144"/>
<path vector-effect="non-scaling-stroke" fill-rule="evenodd" d="M387,179 L479,179 L479,180 L387,180 L387,179"/>
<path vector-effect="non-scaling-stroke" fill-rule="evenodd" d="M479,144 L529,144 L529,145 L479,145 L479,144"/>
<path vector-effect="non-scaling-stroke" fill-rule="evenodd" d="M479,179 L529,179 L529,180 L479,180 L479,179"/>
<path vector-effect="non-scaling-stroke" fill-rule="evenodd" d="M529,144 L665,144 L665,145 L529,145 L529,144"/>
<path vector-effect="non-scaling-stroke" fill-rule="evenodd" d="M529,179 L665,179 L665,180 L529,180 L529,179"/>
<path vector-effect="non-scaling-stroke" fill-rule="evenodd" d="M665,144 L755,144 L755,145 L665,145 L665,144"/>
<path vector-effect="non-scaling-stroke" fill-rule="evenodd" d="M665,179 L755,179 L755,180 L665,180 L665,179"/>
<path vector-effect="non-scaling-stroke" fill-rule="evenodd" d="M755,144 L809,144 L809,145 L755,145 L755,144"/>
<path vector-effect="non-scaling-stroke" fill-rule="evenodd" d="M755,179 L809,179 L809,180 L755,180 L755,179"/>
<path vector-effect="non-scaling-stroke" fill-rule="evenodd" d="M809,144 L860,144 L860,145 L809,145 L809,144"/>
<path vector-effect="non-scaling-stroke" fill-rule="evenodd" d="M809,179 L860,179 L860,180 L809,180 L809,179"/>
<path vector-effect="non-scaling-stroke" fill-rule="evenodd" d="M164,179 L250,179 L250,180 L164,180 L164,179"/>
<path vector-effect="non-scaling-stroke" fill-rule="evenodd" d="M164,214 L250,214 L250,215 L164,215 L164,214"/>
<path vector-effect="non-scaling-stroke" fill-rule="evenodd" d="M250,179 L334,179 L334,180 L250,180 L250,179"/>
<path vector-effect="non-scaling-stroke" fill-rule="evenodd" d="M250,214 L334,214 L334,215 L250,215 L250,214"/>
<path vector-effect="non-scaling-stroke" fill-rule="evenodd" d="M334,179 L387,179 L387,180 L334,180 L334,179"/>
<path vector-effect="non-scaling-stroke" fill-rule="evenodd" d="M334,214 L387,214 L387,215 L334,215 L334,214"/>
<path vector-effect="non-scaling-stroke" fill-rule="evenodd" d="M387,179 L479,179 L479,180 L387,180 L387,179"/>
<path vector-effect="non-scaling-stroke" fill-rule="evenodd" d="M387,214 L479,214 L479,215 L387,215 L387,214"/>
<path vector-effect="non-scaling-stroke" fill-rule="evenodd" d="M479,179 L529,179 L529,180 L479,180 L479,179"/>
<path vector-effect="non-scaling-stroke" fill-rule="evenodd" d="M479,214 L529,214 L529,215 L479,215 L479,214"/>
<path vector-effect="non-scaling-stroke" fill-rule="evenodd" d="M529,179 L665,179 L665,180 L529,180 L529,179"/>
<path vector-effect="non-scaling-stroke" fill-rule="evenodd" d="M529,214 L665,214 L665,215 L529,215 L529,214"/>
<path vector-effect="non-scaling-stroke" fill-rule="evenodd" d="M665,179 L755,179 L755,180 L665,180 L665,179"/>
<path vector-effect="non-scaling-stroke" fill-rule="evenodd" d="M665,214 L755,214 L755,215 L665,215 L665,214"/>
<path vector-effect="non-scaling-stroke" fill-rule="evenodd" d="M755,179 L809,179 L809,180 L755,180 L755,179"/>
<path vector-effect="non-scaling-stroke" fill-rule="evenodd" d="M755,214 L809,214 L809,215 L755,215 L755,214"/>
<path vector-effect="non-scaling-stroke" fill-rule="evenodd" d="M809,179 L860,179 L860,180 L809,180 L809,179"/>
<path vector-effect="non-scaling-stroke" fill-rule="evenodd" d="M809,214 L860,214 L860,215 L809,215 L809,214"/>
<path vector-effect="non-scaling-stroke" fill-rule="evenodd" d="M164,214 L250,214 L250,215 L164,215 L164,214"/>
<path vector-effect="non-scaling-stroke" fill-rule="evenodd" d="M164,249 L250,249 L250,250 L164,250 L164,249"/>
<path vector-effect="non-scaling-stroke" fill-rule="evenodd" d="M250,214 L334,214 L334,215 L250,215 L250,214"/>
<path vector-effect="non-scaling-stroke" fill-rule="evenodd" d="M250,249 L334,249 L334,250 L250,250 L250,249"/>
<path vector-effect="non-scaling-stroke" fill-rule="evenodd" d="M334,214 L387,214 L387,215 L334,215 L334,214"/>
<path vector-effect="non-scaling-stroke" fill-rule="evenodd" d="M334,249 L387,249 L387,250 L334,250 L334,249"/>
<path vector-effect="non-scaling-stroke" fill-rule="evenodd" d="M387,214 L479,214 L479,215 L387,215 L387,214"/>
<path vector-effect="non-scaling-stroke" fill-rule="evenodd" d="M387,249 L479,249 L479,250 L387,250 L387,249"/>
<path vector-effect="non-scaling-stroke" fill-rule="evenodd" d="M479,214 L529,214 L529,215 L479,215 L479,214"/>
<path vector-effect="non-scaling-stroke" fill-rule="evenodd" d="M479,249 L529,249 L529,250 L479,250 L479,249"/>
<path vector-effect="non-scaling-stroke" fill-rule="evenodd" d="M529,214 L665,214 L665,215 L529,215 L529,214"/>
<path vector-effect="non-scaling-stroke" fill-rule="evenodd" d="M529,249 L665,249 L665,250 L529,250 L529,249"/>
<path vector-effect="non-scaling-stroke" fill-rule="evenodd" d="M665,214 L755,214 L755,215 L665,215 L665,214"/>
<path vector-effect="non-scaling-stroke" fill-rule="evenodd" d="M665,249 L755,249 L755,250 L665,250 L665,249"/>
<path vector-effect="non-scaling-stroke" fill-rule="evenodd" d="M755,214 L809,214 L809,215 L755,215 L755,214"/>
<path vector-effect="non-scaling-stroke" fill-rule="evenodd" d="M755,249 L809,249 L809,250 L755,250 L755,249"/>
<path vector-effect="non-scaling-stroke" fill-rule="evenodd" d="M809,214 L860,214 L860,215 L809,215 L809,214"/>
<path vector-effect="non-scaling-stroke" fill-rule="evenodd" d="M809,249 L860,249 L860,250 L809,250 L809,249"/>
<path vector-effect="non-scaling-stroke" fill-rule="evenodd" d="M164,249 L250,249 L250,250 L164,250 L164,249"/>
<path vector-effect="non-scaling-stroke" fill-rule="evenodd" d="M164,284 L250,284 L250,285 L164,285 L164,284"/>
<path vector-effect="non-scaling-stroke" fill-rule="evenodd" d="M250,249 L334,249 L334,250 L250,250 L250,249"/>
<path vector-effect="non-scaling-stroke" fill-rule="evenodd" d="M250,284 L334,284 L334,285 L250,285 L250,284"/>
<path vector-effect="non-scaling-stroke" fill-rule="evenodd" d="M334,249 L387,249 L387,250 L334,250 L334,249"/>
<path vector-effect="non-scaling-stroke" fill-rule="evenodd" d="M334,284 L387,284 L387,285 L334,285 L334,284"/>
<path vector-effect="non-scaling-stroke" fill-rule="evenodd" d="M387,249 L479,249 L479,250 L387,250 L387,249"/>
<path vector-effect="non-scaling-stroke" fill-rule="evenodd" d="M387,284 L479,284 L479,285 L387,285 L387,284"/>
<path vector-effect="non-scaling-stroke" fill-rule="evenodd" d="M479,249 L529,249 L529,250 L479,250 L479,249"/>
<path vector-effect="non-scaling-stroke" fill-rule="evenodd" d="M479,284 L529,284 L529,285 L479,285 L479,284"/>
<path vector-effect="non-scaling-stroke" fill-rule="evenodd" d="M529,249 L665,249 L665,250 L529,250 L529,249"/>
<path vector-effect="non-scaling-stroke" fill-rule="evenodd" d="M529,284 L665,284 L665,285 L529,285 L529,284"/>
<path vector-effect="non-scaling-stroke" fill-rule="evenodd" d="M665,249 L755,249 L755,250 L665,250 L665,249"/>
<path vector-effect="non-scaling-stroke" fill-rule="evenodd" d="M665,284 L755,284 L755,285 L665,285 L665,284"/>
<path vector-effect="non-scaling-stroke" fill-rule="evenodd" d="M755,249 L809,249 L809,250 L755,250 L755,249"/>
<path vector-effect="non-scaling-stroke" fill-rule="evenodd" d="M755,284 L809,284 L809,285 L755,285 L755,284"/>
<path vector-effect="non-scaling-stroke" fill-rule="evenodd" d="M809,249 L860,249 L860,250 L809,250 L809,249"/>
<path vector-effect="non-scaling-stroke" fill-rule="evenodd" d="M809,284 L860,284 L860,285 L809,285 L809,284"/>
<path vector-effect="non-scaling-stroke" fill-rule="evenodd" d="M164,284 L250,284 L250,285 L164,285 L164,284"/>
<path vector-effect="non-scaling-stroke" fill-rule="evenodd" d="M250,284 L334,284 L334,285 L250,285 L250,284"/>
<path vector-effect="non-scaling-stroke" fill-rule="evenodd" d="M334,284 L387,284 L387,285 L334,285 L334,284"/>
<path vector-effect="non-scaling-stroke" fill-rule="evenodd" d="M387,284 L479,284 L479,285 L387,285 L387,284"/>
<path vector-effect="non-scaling-stroke" fill-rule="evenodd" d="M479,284 L529,284 L529,285 L479,285 L479,284"/>
<path vector-effect="non-scaling-stroke" fill-rule="evenodd" d="M529,284 L665,284 L665,285 L529,285 L529,284"/>
<path vector-effect="non-scaling-stroke" fill-rule="evenodd" d="M665,284 L755,284 L755,285 L665,285 L665,284"/>
<path vector-effect="non-scaling-stroke" fill-rule="evenodd" d="M755,284 L809,284 L809,285 L755,285 L755,284"/>
<path vector-effect="non-scaling-stroke" fill-rule="evenodd" d="M809,284 L860,284 L860,285 L809,285 L809,284"/>
<path vector-effect="non-scaling-stroke" fill-rule="evenodd" d="M164,8 L250,8 L250,10 L164,10 L164,8"/>
<path vector-effect="non-scaling-stroke" fill-rule="evenodd" d="M164,38 L250,38 L250,40 L164,40 L164,38"/>
<path vector-effect="non-scaling-stroke" fill-rule="evenodd" d="M250,8 L334,8 L334,10 L250,10 L250,8"/>
<path vector-effect="non-scaling-stroke" fill-rule="evenodd" d="M250,38 L334,38 L334,40 L250,40 L250,38"/>
<path vector-effect="non-scaling-stroke" fill-rule="evenodd" d="M334,8 L387,8 L387,10 L334,10 L334,8"/>
<path vector-effect="non-scaling-stroke" fill-rule="evenodd" d="M334,38 L387,38 L387,40 L334,40 L334,38"/>
<path vector-effect="non-scaling-stroke" fill-rule="evenodd" d="M387,8 L479,8 L479,10 L387,10 L387,8"/>
<path vector-effect="non-scaling-stroke" fill-rule="evenodd" d="M387,38 L479,38 L479,40 L387,40 L387,38"/>
<path vector-effect="non-scaling-stroke" fill-rule="evenodd" d="M479,8 L529,8 L529,10 L479,10 L479,8"/>
<path vector-effect="non-scaling-stroke" fill-rule="evenodd" d="M479,38 L529,38 L529,40 L479,40 L479,38"/>
<path vector-effect="non-scaling-stroke" fill-rule="evenodd" d="M529,8 L665,8 L665,10 L529,10 L529,8"/>
<path vector-effect="non-scaling-stroke" fill-rule="evenodd" d="M529,38 L665,38 L665,40 L529,40 L529,38"/>
<path vector-effect="non-scaling-stroke" fill-rule="evenodd" d="M665,8 L755,8 L755,10 L665,10 L665,8"/>
<path vector-effect="non-scaling-stroke" fill-rule="evenodd" d="M665,38 L755,38 L755,40 L665,40 L665,38"/>
<path vector-effect="non-scaling-stroke" fill-rule="evenodd" d="M755,8 L809,8 L809,10 L755,10 L755,8"/>
<path vector-effect="non-scaling-stroke" fill-rule="evenodd" d="M755,38 L809,38 L809,40 L755,40 L755,38"/>
<path vector-effect="non-scaling-stroke" fill-rule="evenodd" d="M809,8 L860,8 L860,10 L809,10 L809,8"/>
<path vector-effect="non-scaling-stroke" fill-rule="evenodd" d="M809,38 L860,38 L860,40 L809,40 L809,38"/>
<path vector-effect="non-scaling-stroke" fill-rule="evenodd" d="M164,38 L250,38 L250,40 L164,40 L164,38"/>
<path vector-effect="non-scaling-stroke" fill-rule="evenodd" d="M250,38 L334,38 L334,40 L250,40 L250,38"/>
<path vector-effect="non-scaling-stroke" fill-rule="evenodd" d="M334,38 L387,38 L387,40 L334,40 L334,38"/>
<path vector-effect="non-scaling-stroke" fill-rule="evenodd" d="M387,38 L479,38 L479,40 L387,40 L387,38"/>
<path vector-effect="non-scaling-stroke" fill-rule="evenodd" d="M479,38 L529,38 L529,40 L479,40 L479,38"/>
<path vector-effect="non-scaling-stroke" fill-rule="evenodd" d="M529,38 L665,38 L665,40 L529,40 L529,38"/>
<path vector-effect="non-scaling-stroke" fill-rule="evenodd" d="M665,38 L755,38 L755,40 L665,40 L665,38"/>
<path vector-effect="non-scaling-stroke" fill-rule="evenodd" d="M755,38 L809,38 L809,40 L755,40 L755,38"/>
<path vector-effect="non-scaling-stroke" fill-rule="evenodd" d="M809,38 L860,38 L860,40 L809,40 L809,38"/>
<path vector-effect="non-scaling-stroke" fill-rule="evenodd" d="M164,319 L250,319 L250,321 L164,321 L164,319"/>
<path vector-effect="non-scaling-stroke" fill-rule="evenodd" d="M250,319 L334,319 L334,321 L250,321 L250,319"/>
<path vector-effect="non-scaling-stroke" fill-rule="evenodd" d="M334,319 L387,319 L387,321 L334,321 L334,319"/>
<path vector-effect="non-scaling-stroke" fill-rule="evenodd" d="M387,319 L479,319 L479,321 L387,321 L387,319"/>
<path vector-effect="non-scaling-stroke" fill-rule="evenodd" d="M479,319 L529,319 L529,321 L479,321 L479,319"/>
<path vector-effect="non-scaling-stroke" fill-rule="evenodd" d="M529,319 L665,319 L665,321 L529,321 L529,319"/>
<path vector-effect="non-scaling-stroke" fill-rule="evenodd" d="M665,319 L755,319 L755,321 L665,321 L665,319"/>
<path vector-effect="non-scaling-stroke" fill-rule="evenodd" d="M755,319 L809,319 L809,321 L755,321 L755,319"/>
<path vector-effect="non-scaling-stroke" fill-rule="evenodd" d="M809,319 L860,319 L860,321 L809,321 L809,319"/>
</g>

<g fill="#333333" fill-opacity="1" stroke="#333333" stroke-opacity="1" stroke-width="1" stroke-linecap="square" stroke-linejoin="bevel" transform="matrix(1,0,0,1,0,0)"
font-family="Arial" font-size="16" font-weight="400" font-style="normal" 
>
<text fill="#333333" fill-opacity="1" stroke="none" xml:space="preserve" x="214" y="29" font-family="Arial" font-size="16" font-weight="400" font-style="normal" 
 >num</text>
<text fill="#333333" fill-opacity="1" stroke="none" xml:space="preserve" x="255" y="29" font-family="Arial" font-size="16" font-weight="400" font-style="normal" 
 >char</text>
<text fill="#333333" fill-opacity="1" stroke="none" xml:space="preserve" x="350" y="29" font-family="Arial" font-size="16" font-weight="400" font-style="normal" 
 >fctr</text>
<text fill="#333333" fill-opacity="1" stroke="none" xml:space="preserve" x="392" y="29" font-family="Arial" font-size="16" font-weight="400" font-style="normal" 
 >date</text>
<text fill="#333333" fill-opacity="1" stroke="none" xml:space="preserve" x="484" y="29" font-family="Arial" font-size="16" font-weight="400" font-style="normal" 
 >time</text>
<text fill="#333333" fill-opacity="1" stroke="none" xml:space="preserve" x="534" y="29" font-family="Arial" font-size="16" font-weight="400" font-style="normal" 
 >datetime</text>
<text fill="#333333" fill-opacity="1" stroke="none" xml:space="preserve" x="689" y="29" font-family="Arial" font-size="16" font-weight="400" font-style="normal" 
 >currency</text>
<text fill="#333333" fill-opacity="1" stroke="none" xml:space="preserve" x="760" y="29" font-family="Arial" font-size="16" font-weight="400" font-style="normal" 
 >row</text>
<text fill="#333333" fill-opacity="1" stroke="none" xml:space="preserve" x="814" y="29" font-family="Arial" font-size="16" font-weight="400" font-style="normal" 
 >group</text>
<text fill="#333333" fill-opacity="1" stroke="none" xml:space="preserve" x="173" y="62" font-family="Arial" font-size="16" font-weight="400" font-style="normal" 
 >1.111e-01</text>
<text fill="#333333" fill-opacity="1" stroke="none" xml:space="preserve" x="255" y="62" font-family="Arial" font-size="16" font-weight="400" font-style="normal" 
 >apricot</text>
<text fill="#333333" fill-opacity="1" stroke="none" xml:space="preserve" x="347" y="62" font-family="Arial" font-size="16" font-weight="400" font-style="normal" 
 >one</text>
<text fill="#333333" fill-opacity="1" stroke="none" xml:space="preserve" x="392" y="62" font-family="Arial" font-size="16" font-weight="400" font-style="normal" 
 >2015-01-15</text>
<text fill="#333333" fill-opacity="1" stroke="none" xml:space="preserve" x="484" y="62" font-family="Arial" font-size="16" font-weight="400" font-style="normal" 
 >13:35</text>
<text fill="#333333" fill-opacity="1" stroke="none" xml:space="preserve" x="534" y="62" font-family="Arial" font-size="16" font-weight="400" font-style="normal" 
 >2018-01-01 02:22</text>
<text fill="#333333" fill-opacity="1" stroke="none" xml:space="preserve" x="701" y="62" font-family="Arial" font-size="16" font-weight="400" font-style="normal" 
 >ƒ49.95</text>
<text fill="#333333" fill-opacity="1" stroke="none" xml:space="preserve" x="760" y="62" font-family="Arial" font-size="16" font-weight="400" font-style="normal" 
 >row_1</text>
<text fill="#333333" fill-opacity="1" stroke="none" xml:space="preserve" x="814" y="62" font-family="Arial" font-size="16" font-weight="400" font-style="normal" 
 >grp_a</text>
<text fill="#333333" fill-opacity="1" stroke="none" xml:space="preserve" x="169" y="97" font-family="Arial" font-size="16" font-weight="400" font-style="normal" 
 >2.222e+00</text>
<text fill="#333333" fill-opacity="1" stroke="none" xml:space="preserve" x="255" y="97" font-family="Arial" font-size="16" font-weight="400" font-style="normal" 
 >banana</text>
<text fill="#333333" fill-opacity="1" stroke="none" xml:space="preserve" x="348" y="97" font-family="Arial" font-size="16" font-weight="400" font-style="normal" 
 >two</text>
<text fill="#333333" fill-opacity="1" stroke="none" xml:space="preserve" x="392" y="97" font-family="Arial" font-size="16" font-weight="400" font-style="normal" 
 >2015-02-15</text>
<text fill="#333333" fill-opacity="1" stroke="none" xml:space="preserve" x="484" y="97" font-family="Arial" font-size="16" font-weight="400" font-style="normal" 
 >14:40</text>
<text fill="#333333" fill-opacity="1" stroke="none" xml:space="preserve" x="534" y="97" font-family="Arial" font-size="16" font-weight="400" font-style="normal" 
 >2018-02-02 14:33</text>
<text fill="#333333" fill-opacity="1" stroke="none" xml:space="preserve" x="701" y="97" font-family="Arial" font-size="16" font-weight="400" font-style="normal" 
 >ƒ17.95</text>
<text fill="#333333" fill-opacity="1" stroke="none" xml:space="preserve" x="760" y="97" font-family="Arial" font-size="16" font-weight="400" font-style="normal" 
 >row_2</text>
<text fill="#333333" fill-opacity="1" stroke="none" xml:space="preserve" x="814" y="97" font-family="Arial" font-size="16" font-weight="400" font-style="normal" 
 >grp_a</text>
<text fill="#333333" fill-opacity="1" stroke="none" xml:space="preserve" x="169" y="132" font-family="Arial" font-size="16" font-weight="400" font-style="normal" 
 >3.333e+01</text>
<text fill="#333333" fill-opacity="1" stroke="none" xml:space="preserve" x="255" y="132" font-family="Arial" font-size="16" font-weight="400" font-style="normal" 
 >coconut</text>
<text fill="#333333" fill-opacity="1" stroke="none" xml:space="preserve" x="342.5" y="132" font-family="Arial" font-size="16" font-weight="400" font-style="normal" 
 >three</text>
<text fill="#333333" fill-opacity="1" stroke="none" xml:space="preserve" x="392" y="132" font-family="Arial" font-size="16" font-weight="400" font-style="normal" 
 >2015-03-15</text>
<text fill="#333333" fill-opacity="1" stroke="none" xml:space="preserve" x="484" y="132" font-family="Arial" font-size="16" font-weight="400" font-style="normal" 
 >15:45</text>
<text fill="#333333" fill-opacity="1" stroke="none" xml:space="preserve" x="534" y="132" font-family="Arial" font-size="16" font-weight="400" font-style="normal" 
 >2018-03-03 03:44</text>
<text fill="#333333" fill-opacity="1" stroke="none" xml:space="preserve" x="710" y="132" font-family="Arial" font-size="16" font-weight="400" font-style="normal" 
 >ƒ1.39</text>
<text fill="#333333" fill-opacity="1" stroke="none" xml:space="preserve" x="760" y="132" font-family="Arial" font-size="16" font-weight="400" font-style="normal" 
 >row_3</text>
<text fill="#333333" fill-opacity="1" stroke="none" xml:space="preserve" x="814" y="132" font-family="Arial" font-size="16" font-weight="400" font-style="normal" 
 >grp_a</text>
<text fill="#333333" fill-opacity="1" stroke="none" xml:space="preserve" x="169" y="167" font-family="Arial" font-size="16" font-weight="400" font-style="normal" 
 >4.444e+02</text>
<text fill="#333333" fill-opacity="1" stroke="none" xml:space="preserve" x="255" y="167" font-family="Arial" font-size="16" font-weight="400" font-style="normal" 
 >durian</text>
<text fill="#333333" fill-opacity="1" stroke="none" xml:space="preserve" x="347" y="167" font-family="Arial" font-size="16" font-weight="400" font-style="normal" 
 >four</text>
<text fill="#333333" fill-opacity="1" stroke="none" xml:space="preserve" x="392" y="167" font-family="Arial" font-size="16" font-weight="400" font-style="normal" 
 >2015-04-15</text>
<text fill="#333333" fill-opacity="1" stroke="none" xml:space="preserve" x="484" y="167" font-family="Arial" font-size="16" font-weight="400" font-style="normal" 
 >16:50</text>
<text fill="#333333" fill-opacity="1" stroke="none" xml:space="preserve" x="534" y="167" font-family="Arial" font-size="16" font-weight="400" font-style="normal" 
 >2018-04-04 15:55</text>
<text fill="#333333" fill-opacity="1" stroke="none" xml:space="preserve" x="670" y="167" font-family="Arial" font-size="16" font-weight="400" font-style="normal" 
 >ƒ65,100.00</text>
<text fill="#333333" fill-opacity="1" stroke="none" xml:space="preserve" x="760" y="167" font-family="Arial" font-size="16" font-weight="400" font-style="normal" 
 >row_4</text>
<text fill="#333333" fill-opacity="1" stroke="none" xml:space="preserve" x="814" y="167" font-family="Arial" font-size="16" font-weight="400" font-style="normal" 
 >grp_a</text>
<text fill="#333333" fill-opacity="1" stroke="none" xml:space="preserve" x="169" y="202" font-family="Arial" font-size="16" font-weight="400" font-style="normal" 
 >5.550e+03</text>
<text fill="#333333" fill-opacity="1" stroke="none" xml:space="preserve" x="255" y="202" font-family="Arial" font-size="16" font-weight="400" font-style="normal" 
 >NA</text>
<text fill="#333333" fill-opacity="1" stroke="none" xml:space="preserve" x="348" y="202" font-family="Arial" font-size="16" font-weight="400" font-style="normal" 
 >five</text>
<text fill="#333333" fill-opacity="1" stroke="none" xml:space="preserve" x="392" y="202" font-family="Arial" font-size="16" font-weight="400" font-style="normal" 
 >2015-05-15</text>
<text fill="#333333" fill-opacity="1" stroke="none" xml:space="preserve" x="484" y="202" font-family="Arial" font-size="16" font-weight="400" font-style="normal" 
 >17:55</text>
<text fill="#333333" fill-opacity="1" stroke="none" xml:space="preserve" x="534" y="202" font-family="Arial" font-size="16" font-weight="400" font-style="normal" 
 >2018-05-05 04:00</text>
<text fill="#333333" fill-opacity="1" stroke="none" xml:space="preserve" x="679" y="202" font-family="Arial" font-size="16" font-weight="400" font-style="normal" 
 >ƒ1,325.81</text>
<text fill="#333333" fill-opacity="1" stroke="none" xml:space="preserve" x="760" y="202" font-family="Arial" font-size="16" font-weight="400" font-style="normal" 
 >row_5</text>
<text fill="#333333" fill-opacity="1" stroke="none" xml:space="preserve" x="814" y="202" font-family="Arial" font-size="16" font-weight="400" font-style="normal" 
 >grp_b</text>
<text fill="#333333" fill-opacity="1" stroke="none" xml:space="preserve" x="222" y="237" font-family="Arial" font-size="16" font-weight="400" font-style="normal" 
 >NA</text>
<text fill="#333333" fill-opacity="1" stroke="none" xml:space="preserve" x="255" y="237" font-family="Arial" font-size="16" font-weight="400" font-style="normal" 
 >fig</text>
<text fill="#333333" fill-opacity="1" stroke="none" xml:space="preserve" x="350.5" y="237" font-family="Arial" font-size="16" font-weight="400" font-style="normal" 
 >six</text>
<text fill="#333333" fill-opacity="1" stroke="none" xml:space="preserve" x="392" y="237" font-family="Arial" font-size="16" font-weight="400" font-style="normal" 
 >2015-06-15</text>
<text fill="#333333" fill-opacity="1" stroke="none" xml:space="preserve" x="484" y="237" font-family="Arial" font-size="16" font-weight="400" font-style="normal" 
 >NA</text>
<text fill="#333333" fill-opacity="1" stroke="none" xml:space="preserve" x="534" y="237" font-family="Arial" font-size="16" font-weight="400" font-style="normal" 
 >2018-06-06 16:11</text>
<text fill="#333333" fill-opacity="1" stroke="none" xml:space="preserve" x="701" y="237" font-family="Arial" font-size="16" font-weight="400" font-style="normal" 
 >ƒ13.26</text>
<text fill="#333333" fill-opacity="1" stroke="none" xml:space="preserve" x="760" y="237" font-family="Arial" font-size="16" font-weight="400" font-style="normal" 
 >row_6</text>
<text fill="#333333" fill-opacity="1" stroke="none" xml:space="preserve" x="814" y="237" font-family="Arial" font-size="16" font-weight="400" font-style="normal" 
 >grp_b</text>
<text fill="#333333" fill-opacity="1" stroke="none" xml:space="preserve" x="169" y="272" font-family="Arial" font-size="16" font-weight="400" font-style="normal" 
 >7.770e+05</text>
<text fill="#333333" fill-opacity="1" stroke="none" xml:space="preserve" x="255" y="272" font-family="Arial" font-size="16" font-weight="400" font-style="normal" 
 >grapefruit</text>
<text fill="#333333" fill-opacity="1" stroke="none" xml:space="preserve" x="339" y="272" font-family="Arial" font-size="16" font-weight="400" font-style="normal" 
 >seven</text>
<text fill="#333333" fill-opacity="1" stroke="none" xml:space="preserve" x="392" y="272" font-family="Arial" font-size="16" font-weight="400" font-style="normal" 
 >NA</text>
<text fill="#333333" fill-opacity="1" stroke="none" xml:space="preserve" x="484" y="272" font-family="Arial" font-size="16" font-weight="400" font-style="normal" 
 >19:10</text>
<text fill="#333333" fill-opacity="1" stroke="none" xml:space="preserve" x="534" y="272" font-family="Arial" font-size="16" font-weight="400" font-style="normal" 
 >2018-07-07 05:22</text>
<text fill="#333333" fill-opacity="1" stroke="none" xml:space="preserve" x="727" y="272" font-family="Arial" font-size="16" font-weight="400" font-style="normal" 
 >NA</text>
<text fill="#333333" fill-opacity="1" stroke="none" xml:space="preserve" x="760" y="272" font-family="Arial" font-size="16" font-weight="400" font-style="normal" 
 >row_7</text>
<text fill="#333333" fill-opacity="1" stroke="none" xml:space="preserve" x="814" y="272" font-family="Arial" font-size="16" font-weight="400" font-style="normal" 
 >grp_b</text>
<text fill="#333333" fill-opacity="1" stroke="none" xml:space="preserve" x="169" y="307" font-family="Arial" font-size="16" font-weight="400" font-style="normal" 
 >8.880e+06</text>
<text fill="#333333" fill-opacity="1" stroke="none" xml:space="preserve" x="255" y="307" font-family="Arial" font-size="16" font-weight="400" font-style="normal" 
 >honeydew</text>
<text fill="#333333" fill-opacity="1" stroke="none" xml:space="preserve" x="343" y="307" font-family="Arial" font-size="16" font-weight="400" font-style="normal" 
 >eight</text>
<text fill="#333333" fill-opacity="1" stroke="none" xml:space="preserve" x="392" y="307" font-family="Arial" font-size="16" font-weight="400" font-style="normal" 
 >2015-08-15</text>
<text fill="#333333" fill-opacity="1" stroke="none" xml:space="preserve" x="484" y="307" font-family="Arial" font-size="16" font-weight="400" font-style="normal" 
 >20:20</text>
<text fill="#333333" fill-opacity="1" stroke="none" xml:space="preserve" x="534" y="307" font-family="Arial" font-size="16" font-weight="400" font-style="normal" 
 >NA</text>
<text fill="#333333" fill-opacity="1" stroke="none" xml:space="preserve" x="710" y="307" font-family="Arial" font-size="16" font-weight="400" font-style="normal" 
 >ƒ0.44</text>
<text fill="#333333" fill-opacity="1" stroke="none" xml:space="preserve" x="760" y="307" font-family="Arial" font-size="16" font-weight="400" font-style="normal" 
 >row_8</text>
<text fill="#333333" fill-opacity="1" stroke="none" xml:space="preserve" x="814" y="307" font-family="Arial" font-size="16" font-weight="400" font-style="normal" 
 >grp_b</text>
</g>
</g>
</svg>
