<?xml version="1.0" encoding="UTF-8" standalone="no"?>
<svg width="361.244mm" height="114.653mm"
 viewBox="0 0 1024 325"
 xmlns="http://www.w3.org/2000/svg" xmlns:xlink="http://www.w3.org/1999/xlink"  version="1.2" baseProfile="tiny">
<title>Qt Svg Document</title>
<desc>Generated with Qt</desc>
<defs>
</defs>
<g fill="none" stroke="black" stroke-width="1" fill-rule="evenodd" stroke-linecap="square" stroke-linejoin="bevel" >

<g fill="#ffffff" fill-opacity="1" stroke="none" transform="matrix(1,0,0,1,0,0)"
font-family="Helvetica" font-size="12" font-weight="400" font-style="normal" 
>
<path vector-effect="non-scaling-stroke" fill-rule="evenodd" d="M0,0 L1024,0 L1024,325 L0,325 L0,0"/>
<path vector-effect="non-scaling-stroke" fill-rule="evenodd" d="M0,0 L1024,0 L1024,325 L0,325 L0,0"/>
<path vector-effect="non-scaling-stroke" fill-rule="evenodd" d="M0,0 L1024,0 L1024,325 L0,325 L0,0"/>
<path vector-effect="non-scaling-stroke" fill-rule="evenodd" d="M166,8 L858,8 L858,317 L166,317 L166,8"/>
<path vector-effect="non-scaling-stroke" fill-rule="evenodd" d="M166,9 L252,9 L252,35 L166,35 L166,9"/>
<path vector-effect="non-scaling-stroke" fill-rule="evenodd" d="M252,9 L336,9 L336,35 L252,35 L252,9"/>
<path vector-effect="non-scaling-stroke" fill-rule="evenodd" d="M336,9 L389,9 L389,35 L336,35 L336,9"/>
<path vector-effect="non-scaling-stroke" fill-rule="evenodd" d="M389,9 L481,9 L481,35 L389,35 L389,9"/>
<path vector-effect="non-scaling-stroke" fill-rule="evenodd" d="M481,9 L531,9 L531,35 L481,35 L481,9"/>
<path vector-effect="non-scaling-stroke" fill-rule="evenodd" d="M531,9 L667,9 L667,35 L531,35 L531,9"/>
<path vector-effect="non-scaling-stroke" fill-rule="evenodd" d="M667,9 L753,9 L753,35 L667,35 L667,9"/>
<path vector-effect="non-scaling-stroke" fill-rule="evenodd" d="M753,9 L807,9 L807,35 L753,35 L753,9"/>
<path vector-effect="non-scaling-stroke" fill-rule="evenodd" d="M807,9 L858,9 L858,35 L807,35 L807,9"/>
</g>

<g fill="#808080" fill-opacity="0.0470588" stroke="none" transform="matrix(1,0,0,1,0,0)"
font-family="Helvetica" font-size="12" font-weight="400" font-style="normal" 
>
<path vector-effect="non-scaling-stroke" fill-rule="evenodd" d="M166,70 L252,70 L252,105 L166,105 L166,70"/>
<path vector-effect="non-scaling-stroke" fill-rule="evenodd" d="M252,70 L336,70 L336,105 L252,105 L252,70"/>
<path vector-effect="non-scaling-stroke" fill-rule="evenodd" d="M336,70 L389,70 L389,105 L336,105 L336,70"/>
<path vector-effect="non-scaling-stroke" fill-rule="evenodd" d="M389,70 L481,70 L481,105 L389,105 L389,70"/>
<path vector-effect="non-scaling-stroke" fill-rule="evenodd" d="M481,70 L531,70 L531,105 L481,105 L481,70"/>
<path vector-effect="non-scaling-stroke" fill-rule="evenodd" d="M531,70 L667,70 L667,105 L531,105 L531,70"/>
<path vector-effect="non-scaling-stroke" fill-rule="evenodd" d="M667,70 L753,70 L753,105 L667,105 L667,70"/>
<path vector-effect="non-scaling-stroke" fill-rule="evenodd" d="M753,70 L807,70 L807,105 L753,105 L753,70"/>
<path vector-effect="non-scaling-stroke" fill-rule="evenodd" d="M807,70 L858,70 L858,105 L807,105 L807,70"/>
<path vector-effect="non-scaling-stroke" fill-rule="evenodd" d="M166,140 L252,140 L252,175 L166,175 L166,140"/>
<path vector-effect="non-scaling-stroke" fill-rule="evenodd" d="M252,140 L336,140 L336,175 L252,175 L252,140"/>
<path vector-effect="non-scaling-stroke" fill-rule="evenodd" d="M336,140 L389,140 L389,175 L336,175 L336,140"/>
<path vector-effect="non-scaling-stroke" fill-rule="evenodd" d="M389,140 L481,140 L481,175 L389,175 L389,140"/>
<path vector-effect="non-scaling-stroke" fill-rule="evenodd" d="M481,140 L531,140 L531,175 L481,175 L481,140"/>
<path vector-effect="non-scaling-stroke" fill-rule="evenodd" d="M531,140 L667,140 L667,175 L531,175 L531,140"/>
<path vector-effect="non-scaling-stroke" fill-rule="evenodd" d="M667,140 L753,140 L753,175 L667,175 L667,140"/>
<path vector-effect="non-scaling-stroke" fill-rule="evenodd" d="M753,140 L807,140 L807,175 L753,175 L753,140"/>
<path vector-effect="non-scaling-stroke" fill-rule="evenodd" d="M807,140 L858,140 L858,175 L807,175 L807,140"/>
<path vector-effect="non-scaling-stroke" fill-rule="evenodd" d="M166,210 L252,210 L252,245 L166,245 L166,210"/>
<path vector-effect="non-scaling-stroke" fill-rule="evenodd" d="M252,210 L336,210 L336,245 L252,245 L252,210"/>
<path vector-effect="non-scaling-stroke" fill-rule="evenodd" d="M336,210 L389,210 L389,245 L336,245 L336,210"/>
<path vector-effect="non-scaling-stroke" fill-rule="evenodd" d="M389,210 L481,210 L481,245 L389,245 L389,210"/>
<path vector-effect="non-scaling-stroke" fill-rule="evenodd" d="M481,210 L531,210 L531,245 L481,245 L481,210"/>
<path vector-effect="non-scaling-stroke" fill-rule="evenodd" d="M531,210 L667,210 L667,245 L531,245 L531,210"/>
<path vector-effect="non-scaling-stroke" fill-rule="evenodd" d="M667,210 L753,210 L753,245 L667,245 L667,210"/>
<path vector-effect="non-scaling-stroke" fill-rule="evenodd" d="M753,210 L807,210 L807,245 L753,245 L753,210"/>
<path vector-effect="non-scaling-stroke" fill-rule="evenodd" d="M807,210 L858,210 L858,245 L807,245 L807,210"/>
<path vector-effect="non-scaling-stroke" fill-rule="evenodd" d="M166,280 L252,280 L252,316 L166,316 L166,280"/>
<path vector-effect="non-scaling-stroke" fill-rule="evenodd" d="M252,280 L336,280 L336,316 L252,316 L252,280"/>
<path vector-effect="non-scaling-stroke" fill-rule="evenodd" d="M336,280 L389,280 L389,316 L336,316 L336,280"/>
<path vector-effect="non-scaling-stroke" fill-rule="evenodd" d="M389,280 L481,280 L481,316 L389,316 L389,280"/>
<path vector-effect="non-scaling-stroke" fill-rule="evenodd" d="M481,280 L531,280 L531,316 L481,316 L481,280"/>
<path vector-effect="non-scaling-stroke" fill-rule="evenodd" d="M531,280 L667,280 L667,316 L531,316 L531,280"/>
<path vector-effect="non-scaling-stroke" fill-rule="evenodd" d="M667,280 L753,280 L753,316 L667,316 L667,280"/>
<path vector-effect="non-scaling-stroke" fill-rule="evenodd" d="M753,280 L807,280 L807,316 L753,316 L753,280"/>
<path vector-effect="non-scaling-stroke" fill-rule="evenodd" d="M807,280 L858,280 L858,316 L807,316 L807,280"/>
</g>

<g fill="#d3d3d3" fill-opacity="1" stroke="none" transform="matrix(1,0,0,1,0,0)"
font-family="Helvetica" font-size="12" font-weight="400" font-style="normal" 
>
<path vector-effect="non-scaling-stroke" fill-rule="evenodd" d="M166,70 L252,70 L252,71 L166,71 L166,70"/>
<path vector-effect="non-scaling-stroke" fill-rule="evenodd" d="M252,70 L336,70 L336,71 L252,71 L252,70"/>
<path vector-effect="non-scaling-stroke" fill-rule="evenodd" d="M336,70 L389,70 L389,71 L336,71 L336,70"/>
<path vector-effect="non-scaling-stroke" fill-rule="evenodd" d="M389,70 L481,70 L481,71 L389,71 L389,70"/>
<path vector-effect="non-scaling-stroke" fill-rule="evenodd" d="M481,70 L531,70 L531,71 L481,71 L481,70"/>
<path vector-effect="non-scaling-stroke" fill-rule="evenodd" d="M531,70 L667,70 L667,71 L531,71 L531,70"/>
<path vector-effect="non-scaling-stroke" fill-rule="evenodd" d="M667,70 L753,70 L753,71 L667,71 L667,70"/>
<path vector-effect="non-scaling-stroke" fill-rule="evenodd" d="M753,70 L807,70 L807,71 L753,71 L753,70"/>
<path vector-effect="non-scaling-stroke" fill-rule="evenodd" d="M807,70 L858,70 L858,71 L807,71 L807,70"/>
<path vector-effect="non-scaling-stroke" fill-rule="evenodd" d="M166,70 L252,70 L252,71 L166,71 L166,70"/>
<path vector-effect="non-scaling-stroke" fill-rule="evenodd" d="M166,105 L252,105 L252,106 L166,106 L166,105"/>
<path vector-effect="non-scaling-stroke" fill-rule="evenodd" d="M252,70 L336,70 L336,71 L252,71 L252,70"/>
<path vector-effect="non-scaling-stroke" fill-rule="evenodd" d="M252,105 L336,105 L336,106 L252,106 L252,105"/>
<path vector-effect="non-scaling-stroke" fill-rule="evenodd" d="M336,70 L389,70 L389,71 L336,71 L336,70"/>
<path vector-effect="non-scaling-stroke" fill-rule="evenodd" d="M336,105 L389,105 L389,106 L336,106 L336,105"/>
<path vector-effect="non-scaling-stroke" fill-rule="evenodd" d="M389,70 L481,70 L481,71 L389,71 L389,70"/>
<path vector-effect="non-scaling-stroke" fill-rule="evenodd" d="M389,105 L481,105 L481,106 L389,106 L389,105"/>
<path vector-effect="non-scaling-stroke" fill-rule="evenodd" d="M481,70 L531,70 L531,71 L481,71 L481,70"/>
<path vector-effect="non-scaling-stroke" fill-rule="evenodd" d="M481,105 L531,105 L531,106 L481,106 L481,105"/>
<path vector-effect="non-scaling-stroke" fill-rule="evenodd" d="M531,70 L667,70 L667,71 L531,71 L531,70"/>
<path vector-effect="non-scaling-stroke" fill-rule="evenodd" d="M531,105 L667,105 L667,106 L531,106 L531,105"/>
<path vector-effect="non-scaling-stroke" fill-rule="evenodd" d="M667,70 L753,70 L753,71 L667,71 L667,70"/>
<path vector-effect="non-scaling-stroke" fill-rule="evenodd" d="M667,105 L753,105 L753,106 L667,106 L667,105"/>
<path vector-effect="non-scaling-stroke" fill-rule="evenodd" d="M753,70 L807,70 L807,71 L753,71 L753,70"/>
<path vector-effect="non-scaling-stroke" fill-rule="evenodd" d="M753,105 L807,105 L807,106 L753,106 L753,105"/>
<path vector-effect="non-scaling-stroke" fill-rule="evenodd" d="M807,70 L858,70 L858,71 L807,71 L807,70"/>
<path vector-effect="non-scaling-stroke" fill-rule="evenodd" d="M807,105 L858,105 L858,106 L807,106 L807,105"/>
<path vector-effect="non-scaling-stroke" fill-rule="evenodd" d="M166,105 L252,105 L252,106 L166,106 L166,105"/>
<path vector-effect="non-scaling-stroke" fill-rule="evenodd" d="M166,140 L252,140 L252,141 L166,141 L166,140"/>
<path vector-effect="non-scaling-stroke" fill-rule="evenodd" d="M252,105 L336,105 L336,106 L252,106 L252,105"/>
<path vector-effect="non-scaling-stroke" fill-rule="evenodd" d="M252,140 L336,140 L336,141 L252,141 L252,140"/>
<path vector-effect="non-scaling-stroke" fill-rule="evenodd" d="M336,105 L389,105 L389,106 L336,106 L336,105"/>
<path vector-effect="non-scaling-stroke" fill-rule="evenodd" d="M336,140 L389,140 L389,141 L336,141 L336,140"/>
<path vector-effect="non-scaling-stroke" fill-rule="evenodd" d="M389,105 L481,105 L481,106 L389,106 L389,105"/>
<path vector-effect="non-scaling-stroke" fill-rule="evenodd" d="M389,140 L481,140 L481,141 L389,141 L389,140"/>
<path vector-effect="non-scaling-stroke" fill-rule="evenodd" d="M481,105 L531,105 L531,106 L481,106 L481,105"/>
<path vector-effect="non-scaling-stroke" fill-rule="evenodd" d="M481,140 L531,140 L531,141 L481,141 L481,140"/>
<path vector-effect="non-scaling-stroke" fill-rule="evenodd" d="M531,105 L667,105 L667,106 L531,106 L531,105"/>
<path vector-effect="non-scaling-stroke" fill-rule="evenodd" d="M531,140 L667,140 L667,141 L531,141 L531,140"/>
<path vector-effect="non-scaling-stroke" fill-rule="evenodd" d="M667,105 L753,105 L753,106 L667,106 L667,105"/>
<path vector-effect="non-scaling-stroke" fill-rule="evenodd" d="M667,140 L753,140 L753,141 L667,141 L667,140"/>
<path vector-effect="non-scaling-stroke" fill-rule="evenodd" d="M753,105 L807,105 L807,106 L753,106 L753,105"/>
<path vector-effect="non-scaling-stroke" fill-rule="evenodd" d="M753,140 L807,140 L807,141 L753,141 L753,140"/>
<path vector-effect="non-scaling-stroke" fill-rule="evenodd" d="M807,105 L858,105 L858,106 L807,106 L807,105"/>
<path vector-effect="non-scaling-stroke" fill-rule="evenodd" d="M807,140 L858,140 L858,141 L807,141 L807,140"/>
<path vector-effect="non-scaling-stroke" fill-rule="evenodd" d="M166,140 L252,140 L252,141 L166,141 L166,140"/>
<path vector-effect="non-scaling-stroke" fill-rule="evenodd" d="M166,175 L252,175 L252,176 L166,176 L166,175"/>
<path vector-effect="non-scaling-stroke" fill-rule="evenodd" d="M252,140 L336,140 L336,141 L252,141 L252,140"/>
<path vector-effect="non-scaling-stroke" fill-rule="evenodd" d="M252,175 L336,175 L336,176 L252,176 L252,175"/>
<path vector-effect="non-scaling-stroke" fill-rule="evenodd" d="M336,140 L389,140 L389,141 L336,141 L336,140"/>
<path vector-effect="non-scaling-stroke" fill-rule="evenodd" d="M336,175 L389,175 L389,176 L336,176 L336,175"/>
<path vector-effect="non-scaling-stroke" fill-rule="evenodd" d="M389,140 L481,140 L481,141 L389,141 L389,140"/>
<path vector-effect="non-scaling-stroke" fill-rule="evenodd" d="M389,175 L481,175 L481,176 L389,176 L389,175"/>
<path vector-effect="non-scaling-stroke" fill-rule="evenodd" d="M481,140 L531,140 L531,141 L481,141 L481,140"/>
<path vector-effect="non-scaling-stroke" fill-rule="evenodd" d="M481,175 L531,175 L531,176 L481,176 L481,175"/>
<path vector-effect="non-scaling-stroke" fill-rule="evenodd" d="M531,140 L667,140 L667,141 L531,141 L531,140"/>
<path vector-effect="non-scaling-stroke" fill-rule="evenodd" d="M531,175 L667,175 L667,176 L531,176 L531,175"/>
<path vector-effect="non-scaling-stroke" fill-rule="evenodd" d="M667,140 L753,140 L753,141 L667,141 L667,140"/>
<path vector-effect="non-scaling-stroke" fill-rule="evenodd" d="M667,175 L753,175 L753,176 L667,176 L667,175"/>
<path vector-effect="non-scaling-stroke" fill-rule="evenodd" d="M753,140 L807,140 L807,141 L753,141 L753,140"/>
<path vector-effect="non-scaling-stroke" fill-rule="evenodd" d="M753,175 L807,175 L807,176 L753,176 L753,175"/>
<path vector-effect="non-scaling-stroke" fill-rule="evenodd" d="M807,140 L858,140 L858,141 L807,141 L807,140"/>
<path vector-effect="non-scaling-stroke" fill-rule="evenodd" d="M807,175 L858,175 L858,176 L807,176 L807,175"/>
<path vector-effect="non-scaling-stroke" fill-rule="evenodd" d="M166,175 L252,175 L252,176 L166,176 L166,175"/>
<path vector-effect="non-scaling-stroke" fill-rule="evenodd" d="M166,210 L252,210 L252,211 L166,211 L166,210"/>
<path vector-effect="non-scaling-stroke" fill-rule="evenodd" d="M252,175 L336,175 L336,176 L252,176 L252,175"/>
<path vector-effect="non-scaling-stroke" fill-rule="evenodd" d="M252,210 L336,210 L336,211 L252,211 L252,210"/>
<path vector-effect="non-scaling-stroke" fill-rule="evenodd" d="M336,175 L389,175 L389,176 L336,176 L336,175"/>
<path vector-effect="non-scaling-stroke" fill-rule="evenodd" d="M336,210 L389,210 L389,211 L336,211 L336,210"/>
<path vector-effect="non-scaling-stroke" fill-rule="evenodd" d="M389,175 L481,175 L481,176 L389,176 L389,175"/>
<path vector-effect="non-scaling-stroke" fill-rule="evenodd" d="M389,210 L481,210 L481,211 L389,211 L389,210"/>
<path vector-effect="non-scaling-stroke" fill-rule="evenodd" d="M481,175 L531,175 L531,176 L481,176 L481,175"/>
<path vector-effect="non-scaling-stroke" fill-rule="evenodd" d="M481,210 L531,210 L531,211 L481,211 L481,210"/>
<path vector-effect="non-scaling-stroke" fill-rule="evenodd" d="M531,175 L667,175 L667,176 L531,176 L531,175"/>
<path vector-effect="non-scaling-stroke" fill-rule="evenodd" d="M531,210 L667,210 L667,211 L531,211 L531,210"/>
<path vector-effect="non-scaling-stroke" fill-rule="evenodd" d="M667,175 L753,175 L753,176 L667,176 L667,175"/>
<path vector-effect="non-scaling-stroke" fill-rule="evenodd" d="M667,210 L753,210 L753,211 L667,211 L667,210"/>
<path vector-effect="non-scaling-stroke" fill-rule="evenodd" d="M753,175 L807,175 L807,176 L753,176 L753,175"/>
<path vector-effect="non-scaling-stroke" fill-rule="evenodd" d="M753,210 L807,210 L807,211 L753,211 L753,210"/>
<path vector-effect="non-scaling-stroke" fill-rule="evenodd" d="M807,175 L858,175 L858,176 L807,176 L807,175"/>
<path vector-effect="non-scaling-stroke" fill-rule="evenodd" d="M807,210 L858,210 L858,211 L807,211 L807,210"/>
<path vector-effect="non-scaling-stroke" fill-rule="evenodd" d="M166,210 L252,210 L252,211 L166,211 L166,210"/>
<path vector-effect="non-scaling-stroke" fill-rule="evenodd" d="M166,245 L252,245 L252,246 L166,246 L166,245"/>
<path vector-effect="non-scaling-stroke" fill-rule="evenodd" d="M252,210 L336,210 L336,211 L252,211 L252,210"/>
<path vector-effect="non-scaling-stroke" fill-rule="evenodd" d="M252,245 L336,245 L336,246 L252,246 L252,245"/>
<path vector-effect="non-scaling-stroke" fill-rule="evenodd" d="M336,210 L389,210 L389,211 L336,211 L336,210"/>
<path vector-effect="non-scaling-stroke" fill-rule="evenodd" d="M336,245 L389,245 L389,246 L336,246 L336,245"/>
<path vector-effect="non-scaling-stroke" fill-rule="evenodd" d="M389,210 L481,210 L481,211 L389,211 L389,210"/>
<path vector-effect="non-scaling-stroke" fill-rule="evenodd" d="M389,245 L481,245 L481,246 L389,246 L389,245"/>
<path vector-effect="non-scaling-stroke" fill-rule="evenodd" d="M481,210 L531,210 L531,211 L481,211 L481,210"/>
<path vector-effect="non-scaling-stroke" fill-rule="evenodd" d="M481,245 L531,245 L531,246 L481,246 L481,245"/>
<path vector-effect="non-scaling-stroke" fill-rule="evenodd" d="M531,210 L667,210 L667,211 L531,211 L531,210"/>
<path vector-effect="non-scaling-stroke" fill-rule="evenodd" d="M531,245 L667,245 L667,246 L531,246 L531,245"/>
<path vector-effect="non-scaling-stroke" fill-rule="evenodd" d="M667,210 L753,210 L753,211 L667,211 L667,210"/>
<path vector-effect="non-scaling-stroke" fill-rule="evenodd" d="M667,245 L753,245 L753,246 L667,246 L667,245"/>
<path vector-effect="non-scaling-stroke" fill-rule="evenodd" d="M753,210 L807,210 L807,211 L753,211 L753,210"/>
<path vector-effect="non-scaling-stroke" fill-rule="evenodd" d="M753,245 L807,245 L807,246 L753,246 L753,245"/>
<path vector-effect="non-scaling-stroke" fill-rule="evenodd" d="M807,210 L858,210 L858,211 L807,211 L807,210"/>
<path vector-effect="non-scaling-stroke" fill-rule="evenodd" d="M807,245 L858,245 L858,246 L807,246 L807,245"/>
<path vector-effect="non-scaling-stroke" fill-rule="evenodd" d="M166,245 L252,245 L252,246 L166,246 L166,245"/>
<path vector-effect="non-scaling-stroke" fill-rule="evenodd" d="M166,280 L252,280 L252,281 L166,281 L166,280"/>
<path vector-effect="non-scaling-stroke" fill-rule="evenodd" d="M252,245 L336,245 L336,246 L252,246 L252,245"/>
<path vector-effect="non-scaling-stroke" fill-rule="evenodd" d="M252,280 L336,280 L336,281 L252,281 L252,280"/>
<path vector-effect="non-scaling-stroke" fill-rule="evenodd" d="M336,245 L389,245 L389,246 L336,246 L336,245"/>
<path vector-effect="non-scaling-stroke" fill-rule="evenodd" d="M336,280 L389,280 L389,281 L336,281 L336,280"/>
<path vector-effect="non-scaling-stroke" fill-rule="evenodd" d="M389,245 L481,245 L481,246 L389,246 L389,245"/>
<path vector-effect="non-scaling-stroke" fill-rule="evenodd" d="M389,280 L481,280 L481,281 L389,281 L389,280"/>
<path vector-effect="non-scaling-stroke" fill-rule="evenodd" d="M481,245 L531,245 L531,246 L481,246 L481,245"/>
<path vector-effect="non-scaling-stroke" fill-rule="evenodd" d="M481,280 L531,280 L531,281 L481,281 L481,280"/>
<path vector-effect="non-scaling-stroke" fill-rule="evenodd" d="M531,245 L667,245 L667,246 L531,246 L531,245"/>
<path vector-effect="non-scaling-stroke" fill-rule="evenodd" d="M531,280 L667,280 L667,281 L531,281 L531,280"/>
<path vector-effect="non-scaling-stroke" fill-rule="evenodd" d="M667,245 L753,245 L753,246 L667,246 L667,245"/>
<path vector-effect="non-scaling-stroke" fill-rule="evenodd" d="M667,280 L753,280 L753,281 L667,281 L667,280"/>
<path vector-effect="non-scaling-stroke" fill-rule="evenodd" d="M753,245 L807,245 L807,246 L753,246 L753,245"/>
<path vector-effect="non-scaling-stroke" fill-rule="evenodd" d="M753,280 L807,280 L807,281 L753,281 L753,280"/>
<path vector-effect="non-scaling-stroke" fill-rule="evenodd" d="M807,245 L858,245 L858,246 L807,246 L807,245"/>
<path vector-effect="non-scaling-stroke" fill-rule="evenodd" d="M807,280 L858,280 L858,281 L807,281 L807,280"/>
<path vector-effect="non-scaling-stroke" fill-rule="evenodd" d="M166,280 L252,280 L252,281 L166,281 L166,280"/>
<path vector-effect="non-scaling-stroke" fill-rule="evenodd" d="M252,280 L336,280 L336,281 L252,281 L252,280"/>
<path vector-effect="non-scaling-stroke" fill-rule="evenodd" d="M336,280 L389,280 L389,281 L336,281 L336,280"/>
<path vector-effect="non-scaling-stroke" fill-rule="evenodd" d="M389,280 L481,280 L481,281 L389,281 L389,280"/>
<path vector-effect="non-scaling-stroke" fill-rule="evenodd" d="M481,280 L531,280 L531,281 L481,281 L481,280"/>
<path vector-effect="non-scaling-stroke" fill-rule="evenodd" d="M531,280 L667,280 L667,281 L531,281 L531,280"/>
<path vector-effect="non-scaling-stroke" fill-rule="evenodd" d="M667,280 L753,280 L753,281 L667,281 L667,280"/>
<path vector-effect="non-scaling-stroke" fill-rule="evenodd" d="M753,280 L807,280 L807,281 L753,281 L753,280"/>
<path vector-effect="non-scaling-stroke" fill-rule="evenodd" d="M807,280 L858,280 L858,281 L807,281 L807,280"/>
<path vector-effect="non-scaling-stroke" fill-rule="evenodd" d="M166,8 L252,8 L252,10 L166,10 L166,8"/>
<path vector-effect="non-scaling-stroke" fill-rule="evenodd" d="M166,34 L252,34 L252,36 L166,36 L166,34"/>
<path vector-effect="non-scaling-stroke" fill-rule="evenodd" d="M252,8 L336,8 L336,10 L252,10 L252,8"/>
<path vector-effect="non-scaling-stroke" fill-rule="evenodd" d="M252,34 L336,34 L336,36 L252,36 L252,34"/>
<path vector-effect="non-scaling-stroke" fill-rule="evenodd" d="M336,8 L389,8 L389,10 L336,10 L336,8"/>
<path vector-effect="non-scaling-stroke" fill-rule="evenodd" d="M336,34 L389,34 L389,36 L336,36 L336,34"/>
<path vector-effect="non-scaling-stroke" fill-rule="evenodd" d="M389,8 L481,8 L481,10 L389,10 L389,8"/>
<path vector-effect="non-scaling-stroke" fill-rule="evenodd" d="M389,34 L481,34 L481,36 L389,36 L389,34"/>
<path vector-effect="non-scaling-stroke" fill-rule="evenodd" d="M481,8 L531,8 L531,10 L481,10 L481,8"/>
<path vector-effect="non-scaling-stroke" fill-rule="evenodd" d="M481,34 L531,34 L531,36 L481,36 L481,34"/>
<path vector-effect="non-scaling-stroke" fill-rule="evenodd" d="M531,8 L667,8 L667,10 L531,10 L531,8"/>
<path vector-effect="non-scaling-stroke" fill-rule="evenodd" d="M531,34 L667,34 L667,36 L531,36 L531,34"/>
<path vector-effect="non-scaling-stroke" fill-rule="evenodd" d="M667,8 L753,8 L753,10 L667,10 L667,8"/>
<path vector-effect="non-scaling-stroke" fill-rule="evenodd" d="M667,34 L753,34 L753,36 L667,36 L667,34"/>
<path vector-effect="non-scaling-stroke" fill-rule="evenodd" d="M753,8 L807,8 L807,10 L753,10 L753,8"/>
<path vector-effect="non-scaling-stroke" fill-rule="evenodd" d="M753,34 L807,34 L807,36 L753,36 L753,34"/>
<path vector-effect="non-scaling-stroke" fill-rule="evenodd" d="M807,8 L858,8 L858,10 L807,10 L807,8"/>
<path vector-effect="non-scaling-stroke" fill-rule="evenodd" d="M807,34 L858,34 L858,36 L807,36 L807,34"/>
<path vector-effect="non-scaling-stroke" fill-rule="evenodd" d="M166,34 L252,34 L252,36 L166,36 L166,34"/>
<path vector-effect="non-scaling-stroke" fill-rule="evenodd" d="M252,34 L336,34 L336,36 L252,36 L252,34"/>
<path vector-effect="non-scaling-stroke" fill-rule="evenodd" d="M336,34 L389,34 L389,36 L336,36 L336,34"/>
<path vector-effect="non-scaling-stroke" fill-rule="evenodd" d="M389,34 L481,34 L481,36 L389,36 L389,34"/>
<path vector-effect="non-scaling-stroke" fill-rule="evenodd" d="M481,34 L531,34 L531,36 L481,36 L481,34"/>
<path vector-effect="non-scaling-stroke" fill-rule="evenodd" d="M531,34 L667,34 L667,36 L531,36 L531,34"/>
<path vector-effect="non-scaling-stroke" fill-rule="evenodd" d="M667,34 L753,34 L753,36 L667,36 L667,34"/>
<path vector-effect="non-scaling-stroke" fill-rule="evenodd" d="M753,34 L807,34 L807,36 L753,36 L753,34"/>
<path vector-effect="non-scaling-stroke" fill-rule="evenodd" d="M807,34 L858,34 L858,36 L807,36 L807,34"/>
<path vector-effect="non-scaling-stroke" fill-rule="evenodd" d="M166,315 L252,315 L252,317 L166,317 L166,315"/>
<path vector-effect="non-scaling-stroke" fill-rule="evenodd" d="M252,315 L336,315 L336,317 L252,317 L252,315"/>
<path vector-effect="non-scaling-stroke" fill-rule="evenodd" d="M336,315 L389,315 L389,317 L336,317 L336,315"/>
<path vector-effect="non-scaling-stroke" fill-rule="evenodd" d="M389,315 L481,315 L481,317 L389,317 L389,315"/>
<path vector-effect="non-scaling-stroke" fill-rule="evenodd" d="M481,315 L531,315 L531,317 L481,317 L481,315"/>
<path vector-effect="non-scaling-stroke" fill-rule="evenodd" d="M531,315 L667,315 L667,317 L531,317 L531,315"/>
<path vector-effect="non-scaling-stroke" fill-rule="evenodd" d="M667,315 L753,315 L753,317 L667,317 L667,315"/>
<path vector-effect="non-scaling-stroke" fill-rule="evenodd" d="M753,315 L807,315 L807,317 L753,317 L753,315"/>
<path vector-effect="non-scaling-stroke" fill-rule="evenodd" d="M807,315 L858,315 L858,317 L807,317 L807,315"/>
</g>

<g fill="#333333" fill-opacity="1" stroke="#333333" stroke-opacity="1" stroke-width="1" stroke-linecap="square" stroke-linejoin="bevel" transform="matrix(1,0,0,1,0,0)"
font-family="Arial" font-size="12" font-weight="400" font-style="normal" 
>
<text fill="#333333" fill-opacity="1" stroke="none" xml:space="preserve" x="223" y="26" font-family="Arial" font-size="12" font-weight="400" font-style="normal" 
 >num</text>
<text fill="#333333" fill-opacity="1" stroke="none" xml:space="preserve" x="257" y="26" font-family="Arial" font-size="12" font-weight="400" font-style="normal" 
 >char</text>
<text fill="#333333" fill-opacity="1" stroke="none" xml:space="preserve" x="354.5" y="26" font-family="Arial" font-size="12" font-weight="400" font-style="normal" 
 >fctr</text>
<text fill="#333333" fill-opacity="1" stroke="none" xml:space="preserve" x="394" y="26" font-family="Arial" font-size="12" font-weight="400" font-style="normal" 
 >date</text>
<text fill="#333333" fill-opacity="1" stroke="none" xml:space="preserve" x="486" y="26" font-family="Arial" font-size="12" font-weight="400" font-style="normal" 
 >time</text>
<text fill="#333333" fill-opacity="1" stroke="none" xml:space="preserve" x="536" y="26" font-family="Arial" font-size="12" font-weight="400" font-style="normal" 
 >datetime</text>
<text fill="#333333" fill-opacity="1" stroke="none" xml:space="preserve" x="701" y="26" font-family="Arial" font-size="12" font-weight="400" font-style="normal" 
 >currency</text>
<text fill="#333333" fill-opacity="1" stroke="none" xml:space="preserve" x="758" y="26" font-family="Arial" font-size="12" font-weight="400" font-style="normal" 
 >row</text>
<text fill="#333333" fill-opacity="1" stroke="none" xml:space="preserve" x="812" y="26" font-family="Arial" font-size="12" font-weight="400" font-style="normal" 
 >group</text>
</g>

<g fill="#333333" fill-opacity="1" stroke="#333333" stroke-opacity="1" stroke-width="1" stroke-linecap="square" stroke-linejoin="bevel" transform="matrix(1,0,0,1,0,0)"
font-family="Arial" font-size="16" font-weight="400" font-style="normal" 
>
<text fill="#333333" fill-opacity="1" stroke="none" xml:space="preserve" x="175" y="58" font-family="Arial" font-size="16" font-weight="400" font-style="normal" 
 >1.111e-01</text>
<text fill="#333333" fill-opacity="1" stroke="none" xml:space="preserve" x="257" y="58" font-family="Arial" font-size="16" font-weight="400" font-style="normal" 
 >apricot</text>
<text fill="#333333" fill-opacity="1" stroke="none" xml:space="preserve" x="349" y="58" font-family="Arial" font-size="16" font-weight="400" font-style="normal" 
 >one</text>
<text fill="#333333" fill-opacity="1" stroke="none" xml:space="preserve" x="394" y="58" font-family="Arial" font-size="16" font-weight="400" font-style="normal" 
 >2015-01-15</text>
<text fill="#333333" fill-opacity="1" stroke="none" xml:space="preserve" x="486" y="58" font-family="Arial" font-size="16" font-weight="400" font-style="normal" 
 >13:35</text>
<text fill="#333333" fill-opacity="1" stroke="none" xml:space="preserve" x="536" y="58" font-family="Arial" font-size="16" font-weight="400" font-style="normal" 
 >2018-01-01 02:22</text>
<text fill="#333333" fill-opacity="1" stroke="none" xml:space="preserve" x="699" y="58" font-family="Arial" font-size="16" font-weight="400" font-style="normal" 
 >49.950</text>
<text fill="#333333" fill-opacity="1" stroke="none" xml:space="preserve" x="758" y="58" font-family="Arial" font-size="16" font-weight="400" font-style="normal" 
 >row_1</text>
<text fill="#333333" fill-opacity="1" stroke="none" xml:space="preserve" x="812" y="58" font-family="Arial" font-size="16" font-weight="400" font-style="normal" 
 >grp_a</text>
<text fill="#333333" fill-opacity="1" stroke="none" xml:space="preserve" x="171" y="93" font-family="Arial" font-size="16" font-weight="400" font-style="normal" 
 >2.222e+00</text>
<text fill="#333333" fill-opacity="1" stroke="none" xml:space="preserve" x="257" y="93" font-family="Arial" font-size="16" font-weight="400" font-style="normal" 
 >banana</text>
<text fill="#333333" fill-opacity="1" stroke="none" xml:space="preserve" x="350" y="93" font-family="Arial" font-size="16" font-weight="400" font-style="normal" 
 >two</text>
<text fill="#333333" fill-opacity="1" stroke="none" xml:space="preserve" x="394" y="93" font-family="Arial" font-size="16" font-weight="400" font-style="normal" 
 >2015-02-15</text>
<text fill="#333333" fill-opacity="1" stroke="none" xml:space="preserve" x="486" y="93" font-family="Arial" font-size="16" font-weight="400" font-style="normal" 
 >14:40</text>
<text fill="#333333" fill-opacity="1" stroke="none" xml:space="preserve" x="536" y="93" font-family="Arial" font-size="16" font-weight="400" font-style="normal" 
 >2018-02-02 14:33</text>
<text fill="#333333" fill-opacity="1" stroke="none" xml:space="preserve" x="699" y="93" font-family="Arial" font-size="16" font-weight="400" font-style="normal" 
 >17.950</text>
<text fill="#333333" fill-opacity="1" stroke="none" xml:space="preserve" x="758" y="93" font-family="Arial" font-size="16" font-weight="400" font-style="normal" 
 >row_2</text>
<text fill="#333333" fill-opacity="1" stroke="none" xml:space="preserve" x="812" y="93" font-family="Arial" font-size="16" font-weight="400" font-style="normal" 
 >grp_a</text>
<text fill="#333333" fill-opacity="1" stroke="none" xml:space="preserve" x="171" y="128" font-family="Arial" font-size="16" font-weight="400" font-style="normal" 
 >3.333e+01</text>
<text fill="#333333" fill-opacity="1" stroke="none" xml:space="preserve" x="257" y="128" font-family="Arial" font-size="16" font-weight="400" font-style="normal" 
 >coconut</text>
<text fill="#333333" fill-opacity="1" stroke="none" xml:space="preserve" x="344.5" y="128" font-family="Arial" font-size="16" font-weight="400" font-style="normal" 
 >three</text>
<text fill="#333333" fill-opacity="1" stroke="none" xml:space="preserve" x="394" y="128" font-family="Arial" font-size="16" font-weight="400" font-style="normal" 
 >2015-03-15</text>
<text fill="#333333" fill-opacity="1" stroke="none" xml:space="preserve" x="486" y="128" font-family="Arial" font-size="16" font-weight="400" font-style="normal" 
 >15:45</text>
<text fill="#333333" fill-opacity="1" stroke="none" xml:space="preserve" x="536" y="128" font-family="Arial" font-size="16" font-weight="400" font-style="normal" 
 >2018-03-03 03:44</text>
<text fill="#333333" fill-opacity="1" stroke="none" xml:space="preserve" x="708" y="128" font-family="Arial" font-size="16" font-weight="400" font-style="normal" 
 >1.390</text>
<text fill="#333333" fill-opacity="1" stroke="none" xml:space="preserve" x="758" y="128" font-family="Arial" font-size="16" font-weight="400" font-style="normal" 
 >row_3</text>
<text fill="#333333" fill-opacity="1" stroke="none" xml:space="preserve" x="812" y="128" font-family="Arial" font-size="16" font-weight="400" font-style="normal" 
 >grp_a</text>
<text fill="#333333" fill-opacity="1" stroke="none" xml:space="preserve" x="171" y="163" font-family="Arial" font-size="16" font-weight="400" font-style="normal" 
 >4.444e+02</text>
<text fill="#333333" fill-opacity="1" stroke="none" xml:space="preserve" x="257" y="163" font-family="Arial" font-size="16" font-weight="400" font-style="normal" 
 >durian</text>
<text fill="#333333" fill-opacity="1" stroke="none" xml:space="preserve" x="349" y="163" font-family="Arial" font-size="16" font-weight="400" font-style="normal" 
 >four</text>
<text fill="#333333" fill-opacity="1" stroke="none" xml:space="preserve" x="394" y="163" font-family="Arial" font-size="16" font-weight="400" font-style="normal" 
 >2015-04-15</text>
<text fill="#333333" fill-opacity="1" stroke="none" xml:space="preserve" x="486" y="163" font-family="Arial" font-size="16" font-weight="400" font-style="normal" 
 >16:50</text>
<text fill="#333333" fill-opacity="1" stroke="none" xml:space="preserve" x="536" y="163" font-family="Arial" font-size="16" font-weight="400" font-style="normal" 
 >2018-04-04 15:55</text>
<text fill="#333333" fill-opacity="1" stroke="none" xml:space="preserve" x="672" y="163" font-family="Arial" font-size="16" font-weight="400" font-style="normal" 
 >65100.000</text>
<text fill="#333333" fill-opacity="1" stroke="none" xml:space="preserve" x="758" y="163" font-family="Arial" font-size="16" font-weight="400" font-style="normal" 
 >row_4</text>
<text fill="#333333" fill-opacity="1" stroke="none" xml:space="preserve" x="812" y="163" font-family="Arial" font-size="16" font-weight="400" font-style="normal" 
 >grp_a</text>
<text fill="#333333" fill-opacity="1" stroke="none" xml:space="preserve" x="171" y="198" font-family="Arial" font-size="16" font-weight="400" font-style="normal" 
 >5.550e+03</text>
<text fill="#333333" fill-opacity="1" stroke="none" xml:space="preserve" x="257" y="198" font-family="Arial" font-size="16" font-weight="400" font-style="normal" 
 >NA</text>
<text fill="#333333" fill-opacity="1" stroke="none" xml:space="preserve" x="350" y="198" font-family="Arial" font-size="16" font-weight="400" font-style="normal" 
 >five</text>
<text fill="#333333" fill-opacity="1" stroke="none" xml:space="preserve" x="394" y="198" font-family="Arial" font-size="16" font-weight="400" font-style="normal" 
 >2015-05-15</text>
<text fill="#333333" fill-opacity="1" stroke="none" xml:space="preserve" x="486" y="198" font-family="Arial" font-size="16" font-weight="400" font-style="normal" 
 >17:55</text>
<text fill="#333333" fill-opacity="1" stroke="none" xml:space="preserve" x="536" y="198" font-family="Arial" font-size="16" font-weight="400" font-style="normal" 
 >2018-05-05 04:00</text>
<text fill="#333333" fill-opacity="1" stroke="none" xml:space="preserve" x="681" y="198" font-family="Arial" font-size="16" font-weight="400" font-style="normal" 
 >1325.810</text>
<text fill="#333333" fill-opacity="1" stroke="none" xml:space="preserve" x="758" y="198" font-family="Arial" font-size="16" font-weight="400" font-style="normal" 
 >row_5</text>
<text fill="#333333" fill-opacity="1" stroke="none" xml:space="preserve" x="812" y="198" font-family="Arial" font-size="16" font-weight="400" font-style="normal" 
 >grp_b</text>
<text fill="#333333" fill-opacity="1" stroke="none" xml:space="preserve" x="224" y="233" font-family="Arial" font-size="16" font-weight="400" font-style="normal" 
 >NA</text>
<text fill="#333333" fill-opacity="1" stroke="none" xml:space="preserve" x="257" y="233" font-family="Arial" font-size="16" font-weight="400" font-style="normal" 
 >fig</text>
<text fill="#333333" fill-opacity="1" stroke="none" xml:space="preserve" x="352.5" y="233" font-family="Arial" font-size="16" font-weight="400" font-style="normal" 
 >six</text>
<text fill="#333333" fill-opacity="1" stroke="none" xml:space="preserve" x="394" y="233" font-family="Arial" font-size="16" font-weight="400" font-style="normal" 
 >2015-06-15</text>
<text fill="#333333" fill-opacity="1" stroke="none" xml:space="preserve" x="486" y="233" font-family="Arial" font-size="16" font-weight="400" font-style="normal" 
 >NA</text>
<text fill="#333333" fill-opacity="1" stroke="none" xml:space="preserve" x="536" y="233" font-family="Arial" font-size="16" font-weight="400" font-style="normal" 
 >2018-06-06 16:11</text>
<text fill="#333333" fill-opacity="1" stroke="none" xml:space="preserve" x="699" y="233" font-family="Arial" font-size="16" font-weight="400" font-style="normal" 
 >13.255</text>
<text fill="#333333" fill-opacity="1" stroke="none" xml:space="preserve" x="758" y="233" font-family="Arial" font-size="16" font-weight="400" font-style="normal" 
 >row_6</text>
<text fill="#333333" fill-opacity="1" stroke="none" xml:space="preserve" x="812" y="233" font-family="Arial" font-size="16" font-weight="400" font-style="normal" 
 >grp_b</text>
<text fill="#333333" fill-opacity="1" stroke="none" xml:space="preserve" x="171" y="268" font-family="Arial" font-size="16" font-weight="400" font-style="normal" 
 >7.770e+05</text>
<text fill="#333333" fill-opacity="1" stroke="none" xml:space="preserve" x="257" y="268" font-family="Arial" font-size="16" font-weight="400" font-style="normal" 
 >grapefruit</text>
<text fill="#333333" fill-opacity="1" stroke="none" xml:space="preserve" x="341" y="268" font-family="Arial" font-size="16" font-weight="400" font-style="normal" 
 >seven</text>
<text fill="#333333" fill-opacity="1" stroke="none" xml:space="preserve" x="394" y="268" font-family="Arial" font-size="16" font-weight="400" font-style="normal" 
 >NA</text>
<text fill="#333333" fill-opacity="1" stroke="none" xml:space="preserve" x="486" y="268" font-family="Arial" font-size="16" font-weight="400" font-style="normal" 
 >19:10</text>
<text fill="#333333" fill-opacity="1" stroke="none" xml:space="preserve" x="536" y="268" font-family="Arial" font-size="16" font-weight="400" font-style="normal" 
 >2018-07-07 05:22</text>
<text fill="#333333" fill-opacity="1" stroke="none" xml:space="preserve" x="725" y="268" font-family="Arial" font-size="16" font-weight="400" font-style="normal" 
 >NA</text>
<text fill="#333333" fill-opacity="1" stroke="none" xml:space="preserve" x="758" y="268" font-family="Arial" font-size="16" font-weight="400" font-style="normal" 
 >row_7</text>
<text fill="#333333" fill-opacity="1" stroke="none" xml:space="preserve" x="812" y="268" font-family="Arial" font-size="16" font-weight="400" font-style="normal" 
 >grp_b</text>
<text fill="#333333" fill-opacity="1" stroke="none" xml:space="preserve" x="171" y="303" font-family="Arial" font-size="16" font-weight="400" font-style="normal" 
 >8.880e+06</text>
<text fill="#333333" fill-opacity="1" stroke="none" xml:space="preserve" x="257" y="303" font-family="Arial" font-size="16" font-weight="400" font-style="normal" 
 >honeydew</text>
<text fill="#333333" fill-opacity="1" stroke="none" xml:space="preserve" x="345" y="303" font-family="Arial" font-size="16" font-weight="400" font-style="normal" 
 >eight</text>
<text fill="#333333" fill-opacity="1" stroke="none" xml:space="preserve" x="394" y="303" font-family="Arial" font-size="16" font-weight="400" font-style="normal" 
 >2015-08-15</text>
<text fill="#333333" fill-opacity="1" stroke="none" xml:space="preserve" x="486" y="303" font-family="Arial" font-size="16" font-weight="400" font-style="normal" 
 >20:20</text>
<text fill="#333333" fill-opacity="1" stroke="none" xml:space="preserve" x="536" y="303" font-family="Arial" font-size="16" font-weight="400" font-style="normal" 
 >NA</text>
<text fill="#333333" fill-opacity="1" stroke="none" xml:space="preserve" x="708" y="303" font-family="Arial" font-size="16" font-weight="400" font-style="normal" 
 >0.440</text>
<text fill="#333333" fill-opacity="1" stroke="none" xml:space="preserve" x="758" y="303" font-family="Arial" font-size="16" font-weight="400" font-style="normal" 
 >row_8</text>
<text fill="#333333" fill-opacity="1" stroke="none" xml:space="preserve" x="812" y="303" font-family="Arial" font-size="16" font-weight="400" font-style="normal" 
 >grp_b</text>
</g>
</g>
</svg>
