<?xml version="1.0" encoding="UTF-8" standalone="no"?>
<svg width="361.244mm" height="128.411mm"
 viewBox="0 0 1024 364"
 xmlns="http://www.w3.org/2000/svg" xmlns:xlink="http://www.w3.org/1999/xlink"  version="1.2" baseProfile="tiny">
<title>Qt Svg Document</title>
<desc>Generated with Qt</desc>
<defs>
</defs>
<g fill="none" stroke="black" stroke-width="1" fill-rule="evenodd" stroke-linecap="square" stroke-linejoin="bevel" >

<g fill="#ffffff" fill-opacity="1" stroke="none" transform="matrix(1,0,0,1,0,0)"
font-family="Helvetica" font-size="12" font-weight="400" font-style="normal" 
>
<path vector-effect="non-scaling-stroke" fill-rule="evenodd" d="M0,0 L1024,0 L1024,364 L0,364 L0,0"/>
<path vector-effect="non-scaling-stroke" fill-rule="evenodd" d="M0,0 L1024,0 L1024,364 L0,364 L0,0"/>
<path vector-effect="non-scaling-stroke" fill-rule="evenodd" d="M0,0 L1024,0 L1024,364 L0,364 L0,0"/>
<path vector-effect="non-scaling-stroke" fill-rule="evenodd" d="M123,8 L901,8 L901,356 L123,356 L123,8"/>
<path vector-effect="non-scaling-stroke" fill-rule="evenodd" d="M123,9 L215,9 L215,49 L123,49 L123,9"/>
<path vector-effect="non-scaling-stroke" fill-rule="evenodd" d="M215,9 L309,9 L309,49 L215,49 L215,9"/>
<path vector-effect="non-scaling-stroke" fill-rule="evenodd" d="M309,9 L372,9 L372,49 L309,49 L309,9"/>
<path vector-effect="non-scaling-stroke" fill-rule="evenodd" d="M372,9 L474,9 L474,49 L372,49 L372,9"/>
<path vector-effect="non-scaling-stroke" fill-rule="evenodd" d="M474,9 L534,9 L534,49 L474,49 L474,9"/>
<path vector-effect="non-scaling-stroke" fill-rule="evenodd" d="M534,9 L680,9 L680,49 L534,49 L534,9"/>
<path vector-effect="non-scaling-stroke" fill-rule="evenodd" d="M680,9 L776,9 L776,49 L680,49 L680,9"/>
<path vector-effect="non-scaling-stroke" fill-rule="evenodd" d="M776,9 L840,9 L840,49 L776,49 L776,9"/>
<path vector-effect="non-scaling-stroke" fill-rule="evenodd" d="M840,9 L901,9 L901,49 L840,49 L840,9"/>
</g>

<g fill="#f2f2f2" fill-opacity="1" stroke="none" transform="matrix(1,0,0,1,0,0)"
font-family="Helvetica" font-size="12" font-weight="400" font-style="normal" 
>
<path vector-effect="non-scaling-stroke" fill-rule="evenodd" d="M123,88 L215,88 L215,126 L123,126 L123,88"/>
<path vector-effect="non-scaling-stroke" fill-rule="evenodd" d="M215,88 L309,88 L309,126 L215,126 L215,88"/>
<path vector-effect="non-scaling-stroke" fill-rule="evenodd" d="M309,88 L372,88 L372,126 L309,126 L309,88"/>
<path vector-effect="non-scaling-stroke" fill-rule="evenodd" d="M372,88 L474,88 L474,126 L372,126 L372,88"/>
<path vector-effect="non-scaling-stroke" fill-rule="evenodd" d="M474,88 L534,88 L534,126 L474,126 L474,88"/>
<path vector-effect="non-scaling-stroke" fill-rule="evenodd" d="M534,88 L680,88 L680,126 L534,126 L534,88"/>
<path vector-effect="non-scaling-stroke" fill-rule="evenodd" d="M680,88 L776,88 L776,126 L680,126 L680,88"/>
<path vector-effect="non-scaling-stroke" fill-rule="evenodd" d="M776,88 L840,88 L840,126 L776,126 L776,88"/>
<path vector-effect="non-scaling-stroke" fill-rule="evenodd" d="M840,88 L901,88 L901,126 L840,126 L840,88"/>
<path vector-effect="non-scaling-stroke" fill-rule="evenodd" d="M123,164 L215,164 L215,202 L123,202 L123,164"/>
<path vector-effect="non-scaling-stroke" fill-rule="evenodd" d="M215,164 L309,164 L309,202 L215,202 L215,164"/>
<path vector-effect="non-scaling-stroke" fill-rule="evenodd" d="M309,164 L372,164 L372,202 L309,202 L309,164"/>
<path vector-effect="non-scaling-stroke" fill-rule="evenodd" d="M372,164 L474,164 L474,202 L372,202 L372,164"/>
<path vector-effect="non-scaling-stroke" fill-rule="evenodd" d="M474,164 L534,164 L534,202 L474,202 L474,164"/>
<path vector-effect="non-scaling-stroke" fill-rule="evenodd" d="M534,164 L680,164 L680,202 L534,202 L534,164"/>
<path vector-effect="non-scaling-stroke" fill-rule="evenodd" d="M680,164 L776,164 L776,202 L680,202 L680,164"/>
<path vector-effect="non-scaling-stroke" fill-rule="evenodd" d="M776,164 L840,164 L840,202 L776,202 L776,164"/>
<path vector-effect="non-scaling-stroke" fill-rule="evenodd" d="M840,164 L901,164 L901,202 L840,202 L840,164"/>
<path vector-effect="non-scaling-stroke" fill-rule="evenodd" d="M123,240 L215,240 L215,278 L123,278 L123,240"/>
<path vector-effect="non-scaling-stroke" fill-rule="evenodd" d="M215,240 L309,240 L309,278 L215,278 L215,240"/>
<path vector-effect="non-scaling-stroke" fill-rule="evenodd" d="M309,240 L372,240 L372,278 L309,278 L309,240"/>
<path vector-effect="non-scaling-stroke" fill-rule="evenodd" d="M372,240 L474,240 L474,278 L372,278 L372,240"/>
<path vector-effect="non-scaling-stroke" fill-rule="evenodd" d="M474,240 L534,240 L534,278 L474,278 L474,240"/>
<path vector-effect="non-scaling-stroke" fill-rule="evenodd" d="M534,240 L680,240 L680,278 L534,278 L534,240"/>
<path vector-effect="non-scaling-stroke" fill-rule="evenodd" d="M680,240 L776,240 L776,278 L680,278 L680,240"/>
<path vector-effect="non-scaling-stroke" fill-rule="evenodd" d="M776,240 L840,240 L840,278 L776,278 L776,240"/>
<path vector-effect="non-scaling-stroke" fill-rule="evenodd" d="M840,240 L901,240 L901,278 L840,278 L840,240"/>
<path vector-effect="non-scaling-stroke" fill-rule="evenodd" d="M123,316 L215,316 L215,355 L123,355 L123,316"/>
<path vector-effect="non-scaling-stroke" fill-rule="evenodd" d="M215,316 L309,316 L309,355 L215,355 L215,316"/>
<path vector-effect="non-scaling-stroke" fill-rule="evenodd" d="M309,316 L372,316 L372,355 L309,355 L309,316"/>
<path vector-effect="non-scaling-stroke" fill-rule="evenodd" d="M372,316 L474,316 L474,355 L372,355 L372,316"/>
<path vector-effect="non-scaling-stroke" fill-rule="evenodd" d="M474,316 L534,316 L534,355 L474,355 L474,316"/>
<path vector-effect="non-scaling-stroke" fill-rule="evenodd" d="M534,316 L680,316 L680,355 L534,355 L534,316"/>
<path vector-effect="non-scaling-stroke" fill-rule="evenodd" d="M680,316 L776,316 L776,355 L680,355 L680,316"/>
<path vector-effect="non-scaling-stroke" fill-rule="evenodd" d="M776,316 L840,316 L840,355 L776,355 L776,316"/>
<path vector-effect="non-scaling-stroke" fill-rule="evenodd" d="M840,316 L901,316 L901,355 L840,355 L840,316"/>
</g>

<g fill="#a8a8a8" fill-opacity="1" stroke="none" transform="matrix(1,0,0,1,0,0)"
font-family="Helvetica" font-size="12" font-weight="400" font-style="normal" 
>
<path vector-effect="non-scaling-stroke" fill-rule="evenodd" d="M123,8 L215,8 L215,10 L123,10 L123,8"/>
<path vector-effect="non-scaling-stroke" fill-rule="evenodd" d="M215,8 L309,8 L309,10 L215,10 L215,8"/>
<path vector-effect="non-scaling-stroke" fill-rule="evenodd" d="M309,8 L372,8 L372,10 L309,10 L309,8"/>
<path vector-effect="non-scaling-stroke" fill-rule="evenodd" d="M372,8 L474,8 L474,10 L372,10 L372,8"/>
<path vector-effect="non-scaling-stroke" fill-rule="evenodd" d="M474,8 L534,8 L534,10 L474,10 L474,8"/>
<path vector-effect="non-scaling-stroke" fill-rule="evenodd" d="M534,8 L680,8 L680,10 L534,10 L534,8"/>
<path vector-effect="non-scaling-stroke" fill-rule="evenodd" d="M680,8 L776,8 L776,10 L680,10 L680,8"/>
<path vector-effect="non-scaling-stroke" fill-rule="evenodd" d="M776,8 L840,8 L840,10 L776,10 L776,8"/>
<path vector-effect="non-scaling-stroke" fill-rule="evenodd" d="M840,8 L901,8 L901,10 L840,10 L840,8"/>
<path vector-effect="non-scaling-stroke" fill-rule="evenodd" d="M123,48 L215,48 L215,50 L123,50 L123,48"/>
<path vector-effect="non-scaling-stroke" fill-rule="evenodd" d="M215,48 L309,48 L309,50 L215,50 L215,48"/>
<path vector-effect="non-scaling-stroke" fill-rule="evenodd" d="M309,48 L372,48 L372,50 L309,50 L309,48"/>
<path vector-effect="non-scaling-stroke" fill-rule="evenodd" d="M372,48 L474,48 L474,50 L372,50 L372,48"/>
<path vector-effect="non-scaling-stroke" fill-rule="evenodd" d="M474,48 L534,48 L534,50 L474,50 L474,48"/>
<path vector-effect="non-scaling-stroke" fill-rule="evenodd" d="M534,48 L680,48 L680,50 L534,50 L534,48"/>
<path vector-effect="non-scaling-stroke" fill-rule="evenodd" d="M680,48 L776,48 L776,50 L680,50 L680,48"/>
<path vector-effect="non-scaling-stroke" fill-rule="evenodd" d="M776,48 L840,48 L840,50 L776,50 L776,48"/>
<path vector-effect="non-scaling-stroke" fill-rule="evenodd" d="M840,48 L901,48 L901,50 L840,50 L840,48"/>
<path vector-effect="non-scaling-stroke" fill-rule="evenodd" d="M123,48 L215,48 L215,50 L123,50 L123,48"/>
<path vector-effect="non-scaling-stroke" fill-rule="evenodd" d="M215,48 L309,48 L309,50 L215,50 L215,48"/>
<path vector-effect="non-scaling-stroke" fill-rule="evenodd" d="M309,48 L372,48 L372,50 L309,50 L309,48"/>
<path vector-effect="non-scaling-stroke" fill-rule="evenodd" d="M372,48 L474,48 L474,50 L372,50 L372,48"/>
<path vector-effect="non-scaling-stroke" fill-rule="evenodd" d="M474,48 L534,48 L534,50 L474,50 L474,48"/>
<path vector-effect="non-scaling-stroke" fill-rule="evenodd" d="M534,48 L680,48 L680,50 L534,50 L534,48"/>
<path vector-effect="non-scaling-stroke" fill-rule="evenodd" d="M680,48 L776,48 L776,50 L680,50 L680,48"/>
<path vector-effect="non-scaling-stroke" fill-rule="evenodd" d="M776,48 L840,48 L840,50 L776,50 L776,48"/>
<path vector-effect="non-scaling-stroke" fill-rule="evenodd" d="M840,48 L901,48 L901,50 L840,50 L840,48"/>
<path vector-effect="non-scaling-stroke" fill-rule="evenodd" d="M123,354 L215,354 L215,356 L123,356 L123,354"/>
<path vector-effect="non-scaling-stroke" fill-rule="evenodd" d="M215,354 L309,354 L309,356 L215,356 L215,354"/>
<path vector-effect="non-scaling-stroke" fill-rule="evenodd" d="M309,354 L372,354 L372,356 L309,356 L309,354"/>
<path vector-effect="non-scaling-stroke" fill-rule="evenodd" d="M372,354 L474,354 L474,356 L372,356 L372,354"/>
<path vector-effect="non-scaling-stroke" fill-rule="evenodd" d="M474,354 L534,354 L534,356 L474,356 L474,354"/>
<path vector-effect="non-scaling-stroke" fill-rule="evenodd" d="M534,354 L680,354 L680,356 L534,356 L534,354"/>
<path vector-effect="non-scaling-stroke" fill-rule="evenodd" d="M680,354 L776,354 L776,356 L680,356 L680,354"/>
<path vector-effect="non-scaling-stroke" fill-rule="evenodd" d="M776,354 L840,354 L840,356 L776,356 L776,354"/>
<path vector-effect="non-scaling-stroke" fill-rule="evenodd" d="M840,354 L901,354 L901,356 L840,356 L840,354"/>
</g>

<g fill="#000000" fill-opacity="1" stroke="#000000" stroke-opacity="1" stroke-width="1" stroke-linecap="square" stroke-linejoin="bevel" transform="matrix(1,0,0,1,0,0)"
font-family="Arial" font-size="16" font-weight="400" font-style="normal" 
>
<text fill="#000000" fill-opacity="1" stroke="none" xml:space="preserve" x="174" y="34" font-family="Arial" font-size="16" font-weight="400" font-style="normal" 
 >num</text>
<text fill="#000000" fill-opacity="1" stroke="none" xml:space="preserve" x="225" y="34" font-family="Arial" font-size="16" font-weight="400" font-style="normal" 
 >char</text>
<text fill="#000000" fill-opacity="1" stroke="none" xml:space="preserve" x="330" y="34" font-family="Arial" font-size="16" font-weight="400" font-style="normal" 
 >fctr</text>
<text fill="#000000" fill-opacity="1" stroke="none" xml:space="preserve" x="382" y="34" font-family="Arial" font-size="16" font-weight="400" font-style="normal" 
 >date</text>
<text fill="#000000" fill-opacity="1" stroke="none" xml:space="preserve" x="484" y="34" font-family="Arial" font-size="16" font-weight="400" font-style="normal" 
 >time</text>
<text fill="#000000" fill-opacity="1" stroke="none" xml:space="preserve" x="544" y="34" font-family="Arial" font-size="16" font-weight="400" font-style="normal" 
 >datetime</text>
<text fill="#000000" fill-opacity="1" stroke="none" xml:space="preserve" x="705" y="34" font-family="Arial" font-size="16" font-weight="400" font-style="normal" 
 >currency</text>
<text fill="#000000" fill-opacity="1" stroke="none" xml:space="preserve" x="786" y="34" font-family="Arial" font-size="16" font-weight="400" font-style="normal" 
 >row</text>
<text fill="#000000" fill-opacity="1" stroke="none" xml:space="preserve" x="850" y="34" font-family="Arial" font-size="16" font-weight="400" font-style="normal" 
 >group</text>
<text fill="#000000" fill-opacity="1" stroke="none" xml:space="preserve" x="160" y="74" font-family="Arial" font-size="16" font-weight="400" font-style="normal" 
 >11.1%</text>
<text fill="#000000" fill-opacity="1" stroke="none" xml:space="preserve" x="225" y="74" font-family="Arial" font-size="16" font-weight="400" font-style="normal" 
 >apricot</text>
<text fill="#000000" fill-opacity="1" stroke="none" xml:space="preserve" x="327" y="74" font-family="Arial" font-size="16" font-weight="400" font-style="normal" 
 >one</text>
<text fill="#000000" fill-opacity="1" stroke="none" xml:space="preserve" x="382" y="74" font-family="Arial" font-size="16" font-weight="400" font-style="normal" 
 >2015-01-15</text>
<text fill="#000000" fill-opacity="1" stroke="none" xml:space="preserve" x="484" y="74" font-family="Arial" font-size="16" font-weight="400" font-style="normal" 
 >13:35</text>
<text fill="#000000" fill-opacity="1" stroke="none" xml:space="preserve" x="544" y="74" font-family="Arial" font-size="16" font-weight="400" font-style="normal" 
 >2018-01-01 02:22</text>
<text fill="#000000" fill-opacity="1" stroke="none" xml:space="preserve" x="717" y="74" font-family="Arial" font-size="16" font-weight="400" font-style="normal" 
 >49.950</text>
<text fill="#000000" fill-opacity="1" stroke="none" xml:space="preserve" x="786" y="74" font-family="Arial" font-size="16" font-weight="400" font-style="normal" 
 >row_1</text>
<text fill="#000000" fill-opacity="1" stroke="none" xml:space="preserve" x="850" y="74" font-family="Arial" font-size="16" font-weight="400" font-style="normal" 
 >grp_a</text>
<text fill="#000000" fill-opacity="1" stroke="none" xml:space="preserve" x="151" y="112" font-family="Arial" font-size="16" font-weight="400" font-style="normal" 
 >222.2%</text>
<text fill="#000000" fill-opacity="1" stroke="none" xml:space="preserve" x="225" y="112" font-family="Arial" font-size="16" font-weight="400" font-style="normal" 
 >banana</text>
<text fill="#000000" fill-opacity="1" stroke="none" xml:space="preserve" x="328" y="112" font-family="Arial" font-size="16" font-weight="400" font-style="normal" 
 >two</text>
<text fill="#000000" fill-opacity="1" stroke="none" xml:space="preserve" x="382" y="112" font-family="Arial" font-size="16" font-weight="400" font-style="normal" 
 >2015-02-15</text>
<text fill="#000000" fill-opacity="1" stroke="none" xml:space="preserve" x="484" y="112" font-family="Arial" font-size="16" font-weight="400" font-style="normal" 
 >14:40</text>
<text fill="#000000" fill-opacity="1" stroke="none" xml:space="preserve" x="544" y="112" font-family="Arial" font-size="16" font-weight="400" font-style="normal" 
 >2018-02-02 14:33</text>
<text fill="#000000" fill-opacity="1" stroke="none" xml:space="preserve" x="717" y="112" font-family="Arial" font-size="16" font-weight="400" font-style="normal" 
 >17.950</text>
<text fill="#000000" fill-opacity="1" stroke="none" xml:space="preserve" x="786" y="112" font-family="Arial" font-size="16" font-weight="400" font-style="normal" 
 >row_2</text>
<text fill="#000000" fill-opacity="1" stroke="none" xml:space="preserve" x="850" y="112" font-family="Arial" font-size="16" font-weight="400" font-style="normal" 
 >grp_a</text>
<text fill="#000000" fill-opacity="1" stroke="none" xml:space="preserve" x="151" y="150" font-family="Arial" font-size="16" font-weight="400" font-style="normal" 
 >3,333%</text>
<text fill="#000000" fill-opacity="1" stroke="none" xml:space="preserve" x="225" y="150" font-family="Arial" font-size="16" font-weight="400" font-style="normal" 
 >coconut</text>
<text fill="#000000" fill-opacity="1" stroke="none" xml:space="preserve" x="322.5" y="150" font-family="Arial" font-size="16" font-weight="400" font-style="normal" 
 >three</text>
<text fill="#000000" fill-opacity="1" stroke="none" xml:space="preserve" x="382" y="150" font-family="Arial" font-size="16" font-weight="400" font-style="normal" 
 >2015-03-15</text>
<text fill="#000000" fill-opacity="1" stroke="none" xml:space="preserve" x="484" y="150" font-family="Arial" font-size="16" font-weight="400" font-style="normal" 
 >15:45</text>
<text fill="#000000" fill-opacity="1" stroke="none" xml:space="preserve" x="544" y="150" font-family="Arial" font-size="16" font-weight="400" font-style="normal" 
 >2018-03-03 03:44</text>
<text fill="#000000" fill-opacity="1" stroke="none" xml:space="preserve" x="726" y="150" font-family="Arial" font-size="16" font-weight="400" font-style="normal" 
 >1.390</text>
<text fill="#000000" fill-opacity="1" stroke="none" xml:space="preserve" x="786" y="150" font-family="Arial" font-size="16" font-weight="400" font-style="normal" 
 >row_3</text>
<text fill="#000000" fill-opacity="1" stroke="none" xml:space="preserve" x="850" y="150" font-family="Arial" font-size="16" font-weight="400" font-style="normal" 
 >grp_a</text>
<text fill="#000000" fill-opacity="1" stroke="none" xml:space="preserve" x="142" y="188" font-family="Arial" font-size="16" font-weight="400" font-style="normal" 
 >44,440%</text>
<text fill="#000000" fill-opacity="1" stroke="none" xml:space="preserve" x="225" y="188" font-family="Arial" font-size="16" font-weight="400" font-style="normal" 
 >durian</text>
<text fill="#000000" fill-opacity="1" stroke="none" xml:space="preserve" x="327" y="188" font-family="Arial" font-size="16" font-weight="400" font-style="normal" 
 >four</text>
<text fill="#000000" fill-opacity="1" stroke="none" xml:space="preserve" x="382" y="188" font-family="Arial" font-size="16" font-weight="400" font-style="normal" 
 >2015-04-15</text>
<text fill="#000000" fill-opacity="1" stroke="none" xml:space="preserve" x="484" y="188" font-family="Arial" font-size="16" font-weight="400" font-style="normal" 
 >16:50</text>
<text fill="#000000" fill-opacity="1" stroke="none" xml:space="preserve" x="544" y="188" font-family="Arial" font-size="16" font-weight="400" font-style="normal" 
 >2018-04-04 15:55</text>
<text fill="#000000" fill-opacity="1" stroke="none" xml:space="preserve" x="690" y="188" font-family="Arial" font-size="16" font-weight="400" font-style="normal" 
 >65100.000</text>
<text fill="#000000" fill-opacity="1" stroke="none" xml:space="preserve" x="786" y="188" font-family="Arial" font-size="16" font-weight="400" font-style="normal" 
 >row_4</text>
<text fill="#000000" fill-opacity="1" stroke="none" xml:space="preserve" x="850" y="188" font-family="Arial" font-size="16" font-weight="400" font-style="normal" 
 >grp_a</text>
<text fill="#000000" fill-opacity="1" stroke="none" xml:space="preserve" x="133" y="226" font-family="Arial" font-size="16" font-weight="400" font-style="normal" 
 >555,000%</text>
<text fill="#000000" fill-opacity="1" stroke="none" xml:space="preserve" x="225" y="226" font-family="Arial" font-size="16" font-weight="400" font-style="normal" 
 >NA</text>
<text fill="#000000" fill-opacity="1" stroke="none" xml:space="preserve" x="328" y="226" font-family="Arial" font-size="16" font-weight="400" font-style="normal" 
 >five</text>
<text fill="#000000" fill-opacity="1" stroke="none" xml:space="preserve" x="382" y="226" font-family="Arial" font-size="16" font-weight="400" font-style="normal" 
 >2015-05-15</text>
<text fill="#000000" fill-opacity="1" stroke="none" xml:space="preserve" x="484" y="226" font-family="Arial" font-size="16" font-weight="400" font-style="normal" 
 >17:55</text>
<text fill="#000000" fill-opacity="1" stroke="none" xml:space="preserve" x="544" y="226" font-family="Arial" font-size="16" font-weight="400" font-style="normal" 
 >2018-05-05 04:00</text>
<text fill="#000000" fill-opacity="1" stroke="none" xml:space="preserve" x="699" y="226" font-family="Arial" font-size="16" font-weight="400" font-style="normal" 
 >1325.810</text>
<text fill="#000000" fill-opacity="1" stroke="none" xml:space="preserve" x="786" y="226" font-family="Arial" font-size="16" font-weight="400" font-style="normal" 
 >row_5</text>
<text fill="#000000" fill-opacity="1" stroke="none" xml:space="preserve" x="850" y="226" font-family="Arial" font-size="16" font-weight="400" font-style="normal" 
 >grp_b</text>
<text fill="#000000" fill-opacity="1" stroke="none" xml:space="preserve" x="182" y="264" font-family="Arial" font-size="16" font-weight="400" font-style="normal" 
 >NA</text>
<text fill="#000000" fill-opacity="1" stroke="none" xml:space="preserve" x="225" y="264" font-family="Arial" font-size="16" font-weight="400" font-style="normal" 
 >fig</text>
<text fill="#000000" fill-opacity="1" stroke="none" xml:space="preserve" x="330.5" y="264" font-family="Arial" font-size="16" font-weight="400" font-style="normal" 
 >six</text>
<text fill="#000000" fill-opacity="1" stroke="none" xml:space="preserve" x="382" y="264" font-family="Arial" font-size="16" font-weight="400" font-style="normal" 
 >2015-06-15</text>
<text fill="#000000" fill-opacity="1" stroke="none" xml:space="preserve" x="484" y="264" font-family="Arial" font-size="16" font-weight="400" font-style="normal" 
 >NA</text>
<text fill="#000000" fill-opacity="1" stroke="none" xml:space="preserve" x="544" y="264" font-family="Arial" font-size="16" font-weight="400" font-style="normal" 
 >2018-06-06 16:11</text>
<text fill="#000000" fill-opacity="1" stroke="none" xml:space="preserve" x="717" y="264" font-family="Arial" font-size="16" font-weight="400" font-style="normal" 
 >13.255</text>
<text fill="#000000" fill-opacity="1" stroke="none" xml:space="preserve" x="786" y="264" font-family="Arial" font-size="16" font-weight="400" font-style="normal" 
 >row_6</text>
<text fill="#000000" fill-opacity="1" stroke="none" xml:space="preserve" x="850" y="264" font-family="Arial" font-size="16" font-weight="400" font-style="normal" 
 >grp_b</text>
<text fill="#000000" fill-opacity="1" stroke="none" xml:space="preserve" x="151" y="302" font-family="Arial" font-size="16" font-weight="400" font-style="normal" 
 >777000</text>
<text fill="#000000" fill-opacity="1" stroke="none" xml:space="preserve" x="225" y="302" font-family="Arial" font-size="16" font-weight="400" font-style="normal" 
 >grapefruit</text>
<text fill="#000000" fill-opacity="1" stroke="none" xml:space="preserve" x="319" y="302" font-family="Arial" font-size="16" font-weight="400" font-style="normal" 
 >seven</text>
<text fill="#000000" fill-opacity="1" stroke="none" xml:space="preserve" x="382" y="302" font-family="Arial" font-size="16" font-weight="400" font-style="normal" 
 >NA</text>
<text fill="#000000" fill-opacity="1" stroke="none" xml:space="preserve" x="484" y="302" font-family="Arial" font-size="16" font-weight="400" font-style="normal" 
 >19:10</text>
<text fill="#000000" fill-opacity="1" stroke="none" xml:space="preserve" x="544" y="302" font-family="Arial" font-size="16" font-weight="400" font-style="normal" 
 >2018-07-07 05:22</text>
<text fill="#000000" fill-opacity="1" stroke="none" xml:space="preserve" x="743" y="302" font-family="Arial" font-size="16" font-weight="400" font-style="normal" 
 >NA</text>
<text fill="#000000" fill-opacity="1" stroke="none" xml:space="preserve" x="786" y="302" font-family="Arial" font-size="16" font-weight="400" font-style="normal" 
 >row_7</text>
<text fill="#000000" fill-opacity="1" stroke="none" xml:space="preserve" x="850" y="302" font-family="Arial" font-size="16" font-weight="400" font-style="normal" 
 >grp_b</text>
<text fill="#000000" fill-opacity="1" stroke="none" xml:space="preserve" x="142" y="340" font-family="Arial" font-size="16" font-weight="400" font-style="normal" 
 >8880000</text>
<text fill="#000000" fill-opacity="1" stroke="none" xml:space="preserve" x="225" y="340" font-family="Arial" font-size="16" font-weight="400" font-style="normal" 
 >honeydew</text>
<text fill="#000000" fill-opacity="1" stroke="none" xml:space="preserve" x="323" y="340" font-family="Arial" font-size="16" font-weight="400" font-style="normal" 
 >eight</text>
<text fill="#000000" fill-opacity="1" stroke="none" xml:space="preserve" x="382" y="340" font-family="Arial" font-size="16" font-weight="400" font-style="normal" 
 >2015-08-15</text>
<text fill="#000000" fill-opacity="1" stroke="none" xml:space="preserve" x="484" y="340" font-family="Arial" font-size="16" font-weight="400" font-style="normal" 
 >20:20</text>
<text fill="#000000" fill-opacity="1" stroke="none" xml:space="preserve" x="544" y="340" font-family="Arial" font-size="16" font-weight="400" font-style="normal" 
 >NA</text>
<text fill="#000000" fill-opacity="1" stroke="none" xml:space="preserve" x="726" y="340" font-family="Arial" font-size="16" font-weight="400" font-style="normal" 
 >0.440</text>
<text fill="#000000" fill-opacity="1" stroke="none" xml:space="preserve" x="786" y="340" font-family="Arial" font-size="16" font-weight="400" font-style="normal" 
 >row_8</text>
<text fill="#000000" fill-opacity="1" stroke="none" xml:space="preserve" x="850" y="340" font-family="Arial" font-size="16" font-weight="400" font-style="normal" 
 >grp_b</text>
</g>
</g>
</svg>
