<?xml version="1.0" encoding="UTF-8" standalone="no"?>
<svg width="361.244mm" height="128.411mm"
 viewBox="0 0 1024 364"
 xmlns="http://www.w3.org/2000/svg" xmlns:xlink="http://www.w3.org/1999/xlink"  version="1.2" baseProfile="tiny">
<title>Qt Svg Document</title>
<desc>Generated with Qt</desc>
<defs>
</defs>
<g fill="none" stroke="black" stroke-width="1" fill-rule="evenodd" stroke-linecap="square" stroke-linejoin="bevel" >

<g fill="#ffffff" fill-opacity="1" stroke="none" transform="matrix(1,0,0,1,0,0)"
font-family="Helvetica" font-size="12" font-weight="400" font-style="normal" 
>
<path vector-effect="non-scaling-stroke" fill-rule="evenodd" d="M0,0 L1024,0 L1024,364 L0,364 L0,0"/>
<path vector-effect="non-scaling-stroke" fill-rule="evenodd" d="M0,0 L1024,0 L1024,364 L0,364 L0,0"/>
<path vector-effect="non-scaling-stroke" fill-rule="evenodd" d="M0,0 L1024,0 L1024,364 L0,364 L0,0"/>
<path vector-effect="non-scaling-stroke" fill-rule="evenodd" d="M468,8 L555,8 L555,356 L468,356 L468,8"/>
<path vector-effect="non-scaling-stroke" fill-rule="evenodd" d="M468,9 L497,9 L497,49 L468,49 L468,9"/>
<path vector-effect="non-scaling-stroke" fill-rule="evenodd" d="M497,9 L526,9 L526,49 L497,49 L497,9"/>
<path vector-effect="non-scaling-stroke" fill-rule="evenodd" d="M526,9 L555,9 L555,49 L526,49 L526,9"/>
</g>

<g fill="#caf9e4" fill-opacity="1" stroke="none" transform="matrix(1,0,0,1,0,0)"
font-family="Helvetica" font-size="12" font-weight="400" font-style="normal" 
>
<path vector-effect="non-scaling-stroke" fill-rule="evenodd" d="M468,49 L497,49 L497,88 L468,88 L468,49"/>
</g>

<g fill="#b3e2cd" fill-opacity="1" stroke="none" transform="matrix(1,0,0,1,0,0)"
font-family="Helvetica" font-size="12" font-weight="400" font-style="normal" 
>
<path vector-effect="non-scaling-stroke" fill-rule="evenodd" d="M497,49 L526,49 L526,88 L497,88 L497,49"/>
</g>

<g fill="#84b4a0" fill-opacity="1" stroke="none" transform="matrix(1,0,0,1,0,0)"
font-family="Helvetica" font-size="12" font-weight="400" font-style="normal" 
>
<path vector-effect="non-scaling-stroke" fill-rule="evenodd" d="M526,49 L555,49 L555,88 L526,88 L526,49"/>
</g>

<g fill="#ffe5c4" fill-opacity="1" stroke="none" transform="matrix(1,0,0,1,0,0)"
font-family="Helvetica" font-size="12" font-weight="400" font-style="normal" 
>
<path vector-effect="non-scaling-stroke" fill-rule="evenodd" d="M468,88 L497,88 L497,126 L468,126 L468,88"/>
</g>

<g fill="#fdcdac" fill-opacity="1" stroke="none" transform="matrix(1,0,0,1,0,0)"
font-family="Helvetica" font-size="12" font-weight="400" font-style="normal" 
>
<path vector-effect="non-scaling-stroke" fill-rule="evenodd" d="M497,88 L526,88 L526,126 L497,126 L497,88"/>
</g>

<g fill="#ce9f7d" fill-opacity="1" stroke="none" transform="matrix(1,0,0,1,0,0)"
font-family="Helvetica" font-size="12" font-weight="400" font-style="normal" 
>
<path vector-effect="non-scaling-stroke" fill-rule="evenodd" d="M526,88 L555,88 L555,126 L526,126 L526,88"/>
</g>

<g fill="#e4eeff" fill-opacity="1" stroke="none" transform="matrix(1,0,0,1,0,0)"
font-family="Helvetica" font-size="12" font-weight="400" font-style="normal" 
>
<path vector-effect="non-scaling-stroke" fill-rule="evenodd" d="M468,126 L497,126 L497,164 L468,164 L468,126"/>
</g>

<g fill="#cbd5e8" fill-opacity="1" stroke="none" transform="matrix(1,0,0,1,0,0)"
font-family="Helvetica" font-size="12" font-weight="400" font-style="normal" 
>
<path vector-effect="non-scaling-stroke" fill-rule="evenodd" d="M497,126 L526,126 L526,164 L497,164 L497,126"/>
</g>

<g fill="#9ba5b8" fill-opacity="1" stroke="none" transform="matrix(1,0,0,1,0,0)"
font-family="Helvetica" font-size="12" font-weight="400" font-style="normal" 
>
<path vector-effect="non-scaling-stroke" fill-rule="evenodd" d="M526,126 L555,126 L555,164 L526,164 L526,126"/>
</g>

<g fill="#ffe2fc" fill-opacity="1" stroke="none" transform="matrix(1,0,0,1,0,0)"
font-family="Helvetica" font-size="12" font-weight="400" font-style="normal" 
>
<path vector-effect="non-scaling-stroke" fill-rule="evenodd" d="M468,164 L497,164 L497,202 L468,202 L468,164"/>
</g>

<g fill="#f4cae4" fill-opacity="1" stroke="none" transform="matrix(1,0,0,1,0,0)"
font-family="Helvetica" font-size="12" font-weight="400" font-style="normal" 
>
<path vector-effect="non-scaling-stroke" fill-rule="evenodd" d="M497,164 L526,164 L526,202 L497,202 L497,164"/>
</g>

<g fill="#c59bb5" fill-opacity="1" stroke="none" transform="matrix(1,0,0,1,0,0)"
font-family="Helvetica" font-size="12" font-weight="400" font-style="normal" 
>
<path vector-effect="non-scaling-stroke" fill-rule="evenodd" d="M526,164 L555,164 L555,202 L526,202 L526,164"/>
</g>

<g fill="#f0ffd3" fill-opacity="1" stroke="none" transform="matrix(1,0,0,1,0,0)"
font-family="Helvetica" font-size="12" font-weight="400" font-style="normal" 
>
<path vector-effect="non-scaling-stroke" fill-rule="evenodd" d="M468,202 L497,202 L497,240 L468,240 L468,202"/>
</g>

<g fill="#e6f5c9" fill-opacity="1" stroke="none" transform="matrix(1,0,0,1,0,0)"
font-family="Helvetica" font-size="12" font-weight="400" font-style="normal" 
>
<path vector-effect="non-scaling-stroke" fill-rule="evenodd" d="M497,202 L526,202 L526,240 L497,240 L497,202"/>
</g>

<g fill="#cfdeb2" fill-opacity="1" stroke="none" transform="matrix(1,0,0,1,0,0)"
font-family="Helvetica" font-size="12" font-weight="400" font-style="normal" 
>
<path vector-effect="non-scaling-stroke" fill-rule="evenodd" d="M526,202 L555,202 L555,240 L526,240 L526,202"/>
</g>

<g fill="#fffbb7" fill-opacity="1" stroke="none" transform="matrix(1,0,0,1,0,0)"
font-family="Helvetica" font-size="12" font-weight="400" font-style="normal" 
>
<path vector-effect="non-scaling-stroke" fill-rule="evenodd" d="M468,240 L497,240 L497,278 L468,278 L468,240"/>
</g>

<g fill="#fff2ae" fill-opacity="1" stroke="none" transform="matrix(1,0,0,1,0,0)"
font-family="Helvetica" font-size="12" font-weight="400" font-style="normal" 
>
<path vector-effect="non-scaling-stroke" fill-rule="evenodd" d="M497,240 L526,240 L526,278 L497,278 L497,240"/>
</g>

<g fill="#eadd99" fill-opacity="1" stroke="none" transform="matrix(1,0,0,1,0,0)"
font-family="Helvetica" font-size="12" font-weight="400" font-style="normal" 
>
<path vector-effect="non-scaling-stroke" fill-rule="evenodd" d="M526,240 L555,240 L555,278 L526,278 L526,240"/>
</g>

<g fill="#fff2dc" fill-opacity="1" stroke="none" transform="matrix(1,0,0,1,0,0)"
font-family="Helvetica" font-size="12" font-weight="400" font-style="normal" 
>
<path vector-effect="non-scaling-stroke" fill-rule="evenodd" d="M468,278 L497,278 L497,316 L468,316 L468,278"/>
</g>

<g fill="#f1e2cc" fill-opacity="1" stroke="none" transform="matrix(1,0,0,1,0,0)"
font-family="Helvetica" font-size="12" font-weight="400" font-style="normal" 
>
<path vector-effect="non-scaling-stroke" fill-rule="evenodd" d="M497,278 L526,278 L526,316 L497,316 L497,278"/>
</g>

<g fill="#cebfa9" fill-opacity="1" stroke="none" transform="matrix(1,0,0,1,0,0)"
font-family="Helvetica" font-size="12" font-weight="400" font-style="normal" 
>
<path vector-effect="non-scaling-stroke" fill-rule="evenodd" d="M526,278 L555,278 L555,316 L526,316 L526,278"/>
</g>

<g fill="#eaeaea" fill-opacity="1" stroke="none" transform="matrix(1,0,0,1,0,0)"
font-family="Helvetica" font-size="12" font-weight="400" font-style="normal" 
>
<path vector-effect="non-scaling-stroke" fill-rule="evenodd" d="M468,316 L497,316 L497,355 L468,355 L468,316"/>
</g>

<g fill="#cccccc" fill-opacity="1" stroke="none" transform="matrix(1,0,0,1,0,0)"
font-family="Helvetica" font-size="12" font-weight="400" font-style="normal" 
>
<path vector-effect="non-scaling-stroke" fill-rule="evenodd" d="M497,316 L526,316 L526,355 L497,355 L497,316"/>
</g>

<g fill="#989898" fill-opacity="1" stroke="none" transform="matrix(1,0,0,1,0,0)"
font-family="Helvetica" font-size="12" font-weight="400" font-style="normal" 
>
<path vector-effect="non-scaling-stroke" fill-rule="evenodd" d="M526,316 L555,316 L555,355 L526,355 L526,316"/>
</g>

<g fill="#a8a8a8" fill-opacity="1" stroke="none" transform="matrix(1,0,0,1,0,0)"
font-family="Helvetica" font-size="12" font-weight="400" font-style="normal" 
>
<path vector-effect="non-scaling-stroke" fill-rule="evenodd" d="M468,8 L497,8 L497,10 L468,10 L468,8"/>
<path vector-effect="non-scaling-stroke" fill-rule="evenodd" d="M497,8 L526,8 L526,10 L497,10 L497,8"/>
<path vector-effect="non-scaling-stroke" fill-rule="evenodd" d="M526,8 L555,8 L555,10 L526,10 L526,8"/>
<path vector-effect="non-scaling-stroke" fill-rule="evenodd" d="M468,48 L497,48 L497,50 L468,50 L468,48"/>
<path vector-effect="non-scaling-stroke" fill-rule="evenodd" d="M497,48 L526,48 L526,50 L497,50 L497,48"/>
<path vector-effect="non-scaling-stroke" fill-rule="evenodd" d="M526,48 L555,48 L555,50 L526,50 L526,48"/>
<path vector-effect="non-scaling-stroke" fill-rule="evenodd" d="M468,48 L497,48 L497,50 L468,50 L468,48"/>
<path vector-effect="non-scaling-stroke" fill-rule="evenodd" d="M497,48 L526,48 L526,50 L497,50 L497,48"/>
<path vector-effect="non-scaling-stroke" fill-rule="evenodd" d="M526,48 L555,48 L555,50 L526,50 L526,48"/>
<path vector-effect="non-scaling-stroke" fill-rule="evenodd" d="M468,354 L497,354 L497,356 L468,356 L468,354"/>
<path vector-effect="non-scaling-stroke" fill-rule="evenodd" d="M497,354 L526,354 L526,356 L497,356 L497,354"/>
<path vector-effect="non-scaling-stroke" fill-rule="evenodd" d="M526,354 L555,354 L555,356 L526,356 L526,354"/>
</g>

<g fill="#000000" fill-opacity="1" stroke="#000000" stroke-opacity="1" stroke-width="1" stroke-linecap="square" stroke-linejoin="bevel" transform="matrix(1,0,0,1,0,0)"
font-family="Arial" font-size="16" font-weight="400" font-style="normal" 
>
<text fill="#000000" fill-opacity="1" stroke="none" xml:space="preserve" x="478" y="34" font-family="Arial" font-size="16" font-weight="400" font-style="normal" 
 >a</text>
<text fill="#000000" fill-opacity="1" stroke="none" xml:space="preserve" x="507" y="34" font-family="Arial" font-size="16" font-weight="400" font-style="normal" 
 >b</text>
<text fill="#000000" fill-opacity="1" stroke="none" xml:space="preserve" x="537" y="34" font-family="Arial" font-size="16" font-weight="400" font-style="normal" 
 >c</text>
<text fill="#000000" fill-opacity="1" stroke="none" xml:space="preserve" x="478" y="74" font-family="Arial" font-size="16" font-weight="400" font-style="normal" 
 >1</text>
<text fill="#000000" fill-opacity="1" stroke="none" xml:space="preserve" x="507" y="74" font-family="Arial" font-size="16" font-weight="400" font-style="normal" 
 >1</text>
<text fill="#000000" fill-opacity="1" stroke="none" xml:space="preserve" x="536" y="74" font-family="Arial" font-size="16" font-weight="400" font-style="normal" 
 >1</text>
<text fill="#000000" fill-opacity="1" stroke="none" xml:space="preserve" x="478" y="112" font-family="Arial" font-size="16" font-weight="400" font-style="normal" 
 >2</text>
<text fill="#000000" fill-opacity="1" stroke="none" xml:space="preserve" x="507" y="112" font-family="Arial" font-size="16" font-weight="400" font-style="normal" 
 >2</text>
<text fill="#000000" fill-opacity="1" stroke="none" xml:space="preserve" x="536" y="112" font-family="Arial" font-size="16" font-weight="400" font-style="normal" 
 >2</text>
<text fill="#000000" fill-opacity="1" stroke="none" xml:space="preserve" x="478" y="150" font-family="Arial" font-size="16" font-weight="400" font-style="normal" 
 >3</text>
<text fill="#000000" fill-opacity="1" stroke="none" xml:space="preserve" x="507" y="150" font-family="Arial" font-size="16" font-weight="400" font-style="normal" 
 >3</text>
<text fill="#000000" fill-opacity="1" stroke="none" xml:space="preserve" x="536" y="150" font-family="Arial" font-size="16" font-weight="400" font-style="normal" 
 >3</text>
<text fill="#000000" fill-opacity="1" stroke="none" xml:space="preserve" x="478" y="188" font-family="Arial" font-size="16" font-weight="400" font-style="normal" 
 >4</text>
<text fill="#000000" fill-opacity="1" stroke="none" xml:space="preserve" x="507" y="188" font-family="Arial" font-size="16" font-weight="400" font-style="normal" 
 >4</text>
<text fill="#000000" fill-opacity="1" stroke="none" xml:space="preserve" x="536" y="188" font-family="Arial" font-size="16" font-weight="400" font-style="normal" 
 >4</text>
<text fill="#000000" fill-opacity="1" stroke="none" xml:space="preserve" x="478" y="226" font-family="Arial" font-size="16" font-weight="400" font-style="normal" 
 >5</text>
<text fill="#000000" fill-opacity="1" stroke="none" xml:space="preserve" x="507" y="226" font-family="Arial" font-size="16" font-weight="400" font-style="normal" 
 >5</text>
<text fill="#000000" fill-opacity="1" stroke="none" xml:space="preserve" x="536" y="226" font-family="Arial" font-size="16" font-weight="400" font-style="normal" 
 >5</text>
<text fill="#000000" fill-opacity="1" stroke="none" xml:space="preserve" x="478" y="264" font-family="Arial" font-size="16" font-weight="400" font-style="normal" 
 >6</text>
<text fill="#000000" fill-opacity="1" stroke="none" xml:space="preserve" x="507" y="264" font-family="Arial" font-size="16" font-weight="400" font-style="normal" 
 >6</text>
<text fill="#000000" fill-opacity="1" stroke="none" xml:space="preserve" x="536" y="264" font-family="Arial" font-size="16" font-weight="400" font-style="normal" 
 >6</text>
<text fill="#000000" fill-opacity="1" stroke="none" xml:space="preserve" x="478" y="302" font-family="Arial" font-size="16" font-weight="400" font-style="normal" 
 >7</text>
<text fill="#000000" fill-opacity="1" stroke="none" xml:space="preserve" x="507" y="302" font-family="Arial" font-size="16" font-weight="400" font-style="normal" 
 >7</text>
<text fill="#000000" fill-opacity="1" stroke="none" xml:space="preserve" x="536" y="302" font-family="Arial" font-size="16" font-weight="400" font-style="normal" 
 >7</text>
<text fill="#000000" fill-opacity="1" stroke="none" xml:space="preserve" x="478" y="340" font-family="Arial" font-size="16" font-weight="400" font-style="normal" 
 >8</text>
<text fill="#000000" fill-opacity="1" stroke="none" xml:space="preserve" x="507" y="340" font-family="Arial" font-size="16" font-weight="400" font-style="normal" 
 >8</text>
<text fill="#000000" fill-opacity="1" stroke="none" xml:space="preserve" x="536" y="340" font-family="Arial" font-size="16" font-weight="400" font-style="normal" 
 >8</text>
</g>
</g>
</svg>
