<?xml version="1.0" encoding="UTF-8" standalone="no"?>
<svg width="361.244mm" height="207.433mm"
 viewBox="0 0 1024 588"
 xmlns="http://www.w3.org/2000/svg" xmlns:xlink="http://www.w3.org/1999/xlink"  version="1.2" baseProfile="tiny">
<title>Qt Svg Document</title>
<desc>Generated with Qt</desc>
<defs>
</defs>
<g fill="none" stroke="black" stroke-width="1" fill-rule="evenodd" stroke-linecap="square" stroke-linejoin="bevel" >

<g fill="#ffffff" fill-opacity="1" stroke="none" transform="matrix(1,0,0,1,0,0)"
font-family="Helvetica" font-size="12" font-weight="400" font-style="normal" 
>
<path vector-effect="non-scaling-stroke" fill-rule="evenodd" d="M0,0 L1024,0 L1024,588 L0,588 L0,0"/>
<path vector-effect="non-scaling-stroke" fill-rule="evenodd" d="M0,0 L1024,0 L1024,588 L0,588 L0,0"/>
<path vector-effect="non-scaling-stroke" fill-rule="evenodd" d="M0,0 L1024,0 L1024,588 L0,588 L0,0"/>
<path vector-effect="non-scaling-stroke" fill-rule="evenodd" d="M187,8 L837,8 L837,580 L187,580 L187,8"/>
<path vector-effect="non-scaling-stroke" fill-rule="evenodd" d="M187,8 L837,8 L837,39 L187,39 L187,8"/>
<path vector-effect="non-scaling-stroke" fill-rule="evenodd" d="M187,39 L837,39 L837,59 L187,59 L187,39"/>
<path vector-effect="non-scaling-stroke" fill-rule="evenodd" d="M187,59 L248,59 L248,87 L187,87 L187,59"/>
<path vector-effect="non-scaling-stroke" fill-rule="evenodd" d="M248,59 L336,59 L336,87 L248,87 L248,59"/>
<path vector-effect="non-scaling-stroke" fill-rule="evenodd" d="M336,59 L420,59 L420,87 L336,87 L336,59"/>
<path vector-effect="non-scaling-stroke" fill-rule="evenodd" d="M420,59 L473,59 L473,87 L420,87 L420,59"/>
<path vector-effect="non-scaling-stroke" fill-rule="evenodd" d="M473,59 L565,59 L565,87 L473,87 L473,59"/>
<path vector-effect="non-scaling-stroke" fill-rule="evenodd" d="M565,59 L615,59 L615,87 L565,87 L565,59"/>
<path vector-effect="non-scaling-stroke" fill-rule="evenodd" d="M615,59 L751,59 L751,87 L615,87 L615,59"/>
<path vector-effect="non-scaling-stroke" fill-rule="evenodd" d="M751,59 L837,59 L837,87 L751,87 L751,59"/>
<path vector-effect="non-scaling-stroke" fill-rule="evenodd" d="M187,87 L837,87 L837,121 L187,121 L187,87"/>
<path vector-effect="non-scaling-stroke" fill-rule="evenodd" d="M187,121 L248,121 L248,156 L187,156 L187,121"/>
<path vector-effect="non-scaling-stroke" fill-rule="evenodd" d="M187,156 L248,156 L248,190 L187,190 L187,156"/>
<path vector-effect="non-scaling-stroke" fill-rule="evenodd" d="M187,190 L248,190 L248,224 L187,224 L187,190"/>
<path vector-effect="non-scaling-stroke" fill-rule="evenodd" d="M187,224 L248,224 L248,258 L187,258 L187,224"/>
<path vector-effect="non-scaling-stroke" fill-rule="evenodd" d="M187,258 L248,258 L248,292 L187,292 L187,258"/>
<path vector-effect="non-scaling-stroke" fill-rule="evenodd" d="M248,258 L336,258 L336,292 L248,292 L248,258"/>
<path vector-effect="non-scaling-stroke" fill-rule="evenodd" d="M336,258 L420,258 L420,292 L336,292 L336,258"/>
<path vector-effect="non-scaling-stroke" fill-rule="evenodd" d="M420,258 L473,258 L473,292 L420,292 L420,258"/>
<path vector-effect="non-scaling-stroke" fill-rule="evenodd" d="M473,258 L565,258 L565,292 L473,292 L473,258"/>
<path vector-effect="non-scaling-stroke" fill-rule="evenodd" d="M565,258 L615,258 L615,292 L565,292 L565,258"/>
<path vector-effect="non-scaling-stroke" fill-rule="evenodd" d="M615,258 L751,258 L751,292 L615,292 L615,258"/>
<path vector-effect="non-scaling-stroke" fill-rule="evenodd" d="M751,258 L837,258 L837,292 L751,292 L751,258"/>
<path vector-effect="non-scaling-stroke" fill-rule="evenodd" d="M187,292 L248,292 L248,326 L187,326 L187,292"/>
<path vector-effect="non-scaling-stroke" fill-rule="evenodd" d="M248,292 L336,292 L336,326 L248,326 L248,292"/>
<path vector-effect="non-scaling-stroke" fill-rule="evenodd" d="M336,292 L420,292 L420,326 L336,326 L336,292"/>
<path vector-effect="non-scaling-stroke" fill-rule="evenodd" d="M420,292 L473,292 L473,326 L420,326 L420,292"/>
<path vector-effect="non-scaling-stroke" fill-rule="evenodd" d="M473,292 L565,292 L565,326 L473,326 L473,292"/>
<path vector-effect="non-scaling-stroke" fill-rule="evenodd" d="M565,292 L615,292 L615,326 L565,326 L565,292"/>
<path vector-effect="non-scaling-stroke" fill-rule="evenodd" d="M615,292 L751,292 L751,326 L615,326 L615,292"/>
<path vector-effect="non-scaling-stroke" fill-rule="evenodd" d="M751,292 L837,292 L837,326 L751,326 L751,292"/>
<path vector-effect="non-scaling-stroke" fill-rule="evenodd" d="M187,326 L837,326 L837,360 L187,360 L187,326"/>
<path vector-effect="non-scaling-stroke" fill-rule="evenodd" d="M187,360 L248,360 L248,394 L187,394 L187,360"/>
<path vector-effect="non-scaling-stroke" fill-rule="evenodd" d="M187,394 L248,394 L248,428 L187,428 L187,394"/>
<path vector-effect="non-scaling-stroke" fill-rule="evenodd" d="M187,428 L248,428 L248,462 L187,462 L187,428"/>
<path vector-effect="non-scaling-stroke" fill-rule="evenodd" d="M187,462 L248,462 L248,496 L187,496 L187,462"/>
<path vector-effect="non-scaling-stroke" fill-rule="evenodd" d="M187,496 L248,496 L248,530 L187,530 L187,496"/>
<path vector-effect="non-scaling-stroke" fill-rule="evenodd" d="M248,496 L336,496 L336,530 L248,530 L248,496"/>
<path vector-effect="non-scaling-stroke" fill-rule="evenodd" d="M336,496 L420,496 L420,530 L336,530 L336,496"/>
<path vector-effect="non-scaling-stroke" fill-rule="evenodd" d="M420,496 L473,496 L473,530 L420,530 L420,496"/>
<path vector-effect="non-scaling-stroke" fill-rule="evenodd" d="M473,496 L565,496 L565,530 L473,530 L473,496"/>
<path vector-effect="non-scaling-stroke" fill-rule="evenodd" d="M565,496 L615,496 L615,530 L565,530 L565,496"/>
<path vector-effect="non-scaling-stroke" fill-rule="evenodd" d="M615,496 L751,496 L751,530 L615,530 L615,496"/>
<path vector-effect="non-scaling-stroke" fill-rule="evenodd" d="M751,496 L837,496 L837,530 L751,530 L751,496"/>
<path vector-effect="non-scaling-stroke" fill-rule="evenodd" d="M187,556 L837,556 L837,580 L187,580 L187,556"/>
<path vector-effect="non-scaling-stroke" fill-rule="evenodd" d="M187,530 L837,530 L837,556 L187,556 L187,530"/>
</g>

<g fill="#333333" fill-opacity="1" stroke="#333333" stroke-opacity="1" stroke-width="1" stroke-linecap="square" stroke-linejoin="bevel" transform="matrix(1,0,0,1,0,0)"
font-family="Arial" font-size="20" font-weight="400" font-style="normal" 
>
<text fill="#333333" fill-opacity="1" stroke="none" xml:space="preserve" x="423.5" y="30" font-family="Arial" font-size="20" font-weight="400" font-style="normal" 
 >The title of the table</text>
</g>

<g fill="#333333" fill-opacity="1" stroke="#333333" stroke-opacity="1" stroke-width="1" stroke-linecap="square" stroke-linejoin="bevel" transform="matrix(1,0,0,1,0,0)"
font-family="Arial" font-size="14" font-weight="400" font-style="normal" 
>
<text fill="#333333" fill-opacity="1" stroke="none" xml:space="preserve" x="452.5" y="52" font-family="Arial" font-size="14" font-weight="400" font-style="normal" 
 >The table's subtitle</text>
</g>

<g fill="#333333" fill-opacity="1" stroke="#333333" stroke-opacity="1" stroke-width="1" stroke-linecap="square" stroke-linejoin="bevel" transform="matrix(1,0,0,1,0,0)"
font-family="Arial" font-size="16" font-weight="400" font-style="normal" 
>
<text fill="#333333" fill-opacity="1" stroke="none" xml:space="preserve" x="300" y="78" font-family="Arial" font-size="16" font-weight="400" font-style="normal" 
 >num</text>
<text fill="#333333" fill-opacity="1" stroke="none" xml:space="preserve" x="341" y="78" font-family="Arial" font-size="16" font-weight="400" font-style="normal" 
 >char</text>
<text fill="#333333" fill-opacity="1" stroke="none" xml:space="preserve" x="436" y="78" font-family="Arial" font-size="16" font-weight="400" font-style="normal" 
 >fctr</text>
<text fill="#333333" fill-opacity="1" stroke="none" xml:space="preserve" x="478" y="78" font-family="Arial" font-size="16" font-weight="400" font-style="normal" 
 >date</text>
<text fill="#333333" fill-opacity="1" stroke="none" xml:space="preserve" x="570" y="78" font-family="Arial" font-size="16" font-weight="400" font-style="normal" 
 >time</text>
<text fill="#333333" fill-opacity="1" stroke="none" xml:space="preserve" x="620" y="78" font-family="Arial" font-size="16" font-weight="400" font-style="normal" 
 >datetime</text>
<text fill="#333333" fill-opacity="1" stroke="none" xml:space="preserve" x="771" y="78" font-family="Arial" font-size="16" font-weight="400" font-style="normal" 
 >currency</text>
<text fill="#333333" fill-opacity="1" stroke="none" xml:space="preserve" x="195" y="109" font-family="Arial" font-size="16" font-weight="400" font-style="normal" 
 >grp_a</text>
<text fill="#333333" fill-opacity="1" stroke="none" xml:space="preserve" x="199" y="143" font-family="Arial" font-size="16" font-weight="400" font-style="normal" 
 >row_1</text>
<text fill="#333333" fill-opacity="1" stroke="none" xml:space="preserve" x="253" y="144" font-family="Arial" font-size="16" font-weight="400" font-style="normal" 
 >1.111e-01</text>
</g>

<g fill="#333333" fill-opacity="1" stroke="#333333" stroke-opacity="1" stroke-width="1" stroke-linecap="square" stroke-linejoin="bevel" transform="matrix(1,0,0,1,0,0)"
font-family="Arial" font-size="10" font-weight="400" font-style="italic" 
>
<text fill="#333333" fill-opacity="1" stroke="none" xml:space="preserve" x="325" y="138" font-family="Arial" font-size="10" font-weight="400" font-style="italic" 
 >1</text>
</g>

<g fill="#333333" fill-opacity="1" stroke="#333333" stroke-opacity="1" stroke-width="1" stroke-linecap="square" stroke-linejoin="bevel" transform="matrix(1,0,0,1,0,0)"
font-family="Arial" font-size="16" font-weight="400" font-style="normal" 
>
<text fill="#333333" fill-opacity="1" stroke="none" xml:space="preserve" x="341" y="143" font-family="Arial" font-size="16" font-weight="400" font-style="normal" 
 >apricot</text>
<text fill="#333333" fill-opacity="1" stroke="none" xml:space="preserve" x="433" y="143" font-family="Arial" font-size="16" font-weight="400" font-style="normal" 
 >one</text>
<text fill="#333333" fill-opacity="1" stroke="none" xml:space="preserve" x="478" y="143" font-family="Arial" font-size="16" font-weight="400" font-style="normal" 
 >2015-01-15</text>
<text fill="#333333" fill-opacity="1" stroke="none" xml:space="preserve" x="570" y="143" font-family="Arial" font-size="16" font-weight="400" font-style="normal" 
 >13:35</text>
<text fill="#333333" fill-opacity="1" stroke="none" xml:space="preserve" x="620" y="143" font-family="Arial" font-size="16" font-weight="400" font-style="normal" 
 >2018-01-01 02:22</text>
<text fill="#333333" fill-opacity="1" stroke="none" xml:space="preserve" x="783" y="143" font-family="Arial" font-size="16" font-weight="400" font-style="normal" 
 >49.950</text>
<text fill="#333333" fill-opacity="1" stroke="none" xml:space="preserve" x="199" y="178" font-family="Arial" font-size="16" font-weight="400" font-style="normal" 
 >row_2</text>
<text fill="#333333" fill-opacity="1" stroke="none" xml:space="preserve" x="255" y="178" font-family="Arial" font-size="16" font-weight="400" font-style="normal" 
 >2.222e+00</text>
<text fill="#333333" fill-opacity="1" stroke="none" xml:space="preserve" x="341" y="178" font-family="Arial" font-size="16" font-weight="400" font-style="normal" 
 >banana</text>
<text fill="#333333" fill-opacity="1" stroke="none" xml:space="preserve" x="434" y="178" font-family="Arial" font-size="16" font-weight="400" font-style="normal" 
 >two</text>
<text fill="#333333" fill-opacity="1" stroke="none" xml:space="preserve" x="478" y="178" font-family="Arial" font-size="16" font-weight="400" font-style="normal" 
 >2015-02-15</text>
<text fill="#333333" fill-opacity="1" stroke="none" xml:space="preserve" x="570" y="178" font-family="Arial" font-size="16" font-weight="400" font-style="normal" 
 >14:40</text>
<text fill="#333333" fill-opacity="1" stroke="none" xml:space="preserve" x="620" y="178" font-family="Arial" font-size="16" font-weight="400" font-style="normal" 
 >2018-02-02 14:33</text>
<text fill="#333333" fill-opacity="1" stroke="none" xml:space="preserve" x="783" y="178" font-family="Arial" font-size="16" font-weight="400" font-style="normal" 
 >17.950</text>
<text fill="#333333" fill-opacity="1" stroke="none" xml:space="preserve" x="199" y="212" font-family="Arial" font-size="16" font-weight="400" font-style="normal" 
 >row_3</text>
<text fill="#333333" fill-opacity="1" stroke="none" xml:space="preserve" x="255" y="212" font-family="Arial" font-size="16" font-weight="400" font-style="normal" 
 >3.333e+01</text>
<text fill="#333333" fill-opacity="1" stroke="none" xml:space="preserve" x="341" y="212" font-family="Arial" font-size="16" font-weight="400" font-style="normal" 
 >coconut</text>
<text fill="#333333" fill-opacity="1" stroke="none" xml:space="preserve" x="428.5" y="212" font-family="Arial" font-size="16" font-weight="400" font-style="normal" 
 >three</text>
<text fill="#333333" fill-opacity="1" stroke="none" xml:space="preserve" x="478" y="212" font-family="Arial" font-size="16" font-weight="400" font-style="normal" 
 >2015-03-15</text>
<text fill="#333333" fill-opacity="1" stroke="none" xml:space="preserve" x="570" y="212" font-family="Arial" font-size="16" font-weight="400" font-style="normal" 
 >15:45</text>
<text fill="#333333" fill-opacity="1" stroke="none" xml:space="preserve" x="620" y="212" font-family="Arial" font-size="16" font-weight="400" font-style="normal" 
 >2018-03-03 03:44</text>
<text fill="#333333" fill-opacity="1" stroke="none" xml:space="preserve" x="792" y="212" font-family="Arial" font-size="16" font-weight="400" font-style="normal" 
 >1.390</text>
<text fill="#333333" fill-opacity="1" stroke="none" xml:space="preserve" x="199" y="246" font-family="Arial" font-size="16" font-weight="400" font-style="normal" 
 >row_4</text>
<text fill="#333333" fill-opacity="1" stroke="none" xml:space="preserve" x="255" y="246" font-family="Arial" font-size="16" font-weight="400" font-style="normal" 
 >4.444e+02</text>
<text fill="#333333" fill-opacity="1" stroke="none" xml:space="preserve" x="341" y="246" font-family="Arial" font-size="16" font-weight="400" font-style="normal" 
 >durian</text>
<text fill="#333333" fill-opacity="1" stroke="none" xml:space="preserve" x="433" y="246" font-family="Arial" font-size="16" font-weight="400" font-style="normal" 
 >four</text>
<text fill="#333333" fill-opacity="1" stroke="none" xml:space="preserve" x="478" y="246" font-family="Arial" font-size="16" font-weight="400" font-style="normal" 
 >2015-04-15</text>
<text fill="#333333" fill-opacity="1" stroke="none" xml:space="preserve" x="570" y="246" font-family="Arial" font-size="16" font-weight="400" font-style="normal" 
 >16:50</text>
<text fill="#333333" fill-opacity="1" stroke="none" xml:space="preserve" x="620" y="246" font-family="Arial" font-size="16" font-weight="400" font-style="normal" 
 >2018-04-04 15:55</text>
<text fill="#333333" fill-opacity="1" stroke="none" xml:space="preserve" x="756" y="246" font-family="Arial" font-size="16" font-weight="400" font-style="normal" 
 >65100.000</text>
<text fill="#333333" fill-opacity="1" stroke="none" xml:space="preserve" x="217" y="280" font-family="Arial" font-size="16" font-weight="400" font-style="normal" 
 >min</text>
<text fill="#333333" fill-opacity="1" stroke="none" xml:space="preserve" x="300" y="280" font-family="Arial" font-size="16" font-weight="400" font-style="normal" 
 >0.11</text>
<text fill="#333333" fill-opacity="1" stroke="none" xml:space="preserve" x="341" y="280" font-family="Arial" font-size="16" font-weight="400" font-style="normal" 
 >—</text>
<text fill="#333333" fill-opacity="1" stroke="none" xml:space="preserve" x="438.5" y="280" font-family="Arial" font-size="16" font-weight="400" font-style="normal" 
 >—</text>
<text fill="#333333" fill-opacity="1" stroke="none" xml:space="preserve" x="478" y="280" font-family="Arial" font-size="16" font-weight="400" font-style="normal" 
 >—</text>
<text fill="#333333" fill-opacity="1" stroke="none" xml:space="preserve" x="570" y="280" font-family="Arial" font-size="16" font-weight="400" font-style="normal" 
 >—</text>
<text fill="#333333" fill-opacity="1" stroke="none" xml:space="preserve" x="620" y="280" font-family="Arial" font-size="16" font-weight="400" font-style="normal" 
 >—</text>
<text fill="#333333" fill-opacity="1" stroke="none" xml:space="preserve" x="801" y="280" font-family="Arial" font-size="16" font-weight="400" font-style="normal" 
 >1.39</text>
<text fill="#333333" fill-opacity="1" stroke="none" xml:space="preserve" x="213" y="314" font-family="Arial" font-size="16" font-weight="400" font-style="normal" 
 >max</text>
<text fill="#333333" fill-opacity="1" stroke="none" xml:space="preserve" x="282" y="314" font-family="Arial" font-size="16" font-weight="400" font-style="normal" 
 >444.40</text>
<text fill="#333333" fill-opacity="1" stroke="none" xml:space="preserve" x="341" y="314" font-family="Arial" font-size="16" font-weight="400" font-style="normal" 
 >—</text>
<text fill="#333333" fill-opacity="1" stroke="none" xml:space="preserve" x="438.5" y="314" font-family="Arial" font-size="16" font-weight="400" font-style="normal" 
 >—</text>
<text fill="#333333" fill-opacity="1" stroke="none" xml:space="preserve" x="478" y="314" font-family="Arial" font-size="16" font-weight="400" font-style="normal" 
 >—</text>
<text fill="#333333" fill-opacity="1" stroke="none" xml:space="preserve" x="570" y="314" font-family="Arial" font-size="16" font-weight="400" font-style="normal" 
 >—</text>
<text fill="#333333" fill-opacity="1" stroke="none" xml:space="preserve" x="620" y="314" font-family="Arial" font-size="16" font-weight="400" font-style="normal" 
 >—</text>
<text fill="#333333" fill-opacity="1" stroke="none" xml:space="preserve" x="761" y="314" font-family="Arial" font-size="16" font-weight="400" font-style="normal" 
 >65,100.00</text>
<text fill="#333333" fill-opacity="1" stroke="none" xml:space="preserve" x="195" y="348" font-family="Arial" font-size="16" font-weight="400" font-style="normal" 
 >grp_b</text>
<text fill="#333333" fill-opacity="1" stroke="none" xml:space="preserve" x="199" y="382" font-family="Arial" font-size="16" font-weight="400" font-style="normal" 
 >row_5</text>
<text fill="#333333" fill-opacity="1" stroke="none" xml:space="preserve" x="255" y="382" font-family="Arial" font-size="16" font-weight="400" font-style="normal" 
 >5.550e+03</text>
<text fill="#333333" fill-opacity="1" stroke="none" xml:space="preserve" x="341" y="382" font-family="Arial" font-size="16" font-weight="400" font-style="normal" 
 >NA</text>
<text fill="#333333" fill-opacity="1" stroke="none" xml:space="preserve" x="434" y="382" font-family="Arial" font-size="16" font-weight="400" font-style="normal" 
 >five</text>
<text fill="#333333" fill-opacity="1" stroke="none" xml:space="preserve" x="478" y="382" font-family="Arial" font-size="16" font-weight="400" font-style="normal" 
 >2015-05-15</text>
<text fill="#333333" fill-opacity="1" stroke="none" xml:space="preserve" x="570" y="382" font-family="Arial" font-size="16" font-weight="400" font-style="normal" 
 >17:55</text>
<text fill="#333333" fill-opacity="1" stroke="none" xml:space="preserve" x="620" y="382" font-family="Arial" font-size="16" font-weight="400" font-style="normal" 
 >2018-05-05 04:00</text>
<text fill="#333333" fill-opacity="1" stroke="none" xml:space="preserve" x="765" y="382" font-family="Arial" font-size="16" font-weight="400" font-style="normal" 
 >1325.810</text>
<text fill="#333333" fill-opacity="1" stroke="none" xml:space="preserve" x="199" y="416" font-family="Arial" font-size="16" font-weight="400" font-style="normal" 
 >row_6</text>
<text fill="#333333" fill-opacity="1" stroke="none" xml:space="preserve" x="308" y="416" font-family="Arial" font-size="16" font-weight="400" font-style="normal" 
 >NA</text>
<text fill="#333333" fill-opacity="1" stroke="none" xml:space="preserve" x="341" y="416" font-family="Arial" font-size="16" font-weight="400" font-style="normal" 
 >fig</text>
<text fill="#333333" fill-opacity="1" stroke="none" xml:space="preserve" x="436.5" y="416" font-family="Arial" font-size="16" font-weight="400" font-style="normal" 
 >six</text>
<text fill="#333333" fill-opacity="1" stroke="none" xml:space="preserve" x="478" y="416" font-family="Arial" font-size="16" font-weight="400" font-style="normal" 
 >2015-06-15</text>
<text fill="#333333" fill-opacity="1" stroke="none" xml:space="preserve" x="570" y="416" font-family="Arial" font-size="16" font-weight="400" font-style="normal" 
 >NA</text>
<text fill="#333333" fill-opacity="1" stroke="none" xml:space="preserve" x="620" y="416" font-family="Arial" font-size="16" font-weight="400" font-style="normal" 
 >2018-06-06 16:11</text>
<text fill="#333333" fill-opacity="1" stroke="none" xml:space="preserve" x="783" y="416" font-family="Arial" font-size="16" font-weight="400" font-style="normal" 
 >13.255</text>
<text fill="#333333" fill-opacity="1" stroke="none" xml:space="preserve" x="199" y="450" font-family="Arial" font-size="16" font-weight="400" font-style="normal" 
 >row_7</text>
<text fill="#333333" fill-opacity="1" stroke="none" xml:space="preserve" x="255" y="450" font-family="Arial" font-size="16" font-weight="400" font-style="normal" 
 >7.770e+05</text>
<text fill="#333333" fill-opacity="1" stroke="none" xml:space="preserve" x="341" y="450" font-family="Arial" font-size="16" font-weight="400" font-style="normal" 
 >grapefruit</text>
<text fill="#333333" fill-opacity="1" stroke="none" xml:space="preserve" x="425" y="450" font-family="Arial" font-size="16" font-weight="400" font-style="normal" 
 >seven</text>
<text fill="#333333" fill-opacity="1" stroke="none" xml:space="preserve" x="478" y="450" font-family="Arial" font-size="16" font-weight="400" font-style="normal" 
 >NA</text>
<text fill="#333333" fill-opacity="1" stroke="none" xml:space="preserve" x="570" y="450" font-family="Arial" font-size="16" font-weight="400" font-style="normal" 
 >19:10</text>
<text fill="#333333" fill-opacity="1" stroke="none" xml:space="preserve" x="620" y="450" font-family="Arial" font-size="16" font-weight="400" font-style="normal" 
 >2018-07-07 05:22</text>
<text fill="#333333" fill-opacity="1" stroke="none" xml:space="preserve" x="809" y="450" font-family="Arial" font-size="16" font-weight="400" font-style="normal" 
 >NA</text>
<text fill="#333333" fill-opacity="1" stroke="none" xml:space="preserve" x="199" y="484" font-family="Arial" font-size="16" font-weight="400" font-style="normal" 
 >row_8</text>
<text fill="#333333" fill-opacity="1" stroke="none" xml:space="preserve" x="255" y="484" font-family="Arial" font-size="16" font-weight="400" font-style="normal" 
 >8.880e+06</text>
<text fill="#333333" fill-opacity="1" stroke="none" xml:space="preserve" x="341" y="484" font-family="Arial" font-size="16" font-weight="400" font-style="normal" 
 >honeydew</text>
<text fill="#333333" fill-opacity="1" stroke="none" xml:space="preserve" x="429" y="484" font-family="Arial" font-size="16" font-weight="400" font-style="normal" 
 >eight</text>
<text fill="#333333" fill-opacity="1" stroke="none" xml:space="preserve" x="478" y="484" font-family="Arial" font-size="16" font-weight="400" font-style="normal" 
 >2015-08-15</text>
<text fill="#333333" fill-opacity="1" stroke="none" xml:space="preserve" x="570" y="484" font-family="Arial" font-size="16" font-weight="400" font-style="normal" 
 >20:20</text>
<text fill="#333333" fill-opacity="1" stroke="none" xml:space="preserve" x="620" y="484" font-family="Arial" font-size="16" font-weight="400" font-style="normal" 
 >NA</text>
<text fill="#333333" fill-opacity="1" stroke="none" xml:space="preserve" x="792" y="484" font-family="Arial" font-size="16" font-weight="400" font-style="normal" 
 >0.440</text>
<text fill="#333333" fill-opacity="1" stroke="none" xml:space="preserve" x="213" y="518" font-family="Arial" font-size="16" font-weight="400" font-style="normal" 
 >total</text>
<text fill="#333333" fill-opacity="1" stroke="none" xml:space="preserve" x="315" y="518" font-family="Arial" font-size="16" font-weight="400" font-style="normal" 
 >—</text>
<text fill="#333333" fill-opacity="1" stroke="none" xml:space="preserve" x="341" y="518" font-family="Arial" font-size="16" font-weight="400" font-style="normal" 
 >—</text>
<text fill="#333333" fill-opacity="1" stroke="none" xml:space="preserve" x="438.5" y="518" font-family="Arial" font-size="16" font-weight="400" font-style="normal" 
 >—</text>
<text fill="#333333" fill-opacity="1" stroke="none" xml:space="preserve" x="478" y="518" font-family="Arial" font-size="16" font-weight="400" font-style="normal" 
 >—</text>
<text fill="#333333" fill-opacity="1" stroke="none" xml:space="preserve" x="570" y="518" font-family="Arial" font-size="16" font-weight="400" font-style="normal" 
 >—</text>
<text fill="#333333" fill-opacity="1" stroke="none" xml:space="preserve" x="620" y="518" font-family="Arial" font-size="16" font-weight="400" font-style="normal" 
 >—</text>
<text fill="#333333" fill-opacity="1" stroke="none" xml:space="preserve" x="761" y="518" font-family="Arial" font-size="16" font-weight="400" font-style="normal" 
 >66,508.79</text>
</g>

<g fill="#333333" fill-opacity="1" stroke="#333333" stroke-opacity="1" stroke-width="1" stroke-linecap="square" stroke-linejoin="bevel" transform="matrix(1,0,0,1,0,0)"
font-family="Arial" font-size="14" font-weight="400" font-style="normal" 
>
<text fill="#333333" fill-opacity="1" stroke="none" xml:space="preserve" x="191" y="573" font-family="Arial" font-size="14" font-weight="400" font-style="normal" 
 >This is a source note.</text>
</g>

<g fill="#333333" fill-opacity="1" stroke="#333333" stroke-opacity="1" stroke-width="1" stroke-linecap="square" stroke-linejoin="bevel" transform="matrix(1,0,0,1,0,0)"
font-family="Arial" font-size="9" font-weight="400" font-style="italic" 
>
<text fill="#333333" fill-opacity="1" stroke="none" xml:space="preserve" x="192" y="543" font-family="Arial" font-size="9" font-weight="400" font-style="italic" 
 >1</text>
<text fill="#333333" fill-opacity="1" stroke="none" xml:space="preserve" x="197" y="543" font-family="Arial" font-size="9" font-weight="400" font-style="italic" 
 > </text>
</g>

<g fill="#333333" fill-opacity="1" stroke="#333333" stroke-opacity="1" stroke-width="1" stroke-linecap="square" stroke-linejoin="bevel" transform="matrix(1,0,0,1,0,0)"
font-family="Arial" font-size="14" font-weight="400" font-style="normal" 
>
<text fill="#333333" fill-opacity="1" stroke="none" xml:space="preserve" x="200" y="548" font-family="Arial" font-size="14" font-weight="400" font-style="normal" 
 >This is a footnote. </text>
</g>
</g>
</svg>
