<?xml version="1.0" encoding="UTF-8" standalone="no"?>
<svg width="361.244mm" height="154.517mm"
 viewBox="0 0 1024 438"
 xmlns="http://www.w3.org/2000/svg" xmlns:xlink="http://www.w3.org/1999/xlink"  version="1.2" baseProfile="tiny">
<title>Qt Svg Document</title>
<desc>Generated with Qt</desc>
<defs>
</defs>
<g fill="none" stroke="black" stroke-width="1" fill-rule="evenodd" stroke-linecap="square" stroke-linejoin="bevel" >

<g fill="#ffffff" fill-opacity="1" stroke="none" transform="matrix(1,0,0,1,0,0)"
font-family="Helvetica" font-size="12" font-weight="400" font-style="normal" 
>
<path vector-effect="non-scaling-stroke" fill-rule="evenodd" d="M0,0 L1024,0 L1024,438 L0,438 L0,0"/>
<path vector-effect="non-scaling-stroke" fill-rule="evenodd" d="M0,0 L1024,0 L1024,438 L0,438 L0,0"/>
<path vector-effect="non-scaling-stroke" fill-rule="evenodd" d="M0,0 L1024,0 L1024,438 L0,438 L0,0"/>
<path vector-effect="non-scaling-stroke" fill-rule="evenodd" d="M383,8 L641,8 L641,430 L383,430 L383,8"/>
<path vector-effect="non-scaling-stroke" fill-rule="evenodd" d="M383,9 L450,9 L450,49 L383,49 L383,9"/>
<path vector-effect="non-scaling-stroke" fill-rule="evenodd" d="M450,9 L545,9 L545,49 L450,49 L450,9"/>
<path vector-effect="non-scaling-stroke" fill-rule="evenodd" d="M545,9 L641,9 L641,49 L545,49 L545,9"/>
<path vector-effect="non-scaling-stroke" fill-rule="evenodd" d="M383,49 L641,49 L641,85 L383,85 L383,49"/>
</g>

<g fill="#f2f2f2" fill-opacity="1" stroke="none" transform="matrix(1,0,0,1,0,0)"
font-family="Helvetica" font-size="12" font-weight="400" font-style="normal" 
>
<path vector-effect="non-scaling-stroke" fill-rule="evenodd" d="M383,85 L450,85 L450,124 L383,124 L383,85"/>
</g>

<g fill="#ffffff" fill-opacity="1" stroke="none" transform="matrix(1,0,0,1,0,0)"
font-family="Helvetica" font-size="12" font-weight="400" font-style="normal" 
>
<path vector-effect="non-scaling-stroke" fill-rule="evenodd" d="M383,85 L450,85 L450,124 L383,124 L383,85"/>
</g>

<g fill="#f2f2f2" fill-opacity="1" stroke="none" transform="matrix(1,0,0,1,0,0)"
font-family="Helvetica" font-size="12" font-weight="400" font-style="normal" 
>
<path vector-effect="non-scaling-stroke" fill-rule="evenodd" d="M450,85 L545,85 L545,124 L450,124 L450,85"/>
<path vector-effect="non-scaling-stroke" fill-rule="evenodd" d="M545,85 L641,85 L641,124 L545,124 L545,85"/>
</g>

<g fill="#ffffff" fill-opacity="1" stroke="none" transform="matrix(1,0,0,1,0,0)"
font-family="Helvetica" font-size="12" font-weight="400" font-style="normal" 
>
<path vector-effect="non-scaling-stroke" fill-rule="evenodd" d="M383,124 L450,124 L450,162 L383,162 L383,124"/>
</g>

<g fill="#f2f2f2" fill-opacity="1" stroke="none" transform="matrix(1,0,0,1,0,0)"
font-family="Helvetica" font-size="12" font-weight="400" font-style="normal" 
>
<path vector-effect="non-scaling-stroke" fill-rule="evenodd" d="M383,162 L450,162 L450,200 L383,200 L383,162"/>
</g>

<g fill="#ffffff" fill-opacity="1" stroke="none" transform="matrix(1,0,0,1,0,0)"
font-family="Helvetica" font-size="12" font-weight="400" font-style="normal" 
>
<path vector-effect="non-scaling-stroke" fill-rule="evenodd" d="M383,162 L450,162 L450,200 L383,200 L383,162"/>
</g>

<g fill="#f2f2f2" fill-opacity="1" stroke="none" transform="matrix(1,0,0,1,0,0)"
font-family="Helvetica" font-size="12" font-weight="400" font-style="normal" 
>
<path vector-effect="non-scaling-stroke" fill-rule="evenodd" d="M450,162 L545,162 L545,200 L450,200 L450,162"/>
<path vector-effect="non-scaling-stroke" fill-rule="evenodd" d="M545,162 L641,162 L641,200 L545,200 L545,162"/>
</g>

<g fill="#ffffff" fill-opacity="1" stroke="none" transform="matrix(1,0,0,1,0,0)"
font-family="Helvetica" font-size="12" font-weight="400" font-style="normal" 
>
<path vector-effect="non-scaling-stroke" fill-rule="evenodd" d="M383,200 L450,200 L450,239 L383,239 L383,200"/>
</g>

<g fill="#f2f2f2" fill-opacity="1" stroke="none" transform="matrix(1,0,0,1,0,0)"
font-family="Helvetica" font-size="12" font-weight="400" font-style="normal" 
>
<path vector-effect="non-scaling-stroke" fill-rule="evenodd" d="M383,239 L641,239 L641,275 L383,275 L383,239"/>
</g>

<g fill="#ffffff" fill-opacity="1" stroke="none" transform="matrix(1,0,0,1,0,0)"
font-family="Helvetica" font-size="12" font-weight="400" font-style="normal" 
>
<path vector-effect="non-scaling-stroke" fill-rule="evenodd" d="M383,239 L641,239 L641,275 L383,275 L383,239"/>
<path vector-effect="non-scaling-stroke" fill-rule="evenodd" d="M383,275 L450,275 L450,314 L383,314 L383,275"/>
</g>

<g fill="#f2f2f2" fill-opacity="1" stroke="none" transform="matrix(1,0,0,1,0,0)"
font-family="Helvetica" font-size="12" font-weight="400" font-style="normal" 
>
<path vector-effect="non-scaling-stroke" fill-rule="evenodd" d="M383,314 L450,314 L450,352 L383,352 L383,314"/>
</g>

<g fill="#ffffff" fill-opacity="1" stroke="none" transform="matrix(1,0,0,1,0,0)"
font-family="Helvetica" font-size="12" font-weight="400" font-style="normal" 
>
<path vector-effect="non-scaling-stroke" fill-rule="evenodd" d="M383,314 L450,314 L450,352 L383,352 L383,314"/>
</g>

<g fill="#f2f2f2" fill-opacity="1" stroke="none" transform="matrix(1,0,0,1,0,0)"
font-family="Helvetica" font-size="12" font-weight="400" font-style="normal" 
>
<path vector-effect="non-scaling-stroke" fill-rule="evenodd" d="M450,314 L545,314 L545,352 L450,352 L450,314"/>
<path vector-effect="non-scaling-stroke" fill-rule="evenodd" d="M545,314 L641,314 L641,352 L545,352 L545,314"/>
</g>

<g fill="#ffffff" fill-opacity="1" stroke="none" transform="matrix(1,0,0,1,0,0)"
font-family="Helvetica" font-size="12" font-weight="400" font-style="normal" 
>
<path vector-effect="non-scaling-stroke" fill-rule="evenodd" d="M383,352 L450,352 L450,390 L383,390 L383,352"/>
</g>

<g fill="#f2f2f2" fill-opacity="1" stroke="none" transform="matrix(1,0,0,1,0,0)"
font-family="Helvetica" font-size="12" font-weight="400" font-style="normal" 
>
<path vector-effect="non-scaling-stroke" fill-rule="evenodd" d="M383,390 L450,390 L450,429 L383,429 L383,390"/>
</g>

<g fill="#ffffff" fill-opacity="1" stroke="none" transform="matrix(1,0,0,1,0,0)"
font-family="Helvetica" font-size="12" font-weight="400" font-style="normal" 
>
<path vector-effect="non-scaling-stroke" fill-rule="evenodd" d="M383,390 L450,390 L450,429 L383,429 L383,390"/>
</g>

<g fill="#f2f2f2" fill-opacity="1" stroke="none" transform="matrix(1,0,0,1,0,0)"
font-family="Helvetica" font-size="12" font-weight="400" font-style="normal" 
>
<path vector-effect="non-scaling-stroke" fill-rule="evenodd" d="M450,390 L545,390 L545,429 L450,429 L450,390"/>
<path vector-effect="non-scaling-stroke" fill-rule="evenodd" d="M545,390 L641,390 L641,429 L545,429 L545,390"/>
</g>

<g fill="#a8a8a8" fill-opacity="1" stroke="none" transform="matrix(1,0,0,1,0,0)"
font-family="Helvetica" font-size="12" font-weight="400" font-style="normal" 
>
<path vector-effect="non-scaling-stroke" fill-rule="evenodd" d="M383,8 L450,8 L450,10 L383,10 L383,8"/>
<path vector-effect="non-scaling-stroke" fill-rule="evenodd" d="M450,8 L545,8 L545,10 L450,10 L450,8"/>
<path vector-effect="non-scaling-stroke" fill-rule="evenodd" d="M545,8 L641,8 L641,10 L545,10 L545,8"/>
<path vector-effect="non-scaling-stroke" fill-rule="evenodd" d="M383,428 L451,428 L451,430 L383,430 L383,428"/>
<path vector-effect="non-scaling-stroke" fill-rule="evenodd" d="M449,428 L545,428 L545,430 L449,430 L449,428"/>
<path vector-effect="non-scaling-stroke" fill-rule="evenodd" d="M545,428 L641,428 L641,430 L545,430 L545,428"/>
<path vector-effect="non-scaling-stroke" fill-rule="evenodd" d="M383,48 L450,48 L450,50 L383,50 L383,48"/>
<path vector-effect="non-scaling-stroke" fill-rule="evenodd" d="M450,48 L545,48 L545,50 L450,50 L450,48"/>
<path vector-effect="non-scaling-stroke" fill-rule="evenodd" d="M545,48 L641,48 L641,50 L545,50 L545,48"/>
<path vector-effect="non-scaling-stroke" fill-rule="evenodd" d="M383,48 L641,48 L641,50 L383,50 L383,48"/>
<path vector-effect="non-scaling-stroke" fill-rule="evenodd" d="M383,84 L641,84 L641,86 L383,86 L383,84"/>
<path vector-effect="non-scaling-stroke" fill-rule="evenodd" d="M383,84 L451,84 L451,86 L383,86 L383,84"/>
<path vector-effect="non-scaling-stroke" fill-rule="evenodd" d="M449,84 L451,84 L451,124 L449,124 L449,84"/>
<path vector-effect="non-scaling-stroke" fill-rule="evenodd" d="M449,84 L545,84 L545,86 L449,86 L449,84"/>
<path vector-effect="non-scaling-stroke" fill-rule="evenodd" d="M449,84 L451,84 L451,124 L449,124 L449,84"/>
<path vector-effect="non-scaling-stroke" fill-rule="evenodd" d="M545,84 L641,84 L641,86 L545,86 L545,84"/>
<path vector-effect="non-scaling-stroke" fill-rule="evenodd" d="M449,124 L451,124 L451,162 L449,162 L449,124"/>
<path vector-effect="non-scaling-stroke" fill-rule="evenodd" d="M449,124 L451,124 L451,162 L449,162 L449,124"/>
<path vector-effect="non-scaling-stroke" fill-rule="evenodd" d="M449,162 L451,162 L451,200 L449,200 L449,162"/>
<path vector-effect="non-scaling-stroke" fill-rule="evenodd" d="M449,162 L451,162 L451,200 L449,200 L449,162"/>
<path vector-effect="non-scaling-stroke" fill-rule="evenodd" d="M383,238 L451,238 L451,240 L383,240 L383,238"/>
<path vector-effect="non-scaling-stroke" fill-rule="evenodd" d="M449,200 L451,200 L451,240 L449,240 L449,200"/>
<path vector-effect="non-scaling-stroke" fill-rule="evenodd" d="M449,238 L545,238 L545,240 L449,240 L449,238"/>
<path vector-effect="non-scaling-stroke" fill-rule="evenodd" d="M449,200 L451,200 L451,240 L449,240 L449,200"/>
<path vector-effect="non-scaling-stroke" fill-rule="evenodd" d="M545,238 L641,238 L641,240 L545,240 L545,238"/>
<path vector-effect="non-scaling-stroke" fill-rule="evenodd" d="M383,238 L641,238 L641,240 L383,240 L383,238"/>
<path vector-effect="non-scaling-stroke" fill-rule="evenodd" d="M383,274 L641,274 L641,276 L383,276 L383,274"/>
<path vector-effect="non-scaling-stroke" fill-rule="evenodd" d="M383,274 L451,274 L451,276 L383,276 L383,274"/>
<path vector-effect="non-scaling-stroke" fill-rule="evenodd" d="M449,274 L451,274 L451,314 L449,314 L449,274"/>
<path vector-effect="non-scaling-stroke" fill-rule="evenodd" d="M449,274 L545,274 L545,276 L449,276 L449,274"/>
<path vector-effect="non-scaling-stroke" fill-rule="evenodd" d="M449,274 L451,274 L451,314 L449,314 L449,274"/>
<path vector-effect="non-scaling-stroke" fill-rule="evenodd" d="M545,274 L641,274 L641,276 L545,276 L545,274"/>
<path vector-effect="non-scaling-stroke" fill-rule="evenodd" d="M449,314 L451,314 L451,352 L449,352 L449,314"/>
<path vector-effect="non-scaling-stroke" fill-rule="evenodd" d="M449,314 L451,314 L451,352 L449,352 L449,314"/>
<path vector-effect="non-scaling-stroke" fill-rule="evenodd" d="M449,352 L451,352 L451,390 L449,390 L449,352"/>
<path vector-effect="non-scaling-stroke" fill-rule="evenodd" d="M449,352 L451,352 L451,390 L449,390 L449,352"/>
<path vector-effect="non-scaling-stroke" fill-rule="evenodd" d="M449,390 L451,390 L451,430 L449,430 L449,390"/>
<path vector-effect="non-scaling-stroke" fill-rule="evenodd" d="M449,390 L451,390 L451,430 L449,430 L449,390"/>
</g>

<g fill="#000000" fill-opacity="1" stroke="#000000" stroke-opacity="1" stroke-width="1" stroke-linecap="square" stroke-linejoin="bevel" transform="matrix(1,0,0,1,0,0)"
font-family="Arial" font-size="16" font-weight="400" font-style="normal" 
>
<text fill="#000000" fill-opacity="1" stroke="none" xml:space="preserve" x="460" y="34" font-family="Arial" font-size="16" font-weight="400" font-style="normal" 
 >char</text>
<text fill="#000000" fill-opacity="1" stroke="none" xml:space="preserve" x="570" y="34" font-family="Arial" font-size="16" font-weight="400" font-style="normal" 
 >currency</text>
<text fill="#000000" fill-opacity="1" stroke="none" xml:space="preserve" x="391" y="72" font-family="Arial" font-size="16" font-weight="400" font-style="normal" 
 >grp_b</text>
<text fill="#000000" fill-opacity="1" stroke="none" xml:space="preserve" x="395" y="110" font-family="Arial" font-size="16" font-weight="400" font-style="normal" 
 >row_5</text>
<text fill="#000000" fill-opacity="1" stroke="none" xml:space="preserve" x="461" y="110" font-family="Arial" font-size="16" font-weight="400" font-style="normal" 
 >NA</text>
<text fill="#000000" fill-opacity="1" stroke="none" xml:space="preserve" x="564" y="110" font-family="Arial" font-size="16" font-weight="400" font-style="normal" 
 >1325.810</text>
<text fill="#000000" fill-opacity="1" stroke="none" xml:space="preserve" x="395" y="148" font-family="Arial" font-size="16" font-weight="400" font-style="normal" 
 >row_6</text>
<text fill="#000000" fill-opacity="1" stroke="none" xml:space="preserve" x="461" y="148" font-family="Arial" font-size="16" font-weight="400" font-style="normal" 
 >fig</text>
<text fill="#000000" fill-opacity="1" stroke="none" xml:space="preserve" x="582" y="148" font-family="Arial" font-size="16" font-weight="400" font-style="normal" 
 >13.255</text>
<text fill="#000000" fill-opacity="1" stroke="none" xml:space="preserve" x="395" y="186" font-family="Arial" font-size="16" font-weight="400" font-style="normal" 
 >row_7</text>
<text fill="#000000" fill-opacity="1" stroke="none" xml:space="preserve" x="461" y="186" font-family="Arial" font-size="16" font-weight="400" font-style="normal" 
 >grapefruit</text>
<text fill="#000000" fill-opacity="1" stroke="none" xml:space="preserve" x="608" y="186" font-family="Arial" font-size="16" font-weight="400" font-style="normal" 
 >NA</text>
<text fill="#000000" fill-opacity="1" stroke="none" xml:space="preserve" x="395" y="224" font-family="Arial" font-size="16" font-weight="400" font-style="normal" 
 >row_8</text>
<text fill="#000000" fill-opacity="1" stroke="none" xml:space="preserve" x="461" y="224" font-family="Arial" font-size="16" font-weight="400" font-style="normal" 
 >honeydew</text>
<text fill="#000000" fill-opacity="1" stroke="none" xml:space="preserve" x="591" y="224" font-family="Arial" font-size="16" font-weight="400" font-style="normal" 
 >0.440</text>
<text fill="#000000" fill-opacity="1" stroke="none" xml:space="preserve" x="391" y="262" font-family="Arial" font-size="16" font-weight="400" font-style="normal" 
 >grp_a</text>
<text fill="#000000" fill-opacity="1" stroke="none" xml:space="preserve" x="395" y="300" font-family="Arial" font-size="16" font-weight="400" font-style="normal" 
 >row_1</text>
<text fill="#000000" fill-opacity="1" stroke="none" xml:space="preserve" x="461" y="300" font-family="Arial" font-size="16" font-weight="400" font-style="normal" 
 >apricot</text>
<text fill="#000000" fill-opacity="1" stroke="none" xml:space="preserve" x="582" y="300" font-family="Arial" font-size="16" font-weight="400" font-style="normal" 
 >49.950</text>
<text fill="#000000" fill-opacity="1" stroke="none" xml:space="preserve" x="395" y="338" font-family="Arial" font-size="16" font-weight="400" font-style="normal" 
 >row_2</text>
<text fill="#000000" fill-opacity="1" stroke="none" xml:space="preserve" x="461" y="338" font-family="Arial" font-size="16" font-weight="400" font-style="normal" 
 >banana</text>
<text fill="#000000" fill-opacity="1" stroke="none" xml:space="preserve" x="582" y="338" font-family="Arial" font-size="16" font-weight="400" font-style="normal" 
 >17.950</text>
<text fill="#000000" fill-opacity="1" stroke="none" xml:space="preserve" x="395" y="376" font-family="Arial" font-size="16" font-weight="400" font-style="normal" 
 >row_3</text>
<text fill="#000000" fill-opacity="1" stroke="none" xml:space="preserve" x="461" y="376" font-family="Arial" font-size="16" font-weight="400" font-style="normal" 
 >coconut</text>
<text fill="#000000" fill-opacity="1" stroke="none" xml:space="preserve" x="591" y="376" font-family="Arial" font-size="16" font-weight="400" font-style="normal" 
 >1.390</text>
<text fill="#000000" fill-opacity="1" stroke="none" xml:space="preserve" x="395" y="414" font-family="Arial" font-size="16" font-weight="400" font-style="normal" 
 >row_4</text>
<text fill="#000000" fill-opacity="1" stroke="none" xml:space="preserve" x="461" y="414" font-family="Arial" font-size="16" font-weight="400" font-style="normal" 
 >durian</text>
<text fill="#000000" fill-opacity="1" stroke="none" xml:space="preserve" x="555" y="414" font-family="Arial" font-size="16" font-weight="400" font-style="normal" 
 >65100.000</text>
</g>
</g>
</svg>
