<?xml version="1.0" encoding="UTF-8" standalone="no"?>
<svg width="361.244mm" height="116.064mm"
 viewBox="0 0 1024 329"
 xmlns="http://www.w3.org/2000/svg" xmlns:xlink="http://www.w3.org/1999/xlink"  version="1.2" baseProfile="tiny">
<title>Qt Svg Document</title>
<desc>Generated with Qt</desc>
<defs>
</defs>
<g fill="none" stroke="black" stroke-width="1" fill-rule="evenodd" stroke-linecap="square" stroke-linejoin="bevel" >

<g fill="#ffffff" fill-opacity="1" stroke="none" transform="matrix(1,0,0,1,0,0)"
font-family="Helvetica" font-size="12" font-weight="400" font-style="normal" 
>
<path vector-effect="non-scaling-stroke" fill-rule="evenodd" d="M0,0 L1024,0 L1024,329 L0,329 L0,0"/>
<path vector-effect="non-scaling-stroke" fill-rule="evenodd" d="M0,0 L1024,0 L1024,329 L0,329 L0,0"/>
<path vector-effect="non-scaling-stroke" fill-rule="evenodd" d="M0,0 L1024,0 L1024,329 L0,329 L0,0"/>
<path vector-effect="non-scaling-stroke" fill-rule="evenodd" d="M422,8 L602,8 L602,321 L422,321 L422,8"/>
</g>

<g fill="#add8e6" fill-opacity="1" stroke="none" transform="matrix(1,0,0,1,0,0)"
font-family="Helvetica" font-size="12" font-weight="400" font-style="normal" 
>
<path vector-effect="non-scaling-stroke" fill-rule="evenodd" d="M422,9 L502,9 L502,39 L422,39 L422,9"/>
</g>

<g fill="#ffffff" fill-opacity="1" stroke="none" transform="matrix(1,0,0,1,0,0)"
font-family="Helvetica" font-size="12" font-weight="400" font-style="normal" 
>
<path vector-effect="non-scaling-stroke" fill-rule="evenodd" d="M502,9 L556,9 L556,39 L502,39 L502,9"/>
<path vector-effect="non-scaling-stroke" fill-rule="evenodd" d="M556,9 L602,9 L602,39 L556,39 L556,9"/>
<path vector-effect="non-scaling-stroke" fill-rule="evenodd" d="M422,39 L502,39 L502,74 L422,74 L422,39"/>
<path vector-effect="non-scaling-stroke" fill-rule="evenodd" d="M422,74 L502,74 L502,109 L422,109 L422,74"/>
</g>

<g fill="#808080" fill-opacity="0.0470588" stroke="none" transform="matrix(1,0,0,1,0,0)"
font-family="Helvetica" font-size="12" font-weight="400" font-style="normal" 
>
<path vector-effect="non-scaling-stroke" fill-rule="evenodd" d="M502,74 L556,74 L556,109 L502,109 L502,74"/>
<path vector-effect="non-scaling-stroke" fill-rule="evenodd" d="M556,74 L602,74 L602,109 L556,109 L556,74"/>
</g>

<g fill="#ffffff" fill-opacity="1" stroke="none" transform="matrix(1,0,0,1,0,0)"
font-family="Helvetica" font-size="12" font-weight="400" font-style="normal" 
>
<path vector-effect="non-scaling-stroke" fill-rule="evenodd" d="M422,109 L502,109 L502,144 L422,144 L422,109"/>
<path vector-effect="non-scaling-stroke" fill-rule="evenodd" d="M422,144 L502,144 L502,179 L422,179 L422,144"/>
</g>

<g fill="#808080" fill-opacity="0.0470588" stroke="none" transform="matrix(1,0,0,1,0,0)"
font-family="Helvetica" font-size="12" font-weight="400" font-style="normal" 
>
<path vector-effect="non-scaling-stroke" fill-rule="evenodd" d="M502,144 L556,144 L556,179 L502,179 L502,144"/>
<path vector-effect="non-scaling-stroke" fill-rule="evenodd" d="M556,144 L602,144 L602,179 L556,179 L556,144"/>
</g>

<g fill="#ffffff" fill-opacity="1" stroke="none" transform="matrix(1,0,0,1,0,0)"
font-family="Helvetica" font-size="12" font-weight="400" font-style="normal" 
>
<path vector-effect="non-scaling-stroke" fill-rule="evenodd" d="M422,179 L502,179 L502,214 L422,214 L422,179"/>
<path vector-effect="non-scaling-stroke" fill-rule="evenodd" d="M422,214 L502,214 L502,249 L422,249 L422,214"/>
</g>

<g fill="#808080" fill-opacity="0.0470588" stroke="none" transform="matrix(1,0,0,1,0,0)"
font-family="Helvetica" font-size="12" font-weight="400" font-style="normal" 
>
<path vector-effect="non-scaling-stroke" fill-rule="evenodd" d="M502,214 L556,214 L556,249 L502,249 L502,214"/>
<path vector-effect="non-scaling-stroke" fill-rule="evenodd" d="M556,214 L602,214 L602,249 L556,249 L556,214"/>
</g>

<g fill="#ffffff" fill-opacity="1" stroke="none" transform="matrix(1,0,0,1,0,0)"
font-family="Helvetica" font-size="12" font-weight="400" font-style="normal" 
>
<path vector-effect="non-scaling-stroke" fill-rule="evenodd" d="M422,249 L502,249 L502,284 L422,284 L422,249"/>
<path vector-effect="non-scaling-stroke" fill-rule="evenodd" d="M422,284 L502,284 L502,320 L422,320 L422,284"/>
</g>

<g fill="#808080" fill-opacity="0.0470588" stroke="none" transform="matrix(1,0,0,1,0,0)"
font-family="Helvetica" font-size="12" font-weight="400" font-style="normal" 
>
<path vector-effect="non-scaling-stroke" fill-rule="evenodd" d="M502,284 L556,284 L556,320 L502,320 L502,284"/>
<path vector-effect="non-scaling-stroke" fill-rule="evenodd" d="M556,284 L602,284 L602,320 L556,320 L556,284"/>
</g>

<g fill="#d3d3d3" fill-opacity="1" stroke="none" transform="matrix(1,0,0,1,0,0)"
font-family="Helvetica" font-size="12" font-weight="400" font-style="normal" 
>
<path vector-effect="non-scaling-stroke" fill-rule="evenodd" d="M422,74 L503,74 L503,75 L422,75 L422,74"/>
<path vector-effect="non-scaling-stroke" fill-rule="evenodd" d="M501,74 L556,74 L556,75 L501,75 L501,74"/>
<path vector-effect="non-scaling-stroke" fill-rule="evenodd" d="M556,74 L602,74 L602,75 L556,75 L556,74"/>
<path vector-effect="non-scaling-stroke" fill-rule="evenodd" d="M422,74 L503,74 L503,75 L422,75 L422,74"/>
<path vector-effect="non-scaling-stroke" fill-rule="evenodd" d="M422,109 L503,109 L503,110 L422,110 L422,109"/>
<path vector-effect="non-scaling-stroke" fill-rule="evenodd" d="M501,74 L556,74 L556,75 L501,75 L501,74"/>
<path vector-effect="non-scaling-stroke" fill-rule="evenodd" d="M501,109 L556,109 L556,110 L501,110 L501,109"/>
<path vector-effect="non-scaling-stroke" fill-rule="evenodd" d="M556,74 L602,74 L602,75 L556,75 L556,74"/>
<path vector-effect="non-scaling-stroke" fill-rule="evenodd" d="M556,109 L602,109 L602,110 L556,110 L556,109"/>
<path vector-effect="non-scaling-stroke" fill-rule="evenodd" d="M422,109 L503,109 L503,110 L422,110 L422,109"/>
<path vector-effect="non-scaling-stroke" fill-rule="evenodd" d="M422,144 L503,144 L503,145 L422,145 L422,144"/>
<path vector-effect="non-scaling-stroke" fill-rule="evenodd" d="M501,109 L556,109 L556,110 L501,110 L501,109"/>
<path vector-effect="non-scaling-stroke" fill-rule="evenodd" d="M501,144 L556,144 L556,145 L501,145 L501,144"/>
<path vector-effect="non-scaling-stroke" fill-rule="evenodd" d="M556,109 L602,109 L602,110 L556,110 L556,109"/>
<path vector-effect="non-scaling-stroke" fill-rule="evenodd" d="M556,144 L602,144 L602,145 L556,145 L556,144"/>
<path vector-effect="non-scaling-stroke" fill-rule="evenodd" d="M422,144 L503,144 L503,145 L422,145 L422,144"/>
<path vector-effect="non-scaling-stroke" fill-rule="evenodd" d="M422,179 L503,179 L503,180 L422,180 L422,179"/>
<path vector-effect="non-scaling-stroke" fill-rule="evenodd" d="M501,144 L556,144 L556,145 L501,145 L501,144"/>
<path vector-effect="non-scaling-stroke" fill-rule="evenodd" d="M501,179 L556,179 L556,180 L501,180 L501,179"/>
<path vector-effect="non-scaling-stroke" fill-rule="evenodd" d="M556,144 L602,144 L602,145 L556,145 L556,144"/>
<path vector-effect="non-scaling-stroke" fill-rule="evenodd" d="M556,179 L602,179 L602,180 L556,180 L556,179"/>
<path vector-effect="non-scaling-stroke" fill-rule="evenodd" d="M422,179 L503,179 L503,180 L422,180 L422,179"/>
<path vector-effect="non-scaling-stroke" fill-rule="evenodd" d="M422,214 L503,214 L503,215 L422,215 L422,214"/>
<path vector-effect="non-scaling-stroke" fill-rule="evenodd" d="M501,179 L556,179 L556,180 L501,180 L501,179"/>
<path vector-effect="non-scaling-stroke" fill-rule="evenodd" d="M501,214 L556,214 L556,215 L501,215 L501,214"/>
<path vector-effect="non-scaling-stroke" fill-rule="evenodd" d="M556,179 L602,179 L602,180 L556,180 L556,179"/>
<path vector-effect="non-scaling-stroke" fill-rule="evenodd" d="M556,214 L602,214 L602,215 L556,215 L556,214"/>
<path vector-effect="non-scaling-stroke" fill-rule="evenodd" d="M422,214 L503,214 L503,215 L422,215 L422,214"/>
<path vector-effect="non-scaling-stroke" fill-rule="evenodd" d="M422,249 L503,249 L503,250 L422,250 L422,249"/>
<path vector-effect="non-scaling-stroke" fill-rule="evenodd" d="M501,214 L556,214 L556,215 L501,215 L501,214"/>
<path vector-effect="non-scaling-stroke" fill-rule="evenodd" d="M501,249 L556,249 L556,250 L501,250 L501,249"/>
<path vector-effect="non-scaling-stroke" fill-rule="evenodd" d="M556,214 L602,214 L602,215 L556,215 L556,214"/>
<path vector-effect="non-scaling-stroke" fill-rule="evenodd" d="M556,249 L602,249 L602,250 L556,250 L556,249"/>
<path vector-effect="non-scaling-stroke" fill-rule="evenodd" d="M422,249 L503,249 L503,250 L422,250 L422,249"/>
<path vector-effect="non-scaling-stroke" fill-rule="evenodd" d="M422,284 L503,284 L503,285 L422,285 L422,284"/>
<path vector-effect="non-scaling-stroke" fill-rule="evenodd" d="M501,249 L556,249 L556,250 L501,250 L501,249"/>
<path vector-effect="non-scaling-stroke" fill-rule="evenodd" d="M501,284 L556,284 L556,285 L501,285 L501,284"/>
<path vector-effect="non-scaling-stroke" fill-rule="evenodd" d="M556,249 L602,249 L602,250 L556,250 L556,249"/>
<path vector-effect="non-scaling-stroke" fill-rule="evenodd" d="M556,284 L602,284 L602,285 L556,285 L556,284"/>
<path vector-effect="non-scaling-stroke" fill-rule="evenodd" d="M422,284 L503,284 L503,285 L422,285 L422,284"/>
<path vector-effect="non-scaling-stroke" fill-rule="evenodd" d="M501,284 L556,284 L556,285 L501,285 L501,284"/>
<path vector-effect="non-scaling-stroke" fill-rule="evenodd" d="M556,284 L602,284 L602,285 L556,285 L556,284"/>
<path vector-effect="non-scaling-stroke" fill-rule="evenodd" d="M422,8 L502,8 L502,10 L422,10 L422,8"/>
<path vector-effect="non-scaling-stroke" fill-rule="evenodd" d="M422,38 L502,38 L502,40 L422,40 L422,38"/>
<path vector-effect="non-scaling-stroke" fill-rule="evenodd" d="M502,8 L556,8 L556,10 L502,10 L502,8"/>
<path vector-effect="non-scaling-stroke" fill-rule="evenodd" d="M502,38 L556,38 L556,40 L502,40 L502,38"/>
<path vector-effect="non-scaling-stroke" fill-rule="evenodd" d="M556,8 L602,8 L602,10 L556,10 L556,8"/>
<path vector-effect="non-scaling-stroke" fill-rule="evenodd" d="M556,38 L602,38 L602,40 L556,40 L556,38"/>
<path vector-effect="non-scaling-stroke" fill-rule="evenodd" d="M422,38 L503,38 L503,40 L422,40 L422,38"/>
<path vector-effect="non-scaling-stroke" fill-rule="evenodd" d="M501,38 L556,38 L556,40 L501,40 L501,38"/>
<path vector-effect="non-scaling-stroke" fill-rule="evenodd" d="M556,38 L602,38 L602,40 L556,40 L556,38"/>
<path vector-effect="non-scaling-stroke" fill-rule="evenodd" d="M422,319 L503,319 L503,321 L422,321 L422,319"/>
<path vector-effect="non-scaling-stroke" fill-rule="evenodd" d="M501,319 L556,319 L556,321 L501,321 L501,319"/>
<path vector-effect="non-scaling-stroke" fill-rule="evenodd" d="M556,319 L602,319 L602,321 L556,321 L556,319"/>
<path vector-effect="non-scaling-stroke" fill-rule="evenodd" d="M501,38 L503,38 L503,75 L501,75 L501,38"/>
<path vector-effect="non-scaling-stroke" fill-rule="evenodd" d="M501,38 L503,38 L503,75 L501,75 L501,38"/>
<path vector-effect="non-scaling-stroke" fill-rule="evenodd" d="M501,74 L503,74 L503,110 L501,110 L501,74"/>
<path vector-effect="non-scaling-stroke" fill-rule="evenodd" d="M501,74 L503,74 L503,110 L501,110 L501,74"/>
<path vector-effect="non-scaling-stroke" fill-rule="evenodd" d="M501,109 L503,109 L503,145 L501,145 L501,109"/>
<path vector-effect="non-scaling-stroke" fill-rule="evenodd" d="M501,109 L503,109 L503,145 L501,145 L501,109"/>
<path vector-effect="non-scaling-stroke" fill-rule="evenodd" d="M501,144 L503,144 L503,180 L501,180 L501,144"/>
<path vector-effect="non-scaling-stroke" fill-rule="evenodd" d="M501,144 L503,144 L503,180 L501,180 L501,144"/>
<path vector-effect="non-scaling-stroke" fill-rule="evenodd" d="M501,179 L503,179 L503,215 L501,215 L501,179"/>
<path vector-effect="non-scaling-stroke" fill-rule="evenodd" d="M501,179 L503,179 L503,215 L501,215 L501,179"/>
<path vector-effect="non-scaling-stroke" fill-rule="evenodd" d="M501,214 L503,214 L503,250 L501,250 L501,214"/>
<path vector-effect="non-scaling-stroke" fill-rule="evenodd" d="M501,214 L503,214 L503,250 L501,250 L501,214"/>
<path vector-effect="non-scaling-stroke" fill-rule="evenodd" d="M501,249 L503,249 L503,285 L501,285 L501,249"/>
<path vector-effect="non-scaling-stroke" fill-rule="evenodd" d="M501,249 L503,249 L503,285 L501,285 L501,249"/>
<path vector-effect="non-scaling-stroke" fill-rule="evenodd" d="M501,284 L503,284 L503,321 L501,321 L501,284"/>
<path vector-effect="non-scaling-stroke" fill-rule="evenodd" d="M501,284 L503,284 L503,321 L501,321 L501,284"/>
</g>

<g fill="#333333" fill-opacity="1" stroke="#333333" stroke-opacity="1" stroke-width="1" stroke-linecap="square" stroke-linejoin="bevel" transform="matrix(1,0,0,1,0,0)"
font-family="Arial" font-size="16" font-weight="400" font-style="normal" 
>
<text fill="#333333" fill-opacity="1" stroke="none" xml:space="preserve" x="427" y="29" font-family="Arial" font-size="16" font-weight="400" font-style="normal" 
 >type</text>
<text fill="#333333" fill-opacity="1" stroke="none" xml:space="preserve" x="507" y="29" font-family="Arial" font-size="16" font-weight="400" font-style="normal" 
 >month</text>
<text fill="#333333" fill-opacity="1" stroke="none" xml:space="preserve" x="564" y="29" font-family="Arial" font-size="16" font-weight="400" font-style="normal" 
 >sold</text>
<text fill="#333333" fill-opacity="1" stroke="none" xml:space="preserve" x="434" y="62" font-family="Arial" font-size="16" font-weight="400" font-style="normal" 
 >chicken</text>
<text fill="#333333" fill-opacity="1" stroke="none" xml:space="preserve" x="542" y="62" font-family="Arial" font-size="16" font-weight="400" font-style="normal" 
 >1</text>
<text fill="#333333" fill-opacity="1" stroke="none" xml:space="preserve" x="565.5" y="62" font-family="Arial" font-size="16" font-weight="400" font-style="normal" 
 >913</text>
<text fill="#333333" fill-opacity="1" stroke="none" xml:space="preserve" x="434" y="97" font-family="Arial" font-size="16" font-weight="400" font-style="normal" 
 >classic</text>
<text fill="#333333" fill-opacity="1" stroke="none" xml:space="preserve" x="542" y="97" font-family="Arial" font-size="16" font-weight="400" font-style="normal" 
 >1</text>
<text fill="#333333" fill-opacity="1" stroke="none" xml:space="preserve" x="561" y="97" font-family="Arial" font-size="16" font-weight="400" font-style="normal" 
 >1257</text>
<text fill="#333333" fill-opacity="1" stroke="none" xml:space="preserve" x="434" y="132" font-family="Arial" font-size="16" font-weight="400" font-style="normal" 
 >supreme</text>
<text fill="#333333" fill-opacity="1" stroke="none" xml:space="preserve" x="542" y="132" font-family="Arial" font-size="16" font-weight="400" font-style="normal" 
 >1</text>
<text fill="#333333" fill-opacity="1" stroke="none" xml:space="preserve" x="561" y="132" font-family="Arial" font-size="16" font-weight="400" font-style="normal" 
 >1044</text>
<text fill="#333333" fill-opacity="1" stroke="none" xml:space="preserve" x="434" y="167" font-family="Arial" font-size="16" font-weight="400" font-style="normal" 
 >veggie</text>
<text fill="#333333" fill-opacity="1" stroke="none" xml:space="preserve" x="542" y="167" font-family="Arial" font-size="16" font-weight="400" font-style="normal" 
 >1</text>
<text fill="#333333" fill-opacity="1" stroke="none" xml:space="preserve" x="561" y="167" font-family="Arial" font-size="16" font-weight="400" font-style="normal" 
 >1018</text>
<text fill="#333333" fill-opacity="1" stroke="none" xml:space="preserve" x="434" y="202" font-family="Arial" font-size="16" font-weight="400" font-style="normal" 
 >chicken</text>
<text fill="#333333" fill-opacity="1" stroke="none" xml:space="preserve" x="542" y="202" font-family="Arial" font-size="16" font-weight="400" font-style="normal" 
 >2</text>
<text fill="#333333" fill-opacity="1" stroke="none" xml:space="preserve" x="565.5" y="202" font-family="Arial" font-size="16" font-weight="400" font-style="normal" 
 >875</text>
<text fill="#333333" fill-opacity="1" stroke="none" xml:space="preserve" x="434" y="237" font-family="Arial" font-size="16" font-weight="400" font-style="normal" 
 >classic</text>
<text fill="#333333" fill-opacity="1" stroke="none" xml:space="preserve" x="542" y="237" font-family="Arial" font-size="16" font-weight="400" font-style="normal" 
 >2</text>
<text fill="#333333" fill-opacity="1" stroke="none" xml:space="preserve" x="561" y="237" font-family="Arial" font-size="16" font-weight="400" font-style="normal" 
 >1178</text>
<text fill="#333333" fill-opacity="1" stroke="none" xml:space="preserve" x="434" y="272" font-family="Arial" font-size="16" font-weight="400" font-style="normal" 
 >supreme</text>
<text fill="#333333" fill-opacity="1" stroke="none" xml:space="preserve" x="542" y="272" font-family="Arial" font-size="16" font-weight="400" font-style="normal" 
 >2</text>
<text fill="#333333" fill-opacity="1" stroke="none" xml:space="preserve" x="565.5" y="272" font-family="Arial" font-size="16" font-weight="400" font-style="normal" 
 >964</text>
<text fill="#333333" fill-opacity="1" stroke="none" xml:space="preserve" x="434" y="307" font-family="Arial" font-size="16" font-weight="400" font-style="normal" 
 >veggie</text>
<text fill="#333333" fill-opacity="1" stroke="none" xml:space="preserve" x="542" y="307" font-family="Arial" font-size="16" font-weight="400" font-style="normal" 
 >2</text>
<text fill="#333333" fill-opacity="1" stroke="none" xml:space="preserve" x="565.5" y="307" font-family="Arial" font-size="16" font-weight="400" font-style="normal" 
 >944</text>
</g>
</g>
</svg>
