<?xml version="1.0" encoding="UTF-8" standalone="no"?>
<svg width="361.244mm" height="230.717mm"
 viewBox="0 0 1024 654"
 xmlns="http://www.w3.org/2000/svg" xmlns:xlink="http://www.w3.org/1999/xlink"  version="1.2" baseProfile="tiny">
<title>Qt Svg Document</title>
<desc>Generated with Qt</desc>
<defs>
</defs>
<g fill="none" stroke="black" stroke-width="1" fill-rule="evenodd" stroke-linecap="square" stroke-linejoin="bevel" >

<g fill="#ffffff" fill-opacity="1" stroke="none" transform="matrix(1,0,0,1,0,0)"
font-family="Helvetica" font-size="12" font-weight="400" font-style="normal" 
>
<path vector-effect="non-scaling-stroke" fill-rule="evenodd" d="M0,0 L1024,0 L1024,654 L0,654 L0,0"/>
<path vector-effect="non-scaling-stroke" fill-rule="evenodd" d="M0,0 L1024,0 L1024,654 L0,654 L0,0"/>
<path vector-effect="non-scaling-stroke" fill-rule="evenodd" d="M0,0 L1024,0 L1024,654 L0,654 L0,0"/>
<path vector-effect="non-scaling-stroke" fill-rule="evenodd" d="M432,8 L592,8 L592,646 L432,646 L432,8"/>
<path vector-effect="non-scaling-stroke" fill-rule="evenodd" d="M432,9 L495,9 L495,90 L432,90 L432,9"/>
<path vector-effect="non-scaling-stroke" fill-rule="evenodd" d="M495,9 L592,9 L592,50 L495,50 L495,9"/>
<path vector-effect="non-scaling-stroke" fill-rule="evenodd" d="M495,50 L545,50 L545,90 L495,90 L495,50"/>
<path vector-effect="non-scaling-stroke" fill-rule="evenodd" d="M545,50 L592,50 L592,90 L545,90 L545,50"/>
</g>

<g fill="#f2f2f2" fill-opacity="1" stroke="none" transform="matrix(1,0,0,1,0,0)"
font-family="Helvetica" font-size="12" font-weight="400" font-style="normal" 
>
<path vector-effect="non-scaling-stroke" fill-rule="evenodd" d="M495,125 L545,125 L545,159 L495,159 L495,125"/>
<path vector-effect="non-scaling-stroke" fill-rule="evenodd" d="M545,125 L592,125 L592,159 L545,159 L545,125"/>
<path vector-effect="non-scaling-stroke" fill-rule="evenodd" d="M495,193 L545,193 L545,227 L495,227 L495,193"/>
<path vector-effect="non-scaling-stroke" fill-rule="evenodd" d="M545,193 L592,193 L592,227 L545,227 L545,193"/>
<path vector-effect="non-scaling-stroke" fill-rule="evenodd" d="M495,261 L545,261 L545,295 L495,295 L495,261"/>
<path vector-effect="non-scaling-stroke" fill-rule="evenodd" d="M545,261 L592,261 L592,295 L545,295 L545,261"/>
<path vector-effect="non-scaling-stroke" fill-rule="evenodd" d="M495,329 L545,329 L545,363 L495,363 L495,329"/>
<path vector-effect="non-scaling-stroke" fill-rule="evenodd" d="M545,329 L592,329 L592,363 L545,363 L545,329"/>
<path vector-effect="non-scaling-stroke" fill-rule="evenodd" d="M495,397 L545,397 L545,431 L495,431 L495,397"/>
<path vector-effect="non-scaling-stroke" fill-rule="evenodd" d="M545,397 L592,397 L592,431 L545,431 L545,397"/>
<path vector-effect="non-scaling-stroke" fill-rule="evenodd" d="M495,465 L545,465 L545,499 L495,499 L495,465"/>
<path vector-effect="non-scaling-stroke" fill-rule="evenodd" d="M545,465 L592,465 L592,499 L545,499 L545,465"/>
<path vector-effect="non-scaling-stroke" fill-rule="evenodd" d="M495,533 L545,533 L545,569 L495,569 L495,533"/>
<path vector-effect="non-scaling-stroke" fill-rule="evenodd" d="M545,533 L592,533 L592,569 L545,569 L545,533"/>
</g>

<g fill="#a8a8a8" fill-opacity="1" stroke="none" transform="matrix(1,0,0,1,0,0)"
font-family="Helvetica" font-size="12" font-weight="400" font-style="normal" 
>
<path vector-effect="non-scaling-stroke" fill-rule="evenodd" d="M432,644 L592,644 L592,646 L432,646 L432,644"/>
<path vector-effect="non-scaling-stroke" fill-rule="evenodd" d="M432,568 L496,568 L496,570 L432,570 L432,568"/>
<path vector-effect="non-scaling-stroke" fill-rule="evenodd" d="M494,568 L545,568 L545,570 L494,570 L494,568"/>
<path vector-effect="non-scaling-stroke" fill-rule="evenodd" d="M545,568 L592,568 L592,570 L545,570 L545,568"/>
<path vector-effect="non-scaling-stroke" fill-rule="evenodd" d="M432,568 L592,568 L592,570 L432,570 L432,568"/>
<path vector-effect="non-scaling-stroke" fill-rule="evenodd" d="M432,8 L495,8 L495,10 L432,10 L432,8"/>
<path vector-effect="non-scaling-stroke" fill-rule="evenodd" d="M432,89 L495,89 L495,91 L432,91 L432,89"/>
<path vector-effect="non-scaling-stroke" fill-rule="evenodd" d="M495,8 L592,8 L592,10 L495,10 L495,8"/>
<path vector-effect="non-scaling-stroke" fill-rule="evenodd" d="M495,49 L592,49 L592,51 L495,51 L495,49"/>
<path vector-effect="non-scaling-stroke" fill-rule="evenodd" d="M495,49 L545,49 L545,51 L495,51 L495,49"/>
<path vector-effect="non-scaling-stroke" fill-rule="evenodd" d="M495,89 L545,89 L545,91 L495,91 L495,89"/>
<path vector-effect="non-scaling-stroke" fill-rule="evenodd" d="M545,49 L592,49 L592,51 L545,51 L545,49"/>
<path vector-effect="non-scaling-stroke" fill-rule="evenodd" d="M545,89 L592,89 L592,91 L545,91 L545,89"/>
<path vector-effect="non-scaling-stroke" fill-rule="evenodd" d="M432,89 L496,89 L496,91 L432,91 L432,89"/>
<path vector-effect="non-scaling-stroke" fill-rule="evenodd" d="M494,89 L496,89 L496,125 L494,125 L494,89"/>
<path vector-effect="non-scaling-stroke" fill-rule="evenodd" d="M494,89 L545,89 L545,91 L494,91 L494,89"/>
<path vector-effect="non-scaling-stroke" fill-rule="evenodd" d="M494,89 L496,89 L496,125 L494,125 L494,89"/>
<path vector-effect="non-scaling-stroke" fill-rule="evenodd" d="M545,89 L592,89 L592,91 L545,91 L545,89"/>
<path vector-effect="non-scaling-stroke" fill-rule="evenodd" d="M494,125 L496,125 L496,159 L494,159 L494,125"/>
<path vector-effect="non-scaling-stroke" fill-rule="evenodd" d="M494,125 L496,125 L496,159 L494,159 L494,125"/>
<path vector-effect="non-scaling-stroke" fill-rule="evenodd" d="M494,159 L496,159 L496,193 L494,193 L494,159"/>
<path vector-effect="non-scaling-stroke" fill-rule="evenodd" d="M494,159 L496,159 L496,193 L494,193 L494,159"/>
<path vector-effect="non-scaling-stroke" fill-rule="evenodd" d="M494,193 L496,193 L496,227 L494,227 L494,193"/>
<path vector-effect="non-scaling-stroke" fill-rule="evenodd" d="M494,193 L496,193 L496,227 L494,227 L494,193"/>
<path vector-effect="non-scaling-stroke" fill-rule="evenodd" d="M494,227 L496,227 L496,261 L494,261 L494,227"/>
<path vector-effect="non-scaling-stroke" fill-rule="evenodd" d="M494,227 L496,227 L496,261 L494,261 L494,227"/>
<path vector-effect="non-scaling-stroke" fill-rule="evenodd" d="M494,261 L496,261 L496,295 L494,295 L494,261"/>
<path vector-effect="non-scaling-stroke" fill-rule="evenodd" d="M494,261 L496,261 L496,295 L494,295 L494,261"/>
<path vector-effect="non-scaling-stroke" fill-rule="evenodd" d="M494,295 L496,295 L496,329 L494,329 L494,295"/>
<path vector-effect="non-scaling-stroke" fill-rule="evenodd" d="M494,295 L496,295 L496,329 L494,329 L494,295"/>
<path vector-effect="non-scaling-stroke" fill-rule="evenodd" d="M494,329 L496,329 L496,363 L494,363 L494,329"/>
<path vector-effect="non-scaling-stroke" fill-rule="evenodd" d="M494,329 L496,329 L496,363 L494,363 L494,329"/>
<path vector-effect="non-scaling-stroke" fill-rule="evenodd" d="M494,363 L496,363 L496,397 L494,397 L494,363"/>
<path vector-effect="non-scaling-stroke" fill-rule="evenodd" d="M494,363 L496,363 L496,397 L494,397 L494,363"/>
<path vector-effect="non-scaling-stroke" fill-rule="evenodd" d="M494,397 L496,397 L496,431 L494,431 L494,397"/>
<path vector-effect="non-scaling-stroke" fill-rule="evenodd" d="M494,397 L496,397 L496,431 L494,431 L494,397"/>
<path vector-effect="non-scaling-stroke" fill-rule="evenodd" d="M494,431 L496,431 L496,465 L494,465 L494,431"/>
<path vector-effect="non-scaling-stroke" fill-rule="evenodd" d="M494,431 L496,431 L496,465 L494,465 L494,431"/>
<path vector-effect="non-scaling-stroke" fill-rule="evenodd" d="M494,465 L496,465 L496,499 L494,499 L494,465"/>
<path vector-effect="non-scaling-stroke" fill-rule="evenodd" d="M494,465 L496,465 L496,499 L494,499 L494,465"/>
<path vector-effect="non-scaling-stroke" fill-rule="evenodd" d="M494,499 L496,499 L496,533 L494,533 L494,499"/>
<path vector-effect="non-scaling-stroke" fill-rule="evenodd" d="M494,499 L496,499 L496,533 L494,533 L494,499"/>
<path vector-effect="non-scaling-stroke" fill-rule="evenodd" d="M494,533 L496,533 L496,570 L494,570 L494,533"/>
<path vector-effect="non-scaling-stroke" fill-rule="evenodd" d="M494,533 L496,533 L496,570 L494,570 L494,533"/>
</g>

<g fill="#000000" fill-opacity="1" stroke="#000000" stroke-opacity="1" stroke-width="1" stroke-linecap="square" stroke-linejoin="bevel" transform="matrix(1,0,0,1,0,0)"
font-family="Arial" font-size="16" font-weight="400" font-style="normal" 
>
<text fill="#000000" fill-opacity="1" stroke="none" xml:space="preserve" x="442" y="55" font-family="Arial" font-size="16" font-weight="400" font-style="normal" 
 >TST</text>
</g>

<g fill="#000000" fill-opacity="1" stroke="#000000" stroke-opacity="1" stroke-width="1" stroke-linecap="square" stroke-linejoin="bevel" transform="matrix(1,0,0,1,0,0)"
font-family="Arial" font-size="10" font-weight="400" font-style="italic" 
>
<text fill="#000000" fill-opacity="1" stroke="none" xml:space="preserve" x="473" y="49" font-family="Arial" font-size="10" font-weight="400" font-style="italic" 
 >*</text>
</g>

<g fill="#000000" fill-opacity="1" stroke="#000000" stroke-opacity="1" stroke-width="1" stroke-linecap="square" stroke-linejoin="bevel" transform="matrix(1,0,0,1,0,0)"
font-family="Arial" font-size="16" font-weight="400" font-style="normal" 
>
<text fill="#000000" fill-opacity="1" stroke="none" xml:space="preserve" x="524.5" y="35" font-family="Arial" font-size="16" font-weight="400" font-style="normal" 
 >SZA</text>
</g>

<g fill="#000000" fill-opacity="1" stroke="#000000" stroke-opacity="1" stroke-width="1" stroke-linecap="square" stroke-linejoin="bevel" transform="matrix(1,0,0,1,0,0)"
font-family="Arial" font-size="10" font-weight="400" font-style="italic" 
>
<text fill="#000000" fill-opacity="1" stroke="none" xml:space="preserve" x="556.5" y="29" font-family="Arial" font-size="10" font-weight="400" font-style="italic" 
 >†</text>
</g>

<g fill="#000000" fill-opacity="1" stroke="#000000" stroke-opacity="1" stroke-width="1" stroke-linecap="square" stroke-linejoin="bevel" transform="matrix(1,0,0,1,0,0)"
font-family="Arial" font-size="16" font-weight="400" font-style="normal" 
>
<text fill="#000000" fill-opacity="1" stroke="none" xml:space="preserve" x="505" y="75" font-family="Arial" font-size="16" font-weight="400" font-style="normal" 
 >Max</text>
<text fill="#000000" fill-opacity="1" stroke="none" xml:space="preserve" x="555.5" y="75" font-family="Arial" font-size="16" font-weight="400" font-style="normal" 
 >Min</text>
<text fill="#000000" fill-opacity="1" stroke="none" xml:space="preserve" x="444" y="113" font-family="Arial" font-size="16" font-weight="400" font-style="normal" 
 >0530</text>
<text fill="#000000" fill-opacity="1" stroke="none" xml:space="preserve" x="510" y="113" font-family="Arial" font-size="16" font-weight="400" font-style="normal" 
 >90+</text>
<text fill="#000000" fill-opacity="1" stroke="none" xml:space="preserve" x="553" y="113" font-family="Arial" font-size="16" font-weight="400" font-style="normal" 
 >84.7</text>
<text fill="#000000" fill-opacity="1" stroke="none" xml:space="preserve" x="444" y="147" font-family="Arial" font-size="16" font-weight="400" font-style="normal" 
 >0600</text>
<text fill="#000000" fill-opacity="1" stroke="none" xml:space="preserve" x="510" y="147" font-family="Arial" font-size="16" font-weight="400" font-style="normal" 
 >90+</text>
<text fill="#000000" fill-opacity="1" stroke="none" xml:space="preserve" x="553" y="147" font-family="Arial" font-size="16" font-weight="400" font-style="normal" 
 >78.7</text>
<text fill="#000000" fill-opacity="1" stroke="none" xml:space="preserve" x="444" y="181" font-family="Arial" font-size="16" font-weight="400" font-style="normal" 
 >0630</text>
<text fill="#000000" fill-opacity="1" stroke="none" xml:space="preserve" x="510" y="181" font-family="Arial" font-size="16" font-weight="400" font-style="normal" 
 >90+</text>
<text fill="#000000" fill-opacity="1" stroke="none" xml:space="preserve" x="553" y="181" font-family="Arial" font-size="16" font-weight="400" font-style="normal" 
 >72.5</text>
<text fill="#000000" fill-opacity="1" stroke="none" xml:space="preserve" x="444" y="215" font-family="Arial" font-size="16" font-weight="400" font-style="normal" 
 >0700</text>
<text fill="#000000" fill-opacity="1" stroke="none" xml:space="preserve" x="506" y="215" font-family="Arial" font-size="16" font-weight="400" font-style="normal" 
 >89.4</text>
<text fill="#000000" fill-opacity="1" stroke="none" xml:space="preserve" x="553" y="215" font-family="Arial" font-size="16" font-weight="400" font-style="normal" 
 >66.3</text>
<text fill="#000000" fill-opacity="1" stroke="none" xml:space="preserve" x="444" y="249" font-family="Arial" font-size="16" font-weight="400" font-style="normal" 
 >0730</text>
<text fill="#000000" fill-opacity="1" stroke="none" xml:space="preserve" x="506" y="249" font-family="Arial" font-size="16" font-weight="400" font-style="normal" 
 >83.7</text>
<text fill="#000000" fill-opacity="1" stroke="none" xml:space="preserve" x="553" y="249" font-family="Arial" font-size="16" font-weight="400" font-style="normal" 
 >60.0</text>
<text fill="#000000" fill-opacity="1" stroke="none" xml:space="preserve" x="444" y="283" font-family="Arial" font-size="16" font-weight="400" font-style="normal" 
 >0800</text>
<text fill="#000000" fill-opacity="1" stroke="none" xml:space="preserve" x="506" y="283" font-family="Arial" font-size="16" font-weight="400" font-style="normal" 
 >78.3</text>
<text fill="#000000" fill-opacity="1" stroke="none" xml:space="preserve" x="553" y="283" font-family="Arial" font-size="16" font-weight="400" font-style="normal" 
 >53.5</text>
<text fill="#000000" fill-opacity="1" stroke="none" xml:space="preserve" x="444" y="317" font-family="Arial" font-size="16" font-weight="400" font-style="normal" 
 >0830</text>
<text fill="#000000" fill-opacity="1" stroke="none" xml:space="preserve" x="506" y="317" font-family="Arial" font-size="16" font-weight="400" font-style="normal" 
 >73.2</text>
<text fill="#000000" fill-opacity="1" stroke="none" xml:space="preserve" x="553" y="317" font-family="Arial" font-size="16" font-weight="400" font-style="normal" 
 >47.1</text>
<text fill="#000000" fill-opacity="1" stroke="none" xml:space="preserve" x="444" y="351" font-family="Arial" font-size="16" font-weight="400" font-style="normal" 
 >0900</text>
<text fill="#000000" fill-opacity="1" stroke="none" xml:space="preserve" x="506" y="351" font-family="Arial" font-size="16" font-weight="400" font-style="normal" 
 >68.4</text>
<text fill="#000000" fill-opacity="1" stroke="none" xml:space="preserve" x="553" y="351" font-family="Arial" font-size="16" font-weight="400" font-style="normal" 
 >40.6</text>
<text fill="#000000" fill-opacity="1" stroke="none" xml:space="preserve" x="444" y="385" font-family="Arial" font-size="16" font-weight="400" font-style="normal" 
 >0930</text>
<text fill="#000000" fill-opacity="1" stroke="none" xml:space="preserve" x="506" y="385" font-family="Arial" font-size="16" font-weight="400" font-style="normal" 
 >64.1</text>
<text fill="#000000" fill-opacity="1" stroke="none" xml:space="preserve" x="553" y="385" font-family="Arial" font-size="16" font-weight="400" font-style="normal" 
 >34.1</text>
<text fill="#000000" fill-opacity="1" stroke="none" xml:space="preserve" x="444" y="419" font-family="Arial" font-size="16" font-weight="400" font-style="normal" 
 >1000</text>
<text fill="#000000" fill-opacity="1" stroke="none" xml:space="preserve" x="506" y="419" font-family="Arial" font-size="16" font-weight="400" font-style="normal" 
 >60.4</text>
<text fill="#000000" fill-opacity="1" stroke="none" xml:space="preserve" x="553" y="419" font-family="Arial" font-size="16" font-weight="400" font-style="normal" 
 >27.7</text>
<text fill="#000000" fill-opacity="1" stroke="none" xml:space="preserve" x="444" y="453" font-family="Arial" font-size="16" font-weight="400" font-style="normal" 
 >1030</text>
<text fill="#000000" fill-opacity="1" stroke="none" xml:space="preserve" x="506" y="453" font-family="Arial" font-size="16" font-weight="400" font-style="normal" 
 >57.3</text>
<text fill="#000000" fill-opacity="1" stroke="none" xml:space="preserve" x="553" y="453" font-family="Arial" font-size="16" font-weight="400" font-style="normal" 
 >21.2</text>
<text fill="#000000" fill-opacity="1" stroke="none" xml:space="preserve" x="444" y="487" font-family="Arial" font-size="16" font-weight="400" font-style="normal" 
 >1100</text>
<text fill="#000000" fill-opacity="1" stroke="none" xml:space="preserve" x="506" y="487" font-family="Arial" font-size="16" font-weight="400" font-style="normal" 
 >55.0</text>
<text fill="#000000" fill-opacity="1" stroke="none" xml:space="preserve" x="553" y="487" font-family="Arial" font-size="16" font-weight="400" font-style="normal" 
 >15.1</text>
<text fill="#000000" fill-opacity="1" stroke="none" xml:space="preserve" x="444" y="521" font-family="Arial" font-size="16" font-weight="400" font-style="normal" 
 >1130</text>
<text fill="#000000" fill-opacity="1" stroke="none" xml:space="preserve" x="506" y="521" font-family="Arial" font-size="16" font-weight="400" font-style="normal" 
 >53.5</text>
<text fill="#000000" fill-opacity="1" stroke="none" xml:space="preserve" x="562" y="521" font-family="Arial" font-size="16" font-weight="400" font-style="normal" 
 >9.6</text>
<text fill="#000000" fill-opacity="1" stroke="none" xml:space="preserve" x="444" y="556" font-family="Arial" font-size="16" font-weight="400" font-style="normal" 
 >1200</text>
</g>

<g fill="#000000" fill-opacity="1" stroke="#000000" stroke-opacity="1" stroke-width="1" stroke-linecap="square" stroke-linejoin="bevel" transform="matrix(1,0,0,1,0,0)"
font-family="Arial" font-size="10" font-weight="400" font-style="italic" 
>
<text fill="#000000" fill-opacity="1" stroke="none" xml:space="preserve" x="480" y="550" font-family="Arial" font-size="10" font-weight="400" font-style="italic" 
 >‡</text>
</g>

<g fill="#000000" fill-opacity="1" stroke="#000000" stroke-opacity="1" stroke-width="1" stroke-linecap="square" stroke-linejoin="bevel" transform="matrix(1,0,0,1,0,0)"
font-family="Arial" font-size="16" font-weight="400" font-style="normal" 
>
<text fill="#000000" fill-opacity="1" stroke="none" xml:space="preserve" x="506" y="555" font-family="Arial" font-size="16" font-weight="400" font-style="normal" 
 >53.0</text>
<text fill="#000000" fill-opacity="1" stroke="none" xml:space="preserve" x="562" y="555" font-family="Arial" font-size="16" font-weight="400" font-style="normal" 
 >6.9</text>
</g>

<g fill="#000000" fill-opacity="1" stroke="#000000" stroke-opacity="1" stroke-width="1" stroke-linecap="square" stroke-linejoin="bevel" transform="matrix(1,0,0,1,0,0)"
font-family="Arial" font-size="9" font-weight="400" font-style="italic" 
>
<text fill="#000000" fill-opacity="1" stroke="none" xml:space="preserve" x="437" y="583" font-family="Arial" font-size="9" font-weight="400" font-style="italic" 
 >*</text>
<text fill="#000000" fill-opacity="1" stroke="none" xml:space="preserve" x="441" y="583" font-family="Arial" font-size="9" font-weight="400" font-style="italic" 
 > </text>
</g>

<g fill="#000000" fill-opacity="1" stroke="#000000" stroke-opacity="1" stroke-width="1" stroke-linecap="square" stroke-linejoin="bevel" transform="matrix(1,0,0,1,0,0)"
font-family="Arial" font-size="14" font-weight="400" font-style="normal" 
>
<text fill="#000000" fill-opacity="1" stroke="none" xml:space="preserve" x="444" y="588" font-family="Arial" font-size="14" font-weight="400" font-style="normal" 
 >True solar time. </text>
</g>

<g fill="#000000" fill-opacity="1" stroke="#000000" stroke-opacity="1" stroke-width="1" stroke-linecap="square" stroke-linejoin="bevel" transform="matrix(1,0,0,1,0,0)"
font-family="Arial" font-size="9" font-weight="400" font-style="italic" 
>
<text fill="#000000" fill-opacity="1" stroke="none" xml:space="preserve" x="437" y="607" font-family="Arial" font-size="9" font-weight="400" font-style="italic" 
 >†</text>
<text fill="#000000" fill-opacity="1" stroke="none" xml:space="preserve" x="442" y="607" font-family="Arial" font-size="9" font-weight="400" font-style="italic" 
 > </text>
</g>

<g fill="#000000" fill-opacity="1" stroke="#000000" stroke-opacity="1" stroke-width="1" stroke-linecap="square" stroke-linejoin="bevel" transform="matrix(1,0,0,1,0,0)"
font-family="Arial" font-size="14" font-weight="400" font-style="normal" 
>
<text fill="#000000" fill-opacity="1" stroke="none" xml:space="preserve" x="445" y="612" font-family="Arial" font-size="14" font-weight="400" font-style="normal" 
 >Solar zenith angle. </text>
</g>

<g fill="#000000" fill-opacity="1" stroke="#000000" stroke-opacity="1" stroke-width="1" stroke-linecap="square" stroke-linejoin="bevel" transform="matrix(1,0,0,1,0,0)"
font-family="Arial" font-size="9" font-weight="400" font-style="italic" 
>
<text fill="#000000" fill-opacity="1" stroke="none" xml:space="preserve" x="437" y="631" font-family="Arial" font-size="9" font-weight="400" font-style="italic" 
 >‡</text>
<text fill="#000000" fill-opacity="1" stroke="none" xml:space="preserve" x="442" y="631" font-family="Arial" font-size="9" font-weight="400" font-style="italic" 
 > </text>
</g>

<g fill="#000000" fill-opacity="1" stroke="#000000" stroke-opacity="1" stroke-width="1" stroke-linecap="square" stroke-linejoin="bevel" transform="matrix(1,0,0,1,0,0)"
font-family="Arial" font-size="14" font-weight="400" font-style="normal" 
>
<text fill="#000000" fill-opacity="1" stroke="none" xml:space="preserve" x="445" y="636" font-family="Arial" font-size="14" font-weight="400" font-style="normal" 
 >The Lowest SZA. </text>
</g>
</g>
</svg>
