<?xml version="1.0" encoding="UTF-8" standalone="no"?>
<svg width="361.244mm" height="116.064mm"
 viewBox="0 0 1024 329"
 xmlns="http://www.w3.org/2000/svg" xmlns:xlink="http://www.w3.org/1999/xlink"  version="1.2" baseProfile="tiny">
<title>Qt Svg Document</title>
<desc>Generated with Qt</desc>
<defs>
</defs>
<g fill="none" stroke="black" stroke-width="1" fill-rule="evenodd" stroke-linecap="square" stroke-linejoin="bevel" >

<g fill="#ffffff" fill-opacity="1" stroke="none" transform="matrix(1,0,0,1,0,0)"
font-family="Helvetica" font-size="12" font-weight="400" font-style="normal" 
>
<path vector-effect="non-scaling-stroke" fill-rule="evenodd" d="M0,0 L1024,0 L1024,329 L0,329 L0,0"/>
<path vector-effect="non-scaling-stroke" fill-rule="evenodd" d="M0,0 L1024,0 L1024,329 L0,329 L0,0"/>
<path vector-effect="non-scaling-stroke" fill-rule="evenodd" d="M0,0 L1024,0 L1024,329 L0,329 L0,0"/>
<path vector-effect="non-scaling-stroke" fill-rule="evenodd" d="M166,8 L858,8 L858,321 L166,321 L166,8"/>
<path vector-effect="non-scaling-stroke" fill-rule="evenodd" d="M166,9 L252,9 L252,39 L166,39 L166,9"/>
<path vector-effect="non-scaling-stroke" fill-rule="evenodd" d="M252,9 L336,9 L336,39 L252,39 L252,9"/>
<path vector-effect="non-scaling-stroke" fill-rule="evenodd" d="M336,9 L389,9 L389,39 L336,39 L336,9"/>
<path vector-effect="non-scaling-stroke" fill-rule="evenodd" d="M389,9 L481,9 L481,39 L389,39 L389,9"/>
<path vector-effect="non-scaling-stroke" fill-rule="evenodd" d="M481,9 L531,9 L531,39 L481,39 L481,9"/>
<path vector-effect="non-scaling-stroke" fill-rule="evenodd" d="M531,9 L667,9 L667,39 L531,39 L531,9"/>
<path vector-effect="non-scaling-stroke" fill-rule="evenodd" d="M667,9 L753,9 L753,39 L667,39 L667,9"/>
<path vector-effect="non-scaling-stroke" fill-rule="evenodd" d="M753,9 L807,9 L807,39 L753,39 L753,9"/>
<path vector-effect="non-scaling-stroke" fill-rule="evenodd" d="M807,9 L858,9 L858,39 L807,39 L807,9"/>
</g>

<g fill="#bbbbbb" fill-opacity="1" stroke="none" transform="matrix(1,0,0,1,0,0)"
font-family="Helvetica" font-size="12" font-weight="400" font-style="normal" 
>
<path vector-effect="non-scaling-stroke" fill-rule="evenodd" d="M166,74 L252,74 L252,75 L166,75 L166,74"/>
<path vector-effect="non-scaling-stroke" fill-rule="evenodd" d="M252,74 L336,74 L336,75 L252,75 L252,74"/>
<path vector-effect="non-scaling-stroke" fill-rule="evenodd" d="M336,74 L389,74 L389,75 L336,75 L336,74"/>
<path vector-effect="non-scaling-stroke" fill-rule="evenodd" d="M389,74 L481,74 L481,75 L389,75 L389,74"/>
<path vector-effect="non-scaling-stroke" fill-rule="evenodd" d="M481,74 L531,74 L531,75 L481,75 L481,74"/>
<path vector-effect="non-scaling-stroke" fill-rule="evenodd" d="M531,74 L667,74 L667,75 L531,75 L531,74"/>
<path vector-effect="non-scaling-stroke" fill-rule="evenodd" d="M667,74 L753,74 L753,75 L667,75 L667,74"/>
<path vector-effect="non-scaling-stroke" fill-rule="evenodd" d="M753,74 L807,74 L807,75 L753,75 L753,74"/>
<path vector-effect="non-scaling-stroke" fill-rule="evenodd" d="M807,74 L858,74 L858,75 L807,75 L807,74"/>
<path vector-effect="non-scaling-stroke" fill-rule="evenodd" d="M166,74 L252,74 L252,75 L166,75 L166,74"/>
<path vector-effect="non-scaling-stroke" fill-rule="evenodd" d="M166,109 L252,109 L252,110 L166,110 L166,109"/>
<path vector-effect="non-scaling-stroke" fill-rule="evenodd" d="M252,74 L336,74 L336,75 L252,75 L252,74"/>
<path vector-effect="non-scaling-stroke" fill-rule="evenodd" d="M252,109 L336,109 L336,110 L252,110 L252,109"/>
<path vector-effect="non-scaling-stroke" fill-rule="evenodd" d="M336,74 L389,74 L389,75 L336,75 L336,74"/>
<path vector-effect="non-scaling-stroke" fill-rule="evenodd" d="M336,109 L389,109 L389,110 L336,110 L336,109"/>
<path vector-effect="non-scaling-stroke" fill-rule="evenodd" d="M389,74 L481,74 L481,75 L389,75 L389,74"/>
<path vector-effect="non-scaling-stroke" fill-rule="evenodd" d="M389,109 L481,109 L481,110 L389,110 L389,109"/>
<path vector-effect="non-scaling-stroke" fill-rule="evenodd" d="M481,74 L531,74 L531,75 L481,75 L481,74"/>
<path vector-effect="non-scaling-stroke" fill-rule="evenodd" d="M481,109 L531,109 L531,110 L481,110 L481,109"/>
<path vector-effect="non-scaling-stroke" fill-rule="evenodd" d="M531,74 L667,74 L667,75 L531,75 L531,74"/>
<path vector-effect="non-scaling-stroke" fill-rule="evenodd" d="M531,109 L667,109 L667,110 L531,110 L531,109"/>
<path vector-effect="non-scaling-stroke" fill-rule="evenodd" d="M667,74 L753,74 L753,75 L667,75 L667,74"/>
<path vector-effect="non-scaling-stroke" fill-rule="evenodd" d="M667,109 L753,109 L753,110 L667,110 L667,109"/>
<path vector-effect="non-scaling-stroke" fill-rule="evenodd" d="M753,74 L807,74 L807,75 L753,75 L753,74"/>
<path vector-effect="non-scaling-stroke" fill-rule="evenodd" d="M753,109 L807,109 L807,110 L753,110 L753,109"/>
<path vector-effect="non-scaling-stroke" fill-rule="evenodd" d="M807,74 L858,74 L858,75 L807,75 L807,74"/>
<path vector-effect="non-scaling-stroke" fill-rule="evenodd" d="M807,109 L858,109 L858,110 L807,110 L807,109"/>
<path vector-effect="non-scaling-stroke" fill-rule="evenodd" d="M166,109 L252,109 L252,110 L166,110 L166,109"/>
<path vector-effect="non-scaling-stroke" fill-rule="evenodd" d="M166,144 L252,144 L252,145 L166,145 L166,144"/>
<path vector-effect="non-scaling-stroke" fill-rule="evenodd" d="M252,109 L336,109 L336,110 L252,110 L252,109"/>
<path vector-effect="non-scaling-stroke" fill-rule="evenodd" d="M252,144 L336,144 L336,145 L252,145 L252,144"/>
<path vector-effect="non-scaling-stroke" fill-rule="evenodd" d="M336,109 L389,109 L389,110 L336,110 L336,109"/>
<path vector-effect="non-scaling-stroke" fill-rule="evenodd" d="M336,144 L389,144 L389,145 L336,145 L336,144"/>
<path vector-effect="non-scaling-stroke" fill-rule="evenodd" d="M389,109 L481,109 L481,110 L389,110 L389,109"/>
<path vector-effect="non-scaling-stroke" fill-rule="evenodd" d="M389,144 L481,144 L481,145 L389,145 L389,144"/>
<path vector-effect="non-scaling-stroke" fill-rule="evenodd" d="M481,109 L531,109 L531,110 L481,110 L481,109"/>
<path vector-effect="non-scaling-stroke" fill-rule="evenodd" d="M481,144 L531,144 L531,145 L481,145 L481,144"/>
<path vector-effect="non-scaling-stroke" fill-rule="evenodd" d="M531,109 L667,109 L667,110 L531,110 L531,109"/>
<path vector-effect="non-scaling-stroke" fill-rule="evenodd" d="M531,144 L667,144 L667,145 L531,145 L531,144"/>
<path vector-effect="non-scaling-stroke" fill-rule="evenodd" d="M667,109 L753,109 L753,110 L667,110 L667,109"/>
<path vector-effect="non-scaling-stroke" fill-rule="evenodd" d="M667,144 L753,144 L753,145 L667,145 L667,144"/>
<path vector-effect="non-scaling-stroke" fill-rule="evenodd" d="M753,109 L807,109 L807,110 L753,110 L753,109"/>
<path vector-effect="non-scaling-stroke" fill-rule="evenodd" d="M753,144 L807,144 L807,145 L753,145 L753,144"/>
<path vector-effect="non-scaling-stroke" fill-rule="evenodd" d="M807,109 L858,109 L858,110 L807,110 L807,109"/>
<path vector-effect="non-scaling-stroke" fill-rule="evenodd" d="M807,144 L858,144 L858,145 L807,145 L807,144"/>
<path vector-effect="non-scaling-stroke" fill-rule="evenodd" d="M166,144 L252,144 L252,145 L166,145 L166,144"/>
<path vector-effect="non-scaling-stroke" fill-rule="evenodd" d="M166,179 L252,179 L252,180 L166,180 L166,179"/>
<path vector-effect="non-scaling-stroke" fill-rule="evenodd" d="M252,144 L336,144 L336,145 L252,145 L252,144"/>
<path vector-effect="non-scaling-stroke" fill-rule="evenodd" d="M252,179 L336,179 L336,180 L252,180 L252,179"/>
<path vector-effect="non-scaling-stroke" fill-rule="evenodd" d="M336,144 L389,144 L389,145 L336,145 L336,144"/>
<path vector-effect="non-scaling-stroke" fill-rule="evenodd" d="M336,179 L389,179 L389,180 L336,180 L336,179"/>
<path vector-effect="non-scaling-stroke" fill-rule="evenodd" d="M389,144 L481,144 L481,145 L389,145 L389,144"/>
<path vector-effect="non-scaling-stroke" fill-rule="evenodd" d="M389,179 L481,179 L481,180 L389,180 L389,179"/>
<path vector-effect="non-scaling-stroke" fill-rule="evenodd" d="M481,144 L531,144 L531,145 L481,145 L481,144"/>
<path vector-effect="non-scaling-stroke" fill-rule="evenodd" d="M481,179 L531,179 L531,180 L481,180 L481,179"/>
<path vector-effect="non-scaling-stroke" fill-rule="evenodd" d="M531,144 L667,144 L667,145 L531,145 L531,144"/>
<path vector-effect="non-scaling-stroke" fill-rule="evenodd" d="M531,179 L667,179 L667,180 L531,180 L531,179"/>
<path vector-effect="non-scaling-stroke" fill-rule="evenodd" d="M667,144 L753,144 L753,145 L667,145 L667,144"/>
<path vector-effect="non-scaling-stroke" fill-rule="evenodd" d="M667,179 L753,179 L753,180 L667,180 L667,179"/>
<path vector-effect="non-scaling-stroke" fill-rule="evenodd" d="M753,144 L807,144 L807,145 L753,145 L753,144"/>
<path vector-effect="non-scaling-stroke" fill-rule="evenodd" d="M753,179 L807,179 L807,180 L753,180 L753,179"/>
<path vector-effect="non-scaling-stroke" fill-rule="evenodd" d="M807,144 L858,144 L858,145 L807,145 L807,144"/>
<path vector-effect="non-scaling-stroke" fill-rule="evenodd" d="M807,179 L858,179 L858,180 L807,180 L807,179"/>
<path vector-effect="non-scaling-stroke" fill-rule="evenodd" d="M166,179 L252,179 L252,180 L166,180 L166,179"/>
<path vector-effect="non-scaling-stroke" fill-rule="evenodd" d="M166,214 L252,214 L252,215 L166,215 L166,214"/>
<path vector-effect="non-scaling-stroke" fill-rule="evenodd" d="M252,179 L336,179 L336,180 L252,180 L252,179"/>
<path vector-effect="non-scaling-stroke" fill-rule="evenodd" d="M252,214 L336,214 L336,215 L252,215 L252,214"/>
<path vector-effect="non-scaling-stroke" fill-rule="evenodd" d="M336,179 L389,179 L389,180 L336,180 L336,179"/>
<path vector-effect="non-scaling-stroke" fill-rule="evenodd" d="M336,214 L389,214 L389,215 L336,215 L336,214"/>
<path vector-effect="non-scaling-stroke" fill-rule="evenodd" d="M389,179 L481,179 L481,180 L389,180 L389,179"/>
<path vector-effect="non-scaling-stroke" fill-rule="evenodd" d="M389,214 L481,214 L481,215 L389,215 L389,214"/>
<path vector-effect="non-scaling-stroke" fill-rule="evenodd" d="M481,179 L531,179 L531,180 L481,180 L481,179"/>
<path vector-effect="non-scaling-stroke" fill-rule="evenodd" d="M481,214 L531,214 L531,215 L481,215 L481,214"/>
<path vector-effect="non-scaling-stroke" fill-rule="evenodd" d="M531,179 L667,179 L667,180 L531,180 L531,179"/>
<path vector-effect="non-scaling-stroke" fill-rule="evenodd" d="M531,214 L667,214 L667,215 L531,215 L531,214"/>
<path vector-effect="non-scaling-stroke" fill-rule="evenodd" d="M667,179 L753,179 L753,180 L667,180 L667,179"/>
<path vector-effect="non-scaling-stroke" fill-rule="evenodd" d="M667,214 L753,214 L753,215 L667,215 L667,214"/>
<path vector-effect="non-scaling-stroke" fill-rule="evenodd" d="M753,179 L807,179 L807,180 L753,180 L753,179"/>
<path vector-effect="non-scaling-stroke" fill-rule="evenodd" d="M753,214 L807,214 L807,215 L753,215 L753,214"/>
<path vector-effect="non-scaling-stroke" fill-rule="evenodd" d="M807,179 L858,179 L858,180 L807,180 L807,179"/>
<path vector-effect="non-scaling-stroke" fill-rule="evenodd" d="M807,214 L858,214 L858,215 L807,215 L807,214"/>
<path vector-effect="non-scaling-stroke" fill-rule="evenodd" d="M166,214 L252,214 L252,215 L166,215 L166,214"/>
<path vector-effect="non-scaling-stroke" fill-rule="evenodd" d="M166,249 L252,249 L252,250 L166,250 L166,249"/>
<path vector-effect="non-scaling-stroke" fill-rule="evenodd" d="M252,214 L336,214 L336,215 L252,215 L252,214"/>
<path vector-effect="non-scaling-stroke" fill-rule="evenodd" d="M252,249 L336,249 L336,250 L252,250 L252,249"/>
<path vector-effect="non-scaling-stroke" fill-rule="evenodd" d="M336,214 L389,214 L389,215 L336,215 L336,214"/>
<path vector-effect="non-scaling-stroke" fill-rule="evenodd" d="M336,249 L389,249 L389,250 L336,250 L336,249"/>
<path vector-effect="non-scaling-stroke" fill-rule="evenodd" d="M389,214 L481,214 L481,215 L389,215 L389,214"/>
<path vector-effect="non-scaling-stroke" fill-rule="evenodd" d="M389,249 L481,249 L481,250 L389,250 L389,249"/>
<path vector-effect="non-scaling-stroke" fill-rule="evenodd" d="M481,214 L531,214 L531,215 L481,215 L481,214"/>
<path vector-effect="non-scaling-stroke" fill-rule="evenodd" d="M481,249 L531,249 L531,250 L481,250 L481,249"/>
<path vector-effect="non-scaling-stroke" fill-rule="evenodd" d="M531,214 L667,214 L667,215 L531,215 L531,214"/>
<path vector-effect="non-scaling-stroke" fill-rule="evenodd" d="M531,249 L667,249 L667,250 L531,250 L531,249"/>
<path vector-effect="non-scaling-stroke" fill-rule="evenodd" d="M667,214 L753,214 L753,215 L667,215 L667,214"/>
<path vector-effect="non-scaling-stroke" fill-rule="evenodd" d="M667,249 L753,249 L753,250 L667,250 L667,249"/>
<path vector-effect="non-scaling-stroke" fill-rule="evenodd" d="M753,214 L807,214 L807,215 L753,215 L753,214"/>
<path vector-effect="non-scaling-stroke" fill-rule="evenodd" d="M753,249 L807,249 L807,250 L753,250 L753,249"/>
<path vector-effect="non-scaling-stroke" fill-rule="evenodd" d="M807,214 L858,214 L858,215 L807,215 L807,214"/>
<path vector-effect="non-scaling-stroke" fill-rule="evenodd" d="M807,249 L858,249 L858,250 L807,250 L807,249"/>
<path vector-effect="non-scaling-stroke" fill-rule="evenodd" d="M166,249 L252,249 L252,250 L166,250 L166,249"/>
<path vector-effect="non-scaling-stroke" fill-rule="evenodd" d="M166,284 L252,284 L252,285 L166,285 L166,284"/>
<path vector-effect="non-scaling-stroke" fill-rule="evenodd" d="M252,249 L336,249 L336,250 L252,250 L252,249"/>
<path vector-effect="non-scaling-stroke" fill-rule="evenodd" d="M252,284 L336,284 L336,285 L252,285 L252,284"/>
<path vector-effect="non-scaling-stroke" fill-rule="evenodd" d="M336,249 L389,249 L389,250 L336,250 L336,249"/>
<path vector-effect="non-scaling-stroke" fill-rule="evenodd" d="M336,284 L389,284 L389,285 L336,285 L336,284"/>
<path vector-effect="non-scaling-stroke" fill-rule="evenodd" d="M389,249 L481,249 L481,250 L389,250 L389,249"/>
<path vector-effect="non-scaling-stroke" fill-rule="evenodd" d="M389,284 L481,284 L481,285 L389,285 L389,284"/>
<path vector-effect="non-scaling-stroke" fill-rule="evenodd" d="M481,249 L531,249 L531,250 L481,250 L481,249"/>
<path vector-effect="non-scaling-stroke" fill-rule="evenodd" d="M481,284 L531,284 L531,285 L481,285 L481,284"/>
<path vector-effect="non-scaling-stroke" fill-rule="evenodd" d="M531,249 L667,249 L667,250 L531,250 L531,249"/>
<path vector-effect="non-scaling-stroke" fill-rule="evenodd" d="M531,284 L667,284 L667,285 L531,285 L531,284"/>
<path vector-effect="non-scaling-stroke" fill-rule="evenodd" d="M667,249 L753,249 L753,250 L667,250 L667,249"/>
<path vector-effect="non-scaling-stroke" fill-rule="evenodd" d="M667,284 L753,284 L753,285 L667,285 L667,284"/>
<path vector-effect="non-scaling-stroke" fill-rule="evenodd" d="M753,249 L807,249 L807,250 L753,250 L753,249"/>
<path vector-effect="non-scaling-stroke" fill-rule="evenodd" d="M753,284 L807,284 L807,285 L753,285 L753,284"/>
<path vector-effect="non-scaling-stroke" fill-rule="evenodd" d="M807,249 L858,249 L858,250 L807,250 L807,249"/>
<path vector-effect="non-scaling-stroke" fill-rule="evenodd" d="M807,284 L858,284 L858,285 L807,285 L807,284"/>
<path vector-effect="non-scaling-stroke" fill-rule="evenodd" d="M166,284 L252,284 L252,285 L166,285 L166,284"/>
<path vector-effect="non-scaling-stroke" fill-rule="evenodd" d="M252,284 L336,284 L336,285 L252,285 L252,284"/>
<path vector-effect="non-scaling-stroke" fill-rule="evenodd" d="M336,284 L389,284 L389,285 L336,285 L336,284"/>
<path vector-effect="non-scaling-stroke" fill-rule="evenodd" d="M389,284 L481,284 L481,285 L389,285 L389,284"/>
<path vector-effect="non-scaling-stroke" fill-rule="evenodd" d="M481,284 L531,284 L531,285 L481,285 L481,284"/>
<path vector-effect="non-scaling-stroke" fill-rule="evenodd" d="M531,284 L667,284 L667,285 L531,285 L531,284"/>
<path vector-effect="non-scaling-stroke" fill-rule="evenodd" d="M667,284 L753,284 L753,285 L667,285 L667,284"/>
<path vector-effect="non-scaling-stroke" fill-rule="evenodd" d="M753,284 L807,284 L807,285 L753,285 L753,284"/>
<path vector-effect="non-scaling-stroke" fill-rule="evenodd" d="M807,284 L858,284 L858,285 L807,285 L807,284"/>
</g>

<g fill="#d3d3d3" fill-opacity="1" stroke="none" transform="matrix(1,0,0,1,0,0)"
font-family="Helvetica" font-size="12" font-weight="400" font-style="normal" 
>
<path vector-effect="non-scaling-stroke" fill-rule="evenodd" d="M166,8 L252,8 L252,10 L166,10 L166,8"/>
<path vector-effect="non-scaling-stroke" fill-rule="evenodd" d="M166,38 L252,38 L252,40 L166,40 L166,38"/>
<path vector-effect="non-scaling-stroke" fill-rule="evenodd" d="M252,8 L336,8 L336,10 L252,10 L252,8"/>
<path vector-effect="non-scaling-stroke" fill-rule="evenodd" d="M252,38 L336,38 L336,40 L252,40 L252,38"/>
<path vector-effect="non-scaling-stroke" fill-rule="evenodd" d="M336,8 L389,8 L389,10 L336,10 L336,8"/>
<path vector-effect="non-scaling-stroke" fill-rule="evenodd" d="M336,38 L389,38 L389,40 L336,40 L336,38"/>
<path vector-effect="non-scaling-stroke" fill-rule="evenodd" d="M389,8 L481,8 L481,10 L389,10 L389,8"/>
<path vector-effect="non-scaling-stroke" fill-rule="evenodd" d="M389,38 L481,38 L481,40 L389,40 L389,38"/>
<path vector-effect="non-scaling-stroke" fill-rule="evenodd" d="M481,8 L531,8 L531,10 L481,10 L481,8"/>
<path vector-effect="non-scaling-stroke" fill-rule="evenodd" d="M481,38 L531,38 L531,40 L481,40 L481,38"/>
<path vector-effect="non-scaling-stroke" fill-rule="evenodd" d="M531,8 L667,8 L667,10 L531,10 L531,8"/>
<path vector-effect="non-scaling-stroke" fill-rule="evenodd" d="M531,38 L667,38 L667,40 L531,40 L531,38"/>
<path vector-effect="non-scaling-stroke" fill-rule="evenodd" d="M667,8 L753,8 L753,10 L667,10 L667,8"/>
<path vector-effect="non-scaling-stroke" fill-rule="evenodd" d="M667,38 L753,38 L753,40 L667,40 L667,38"/>
<path vector-effect="non-scaling-stroke" fill-rule="evenodd" d="M753,8 L807,8 L807,10 L753,10 L753,8"/>
<path vector-effect="non-scaling-stroke" fill-rule="evenodd" d="M753,38 L807,38 L807,40 L753,40 L753,38"/>
<path vector-effect="non-scaling-stroke" fill-rule="evenodd" d="M807,8 L858,8 L858,10 L807,10 L807,8"/>
<path vector-effect="non-scaling-stroke" fill-rule="evenodd" d="M807,38 L858,38 L858,40 L807,40 L807,38"/>
<path vector-effect="non-scaling-stroke" fill-rule="evenodd" d="M166,38 L252,38 L252,40 L166,40 L166,38"/>
<path vector-effect="non-scaling-stroke" fill-rule="evenodd" d="M252,38 L336,38 L336,40 L252,40 L252,38"/>
<path vector-effect="non-scaling-stroke" fill-rule="evenodd" d="M336,38 L389,38 L389,40 L336,40 L336,38"/>
<path vector-effect="non-scaling-stroke" fill-rule="evenodd" d="M389,38 L481,38 L481,40 L389,40 L389,38"/>
<path vector-effect="non-scaling-stroke" fill-rule="evenodd" d="M481,38 L531,38 L531,40 L481,40 L481,38"/>
<path vector-effect="non-scaling-stroke" fill-rule="evenodd" d="M531,38 L667,38 L667,40 L531,40 L531,38"/>
<path vector-effect="non-scaling-stroke" fill-rule="evenodd" d="M667,38 L753,38 L753,40 L667,40 L667,38"/>
<path vector-effect="non-scaling-stroke" fill-rule="evenodd" d="M753,38 L807,38 L807,40 L753,40 L753,38"/>
<path vector-effect="non-scaling-stroke" fill-rule="evenodd" d="M807,38 L858,38 L858,40 L807,40 L807,38"/>
<path vector-effect="non-scaling-stroke" fill-rule="evenodd" d="M166,319 L252,319 L252,321 L166,321 L166,319"/>
<path vector-effect="non-scaling-stroke" fill-rule="evenodd" d="M252,319 L336,319 L336,321 L252,321 L252,319"/>
<path vector-effect="non-scaling-stroke" fill-rule="evenodd" d="M336,319 L389,319 L389,321 L336,321 L336,319"/>
<path vector-effect="non-scaling-stroke" fill-rule="evenodd" d="M389,319 L481,319 L481,321 L389,321 L389,319"/>
<path vector-effect="non-scaling-stroke" fill-rule="evenodd" d="M481,319 L531,319 L531,321 L481,321 L481,319"/>
<path vector-effect="non-scaling-stroke" fill-rule="evenodd" d="M531,319 L667,319 L667,321 L531,321 L531,319"/>
<path vector-effect="non-scaling-stroke" fill-rule="evenodd" d="M667,319 L753,319 L753,321 L667,321 L667,319"/>
<path vector-effect="non-scaling-stroke" fill-rule="evenodd" d="M753,319 L807,319 L807,321 L753,321 L753,319"/>
<path vector-effect="non-scaling-stroke" fill-rule="evenodd" d="M807,319 L858,319 L858,321 L807,321 L807,319"/>
</g>

<g fill="#333333" fill-opacity="1" stroke="#333333" stroke-opacity="1" stroke-width="1" stroke-linecap="square" stroke-linejoin="bevel" transform="matrix(1,0,0,1,0,0)"
font-family="Arial" font-size="16" font-weight="400" font-style="normal" 
>
<text fill="#333333" fill-opacity="1" stroke="none" xml:space="preserve" x="216" y="29" font-family="Arial" font-size="16" font-weight="400" font-style="normal" 
 >num</text>
<text fill="#333333" fill-opacity="1" stroke="none" xml:space="preserve" x="257" y="29" font-family="Arial" font-size="16" font-weight="400" font-style="normal" 
 >char</text>
<text fill="#333333" fill-opacity="1" stroke="none" xml:space="preserve" x="352" y="29" font-family="Arial" font-size="16" font-weight="400" font-style="normal" 
 >fctr</text>
<text fill="#333333" fill-opacity="1" stroke="none" xml:space="preserve" x="394" y="29" font-family="Arial" font-size="16" font-weight="400" font-style="normal" 
 >date</text>
<text fill="#333333" fill-opacity="1" stroke="none" xml:space="preserve" x="486" y="29" font-family="Arial" font-size="16" font-weight="400" font-style="normal" 
 >time</text>
<text fill="#333333" fill-opacity="1" stroke="none" xml:space="preserve" x="536" y="29" font-family="Arial" font-size="16" font-weight="400" font-style="normal" 
 >datetime</text>
<text fill="#333333" fill-opacity="1" stroke="none" xml:space="preserve" x="687" y="29" font-family="Arial" font-size="16" font-weight="400" font-style="normal" 
 >currency</text>
<text fill="#333333" fill-opacity="1" stroke="none" xml:space="preserve" x="758" y="29" font-family="Arial" font-size="16" font-weight="400" font-style="normal" 
 >row</text>
<text fill="#333333" fill-opacity="1" stroke="none" xml:space="preserve" x="812" y="29" font-family="Arial" font-size="16" font-weight="400" font-style="normal" 
 >group</text>
<text fill="#333333" fill-opacity="1" stroke="none" xml:space="preserve" x="175" y="62" font-family="Arial" font-size="16" font-weight="400" font-style="normal" 
 >1.111e-01</text>
<text fill="#333333" fill-opacity="1" stroke="none" xml:space="preserve" x="257" y="62" font-family="Arial" font-size="16" font-weight="400" font-style="normal" 
 >apricot</text>
<text fill="#333333" fill-opacity="1" stroke="none" xml:space="preserve" x="349" y="62" font-family="Arial" font-size="16" font-weight="400" font-style="normal" 
 >one</text>
<text fill="#333333" fill-opacity="1" stroke="none" xml:space="preserve" x="394" y="62" font-family="Arial" font-size="16" font-weight="400" font-style="normal" 
 >2015-01-15</text>
<text fill="#333333" fill-opacity="1" stroke="none" xml:space="preserve" x="486" y="62" font-family="Arial" font-size="16" font-weight="400" font-style="normal" 
 >13:35</text>
<text fill="#333333" fill-opacity="1" stroke="none" xml:space="preserve" x="536" y="62" font-family="Arial" font-size="16" font-weight="400" font-style="normal" 
 >2018-01-01 02:22</text>
<text fill="#333333" fill-opacity="1" stroke="none" xml:space="preserve" x="699" y="62" font-family="Arial" font-size="16" font-weight="400" font-style="normal" 
 >49.950</text>
<text fill="#333333" fill-opacity="1" stroke="none" xml:space="preserve" x="758" y="62" font-family="Arial" font-size="16" font-weight="400" font-style="normal" 
 >row_1</text>
<text fill="#333333" fill-opacity="1" stroke="none" xml:space="preserve" x="812" y="62" font-family="Arial" font-size="16" font-weight="400" font-style="normal" 
 >grp_a</text>
<text fill="#333333" fill-opacity="1" stroke="none" xml:space="preserve" x="171" y="97" font-family="Arial" font-size="16" font-weight="400" font-style="normal" 
 >2.222e+00</text>
<text fill="#333333" fill-opacity="1" stroke="none" xml:space="preserve" x="257" y="97" font-family="Arial" font-size="16" font-weight="400" font-style="normal" 
 >banana</text>
<text fill="#333333" fill-opacity="1" stroke="none" xml:space="preserve" x="350" y="97" font-family="Arial" font-size="16" font-weight="400" font-style="normal" 
 >two</text>
<text fill="#333333" fill-opacity="1" stroke="none" xml:space="preserve" x="394" y="97" font-family="Arial" font-size="16" font-weight="400" font-style="normal" 
 >2015-02-15</text>
<text fill="#333333" fill-opacity="1" stroke="none" xml:space="preserve" x="486" y="97" font-family="Arial" font-size="16" font-weight="400" font-style="normal" 
 >14:40</text>
<text fill="#333333" fill-opacity="1" stroke="none" xml:space="preserve" x="536" y="97" font-family="Arial" font-size="16" font-weight="400" font-style="normal" 
 >2018-02-02 14:33</text>
<text fill="#333333" fill-opacity="1" stroke="none" xml:space="preserve" x="699" y="97" font-family="Arial" font-size="16" font-weight="400" font-style="normal" 
 >17.950</text>
<text fill="#333333" fill-opacity="1" stroke="none" xml:space="preserve" x="758" y="97" font-family="Arial" font-size="16" font-weight="400" font-style="normal" 
 >row_2</text>
<text fill="#333333" fill-opacity="1" stroke="none" xml:space="preserve" x="812" y="97" font-family="Arial" font-size="16" font-weight="400" font-style="normal" 
 >grp_a</text>
<text fill="#333333" fill-opacity="1" stroke="none" xml:space="preserve" x="171" y="132" font-family="Arial" font-size="16" font-weight="400" font-style="normal" 
 >3.333e+01</text>
<text fill="#333333" fill-opacity="1" stroke="none" xml:space="preserve" x="257" y="132" font-family="Arial" font-size="16" font-weight="400" font-style="normal" 
 >coconut</text>
<text fill="#333333" fill-opacity="1" stroke="none" xml:space="preserve" x="344.5" y="132" font-family="Arial" font-size="16" font-weight="400" font-style="normal" 
 >three</text>
<text fill="#333333" fill-opacity="1" stroke="none" xml:space="preserve" x="394" y="132" font-family="Arial" font-size="16" font-weight="400" font-style="normal" 
 >2015-03-15</text>
<text fill="#333333" fill-opacity="1" stroke="none" xml:space="preserve" x="486" y="132" font-family="Arial" font-size="16" font-weight="400" font-style="normal" 
 >15:45</text>
<text fill="#333333" fill-opacity="1" stroke="none" xml:space="preserve" x="536" y="132" font-family="Arial" font-size="16" font-weight="400" font-style="normal" 
 >2018-03-03 03:44</text>
<text fill="#333333" fill-opacity="1" stroke="none" xml:space="preserve" x="708" y="132" font-family="Arial" font-size="16" font-weight="400" font-style="normal" 
 >1.390</text>
<text fill="#333333" fill-opacity="1" stroke="none" xml:space="preserve" x="758" y="132" font-family="Arial" font-size="16" font-weight="400" font-style="normal" 
 >row_3</text>
<text fill="#333333" fill-opacity="1" stroke="none" xml:space="preserve" x="812" y="132" font-family="Arial" font-size="16" font-weight="400" font-style="normal" 
 >grp_a</text>
<text fill="#333333" fill-opacity="1" stroke="none" xml:space="preserve" x="171" y="167" font-family="Arial" font-size="16" font-weight="400" font-style="normal" 
 >4.444e+02</text>
<text fill="#333333" fill-opacity="1" stroke="none" xml:space="preserve" x="257" y="167" font-family="Arial" font-size="16" font-weight="400" font-style="normal" 
 >durian</text>
<text fill="#333333" fill-opacity="1" stroke="none" xml:space="preserve" x="349" y="167" font-family="Arial" font-size="16" font-weight="400" font-style="normal" 
 >four</text>
<text fill="#333333" fill-opacity="1" stroke="none" xml:space="preserve" x="394" y="167" font-family="Arial" font-size="16" font-weight="400" font-style="normal" 
 >2015-04-15</text>
<text fill="#333333" fill-opacity="1" stroke="none" xml:space="preserve" x="486" y="167" font-family="Arial" font-size="16" font-weight="400" font-style="normal" 
 >16:50</text>
<text fill="#333333" fill-opacity="1" stroke="none" xml:space="preserve" x="536" y="167" font-family="Arial" font-size="16" font-weight="400" font-style="normal" 
 >2018-04-04 15:55</text>
<text fill="#333333" fill-opacity="1" stroke="none" xml:space="preserve" x="672" y="167" font-family="Arial" font-size="16" font-weight="400" font-style="normal" 
 >65100.000</text>
<text fill="#333333" fill-opacity="1" stroke="none" xml:space="preserve" x="758" y="167" font-family="Arial" font-size="16" font-weight="400" font-style="normal" 
 >row_4</text>
<text fill="#333333" fill-opacity="1" stroke="none" xml:space="preserve" x="812" y="167" font-family="Arial" font-size="16" font-weight="400" font-style="normal" 
 >grp_a</text>
<text fill="#333333" fill-opacity="1" stroke="none" xml:space="preserve" x="171" y="202" font-family="Arial" font-size="16" font-weight="400" font-style="normal" 
 >5.550e+03</text>
<text fill="#333333" fill-opacity="1" stroke="none" xml:space="preserve" x="257" y="202" font-family="Arial" font-size="16" font-weight="400" font-style="normal" 
 >NA</text>
<text fill="#333333" fill-opacity="1" stroke="none" xml:space="preserve" x="350" y="202" font-family="Arial" font-size="16" font-weight="400" font-style="normal" 
 >five</text>
<text fill="#333333" fill-opacity="1" stroke="none" xml:space="preserve" x="394" y="202" font-family="Arial" font-size="16" font-weight="400" font-style="normal" 
 >2015-05-15</text>
<text fill="#333333" fill-opacity="1" stroke="none" xml:space="preserve" x="486" y="202" font-family="Arial" font-size="16" font-weight="400" font-style="normal" 
 >17:55</text>
<text fill="#333333" fill-opacity="1" stroke="none" xml:space="preserve" x="536" y="202" font-family="Arial" font-size="16" font-weight="400" font-style="normal" 
 >2018-05-05 04:00</text>
<text fill="#333333" fill-opacity="1" stroke="none" xml:space="preserve" x="681" y="202" font-family="Arial" font-size="16" font-weight="400" font-style="normal" 
 >1325.810</text>
<text fill="#333333" fill-opacity="1" stroke="none" xml:space="preserve" x="758" y="202" font-family="Arial" font-size="16" font-weight="400" font-style="normal" 
 >row_5</text>
<text fill="#333333" fill-opacity="1" stroke="none" xml:space="preserve" x="812" y="202" font-family="Arial" font-size="16" font-weight="400" font-style="normal" 
 >grp_b</text>
<text fill="#333333" fill-opacity="1" stroke="none" xml:space="preserve" x="224" y="237" font-family="Arial" font-size="16" font-weight="400" font-style="normal" 
 >NA</text>
<text fill="#333333" fill-opacity="1" stroke="none" xml:space="preserve" x="257" y="237" font-family="Arial" font-size="16" font-weight="400" font-style="normal" 
 >fig</text>
<text fill="#333333" fill-opacity="1" stroke="none" xml:space="preserve" x="352.5" y="237" font-family="Arial" font-size="16" font-weight="400" font-style="normal" 
 >six</text>
<text fill="#333333" fill-opacity="1" stroke="none" xml:space="preserve" x="394" y="237" font-family="Arial" font-size="16" font-weight="400" font-style="normal" 
 >2015-06-15</text>
<text fill="#333333" fill-opacity="1" stroke="none" xml:space="preserve" x="486" y="237" font-family="Arial" font-size="16" font-weight="400" font-style="normal" 
 >NA</text>
<text fill="#333333" fill-opacity="1" stroke="none" xml:space="preserve" x="536" y="237" font-family="Arial" font-size="16" font-weight="400" font-style="normal" 
 >2018-06-06 16:11</text>
<text fill="#333333" fill-opacity="1" stroke="none" xml:space="preserve" x="699" y="237" font-family="Arial" font-size="16" font-weight="400" font-style="normal" 
 >13.255</text>
<text fill="#333333" fill-opacity="1" stroke="none" xml:space="preserve" x="758" y="237" font-family="Arial" font-size="16" font-weight="400" font-style="normal" 
 >row_6</text>
<text fill="#333333" fill-opacity="1" stroke="none" xml:space="preserve" x="812" y="237" font-family="Arial" font-size="16" font-weight="400" font-style="normal" 
 >grp_b</text>
<text fill="#333333" fill-opacity="1" stroke="none" xml:space="preserve" x="171" y="272" font-family="Arial" font-size="16" font-weight="400" font-style="normal" 
 >7.770e+05</text>
<text fill="#333333" fill-opacity="1" stroke="none" xml:space="preserve" x="257" y="272" font-family="Arial" font-size="16" font-weight="400" font-style="normal" 
 >grapefruit</text>
<text fill="#333333" fill-opacity="1" stroke="none" xml:space="preserve" x="341" y="272" font-family="Arial" font-size="16" font-weight="400" font-style="normal" 
 >seven</text>
<text fill="#333333" fill-opacity="1" stroke="none" xml:space="preserve" x="394" y="272" font-family="Arial" font-size="16" font-weight="400" font-style="normal" 
 >NA</text>
<text fill="#333333" fill-opacity="1" stroke="none" xml:space="preserve" x="486" y="272" font-family="Arial" font-size="16" font-weight="400" font-style="normal" 
 >19:10</text>
<text fill="#333333" fill-opacity="1" stroke="none" xml:space="preserve" x="536" y="272" font-family="Arial" font-size="16" font-weight="400" font-style="normal" 
 >2018-07-07 05:22</text>
<text fill="#333333" fill-opacity="1" stroke="none" xml:space="preserve" x="725" y="272" font-family="Arial" font-size="16" font-weight="400" font-style="normal" 
 >NA</text>
<text fill="#333333" fill-opacity="1" stroke="none" xml:space="preserve" x="758" y="272" font-family="Arial" font-size="16" font-weight="400" font-style="normal" 
 >row_7</text>
<text fill="#333333" fill-opacity="1" stroke="none" xml:space="preserve" x="812" y="272" font-family="Arial" font-size="16" font-weight="400" font-style="normal" 
 >grp_b</text>
<text fill="#333333" fill-opacity="1" stroke="none" xml:space="preserve" x="171" y="307" font-family="Arial" font-size="16" font-weight="400" font-style="normal" 
 >8.880e+06</text>
<text fill="#333333" fill-opacity="1" stroke="none" xml:space="preserve" x="257" y="307" font-family="Arial" font-size="16" font-weight="400" font-style="normal" 
 >honeydew</text>
<text fill="#333333" fill-opacity="1" stroke="none" xml:space="preserve" x="345" y="307" font-family="Arial" font-size="16" font-weight="400" font-style="normal" 
 >eight</text>
<text fill="#333333" fill-opacity="1" stroke="none" xml:space="preserve" x="394" y="307" font-family="Arial" font-size="16" font-weight="400" font-style="normal" 
 >2015-08-15</text>
<text fill="#333333" fill-opacity="1" stroke="none" xml:space="preserve" x="486" y="307" font-family="Arial" font-size="16" font-weight="400" font-style="normal" 
 >20:20</text>
<text fill="#333333" fill-opacity="1" stroke="none" xml:space="preserve" x="536" y="307" font-family="Arial" font-size="16" font-weight="400" font-style="normal" 
 >NA</text>
<text fill="#333333" fill-opacity="1" stroke="none" xml:space="preserve" x="708" y="307" font-family="Arial" font-size="16" font-weight="400" font-style="normal" 
 >0.440</text>
<text fill="#333333" fill-opacity="1" stroke="none" xml:space="preserve" x="758" y="307" font-family="Arial" font-size="16" font-weight="400" font-style="normal" 
 >row_8</text>
<text fill="#333333" fill-opacity="1" stroke="none" xml:space="preserve" x="812" y="307" font-family="Arial" font-size="16" font-weight="400" font-style="normal" 
 >grp_b</text>
</g>
</g>
</svg>
