<?xml version="1.0" encoding="UTF-8" standalone="no"?>
<svg width="361.244mm" height="246.239mm"
 viewBox="0 0 1024 698"
 xmlns="http://www.w3.org/2000/svg" xmlns:xlink="http://www.w3.org/1999/xlink"  version="1.2" baseProfile="tiny">
<title>Qt Svg Document</title>
<desc>Generated with Qt</desc>
<defs>
</defs>
<g fill="none" stroke="black" stroke-width="1" fill-rule="evenodd" stroke-linecap="square" stroke-linejoin="bevel" >

<g fill="#ffffff" fill-opacity="1" stroke="none" transform="matrix(1,0,0,1,0,0)"
font-family="Helvetica" font-size="12" font-weight="400" font-style="normal" 
>
<path vector-effect="non-scaling-stroke" fill-rule="evenodd" d="M0,0 L1024,0 L1024,698 L0,698 L0,0"/>
<path vector-effect="non-scaling-stroke" fill-rule="evenodd" d="M0,0 L1024,0 L1024,698 L0,698 L0,0"/>
<path vector-effect="non-scaling-stroke" fill-rule="evenodd" d="M0,0 L1024,0 L1024,698 L0,698 L0,0"/>
<path vector-effect="non-scaling-stroke" fill-rule="evenodd" d="M301,8 L722,8 L722,690 L301,690 L301,8"/>
<path vector-effect="non-scaling-stroke" fill-rule="evenodd" d="M301,9 L409,9 L409,49 L301,49 L301,9"/>
<path vector-effect="non-scaling-stroke" fill-rule="evenodd" d="M409,9 L488,9 L488,49 L409,49 L409,9"/>
<path vector-effect="non-scaling-stroke" fill-rule="evenodd" d="M488,9 L566,9 L566,49 L488,49 L488,9"/>
<path vector-effect="non-scaling-stroke" fill-rule="evenodd" d="M566,9 L644,9 L644,49 L566,49 L566,9"/>
<path vector-effect="non-scaling-stroke" fill-rule="evenodd" d="M644,9 L722,9 L722,49 L644,49 L644,9"/>
<path vector-effect="non-scaling-stroke" fill-rule="evenodd" d="M301,49 L722,49 L722,85 L301,85 L301,49"/>
</g>

<g fill="#f2f2f2" fill-opacity="1" stroke="none" transform="matrix(1,0,0,1,0,0)"
font-family="Helvetica" font-size="12" font-weight="400" font-style="normal" 
>
<path vector-effect="non-scaling-stroke" fill-rule="evenodd" d="M301,85 L409,85 L409,124 L301,124 L301,85"/>
</g>

<g fill="#ffffff" fill-opacity="1" stroke="none" transform="matrix(1,0,0,1,0,0)"
font-family="Helvetica" font-size="12" font-weight="400" font-style="normal" 
>
<path vector-effect="non-scaling-stroke" fill-rule="evenodd" d="M301,85 L409,85 L409,124 L301,124 L301,85"/>
</g>

<g fill="#f2f2f2" fill-opacity="1" stroke="none" transform="matrix(1,0,0,1,0,0)"
font-family="Helvetica" font-size="12" font-weight="400" font-style="normal" 
>
<path vector-effect="non-scaling-stroke" fill-rule="evenodd" d="M409,85 L488,85 L488,124 L409,124 L409,85"/>
<path vector-effect="non-scaling-stroke" fill-rule="evenodd" d="M488,85 L566,85 L566,124 L488,124 L488,85"/>
<path vector-effect="non-scaling-stroke" fill-rule="evenodd" d="M566,85 L644,85 L644,124 L566,124 L566,85"/>
<path vector-effect="non-scaling-stroke" fill-rule="evenodd" d="M644,85 L722,85 L722,124 L644,124 L644,85"/>
</g>

<g fill="#ffffff" fill-opacity="1" stroke="none" transform="matrix(1,0,0,1,0,0)"
font-family="Helvetica" font-size="12" font-weight="400" font-style="normal" 
>
<path vector-effect="non-scaling-stroke" fill-rule="evenodd" d="M301,124 L409,124 L409,162 L301,162 L301,124"/>
</g>

<g fill="#f2f2f2" fill-opacity="1" stroke="none" transform="matrix(1,0,0,1,0,0)"
font-family="Helvetica" font-size="12" font-weight="400" font-style="normal" 
>
<path vector-effect="non-scaling-stroke" fill-rule="evenodd" d="M301,162 L409,162 L409,200 L301,200 L301,162"/>
</g>

<g fill="#ffffff" fill-opacity="1" stroke="none" transform="matrix(1,0,0,1,0,0)"
font-family="Helvetica" font-size="12" font-weight="400" font-style="normal" 
>
<path vector-effect="non-scaling-stroke" fill-rule="evenodd" d="M301,162 L409,162 L409,200 L301,200 L301,162"/>
</g>

<g fill="#f2f2f2" fill-opacity="1" stroke="none" transform="matrix(1,0,0,1,0,0)"
font-family="Helvetica" font-size="12" font-weight="400" font-style="normal" 
>
<path vector-effect="non-scaling-stroke" fill-rule="evenodd" d="M409,162 L488,162 L488,200 L409,200 L409,162"/>
<path vector-effect="non-scaling-stroke" fill-rule="evenodd" d="M488,162 L566,162 L566,200 L488,200 L488,162"/>
<path vector-effect="non-scaling-stroke" fill-rule="evenodd" d="M566,162 L644,162 L644,200 L566,200 L566,162"/>
<path vector-effect="non-scaling-stroke" fill-rule="evenodd" d="M644,162 L722,162 L722,200 L644,200 L644,162"/>
</g>

<g fill="#ffffff" fill-opacity="1" stroke="none" transform="matrix(1,0,0,1,0,0)"
font-family="Helvetica" font-size="12" font-weight="400" font-style="normal" 
>
<path vector-effect="non-scaling-stroke" fill-rule="evenodd" d="M301,200 L409,200 L409,238 L301,238 L301,200"/>
</g>

<g fill="#f2f2f2" fill-opacity="1" stroke="none" transform="matrix(1,0,0,1,0,0)"
font-family="Helvetica" font-size="12" font-weight="400" font-style="normal" 
>
<path vector-effect="non-scaling-stroke" fill-rule="evenodd" d="M301,238 L409,238 L409,277 L301,277 L301,238"/>
</g>

<g fill="#ffffff" fill-opacity="1" stroke="none" transform="matrix(1,0,0,1,0,0)"
font-family="Helvetica" font-size="12" font-weight="400" font-style="normal" 
>
<path vector-effect="non-scaling-stroke" fill-rule="evenodd" d="M301,238 L409,238 L409,277 L301,277 L301,238"/>
</g>

<g fill="#f2f2f2" fill-opacity="1" stroke="none" transform="matrix(1,0,0,1,0,0)"
font-family="Helvetica" font-size="12" font-weight="400" font-style="normal" 
>
<path vector-effect="non-scaling-stroke" fill-rule="evenodd" d="M409,238 L488,238 L488,277 L409,277 L409,238"/>
<path vector-effect="non-scaling-stroke" fill-rule="evenodd" d="M488,238 L566,238 L566,277 L488,277 L488,238"/>
<path vector-effect="non-scaling-stroke" fill-rule="evenodd" d="M566,238 L644,238 L644,277 L566,277 L566,238"/>
<path vector-effect="non-scaling-stroke" fill-rule="evenodd" d="M644,238 L722,238 L722,277 L644,277 L644,238"/>
</g>

<g fill="#ffffff" fill-opacity="1" stroke="none" transform="matrix(1,0,0,1,0,0)"
font-family="Helvetica" font-size="12" font-weight="400" font-style="normal" 
>
<path vector-effect="non-scaling-stroke" fill-rule="evenodd" d="M301,277 L409,277 L409,308 L301,308 L301,277"/>
<path vector-effect="non-scaling-stroke" fill-rule="evenodd" d="M409,277 L488,277 L488,308 L409,308 L409,277"/>
<path vector-effect="non-scaling-stroke" fill-rule="evenodd" d="M488,277 L566,277 L566,308 L488,308 L488,277"/>
<path vector-effect="non-scaling-stroke" fill-rule="evenodd" d="M566,277 L644,277 L644,308 L566,308 L566,277"/>
<path vector-effect="non-scaling-stroke" fill-rule="evenodd" d="M644,277 L722,277 L722,308 L644,308 L644,277"/>
</g>

<g fill="#f2f2f2" fill-opacity="1" stroke="none" transform="matrix(1,0,0,1,0,0)"
font-family="Helvetica" font-size="12" font-weight="400" font-style="normal" 
>
<path vector-effect="non-scaling-stroke" fill-rule="evenodd" d="M301,308 L409,308 L409,338 L301,338 L301,308"/>
</g>

<g fill="#ffffff" fill-opacity="1" stroke="none" transform="matrix(1,0,0,1,0,0)"
font-family="Helvetica" font-size="12" font-weight="400" font-style="normal" 
>
<path vector-effect="non-scaling-stroke" fill-rule="evenodd" d="M301,308 L409,308 L409,338 L301,338 L301,308"/>
</g>

<g fill="#f2f2f2" fill-opacity="1" stroke="none" transform="matrix(1,0,0,1,0,0)"
font-family="Helvetica" font-size="12" font-weight="400" font-style="normal" 
>
<path vector-effect="non-scaling-stroke" fill-rule="evenodd" d="M409,308 L488,308 L488,338 L409,338 L409,308"/>
</g>

<g fill="#ffffff" fill-opacity="1" stroke="none" transform="matrix(1,0,0,1,0,0)"
font-family="Helvetica" font-size="12" font-weight="400" font-style="normal" 
>
<path vector-effect="non-scaling-stroke" fill-rule="evenodd" d="M409,308 L488,308 L488,338 L409,338 L409,308"/>
</g>

<g fill="#f2f2f2" fill-opacity="1" stroke="none" transform="matrix(1,0,0,1,0,0)"
font-family="Helvetica" font-size="12" font-weight="400" font-style="normal" 
>
<path vector-effect="non-scaling-stroke" fill-rule="evenodd" d="M488,308 L566,308 L566,338 L488,338 L488,308"/>
</g>

<g fill="#ffffff" fill-opacity="1" stroke="none" transform="matrix(1,0,0,1,0,0)"
font-family="Helvetica" font-size="12" font-weight="400" font-style="normal" 
>
<path vector-effect="non-scaling-stroke" fill-rule="evenodd" d="M488,308 L566,308 L566,338 L488,338 L488,308"/>
</g>

<g fill="#f2f2f2" fill-opacity="1" stroke="none" transform="matrix(1,0,0,1,0,0)"
font-family="Helvetica" font-size="12" font-weight="400" font-style="normal" 
>
<path vector-effect="non-scaling-stroke" fill-rule="evenodd" d="M566,308 L644,308 L644,338 L566,338 L566,308"/>
</g>

<g fill="#ffffff" fill-opacity="1" stroke="none" transform="matrix(1,0,0,1,0,0)"
font-family="Helvetica" font-size="12" font-weight="400" font-style="normal" 
>
<path vector-effect="non-scaling-stroke" fill-rule="evenodd" d="M566,308 L644,308 L644,338 L566,338 L566,308"/>
</g>

<g fill="#f2f2f2" fill-opacity="1" stroke="none" transform="matrix(1,0,0,1,0,0)"
font-family="Helvetica" font-size="12" font-weight="400" font-style="normal" 
>
<path vector-effect="non-scaling-stroke" fill-rule="evenodd" d="M644,308 L722,308 L722,338 L644,338 L644,308"/>
</g>

<g fill="#ffffff" fill-opacity="1" stroke="none" transform="matrix(1,0,0,1,0,0)"
font-family="Helvetica" font-size="12" font-weight="400" font-style="normal" 
>
<path vector-effect="non-scaling-stroke" fill-rule="evenodd" d="M644,308 L722,308 L722,338 L644,338 L644,308"/>
<path vector-effect="non-scaling-stroke" fill-rule="evenodd" d="M301,338 L409,338 L409,369 L301,369 L301,338"/>
<path vector-effect="non-scaling-stroke" fill-rule="evenodd" d="M409,338 L488,338 L488,369 L409,369 L409,338"/>
<path vector-effect="non-scaling-stroke" fill-rule="evenodd" d="M488,338 L566,338 L566,369 L488,369 L488,338"/>
<path vector-effect="non-scaling-stroke" fill-rule="evenodd" d="M566,338 L644,338 L644,369 L566,369 L566,338"/>
<path vector-effect="non-scaling-stroke" fill-rule="evenodd" d="M644,338 L722,338 L722,369 L644,369 L644,338"/>
</g>

<g fill="#f2f2f2" fill-opacity="1" stroke="none" transform="matrix(1,0,0,1,0,0)"
font-family="Helvetica" font-size="12" font-weight="400" font-style="normal" 
>
<path vector-effect="non-scaling-stroke" fill-rule="evenodd" d="M301,369 L722,369 L722,405 L301,405 L301,369"/>
</g>

<g fill="#ffffff" fill-opacity="1" stroke="none" transform="matrix(1,0,0,1,0,0)"
font-family="Helvetica" font-size="12" font-weight="400" font-style="normal" 
>
<path vector-effect="non-scaling-stroke" fill-rule="evenodd" d="M301,369 L722,369 L722,405 L301,405 L301,369"/>
<path vector-effect="non-scaling-stroke" fill-rule="evenodd" d="M301,405 L409,405 L409,444 L301,444 L301,405"/>
</g>

<g fill="#f2f2f2" fill-opacity="1" stroke="none" transform="matrix(1,0,0,1,0,0)"
font-family="Helvetica" font-size="12" font-weight="400" font-style="normal" 
>
<path vector-effect="non-scaling-stroke" fill-rule="evenodd" d="M301,444 L409,444 L409,482 L301,482 L301,444"/>
</g>

<g fill="#ffffff" fill-opacity="1" stroke="none" transform="matrix(1,0,0,1,0,0)"
font-family="Helvetica" font-size="12" font-weight="400" font-style="normal" 
>
<path vector-effect="non-scaling-stroke" fill-rule="evenodd" d="M301,444 L409,444 L409,482 L301,482 L301,444"/>
</g>

<g fill="#f2f2f2" fill-opacity="1" stroke="none" transform="matrix(1,0,0,1,0,0)"
font-family="Helvetica" font-size="12" font-weight="400" font-style="normal" 
>
<path vector-effect="non-scaling-stroke" fill-rule="evenodd" d="M409,444 L488,444 L488,482 L409,482 L409,444"/>
<path vector-effect="non-scaling-stroke" fill-rule="evenodd" d="M488,444 L566,444 L566,482 L488,482 L488,444"/>
<path vector-effect="non-scaling-stroke" fill-rule="evenodd" d="M566,444 L644,444 L644,482 L566,482 L566,444"/>
<path vector-effect="non-scaling-stroke" fill-rule="evenodd" d="M644,444 L722,444 L722,482 L644,482 L644,444"/>
</g>

<g fill="#ffffff" fill-opacity="1" stroke="none" transform="matrix(1,0,0,1,0,0)"
font-family="Helvetica" font-size="12" font-weight="400" font-style="normal" 
>
<path vector-effect="non-scaling-stroke" fill-rule="evenodd" d="M301,482 L409,482 L409,520 L301,520 L301,482"/>
</g>

<g fill="#f2f2f2" fill-opacity="1" stroke="none" transform="matrix(1,0,0,1,0,0)"
font-family="Helvetica" font-size="12" font-weight="400" font-style="normal" 
>
<path vector-effect="non-scaling-stroke" fill-rule="evenodd" d="M301,520 L409,520 L409,558 L301,558 L301,520"/>
</g>

<g fill="#ffffff" fill-opacity="1" stroke="none" transform="matrix(1,0,0,1,0,0)"
font-family="Helvetica" font-size="12" font-weight="400" font-style="normal" 
>
<path vector-effect="non-scaling-stroke" fill-rule="evenodd" d="M301,520 L409,520 L409,558 L301,558 L301,520"/>
</g>

<g fill="#f2f2f2" fill-opacity="1" stroke="none" transform="matrix(1,0,0,1,0,0)"
font-family="Helvetica" font-size="12" font-weight="400" font-style="normal" 
>
<path vector-effect="non-scaling-stroke" fill-rule="evenodd" d="M409,520 L488,520 L488,558 L409,558 L409,520"/>
<path vector-effect="non-scaling-stroke" fill-rule="evenodd" d="M488,520 L566,520 L566,558 L488,558 L488,520"/>
<path vector-effect="non-scaling-stroke" fill-rule="evenodd" d="M566,520 L644,520 L644,558 L566,558 L566,520"/>
<path vector-effect="non-scaling-stroke" fill-rule="evenodd" d="M644,520 L722,520 L722,558 L644,558 L644,520"/>
</g>

<g fill="#ffffff" fill-opacity="1" stroke="none" transform="matrix(1,0,0,1,0,0)"
font-family="Helvetica" font-size="12" font-weight="400" font-style="normal" 
>
<path vector-effect="non-scaling-stroke" fill-rule="evenodd" d="M301,558 L409,558 L409,597 L301,597 L301,558"/>
</g>

<g fill="#f2f2f2" fill-opacity="1" stroke="none" transform="matrix(1,0,0,1,0,0)"
font-family="Helvetica" font-size="12" font-weight="400" font-style="normal" 
>
<path vector-effect="non-scaling-stroke" fill-rule="evenodd" d="M301,597 L409,597 L409,628 L301,628 L301,597"/>
</g>

<g fill="#ffffff" fill-opacity="1" stroke="none" transform="matrix(1,0,0,1,0,0)"
font-family="Helvetica" font-size="12" font-weight="400" font-style="normal" 
>
<path vector-effect="non-scaling-stroke" fill-rule="evenodd" d="M301,597 L409,597 L409,628 L301,628 L301,597"/>
</g>

<g fill="#f2f2f2" fill-opacity="1" stroke="none" transform="matrix(1,0,0,1,0,0)"
font-family="Helvetica" font-size="12" font-weight="400" font-style="normal" 
>
<path vector-effect="non-scaling-stroke" fill-rule="evenodd" d="M409,597 L488,597 L488,628 L409,628 L409,597"/>
</g>

<g fill="#ffffff" fill-opacity="1" stroke="none" transform="matrix(1,0,0,1,0,0)"
font-family="Helvetica" font-size="12" font-weight="400" font-style="normal" 
>
<path vector-effect="non-scaling-stroke" fill-rule="evenodd" d="M409,597 L488,597 L488,628 L409,628 L409,597"/>
</g>

<g fill="#f2f2f2" fill-opacity="1" stroke="none" transform="matrix(1,0,0,1,0,0)"
font-family="Helvetica" font-size="12" font-weight="400" font-style="normal" 
>
<path vector-effect="non-scaling-stroke" fill-rule="evenodd" d="M488,597 L566,597 L566,628 L488,628 L488,597"/>
</g>

<g fill="#ffffff" fill-opacity="1" stroke="none" transform="matrix(1,0,0,1,0,0)"
font-family="Helvetica" font-size="12" font-weight="400" font-style="normal" 
>
<path vector-effect="non-scaling-stroke" fill-rule="evenodd" d="M488,597 L566,597 L566,628 L488,628 L488,597"/>
</g>

<g fill="#f2f2f2" fill-opacity="1" stroke="none" transform="matrix(1,0,0,1,0,0)"
font-family="Helvetica" font-size="12" font-weight="400" font-style="normal" 
>
<path vector-effect="non-scaling-stroke" fill-rule="evenodd" d="M566,597 L644,597 L644,628 L566,628 L566,597"/>
</g>

<g fill="#ffffff" fill-opacity="1" stroke="none" transform="matrix(1,0,0,1,0,0)"
font-family="Helvetica" font-size="12" font-weight="400" font-style="normal" 
>
<path vector-effect="non-scaling-stroke" fill-rule="evenodd" d="M566,597 L644,597 L644,628 L566,628 L566,597"/>
</g>

<g fill="#f2f2f2" fill-opacity="1" stroke="none" transform="matrix(1,0,0,1,0,0)"
font-family="Helvetica" font-size="12" font-weight="400" font-style="normal" 
>
<path vector-effect="non-scaling-stroke" fill-rule="evenodd" d="M644,597 L722,597 L722,628 L644,628 L644,597"/>
</g>

<g fill="#ffffff" fill-opacity="1" stroke="none" transform="matrix(1,0,0,1,0,0)"
font-family="Helvetica" font-size="12" font-weight="400" font-style="normal" 
>
<path vector-effect="non-scaling-stroke" fill-rule="evenodd" d="M644,597 L722,597 L722,628 L644,628 L644,597"/>
<path vector-effect="non-scaling-stroke" fill-rule="evenodd" d="M301,628 L409,628 L409,658 L301,658 L301,628"/>
<path vector-effect="non-scaling-stroke" fill-rule="evenodd" d="M409,628 L488,628 L488,658 L409,658 L409,628"/>
<path vector-effect="non-scaling-stroke" fill-rule="evenodd" d="M488,628 L566,628 L566,658 L488,658 L488,628"/>
<path vector-effect="non-scaling-stroke" fill-rule="evenodd" d="M566,628 L644,628 L644,658 L566,658 L566,628"/>
<path vector-effect="non-scaling-stroke" fill-rule="evenodd" d="M644,628 L722,628 L722,658 L644,658 L644,628"/>
</g>

<g fill="#f2f2f2" fill-opacity="1" stroke="none" transform="matrix(1,0,0,1,0,0)"
font-family="Helvetica" font-size="12" font-weight="400" font-style="normal" 
>
<path vector-effect="non-scaling-stroke" fill-rule="evenodd" d="M301,658 L409,658 L409,689 L301,689 L301,658"/>
</g>

<g fill="#ffffff" fill-opacity="1" stroke="none" transform="matrix(1,0,0,1,0,0)"
font-family="Helvetica" font-size="12" font-weight="400" font-style="normal" 
>
<path vector-effect="non-scaling-stroke" fill-rule="evenodd" d="M301,658 L409,658 L409,689 L301,689 L301,658"/>
</g>

<g fill="#f2f2f2" fill-opacity="1" stroke="none" transform="matrix(1,0,0,1,0,0)"
font-family="Helvetica" font-size="12" font-weight="400" font-style="normal" 
>
<path vector-effect="non-scaling-stroke" fill-rule="evenodd" d="M409,658 L488,658 L488,689 L409,689 L409,658"/>
</g>

<g fill="#ffffff" fill-opacity="1" stroke="none" transform="matrix(1,0,0,1,0,0)"
font-family="Helvetica" font-size="12" font-weight="400" font-style="normal" 
>
<path vector-effect="non-scaling-stroke" fill-rule="evenodd" d="M409,658 L488,658 L488,689 L409,689 L409,658"/>
</g>

<g fill="#f2f2f2" fill-opacity="1" stroke="none" transform="matrix(1,0,0,1,0,0)"
font-family="Helvetica" font-size="12" font-weight="400" font-style="normal" 
>
<path vector-effect="non-scaling-stroke" fill-rule="evenodd" d="M488,658 L566,658 L566,689 L488,689 L488,658"/>
</g>

<g fill="#ffffff" fill-opacity="1" stroke="none" transform="matrix(1,0,0,1,0,0)"
font-family="Helvetica" font-size="12" font-weight="400" font-style="normal" 
>
<path vector-effect="non-scaling-stroke" fill-rule="evenodd" d="M488,658 L566,658 L566,689 L488,689 L488,658"/>
</g>

<g fill="#f2f2f2" fill-opacity="1" stroke="none" transform="matrix(1,0,0,1,0,0)"
font-family="Helvetica" font-size="12" font-weight="400" font-style="normal" 
>
<path vector-effect="non-scaling-stroke" fill-rule="evenodd" d="M566,658 L644,658 L644,689 L566,689 L566,658"/>
</g>

<g fill="#ffffff" fill-opacity="1" stroke="none" transform="matrix(1,0,0,1,0,0)"
font-family="Helvetica" font-size="12" font-weight="400" font-style="normal" 
>
<path vector-effect="non-scaling-stroke" fill-rule="evenodd" d="M566,658 L644,658 L644,689 L566,689 L566,658"/>
</g>

<g fill="#f2f2f2" fill-opacity="1" stroke="none" transform="matrix(1,0,0,1,0,0)"
font-family="Helvetica" font-size="12" font-weight="400" font-style="normal" 
>
<path vector-effect="non-scaling-stroke" fill-rule="evenodd" d="M644,658 L722,658 L722,689 L644,689 L644,658"/>
</g>

<g fill="#ffffff" fill-opacity="1" stroke="none" transform="matrix(1,0,0,1,0,0)"
font-family="Helvetica" font-size="12" font-weight="400" font-style="normal" 
>
<path vector-effect="non-scaling-stroke" fill-rule="evenodd" d="M644,658 L722,658 L722,689 L644,689 L644,658"/>
</g>

<g fill="#a8a8a8" fill-opacity="1" stroke="none" transform="matrix(1,0,0,1,0,0)"
font-family="Helvetica" font-size="12" font-weight="400" font-style="normal" 
>
<path vector-effect="non-scaling-stroke" fill-rule="evenodd" d="M301,8 L409,8 L409,10 L301,10 L301,8"/>
<path vector-effect="non-scaling-stroke" fill-rule="evenodd" d="M409,8 L488,8 L488,10 L409,10 L409,8"/>
<path vector-effect="non-scaling-stroke" fill-rule="evenodd" d="M488,8 L566,8 L566,10 L488,10 L488,8"/>
<path vector-effect="non-scaling-stroke" fill-rule="evenodd" d="M566,8 L644,8 L644,10 L566,10 L566,8"/>
<path vector-effect="non-scaling-stroke" fill-rule="evenodd" d="M644,8 L722,8 L722,10 L644,10 L644,8"/>
<path vector-effect="non-scaling-stroke" fill-rule="evenodd" d="M301,688 L410,688 L410,690 L301,690 L301,688"/>
<path vector-effect="non-scaling-stroke" fill-rule="evenodd" d="M408,688 L488,688 L488,690 L408,690 L408,688"/>
<path vector-effect="non-scaling-stroke" fill-rule="evenodd" d="M488,688 L566,688 L566,690 L488,690 L488,688"/>
<path vector-effect="non-scaling-stroke" fill-rule="evenodd" d="M566,688 L644,688 L644,690 L566,690 L566,688"/>
<path vector-effect="non-scaling-stroke" fill-rule="evenodd" d="M644,688 L722,688 L722,690 L644,690 L644,688"/>
<path vector-effect="non-scaling-stroke" fill-rule="evenodd" d="M301,48 L409,48 L409,50 L301,50 L301,48"/>
<path vector-effect="non-scaling-stroke" fill-rule="evenodd" d="M409,48 L488,48 L488,50 L409,50 L409,48"/>
<path vector-effect="non-scaling-stroke" fill-rule="evenodd" d="M488,48 L566,48 L566,50 L488,50 L488,48"/>
<path vector-effect="non-scaling-stroke" fill-rule="evenodd" d="M566,48 L644,48 L644,50 L566,50 L566,48"/>
<path vector-effect="non-scaling-stroke" fill-rule="evenodd" d="M644,48 L722,48 L722,50 L644,50 L644,48"/>
<path vector-effect="non-scaling-stroke" fill-rule="evenodd" d="M301,48 L722,48 L722,50 L301,50 L301,48"/>
<path vector-effect="non-scaling-stroke" fill-rule="evenodd" d="M301,84 L722,84 L722,86 L301,86 L301,84"/>
<path vector-effect="non-scaling-stroke" fill-rule="evenodd" d="M301,84 L410,84 L410,86 L301,86 L301,84"/>
<path vector-effect="non-scaling-stroke" fill-rule="evenodd" d="M408,84 L410,84 L410,124 L408,124 L408,84"/>
<path vector-effect="non-scaling-stroke" fill-rule="evenodd" d="M408,84 L488,84 L488,86 L408,86 L408,84"/>
<path vector-effect="non-scaling-stroke" fill-rule="evenodd" d="M408,84 L410,84 L410,124 L408,124 L408,84"/>
<path vector-effect="non-scaling-stroke" fill-rule="evenodd" d="M488,84 L566,84 L566,86 L488,86 L488,84"/>
<path vector-effect="non-scaling-stroke" fill-rule="evenodd" d="M566,84 L644,84 L644,86 L566,86 L566,84"/>
<path vector-effect="non-scaling-stroke" fill-rule="evenodd" d="M644,84 L722,84 L722,86 L644,86 L644,84"/>
<path vector-effect="non-scaling-stroke" fill-rule="evenodd" d="M408,124 L410,124 L410,162 L408,162 L408,124"/>
<path vector-effect="non-scaling-stroke" fill-rule="evenodd" d="M408,124 L410,124 L410,162 L408,162 L408,124"/>
<path vector-effect="non-scaling-stroke" fill-rule="evenodd" d="M408,162 L410,162 L410,200 L408,200 L408,162"/>
<path vector-effect="non-scaling-stroke" fill-rule="evenodd" d="M408,162 L410,162 L410,200 L408,200 L408,162"/>
<path vector-effect="non-scaling-stroke" fill-rule="evenodd" d="M408,200 L410,200 L410,238 L408,238 L408,200"/>
<path vector-effect="non-scaling-stroke" fill-rule="evenodd" d="M408,200 L410,200 L410,238 L408,238 L408,200"/>
<path vector-effect="non-scaling-stroke" fill-rule="evenodd" d="M301,276 L410,276 L410,278 L301,278 L301,276"/>
<path vector-effect="non-scaling-stroke" fill-rule="evenodd" d="M408,238 L410,238 L410,278 L408,278 L408,238"/>
<path vector-effect="non-scaling-stroke" fill-rule="evenodd" d="M408,276 L488,276 L488,278 L408,278 L408,276"/>
<path vector-effect="non-scaling-stroke" fill-rule="evenodd" d="M408,238 L410,238 L410,278 L408,278 L408,238"/>
<path vector-effect="non-scaling-stroke" fill-rule="evenodd" d="M488,276 L566,276 L566,278 L488,278 L488,276"/>
<path vector-effect="non-scaling-stroke" fill-rule="evenodd" d="M566,276 L644,276 L644,278 L566,278 L566,276"/>
<path vector-effect="non-scaling-stroke" fill-rule="evenodd" d="M644,276 L722,276 L722,278 L644,278 L644,276"/>
<path vector-effect="non-scaling-stroke" fill-rule="evenodd" d="M301,276 L410,276 L410,278 L301,278 L301,276"/>
<path vector-effect="non-scaling-stroke" fill-rule="evenodd" d="M408,276 L410,276 L410,308 L408,308 L408,276"/>
<path vector-effect="non-scaling-stroke" fill-rule="evenodd" d="M408,276 L488,276 L488,278 L408,278 L408,276"/>
<path vector-effect="non-scaling-stroke" fill-rule="evenodd" d="M408,276 L410,276 L410,308 L408,308 L408,276"/>
<path vector-effect="non-scaling-stroke" fill-rule="evenodd" d="M488,276 L566,276 L566,278 L488,278 L488,276"/>
<path vector-effect="non-scaling-stroke" fill-rule="evenodd" d="M566,276 L644,276 L644,278 L566,278 L566,276"/>
<path vector-effect="non-scaling-stroke" fill-rule="evenodd" d="M644,276 L722,276 L722,278 L644,278 L644,276"/>
<path vector-effect="non-scaling-stroke" fill-rule="evenodd" d="M408,308 L410,308 L410,338 L408,338 L408,308"/>
<path vector-effect="non-scaling-stroke" fill-rule="evenodd" d="M408,308 L410,308 L410,338 L408,338 L408,308"/>
<path vector-effect="non-scaling-stroke" fill-rule="evenodd" d="M301,368 L410,368 L410,370 L301,370 L301,368"/>
<path vector-effect="non-scaling-stroke" fill-rule="evenodd" d="M408,338 L410,338 L410,370 L408,370 L408,338"/>
<path vector-effect="non-scaling-stroke" fill-rule="evenodd" d="M408,368 L488,368 L488,370 L408,370 L408,368"/>
<path vector-effect="non-scaling-stroke" fill-rule="evenodd" d="M408,338 L410,338 L410,370 L408,370 L408,338"/>
<path vector-effect="non-scaling-stroke" fill-rule="evenodd" d="M488,368 L566,368 L566,370 L488,370 L488,368"/>
<path vector-effect="non-scaling-stroke" fill-rule="evenodd" d="M566,368 L644,368 L644,370 L566,370 L566,368"/>
<path vector-effect="non-scaling-stroke" fill-rule="evenodd" d="M644,368 L722,368 L722,370 L644,370 L644,368"/>
<path vector-effect="non-scaling-stroke" fill-rule="evenodd" d="M301,368 L722,368 L722,370 L301,370 L301,368"/>
<path vector-effect="non-scaling-stroke" fill-rule="evenodd" d="M301,404 L722,404 L722,406 L301,406 L301,404"/>
<path vector-effect="non-scaling-stroke" fill-rule="evenodd" d="M301,404 L410,404 L410,406 L301,406 L301,404"/>
<path vector-effect="non-scaling-stroke" fill-rule="evenodd" d="M408,404 L410,404 L410,444 L408,444 L408,404"/>
<path vector-effect="non-scaling-stroke" fill-rule="evenodd" d="M408,404 L488,404 L488,406 L408,406 L408,404"/>
<path vector-effect="non-scaling-stroke" fill-rule="evenodd" d="M408,404 L410,404 L410,444 L408,444 L408,404"/>
<path vector-effect="non-scaling-stroke" fill-rule="evenodd" d="M488,404 L566,404 L566,406 L488,406 L488,404"/>
<path vector-effect="non-scaling-stroke" fill-rule="evenodd" d="M566,404 L644,404 L644,406 L566,406 L566,404"/>
<path vector-effect="non-scaling-stroke" fill-rule="evenodd" d="M644,404 L722,404 L722,406 L644,406 L644,404"/>
<path vector-effect="non-scaling-stroke" fill-rule="evenodd" d="M408,444 L410,444 L410,482 L408,482 L408,444"/>
<path vector-effect="non-scaling-stroke" fill-rule="evenodd" d="M408,444 L410,444 L410,482 L408,482 L408,444"/>
<path vector-effect="non-scaling-stroke" fill-rule="evenodd" d="M408,482 L410,482 L410,520 L408,520 L408,482"/>
<path vector-effect="non-scaling-stroke" fill-rule="evenodd" d="M408,482 L410,482 L410,520 L408,520 L408,482"/>
<path vector-effect="non-scaling-stroke" fill-rule="evenodd" d="M408,520 L410,520 L410,558 L408,558 L408,520"/>
<path vector-effect="non-scaling-stroke" fill-rule="evenodd" d="M408,520 L410,520 L410,558 L408,558 L408,520"/>
<path vector-effect="non-scaling-stroke" fill-rule="evenodd" d="M301,596 L410,596 L410,598 L301,598 L301,596"/>
<path vector-effect="non-scaling-stroke" fill-rule="evenodd" d="M408,558 L410,558 L410,598 L408,598 L408,558"/>
<path vector-effect="non-scaling-stroke" fill-rule="evenodd" d="M408,596 L488,596 L488,598 L408,598 L408,596"/>
<path vector-effect="non-scaling-stroke" fill-rule="evenodd" d="M408,558 L410,558 L410,598 L408,598 L408,558"/>
<path vector-effect="non-scaling-stroke" fill-rule="evenodd" d="M488,596 L566,596 L566,598 L488,598 L488,596"/>
<path vector-effect="non-scaling-stroke" fill-rule="evenodd" d="M566,596 L644,596 L644,598 L566,598 L566,596"/>
<path vector-effect="non-scaling-stroke" fill-rule="evenodd" d="M644,596 L722,596 L722,598 L644,598 L644,596"/>
<path vector-effect="non-scaling-stroke" fill-rule="evenodd" d="M301,596 L410,596 L410,598 L301,598 L301,596"/>
<path vector-effect="non-scaling-stroke" fill-rule="evenodd" d="M408,596 L410,596 L410,628 L408,628 L408,596"/>
<path vector-effect="non-scaling-stroke" fill-rule="evenodd" d="M408,596 L488,596 L488,598 L408,598 L408,596"/>
<path vector-effect="non-scaling-stroke" fill-rule="evenodd" d="M408,596 L410,596 L410,628 L408,628 L408,596"/>
<path vector-effect="non-scaling-stroke" fill-rule="evenodd" d="M488,596 L566,596 L566,598 L488,598 L488,596"/>
<path vector-effect="non-scaling-stroke" fill-rule="evenodd" d="M566,596 L644,596 L644,598 L566,598 L566,596"/>
<path vector-effect="non-scaling-stroke" fill-rule="evenodd" d="M644,596 L722,596 L722,598 L644,598 L644,596"/>
<path vector-effect="non-scaling-stroke" fill-rule="evenodd" d="M408,628 L410,628 L410,658 L408,658 L408,628"/>
<path vector-effect="non-scaling-stroke" fill-rule="evenodd" d="M408,628 L410,628 L410,658 L408,658 L408,628"/>
<path vector-effect="non-scaling-stroke" fill-rule="evenodd" d="M408,658 L410,658 L410,690 L408,690 L408,658"/>
<path vector-effect="non-scaling-stroke" fill-rule="evenodd" d="M408,658 L410,658 L410,690 L408,690 L408,658"/>
</g>

<g fill="#000000" fill-opacity="1" stroke="#000000" stroke-opacity="1" stroke-width="1" stroke-linecap="square" stroke-linejoin="bevel" transform="matrix(1,0,0,1,0,0)"
font-family="Arial" font-size="16" font-weight="400" font-style="normal" 
>
<text fill="#000000" fill-opacity="1" stroke="none" xml:space="preserve" x="442" y="34" font-family="Arial" font-size="16" font-weight="400" font-style="normal" 
 >open</text>
<text fill="#000000" fill-opacity="1" stroke="none" xml:space="preserve" x="525" y="34" font-family="Arial" font-size="16" font-weight="400" font-style="normal" 
 >high</text>
<text fill="#000000" fill-opacity="1" stroke="none" xml:space="preserve" x="609" y="34" font-family="Arial" font-size="16" font-weight="400" font-style="normal" 
 >low</text>
<text fill="#000000" fill-opacity="1" stroke="none" xml:space="preserve" x="674" y="34" font-family="Arial" font-size="16" font-weight="400" font-style="normal" 
 >close</text>
<text fill="#000000" fill-opacity="1" stroke="none" xml:space="preserve" x="309" y="72" font-family="Arial" font-size="16" font-weight="400" font-style="normal" 
 >W02</text>
<text fill="#000000" fill-opacity="1" stroke="none" xml:space="preserve" x="316" y="110" font-family="Arial" font-size="16" font-weight="400" font-style="normal" 
 >2015-01-05</text>
<text fill="#000000" fill-opacity="1" stroke="none" xml:space="preserve" x="420" y="110" font-family="Arial" font-size="16" font-weight="400" font-style="normal" 
 >2054.44</text>
<text fill="#000000" fill-opacity="1" stroke="none" xml:space="preserve" x="498" y="110" font-family="Arial" font-size="16" font-weight="400" font-style="normal" 
 >2054.44</text>
<text fill="#000000" fill-opacity="1" stroke="none" xml:space="preserve" x="576" y="110" font-family="Arial" font-size="16" font-weight="400" font-style="normal" 
 >2017.34</text>
<text fill="#000000" fill-opacity="1" stroke="none" xml:space="preserve" x="654" y="110" font-family="Arial" font-size="16" font-weight="400" font-style="normal" 
 >2020.58</text>
<text fill="#000000" fill-opacity="1" stroke="none" xml:space="preserve" x="316" y="148" font-family="Arial" font-size="16" font-weight="400" font-style="normal" 
 >2015-01-06</text>
<text fill="#000000" fill-opacity="1" stroke="none" xml:space="preserve" x="420" y="148" font-family="Arial" font-size="16" font-weight="400" font-style="normal" 
 >2022.15</text>
<text fill="#000000" fill-opacity="1" stroke="none" xml:space="preserve" x="498" y="148" font-family="Arial" font-size="16" font-weight="400" font-style="normal" 
 >2030.25</text>
<text fill="#000000" fill-opacity="1" stroke="none" xml:space="preserve" x="576" y="148" font-family="Arial" font-size="16" font-weight="400" font-style="normal" 
 >1992.44</text>
<text fill="#000000" fill-opacity="1" stroke="none" xml:space="preserve" x="654" y="148" font-family="Arial" font-size="16" font-weight="400" font-style="normal" 
 >2002.61</text>
<text fill="#000000" fill-opacity="1" stroke="none" xml:space="preserve" x="316" y="186" font-family="Arial" font-size="16" font-weight="400" font-style="normal" 
 >2015-01-07</text>
<text fill="#000000" fill-opacity="1" stroke="none" xml:space="preserve" x="420" y="186" font-family="Arial" font-size="16" font-weight="400" font-style="normal" 
 >2005.55</text>
<text fill="#000000" fill-opacity="1" stroke="none" xml:space="preserve" x="498" y="186" font-family="Arial" font-size="16" font-weight="400" font-style="normal" 
 >2029.61</text>
<text fill="#000000" fill-opacity="1" stroke="none" xml:space="preserve" x="576" y="186" font-family="Arial" font-size="16" font-weight="400" font-style="normal" 
 >2005.55</text>
<text fill="#000000" fill-opacity="1" stroke="none" xml:space="preserve" x="654" y="186" font-family="Arial" font-size="16" font-weight="400" font-style="normal" 
 >2025.90</text>
<text fill="#000000" fill-opacity="1" stroke="none" xml:space="preserve" x="316" y="224" font-family="Arial" font-size="16" font-weight="400" font-style="normal" 
 >2015-01-08</text>
<text fill="#000000" fill-opacity="1" stroke="none" xml:space="preserve" x="420" y="224" font-family="Arial" font-size="16" font-weight="400" font-style="normal" 
 >2030.61</text>
<text fill="#000000" fill-opacity="1" stroke="none" xml:space="preserve" x="498" y="224" font-family="Arial" font-size="16" font-weight="400" font-style="normal" 
 >2064.08</text>
<text fill="#000000" fill-opacity="1" stroke="none" xml:space="preserve" x="576" y="224" font-family="Arial" font-size="16" font-weight="400" font-style="normal" 
 >2030.61</text>
<text fill="#000000" fill-opacity="1" stroke="none" xml:space="preserve" x="654" y="224" font-family="Arial" font-size="16" font-weight="400" font-style="normal" 
 >2062.14</text>
<text fill="#000000" fill-opacity="1" stroke="none" xml:space="preserve" x="316" y="262" font-family="Arial" font-size="16" font-weight="400" font-style="normal" 
 >2015-01-09</text>
<text fill="#000000" fill-opacity="1" stroke="none" xml:space="preserve" x="420" y="262" font-family="Arial" font-size="16" font-weight="400" font-style="normal" 
 >2063.45</text>
<text fill="#000000" fill-opacity="1" stroke="none" xml:space="preserve" x="498" y="262" font-family="Arial" font-size="16" font-weight="400" font-style="normal" 
 >2064.43</text>
<text fill="#000000" fill-opacity="1" stroke="none" xml:space="preserve" x="576" y="262" font-family="Arial" font-size="16" font-weight="400" font-style="normal" 
 >2038.33</text>
<text fill="#000000" fill-opacity="1" stroke="none" xml:space="preserve" x="654" y="262" font-family="Arial" font-size="16" font-weight="400" font-style="normal" 
 >2044.81</text>
<text fill="#000000" fill-opacity="1" stroke="none" xml:space="preserve" x="312" y="298" font-family="Arial" font-size="16" font-weight="400" font-style="normal" 
 >min</text>
<text fill="#000000" fill-opacity="1" stroke="none" xml:space="preserve" x="424" y="298" font-family="Arial" font-size="16" font-weight="400" font-style="normal" 
 >2005.55</text>
<text fill="#000000" fill-opacity="1" stroke="none" xml:space="preserve" x="502" y="298" font-family="Arial" font-size="16" font-weight="400" font-style="normal" 
 >2029.61</text>
<text fill="#000000" fill-opacity="1" stroke="none" xml:space="preserve" x="580" y="298" font-family="Arial" font-size="16" font-weight="400" font-style="normal" 
 >1992.44</text>
<text fill="#000000" fill-opacity="1" stroke="none" xml:space="preserve" x="658" y="298" font-family="Arial" font-size="16" font-weight="400" font-style="normal" 
 >2002.61</text>
<text fill="#000000" fill-opacity="1" stroke="none" xml:space="preserve" x="312" y="328" font-family="Arial" font-size="16" font-weight="400" font-style="normal" 
 >max</text>
<text fill="#000000" fill-opacity="1" stroke="none" xml:space="preserve" x="424" y="328" font-family="Arial" font-size="16" font-weight="400" font-style="normal" 
 >2063.45</text>
<text fill="#000000" fill-opacity="1" stroke="none" xml:space="preserve" x="502" y="328" font-family="Arial" font-size="16" font-weight="400" font-style="normal" 
 >2064.43</text>
<text fill="#000000" fill-opacity="1" stroke="none" xml:space="preserve" x="580" y="328" font-family="Arial" font-size="16" font-weight="400" font-style="normal" 
 >2038.33</text>
<text fill="#000000" fill-opacity="1" stroke="none" xml:space="preserve" x="658" y="328" font-family="Arial" font-size="16" font-weight="400" font-style="normal" 
 >2062.14</text>
<text fill="#000000" fill-opacity="1" stroke="none" xml:space="preserve" x="312" y="358" font-family="Arial" font-size="16" font-weight="400" font-style="normal" 
 >avg</text>
<text fill="#000000" fill-opacity="1" stroke="none" xml:space="preserve" x="424" y="358" font-family="Arial" font-size="16" font-weight="400" font-style="normal" 
 >2035.24</text>
<text fill="#000000" fill-opacity="1" stroke="none" xml:space="preserve" x="502" y="358" font-family="Arial" font-size="16" font-weight="400" font-style="normal" 
 >2048.56</text>
<text fill="#000000" fill-opacity="1" stroke="none" xml:space="preserve" x="580" y="358" font-family="Arial" font-size="16" font-weight="400" font-style="normal" 
 >2016.85</text>
<text fill="#000000" fill-opacity="1" stroke="none" xml:space="preserve" x="658" y="358" font-family="Arial" font-size="16" font-weight="400" font-style="normal" 
 >2031.21</text>
<text fill="#000000" fill-opacity="1" stroke="none" xml:space="preserve" x="309" y="392" font-family="Arial" font-size="16" font-weight="400" font-style="normal" 
 >W03</text>
<text fill="#000000" fill-opacity="1" stroke="none" xml:space="preserve" x="316" y="430" font-family="Arial" font-size="16" font-weight="400" font-style="normal" 
 >2015-01-12</text>
<text fill="#000000" fill-opacity="1" stroke="none" xml:space="preserve" x="420" y="430" font-family="Arial" font-size="16" font-weight="400" font-style="normal" 
 >2046.13</text>
<text fill="#000000" fill-opacity="1" stroke="none" xml:space="preserve" x="498" y="430" font-family="Arial" font-size="16" font-weight="400" font-style="normal" 
 >2049.30</text>
<text fill="#000000" fill-opacity="1" stroke="none" xml:space="preserve" x="576" y="430" font-family="Arial" font-size="16" font-weight="400" font-style="normal" 
 >2022.58</text>
<text fill="#000000" fill-opacity="1" stroke="none" xml:space="preserve" x="654" y="430" font-family="Arial" font-size="16" font-weight="400" font-style="normal" 
 >2028.26</text>
<text fill="#000000" fill-opacity="1" stroke="none" xml:space="preserve" x="316" y="468" font-family="Arial" font-size="16" font-weight="400" font-style="normal" 
 >2015-01-13</text>
<text fill="#000000" fill-opacity="1" stroke="none" xml:space="preserve" x="420" y="468" font-family="Arial" font-size="16" font-weight="400" font-style="normal" 
 >2031.58</text>
<text fill="#000000" fill-opacity="1" stroke="none" xml:space="preserve" x="498" y="468" font-family="Arial" font-size="16" font-weight="400" font-style="normal" 
 >2056.93</text>
<text fill="#000000" fill-opacity="1" stroke="none" xml:space="preserve" x="576" y="468" font-family="Arial" font-size="16" font-weight="400" font-style="normal" 
 >2008.25</text>
<text fill="#000000" fill-opacity="1" stroke="none" xml:space="preserve" x="654" y="468" font-family="Arial" font-size="16" font-weight="400" font-style="normal" 
 >2023.03</text>
<text fill="#000000" fill-opacity="1" stroke="none" xml:space="preserve" x="316" y="506" font-family="Arial" font-size="16" font-weight="400" font-style="normal" 
 >2015-01-14</text>
<text fill="#000000" fill-opacity="1" stroke="none" xml:space="preserve" x="420" y="506" font-family="Arial" font-size="16" font-weight="400" font-style="normal" 
 >2018.40</text>
<text fill="#000000" fill-opacity="1" stroke="none" xml:space="preserve" x="498" y="506" font-family="Arial" font-size="16" font-weight="400" font-style="normal" 
 >2018.40</text>
<text fill="#000000" fill-opacity="1" stroke="none" xml:space="preserve" x="576" y="506" font-family="Arial" font-size="16" font-weight="400" font-style="normal" 
 >1988.44</text>
<text fill="#000000" fill-opacity="1" stroke="none" xml:space="preserve" x="654" y="506" font-family="Arial" font-size="16" font-weight="400" font-style="normal" 
 >2011.27</text>
<text fill="#000000" fill-opacity="1" stroke="none" xml:space="preserve" x="316" y="544" font-family="Arial" font-size="16" font-weight="400" font-style="normal" 
 >2015-01-15</text>
<text fill="#000000" fill-opacity="1" stroke="none" xml:space="preserve" x="420" y="544" font-family="Arial" font-size="16" font-weight="400" font-style="normal" 
 >2013.75</text>
<text fill="#000000" fill-opacity="1" stroke="none" xml:space="preserve" x="498" y="544" font-family="Arial" font-size="16" font-weight="400" font-style="normal" 
 >2021.35</text>
<text fill="#000000" fill-opacity="1" stroke="none" xml:space="preserve" x="576" y="544" font-family="Arial" font-size="16" font-weight="400" font-style="normal" 
 >1991.47</text>
<text fill="#000000" fill-opacity="1" stroke="none" xml:space="preserve" x="654" y="544" font-family="Arial" font-size="16" font-weight="400" font-style="normal" 
 >1992.67</text>
<text fill="#000000" fill-opacity="1" stroke="none" xml:space="preserve" x="316" y="582" font-family="Arial" font-size="16" font-weight="400" font-style="normal" 
 >2015-01-16</text>
<text fill="#000000" fill-opacity="1" stroke="none" xml:space="preserve" x="420" y="582" font-family="Arial" font-size="16" font-weight="400" font-style="normal" 
 >1992.25</text>
<text fill="#000000" fill-opacity="1" stroke="none" xml:space="preserve" x="498" y="582" font-family="Arial" font-size="16" font-weight="400" font-style="normal" 
 >2020.46</text>
<text fill="#000000" fill-opacity="1" stroke="none" xml:space="preserve" x="576" y="582" font-family="Arial" font-size="16" font-weight="400" font-style="normal" 
 >1988.12</text>
<text fill="#000000" fill-opacity="1" stroke="none" xml:space="preserve" x="654" y="582" font-family="Arial" font-size="16" font-weight="400" font-style="normal" 
 >2019.42</text>
<text fill="#000000" fill-opacity="1" stroke="none" xml:space="preserve" x="312" y="618" font-family="Arial" font-size="16" font-weight="400" font-style="normal" 
 >min</text>
<text fill="#000000" fill-opacity="1" stroke="none" xml:space="preserve" x="424" y="618" font-family="Arial" font-size="16" font-weight="400" font-style="normal" 
 >1992.25</text>
<text fill="#000000" fill-opacity="1" stroke="none" xml:space="preserve" x="502" y="618" font-family="Arial" font-size="16" font-weight="400" font-style="normal" 
 >2018.40</text>
<text fill="#000000" fill-opacity="1" stroke="none" xml:space="preserve" x="580" y="618" font-family="Arial" font-size="16" font-weight="400" font-style="normal" 
 >1988.12</text>
<text fill="#000000" fill-opacity="1" stroke="none" xml:space="preserve" x="658" y="618" font-family="Arial" font-size="16" font-weight="400" font-style="normal" 
 >1992.67</text>
<text fill="#000000" fill-opacity="1" stroke="none" xml:space="preserve" x="312" y="648" font-family="Arial" font-size="16" font-weight="400" font-style="normal" 
 >max</text>
<text fill="#000000" fill-opacity="1" stroke="none" xml:space="preserve" x="424" y="648" font-family="Arial" font-size="16" font-weight="400" font-style="normal" 
 >2046.13</text>
<text fill="#000000" fill-opacity="1" stroke="none" xml:space="preserve" x="502" y="648" font-family="Arial" font-size="16" font-weight="400" font-style="normal" 
 >2056.93</text>
<text fill="#000000" fill-opacity="1" stroke="none" xml:space="preserve" x="580" y="648" font-family="Arial" font-size="16" font-weight="400" font-style="normal" 
 >2022.58</text>
<text fill="#000000" fill-opacity="1" stroke="none" xml:space="preserve" x="658" y="648" font-family="Arial" font-size="16" font-weight="400" font-style="normal" 
 >2028.26</text>
<text fill="#000000" fill-opacity="1" stroke="none" xml:space="preserve" x="312" y="678" font-family="Arial" font-size="16" font-weight="400" font-style="normal" 
 >avg</text>
<text fill="#000000" fill-opacity="1" stroke="none" xml:space="preserve" x="424" y="678" font-family="Arial" font-size="16" font-weight="400" font-style="normal" 
 >2020.42</text>
<text fill="#000000" fill-opacity="1" stroke="none" xml:space="preserve" x="502" y="678" font-family="Arial" font-size="16" font-weight="400" font-style="normal" 
 >2033.29</text>
<text fill="#000000" fill-opacity="1" stroke="none" xml:space="preserve" x="580" y="678" font-family="Arial" font-size="16" font-weight="400" font-style="normal" 
 >1999.77</text>
<text fill="#000000" fill-opacity="1" stroke="none" xml:space="preserve" x="658" y="678" font-family="Arial" font-size="16" font-weight="400" font-style="normal" 
 >2014.93</text>
</g>
</g>
</svg>
