<?xml version="1.0" encoding="UTF-8" standalone="no"?>
<svg width="361.244mm" height="117.828mm"
 viewBox="0 0 1024 334"
 xmlns="http://www.w3.org/2000/svg" xmlns:xlink="http://www.w3.org/1999/xlink"  version="1.2" baseProfile="tiny">
<title>Qt Svg Document</title>
<desc>Generated with Qt</desc>
<defs>
</defs>
<g fill="none" stroke="black" stroke-width="1" fill-rule="evenodd" stroke-linecap="square" stroke-linejoin="bevel" >

<g fill="#ffffff" fill-opacity="1" stroke="none" transform="matrix(1,0,0,1,0,0)"
font-family="Helvetica" font-size="12" font-weight="400" font-style="normal" 
>
<path vector-effect="non-scaling-stroke" fill-rule="evenodd" d="M0,0 L1024,0 L1024,334 L0,334 L0,0"/>
<path vector-effect="non-scaling-stroke" fill-rule="evenodd" d="M0,0 L1024,0 L1024,334 L0,334 L0,0"/>
<path vector-effect="non-scaling-stroke" fill-rule="evenodd" d="M0,0 L1024,0 L1024,334 L0,334 L0,0"/>
<path vector-effect="non-scaling-stroke" fill-rule="evenodd" d="M160,8 L863,8 L863,326 L160,326 L160,8"/>
<path vector-effect="non-scaling-stroke" fill-rule="evenodd" d="M160,9 L246,9 L246,44 L160,44 L160,9"/>
<path vector-effect="non-scaling-stroke" fill-rule="evenodd" d="M246,9 L330,9 L330,44 L246,44 L246,9"/>
<path vector-effect="non-scaling-stroke" fill-rule="evenodd" d="M330,9 L383,9 L383,44 L330,44 L330,9"/>
<path vector-effect="non-scaling-stroke" fill-rule="evenodd" d="M383,9 L475,9 L475,44 L383,44 L383,9"/>
<path vector-effect="non-scaling-stroke" fill-rule="evenodd" d="M475,9 L525,9 L525,44 L475,44 L475,9"/>
<path vector-effect="non-scaling-stroke" fill-rule="evenodd" d="M525,9 L661,9 L661,44 L525,44 L525,9"/>
<path vector-effect="non-scaling-stroke" fill-rule="evenodd" d="M661,9 L748,9 L748,44 L661,44 L661,9"/>
<path vector-effect="non-scaling-stroke" fill-rule="evenodd" d="M748,9 L802,9 L802,44 L748,44 L748,9"/>
<path vector-effect="non-scaling-stroke" fill-rule="evenodd" d="M802,9 L863,9 L863,44 L802,44 L802,9"/>
</g>

<g fill="#808080" fill-opacity="0.0470588" stroke="none" transform="matrix(1,0,0,1,0,0)"
font-family="Helvetica" font-size="12" font-weight="400" font-style="normal" 
>
<path vector-effect="non-scaling-stroke" fill-rule="evenodd" d="M160,79 L246,79 L246,114 L160,114 L160,79"/>
<path vector-effect="non-scaling-stroke" fill-rule="evenodd" d="M246,79 L330,79 L330,114 L246,114 L246,79"/>
<path vector-effect="non-scaling-stroke" fill-rule="evenodd" d="M330,79 L383,79 L383,114 L330,114 L330,79"/>
<path vector-effect="non-scaling-stroke" fill-rule="evenodd" d="M383,79 L475,79 L475,114 L383,114 L383,79"/>
<path vector-effect="non-scaling-stroke" fill-rule="evenodd" d="M475,79 L525,79 L525,114 L475,114 L475,79"/>
<path vector-effect="non-scaling-stroke" fill-rule="evenodd" d="M525,79 L661,79 L661,114 L525,114 L525,79"/>
<path vector-effect="non-scaling-stroke" fill-rule="evenodd" d="M661,79 L748,79 L748,114 L661,114 L661,79"/>
<path vector-effect="non-scaling-stroke" fill-rule="evenodd" d="M748,79 L802,79 L802,114 L748,114 L748,79"/>
<path vector-effect="non-scaling-stroke" fill-rule="evenodd" d="M802,79 L863,79 L863,114 L802,114 L802,79"/>
<path vector-effect="non-scaling-stroke" fill-rule="evenodd" d="M160,149 L246,149 L246,184 L160,184 L160,149"/>
<path vector-effect="non-scaling-stroke" fill-rule="evenodd" d="M246,149 L330,149 L330,184 L246,184 L246,149"/>
<path vector-effect="non-scaling-stroke" fill-rule="evenodd" d="M330,149 L383,149 L383,184 L330,184 L330,149"/>
<path vector-effect="non-scaling-stroke" fill-rule="evenodd" d="M383,149 L475,149 L475,184 L383,184 L383,149"/>
<path vector-effect="non-scaling-stroke" fill-rule="evenodd" d="M475,149 L525,149 L525,184 L475,184 L475,149"/>
<path vector-effect="non-scaling-stroke" fill-rule="evenodd" d="M525,149 L661,149 L661,184 L525,184 L525,149"/>
<path vector-effect="non-scaling-stroke" fill-rule="evenodd" d="M661,149 L748,149 L748,184 L661,184 L661,149"/>
<path vector-effect="non-scaling-stroke" fill-rule="evenodd" d="M748,149 L802,149 L802,184 L748,184 L748,149"/>
<path vector-effect="non-scaling-stroke" fill-rule="evenodd" d="M802,149 L863,149 L863,184 L802,184 L802,149"/>
<path vector-effect="non-scaling-stroke" fill-rule="evenodd" d="M160,219 L246,219 L246,254 L160,254 L160,219"/>
<path vector-effect="non-scaling-stroke" fill-rule="evenodd" d="M246,219 L330,219 L330,254 L246,254 L246,219"/>
<path vector-effect="non-scaling-stroke" fill-rule="evenodd" d="M330,219 L383,219 L383,254 L330,254 L330,219"/>
<path vector-effect="non-scaling-stroke" fill-rule="evenodd" d="M383,219 L475,219 L475,254 L383,254 L383,219"/>
<path vector-effect="non-scaling-stroke" fill-rule="evenodd" d="M475,219 L525,219 L525,254 L475,254 L475,219"/>
<path vector-effect="non-scaling-stroke" fill-rule="evenodd" d="M525,219 L661,219 L661,254 L525,254 L525,219"/>
<path vector-effect="non-scaling-stroke" fill-rule="evenodd" d="M661,219 L748,219 L748,254 L661,254 L661,219"/>
<path vector-effect="non-scaling-stroke" fill-rule="evenodd" d="M748,219 L802,219 L802,254 L748,254 L748,219"/>
<path vector-effect="non-scaling-stroke" fill-rule="evenodd" d="M802,219 L863,219 L863,254 L802,254 L802,219"/>
<path vector-effect="non-scaling-stroke" fill-rule="evenodd" d="M160,289 L246,289 L246,325 L160,325 L160,289"/>
<path vector-effect="non-scaling-stroke" fill-rule="evenodd" d="M246,289 L330,289 L330,325 L246,325 L246,289"/>
<path vector-effect="non-scaling-stroke" fill-rule="evenodd" d="M330,289 L383,289 L383,325 L330,325 L330,289"/>
<path vector-effect="non-scaling-stroke" fill-rule="evenodd" d="M383,289 L475,289 L475,325 L383,325 L383,289"/>
<path vector-effect="non-scaling-stroke" fill-rule="evenodd" d="M475,289 L525,289 L525,325 L475,325 L475,289"/>
<path vector-effect="non-scaling-stroke" fill-rule="evenodd" d="M525,289 L661,289 L661,325 L525,325 L525,289"/>
<path vector-effect="non-scaling-stroke" fill-rule="evenodd" d="M661,289 L748,289 L748,325 L661,325 L661,289"/>
<path vector-effect="non-scaling-stroke" fill-rule="evenodd" d="M748,289 L802,289 L802,325 L748,325 L748,289"/>
<path vector-effect="non-scaling-stroke" fill-rule="evenodd" d="M802,289 L863,289 L863,325 L802,325 L802,289"/>
</g>

<g fill="#d3d3d3" fill-opacity="1" stroke="none" transform="matrix(1,0,0,1,0,0)"
font-family="Helvetica" font-size="12" font-weight="400" font-style="normal" 
>
<path vector-effect="non-scaling-stroke" fill-rule="evenodd" d="M160,79 L246,79 L246,80 L160,80 L160,79"/>
<path vector-effect="non-scaling-stroke" fill-rule="evenodd" d="M246,79 L330,79 L330,80 L246,80 L246,79"/>
<path vector-effect="non-scaling-stroke" fill-rule="evenodd" d="M330,79 L383,79 L383,80 L330,80 L330,79"/>
<path vector-effect="non-scaling-stroke" fill-rule="evenodd" d="M383,79 L475,79 L475,80 L383,80 L383,79"/>
<path vector-effect="non-scaling-stroke" fill-rule="evenodd" d="M475,79 L525,79 L525,80 L475,80 L475,79"/>
<path vector-effect="non-scaling-stroke" fill-rule="evenodd" d="M525,79 L661,79 L661,80 L525,80 L525,79"/>
<path vector-effect="non-scaling-stroke" fill-rule="evenodd" d="M661,79 L748,79 L748,80 L661,80 L661,79"/>
<path vector-effect="non-scaling-stroke" fill-rule="evenodd" d="M748,79 L802,79 L802,80 L748,80 L748,79"/>
<path vector-effect="non-scaling-stroke" fill-rule="evenodd" d="M802,79 L863,79 L863,80 L802,80 L802,79"/>
<path vector-effect="non-scaling-stroke" fill-rule="evenodd" d="M160,79 L246,79 L246,80 L160,80 L160,79"/>
<path vector-effect="non-scaling-stroke" fill-rule="evenodd" d="M160,114 L246,114 L246,115 L160,115 L160,114"/>
<path vector-effect="non-scaling-stroke" fill-rule="evenodd" d="M246,79 L330,79 L330,80 L246,80 L246,79"/>
<path vector-effect="non-scaling-stroke" fill-rule="evenodd" d="M246,114 L330,114 L330,115 L246,115 L246,114"/>
<path vector-effect="non-scaling-stroke" fill-rule="evenodd" d="M330,79 L383,79 L383,80 L330,80 L330,79"/>
<path vector-effect="non-scaling-stroke" fill-rule="evenodd" d="M330,114 L383,114 L383,115 L330,115 L330,114"/>
<path vector-effect="non-scaling-stroke" fill-rule="evenodd" d="M383,79 L475,79 L475,80 L383,80 L383,79"/>
<path vector-effect="non-scaling-stroke" fill-rule="evenodd" d="M383,114 L475,114 L475,115 L383,115 L383,114"/>
<path vector-effect="non-scaling-stroke" fill-rule="evenodd" d="M475,79 L525,79 L525,80 L475,80 L475,79"/>
<path vector-effect="non-scaling-stroke" fill-rule="evenodd" d="M475,114 L525,114 L525,115 L475,115 L475,114"/>
<path vector-effect="non-scaling-stroke" fill-rule="evenodd" d="M525,79 L661,79 L661,80 L525,80 L525,79"/>
<path vector-effect="non-scaling-stroke" fill-rule="evenodd" d="M525,114 L661,114 L661,115 L525,115 L525,114"/>
<path vector-effect="non-scaling-stroke" fill-rule="evenodd" d="M661,79 L748,79 L748,80 L661,80 L661,79"/>
<path vector-effect="non-scaling-stroke" fill-rule="evenodd" d="M661,114 L748,114 L748,115 L661,115 L661,114"/>
<path vector-effect="non-scaling-stroke" fill-rule="evenodd" d="M748,79 L802,79 L802,80 L748,80 L748,79"/>
<path vector-effect="non-scaling-stroke" fill-rule="evenodd" d="M748,114 L802,114 L802,115 L748,115 L748,114"/>
<path vector-effect="non-scaling-stroke" fill-rule="evenodd" d="M802,79 L863,79 L863,80 L802,80 L802,79"/>
<path vector-effect="non-scaling-stroke" fill-rule="evenodd" d="M802,114 L863,114 L863,115 L802,115 L802,114"/>
<path vector-effect="non-scaling-stroke" fill-rule="evenodd" d="M160,114 L246,114 L246,115 L160,115 L160,114"/>
<path vector-effect="non-scaling-stroke" fill-rule="evenodd" d="M160,149 L246,149 L246,150 L160,150 L160,149"/>
<path vector-effect="non-scaling-stroke" fill-rule="evenodd" d="M246,114 L330,114 L330,115 L246,115 L246,114"/>
<path vector-effect="non-scaling-stroke" fill-rule="evenodd" d="M246,149 L330,149 L330,150 L246,150 L246,149"/>
<path vector-effect="non-scaling-stroke" fill-rule="evenodd" d="M330,114 L383,114 L383,115 L330,115 L330,114"/>
<path vector-effect="non-scaling-stroke" fill-rule="evenodd" d="M330,149 L383,149 L383,150 L330,150 L330,149"/>
<path vector-effect="non-scaling-stroke" fill-rule="evenodd" d="M383,114 L475,114 L475,115 L383,115 L383,114"/>
<path vector-effect="non-scaling-stroke" fill-rule="evenodd" d="M383,149 L475,149 L475,150 L383,150 L383,149"/>
<path vector-effect="non-scaling-stroke" fill-rule="evenodd" d="M475,114 L525,114 L525,115 L475,115 L475,114"/>
<path vector-effect="non-scaling-stroke" fill-rule="evenodd" d="M475,149 L525,149 L525,150 L475,150 L475,149"/>
<path vector-effect="non-scaling-stroke" fill-rule="evenodd" d="M525,114 L661,114 L661,115 L525,115 L525,114"/>
<path vector-effect="non-scaling-stroke" fill-rule="evenodd" d="M525,149 L661,149 L661,150 L525,150 L525,149"/>
<path vector-effect="non-scaling-stroke" fill-rule="evenodd" d="M661,114 L748,114 L748,115 L661,115 L661,114"/>
<path vector-effect="non-scaling-stroke" fill-rule="evenodd" d="M661,149 L748,149 L748,150 L661,150 L661,149"/>
<path vector-effect="non-scaling-stroke" fill-rule="evenodd" d="M748,114 L802,114 L802,115 L748,115 L748,114"/>
<path vector-effect="non-scaling-stroke" fill-rule="evenodd" d="M748,149 L802,149 L802,150 L748,150 L748,149"/>
<path vector-effect="non-scaling-stroke" fill-rule="evenodd" d="M802,114 L863,114 L863,115 L802,115 L802,114"/>
<path vector-effect="non-scaling-stroke" fill-rule="evenodd" d="M802,149 L863,149 L863,150 L802,150 L802,149"/>
<path vector-effect="non-scaling-stroke" fill-rule="evenodd" d="M160,149 L246,149 L246,150 L160,150 L160,149"/>
<path vector-effect="non-scaling-stroke" fill-rule="evenodd" d="M160,184 L246,184 L246,185 L160,185 L160,184"/>
<path vector-effect="non-scaling-stroke" fill-rule="evenodd" d="M246,149 L330,149 L330,150 L246,150 L246,149"/>
<path vector-effect="non-scaling-stroke" fill-rule="evenodd" d="M246,184 L330,184 L330,185 L246,185 L246,184"/>
<path vector-effect="non-scaling-stroke" fill-rule="evenodd" d="M330,149 L383,149 L383,150 L330,150 L330,149"/>
<path vector-effect="non-scaling-stroke" fill-rule="evenodd" d="M330,184 L383,184 L383,185 L330,185 L330,184"/>
<path vector-effect="non-scaling-stroke" fill-rule="evenodd" d="M383,149 L475,149 L475,150 L383,150 L383,149"/>
<path vector-effect="non-scaling-stroke" fill-rule="evenodd" d="M383,184 L475,184 L475,185 L383,185 L383,184"/>
<path vector-effect="non-scaling-stroke" fill-rule="evenodd" d="M475,149 L525,149 L525,150 L475,150 L475,149"/>
<path vector-effect="non-scaling-stroke" fill-rule="evenodd" d="M475,184 L525,184 L525,185 L475,185 L475,184"/>
<path vector-effect="non-scaling-stroke" fill-rule="evenodd" d="M525,149 L661,149 L661,150 L525,150 L525,149"/>
<path vector-effect="non-scaling-stroke" fill-rule="evenodd" d="M525,184 L661,184 L661,185 L525,185 L525,184"/>
<path vector-effect="non-scaling-stroke" fill-rule="evenodd" d="M661,149 L748,149 L748,150 L661,150 L661,149"/>
<path vector-effect="non-scaling-stroke" fill-rule="evenodd" d="M661,184 L748,184 L748,185 L661,185 L661,184"/>
<path vector-effect="non-scaling-stroke" fill-rule="evenodd" d="M748,149 L802,149 L802,150 L748,150 L748,149"/>
<path vector-effect="non-scaling-stroke" fill-rule="evenodd" d="M748,184 L802,184 L802,185 L748,185 L748,184"/>
<path vector-effect="non-scaling-stroke" fill-rule="evenodd" d="M802,149 L863,149 L863,150 L802,150 L802,149"/>
<path vector-effect="non-scaling-stroke" fill-rule="evenodd" d="M802,184 L863,184 L863,185 L802,185 L802,184"/>
<path vector-effect="non-scaling-stroke" fill-rule="evenodd" d="M160,184 L246,184 L246,185 L160,185 L160,184"/>
<path vector-effect="non-scaling-stroke" fill-rule="evenodd" d="M160,219 L246,219 L246,220 L160,220 L160,219"/>
<path vector-effect="non-scaling-stroke" fill-rule="evenodd" d="M246,184 L330,184 L330,185 L246,185 L246,184"/>
<path vector-effect="non-scaling-stroke" fill-rule="evenodd" d="M246,219 L330,219 L330,220 L246,220 L246,219"/>
<path vector-effect="non-scaling-stroke" fill-rule="evenodd" d="M330,184 L383,184 L383,185 L330,185 L330,184"/>
<path vector-effect="non-scaling-stroke" fill-rule="evenodd" d="M330,219 L383,219 L383,220 L330,220 L330,219"/>
<path vector-effect="non-scaling-stroke" fill-rule="evenodd" d="M383,184 L475,184 L475,185 L383,185 L383,184"/>
<path vector-effect="non-scaling-stroke" fill-rule="evenodd" d="M383,219 L475,219 L475,220 L383,220 L383,219"/>
<path vector-effect="non-scaling-stroke" fill-rule="evenodd" d="M475,184 L525,184 L525,185 L475,185 L475,184"/>
<path vector-effect="non-scaling-stroke" fill-rule="evenodd" d="M475,219 L525,219 L525,220 L475,220 L475,219"/>
<path vector-effect="non-scaling-stroke" fill-rule="evenodd" d="M525,184 L661,184 L661,185 L525,185 L525,184"/>
<path vector-effect="non-scaling-stroke" fill-rule="evenodd" d="M525,219 L661,219 L661,220 L525,220 L525,219"/>
<path vector-effect="non-scaling-stroke" fill-rule="evenodd" d="M661,184 L748,184 L748,185 L661,185 L661,184"/>
<path vector-effect="non-scaling-stroke" fill-rule="evenodd" d="M661,219 L748,219 L748,220 L661,220 L661,219"/>
<path vector-effect="non-scaling-stroke" fill-rule="evenodd" d="M748,184 L802,184 L802,185 L748,185 L748,184"/>
<path vector-effect="non-scaling-stroke" fill-rule="evenodd" d="M748,219 L802,219 L802,220 L748,220 L748,219"/>
<path vector-effect="non-scaling-stroke" fill-rule="evenodd" d="M802,184 L863,184 L863,185 L802,185 L802,184"/>
<path vector-effect="non-scaling-stroke" fill-rule="evenodd" d="M802,219 L863,219 L863,220 L802,220 L802,219"/>
<path vector-effect="non-scaling-stroke" fill-rule="evenodd" d="M160,219 L246,219 L246,220 L160,220 L160,219"/>
<path vector-effect="non-scaling-stroke" fill-rule="evenodd" d="M160,254 L246,254 L246,255 L160,255 L160,254"/>
<path vector-effect="non-scaling-stroke" fill-rule="evenodd" d="M246,219 L330,219 L330,220 L246,220 L246,219"/>
<path vector-effect="non-scaling-stroke" fill-rule="evenodd" d="M246,254 L330,254 L330,255 L246,255 L246,254"/>
<path vector-effect="non-scaling-stroke" fill-rule="evenodd" d="M330,219 L383,219 L383,220 L330,220 L330,219"/>
<path vector-effect="non-scaling-stroke" fill-rule="evenodd" d="M330,254 L383,254 L383,255 L330,255 L330,254"/>
<path vector-effect="non-scaling-stroke" fill-rule="evenodd" d="M383,219 L475,219 L475,220 L383,220 L383,219"/>
<path vector-effect="non-scaling-stroke" fill-rule="evenodd" d="M383,254 L475,254 L475,255 L383,255 L383,254"/>
<path vector-effect="non-scaling-stroke" fill-rule="evenodd" d="M475,219 L525,219 L525,220 L475,220 L475,219"/>
<path vector-effect="non-scaling-stroke" fill-rule="evenodd" d="M475,254 L525,254 L525,255 L475,255 L475,254"/>
<path vector-effect="non-scaling-stroke" fill-rule="evenodd" d="M525,219 L661,219 L661,220 L525,220 L525,219"/>
<path vector-effect="non-scaling-stroke" fill-rule="evenodd" d="M525,254 L661,254 L661,255 L525,255 L525,254"/>
<path vector-effect="non-scaling-stroke" fill-rule="evenodd" d="M661,219 L748,219 L748,220 L661,220 L661,219"/>
<path vector-effect="non-scaling-stroke" fill-rule="evenodd" d="M661,254 L748,254 L748,255 L661,255 L661,254"/>
<path vector-effect="non-scaling-stroke" fill-rule="evenodd" d="M748,219 L802,219 L802,220 L748,220 L748,219"/>
<path vector-effect="non-scaling-stroke" fill-rule="evenodd" d="M748,254 L802,254 L802,255 L748,255 L748,254"/>
<path vector-effect="non-scaling-stroke" fill-rule="evenodd" d="M802,219 L863,219 L863,220 L802,220 L802,219"/>
<path vector-effect="non-scaling-stroke" fill-rule="evenodd" d="M802,254 L863,254 L863,255 L802,255 L802,254"/>
<path vector-effect="non-scaling-stroke" fill-rule="evenodd" d="M160,254 L246,254 L246,255 L160,255 L160,254"/>
<path vector-effect="non-scaling-stroke" fill-rule="evenodd" d="M160,289 L246,289 L246,290 L160,290 L160,289"/>
<path vector-effect="non-scaling-stroke" fill-rule="evenodd" d="M246,254 L330,254 L330,255 L246,255 L246,254"/>
<path vector-effect="non-scaling-stroke" fill-rule="evenodd" d="M246,289 L330,289 L330,290 L246,290 L246,289"/>
<path vector-effect="non-scaling-stroke" fill-rule="evenodd" d="M330,254 L383,254 L383,255 L330,255 L330,254"/>
<path vector-effect="non-scaling-stroke" fill-rule="evenodd" d="M330,289 L383,289 L383,290 L330,290 L330,289"/>
<path vector-effect="non-scaling-stroke" fill-rule="evenodd" d="M383,254 L475,254 L475,255 L383,255 L383,254"/>
<path vector-effect="non-scaling-stroke" fill-rule="evenodd" d="M383,289 L475,289 L475,290 L383,290 L383,289"/>
<path vector-effect="non-scaling-stroke" fill-rule="evenodd" d="M475,254 L525,254 L525,255 L475,255 L475,254"/>
<path vector-effect="non-scaling-stroke" fill-rule="evenodd" d="M475,289 L525,289 L525,290 L475,290 L475,289"/>
<path vector-effect="non-scaling-stroke" fill-rule="evenodd" d="M525,254 L661,254 L661,255 L525,255 L525,254"/>
<path vector-effect="non-scaling-stroke" fill-rule="evenodd" d="M525,289 L661,289 L661,290 L525,290 L525,289"/>
<path vector-effect="non-scaling-stroke" fill-rule="evenodd" d="M661,254 L748,254 L748,255 L661,255 L661,254"/>
<path vector-effect="non-scaling-stroke" fill-rule="evenodd" d="M661,289 L748,289 L748,290 L661,290 L661,289"/>
<path vector-effect="non-scaling-stroke" fill-rule="evenodd" d="M748,254 L802,254 L802,255 L748,255 L748,254"/>
<path vector-effect="non-scaling-stroke" fill-rule="evenodd" d="M748,289 L802,289 L802,290 L748,290 L748,289"/>
<path vector-effect="non-scaling-stroke" fill-rule="evenodd" d="M802,254 L863,254 L863,255 L802,255 L802,254"/>
<path vector-effect="non-scaling-stroke" fill-rule="evenodd" d="M802,289 L863,289 L863,290 L802,290 L802,289"/>
<path vector-effect="non-scaling-stroke" fill-rule="evenodd" d="M160,289 L246,289 L246,290 L160,290 L160,289"/>
<path vector-effect="non-scaling-stroke" fill-rule="evenodd" d="M246,289 L330,289 L330,290 L246,290 L246,289"/>
<path vector-effect="non-scaling-stroke" fill-rule="evenodd" d="M330,289 L383,289 L383,290 L330,290 L330,289"/>
<path vector-effect="non-scaling-stroke" fill-rule="evenodd" d="M383,289 L475,289 L475,290 L383,290 L383,289"/>
<path vector-effect="non-scaling-stroke" fill-rule="evenodd" d="M475,289 L525,289 L525,290 L475,290 L475,289"/>
<path vector-effect="non-scaling-stroke" fill-rule="evenodd" d="M525,289 L661,289 L661,290 L525,290 L525,289"/>
<path vector-effect="non-scaling-stroke" fill-rule="evenodd" d="M661,289 L748,289 L748,290 L661,290 L661,289"/>
<path vector-effect="non-scaling-stroke" fill-rule="evenodd" d="M748,289 L802,289 L802,290 L748,290 L748,289"/>
<path vector-effect="non-scaling-stroke" fill-rule="evenodd" d="M802,289 L863,289 L863,290 L802,290 L802,289"/>
<path vector-effect="non-scaling-stroke" fill-rule="evenodd" d="M160,8 L246,8 L246,10 L160,10 L160,8"/>
<path vector-effect="non-scaling-stroke" fill-rule="evenodd" d="M160,43 L246,43 L246,45 L160,45 L160,43"/>
<path vector-effect="non-scaling-stroke" fill-rule="evenodd" d="M246,8 L330,8 L330,10 L246,10 L246,8"/>
<path vector-effect="non-scaling-stroke" fill-rule="evenodd" d="M246,43 L330,43 L330,45 L246,45 L246,43"/>
<path vector-effect="non-scaling-stroke" fill-rule="evenodd" d="M330,8 L383,8 L383,10 L330,10 L330,8"/>
<path vector-effect="non-scaling-stroke" fill-rule="evenodd" d="M330,43 L383,43 L383,45 L330,45 L330,43"/>
<path vector-effect="non-scaling-stroke" fill-rule="evenodd" d="M383,8 L475,8 L475,10 L383,10 L383,8"/>
<path vector-effect="non-scaling-stroke" fill-rule="evenodd" d="M383,43 L475,43 L475,45 L383,45 L383,43"/>
<path vector-effect="non-scaling-stroke" fill-rule="evenodd" d="M475,8 L525,8 L525,10 L475,10 L475,8"/>
<path vector-effect="non-scaling-stroke" fill-rule="evenodd" d="M475,43 L525,43 L525,45 L475,45 L475,43"/>
<path vector-effect="non-scaling-stroke" fill-rule="evenodd" d="M525,8 L661,8 L661,10 L525,10 L525,8"/>
<path vector-effect="non-scaling-stroke" fill-rule="evenodd" d="M525,43 L661,43 L661,45 L525,45 L525,43"/>
<path vector-effect="non-scaling-stroke" fill-rule="evenodd" d="M661,8 L748,8 L748,10 L661,10 L661,8"/>
<path vector-effect="non-scaling-stroke" fill-rule="evenodd" d="M661,43 L748,43 L748,45 L661,45 L661,43"/>
<path vector-effect="non-scaling-stroke" fill-rule="evenodd" d="M748,8 L802,8 L802,10 L748,10 L748,8"/>
<path vector-effect="non-scaling-stroke" fill-rule="evenodd" d="M748,43 L802,43 L802,45 L748,45 L748,43"/>
<path vector-effect="non-scaling-stroke" fill-rule="evenodd" d="M802,8 L863,8 L863,10 L802,10 L802,8"/>
<path vector-effect="non-scaling-stroke" fill-rule="evenodd" d="M802,43 L863,43 L863,45 L802,45 L802,43"/>
<path vector-effect="non-scaling-stroke" fill-rule="evenodd" d="M160,43 L246,43 L246,45 L160,45 L160,43"/>
<path vector-effect="non-scaling-stroke" fill-rule="evenodd" d="M246,43 L330,43 L330,45 L246,45 L246,43"/>
<path vector-effect="non-scaling-stroke" fill-rule="evenodd" d="M330,43 L383,43 L383,45 L330,45 L330,43"/>
<path vector-effect="non-scaling-stroke" fill-rule="evenodd" d="M383,43 L475,43 L475,45 L383,45 L383,43"/>
<path vector-effect="non-scaling-stroke" fill-rule="evenodd" d="M475,43 L525,43 L525,45 L475,45 L475,43"/>
<path vector-effect="non-scaling-stroke" fill-rule="evenodd" d="M525,43 L661,43 L661,45 L525,45 L525,43"/>
<path vector-effect="non-scaling-stroke" fill-rule="evenodd" d="M661,43 L748,43 L748,45 L661,45 L661,43"/>
<path vector-effect="non-scaling-stroke" fill-rule="evenodd" d="M748,43 L802,43 L802,45 L748,45 L748,43"/>
<path vector-effect="non-scaling-stroke" fill-rule="evenodd" d="M802,43 L863,43 L863,45 L802,45 L802,43"/>
<path vector-effect="non-scaling-stroke" fill-rule="evenodd" d="M160,324 L246,324 L246,326 L160,326 L160,324"/>
<path vector-effect="non-scaling-stroke" fill-rule="evenodd" d="M246,324 L330,324 L330,326 L246,326 L246,324"/>
<path vector-effect="non-scaling-stroke" fill-rule="evenodd" d="M330,324 L383,324 L383,326 L330,326 L330,324"/>
<path vector-effect="non-scaling-stroke" fill-rule="evenodd" d="M383,324 L475,324 L475,326 L383,326 L383,324"/>
<path vector-effect="non-scaling-stroke" fill-rule="evenodd" d="M475,324 L525,324 L525,326 L475,326 L475,324"/>
<path vector-effect="non-scaling-stroke" fill-rule="evenodd" d="M525,324 L661,324 L661,326 L525,326 L525,324"/>
<path vector-effect="non-scaling-stroke" fill-rule="evenodd" d="M661,324 L748,324 L748,326 L661,326 L661,324"/>
<path vector-effect="non-scaling-stroke" fill-rule="evenodd" d="M748,324 L802,324 L802,326 L748,326 L748,324"/>
<path vector-effect="non-scaling-stroke" fill-rule="evenodd" d="M802,324 L863,324 L863,326 L802,326 L802,324"/>
</g>

<g fill="#333333" fill-opacity="1" stroke="#333333" stroke-opacity="1" stroke-width="1" stroke-linecap="square" stroke-linejoin="bevel" transform="matrix(1,0,0,1,0,0)"
font-family="Arial" font-size="20" font-weight="400" font-style="normal" 
>
<text fill="#333333" fill-opacity="1" stroke="none" xml:space="preserve" x="202" y="33" font-family="Arial" font-size="20" font-weight="400" font-style="normal" 
 >num</text>
<text fill="#333333" fill-opacity="1" stroke="none" xml:space="preserve" x="251" y="33" font-family="Arial" font-size="20" font-weight="400" font-style="normal" 
 >char</text>
<text fill="#333333" fill-opacity="1" stroke="none" xml:space="preserve" x="342" y="33" font-family="Arial" font-size="20" font-weight="400" font-style="normal" 
 >fctr</text>
<text fill="#333333" fill-opacity="1" stroke="none" xml:space="preserve" x="388" y="33" font-family="Arial" font-size="20" font-weight="400" font-style="normal" 
 >date</text>
<text fill="#333333" fill-opacity="1" stroke="none" xml:space="preserve" x="480" y="33" font-family="Arial" font-size="20" font-weight="400" font-style="normal" 
 >time</text>
<text fill="#333333" fill-opacity="1" stroke="none" xml:space="preserve" x="530" y="33" font-family="Arial" font-size="20" font-weight="400" font-style="normal" 
 >datetime</text>
<text fill="#333333" fill-opacity="1" stroke="none" xml:space="preserve" x="666" y="33" font-family="Arial" font-size="20" font-weight="400" font-style="normal" 
 >currency</text>
<text fill="#333333" fill-opacity="1" stroke="none" xml:space="preserve" x="753" y="33" font-family="Arial" font-size="20" font-weight="400" font-style="normal" 
 >row</text>
<text fill="#333333" fill-opacity="1" stroke="none" xml:space="preserve" x="807" y="33" font-family="Arial" font-size="20" font-weight="400" font-style="normal" 
 >group</text>
</g>

<g fill="#333333" fill-opacity="1" stroke="#333333" stroke-opacity="1" stroke-width="1" stroke-linecap="square" stroke-linejoin="bevel" transform="matrix(1,0,0,1,0,0)"
font-family="Arial" font-size="16" font-weight="400" font-style="normal" 
>
<text fill="#333333" fill-opacity="1" stroke="none" xml:space="preserve" x="169" y="67" font-family="Arial" font-size="16" font-weight="400" font-style="normal" 
 >1.111e-01</text>
<text fill="#333333" fill-opacity="1" stroke="none" xml:space="preserve" x="251" y="67" font-family="Arial" font-size="16" font-weight="400" font-style="normal" 
 >apricot</text>
<text fill="#333333" fill-opacity="1" stroke="none" xml:space="preserve" x="343" y="67" font-family="Arial" font-size="16" font-weight="400" font-style="normal" 
 >one</text>
<text fill="#333333" fill-opacity="1" stroke="none" xml:space="preserve" x="388" y="67" font-family="Arial" font-size="16" font-weight="400" font-style="normal" 
 >2015-01-15</text>
<text fill="#333333" fill-opacity="1" stroke="none" xml:space="preserve" x="480" y="67" font-family="Arial" font-size="16" font-weight="400" font-style="normal" 
 >13:35</text>
<text fill="#333333" fill-opacity="1" stroke="none" xml:space="preserve" x="530" y="67" font-family="Arial" font-size="16" font-weight="400" font-style="normal" 
 >2018-01-01 02:22</text>
<text fill="#333333" fill-opacity="1" stroke="none" xml:space="preserve" x="694" y="67" font-family="Arial" font-size="16" font-weight="400" font-style="normal" 
 >49.950</text>
<text fill="#333333" fill-opacity="1" stroke="none" xml:space="preserve" x="753" y="67" font-family="Arial" font-size="16" font-weight="400" font-style="normal" 
 >row_1</text>
<text fill="#333333" fill-opacity="1" stroke="none" xml:space="preserve" x="807" y="67" font-family="Arial" font-size="16" font-weight="400" font-style="normal" 
 >grp_a</text>
<text fill="#333333" fill-opacity="1" stroke="none" xml:space="preserve" x="165" y="102" font-family="Arial" font-size="16" font-weight="400" font-style="normal" 
 >2.222e+00</text>
<text fill="#333333" fill-opacity="1" stroke="none" xml:space="preserve" x="251" y="102" font-family="Arial" font-size="16" font-weight="400" font-style="normal" 
 >banana</text>
<text fill="#333333" fill-opacity="1" stroke="none" xml:space="preserve" x="344" y="102" font-family="Arial" font-size="16" font-weight="400" font-style="normal" 
 >two</text>
<text fill="#333333" fill-opacity="1" stroke="none" xml:space="preserve" x="388" y="102" font-family="Arial" font-size="16" font-weight="400" font-style="normal" 
 >2015-02-15</text>
<text fill="#333333" fill-opacity="1" stroke="none" xml:space="preserve" x="480" y="102" font-family="Arial" font-size="16" font-weight="400" font-style="normal" 
 >14:40</text>
<text fill="#333333" fill-opacity="1" stroke="none" xml:space="preserve" x="530" y="102" font-family="Arial" font-size="16" font-weight="400" font-style="normal" 
 >2018-02-02 14:33</text>
<text fill="#333333" fill-opacity="1" stroke="none" xml:space="preserve" x="694" y="102" font-family="Arial" font-size="16" font-weight="400" font-style="normal" 
 >17.950</text>
<text fill="#333333" fill-opacity="1" stroke="none" xml:space="preserve" x="753" y="102" font-family="Arial" font-size="16" font-weight="400" font-style="normal" 
 >row_2</text>
<text fill="#333333" fill-opacity="1" stroke="none" xml:space="preserve" x="807" y="102" font-family="Arial" font-size="16" font-weight="400" font-style="normal" 
 >grp_a</text>
<text fill="#333333" fill-opacity="1" stroke="none" xml:space="preserve" x="165" y="137" font-family="Arial" font-size="16" font-weight="400" font-style="normal" 
 >3.333e+01</text>
<text fill="#333333" fill-opacity="1" stroke="none" xml:space="preserve" x="251" y="137" font-family="Arial" font-size="16" font-weight="400" font-style="normal" 
 >coconut</text>
<text fill="#333333" fill-opacity="1" stroke="none" xml:space="preserve" x="338.5" y="137" font-family="Arial" font-size="16" font-weight="400" font-style="normal" 
 >three</text>
<text fill="#333333" fill-opacity="1" stroke="none" xml:space="preserve" x="388" y="137" font-family="Arial" font-size="16" font-weight="400" font-style="normal" 
 >2015-03-15</text>
<text fill="#333333" fill-opacity="1" stroke="none" xml:space="preserve" x="480" y="137" font-family="Arial" font-size="16" font-weight="400" font-style="normal" 
 >15:45</text>
<text fill="#333333" fill-opacity="1" stroke="none" xml:space="preserve" x="530" y="137" font-family="Arial" font-size="16" font-weight="400" font-style="normal" 
 >2018-03-03 03:44</text>
<text fill="#333333" fill-opacity="1" stroke="none" xml:space="preserve" x="703" y="137" font-family="Arial" font-size="16" font-weight="400" font-style="normal" 
 >1.390</text>
<text fill="#333333" fill-opacity="1" stroke="none" xml:space="preserve" x="753" y="137" font-family="Arial" font-size="16" font-weight="400" font-style="normal" 
 >row_3</text>
<text fill="#333333" fill-opacity="1" stroke="none" xml:space="preserve" x="807" y="137" font-family="Arial" font-size="16" font-weight="400" font-style="normal" 
 >grp_a</text>
<text fill="#333333" fill-opacity="1" stroke="none" xml:space="preserve" x="165" y="172" font-family="Arial" font-size="16" font-weight="400" font-style="normal" 
 >4.444e+02</text>
<text fill="#333333" fill-opacity="1" stroke="none" xml:space="preserve" x="251" y="172" font-family="Arial" font-size="16" font-weight="400" font-style="normal" 
 >durian</text>
<text fill="#333333" fill-opacity="1" stroke="none" xml:space="preserve" x="343" y="172" font-family="Arial" font-size="16" font-weight="400" font-style="normal" 
 >four</text>
<text fill="#333333" fill-opacity="1" stroke="none" xml:space="preserve" x="388" y="172" font-family="Arial" font-size="16" font-weight="400" font-style="normal" 
 >2015-04-15</text>
<text fill="#333333" fill-opacity="1" stroke="none" xml:space="preserve" x="480" y="172" font-family="Arial" font-size="16" font-weight="400" font-style="normal" 
 >16:50</text>
<text fill="#333333" fill-opacity="1" stroke="none" xml:space="preserve" x="530" y="172" font-family="Arial" font-size="16" font-weight="400" font-style="normal" 
 >2018-04-04 15:55</text>
<text fill="#333333" fill-opacity="1" stroke="none" xml:space="preserve" x="667" y="172" font-family="Arial" font-size="16" font-weight="400" font-style="normal" 
 >65100.000</text>
<text fill="#333333" fill-opacity="1" stroke="none" xml:space="preserve" x="753" y="172" font-family="Arial" font-size="16" font-weight="400" font-style="normal" 
 >row_4</text>
<text fill="#333333" fill-opacity="1" stroke="none" xml:space="preserve" x="807" y="172" font-family="Arial" font-size="16" font-weight="400" font-style="normal" 
 >grp_a</text>
<text fill="#333333" fill-opacity="1" stroke="none" xml:space="preserve" x="165" y="207" font-family="Arial" font-size="16" font-weight="400" font-style="normal" 
 >5.550e+03</text>
<text fill="#333333" fill-opacity="1" stroke="none" xml:space="preserve" x="251" y="207" font-family="Arial" font-size="16" font-weight="400" font-style="normal" 
 >NA</text>
<text fill="#333333" fill-opacity="1" stroke="none" xml:space="preserve" x="344" y="207" font-family="Arial" font-size="16" font-weight="400" font-style="normal" 
 >five</text>
<text fill="#333333" fill-opacity="1" stroke="none" xml:space="preserve" x="388" y="207" font-family="Arial" font-size="16" font-weight="400" font-style="normal" 
 >2015-05-15</text>
<text fill="#333333" fill-opacity="1" stroke="none" xml:space="preserve" x="480" y="207" font-family="Arial" font-size="16" font-weight="400" font-style="normal" 
 >17:55</text>
<text fill="#333333" fill-opacity="1" stroke="none" xml:space="preserve" x="530" y="207" font-family="Arial" font-size="16" font-weight="400" font-style="normal" 
 >2018-05-05 04:00</text>
<text fill="#333333" fill-opacity="1" stroke="none" xml:space="preserve" x="676" y="207" font-family="Arial" font-size="16" font-weight="400" font-style="normal" 
 >1325.810</text>
<text fill="#333333" fill-opacity="1" stroke="none" xml:space="preserve" x="753" y="207" font-family="Arial" font-size="16" font-weight="400" font-style="normal" 
 >row_5</text>
<text fill="#333333" fill-opacity="1" stroke="none" xml:space="preserve" x="807" y="207" font-family="Arial" font-size="16" font-weight="400" font-style="normal" 
 >grp_b</text>
<text fill="#333333" fill-opacity="1" stroke="none" xml:space="preserve" x="218" y="242" font-family="Arial" font-size="16" font-weight="400" font-style="normal" 
 >NA</text>
<text fill="#333333" fill-opacity="1" stroke="none" xml:space="preserve" x="251" y="242" font-family="Arial" font-size="16" font-weight="400" font-style="normal" 
 >fig</text>
<text fill="#333333" fill-opacity="1" stroke="none" xml:space="preserve" x="346.5" y="242" font-family="Arial" font-size="16" font-weight="400" font-style="normal" 
 >six</text>
<text fill="#333333" fill-opacity="1" stroke="none" xml:space="preserve" x="388" y="242" font-family="Arial" font-size="16" font-weight="400" font-style="normal" 
 >2015-06-15</text>
<text fill="#333333" fill-opacity="1" stroke="none" xml:space="preserve" x="480" y="242" font-family="Arial" font-size="16" font-weight="400" font-style="normal" 
 >NA</text>
<text fill="#333333" fill-opacity="1" stroke="none" xml:space="preserve" x="530" y="242" font-family="Arial" font-size="16" font-weight="400" font-style="normal" 
 >2018-06-06 16:11</text>
<text fill="#333333" fill-opacity="1" stroke="none" xml:space="preserve" x="694" y="242" font-family="Arial" font-size="16" font-weight="400" font-style="normal" 
 >13.255</text>
<text fill="#333333" fill-opacity="1" stroke="none" xml:space="preserve" x="753" y="242" font-family="Arial" font-size="16" font-weight="400" font-style="normal" 
 >row_6</text>
<text fill="#333333" fill-opacity="1" stroke="none" xml:space="preserve" x="807" y="242" font-family="Arial" font-size="16" font-weight="400" font-style="normal" 
 >grp_b</text>
<text fill="#333333" fill-opacity="1" stroke="none" xml:space="preserve" x="165" y="277" font-family="Arial" font-size="16" font-weight="400" font-style="normal" 
 >7.770e+05</text>
<text fill="#333333" fill-opacity="1" stroke="none" xml:space="preserve" x="251" y="277" font-family="Arial" font-size="16" font-weight="400" font-style="normal" 
 >grapefruit</text>
<text fill="#333333" fill-opacity="1" stroke="none" xml:space="preserve" x="335" y="277" font-family="Arial" font-size="16" font-weight="400" font-style="normal" 
 >seven</text>
<text fill="#333333" fill-opacity="1" stroke="none" xml:space="preserve" x="388" y="277" font-family="Arial" font-size="16" font-weight="400" font-style="normal" 
 >NA</text>
<text fill="#333333" fill-opacity="1" stroke="none" xml:space="preserve" x="480" y="277" font-family="Arial" font-size="16" font-weight="400" font-style="normal" 
 >19:10</text>
<text fill="#333333" fill-opacity="1" stroke="none" xml:space="preserve" x="530" y="277" font-family="Arial" font-size="16" font-weight="400" font-style="normal" 
 >2018-07-07 05:22</text>
<text fill="#333333" fill-opacity="1" stroke="none" xml:space="preserve" x="720" y="277" font-family="Arial" font-size="16" font-weight="400" font-style="normal" 
 >NA</text>
<text fill="#333333" fill-opacity="1" stroke="none" xml:space="preserve" x="753" y="277" font-family="Arial" font-size="16" font-weight="400" font-style="normal" 
 >row_7</text>
<text fill="#333333" fill-opacity="1" stroke="none" xml:space="preserve" x="807" y="277" font-family="Arial" font-size="16" font-weight="400" font-style="normal" 
 >grp_b</text>
<text fill="#333333" fill-opacity="1" stroke="none" xml:space="preserve" x="165" y="312" font-family="Arial" font-size="16" font-weight="400" font-style="normal" 
 >8.880e+06</text>
<text fill="#333333" fill-opacity="1" stroke="none" xml:space="preserve" x="251" y="312" font-family="Arial" font-size="16" font-weight="400" font-style="normal" 
 >honeydew</text>
<text fill="#333333" fill-opacity="1" stroke="none" xml:space="preserve" x="339" y="312" font-family="Arial" font-size="16" font-weight="400" font-style="normal" 
 >eight</text>
<text fill="#333333" fill-opacity="1" stroke="none" xml:space="preserve" x="388" y="312" font-family="Arial" font-size="16" font-weight="400" font-style="normal" 
 >2015-08-15</text>
<text fill="#333333" fill-opacity="1" stroke="none" xml:space="preserve" x="480" y="312" font-family="Arial" font-size="16" font-weight="400" font-style="normal" 
 >20:20</text>
<text fill="#333333" fill-opacity="1" stroke="none" xml:space="preserve" x="530" y="312" font-family="Arial" font-size="16" font-weight="400" font-style="normal" 
 >NA</text>
<text fill="#333333" fill-opacity="1" stroke="none" xml:space="preserve" x="703" y="312" font-family="Arial" font-size="16" font-weight="400" font-style="normal" 
 >0.440</text>
<text fill="#333333" fill-opacity="1" stroke="none" xml:space="preserve" x="753" y="312" font-family="Arial" font-size="16" font-weight="400" font-style="normal" 
 >row_8</text>
<text fill="#333333" fill-opacity="1" stroke="none" xml:space="preserve" x="807" y="312" font-family="Arial" font-size="16" font-weight="400" font-style="normal" 
 >grp_b</text>
</g>
</g>
</svg>
