<?xml version="1.0" encoding="UTF-8" standalone="no"?>
<svg width="361.244mm" height="126.647mm"
 viewBox="0 0 1024 359"
 xmlns="http://www.w3.org/2000/svg" xmlns:xlink="http://www.w3.org/1999/xlink"  version="1.2" baseProfile="tiny">
<title>Qt Svg Document</title>
<desc>Generated with Qt</desc>
<defs>
</defs>
<g fill="none" stroke="black" stroke-width="1" fill-rule="evenodd" stroke-linecap="square" stroke-linejoin="bevel" >

<g fill="#ffffff" fill-opacity="1" stroke="none" transform="matrix(1,0,0,1,0,0)"
font-family="Helvetica" font-size="12" font-weight="400" font-style="normal" 
>
<path vector-effect="non-scaling-stroke" fill-rule="evenodd" d="M0,0 L1024,0 L1024,359 L0,359 L0,0"/>
<path vector-effect="non-scaling-stroke" fill-rule="evenodd" d="M0,0 L1024,0 L1024,359 L0,359 L0,0"/>
<path vector-effect="non-scaling-stroke" fill-rule="evenodd" d="M0,0 L1024,0 L1024,359 L0,359 L0,0"/>
<path vector-effect="non-scaling-stroke" fill-rule="evenodd" d="M256,8 L767,8 L767,351 L256,351 L256,8"/>
<path vector-effect="non-scaling-stroke" fill-rule="evenodd" d="M256,9 L318,9 L318,69 L256,69 L256,9"/>
<path vector-effect="non-scaling-stroke" fill-rule="evenodd" d="M318,9 L405,9 L405,69 L318,69 L318,9"/>
<path vector-effect="non-scaling-stroke" fill-rule="evenodd" d="M405,9 L489,9 L489,69 L405,69 L405,9"/>
<path vector-effect="non-scaling-stroke" fill-rule="evenodd" d="M489,9 L767,9 L767,39 L489,39 L489,9"/>
<path vector-effect="non-scaling-stroke" fill-rule="evenodd" d="M489,39 L581,39 L581,69 L489,69 L489,39"/>
<path vector-effect="non-scaling-stroke" fill-rule="evenodd" d="M581,39 L631,39 L631,69 L581,69 L581,39"/>
<path vector-effect="non-scaling-stroke" fill-rule="evenodd" d="M631,39 L767,39 L767,69 L631,69 L631,39"/>
<path vector-effect="non-scaling-stroke" fill-rule="evenodd" d="M256,69 L318,69 L318,104 L256,104 L256,69"/>
<path vector-effect="non-scaling-stroke" fill-rule="evenodd" d="M256,104 L318,104 L318,139 L256,139 L256,104"/>
</g>

<g fill="#808080" fill-opacity="0.0470588" stroke="none" transform="matrix(1,0,0,1,0,0)"
font-family="Helvetica" font-size="12" font-weight="400" font-style="normal" 
>
<path vector-effect="non-scaling-stroke" fill-rule="evenodd" d="M318,104 L405,104 L405,139 L318,139 L318,104"/>
<path vector-effect="non-scaling-stroke" fill-rule="evenodd" d="M405,104 L489,104 L489,139 L405,139 L405,104"/>
<path vector-effect="non-scaling-stroke" fill-rule="evenodd" d="M489,104 L581,104 L581,139 L489,139 L489,104"/>
<path vector-effect="non-scaling-stroke" fill-rule="evenodd" d="M581,104 L631,104 L631,139 L581,139 L581,104"/>
<path vector-effect="non-scaling-stroke" fill-rule="evenodd" d="M631,104 L767,104 L767,139 L631,139 L631,104"/>
</g>

<g fill="#ffffff" fill-opacity="1" stroke="none" transform="matrix(1,0,0,1,0,0)"
font-family="Helvetica" font-size="12" font-weight="400" font-style="normal" 
>
<path vector-effect="non-scaling-stroke" fill-rule="evenodd" d="M256,139 L318,139 L318,174 L256,174 L256,139"/>
<path vector-effect="non-scaling-stroke" fill-rule="evenodd" d="M256,174 L318,174 L318,209 L256,209 L256,174"/>
</g>

<g fill="#808080" fill-opacity="0.0470588" stroke="none" transform="matrix(1,0,0,1,0,0)"
font-family="Helvetica" font-size="12" font-weight="400" font-style="normal" 
>
<path vector-effect="non-scaling-stroke" fill-rule="evenodd" d="M318,174 L405,174 L405,209 L318,209 L318,174"/>
<path vector-effect="non-scaling-stroke" fill-rule="evenodd" d="M405,174 L489,174 L489,209 L405,209 L405,174"/>
<path vector-effect="non-scaling-stroke" fill-rule="evenodd" d="M489,174 L581,174 L581,209 L489,209 L489,174"/>
<path vector-effect="non-scaling-stroke" fill-rule="evenodd" d="M581,174 L631,174 L631,209 L581,209 L581,174"/>
<path vector-effect="non-scaling-stroke" fill-rule="evenodd" d="M631,174 L767,174 L767,209 L631,209 L631,174"/>
</g>

<g fill="#ffffff" fill-opacity="1" stroke="none" transform="matrix(1,0,0,1,0,0)"
font-family="Helvetica" font-size="12" font-weight="400" font-style="normal" 
>
<path vector-effect="non-scaling-stroke" fill-rule="evenodd" d="M256,209 L318,209 L318,244 L256,244 L256,209"/>
<path vector-effect="non-scaling-stroke" fill-rule="evenodd" d="M256,244 L318,244 L318,279 L256,279 L256,244"/>
</g>

<g fill="#808080" fill-opacity="0.0470588" stroke="none" transform="matrix(1,0,0,1,0,0)"
font-family="Helvetica" font-size="12" font-weight="400" font-style="normal" 
>
<path vector-effect="non-scaling-stroke" fill-rule="evenodd" d="M318,244 L405,244 L405,279 L318,279 L318,244"/>
<path vector-effect="non-scaling-stroke" fill-rule="evenodd" d="M405,244 L489,244 L489,279 L405,279 L405,244"/>
<path vector-effect="non-scaling-stroke" fill-rule="evenodd" d="M489,244 L581,244 L581,279 L489,279 L489,244"/>
<path vector-effect="non-scaling-stroke" fill-rule="evenodd" d="M581,244 L631,244 L631,279 L581,279 L581,244"/>
<path vector-effect="non-scaling-stroke" fill-rule="evenodd" d="M631,244 L767,244 L767,279 L631,279 L631,244"/>
</g>

<g fill="#ffffff" fill-opacity="1" stroke="none" transform="matrix(1,0,0,1,0,0)"
font-family="Helvetica" font-size="12" font-weight="400" font-style="normal" 
>
<path vector-effect="non-scaling-stroke" fill-rule="evenodd" d="M256,279 L318,279 L318,314 L256,314 L256,279"/>
<path vector-effect="non-scaling-stroke" fill-rule="evenodd" d="M256,314 L318,314 L318,350 L256,350 L256,314"/>
</g>

<g fill="#808080" fill-opacity="0.0470588" stroke="none" transform="matrix(1,0,0,1,0,0)"
font-family="Helvetica" font-size="12" font-weight="400" font-style="normal" 
>
<path vector-effect="non-scaling-stroke" fill-rule="evenodd" d="M318,314 L405,314 L405,350 L318,350 L318,314"/>
<path vector-effect="non-scaling-stroke" fill-rule="evenodd" d="M405,314 L489,314 L489,350 L405,350 L405,314"/>
<path vector-effect="non-scaling-stroke" fill-rule="evenodd" d="M489,314 L581,314 L581,350 L489,350 L489,314"/>
<path vector-effect="non-scaling-stroke" fill-rule="evenodd" d="M581,314 L631,314 L631,350 L581,350 L581,314"/>
<path vector-effect="non-scaling-stroke" fill-rule="evenodd" d="M631,314 L767,314 L767,350 L631,350 L631,314"/>
</g>

<g fill="#d3d3d3" fill-opacity="1" stroke="none" transform="matrix(1,0,0,1,0,0)"
font-family="Helvetica" font-size="12" font-weight="400" font-style="normal" 
>
<path vector-effect="non-scaling-stroke" fill-rule="evenodd" d="M256,104 L319,104 L319,105 L256,105 L256,104"/>
<path vector-effect="non-scaling-stroke" fill-rule="evenodd" d="M317,104 L405,104 L405,105 L317,105 L317,104"/>
<path vector-effect="non-scaling-stroke" fill-rule="evenodd" d="M405,104 L489,104 L489,105 L405,105 L405,104"/>
<path vector-effect="non-scaling-stroke" fill-rule="evenodd" d="M489,104 L581,104 L581,105 L489,105 L489,104"/>
<path vector-effect="non-scaling-stroke" fill-rule="evenodd" d="M581,104 L631,104 L631,105 L581,105 L581,104"/>
<path vector-effect="non-scaling-stroke" fill-rule="evenodd" d="M631,104 L767,104 L767,105 L631,105 L631,104"/>
<path vector-effect="non-scaling-stroke" fill-rule="evenodd" d="M256,104 L319,104 L319,105 L256,105 L256,104"/>
<path vector-effect="non-scaling-stroke" fill-rule="evenodd" d="M256,139 L319,139 L319,140 L256,140 L256,139"/>
<path vector-effect="non-scaling-stroke" fill-rule="evenodd" d="M317,104 L405,104 L405,105 L317,105 L317,104"/>
<path vector-effect="non-scaling-stroke" fill-rule="evenodd" d="M317,139 L405,139 L405,140 L317,140 L317,139"/>
<path vector-effect="non-scaling-stroke" fill-rule="evenodd" d="M405,104 L489,104 L489,105 L405,105 L405,104"/>
<path vector-effect="non-scaling-stroke" fill-rule="evenodd" d="M405,139 L489,139 L489,140 L405,140 L405,139"/>
<path vector-effect="non-scaling-stroke" fill-rule="evenodd" d="M489,104 L581,104 L581,105 L489,105 L489,104"/>
<path vector-effect="non-scaling-stroke" fill-rule="evenodd" d="M489,139 L581,139 L581,140 L489,140 L489,139"/>
<path vector-effect="non-scaling-stroke" fill-rule="evenodd" d="M581,104 L631,104 L631,105 L581,105 L581,104"/>
<path vector-effect="non-scaling-stroke" fill-rule="evenodd" d="M581,139 L631,139 L631,140 L581,140 L581,139"/>
<path vector-effect="non-scaling-stroke" fill-rule="evenodd" d="M631,104 L767,104 L767,105 L631,105 L631,104"/>
<path vector-effect="non-scaling-stroke" fill-rule="evenodd" d="M631,139 L767,139 L767,140 L631,140 L631,139"/>
<path vector-effect="non-scaling-stroke" fill-rule="evenodd" d="M256,139 L319,139 L319,140 L256,140 L256,139"/>
<path vector-effect="non-scaling-stroke" fill-rule="evenodd" d="M256,174 L319,174 L319,175 L256,175 L256,174"/>
<path vector-effect="non-scaling-stroke" fill-rule="evenodd" d="M317,139 L405,139 L405,140 L317,140 L317,139"/>
<path vector-effect="non-scaling-stroke" fill-rule="evenodd" d="M317,174 L405,174 L405,175 L317,175 L317,174"/>
<path vector-effect="non-scaling-stroke" fill-rule="evenodd" d="M405,139 L489,139 L489,140 L405,140 L405,139"/>
<path vector-effect="non-scaling-stroke" fill-rule="evenodd" d="M405,174 L489,174 L489,175 L405,175 L405,174"/>
<path vector-effect="non-scaling-stroke" fill-rule="evenodd" d="M489,139 L581,139 L581,140 L489,140 L489,139"/>
<path vector-effect="non-scaling-stroke" fill-rule="evenodd" d="M489,174 L581,174 L581,175 L489,175 L489,174"/>
<path vector-effect="non-scaling-stroke" fill-rule="evenodd" d="M581,139 L631,139 L631,140 L581,140 L581,139"/>
<path vector-effect="non-scaling-stroke" fill-rule="evenodd" d="M581,174 L631,174 L631,175 L581,175 L581,174"/>
<path vector-effect="non-scaling-stroke" fill-rule="evenodd" d="M631,139 L767,139 L767,140 L631,140 L631,139"/>
<path vector-effect="non-scaling-stroke" fill-rule="evenodd" d="M631,174 L767,174 L767,175 L631,175 L631,174"/>
<path vector-effect="non-scaling-stroke" fill-rule="evenodd" d="M256,174 L319,174 L319,175 L256,175 L256,174"/>
<path vector-effect="non-scaling-stroke" fill-rule="evenodd" d="M256,209 L319,209 L319,210 L256,210 L256,209"/>
<path vector-effect="non-scaling-stroke" fill-rule="evenodd" d="M317,174 L405,174 L405,175 L317,175 L317,174"/>
<path vector-effect="non-scaling-stroke" fill-rule="evenodd" d="M317,209 L405,209 L405,210 L317,210 L317,209"/>
<path vector-effect="non-scaling-stroke" fill-rule="evenodd" d="M405,174 L489,174 L489,175 L405,175 L405,174"/>
<path vector-effect="non-scaling-stroke" fill-rule="evenodd" d="M405,209 L489,209 L489,210 L405,210 L405,209"/>
<path vector-effect="non-scaling-stroke" fill-rule="evenodd" d="M489,174 L581,174 L581,175 L489,175 L489,174"/>
<path vector-effect="non-scaling-stroke" fill-rule="evenodd" d="M489,209 L581,209 L581,210 L489,210 L489,209"/>
<path vector-effect="non-scaling-stroke" fill-rule="evenodd" d="M581,174 L631,174 L631,175 L581,175 L581,174"/>
<path vector-effect="non-scaling-stroke" fill-rule="evenodd" d="M581,209 L631,209 L631,210 L581,210 L581,209"/>
<path vector-effect="non-scaling-stroke" fill-rule="evenodd" d="M631,174 L767,174 L767,175 L631,175 L631,174"/>
<path vector-effect="non-scaling-stroke" fill-rule="evenodd" d="M631,209 L767,209 L767,210 L631,210 L631,209"/>
<path vector-effect="non-scaling-stroke" fill-rule="evenodd" d="M256,209 L319,209 L319,210 L256,210 L256,209"/>
<path vector-effect="non-scaling-stroke" fill-rule="evenodd" d="M256,244 L319,244 L319,245 L256,245 L256,244"/>
<path vector-effect="non-scaling-stroke" fill-rule="evenodd" d="M317,209 L405,209 L405,210 L317,210 L317,209"/>
<path vector-effect="non-scaling-stroke" fill-rule="evenodd" d="M317,244 L405,244 L405,245 L317,245 L317,244"/>
<path vector-effect="non-scaling-stroke" fill-rule="evenodd" d="M405,209 L489,209 L489,210 L405,210 L405,209"/>
<path vector-effect="non-scaling-stroke" fill-rule="evenodd" d="M405,244 L489,244 L489,245 L405,245 L405,244"/>
<path vector-effect="non-scaling-stroke" fill-rule="evenodd" d="M489,209 L581,209 L581,210 L489,210 L489,209"/>
<path vector-effect="non-scaling-stroke" fill-rule="evenodd" d="M489,244 L581,244 L581,245 L489,245 L489,244"/>
<path vector-effect="non-scaling-stroke" fill-rule="evenodd" d="M581,209 L631,209 L631,210 L581,210 L581,209"/>
<path vector-effect="non-scaling-stroke" fill-rule="evenodd" d="M581,244 L631,244 L631,245 L581,245 L581,244"/>
<path vector-effect="non-scaling-stroke" fill-rule="evenodd" d="M631,209 L767,209 L767,210 L631,210 L631,209"/>
<path vector-effect="non-scaling-stroke" fill-rule="evenodd" d="M631,244 L767,244 L767,245 L631,245 L631,244"/>
<path vector-effect="non-scaling-stroke" fill-rule="evenodd" d="M256,244 L319,244 L319,245 L256,245 L256,244"/>
<path vector-effect="non-scaling-stroke" fill-rule="evenodd" d="M256,279 L319,279 L319,280 L256,280 L256,279"/>
<path vector-effect="non-scaling-stroke" fill-rule="evenodd" d="M317,244 L405,244 L405,245 L317,245 L317,244"/>
<path vector-effect="non-scaling-stroke" fill-rule="evenodd" d="M317,279 L405,279 L405,280 L317,280 L317,279"/>
<path vector-effect="non-scaling-stroke" fill-rule="evenodd" d="M405,244 L489,244 L489,245 L405,245 L405,244"/>
<path vector-effect="non-scaling-stroke" fill-rule="evenodd" d="M405,279 L489,279 L489,280 L405,280 L405,279"/>
<path vector-effect="non-scaling-stroke" fill-rule="evenodd" d="M489,244 L581,244 L581,245 L489,245 L489,244"/>
<path vector-effect="non-scaling-stroke" fill-rule="evenodd" d="M489,279 L581,279 L581,280 L489,280 L489,279"/>
<path vector-effect="non-scaling-stroke" fill-rule="evenodd" d="M581,244 L631,244 L631,245 L581,245 L581,244"/>
<path vector-effect="non-scaling-stroke" fill-rule="evenodd" d="M581,279 L631,279 L631,280 L581,280 L581,279"/>
<path vector-effect="non-scaling-stroke" fill-rule="evenodd" d="M631,244 L767,244 L767,245 L631,245 L631,244"/>
<path vector-effect="non-scaling-stroke" fill-rule="evenodd" d="M631,279 L767,279 L767,280 L631,280 L631,279"/>
<path vector-effect="non-scaling-stroke" fill-rule="evenodd" d="M256,279 L319,279 L319,280 L256,280 L256,279"/>
<path vector-effect="non-scaling-stroke" fill-rule="evenodd" d="M256,314 L319,314 L319,315 L256,315 L256,314"/>
<path vector-effect="non-scaling-stroke" fill-rule="evenodd" d="M317,279 L405,279 L405,280 L317,280 L317,279"/>
<path vector-effect="non-scaling-stroke" fill-rule="evenodd" d="M317,314 L405,314 L405,315 L317,315 L317,314"/>
<path vector-effect="non-scaling-stroke" fill-rule="evenodd" d="M405,279 L489,279 L489,280 L405,280 L405,279"/>
<path vector-effect="non-scaling-stroke" fill-rule="evenodd" d="M405,314 L489,314 L489,315 L405,315 L405,314"/>
<path vector-effect="non-scaling-stroke" fill-rule="evenodd" d="M489,279 L581,279 L581,280 L489,280 L489,279"/>
<path vector-effect="non-scaling-stroke" fill-rule="evenodd" d="M489,314 L581,314 L581,315 L489,315 L489,314"/>
<path vector-effect="non-scaling-stroke" fill-rule="evenodd" d="M581,279 L631,279 L631,280 L581,280 L581,279"/>
<path vector-effect="non-scaling-stroke" fill-rule="evenodd" d="M581,314 L631,314 L631,315 L581,315 L581,314"/>
<path vector-effect="non-scaling-stroke" fill-rule="evenodd" d="M631,279 L767,279 L767,280 L631,280 L631,279"/>
<path vector-effect="non-scaling-stroke" fill-rule="evenodd" d="M631,314 L767,314 L767,315 L631,315 L631,314"/>
<path vector-effect="non-scaling-stroke" fill-rule="evenodd" d="M256,314 L319,314 L319,315 L256,315 L256,314"/>
<path vector-effect="non-scaling-stroke" fill-rule="evenodd" d="M317,314 L405,314 L405,315 L317,315 L317,314"/>
<path vector-effect="non-scaling-stroke" fill-rule="evenodd" d="M405,314 L489,314 L489,315 L405,315 L405,314"/>
<path vector-effect="non-scaling-stroke" fill-rule="evenodd" d="M489,314 L581,314 L581,315 L489,315 L489,314"/>
<path vector-effect="non-scaling-stroke" fill-rule="evenodd" d="M581,314 L631,314 L631,315 L581,315 L581,314"/>
<path vector-effect="non-scaling-stroke" fill-rule="evenodd" d="M631,314 L767,314 L767,315 L631,315 L631,314"/>
<path vector-effect="non-scaling-stroke" fill-rule="evenodd" d="M256,8 L318,8 L318,10 L256,10 L256,8"/>
<path vector-effect="non-scaling-stroke" fill-rule="evenodd" d="M256,68 L318,68 L318,70 L256,70 L256,68"/>
<path vector-effect="non-scaling-stroke" fill-rule="evenodd" d="M318,8 L405,8 L405,10 L318,10 L318,8"/>
<path vector-effect="non-scaling-stroke" fill-rule="evenodd" d="M318,68 L405,68 L405,70 L318,70 L318,68"/>
<path vector-effect="non-scaling-stroke" fill-rule="evenodd" d="M405,8 L489,8 L489,10 L405,10 L405,8"/>
<path vector-effect="non-scaling-stroke" fill-rule="evenodd" d="M405,68 L489,68 L489,70 L405,70 L405,68"/>
<path vector-effect="non-scaling-stroke" fill-rule="evenodd" d="M489,8 L767,8 L767,10 L489,10 L489,8"/>
<path vector-effect="non-scaling-stroke" fill-rule="evenodd" d="M489,68 L581,68 L581,70 L489,70 L489,68"/>
<path vector-effect="non-scaling-stroke" fill-rule="evenodd" d="M581,68 L631,68 L631,70 L581,70 L581,68"/>
<path vector-effect="non-scaling-stroke" fill-rule="evenodd" d="M631,68 L767,68 L767,70 L631,70 L631,68"/>
<path vector-effect="non-scaling-stroke" fill-rule="evenodd" d="M256,68 L319,68 L319,70 L256,70 L256,68"/>
<path vector-effect="non-scaling-stroke" fill-rule="evenodd" d="M317,68 L405,68 L405,70 L317,70 L317,68"/>
<path vector-effect="non-scaling-stroke" fill-rule="evenodd" d="M405,68 L489,68 L489,70 L405,70 L405,68"/>
<path vector-effect="non-scaling-stroke" fill-rule="evenodd" d="M489,68 L581,68 L581,70 L489,70 L489,68"/>
<path vector-effect="non-scaling-stroke" fill-rule="evenodd" d="M581,68 L631,68 L631,70 L581,70 L581,68"/>
<path vector-effect="non-scaling-stroke" fill-rule="evenodd" d="M631,68 L767,68 L767,70 L631,70 L631,68"/>
<path vector-effect="non-scaling-stroke" fill-rule="evenodd" d="M256,349 L319,349 L319,351 L256,351 L256,349"/>
<path vector-effect="non-scaling-stroke" fill-rule="evenodd" d="M317,349 L405,349 L405,351 L317,351 L317,349"/>
<path vector-effect="non-scaling-stroke" fill-rule="evenodd" d="M405,349 L489,349 L489,351 L405,351 L405,349"/>
<path vector-effect="non-scaling-stroke" fill-rule="evenodd" d="M489,349 L581,349 L581,351 L489,351 L489,349"/>
<path vector-effect="non-scaling-stroke" fill-rule="evenodd" d="M581,349 L631,349 L631,351 L581,351 L581,349"/>
<path vector-effect="non-scaling-stroke" fill-rule="evenodd" d="M631,349 L767,349 L767,351 L631,351 L631,349"/>
<path vector-effect="non-scaling-stroke" fill-rule="evenodd" d="M489,38 L767,38 L767,40 L489,40 L489,38"/>
<path vector-effect="non-scaling-stroke" fill-rule="evenodd" d="M489,38 L581,38 L581,40 L489,40 L489,38"/>
<path vector-effect="non-scaling-stroke" fill-rule="evenodd" d="M581,38 L631,38 L631,40 L581,40 L581,38"/>
<path vector-effect="non-scaling-stroke" fill-rule="evenodd" d="M631,38 L767,38 L767,40 L631,40 L631,38"/>
<path vector-effect="non-scaling-stroke" fill-rule="evenodd" d="M317,68 L319,68 L319,105 L317,105 L317,68"/>
<path vector-effect="non-scaling-stroke" fill-rule="evenodd" d="M317,68 L319,68 L319,105 L317,105 L317,68"/>
<path vector-effect="non-scaling-stroke" fill-rule="evenodd" d="M317,104 L319,104 L319,140 L317,140 L317,104"/>
<path vector-effect="non-scaling-stroke" fill-rule="evenodd" d="M317,104 L319,104 L319,140 L317,140 L317,104"/>
<path vector-effect="non-scaling-stroke" fill-rule="evenodd" d="M317,139 L319,139 L319,175 L317,175 L317,139"/>
<path vector-effect="non-scaling-stroke" fill-rule="evenodd" d="M317,139 L319,139 L319,175 L317,175 L317,139"/>
<path vector-effect="non-scaling-stroke" fill-rule="evenodd" d="M317,174 L319,174 L319,210 L317,210 L317,174"/>
<path vector-effect="non-scaling-stroke" fill-rule="evenodd" d="M317,174 L319,174 L319,210 L317,210 L317,174"/>
<path vector-effect="non-scaling-stroke" fill-rule="evenodd" d="M317,209 L319,209 L319,245 L317,245 L317,209"/>
<path vector-effect="non-scaling-stroke" fill-rule="evenodd" d="M317,209 L319,209 L319,245 L317,245 L317,209"/>
<path vector-effect="non-scaling-stroke" fill-rule="evenodd" d="M317,244 L319,244 L319,280 L317,280 L317,244"/>
<path vector-effect="non-scaling-stroke" fill-rule="evenodd" d="M317,244 L319,244 L319,280 L317,280 L317,244"/>
<path vector-effect="non-scaling-stroke" fill-rule="evenodd" d="M317,279 L319,279 L319,315 L317,315 L317,279"/>
<path vector-effect="non-scaling-stroke" fill-rule="evenodd" d="M317,279 L319,279 L319,315 L317,315 L317,279"/>
<path vector-effect="non-scaling-stroke" fill-rule="evenodd" d="M317,314 L319,314 L319,351 L317,351 L317,314"/>
<path vector-effect="non-scaling-stroke" fill-rule="evenodd" d="M317,314 L319,314 L319,351 L317,351 L317,314"/>
</g>

<g fill="#333333" fill-opacity="1" stroke="#333333" stroke-opacity="1" stroke-width="1" stroke-linecap="square" stroke-linejoin="bevel" transform="matrix(1,0,0,1,0,0)"
font-family="Arial" font-size="16" font-weight="400" font-style="normal" 
>
<text fill="#333333" fill-opacity="1" stroke="none" xml:space="preserve" x="346" y="44" font-family="Arial" font-size="16" font-weight="400" font-style="normal" 
 >num</text>
<text fill="#333333" fill-opacity="1" stroke="none" xml:space="preserve" x="431.5" y="44" font-family="Arial" font-size="16" font-weight="400" font-style="normal" 
 >char</text>
</g>

<g fill="#333333" fill-opacity="1" stroke="#333333" stroke-opacity="1" stroke-width="1" stroke-linecap="square" stroke-linejoin="bevel" transform="matrix(1,0,0,1,0,0)"
font-family="Arial" font-size="16" font-weight="700" font-style="normal" 
>
<text fill="#333333" fill-opacity="1" stroke="none" xml:space="preserve" x="568" y="29" font-family="Arial" font-size="16" font-weight="700" font-style="normal" 
 >dates and times</text>
</g>

<g fill="#333333" fill-opacity="1" stroke="#333333" stroke-opacity="1" stroke-width="1" stroke-linecap="square" stroke-linejoin="bevel" transform="matrix(1,0,0,1,0,0)"
font-family="Arial" font-size="16" font-weight="400" font-style="normal" 
>
<text fill="#333333" fill-opacity="1" stroke="none" xml:space="preserve" x="519.5" y="59" font-family="Arial" font-size="16" font-weight="400" font-style="normal" 
 >date</text>
<text fill="#333333" fill-opacity="1" stroke="none" xml:space="preserve" x="591" y="59" font-family="Arial" font-size="16" font-weight="400" font-style="normal" 
 >time</text>
<text fill="#333333" fill-opacity="1" stroke="none" xml:space="preserve" x="668.5" y="59" font-family="Arial" font-size="16" font-weight="400" font-style="normal" 
 >datetime</text>
<text fill="#333333" fill-opacity="1" stroke="none" xml:space="preserve" x="268" y="92" font-family="Arial" font-size="16" font-weight="400" font-style="normal" 
 >row_1</text>
<text fill="#333333" fill-opacity="1" stroke="none" xml:space="preserve" x="328" y="92" font-family="Arial" font-size="16" font-weight="400" font-style="normal" 
 >1.111e-01</text>
<text fill="#333333" fill-opacity="1" stroke="none" xml:space="preserve" x="410" y="92" font-family="Arial" font-size="16" font-weight="400" font-style="normal" 
 >apricot</text>
<text fill="#333333" fill-opacity="1" stroke="none" xml:space="preserve" x="494" y="92" font-family="Arial" font-size="16" font-weight="400" font-style="normal" 
 >2015-01-15</text>
<text fill="#333333" fill-opacity="1" stroke="none" xml:space="preserve" x="586" y="92" font-family="Arial" font-size="16" font-weight="400" font-style="normal" 
 >13:35</text>
<text fill="#333333" fill-opacity="1" stroke="none" xml:space="preserve" x="636" y="92" font-family="Arial" font-size="16" font-weight="400" font-style="normal" 
 >2018-01-01 02:22</text>
<text fill="#333333" fill-opacity="1" stroke="none" xml:space="preserve" x="268" y="127" font-family="Arial" font-size="16" font-weight="400" font-style="normal" 
 >row_2</text>
<text fill="#333333" fill-opacity="1" stroke="none" xml:space="preserve" x="324" y="127" font-family="Arial" font-size="16" font-weight="400" font-style="normal" 
 >2.222e+00</text>
<text fill="#333333" fill-opacity="1" stroke="none" xml:space="preserve" x="410" y="127" font-family="Arial" font-size="16" font-weight="400" font-style="normal" 
 >banana</text>
<text fill="#333333" fill-opacity="1" stroke="none" xml:space="preserve" x="494" y="127" font-family="Arial" font-size="16" font-weight="400" font-style="normal" 
 >2015-02-15</text>
<text fill="#333333" fill-opacity="1" stroke="none" xml:space="preserve" x="586" y="127" font-family="Arial" font-size="16" font-weight="400" font-style="normal" 
 >14:40</text>
<text fill="#333333" fill-opacity="1" stroke="none" xml:space="preserve" x="636" y="127" font-family="Arial" font-size="16" font-weight="400" font-style="normal" 
 >2018-02-02 14:33</text>
<text fill="#333333" fill-opacity="1" stroke="none" xml:space="preserve" x="268" y="162" font-family="Arial" font-size="16" font-weight="400" font-style="normal" 
 >row_3</text>
<text fill="#333333" fill-opacity="1" stroke="none" xml:space="preserve" x="324" y="162" font-family="Arial" font-size="16" font-weight="400" font-style="normal" 
 >3.333e+01</text>
<text fill="#333333" fill-opacity="1" stroke="none" xml:space="preserve" x="410" y="162" font-family="Arial" font-size="16" font-weight="400" font-style="normal" 
 >coconut</text>
<text fill="#333333" fill-opacity="1" stroke="none" xml:space="preserve" x="494" y="162" font-family="Arial" font-size="16" font-weight="400" font-style="normal" 
 >2015-03-15</text>
<text fill="#333333" fill-opacity="1" stroke="none" xml:space="preserve" x="586" y="162" font-family="Arial" font-size="16" font-weight="400" font-style="normal" 
 >15:45</text>
<text fill="#333333" fill-opacity="1" stroke="none" xml:space="preserve" x="636" y="162" font-family="Arial" font-size="16" font-weight="400" font-style="normal" 
 >2018-03-03 03:44</text>
<text fill="#333333" fill-opacity="1" stroke="none" xml:space="preserve" x="268" y="197" font-family="Arial" font-size="16" font-weight="400" font-style="normal" 
 >row_4</text>
<text fill="#333333" fill-opacity="1" stroke="none" xml:space="preserve" x="324" y="197" font-family="Arial" font-size="16" font-weight="400" font-style="normal" 
 >4.444e+02</text>
<text fill="#333333" fill-opacity="1" stroke="none" xml:space="preserve" x="410" y="197" font-family="Arial" font-size="16" font-weight="400" font-style="normal" 
 >durian</text>
<text fill="#333333" fill-opacity="1" stroke="none" xml:space="preserve" x="494" y="197" font-family="Arial" font-size="16" font-weight="400" font-style="normal" 
 >2015-04-15</text>
<text fill="#333333" fill-opacity="1" stroke="none" xml:space="preserve" x="586" y="197" font-family="Arial" font-size="16" font-weight="400" font-style="normal" 
 >16:50</text>
<text fill="#333333" fill-opacity="1" stroke="none" xml:space="preserve" x="636" y="197" font-family="Arial" font-size="16" font-weight="400" font-style="normal" 
 >2018-04-04 15:55</text>
<text fill="#333333" fill-opacity="1" stroke="none" xml:space="preserve" x="268" y="232" font-family="Arial" font-size="16" font-weight="400" font-style="normal" 
 >row_5</text>
<text fill="#333333" fill-opacity="1" stroke="none" xml:space="preserve" x="324" y="232" font-family="Arial" font-size="16" font-weight="400" font-style="normal" 
 >5.550e+03</text>
<text fill="#333333" fill-opacity="1" stroke="none" xml:space="preserve" x="410" y="232" font-family="Arial" font-size="16" font-weight="400" font-style="normal" 
 >NA</text>
<text fill="#333333" fill-opacity="1" stroke="none" xml:space="preserve" x="494" y="232" font-family="Arial" font-size="16" font-weight="400" font-style="normal" 
 >2015-05-15</text>
<text fill="#333333" fill-opacity="1" stroke="none" xml:space="preserve" x="586" y="232" font-family="Arial" font-size="16" font-weight="400" font-style="normal" 
 >17:55</text>
<text fill="#333333" fill-opacity="1" stroke="none" xml:space="preserve" x="636" y="232" font-family="Arial" font-size="16" font-weight="400" font-style="normal" 
 >2018-05-05 04:00</text>
<text fill="#333333" fill-opacity="1" stroke="none" xml:space="preserve" x="268" y="267" font-family="Arial" font-size="16" font-weight="400" font-style="normal" 
 >row_6</text>
<text fill="#333333" fill-opacity="1" stroke="none" xml:space="preserve" x="377" y="267" font-family="Arial" font-size="16" font-weight="400" font-style="normal" 
 >NA</text>
<text fill="#333333" fill-opacity="1" stroke="none" xml:space="preserve" x="410" y="267" font-family="Arial" font-size="16" font-weight="400" font-style="normal" 
 >fig</text>
<text fill="#333333" fill-opacity="1" stroke="none" xml:space="preserve" x="494" y="267" font-family="Arial" font-size="16" font-weight="400" font-style="normal" 
 >2015-06-15</text>
<text fill="#333333" fill-opacity="1" stroke="none" xml:space="preserve" x="586" y="267" font-family="Arial" font-size="16" font-weight="400" font-style="normal" 
 >NA</text>
<text fill="#333333" fill-opacity="1" stroke="none" xml:space="preserve" x="636" y="267" font-family="Arial" font-size="16" font-weight="400" font-style="normal" 
 >2018-06-06 16:11</text>
<text fill="#333333" fill-opacity="1" stroke="none" xml:space="preserve" x="268" y="302" font-family="Arial" font-size="16" font-weight="400" font-style="normal" 
 >row_7</text>
<text fill="#333333" fill-opacity="1" stroke="none" xml:space="preserve" x="324" y="302" font-family="Arial" font-size="16" font-weight="400" font-style="normal" 
 >7.770e+05</text>
<text fill="#333333" fill-opacity="1" stroke="none" xml:space="preserve" x="410" y="302" font-family="Arial" font-size="16" font-weight="400" font-style="normal" 
 >grapefruit</text>
<text fill="#333333" fill-opacity="1" stroke="none" xml:space="preserve" x="494" y="302" font-family="Arial" font-size="16" font-weight="400" font-style="normal" 
 >NA</text>
<text fill="#333333" fill-opacity="1" stroke="none" xml:space="preserve" x="586" y="302" font-family="Arial" font-size="16" font-weight="400" font-style="normal" 
 >19:10</text>
<text fill="#333333" fill-opacity="1" stroke="none" xml:space="preserve" x="636" y="302" font-family="Arial" font-size="16" font-weight="400" font-style="normal" 
 >2018-07-07 05:22</text>
<text fill="#333333" fill-opacity="1" stroke="none" xml:space="preserve" x="268" y="337" font-family="Arial" font-size="16" font-weight="400" font-style="normal" 
 >row_8</text>
<text fill="#333333" fill-opacity="1" stroke="none" xml:space="preserve" x="324" y="337" font-family="Arial" font-size="16" font-weight="400" font-style="normal" 
 >8.880e+06</text>
<text fill="#333333" fill-opacity="1" stroke="none" xml:space="preserve" x="410" y="337" font-family="Arial" font-size="16" font-weight="400" font-style="normal" 
 >honeydew</text>
<text fill="#333333" fill-opacity="1" stroke="none" xml:space="preserve" x="494" y="337" font-family="Arial" font-size="16" font-weight="400" font-style="normal" 
 >2015-08-15</text>
<text fill="#333333" fill-opacity="1" stroke="none" xml:space="preserve" x="586" y="337" font-family="Arial" font-size="16" font-weight="400" font-style="normal" 
 >20:20</text>
<text fill="#333333" fill-opacity="1" stroke="none" xml:space="preserve" x="636" y="337" font-family="Arial" font-size="16" font-weight="400" font-style="normal" 
 >NA</text>
</g>
</g>
</svg>
