<?xml version="1.0" encoding="UTF-8" standalone="no"?>
<svg width="361.244mm" height="185.561mm"
 viewBox="0 0 1024 526"
 xmlns="http://www.w3.org/2000/svg" xmlns:xlink="http://www.w3.org/1999/xlink"  version="1.2" baseProfile="tiny">
<title>Qt Svg Document</title>
<desc>Generated with Qt</desc>
<defs>
</defs>
<g fill="none" stroke="black" stroke-width="1" fill-rule="evenodd" stroke-linecap="square" stroke-linejoin="bevel" >

<g fill="#ffffff" fill-opacity="1" stroke="none" transform="matrix(1,0,0,1,0,0)"
font-family="Helvetica" font-size="12" font-weight="400" font-style="normal" 
>
<path vector-effect="non-scaling-stroke" fill-rule="evenodd" d="M0,0 L1024,0 L1024,526 L0,526 L0,0"/>
<path vector-effect="non-scaling-stroke" fill-rule="evenodd" d="M0,0 L1024,0 L1024,526 L0,526 L0,0"/>
<path vector-effect="non-scaling-stroke" fill-rule="evenodd" d="M0,0 L1024,0 L1024,526 L0,526 L0,0"/>
<path vector-effect="non-scaling-stroke" fill-rule="evenodd" d="M317,8 L707,8 L707,518 L317,518 L317,8"/>
<path vector-effect="non-scaling-stroke" fill-rule="evenodd" d="M317,9 L707,9 L707,30 L317,30 L317,9"/>
<path vector-effect="non-scaling-stroke" fill-rule="evenodd" d="M317,30 L707,30 L707,52 L317,52 L317,30"/>
<path vector-effect="non-scaling-stroke" fill-rule="evenodd" d="M317,52 L387,52 L387,93 L317,93 L317,52"/>
<path vector-effect="non-scaling-stroke" fill-rule="evenodd" d="M387,52 L507,52 L507,93 L387,93 L387,52"/>
<path vector-effect="non-scaling-stroke" fill-rule="evenodd" d="M507,52 L601,52 L601,93 L507,93 L507,52"/>
<path vector-effect="non-scaling-stroke" fill-rule="evenodd" d="M601,52 L707,52 L707,93 L601,93 L601,52"/>
<path vector-effect="non-scaling-stroke" fill-rule="evenodd" d="M317,93 L707,93 L707,129 L317,129 L317,93"/>
</g>

<g fill="#f2f2f2" fill-opacity="1" stroke="none" transform="matrix(1,0,0,1,0,0)"
font-family="Helvetica" font-size="12" font-weight="400" font-style="normal" 
>
<path vector-effect="non-scaling-stroke" fill-rule="evenodd" d="M317,129 L387,129 L387,168 L317,168 L317,129"/>
</g>

<g fill="#ffffff" fill-opacity="1" stroke="none" transform="matrix(1,0,0,1,0,0)"
font-family="Helvetica" font-size="12" font-weight="400" font-style="normal" 
>
<path vector-effect="non-scaling-stroke" fill-rule="evenodd" d="M317,129 L387,129 L387,168 L317,168 L317,129"/>
</g>

<g fill="#f2f2f2" fill-opacity="1" stroke="none" transform="matrix(1,0,0,1,0,0)"
font-family="Helvetica" font-size="12" font-weight="400" font-style="normal" 
>
<path vector-effect="non-scaling-stroke" fill-rule="evenodd" d="M387,129 L507,129 L507,168 L387,168 L387,129"/>
<path vector-effect="non-scaling-stroke" fill-rule="evenodd" d="M507,129 L601,129 L601,168 L507,168 L507,129"/>
<path vector-effect="non-scaling-stroke" fill-rule="evenodd" d="M601,129 L707,129 L707,168 L601,168 L601,129"/>
</g>

<g fill="#ffffff" fill-opacity="1" stroke="none" transform="matrix(1,0,0,1,0,0)"
font-family="Helvetica" font-size="12" font-weight="400" font-style="normal" 
>
<path vector-effect="non-scaling-stroke" fill-rule="evenodd" d="M317,168 L387,168 L387,206 L317,206 L317,168"/>
</g>

<g fill="#f2f2f2" fill-opacity="1" stroke="none" transform="matrix(1,0,0,1,0,0)"
font-family="Helvetica" font-size="12" font-weight="400" font-style="normal" 
>
<path vector-effect="non-scaling-stroke" fill-rule="evenodd" d="M317,206 L387,206 L387,244 L317,244 L317,206"/>
</g>

<g fill="#ffffff" fill-opacity="1" stroke="none" transform="matrix(1,0,0,1,0,0)"
font-family="Helvetica" font-size="12" font-weight="400" font-style="normal" 
>
<path vector-effect="non-scaling-stroke" fill-rule="evenodd" d="M317,206 L387,206 L387,244 L317,244 L317,206"/>
</g>

<g fill="#f2f2f2" fill-opacity="1" stroke="none" transform="matrix(1,0,0,1,0,0)"
font-family="Helvetica" font-size="12" font-weight="400" font-style="normal" 
>
<path vector-effect="non-scaling-stroke" fill-rule="evenodd" d="M387,206 L507,206 L507,244 L387,244 L387,206"/>
<path vector-effect="non-scaling-stroke" fill-rule="evenodd" d="M507,206 L601,206 L601,244 L507,244 L507,206"/>
<path vector-effect="non-scaling-stroke" fill-rule="evenodd" d="M601,206 L707,206 L707,244 L601,244 L601,206"/>
</g>

<g fill="#ffffff" fill-opacity="1" stroke="none" transform="matrix(1,0,0,1,0,0)"
font-family="Helvetica" font-size="12" font-weight="400" font-style="normal" 
>
<path vector-effect="non-scaling-stroke" fill-rule="evenodd" d="M317,244 L387,244 L387,284 L317,284 L317,244"/>
</g>

<g fill="#f2f2f2" fill-opacity="1" stroke="none" transform="matrix(1,0,0,1,0,0)"
font-family="Helvetica" font-size="12" font-weight="400" font-style="normal" 
>
<path vector-effect="non-scaling-stroke" fill-rule="evenodd" d="M317,284 L707,284 L707,320 L317,320 L317,284"/>
</g>

<g fill="#ffffff" fill-opacity="1" stroke="none" transform="matrix(1,0,0,1,0,0)"
font-family="Helvetica" font-size="12" font-weight="400" font-style="normal" 
>
<path vector-effect="non-scaling-stroke" fill-rule="evenodd" d="M317,284 L707,284 L707,320 L317,320 L317,284"/>
<path vector-effect="non-scaling-stroke" fill-rule="evenodd" d="M317,320 L387,320 L387,360 L317,360 L317,320"/>
</g>

<g fill="#f2f2f2" fill-opacity="1" stroke="none" transform="matrix(1,0,0,1,0,0)"
font-family="Helvetica" font-size="12" font-weight="400" font-style="normal" 
>
<path vector-effect="non-scaling-stroke" fill-rule="evenodd" d="M317,360 L387,360 L387,398 L317,398 L317,360"/>
</g>

<g fill="#ffffff" fill-opacity="1" stroke="none" transform="matrix(1,0,0,1,0,0)"
font-family="Helvetica" font-size="12" font-weight="400" font-style="normal" 
>
<path vector-effect="non-scaling-stroke" fill-rule="evenodd" d="M317,360 L387,360 L387,398 L317,398 L317,360"/>
</g>

<g fill="#f2f2f2" fill-opacity="1" stroke="none" transform="matrix(1,0,0,1,0,0)"
font-family="Helvetica" font-size="12" font-weight="400" font-style="normal" 
>
<path vector-effect="non-scaling-stroke" fill-rule="evenodd" d="M387,360 L507,360 L507,398 L387,398 L387,360"/>
<path vector-effect="non-scaling-stroke" fill-rule="evenodd" d="M507,360 L601,360 L601,398 L507,398 L507,360"/>
<path vector-effect="non-scaling-stroke" fill-rule="evenodd" d="M601,360 L707,360 L707,398 L601,398 L601,360"/>
</g>

<g fill="#ffffff" fill-opacity="1" stroke="none" transform="matrix(1,0,0,1,0,0)"
font-family="Helvetica" font-size="12" font-weight="400" font-style="normal" 
>
<path vector-effect="non-scaling-stroke" fill-rule="evenodd" d="M317,398 L387,398 L387,437 L317,437 L317,398"/>
</g>

<g fill="#f2f2f2" fill-opacity="1" stroke="none" transform="matrix(1,0,0,1,0,0)"
font-family="Helvetica" font-size="12" font-weight="400" font-style="normal" 
>
<path vector-effect="non-scaling-stroke" fill-rule="evenodd" d="M317,437 L387,437 L387,477 L317,477 L317,437"/>
</g>

<g fill="#ffffff" fill-opacity="1" stroke="none" transform="matrix(1,0,0,1,0,0)"
font-family="Helvetica" font-size="12" font-weight="400" font-style="normal" 
>
<path vector-effect="non-scaling-stroke" fill-rule="evenodd" d="M317,437 L387,437 L387,477 L317,477 L317,437"/>
</g>

<g fill="#f2f2f2" fill-opacity="1" stroke="none" transform="matrix(1,0,0,1,0,0)"
font-family="Helvetica" font-size="12" font-weight="400" font-style="normal" 
>
<path vector-effect="non-scaling-stroke" fill-rule="evenodd" d="M387,437 L507,437 L507,477 L387,477 L387,437"/>
<path vector-effect="non-scaling-stroke" fill-rule="evenodd" d="M507,437 L601,437 L601,477 L507,477 L507,437"/>
<path vector-effect="non-scaling-stroke" fill-rule="evenodd" d="M601,437 L707,437 L707,477 L601,477 L601,437"/>
</g>

<g fill="#a8a8a8" fill-opacity="1" stroke="none" transform="matrix(1,0,0,1,0,0)"
font-family="Helvetica" font-size="12" font-weight="400" font-style="normal" 
>
<path vector-effect="non-scaling-stroke" fill-rule="evenodd" d="M317,8 L707,8 L707,10 L317,10 L317,8"/>
<path vector-effect="non-scaling-stroke" fill-rule="evenodd" d="M317,476 L388,476 L388,478 L317,478 L317,476"/>
<path vector-effect="non-scaling-stroke" fill-rule="evenodd" d="M386,476 L507,476 L507,478 L386,478 L386,476"/>
<path vector-effect="non-scaling-stroke" fill-rule="evenodd" d="M507,476 L601,476 L601,478 L507,478 L507,476"/>
<path vector-effect="non-scaling-stroke" fill-rule="evenodd" d="M601,476 L707,476 L707,478 L601,478 L601,476"/>
<path vector-effect="non-scaling-stroke" fill-rule="evenodd" d="M317,476 L707,476 L707,478 L317,478 L317,476"/>
<path vector-effect="non-scaling-stroke" fill-rule="evenodd" d="M317,51 L707,51 L707,53 L317,53 L317,51"/>
<path vector-effect="non-scaling-stroke" fill-rule="evenodd" d="M317,51 L387,51 L387,53 L317,53 L317,51"/>
<path vector-effect="non-scaling-stroke" fill-rule="evenodd" d="M317,92 L387,92 L387,94 L317,94 L317,92"/>
<path vector-effect="non-scaling-stroke" fill-rule="evenodd" d="M387,51 L507,51 L507,53 L387,53 L387,51"/>
<path vector-effect="non-scaling-stroke" fill-rule="evenodd" d="M387,92 L507,92 L507,94 L387,94 L387,92"/>
<path vector-effect="non-scaling-stroke" fill-rule="evenodd" d="M507,51 L601,51 L601,53 L507,53 L507,51"/>
<path vector-effect="non-scaling-stroke" fill-rule="evenodd" d="M507,92 L601,92 L601,94 L507,94 L507,92"/>
<path vector-effect="non-scaling-stroke" fill-rule="evenodd" d="M601,51 L707,51 L707,53 L601,53 L601,51"/>
<path vector-effect="non-scaling-stroke" fill-rule="evenodd" d="M601,92 L707,92 L707,94 L601,94 L601,92"/>
<path vector-effect="non-scaling-stroke" fill-rule="evenodd" d="M317,92 L707,92 L707,94 L317,94 L317,92"/>
<path vector-effect="non-scaling-stroke" fill-rule="evenodd" d="M317,128 L707,128 L707,130 L317,130 L317,128"/>
<path vector-effect="non-scaling-stroke" fill-rule="evenodd" d="M317,128 L388,128 L388,130 L317,130 L317,128"/>
<path vector-effect="non-scaling-stroke" fill-rule="evenodd" d="M386,128 L388,128 L388,168 L386,168 L386,128"/>
<path vector-effect="non-scaling-stroke" fill-rule="evenodd" d="M386,128 L507,128 L507,130 L386,130 L386,128"/>
<path vector-effect="non-scaling-stroke" fill-rule="evenodd" d="M386,128 L388,128 L388,168 L386,168 L386,128"/>
<path vector-effect="non-scaling-stroke" fill-rule="evenodd" d="M507,128 L601,128 L601,130 L507,130 L507,128"/>
<path vector-effect="non-scaling-stroke" fill-rule="evenodd" d="M601,128 L707,128 L707,130 L601,130 L601,128"/>
<path vector-effect="non-scaling-stroke" fill-rule="evenodd" d="M386,168 L388,168 L388,206 L386,206 L386,168"/>
<path vector-effect="non-scaling-stroke" fill-rule="evenodd" d="M386,168 L388,168 L388,206 L386,206 L386,168"/>
<path vector-effect="non-scaling-stroke" fill-rule="evenodd" d="M386,206 L388,206 L388,244 L386,244 L386,206"/>
<path vector-effect="non-scaling-stroke" fill-rule="evenodd" d="M386,206 L388,206 L388,244 L386,244 L386,206"/>
<path vector-effect="non-scaling-stroke" fill-rule="evenodd" d="M317,283 L388,283 L388,285 L317,285 L317,283"/>
<path vector-effect="non-scaling-stroke" fill-rule="evenodd" d="M386,244 L388,244 L388,285 L386,285 L386,244"/>
<path vector-effect="non-scaling-stroke" fill-rule="evenodd" d="M386,283 L507,283 L507,285 L386,285 L386,283"/>
<path vector-effect="non-scaling-stroke" fill-rule="evenodd" d="M386,244 L388,244 L388,285 L386,285 L386,244"/>
<path vector-effect="non-scaling-stroke" fill-rule="evenodd" d="M507,283 L601,283 L601,285 L507,285 L507,283"/>
<path vector-effect="non-scaling-stroke" fill-rule="evenodd" d="M601,283 L707,283 L707,285 L601,285 L601,283"/>
<path vector-effect="non-scaling-stroke" fill-rule="evenodd" d="M317,283 L707,283 L707,285 L317,285 L317,283"/>
<path vector-effect="non-scaling-stroke" fill-rule="evenodd" d="M317,319 L707,319 L707,321 L317,321 L317,319"/>
<path vector-effect="non-scaling-stroke" fill-rule="evenodd" d="M317,319 L388,319 L388,321 L317,321 L317,319"/>
<path vector-effect="non-scaling-stroke" fill-rule="evenodd" d="M386,319 L388,319 L388,360 L386,360 L386,319"/>
<path vector-effect="non-scaling-stroke" fill-rule="evenodd" d="M386,319 L507,319 L507,321 L386,321 L386,319"/>
<path vector-effect="non-scaling-stroke" fill-rule="evenodd" d="M386,319 L388,319 L388,360 L386,360 L386,319"/>
<path vector-effect="non-scaling-stroke" fill-rule="evenodd" d="M507,319 L601,319 L601,321 L507,321 L507,319"/>
<path vector-effect="non-scaling-stroke" fill-rule="evenodd" d="M601,319 L707,319 L707,321 L601,321 L601,319"/>
<path vector-effect="non-scaling-stroke" fill-rule="evenodd" d="M386,360 L388,360 L388,398 L386,398 L386,360"/>
<path vector-effect="non-scaling-stroke" fill-rule="evenodd" d="M386,360 L388,360 L388,398 L386,398 L386,360"/>
<path vector-effect="non-scaling-stroke" fill-rule="evenodd" d="M386,398 L388,398 L388,437 L386,437 L386,398"/>
<path vector-effect="non-scaling-stroke" fill-rule="evenodd" d="M386,398 L388,398 L388,437 L386,437 L386,398"/>
<path vector-effect="non-scaling-stroke" fill-rule="evenodd" d="M386,437 L388,437 L388,478 L386,478 L386,437"/>
<path vector-effect="non-scaling-stroke" fill-rule="evenodd" d="M386,437 L388,437 L388,478 L386,478 L386,437"/>
</g>

<g fill="#000000" fill-opacity="1" stroke="#000000" stroke-opacity="1" stroke-width="1" stroke-linecap="square" stroke-linejoin="bevel" transform="matrix(1,0,0,1,0,0)"
font-family="Arial" font-size="13" font-weight="400" font-style="normal" 
>
<text fill="#000000" fill-opacity="1" stroke="none" xml:space="preserve" x="440" y="26" font-family="Arial" font-size="13" font-weight="400" font-style="normal" 
 >Data listing from </text>
</g>

<g fill="#000000" fill-opacity="1" stroke="#000000" stroke-opacity="1" stroke-width="1" stroke-linecap="square" stroke-linejoin="bevel" transform="matrix(1,0,0,1,0,0)"
font-family="Arial" font-size="13" font-weight="700" font-style="normal" 
>
<text fill="#000000" fill-opacity="1" stroke="none" xml:space="preserve" x="539" y="26" font-family="Arial" font-size="13" font-weight="700" font-style="normal" 
 >exibble</text>
</g>

<g fill="#000000" fill-opacity="1" stroke="#000000" stroke-opacity="1" stroke-width="1" stroke-linecap="square" stroke-linejoin="bevel" transform="matrix(1,0,0,1,0,0)"
font-family="Courier New" font-size="12" font-weight="400" font-style="normal" 
>
<text fill="#000000" fill-opacity="1" stroke="none" xml:space="preserve" x="441.5" y="43" font-family="Courier New" font-size="12" font-weight="400" font-style="normal" 
 >exibble</text>
</g>

<g fill="#000000" fill-opacity="1" stroke="#000000" stroke-opacity="1" stroke-width="1" stroke-linecap="square" stroke-linejoin="bevel" transform="matrix(1,0,0,1,0,0)"
font-family="Arial" font-size="13" font-weight="400" font-style="normal" 
>
<text fill="#000000" fill-opacity="1" stroke="none" xml:space="preserve" x="490.5" y="43" font-family="Arial" font-size="13" font-weight="400" font-style="normal" 
 > is an R dataset</text>
</g>

<g fill="#000000" fill-opacity="1" stroke="#000000" stroke-opacity="1" stroke-width="1" stroke-linecap="square" stroke-linejoin="bevel" transform="matrix(1,0,0,1,0,0)"
font-family="Arial" font-size="16" font-weight="400" font-style="normal" 
>
<text fill="#000000" fill-opacity="1" stroke="none" xml:space="preserve" x="466" y="77" font-family="Arial" font-size="16" font-weight="400" font-style="normal" 
 >num</text>
<text fill="#000000" fill-opacity="1" stroke="none" xml:space="preserve" x="517" y="78" font-family="Arial" font-size="16" font-weight="400" font-style="normal" 
 >char</text>
</g>

<g fill="#000000" fill-opacity="1" stroke="#000000" stroke-opacity="1" stroke-width="1" stroke-linecap="square" stroke-linejoin="bevel" transform="matrix(1,0,0,1,0,0)"
font-family="Arial" font-size="10" font-weight="400" font-style="italic" 
>
<text fill="#000000" fill-opacity="1" stroke="none" xml:space="preserve" x="548" y="72" font-family="Arial" font-size="10" font-weight="400" font-style="italic" 
 >1</text>
</g>

<g fill="#000000" fill-opacity="1" stroke="#000000" stroke-opacity="1" stroke-width="1" stroke-linecap="square" stroke-linejoin="bevel" transform="matrix(1,0,0,1,0,0)"
font-family="Arial" font-size="16" font-weight="400" font-style="normal" 
>
<text fill="#000000" fill-opacity="1" stroke="none" xml:space="preserve" x="636" y="77" font-family="Arial" font-size="16" font-weight="400" font-style="normal" 
 >currency</text>
<text fill="#000000" fill-opacity="1" stroke="none" xml:space="preserve" x="325" y="116" font-family="Arial" font-size="16" font-weight="400" font-style="normal" 
 >grp_a</text>
<text fill="#000000" fill-opacity="1" stroke="none" xml:space="preserve" x="332" y="154" font-family="Arial" font-size="16" font-weight="400" font-style="normal" 
 >row_1</text>
<text fill="#000000" fill-opacity="1" stroke="none" xml:space="preserve" x="466" y="154" font-family="Arial" font-size="16" font-weight="400" font-style="normal" 
 >0.11</text>
<text fill="#000000" fill-opacity="1" stroke="none" xml:space="preserve" x="517" y="154" font-family="Arial" font-size="16" font-weight="400" font-style="normal" 
 >apricot</text>
<text fill="#000000" fill-opacity="1" stroke="none" xml:space="preserve" x="648" y="154" font-family="Arial" font-size="16" font-weight="400" font-style="normal" 
 >$49.95</text>
<text fill="#000000" fill-opacity="1" stroke="none" xml:space="preserve" x="332" y="192" font-family="Arial" font-size="16" font-weight="400" font-style="normal" 
 >row_2</text>
<text fill="#000000" fill-opacity="1" stroke="none" xml:space="preserve" x="466" y="192" font-family="Arial" font-size="16" font-weight="400" font-style="normal" 
 >2.22</text>
<text fill="#000000" fill-opacity="1" stroke="none" xml:space="preserve" x="517" y="192" font-family="Arial" font-size="16" font-weight="400" font-style="normal" 
 >banana</text>
<text fill="#000000" fill-opacity="1" stroke="none" xml:space="preserve" x="648" y="192" font-family="Arial" font-size="16" font-weight="400" font-style="normal" 
 >$17.95</text>
<text fill="#000000" fill-opacity="1" stroke="none" xml:space="preserve" x="332" y="230" font-family="Arial" font-size="16" font-weight="400" font-style="normal" 
 >row_3</text>
<text fill="#000000" fill-opacity="1" stroke="none" xml:space="preserve" x="457" y="230" font-family="Arial" font-size="16" font-weight="400" font-style="normal" 
 >33.33</text>
<text fill="#000000" fill-opacity="1" stroke="none" xml:space="preserve" x="517" y="230" font-family="Arial" font-size="16" font-weight="400" font-style="normal" 
 >coconut</text>
<text fill="#000000" fill-opacity="1" stroke="none" xml:space="preserve" x="657" y="230" font-family="Arial" font-size="16" font-weight="400" font-style="normal" 
 >$1.39</text>
<text fill="#000000" fill-opacity="1" stroke="none" xml:space="preserve" x="332" y="268" font-family="Arial" font-size="16" font-weight="400" font-style="normal" 
 >row_4</text>
<text fill="#000000" fill-opacity="1" stroke="none" xml:space="preserve" x="448" y="268" font-family="Arial" font-size="16" font-weight="400" font-style="normal" 
 >444.40</text>
<text fill="#000000" fill-opacity="1" stroke="none" xml:space="preserve" x="517" y="268" font-family="Arial" font-size="16" font-weight="400" font-style="normal" 
 >durian</text>
<text fill="#000000" fill-opacity="1" stroke="none" xml:space="preserve" x="611" y="269" font-family="Arial" font-size="16" font-weight="400" font-style="normal" 
 >$65,100.00</text>
</g>

<g fill="#000000" fill-opacity="1" stroke="#000000" stroke-opacity="1" stroke-width="1" stroke-linecap="square" stroke-linejoin="bevel" transform="matrix(1,0,0,1,0,0)"
font-family="Arial" font-size="10" font-weight="400" font-style="italic" 
>
<text fill="#000000" fill-opacity="1" stroke="none" xml:space="preserve" x="691" y="263" font-family="Arial" font-size="10" font-weight="400" font-style="italic" 
 >2</text>
</g>

<g fill="#000000" fill-opacity="1" stroke="#000000" stroke-opacity="1" stroke-width="1" stroke-linecap="square" stroke-linejoin="bevel" transform="matrix(1,0,0,1,0,0)"
font-family="Arial" font-size="16" font-weight="400" font-style="normal" 
>
<text fill="#000000" fill-opacity="1" stroke="none" xml:space="preserve" x="325" y="307" font-family="Arial" font-size="16" font-weight="400" font-style="normal" 
 >grp_b</text>
<text fill="#000000" fill-opacity="1" stroke="none" xml:space="preserve" x="332" y="345" font-family="Arial" font-size="16" font-weight="400" font-style="normal" 
 >row_5</text>
<text fill="#000000" fill-opacity="1" stroke="none" xml:space="preserve" x="429" y="346" font-family="Arial" font-size="16" font-weight="400" font-style="normal" 
 >5,550.00</text>
</g>

<g fill="#000000" fill-opacity="1" stroke="#000000" stroke-opacity="1" stroke-width="1" stroke-linecap="square" stroke-linejoin="bevel" transform="matrix(1,0,0,1,0,0)"
font-family="Arial" font-size="10" font-weight="400" font-style="italic" 
>
<text fill="#000000" fill-opacity="1" stroke="none" xml:space="preserve" x="491" y="340" font-family="Arial" font-size="10" font-weight="400" font-style="italic" 
 >2</text>
</g>

<g fill="#000000" fill-opacity="1" stroke="#000000" stroke-opacity="1" stroke-width="1" stroke-linecap="square" stroke-linejoin="bevel" transform="matrix(1,0,0,1,0,0)"
font-family="Arial" font-size="16" font-weight="400" font-style="normal" 
>
<text fill="#000000" fill-opacity="1" stroke="none" xml:space="preserve" x="517" y="345" font-family="Arial" font-size="16" font-weight="400" font-style="normal" 
 >NA</text>
<text fill="#000000" fill-opacity="1" stroke="none" xml:space="preserve" x="620" y="346" font-family="Arial" font-size="16" font-weight="400" font-style="normal" 
 >$1,325.81</text>
</g>

<g fill="#000000" fill-opacity="1" stroke="#000000" stroke-opacity="1" stroke-width="1" stroke-linecap="square" stroke-linejoin="bevel" transform="matrix(1,0,0,1,0,0)"
font-family="Arial" font-size="10" font-weight="400" font-style="italic" 
>
<text fill="#000000" fill-opacity="1" stroke="none" xml:space="preserve" x="691" y="340" font-family="Arial" font-size="10" font-weight="400" font-style="italic" 
 >2</text>
</g>

<g fill="#000000" fill-opacity="1" stroke="#000000" stroke-opacity="1" stroke-width="1" stroke-linecap="square" stroke-linejoin="bevel" transform="matrix(1,0,0,1,0,0)"
font-family="Arial" font-size="16" font-weight="400" font-style="normal" 
>
<text fill="#000000" fill-opacity="1" stroke="none" xml:space="preserve" x="332" y="384" font-family="Arial" font-size="16" font-weight="400" font-style="normal" 
 >row_6</text>
<text fill="#000000" fill-opacity="1" stroke="none" xml:space="preserve" x="474" y="384" font-family="Arial" font-size="16" font-weight="400" font-style="normal" 
 >NA</text>
<text fill="#000000" fill-opacity="1" stroke="none" xml:space="preserve" x="517" y="384" font-family="Arial" font-size="16" font-weight="400" font-style="normal" 
 >fig</text>
<text fill="#000000" fill-opacity="1" stroke="none" xml:space="preserve" x="648" y="384" font-family="Arial" font-size="16" font-weight="400" font-style="normal" 
 >$13.26</text>
<text fill="#000000" fill-opacity="1" stroke="none" xml:space="preserve" x="332" y="422" font-family="Arial" font-size="16" font-weight="400" font-style="normal" 
 >row_7</text>
<text fill="#000000" fill-opacity="1" stroke="none" xml:space="preserve" x="411" y="423" font-family="Arial" font-size="16" font-weight="400" font-style="normal" 
 >777,000.00</text>
</g>

<g fill="#000000" fill-opacity="1" stroke="#000000" stroke-opacity="1" stroke-width="1" stroke-linecap="square" stroke-linejoin="bevel" transform="matrix(1,0,0,1,0,0)"
font-family="Arial" font-size="10" font-weight="400" font-style="italic" 
>
<text fill="#000000" fill-opacity="1" stroke="none" xml:space="preserve" x="491" y="417" font-family="Arial" font-size="10" font-weight="400" font-style="italic" 
 >2</text>
</g>

<g fill="#000000" fill-opacity="1" stroke="#000000" stroke-opacity="1" stroke-width="1" stroke-linecap="square" stroke-linejoin="bevel" transform="matrix(1,0,0,1,0,0)"
font-family="Arial" font-size="16" font-weight="400" font-style="normal" 
>
<text fill="#000000" fill-opacity="1" stroke="none" xml:space="preserve" x="517" y="422" font-family="Arial" font-size="16" font-weight="400" font-style="normal" 
 >grapefruit</text>
<text fill="#000000" fill-opacity="1" stroke="none" xml:space="preserve" x="674" y="422" font-family="Arial" font-size="16" font-weight="400" font-style="normal" 
 >NA</text>
<text fill="#000000" fill-opacity="1" stroke="none" xml:space="preserve" x="332" y="461" font-family="Arial" font-size="16" font-weight="400" font-style="normal" 
 >row_8</text>
<text fill="#000000" fill-opacity="1" stroke="none" xml:space="preserve" x="398" y="462" font-family="Arial" font-size="16" font-weight="400" font-style="normal" 
 >8,880,000.00</text>
</g>

<g fill="#000000" fill-opacity="1" stroke="#000000" stroke-opacity="1" stroke-width="1" stroke-linecap="square" stroke-linejoin="bevel" transform="matrix(1,0,0,1,0,0)"
font-family="Arial" font-size="10" font-weight="400" font-style="italic" 
>
<text fill="#000000" fill-opacity="1" stroke="none" xml:space="preserve" x="491" y="456" font-family="Arial" font-size="10" font-weight="400" font-style="italic" 
 >2</text>
</g>

<g fill="#000000" fill-opacity="1" stroke="#000000" stroke-opacity="1" stroke-width="1" stroke-linecap="square" stroke-linejoin="bevel" transform="matrix(1,0,0,1,0,0)"
font-family="Arial" font-size="16" font-weight="400" font-style="normal" 
>
<text fill="#000000" fill-opacity="1" stroke="none" xml:space="preserve" x="517" y="461" font-family="Arial" font-size="16" font-weight="400" font-style="normal" 
 >honeydew</text>
<text fill="#000000" fill-opacity="1" stroke="none" xml:space="preserve" x="657" y="461" font-family="Arial" font-size="16" font-weight="400" font-style="normal" 
 >$0.44</text>
</g>

<g fill="#000000" fill-opacity="1" stroke="#000000" stroke-opacity="1" stroke-width="1" stroke-linecap="square" stroke-linejoin="bevel" transform="matrix(1,0,0,1,0,0)"
font-family="Arial" font-size="9" font-weight="400" font-style="italic" 
>
<text fill="#000000" fill-opacity="1" stroke="none" xml:space="preserve" x="321" y="490" font-family="Arial" font-size="9" font-weight="400" font-style="italic" 
 >1</text>
</g>

<g fill="#000000" fill-opacity="1" stroke="#000000" stroke-opacity="1" stroke-width="1" stroke-linecap="square" stroke-linejoin="bevel" transform="matrix(1,0,0,1,0,0)"
font-family="Arial" font-size="14" font-weight="400" font-style="normal" 
>
<text fill="#000000" fill-opacity="1" stroke="none" xml:space="preserve" x="326" y="495" font-family="Arial" font-size="14" font-weight="400" font-style="normal" 
 > Alphabetical fruit.</text>
</g>

<g fill="#000000" fill-opacity="1" stroke="#000000" stroke-opacity="1" stroke-width="1" stroke-linecap="square" stroke-linejoin="bevel" transform="matrix(1,0,0,1,0,0)"
font-family="Arial" font-size="9" font-weight="400" font-style="italic" 
>
<text fill="#000000" fill-opacity="1" stroke="none" xml:space="preserve" x="321" y="506" font-family="Arial" font-size="9" font-weight="400" font-style="italic" 
 >2</text>
</g>

<g fill="#000000" fill-opacity="1" stroke="#000000" stroke-opacity="1" stroke-width="1" stroke-linecap="square" stroke-linejoin="bevel" transform="matrix(1,0,0,1,0,0)"
font-family="Arial" font-size="14" font-weight="400" font-style="normal" 
>
<text fill="#000000" fill-opacity="1" stroke="none" xml:space="preserve" x="326" y="511" font-family="Arial" font-size="14" font-weight="400" font-style="normal" 
 > Using commas for separators.</text>
</g>
</g>
</svg>
