<?xml version="1.0" encoding="UTF-8" standalone="no"?>
<svg width="361.244mm" height="159.103mm"
 viewBox="0 0 1024 451"
 xmlns="http://www.w3.org/2000/svg" xmlns:xlink="http://www.w3.org/1999/xlink"  version="1.2" baseProfile="tiny">
<title>Qt Svg Document</title>
<desc>Generated with Qt</desc>
<defs>
</defs>
<g fill="none" stroke="black" stroke-width="1" fill-rule="evenodd" stroke-linecap="square" stroke-linejoin="bevel" >

<g fill="#ffffff" fill-opacity="1" stroke="none" transform="matrix(1,0,0,1,0,0)"
font-family="Helvetica" font-size="12" font-weight="400" font-style="normal" 
>
<path vector-effect="non-scaling-stroke" fill-rule="evenodd" d="M0,0 L1024,0 L1024,451 L0,451 L0,0"/>
<path vector-effect="non-scaling-stroke" fill-rule="evenodd" d="M0,0 L1024,0 L1024,451 L0,451 L0,0"/>
<path vector-effect="non-scaling-stroke" fill-rule="evenodd" d="M0,0 L1024,0 L1024,451 L0,451 L0,0"/>
<path vector-effect="non-scaling-stroke" fill-rule="evenodd" d="M427,8 L597,8 L597,443 L427,443 L427,8"/>
<path vector-effect="non-scaling-stroke" fill-rule="evenodd" d="M427,9 L492,9 L492,49 L427,49 L427,9"/>
<path vector-effect="non-scaling-stroke" fill-rule="evenodd" d="M492,9 L597,9 L597,49 L492,49 L492,9"/>
<path vector-effect="non-scaling-stroke" fill-rule="evenodd" d="M427,49 L597,49 L597,86 L427,86 L427,49"/>
</g>

<g fill="#f2f2f2" fill-opacity="1" stroke="none" transform="matrix(1,0,0,1,0,0)"
font-family="Helvetica" font-size="12" font-weight="400" font-style="normal" 
>
<path vector-effect="non-scaling-stroke" fill-rule="evenodd" d="M427,86 L492,86 L492,125 L427,125 L427,86"/>
</g>

<g fill="#ffffff" fill-opacity="1" stroke="none" transform="matrix(1,0,0,1,0,0)"
font-family="Helvetica" font-size="12" font-weight="400" font-style="normal" 
>
<path vector-effect="non-scaling-stroke" fill-rule="evenodd" d="M427,86 L492,86 L492,125 L427,125 L427,86"/>
</g>

<g fill="#f2f2f2" fill-opacity="1" stroke="none" transform="matrix(1,0,0,1,0,0)"
font-family="Helvetica" font-size="12" font-weight="400" font-style="normal" 
>
<path vector-effect="non-scaling-stroke" fill-rule="evenodd" d="M492,86 L597,86 L597,125 L492,125 L492,86"/>
</g>

<g fill="#ffffff" fill-opacity="1" stroke="none" transform="matrix(1,0,0,1,0,0)"
font-family="Helvetica" font-size="12" font-weight="400" font-style="normal" 
>
<path vector-effect="non-scaling-stroke" fill-rule="evenodd" d="M427,125 L492,125 L492,163 L427,163 L427,125"/>
</g>

<g fill="#f2f2f2" fill-opacity="1" stroke="none" transform="matrix(1,0,0,1,0,0)"
font-family="Helvetica" font-size="12" font-weight="400" font-style="normal" 
>
<path vector-effect="non-scaling-stroke" fill-rule="evenodd" d="M427,163 L492,163 L492,202 L427,202 L427,163"/>
</g>

<g fill="#ffffff" fill-opacity="1" stroke="none" transform="matrix(1,0,0,1,0,0)"
font-family="Helvetica" font-size="12" font-weight="400" font-style="normal" 
>
<path vector-effect="non-scaling-stroke" fill-rule="evenodd" d="M427,163 L492,163 L492,202 L427,202 L427,163"/>
</g>

<g fill="#f2f2f2" fill-opacity="1" stroke="none" transform="matrix(1,0,0,1,0,0)"
font-family="Helvetica" font-size="12" font-weight="400" font-style="normal" 
>
<path vector-effect="non-scaling-stroke" fill-rule="evenodd" d="M492,163 L597,163 L597,202 L492,202 L492,163"/>
</g>

<g fill="#ffffff" fill-opacity="1" stroke="none" transform="matrix(1,0,0,1,0,0)"
font-family="Helvetica" font-size="12" font-weight="400" font-style="normal" 
>
<path vector-effect="non-scaling-stroke" fill-rule="evenodd" d="M427,202 L492,202 L492,234 L427,234 L427,202"/>
<path vector-effect="non-scaling-stroke" fill-rule="evenodd" d="M492,202 L597,202 L597,234 L492,234 L492,202"/>
</g>

<g fill="#f2f2f2" fill-opacity="1" stroke="none" transform="matrix(1,0,0,1,0,0)"
font-family="Helvetica" font-size="12" font-weight="400" font-style="normal" 
>
<path vector-effect="non-scaling-stroke" fill-rule="evenodd" d="M427,234 L597,234 L597,270 L427,270 L427,234"/>
</g>

<g fill="#ffffff" fill-opacity="1" stroke="none" transform="matrix(1,0,0,1,0,0)"
font-family="Helvetica" font-size="12" font-weight="400" font-style="normal" 
>
<path vector-effect="non-scaling-stroke" fill-rule="evenodd" d="M427,234 L597,234 L597,270 L427,270 L427,234"/>
<path vector-effect="non-scaling-stroke" fill-rule="evenodd" d="M427,270 L492,270 L492,309 L427,309 L427,270"/>
</g>

<g fill="#f2f2f2" fill-opacity="1" stroke="none" transform="matrix(1,0,0,1,0,0)"
font-family="Helvetica" font-size="12" font-weight="400" font-style="normal" 
>
<path vector-effect="non-scaling-stroke" fill-rule="evenodd" d="M427,309 L492,309 L492,347 L427,347 L427,309"/>
</g>

<g fill="#ffffff" fill-opacity="1" stroke="none" transform="matrix(1,0,0,1,0,0)"
font-family="Helvetica" font-size="12" font-weight="400" font-style="normal" 
>
<path vector-effect="non-scaling-stroke" fill-rule="evenodd" d="M427,309 L492,309 L492,347 L427,347 L427,309"/>
</g>

<g fill="#f2f2f2" fill-opacity="1" stroke="none" transform="matrix(1,0,0,1,0,0)"
font-family="Helvetica" font-size="12" font-weight="400" font-style="normal" 
>
<path vector-effect="non-scaling-stroke" fill-rule="evenodd" d="M492,309 L597,309 L597,347 L492,347 L492,309"/>
</g>

<g fill="#ffffff" fill-opacity="1" stroke="none" transform="matrix(1,0,0,1,0,0)"
font-family="Helvetica" font-size="12" font-weight="400" font-style="normal" 
>
<path vector-effect="non-scaling-stroke" fill-rule="evenodd" d="M427,347 L492,347 L492,386 L427,386 L427,347"/>
</g>

<g fill="#f2f2f2" fill-opacity="1" stroke="none" transform="matrix(1,0,0,1,0,0)"
font-family="Helvetica" font-size="12" font-weight="400" font-style="normal" 
>
<path vector-effect="non-scaling-stroke" fill-rule="evenodd" d="M427,386 L492,386 L492,418 L427,418 L427,386"/>
</g>

<g fill="#ffffff" fill-opacity="1" stroke="none" transform="matrix(1,0,0,1,0,0)"
font-family="Helvetica" font-size="12" font-weight="400" font-style="normal" 
>
<path vector-effect="non-scaling-stroke" fill-rule="evenodd" d="M427,386 L492,386 L492,418 L427,418 L427,386"/>
</g>

<g fill="#f2f2f2" fill-opacity="1" stroke="none" transform="matrix(1,0,0,1,0,0)"
font-family="Helvetica" font-size="12" font-weight="400" font-style="normal" 
>
<path vector-effect="non-scaling-stroke" fill-rule="evenodd" d="M492,386 L597,386 L597,418 L492,418 L492,386"/>
</g>

<g fill="#ffffff" fill-opacity="1" stroke="none" transform="matrix(1,0,0,1,0,0)"
font-family="Helvetica" font-size="12" font-weight="400" font-style="normal" 
>
<path vector-effect="non-scaling-stroke" fill-rule="evenodd" d="M492,386 L597,386 L597,418 L492,418 L492,386"/>
</g>

<g fill="#a8a8a8" fill-opacity="1" stroke="none" transform="matrix(1,0,0,1,0,0)"
font-family="Helvetica" font-size="12" font-weight="400" font-style="normal" 
>
<path vector-effect="non-scaling-stroke" fill-rule="evenodd" d="M427,8 L492,8 L492,10 L427,10 L427,8"/>
<path vector-effect="non-scaling-stroke" fill-rule="evenodd" d="M492,8 L597,8 L597,10 L492,10 L492,8"/>
<path vector-effect="non-scaling-stroke" fill-rule="evenodd" d="M427,417 L493,417 L493,419 L427,419 L427,417"/>
<path vector-effect="non-scaling-stroke" fill-rule="evenodd" d="M491,417 L597,417 L597,419 L491,419 L491,417"/>
<path vector-effect="non-scaling-stroke" fill-rule="evenodd" d="M427,417 L597,417 L597,419 L427,419 L427,417"/>
<path vector-effect="non-scaling-stroke" fill-rule="evenodd" d="M427,48 L492,48 L492,50 L427,50 L427,48"/>
<path vector-effect="non-scaling-stroke" fill-rule="evenodd" d="M492,48 L597,48 L597,50 L492,50 L492,48"/>
<path vector-effect="non-scaling-stroke" fill-rule="evenodd" d="M427,48 L597,48 L597,50 L427,50 L427,48"/>
<path vector-effect="non-scaling-stroke" fill-rule="evenodd" d="M427,85 L597,85 L597,87 L427,87 L427,85"/>
<path vector-effect="non-scaling-stroke" fill-rule="evenodd" d="M427,85 L493,85 L493,87 L427,87 L427,85"/>
<path vector-effect="non-scaling-stroke" fill-rule="evenodd" d="M491,85 L493,85 L493,125 L491,125 L491,85"/>
<path vector-effect="non-scaling-stroke" fill-rule="evenodd" d="M491,85 L597,85 L597,87 L491,87 L491,85"/>
<path vector-effect="non-scaling-stroke" fill-rule="evenodd" d="M491,85 L493,85 L493,125 L491,125 L491,85"/>
<path vector-effect="non-scaling-stroke" fill-rule="evenodd" d="M491,125 L493,125 L493,163 L491,163 L491,125"/>
<path vector-effect="non-scaling-stroke" fill-rule="evenodd" d="M491,125 L493,125 L493,163 L491,163 L491,125"/>
<path vector-effect="non-scaling-stroke" fill-rule="evenodd" d="M427,201 L493,201 L493,203 L427,203 L427,201"/>
<path vector-effect="non-scaling-stroke" fill-rule="evenodd" d="M491,163 L493,163 L493,203 L491,203 L491,163"/>
<path vector-effect="non-scaling-stroke" fill-rule="evenodd" d="M491,201 L597,201 L597,203 L491,203 L491,201"/>
<path vector-effect="non-scaling-stroke" fill-rule="evenodd" d="M491,163 L493,163 L493,203 L491,203 L491,163"/>
<path vector-effect="non-scaling-stroke" fill-rule="evenodd" d="M427,201 L493,201 L493,203 L427,203 L427,201"/>
<path vector-effect="non-scaling-stroke" fill-rule="evenodd" d="M427,233 L493,233 L493,235 L427,235 L427,233"/>
<path vector-effect="non-scaling-stroke" fill-rule="evenodd" d="M491,201 L493,201 L493,235 L491,235 L491,201"/>
<path vector-effect="non-scaling-stroke" fill-rule="evenodd" d="M491,201 L597,201 L597,203 L491,203 L491,201"/>
<path vector-effect="non-scaling-stroke" fill-rule="evenodd" d="M491,233 L597,233 L597,235 L491,235 L491,233"/>
<path vector-effect="non-scaling-stroke" fill-rule="evenodd" d="M491,201 L493,201 L493,235 L491,235 L491,201"/>
<path vector-effect="non-scaling-stroke" fill-rule="evenodd" d="M427,233 L597,233 L597,235 L427,235 L427,233"/>
<path vector-effect="non-scaling-stroke" fill-rule="evenodd" d="M427,269 L597,269 L597,271 L427,271 L427,269"/>
<path vector-effect="non-scaling-stroke" fill-rule="evenodd" d="M427,269 L493,269 L493,271 L427,271 L427,269"/>
<path vector-effect="non-scaling-stroke" fill-rule="evenodd" d="M491,269 L493,269 L493,309 L491,309 L491,269"/>
<path vector-effect="non-scaling-stroke" fill-rule="evenodd" d="M491,269 L597,269 L597,271 L491,271 L491,269"/>
<path vector-effect="non-scaling-stroke" fill-rule="evenodd" d="M491,269 L493,269 L493,309 L491,309 L491,269"/>
<path vector-effect="non-scaling-stroke" fill-rule="evenodd" d="M491,309 L493,309 L493,347 L491,347 L491,309"/>
<path vector-effect="non-scaling-stroke" fill-rule="evenodd" d="M491,309 L493,309 L493,347 L491,347 L491,309"/>
<path vector-effect="non-scaling-stroke" fill-rule="evenodd" d="M427,385 L493,385 L493,387 L427,387 L427,385"/>
<path vector-effect="non-scaling-stroke" fill-rule="evenodd" d="M491,347 L493,347 L493,387 L491,387 L491,347"/>
<path vector-effect="non-scaling-stroke" fill-rule="evenodd" d="M491,385 L597,385 L597,387 L491,387 L491,385"/>
<path vector-effect="non-scaling-stroke" fill-rule="evenodd" d="M491,347 L493,347 L493,387 L491,387 L491,347"/>
<path vector-effect="non-scaling-stroke" fill-rule="evenodd" d="M427,385 L493,385 L493,387 L427,387 L427,385"/>
<path vector-effect="non-scaling-stroke" fill-rule="evenodd" d="M491,385 L493,385 L493,419 L491,419 L491,385"/>
<path vector-effect="non-scaling-stroke" fill-rule="evenodd" d="M491,385 L597,385 L597,387 L491,387 L491,385"/>
<path vector-effect="non-scaling-stroke" fill-rule="evenodd" d="M491,385 L493,385 L493,419 L491,419 L491,385"/>
</g>

<g fill="#000000" fill-opacity="1" stroke="#000000" stroke-opacity="1" stroke-width="1" stroke-linecap="square" stroke-linejoin="bevel" transform="matrix(1,0,0,1,0,0)"
font-family="Arial" font-size="16" font-weight="400" font-style="normal" 
>
<text fill="#000000" fill-opacity="1" stroke="none" xml:space="preserve" x="502" y="34" font-family="Arial" font-size="16" font-weight="400" font-style="normal" 
 >Pizzas Sold</text>
<text fill="#000000" fill-opacity="1" stroke="none" xml:space="preserve" x="435" y="73" font-family="Arial" font-size="16" font-weight="400" font-style="normal" 
 >peppr_salami</text>
</g>

<g fill="#000000" fill-opacity="1" stroke="#000000" stroke-opacity="1" stroke-width="1" stroke-linecap="square" stroke-linejoin="bevel" transform="matrix(1,0,0,1,0,0)"
font-family="Arial" font-size="10" font-weight="400" font-style="italic" 
>
<text fill="#000000" fill-opacity="1" stroke="none" xml:space="preserve" x="532" y="67" font-family="Arial" font-size="10" font-weight="400" font-style="italic" 
 >1</text>
</g>

<g fill="#000000" fill-opacity="1" stroke="#000000" stroke-opacity="1" stroke-width="1" stroke-linecap="square" stroke-linejoin="bevel" transform="matrix(1,0,0,1,0,0)"
font-family="Arial" font-size="16" font-weight="400" font-style="normal" 
>
<text fill="#000000" fill-opacity="1" stroke="none" xml:space="preserve" x="439" y="111" font-family="Arial" font-size="16" font-weight="400" font-style="normal" 
 >L</text>
<text fill="#000000" fill-opacity="1" stroke="none" xml:space="preserve" x="560" y="111" font-family="Arial" font-size="16" font-weight="400" font-style="normal" 
 >696</text>
<text fill="#000000" fill-opacity="1" stroke="none" xml:space="preserve" x="439" y="149" font-family="Arial" font-size="16" font-weight="400" font-style="normal" 
 >M</text>
<text fill="#000000" fill-opacity="1" stroke="none" xml:space="preserve" x="560" y="149" font-family="Arial" font-size="16" font-weight="400" font-style="normal" 
 >428</text>
<text fill="#000000" fill-opacity="1" stroke="none" xml:space="preserve" x="439" y="187" font-family="Arial" font-size="16" font-weight="400" font-style="normal" 
 >S</text>
<text fill="#000000" fill-opacity="1" stroke="none" xml:space="preserve" x="560" y="187" font-family="Arial" font-size="16" font-weight="400" font-style="normal" 
 >322</text>
<text fill="#000000" fill-opacity="1" stroke="none" xml:space="preserve" x="433" y="223" font-family="Arial" font-size="16" font-weight="400" font-style="normal" 
 >TOTAL</text>
<text fill="#000000" fill-opacity="1" stroke="none" xml:space="preserve" x="551" y="223" font-family="Arial" font-size="16" font-weight="400" font-style="normal" 
 >1,446</text>
<text fill="#000000" fill-opacity="1" stroke="none" xml:space="preserve" x="435" y="257" font-family="Arial" font-size="16" font-weight="400" font-style="normal" 
 >soppressata</text>
<text fill="#000000" fill-opacity="1" stroke="none" xml:space="preserve" x="439" y="295" font-family="Arial" font-size="16" font-weight="400" font-style="normal" 
 >L</text>
<text fill="#000000" fill-opacity="1" stroke="none" xml:space="preserve" x="560" y="295" font-family="Arial" font-size="16" font-weight="400" font-style="normal" 
 >405</text>
<text fill="#000000" fill-opacity="1" stroke="none" xml:space="preserve" x="439" y="333" font-family="Arial" font-size="16" font-weight="400" font-style="normal" 
 >M</text>
<text fill="#000000" fill-opacity="1" stroke="none" xml:space="preserve" x="560" y="333" font-family="Arial" font-size="16" font-weight="400" font-style="normal" 
 >268</text>
<text fill="#000000" fill-opacity="1" stroke="none" xml:space="preserve" x="439" y="371" font-family="Arial" font-size="16" font-weight="400" font-style="normal" 
 >S</text>
<text fill="#000000" fill-opacity="1" stroke="none" xml:space="preserve" x="560" y="371" font-family="Arial" font-size="16" font-weight="400" font-style="normal" 
 >288</text>
<text fill="#000000" fill-opacity="1" stroke="none" xml:space="preserve" x="433" y="407" font-family="Arial" font-size="16" font-weight="400" font-style="normal" 
 >TOTAL</text>
<text fill="#000000" fill-opacity="1" stroke="none" xml:space="preserve" x="564" y="407" font-family="Arial" font-size="16" font-weight="400" font-style="normal" 
 >961</text>
</g>

<g fill="#000000" fill-opacity="1" stroke="#000000" stroke-opacity="1" stroke-width="1" stroke-linecap="square" stroke-linejoin="bevel" transform="matrix(1,0,0,1,0,0)"
font-family="Arial" font-size="9" font-weight="400" font-style="italic" 
>
<text fill="#000000" fill-opacity="1" stroke="none" xml:space="preserve" x="431" y="431" font-family="Arial" font-size="9" font-weight="400" font-style="italic" 
 >1</text>
</g>

<g fill="#000000" fill-opacity="1" stroke="#000000" stroke-opacity="1" stroke-width="1" stroke-linecap="square" stroke-linejoin="bevel" transform="matrix(1,0,0,1,0,0)"
font-family="Arial" font-size="14" font-weight="400" font-style="normal" 
>
<text fill="#000000" fill-opacity="1" stroke="none" xml:space="preserve" x="436" y="436" font-family="Arial" font-size="14" font-weight="400" font-style="normal" 
 > The Pepper-Salami.</text>
</g>
</g>
</svg>
