<?xml version="1.0" encoding="UTF-8" standalone="no"?>
<svg width="361.244mm" height="205.317mm"
 viewBox="0 0 1024 582"
 xmlns="http://www.w3.org/2000/svg" xmlns:xlink="http://www.w3.org/1999/xlink"  version="1.2" baseProfile="tiny">
<title>Qt Svg Document</title>
<desc>Generated with Qt</desc>
<defs>
</defs>
<g fill="none" stroke="black" stroke-width="1" fill-rule="evenodd" stroke-linecap="square" stroke-linejoin="bevel" >

<g fill="#ffffff" fill-opacity="1" stroke="none" transform="matrix(1,0,0,1,0,0)"
font-family="Helvetica" font-size="12" font-weight="400" font-style="normal" 
>
<path vector-effect="non-scaling-stroke" fill-rule="evenodd" d="M0,0 L1024,0 L1024,582 L0,582 L0,0"/>
<path vector-effect="non-scaling-stroke" fill-rule="evenodd" d="M0,0 L1024,0 L1024,582 L0,582 L0,0"/>
<path vector-effect="non-scaling-stroke" fill-rule="evenodd" d="M0,0 L1024,0 L1024,582 L0,582 L0,0"/>
<path vector-effect="non-scaling-stroke" fill-rule="evenodd" d="M325,8 L698,8 L698,574 L325,574 L325,8"/>
<path vector-effect="non-scaling-stroke" fill-rule="evenodd" d="M325,9 L425,9 L425,39 L325,39 L325,9"/>
<path vector-effect="non-scaling-stroke" fill-rule="evenodd" d="M425,9 L494,9 L494,39 L425,39 L425,9"/>
<path vector-effect="non-scaling-stroke" fill-rule="evenodd" d="M494,9 L562,9 L562,39 L494,39 L494,9"/>
<path vector-effect="non-scaling-stroke" fill-rule="evenodd" d="M562,9 L630,9 L630,39 L562,39 L562,9"/>
<path vector-effect="non-scaling-stroke" fill-rule="evenodd" d="M630,9 L698,9 L698,39 L630,39 L630,9"/>
<path vector-effect="non-scaling-stroke" fill-rule="evenodd" d="M325,39 L698,39 L698,75 L325,75 L325,39"/>
<path vector-effect="non-scaling-stroke" fill-rule="evenodd" d="M325,75 L425,75 L425,110 L325,110 L325,75"/>
<path vector-effect="non-scaling-stroke" fill-rule="evenodd" d="M325,110 L425,110 L425,145 L325,145 L325,110"/>
</g>

<g fill="#808080" fill-opacity="0.0470588" stroke="none" transform="matrix(1,0,0,1,0,0)"
font-family="Helvetica" font-size="12" font-weight="400" font-style="normal" 
>
<path vector-effect="non-scaling-stroke" fill-rule="evenodd" d="M425,110 L494,110 L494,145 L425,145 L425,110"/>
<path vector-effect="non-scaling-stroke" fill-rule="evenodd" d="M494,110 L562,110 L562,145 L494,145 L494,110"/>
<path vector-effect="non-scaling-stroke" fill-rule="evenodd" d="M562,110 L630,110 L630,145 L562,145 L562,110"/>
<path vector-effect="non-scaling-stroke" fill-rule="evenodd" d="M630,110 L698,110 L698,145 L630,145 L630,110"/>
</g>

<g fill="#ffffff" fill-opacity="1" stroke="none" transform="matrix(1,0,0,1,0,0)"
font-family="Helvetica" font-size="12" font-weight="400" font-style="normal" 
>
<path vector-effect="non-scaling-stroke" fill-rule="evenodd" d="M325,145 L425,145 L425,180 L325,180 L325,145"/>
<path vector-effect="non-scaling-stroke" fill-rule="evenodd" d="M325,180 L425,180 L425,215 L325,215 L325,180"/>
</g>

<g fill="#808080" fill-opacity="0.0470588" stroke="none" transform="matrix(1,0,0,1,0,0)"
font-family="Helvetica" font-size="12" font-weight="400" font-style="normal" 
>
<path vector-effect="non-scaling-stroke" fill-rule="evenodd" d="M425,180 L494,180 L494,215 L425,215 L425,180"/>
<path vector-effect="non-scaling-stroke" fill-rule="evenodd" d="M494,180 L562,180 L562,215 L494,215 L494,180"/>
<path vector-effect="non-scaling-stroke" fill-rule="evenodd" d="M562,180 L630,180 L630,215 L562,215 L562,180"/>
<path vector-effect="non-scaling-stroke" fill-rule="evenodd" d="M630,180 L698,180 L698,215 L630,215 L630,180"/>
</g>

<g fill="#ffffff" fill-opacity="1" stroke="none" transform="matrix(1,0,0,1,0,0)"
font-family="Helvetica" font-size="12" font-weight="400" font-style="normal" 
>
<path vector-effect="non-scaling-stroke" fill-rule="evenodd" d="M325,215 L425,215 L425,251 L325,251 L325,215"/>
<path vector-effect="non-scaling-stroke" fill-rule="evenodd" d="M325,251 L698,251 L698,287 L325,287 L325,251"/>
<path vector-effect="non-scaling-stroke" fill-rule="evenodd" d="M325,287 L425,287 L425,322 L325,322 L325,287"/>
</g>

<g fill="#808080" fill-opacity="0.0470588" stroke="none" transform="matrix(1,0,0,1,0,0)"
font-family="Helvetica" font-size="12" font-weight="400" font-style="normal" 
>
<path vector-effect="non-scaling-stroke" fill-rule="evenodd" d="M425,287 L494,287 L494,322 L425,322 L425,287"/>
<path vector-effect="non-scaling-stroke" fill-rule="evenodd" d="M494,287 L562,287 L562,322 L494,322 L494,287"/>
<path vector-effect="non-scaling-stroke" fill-rule="evenodd" d="M562,287 L630,287 L630,322 L562,322 L562,287"/>
<path vector-effect="non-scaling-stroke" fill-rule="evenodd" d="M630,287 L698,287 L698,322 L630,322 L630,287"/>
</g>

<g fill="#ffffff" fill-opacity="1" stroke="none" transform="matrix(1,0,0,1,0,0)"
font-family="Helvetica" font-size="12" font-weight="400" font-style="normal" 
>
<path vector-effect="non-scaling-stroke" fill-rule="evenodd" d="M325,322 L425,322 L425,357 L325,357 L325,322"/>
<path vector-effect="non-scaling-stroke" fill-rule="evenodd" d="M325,357 L425,357 L425,392 L325,392 L325,357"/>
</g>

<g fill="#808080" fill-opacity="0.0470588" stroke="none" transform="matrix(1,0,0,1,0,0)"
font-family="Helvetica" font-size="12" font-weight="400" font-style="normal" 
>
<path vector-effect="non-scaling-stroke" fill-rule="evenodd" d="M425,357 L494,357 L494,392 L425,392 L425,357"/>
<path vector-effect="non-scaling-stroke" fill-rule="evenodd" d="M494,357 L562,357 L562,392 L494,392 L494,357"/>
<path vector-effect="non-scaling-stroke" fill-rule="evenodd" d="M562,357 L630,357 L630,392 L562,392 L562,357"/>
<path vector-effect="non-scaling-stroke" fill-rule="evenodd" d="M630,357 L698,357 L698,392 L630,392 L630,357"/>
</g>

<g fill="#ffffff" fill-opacity="1" stroke="none" transform="matrix(1,0,0,1,0,0)"
font-family="Helvetica" font-size="12" font-weight="400" font-style="normal" 
>
<path vector-effect="non-scaling-stroke" fill-rule="evenodd" d="M325,392 L425,392 L425,427 L325,427 L325,392"/>
<path vector-effect="non-scaling-stroke" fill-rule="evenodd" d="M325,427 L425,427 L425,465 L325,465 L325,427"/>
</g>

<g fill="#808080" fill-opacity="0.0470588" stroke="none" transform="matrix(1,0,0,1,0,0)"
font-family="Helvetica" font-size="12" font-weight="400" font-style="normal" 
>
<path vector-effect="non-scaling-stroke" fill-rule="evenodd" d="M425,427 L494,427 L494,465 L425,465 L425,427"/>
<path vector-effect="non-scaling-stroke" fill-rule="evenodd" d="M494,427 L562,427 L562,465 L494,465 L494,427"/>
<path vector-effect="non-scaling-stroke" fill-rule="evenodd" d="M562,427 L630,427 L630,465 L562,465 L562,427"/>
<path vector-effect="non-scaling-stroke" fill-rule="evenodd" d="M630,427 L698,427 L698,465 L630,465 L630,427"/>
</g>

<g fill="#ffffff" fill-opacity="1" stroke="none" transform="matrix(1,0,0,1,0,0)"
font-family="Helvetica" font-size="12" font-weight="400" font-style="normal" 
>
<path vector-effect="non-scaling-stroke" fill-rule="evenodd" d="M325,465 L425,465 L425,502 L325,502 L325,465"/>
<path vector-effect="non-scaling-stroke" fill-rule="evenodd" d="M425,465 L494,465 L494,502 L425,502 L425,465"/>
<path vector-effect="non-scaling-stroke" fill-rule="evenodd" d="M494,465 L562,465 L562,502 L494,502 L494,465"/>
<path vector-effect="non-scaling-stroke" fill-rule="evenodd" d="M562,465 L630,465 L630,502 L562,502 L562,465"/>
<path vector-effect="non-scaling-stroke" fill-rule="evenodd" d="M630,465 L698,465 L698,502 L630,502 L630,465"/>
<path vector-effect="non-scaling-stroke" fill-rule="evenodd" d="M325,502 L425,502 L425,537 L325,537 L325,502"/>
<path vector-effect="non-scaling-stroke" fill-rule="evenodd" d="M425,502 L494,502 L494,537 L425,537 L425,502"/>
<path vector-effect="non-scaling-stroke" fill-rule="evenodd" d="M494,502 L562,502 L562,537 L494,537 L494,502"/>
<path vector-effect="non-scaling-stroke" fill-rule="evenodd" d="M562,502 L630,502 L630,537 L562,537 L562,502"/>
<path vector-effect="non-scaling-stroke" fill-rule="evenodd" d="M630,502 L698,502 L698,537 L630,537 L630,502"/>
<path vector-effect="non-scaling-stroke" fill-rule="evenodd" d="M325,537 L425,537 L425,573 L325,573 L325,537"/>
<path vector-effect="non-scaling-stroke" fill-rule="evenodd" d="M425,537 L494,537 L494,573 L425,573 L425,537"/>
<path vector-effect="non-scaling-stroke" fill-rule="evenodd" d="M494,537 L562,537 L562,573 L494,573 L494,537"/>
<path vector-effect="non-scaling-stroke" fill-rule="evenodd" d="M562,537 L630,537 L630,573 L562,573 L562,537"/>
<path vector-effect="non-scaling-stroke" fill-rule="evenodd" d="M630,537 L698,537 L698,573 L630,573 L630,537"/>
</g>

<g fill="#d3d3d3" fill-opacity="1" stroke="none" transform="matrix(1,0,0,1,0,0)"
font-family="Helvetica" font-size="12" font-weight="400" font-style="normal" 
>
<path vector-effect="non-scaling-stroke" fill-rule="evenodd" d="M325,110 L426,110 L426,111 L325,111 L325,110"/>
<path vector-effect="non-scaling-stroke" fill-rule="evenodd" d="M424,110 L494,110 L494,111 L424,111 L424,110"/>
<path vector-effect="non-scaling-stroke" fill-rule="evenodd" d="M494,110 L562,110 L562,111 L494,111 L494,110"/>
<path vector-effect="non-scaling-stroke" fill-rule="evenodd" d="M562,110 L630,110 L630,111 L562,111 L562,110"/>
<path vector-effect="non-scaling-stroke" fill-rule="evenodd" d="M630,110 L698,110 L698,111 L630,111 L630,110"/>
<path vector-effect="non-scaling-stroke" fill-rule="evenodd" d="M325,110 L426,110 L426,111 L325,111 L325,110"/>
<path vector-effect="non-scaling-stroke" fill-rule="evenodd" d="M325,145 L426,145 L426,146 L325,146 L325,145"/>
<path vector-effect="non-scaling-stroke" fill-rule="evenodd" d="M424,110 L494,110 L494,111 L424,111 L424,110"/>
<path vector-effect="non-scaling-stroke" fill-rule="evenodd" d="M424,145 L494,145 L494,146 L424,146 L424,145"/>
<path vector-effect="non-scaling-stroke" fill-rule="evenodd" d="M494,110 L562,110 L562,111 L494,111 L494,110"/>
<path vector-effect="non-scaling-stroke" fill-rule="evenodd" d="M494,145 L562,145 L562,146 L494,146 L494,145"/>
<path vector-effect="non-scaling-stroke" fill-rule="evenodd" d="M562,110 L630,110 L630,111 L562,111 L562,110"/>
<path vector-effect="non-scaling-stroke" fill-rule="evenodd" d="M562,145 L630,145 L630,146 L562,146 L562,145"/>
<path vector-effect="non-scaling-stroke" fill-rule="evenodd" d="M630,110 L698,110 L698,111 L630,111 L630,110"/>
<path vector-effect="non-scaling-stroke" fill-rule="evenodd" d="M630,145 L698,145 L698,146 L630,146 L630,145"/>
<path vector-effect="non-scaling-stroke" fill-rule="evenodd" d="M325,145 L426,145 L426,146 L325,146 L325,145"/>
<path vector-effect="non-scaling-stroke" fill-rule="evenodd" d="M325,180 L426,180 L426,181 L325,181 L325,180"/>
<path vector-effect="non-scaling-stroke" fill-rule="evenodd" d="M424,145 L494,145 L494,146 L424,146 L424,145"/>
<path vector-effect="non-scaling-stroke" fill-rule="evenodd" d="M424,180 L494,180 L494,181 L424,181 L424,180"/>
<path vector-effect="non-scaling-stroke" fill-rule="evenodd" d="M494,145 L562,145 L562,146 L494,146 L494,145"/>
<path vector-effect="non-scaling-stroke" fill-rule="evenodd" d="M494,180 L562,180 L562,181 L494,181 L494,180"/>
<path vector-effect="non-scaling-stroke" fill-rule="evenodd" d="M562,145 L630,145 L630,146 L562,146 L562,145"/>
<path vector-effect="non-scaling-stroke" fill-rule="evenodd" d="M562,180 L630,180 L630,181 L562,181 L562,180"/>
<path vector-effect="non-scaling-stroke" fill-rule="evenodd" d="M630,145 L698,145 L698,146 L630,146 L630,145"/>
<path vector-effect="non-scaling-stroke" fill-rule="evenodd" d="M630,180 L698,180 L698,181 L630,181 L630,180"/>
<path vector-effect="non-scaling-stroke" fill-rule="evenodd" d="M325,180 L426,180 L426,181 L325,181 L325,180"/>
<path vector-effect="non-scaling-stroke" fill-rule="evenodd" d="M325,215 L426,215 L426,216 L325,216 L325,215"/>
<path vector-effect="non-scaling-stroke" fill-rule="evenodd" d="M424,180 L494,180 L494,181 L424,181 L424,180"/>
<path vector-effect="non-scaling-stroke" fill-rule="evenodd" d="M424,215 L494,215 L494,216 L424,216 L424,215"/>
<path vector-effect="non-scaling-stroke" fill-rule="evenodd" d="M494,180 L562,180 L562,181 L494,181 L494,180"/>
<path vector-effect="non-scaling-stroke" fill-rule="evenodd" d="M494,215 L562,215 L562,216 L494,216 L494,215"/>
<path vector-effect="non-scaling-stroke" fill-rule="evenodd" d="M562,180 L630,180 L630,181 L562,181 L562,180"/>
<path vector-effect="non-scaling-stroke" fill-rule="evenodd" d="M562,215 L630,215 L630,216 L562,216 L562,215"/>
<path vector-effect="non-scaling-stroke" fill-rule="evenodd" d="M630,180 L698,180 L698,181 L630,181 L630,180"/>
<path vector-effect="non-scaling-stroke" fill-rule="evenodd" d="M630,215 L698,215 L698,216 L630,216 L630,215"/>
<path vector-effect="non-scaling-stroke" fill-rule="evenodd" d="M325,215 L426,215 L426,216 L325,216 L325,215"/>
<path vector-effect="non-scaling-stroke" fill-rule="evenodd" d="M424,215 L494,215 L494,216 L424,216 L424,215"/>
<path vector-effect="non-scaling-stroke" fill-rule="evenodd" d="M494,215 L562,215 L562,216 L494,216 L494,215"/>
<path vector-effect="non-scaling-stroke" fill-rule="evenodd" d="M562,215 L630,215 L630,216 L562,216 L562,215"/>
<path vector-effect="non-scaling-stroke" fill-rule="evenodd" d="M630,215 L698,215 L698,216 L630,216 L630,215"/>
<path vector-effect="non-scaling-stroke" fill-rule="evenodd" d="M325,322 L426,322 L426,323 L325,323 L325,322"/>
<path vector-effect="non-scaling-stroke" fill-rule="evenodd" d="M424,322 L494,322 L494,323 L424,323 L424,322"/>
<path vector-effect="non-scaling-stroke" fill-rule="evenodd" d="M494,322 L562,322 L562,323 L494,323 L494,322"/>
<path vector-effect="non-scaling-stroke" fill-rule="evenodd" d="M562,322 L630,322 L630,323 L562,323 L562,322"/>
<path vector-effect="non-scaling-stroke" fill-rule="evenodd" d="M630,322 L698,322 L698,323 L630,323 L630,322"/>
<path vector-effect="non-scaling-stroke" fill-rule="evenodd" d="M325,322 L426,322 L426,323 L325,323 L325,322"/>
<path vector-effect="non-scaling-stroke" fill-rule="evenodd" d="M325,357 L426,357 L426,358 L325,358 L325,357"/>
<path vector-effect="non-scaling-stroke" fill-rule="evenodd" d="M424,322 L494,322 L494,323 L424,323 L424,322"/>
<path vector-effect="non-scaling-stroke" fill-rule="evenodd" d="M424,357 L494,357 L494,358 L424,358 L424,357"/>
<path vector-effect="non-scaling-stroke" fill-rule="evenodd" d="M494,322 L562,322 L562,323 L494,323 L494,322"/>
<path vector-effect="non-scaling-stroke" fill-rule="evenodd" d="M494,357 L562,357 L562,358 L494,358 L494,357"/>
<path vector-effect="non-scaling-stroke" fill-rule="evenodd" d="M562,322 L630,322 L630,323 L562,323 L562,322"/>
<path vector-effect="non-scaling-stroke" fill-rule="evenodd" d="M562,357 L630,357 L630,358 L562,358 L562,357"/>
<path vector-effect="non-scaling-stroke" fill-rule="evenodd" d="M630,322 L698,322 L698,323 L630,323 L630,322"/>
<path vector-effect="non-scaling-stroke" fill-rule="evenodd" d="M630,357 L698,357 L698,358 L630,358 L630,357"/>
<path vector-effect="non-scaling-stroke" fill-rule="evenodd" d="M325,357 L426,357 L426,358 L325,358 L325,357"/>
<path vector-effect="non-scaling-stroke" fill-rule="evenodd" d="M325,392 L426,392 L426,393 L325,393 L325,392"/>
<path vector-effect="non-scaling-stroke" fill-rule="evenodd" d="M424,357 L494,357 L494,358 L424,358 L424,357"/>
<path vector-effect="non-scaling-stroke" fill-rule="evenodd" d="M424,392 L494,392 L494,393 L424,393 L424,392"/>
<path vector-effect="non-scaling-stroke" fill-rule="evenodd" d="M494,357 L562,357 L562,358 L494,358 L494,357"/>
<path vector-effect="non-scaling-stroke" fill-rule="evenodd" d="M494,392 L562,392 L562,393 L494,393 L494,392"/>
<path vector-effect="non-scaling-stroke" fill-rule="evenodd" d="M562,357 L630,357 L630,358 L562,358 L562,357"/>
<path vector-effect="non-scaling-stroke" fill-rule="evenodd" d="M562,392 L630,392 L630,393 L562,393 L562,392"/>
<path vector-effect="non-scaling-stroke" fill-rule="evenodd" d="M630,357 L698,357 L698,358 L630,358 L630,357"/>
<path vector-effect="non-scaling-stroke" fill-rule="evenodd" d="M630,392 L698,392 L698,393 L630,393 L630,392"/>
<path vector-effect="non-scaling-stroke" fill-rule="evenodd" d="M325,392 L426,392 L426,393 L325,393 L325,392"/>
<path vector-effect="non-scaling-stroke" fill-rule="evenodd" d="M325,427 L426,427 L426,428 L325,428 L325,427"/>
<path vector-effect="non-scaling-stroke" fill-rule="evenodd" d="M424,392 L494,392 L494,393 L424,393 L424,392"/>
<path vector-effect="non-scaling-stroke" fill-rule="evenodd" d="M424,427 L494,427 L494,428 L424,428 L424,427"/>
<path vector-effect="non-scaling-stroke" fill-rule="evenodd" d="M494,392 L562,392 L562,393 L494,393 L494,392"/>
<path vector-effect="non-scaling-stroke" fill-rule="evenodd" d="M494,427 L562,427 L562,428 L494,428 L494,427"/>
<path vector-effect="non-scaling-stroke" fill-rule="evenodd" d="M562,392 L630,392 L630,393 L562,393 L562,392"/>
<path vector-effect="non-scaling-stroke" fill-rule="evenodd" d="M562,427 L630,427 L630,428 L562,428 L562,427"/>
<path vector-effect="non-scaling-stroke" fill-rule="evenodd" d="M630,392 L698,392 L698,393 L630,393 L630,392"/>
<path vector-effect="non-scaling-stroke" fill-rule="evenodd" d="M630,427 L698,427 L698,428 L630,428 L630,427"/>
<path vector-effect="non-scaling-stroke" fill-rule="evenodd" d="M325,427 L426,427 L426,428 L325,428 L325,427"/>
<path vector-effect="non-scaling-stroke" fill-rule="evenodd" d="M424,427 L494,427 L494,428 L424,428 L424,427"/>
<path vector-effect="non-scaling-stroke" fill-rule="evenodd" d="M494,427 L562,427 L562,428 L494,428 L494,427"/>
<path vector-effect="non-scaling-stroke" fill-rule="evenodd" d="M562,427 L630,427 L630,428 L562,428 L562,427"/>
<path vector-effect="non-scaling-stroke" fill-rule="evenodd" d="M630,427 L698,427 L698,428 L630,428 L630,427"/>
<path vector-effect="non-scaling-stroke" fill-rule="evenodd" d="M325,502 L426,502 L426,503 L325,503 L325,502"/>
<path vector-effect="non-scaling-stroke" fill-rule="evenodd" d="M424,502 L494,502 L494,503 L424,503 L424,502"/>
<path vector-effect="non-scaling-stroke" fill-rule="evenodd" d="M494,502 L562,502 L562,503 L494,503 L494,502"/>
<path vector-effect="non-scaling-stroke" fill-rule="evenodd" d="M562,502 L630,502 L630,503 L562,503 L562,502"/>
<path vector-effect="non-scaling-stroke" fill-rule="evenodd" d="M630,502 L698,502 L698,503 L630,503 L630,502"/>
<path vector-effect="non-scaling-stroke" fill-rule="evenodd" d="M325,502 L426,502 L426,503 L325,503 L325,502"/>
<path vector-effect="non-scaling-stroke" fill-rule="evenodd" d="M325,537 L426,537 L426,538 L325,538 L325,537"/>
<path vector-effect="non-scaling-stroke" fill-rule="evenodd" d="M424,502 L494,502 L494,503 L424,503 L424,502"/>
<path vector-effect="non-scaling-stroke" fill-rule="evenodd" d="M424,537 L494,537 L494,538 L424,538 L424,537"/>
<path vector-effect="non-scaling-stroke" fill-rule="evenodd" d="M494,502 L562,502 L562,503 L494,503 L494,502"/>
<path vector-effect="non-scaling-stroke" fill-rule="evenodd" d="M494,537 L562,537 L562,538 L494,538 L494,537"/>
<path vector-effect="non-scaling-stroke" fill-rule="evenodd" d="M562,502 L630,502 L630,503 L562,503 L562,502"/>
<path vector-effect="non-scaling-stroke" fill-rule="evenodd" d="M562,537 L630,537 L630,538 L562,538 L562,537"/>
<path vector-effect="non-scaling-stroke" fill-rule="evenodd" d="M630,502 L698,502 L698,503 L630,503 L630,502"/>
<path vector-effect="non-scaling-stroke" fill-rule="evenodd" d="M630,537 L698,537 L698,538 L630,538 L630,537"/>
<path vector-effect="non-scaling-stroke" fill-rule="evenodd" d="M325,537 L426,537 L426,538 L325,538 L325,537"/>
<path vector-effect="non-scaling-stroke" fill-rule="evenodd" d="M424,537 L494,537 L494,538 L424,538 L424,537"/>
<path vector-effect="non-scaling-stroke" fill-rule="evenodd" d="M494,537 L562,537 L562,538 L494,538 L494,537"/>
<path vector-effect="non-scaling-stroke" fill-rule="evenodd" d="M562,537 L630,537 L630,538 L562,538 L562,537"/>
<path vector-effect="non-scaling-stroke" fill-rule="evenodd" d="M630,537 L698,537 L698,538 L630,538 L630,537"/>
<path vector-effect="non-scaling-stroke" fill-rule="evenodd" d="M325,8 L425,8 L425,10 L325,10 L325,8"/>
<path vector-effect="non-scaling-stroke" fill-rule="evenodd" d="M425,8 L494,8 L494,10 L425,10 L425,8"/>
<path vector-effect="non-scaling-stroke" fill-rule="evenodd" d="M494,8 L562,8 L562,10 L494,10 L494,8"/>
<path vector-effect="non-scaling-stroke" fill-rule="evenodd" d="M562,8 L630,8 L630,10 L562,10 L562,8"/>
<path vector-effect="non-scaling-stroke" fill-rule="evenodd" d="M630,8 L698,8 L698,10 L630,10 L630,8"/>
<path vector-effect="non-scaling-stroke" fill-rule="evenodd" d="M325,572 L426,572 L426,574 L325,574 L325,572"/>
<path vector-effect="non-scaling-stroke" fill-rule="evenodd" d="M424,572 L494,572 L494,574 L424,574 L424,572"/>
<path vector-effect="non-scaling-stroke" fill-rule="evenodd" d="M494,572 L562,572 L562,574 L494,574 L494,572"/>
<path vector-effect="non-scaling-stroke" fill-rule="evenodd" d="M562,572 L630,572 L630,574 L562,574 L562,572"/>
<path vector-effect="non-scaling-stroke" fill-rule="evenodd" d="M630,572 L698,572 L698,574 L630,574 L630,572"/>
<path vector-effect="non-scaling-stroke" fill-rule="evenodd" d="M325,38 L425,38 L425,40 L325,40 L325,38"/>
<path vector-effect="non-scaling-stroke" fill-rule="evenodd" d="M425,38 L494,38 L494,40 L425,40 L425,38"/>
<path vector-effect="non-scaling-stroke" fill-rule="evenodd" d="M494,38 L562,38 L562,40 L494,40 L494,38"/>
<path vector-effect="non-scaling-stroke" fill-rule="evenodd" d="M562,38 L630,38 L630,40 L562,40 L562,38"/>
<path vector-effect="non-scaling-stroke" fill-rule="evenodd" d="M630,38 L698,38 L698,40 L630,40 L630,38"/>
<path vector-effect="non-scaling-stroke" fill-rule="evenodd" d="M325,38 L698,38 L698,40 L325,40 L325,38"/>
<path vector-effect="non-scaling-stroke" fill-rule="evenodd" d="M325,74 L698,74 L698,76 L325,76 L325,74"/>
<path vector-effect="non-scaling-stroke" fill-rule="evenodd" d="M325,74 L426,74 L426,76 L325,76 L325,74"/>
<path vector-effect="non-scaling-stroke" fill-rule="evenodd" d="M424,74 L426,74 L426,111 L424,111 L424,74"/>
<path vector-effect="non-scaling-stroke" fill-rule="evenodd" d="M424,74 L494,74 L494,76 L424,76 L424,74"/>
<path vector-effect="non-scaling-stroke" fill-rule="evenodd" d="M424,74 L426,74 L426,111 L424,111 L424,74"/>
<path vector-effect="non-scaling-stroke" fill-rule="evenodd" d="M494,74 L562,74 L562,76 L494,76 L494,74"/>
<path vector-effect="non-scaling-stroke" fill-rule="evenodd" d="M562,74 L630,74 L630,76 L562,76 L562,74"/>
<path vector-effect="non-scaling-stroke" fill-rule="evenodd" d="M630,74 L698,74 L698,76 L630,76 L630,74"/>
<path vector-effect="non-scaling-stroke" fill-rule="evenodd" d="M424,110 L426,110 L426,146 L424,146 L424,110"/>
<path vector-effect="non-scaling-stroke" fill-rule="evenodd" d="M424,110 L426,110 L426,146 L424,146 L424,110"/>
<path vector-effect="non-scaling-stroke" fill-rule="evenodd" d="M424,145 L426,145 L426,181 L424,181 L424,145"/>
<path vector-effect="non-scaling-stroke" fill-rule="evenodd" d="M424,145 L426,145 L426,181 L424,181 L424,145"/>
<path vector-effect="non-scaling-stroke" fill-rule="evenodd" d="M424,180 L426,180 L426,216 L424,216 L424,180"/>
<path vector-effect="non-scaling-stroke" fill-rule="evenodd" d="M424,180 L426,180 L426,216 L424,216 L424,180"/>
<path vector-effect="non-scaling-stroke" fill-rule="evenodd" d="M325,250 L426,250 L426,252 L325,252 L325,250"/>
<path vector-effect="non-scaling-stroke" fill-rule="evenodd" d="M424,215 L426,215 L426,252 L424,252 L424,215"/>
<path vector-effect="non-scaling-stroke" fill-rule="evenodd" d="M424,250 L494,250 L494,252 L424,252 L424,250"/>
<path vector-effect="non-scaling-stroke" fill-rule="evenodd" d="M424,215 L426,215 L426,252 L424,252 L424,215"/>
<path vector-effect="non-scaling-stroke" fill-rule="evenodd" d="M494,250 L562,250 L562,252 L494,252 L494,250"/>
<path vector-effect="non-scaling-stroke" fill-rule="evenodd" d="M562,250 L630,250 L630,252 L562,252 L562,250"/>
<path vector-effect="non-scaling-stroke" fill-rule="evenodd" d="M630,250 L698,250 L698,252 L630,252 L630,250"/>
<path vector-effect="non-scaling-stroke" fill-rule="evenodd" d="M325,250 L698,250 L698,252 L325,252 L325,250"/>
<path vector-effect="non-scaling-stroke" fill-rule="evenodd" d="M325,286 L698,286 L698,288 L325,288 L325,286"/>
<path vector-effect="non-scaling-stroke" fill-rule="evenodd" d="M325,286 L426,286 L426,288 L325,288 L325,286"/>
<path vector-effect="non-scaling-stroke" fill-rule="evenodd" d="M424,286 L426,286 L426,323 L424,323 L424,286"/>
<path vector-effect="non-scaling-stroke" fill-rule="evenodd" d="M424,286 L494,286 L494,288 L424,288 L424,286"/>
<path vector-effect="non-scaling-stroke" fill-rule="evenodd" d="M424,286 L426,286 L426,323 L424,323 L424,286"/>
<path vector-effect="non-scaling-stroke" fill-rule="evenodd" d="M494,286 L562,286 L562,288 L494,288 L494,286"/>
<path vector-effect="non-scaling-stroke" fill-rule="evenodd" d="M562,286 L630,286 L630,288 L562,288 L562,286"/>
<path vector-effect="non-scaling-stroke" fill-rule="evenodd" d="M630,286 L698,286 L698,288 L630,288 L630,286"/>
<path vector-effect="non-scaling-stroke" fill-rule="evenodd" d="M424,322 L426,322 L426,358 L424,358 L424,322"/>
<path vector-effect="non-scaling-stroke" fill-rule="evenodd" d="M424,322 L426,322 L426,358 L424,358 L424,322"/>
<path vector-effect="non-scaling-stroke" fill-rule="evenodd" d="M424,357 L426,357 L426,393 L424,393 L424,357"/>
<path vector-effect="non-scaling-stroke" fill-rule="evenodd" d="M424,357 L426,357 L426,393 L424,393 L424,357"/>
<path vector-effect="non-scaling-stroke" fill-rule="evenodd" d="M424,392 L426,392 L426,428 L424,428 L424,392"/>
<path vector-effect="non-scaling-stroke" fill-rule="evenodd" d="M424,392 L426,392 L426,428 L424,428 L424,392"/>
<path vector-effect="non-scaling-stroke" fill-rule="evenodd" d="M424,427 L426,427 L426,468 L424,468 L424,427"/>
<path vector-effect="non-scaling-stroke" fill-rule="evenodd" d="M424,427 L426,427 L426,468 L424,468 L424,427"/>
<path vector-effect="non-scaling-stroke" fill-rule="evenodd" d="M424,462 L426,462 L426,503 L424,503 L424,462"/>
<path vector-effect="non-scaling-stroke" fill-rule="evenodd" d="M424,462 L426,462 L426,503 L424,503 L424,462"/>
<path vector-effect="non-scaling-stroke" fill-rule="evenodd" d="M424,502 L426,502 L426,538 L424,538 L424,502"/>
<path vector-effect="non-scaling-stroke" fill-rule="evenodd" d="M424,502 L426,502 L426,538 L424,538 L424,502"/>
<path vector-effect="non-scaling-stroke" fill-rule="evenodd" d="M424,537 L426,537 L426,574 L424,574 L424,537"/>
<path vector-effect="non-scaling-stroke" fill-rule="evenodd" d="M424,537 L426,537 L426,574 L424,574 L424,537"/>
<path vector-effect="non-scaling-stroke" fill-rule="evenodd" d="M325,462 L426,462 L426,464 L325,464 L325,462"/>
<path vector-effect="non-scaling-stroke" fill-rule="evenodd" d="M325,466 L426,466 L426,468 L325,468 L325,466"/>
<path vector-effect="non-scaling-stroke" fill-rule="evenodd" d="M424,462 L494,462 L494,464 L424,464 L424,462"/>
<path vector-effect="non-scaling-stroke" fill-rule="evenodd" d="M424,466 L494,466 L494,468 L424,468 L424,466"/>
<path vector-effect="non-scaling-stroke" fill-rule="evenodd" d="M494,462 L562,462 L562,464 L494,464 L494,462"/>
<path vector-effect="non-scaling-stroke" fill-rule="evenodd" d="M494,466 L562,466 L562,468 L494,468 L494,466"/>
<path vector-effect="non-scaling-stroke" fill-rule="evenodd" d="M562,462 L630,462 L630,464 L562,464 L562,462"/>
<path vector-effect="non-scaling-stroke" fill-rule="evenodd" d="M562,466 L630,466 L630,468 L562,468 L562,466"/>
<path vector-effect="non-scaling-stroke" fill-rule="evenodd" d="M630,462 L698,462 L698,464 L630,464 L630,462"/>
<path vector-effect="non-scaling-stroke" fill-rule="evenodd" d="M630,466 L698,466 L698,468 L630,468 L630,466"/>
<path vector-effect="non-scaling-stroke" fill-rule="evenodd" d="M325,462 L426,462 L426,464 L325,464 L325,462"/>
<path vector-effect="non-scaling-stroke" fill-rule="evenodd" d="M325,466 L426,466 L426,468 L325,468 L325,466"/>
<path vector-effect="non-scaling-stroke" fill-rule="evenodd" d="M424,462 L494,462 L494,464 L424,464 L424,462"/>
<path vector-effect="non-scaling-stroke" fill-rule="evenodd" d="M424,466 L494,466 L494,468 L424,468 L424,466"/>
<path vector-effect="non-scaling-stroke" fill-rule="evenodd" d="M494,462 L562,462 L562,464 L494,464 L494,462"/>
<path vector-effect="non-scaling-stroke" fill-rule="evenodd" d="M494,466 L562,466 L562,468 L494,468 L494,466"/>
<path vector-effect="non-scaling-stroke" fill-rule="evenodd" d="M562,462 L630,462 L630,464 L562,464 L562,462"/>
<path vector-effect="non-scaling-stroke" fill-rule="evenodd" d="M562,466 L630,466 L630,468 L562,468 L562,466"/>
<path vector-effect="non-scaling-stroke" fill-rule="evenodd" d="M630,462 L698,462 L698,464 L630,464 L630,462"/>
<path vector-effect="non-scaling-stroke" fill-rule="evenodd" d="M630,466 L698,466 L698,468 L630,468 L630,466"/>
</g>

<g fill="#333333" fill-opacity="1" stroke="#333333" stroke-opacity="1" stroke-width="1" stroke-linecap="square" stroke-linejoin="bevel" transform="matrix(1,0,0,1,0,0)"
font-family="Arial" font-size="16" font-weight="400" font-style="normal" 
>
<text fill="#333333" fill-opacity="1" stroke="none" xml:space="preserve" x="453" y="29" font-family="Arial" font-size="16" font-weight="400" font-style="normal" 
 >open</text>
<text fill="#333333" fill-opacity="1" stroke="none" xml:space="preserve" x="526" y="29" font-family="Arial" font-size="16" font-weight="400" font-style="normal" 
 >high</text>
<text fill="#333333" fill-opacity="1" stroke="none" xml:space="preserve" x="600" y="29" font-family="Arial" font-size="16" font-weight="400" font-style="normal" 
 >low</text>
<text fill="#333333" fill-opacity="1" stroke="none" xml:space="preserve" x="655" y="29" font-family="Arial" font-size="16" font-weight="400" font-style="normal" 
 >close</text>
<text fill="#333333" fill-opacity="1" stroke="none" xml:space="preserve" x="333" y="62" font-family="Arial" font-size="16" font-weight="400" font-style="normal" 
 >W02</text>
<text fill="#333333" fill-opacity="1" stroke="none" xml:space="preserve" x="337" y="98" font-family="Arial" font-size="16" font-weight="400" font-style="normal" 
 >2015-01-05</text>
<text fill="#333333" fill-opacity="1" stroke="none" xml:space="preserve" x="431" y="98" font-family="Arial" font-size="16" font-weight="400" font-style="normal" 
 >2054.44</text>
<text fill="#333333" fill-opacity="1" stroke="none" xml:space="preserve" x="499" y="98" font-family="Arial" font-size="16" font-weight="400" font-style="normal" 
 >2054.44</text>
<text fill="#333333" fill-opacity="1" stroke="none" xml:space="preserve" x="567" y="98" font-family="Arial" font-size="16" font-weight="400" font-style="normal" 
 >2017.34</text>
<text fill="#333333" fill-opacity="1" stroke="none" xml:space="preserve" x="635" y="98" font-family="Arial" font-size="16" font-weight="400" font-style="normal" 
 >2020.58</text>
<text fill="#333333" fill-opacity="1" stroke="none" xml:space="preserve" x="337" y="133" font-family="Arial" font-size="16" font-weight="400" font-style="normal" 
 >2015-01-06</text>
<text fill="#333333" fill-opacity="1" stroke="none" xml:space="preserve" x="431" y="133" font-family="Arial" font-size="16" font-weight="400" font-style="normal" 
 >2022.15</text>
<text fill="#333333" fill-opacity="1" stroke="none" xml:space="preserve" x="499" y="133" font-family="Arial" font-size="16" font-weight="400" font-style="normal" 
 >2030.25</text>
<text fill="#333333" fill-opacity="1" stroke="none" xml:space="preserve" x="567" y="133" font-family="Arial" font-size="16" font-weight="400" font-style="normal" 
 >1992.44</text>
<text fill="#333333" fill-opacity="1" stroke="none" xml:space="preserve" x="635" y="133" font-family="Arial" font-size="16" font-weight="400" font-style="normal" 
 >2002.61</text>
<text fill="#333333" fill-opacity="1" stroke="none" xml:space="preserve" x="337" y="168" font-family="Arial" font-size="16" font-weight="400" font-style="normal" 
 >2015-01-07</text>
<text fill="#333333" fill-opacity="1" stroke="none" xml:space="preserve" x="431" y="168" font-family="Arial" font-size="16" font-weight="400" font-style="normal" 
 >2005.55</text>
<text fill="#333333" fill-opacity="1" stroke="none" xml:space="preserve" x="499" y="168" font-family="Arial" font-size="16" font-weight="400" font-style="normal" 
 >2029.61</text>
<text fill="#333333" fill-opacity="1" stroke="none" xml:space="preserve" x="567" y="168" font-family="Arial" font-size="16" font-weight="400" font-style="normal" 
 >2005.55</text>
<text fill="#333333" fill-opacity="1" stroke="none" xml:space="preserve" x="635" y="168" font-family="Arial" font-size="16" font-weight="400" font-style="normal" 
 >2025.90</text>
<text fill="#333333" fill-opacity="1" stroke="none" xml:space="preserve" x="337" y="203" font-family="Arial" font-size="16" font-weight="400" font-style="normal" 
 >2015-01-08</text>
<text fill="#333333" fill-opacity="1" stroke="none" xml:space="preserve" x="431" y="203" font-family="Arial" font-size="16" font-weight="400" font-style="normal" 
 >2030.61</text>
<text fill="#333333" fill-opacity="1" stroke="none" xml:space="preserve" x="499" y="203" font-family="Arial" font-size="16" font-weight="400" font-style="normal" 
 >2064.08</text>
<text fill="#333333" fill-opacity="1" stroke="none" xml:space="preserve" x="567" y="203" font-family="Arial" font-size="16" font-weight="400" font-style="normal" 
 >2030.61</text>
<text fill="#333333" fill-opacity="1" stroke="none" xml:space="preserve" x="635" y="203" font-family="Arial" font-size="16" font-weight="400" font-style="normal" 
 >2062.14</text>
<text fill="#333333" fill-opacity="1" stroke="none" xml:space="preserve" x="337" y="238" font-family="Arial" font-size="16" font-weight="400" font-style="normal" 
 >2015-01-09</text>
<text fill="#333333" fill-opacity="1" stroke="none" xml:space="preserve" x="431" y="238" font-family="Arial" font-size="16" font-weight="400" font-style="normal" 
 >2063.45</text>
<text fill="#333333" fill-opacity="1" stroke="none" xml:space="preserve" x="499" y="238" font-family="Arial" font-size="16" font-weight="400" font-style="normal" 
 >2064.43</text>
<text fill="#333333" fill-opacity="1" stroke="none" xml:space="preserve" x="567" y="238" font-family="Arial" font-size="16" font-weight="400" font-style="normal" 
 >2038.33</text>
<text fill="#333333" fill-opacity="1" stroke="none" xml:space="preserve" x="635" y="238" font-family="Arial" font-size="16" font-weight="400" font-style="normal" 
 >2044.81</text>
<text fill="#333333" fill-opacity="1" stroke="none" xml:space="preserve" x="333" y="274" font-family="Arial" font-size="16" font-weight="400" font-style="normal" 
 >W03</text>
<text fill="#333333" fill-opacity="1" stroke="none" xml:space="preserve" x="337" y="310" font-family="Arial" font-size="16" font-weight="400" font-style="normal" 
 >2015-01-12</text>
<text fill="#333333" fill-opacity="1" stroke="none" xml:space="preserve" x="431" y="310" font-family="Arial" font-size="16" font-weight="400" font-style="normal" 
 >2046.13</text>
<text fill="#333333" fill-opacity="1" stroke="none" xml:space="preserve" x="499" y="310" font-family="Arial" font-size="16" font-weight="400" font-style="normal" 
 >2049.30</text>
<text fill="#333333" fill-opacity="1" stroke="none" xml:space="preserve" x="567" y="310" font-family="Arial" font-size="16" font-weight="400" font-style="normal" 
 >2022.58</text>
<text fill="#333333" fill-opacity="1" stroke="none" xml:space="preserve" x="635" y="310" font-family="Arial" font-size="16" font-weight="400" font-style="normal" 
 >2028.26</text>
<text fill="#333333" fill-opacity="1" stroke="none" xml:space="preserve" x="337" y="345" font-family="Arial" font-size="16" font-weight="400" font-style="normal" 
 >2015-01-13</text>
<text fill="#333333" fill-opacity="1" stroke="none" xml:space="preserve" x="431" y="345" font-family="Arial" font-size="16" font-weight="400" font-style="normal" 
 >2031.58</text>
<text fill="#333333" fill-opacity="1" stroke="none" xml:space="preserve" x="499" y="345" font-family="Arial" font-size="16" font-weight="400" font-style="normal" 
 >2056.93</text>
<text fill="#333333" fill-opacity="1" stroke="none" xml:space="preserve" x="567" y="345" font-family="Arial" font-size="16" font-weight="400" font-style="normal" 
 >2008.25</text>
<text fill="#333333" fill-opacity="1" stroke="none" xml:space="preserve" x="635" y="345" font-family="Arial" font-size="16" font-weight="400" font-style="normal" 
 >2023.03</text>
<text fill="#333333" fill-opacity="1" stroke="none" xml:space="preserve" x="337" y="380" font-family="Arial" font-size="16" font-weight="400" font-style="normal" 
 >2015-01-14</text>
<text fill="#333333" fill-opacity="1" stroke="none" xml:space="preserve" x="431" y="380" font-family="Arial" font-size="16" font-weight="400" font-style="normal" 
 >2018.40</text>
<text fill="#333333" fill-opacity="1" stroke="none" xml:space="preserve" x="499" y="380" font-family="Arial" font-size="16" font-weight="400" font-style="normal" 
 >2018.40</text>
<text fill="#333333" fill-opacity="1" stroke="none" xml:space="preserve" x="567" y="380" font-family="Arial" font-size="16" font-weight="400" font-style="normal" 
 >1988.44</text>
<text fill="#333333" fill-opacity="1" stroke="none" xml:space="preserve" x="635" y="380" font-family="Arial" font-size="16" font-weight="400" font-style="normal" 
 >2011.27</text>
<text fill="#333333" fill-opacity="1" stroke="none" xml:space="preserve" x="337" y="415" font-family="Arial" font-size="16" font-weight="400" font-style="normal" 
 >2015-01-15</text>
<text fill="#333333" fill-opacity="1" stroke="none" xml:space="preserve" x="431" y="415" font-family="Arial" font-size="16" font-weight="400" font-style="normal" 
 >2013.75</text>
<text fill="#333333" fill-opacity="1" stroke="none" xml:space="preserve" x="499" y="415" font-family="Arial" font-size="16" font-weight="400" font-style="normal" 
 >2021.35</text>
<text fill="#333333" fill-opacity="1" stroke="none" xml:space="preserve" x="567" y="415" font-family="Arial" font-size="16" font-weight="400" font-style="normal" 
 >1991.47</text>
<text fill="#333333" fill-opacity="1" stroke="none" xml:space="preserve" x="635" y="415" font-family="Arial" font-size="16" font-weight="400" font-style="normal" 
 >1992.67</text>
<text fill="#333333" fill-opacity="1" stroke="none" xml:space="preserve" x="337" y="450" font-family="Arial" font-size="16" font-weight="400" font-style="normal" 
 >2015-01-16</text>
<text fill="#333333" fill-opacity="1" stroke="none" xml:space="preserve" x="431" y="450" font-family="Arial" font-size="16" font-weight="400" font-style="normal" 
 >1992.25</text>
<text fill="#333333" fill-opacity="1" stroke="none" xml:space="preserve" x="499" y="450" font-family="Arial" font-size="16" font-weight="400" font-style="normal" 
 >2020.46</text>
<text fill="#333333" fill-opacity="1" stroke="none" xml:space="preserve" x="567" y="450" font-family="Arial" font-size="16" font-weight="400" font-style="normal" 
 >1988.12</text>
<text fill="#333333" fill-opacity="1" stroke="none" xml:space="preserve" x="635" y="450" font-family="Arial" font-size="16" font-weight="400" font-style="normal" 
 >2019.42</text>
<text fill="#333333" fill-opacity="1" stroke="none" xml:space="preserve" x="393" y="490" font-family="Arial" font-size="16" font-weight="400" font-style="normal" 
 >min</text>
<text fill="#333333" fill-opacity="1" stroke="none" xml:space="preserve" x="431" y="490" font-family="Arial" font-size="16" font-weight="400" font-style="normal" 
 >1992.25</text>
<text fill="#333333" fill-opacity="1" stroke="none" xml:space="preserve" x="499" y="490" font-family="Arial" font-size="16" font-weight="400" font-style="normal" 
 >2018.40</text>
<text fill="#333333" fill-opacity="1" stroke="none" xml:space="preserve" x="567" y="490" font-family="Arial" font-size="16" font-weight="400" font-style="normal" 
 >1988.12</text>
<text fill="#333333" fill-opacity="1" stroke="none" xml:space="preserve" x="635" y="490" font-family="Arial" font-size="16" font-weight="400" font-style="normal" 
 >1992.67</text>
<text fill="#333333" fill-opacity="1" stroke="none" xml:space="preserve" x="389" y="525" font-family="Arial" font-size="16" font-weight="400" font-style="normal" 
 >max</text>
<text fill="#333333" fill-opacity="1" stroke="none" xml:space="preserve" x="431" y="525" font-family="Arial" font-size="16" font-weight="400" font-style="normal" 
 >2063.45</text>
<text fill="#333333" fill-opacity="1" stroke="none" xml:space="preserve" x="499" y="525" font-family="Arial" font-size="16" font-weight="400" font-style="normal" 
 >2064.43</text>
<text fill="#333333" fill-opacity="1" stroke="none" xml:space="preserve" x="567" y="525" font-family="Arial" font-size="16" font-weight="400" font-style="normal" 
 >2038.33</text>
<text fill="#333333" fill-opacity="1" stroke="none" xml:space="preserve" x="635" y="525" font-family="Arial" font-size="16" font-weight="400" font-style="normal" 
 >2062.14</text>
<text fill="#333333" fill-opacity="1" stroke="none" xml:space="preserve" x="393" y="560" font-family="Arial" font-size="16" font-weight="400" font-style="normal" 
 >avg</text>
<text fill="#333333" fill-opacity="1" stroke="none" xml:space="preserve" x="431" y="560" font-family="Arial" font-size="16" font-weight="400" font-style="normal" 
 >2027.83</text>
<text fill="#333333" fill-opacity="1" stroke="none" xml:space="preserve" x="499" y="560" font-family="Arial" font-size="16" font-weight="400" font-style="normal" 
 >2040.92</text>
<text fill="#333333" fill-opacity="1" stroke="none" xml:space="preserve" x="567" y="560" font-family="Arial" font-size="16" font-weight="400" font-style="normal" 
 >2008.31</text>
<text fill="#333333" fill-opacity="1" stroke="none" xml:space="preserve" x="635" y="560" font-family="Arial" font-size="16" font-weight="400" font-style="normal" 
 >2023.07</text>
</g>
</g>
</svg>
