<?xml version="1.0" encoding="UTF-8" standalone="no"?>
<svg width="361.244mm" height="114.653mm"
 viewBox="0 0 1024 325"
 xmlns="http://www.w3.org/2000/svg" xmlns:xlink="http://www.w3.org/1999/xlink"  version="1.2" baseProfile="tiny">
<title>Qt Svg Document</title>
<desc>Generated with Qt</desc>
<defs>
</defs>
<g fill="none" stroke="black" stroke-width="1" fill-rule="evenodd" stroke-linecap="square" stroke-linejoin="bevel" >

<g fill="#ffffff" fill-opacity="1" stroke="none" transform="matrix(1,0,0,1,0,0)"
font-family="Helvetica" font-size="12" font-weight="400" font-style="normal" 
>
<path vector-effect="non-scaling-stroke" fill-rule="evenodd" d="M0,0 L1024,0 L1024,325 L0,325 L0,0"/>
<path vector-effect="non-scaling-stroke" fill-rule="evenodd" d="M0,0 L1024,0 L1024,325 L0,325 L0,0"/>
<path vector-effect="non-scaling-stroke" fill-rule="evenodd" d="M0,0 L1024,0 L1024,325 L0,325 L0,0"/>
<path vector-effect="non-scaling-stroke" fill-rule="evenodd" d="M383,8 L641,8 L641,317 L383,317 L383,8"/>
<path vector-effect="non-scaling-stroke" fill-rule="evenodd" d="M383,9 L641,9 L641,38 L383,38 L383,9"/>
<path vector-effect="non-scaling-stroke" fill-rule="evenodd" d="M383,38 L641,38 L641,60 L383,60 L383,38"/>
<path vector-effect="non-scaling-stroke" fill-rule="evenodd" d="M383,60 L485,60 L485,100 L383,100 L383,60"/>
<path vector-effect="non-scaling-stroke" fill-rule="evenodd" d="M485,60 L563,60 L563,100 L485,100 L485,60"/>
<path vector-effect="non-scaling-stroke" fill-rule="evenodd" d="M563,60 L641,60 L641,100 L563,100 L563,60"/>
</g>

<g fill="#f2f2f2" fill-opacity="1" stroke="none" transform="matrix(1,0,0,1,0,0)"
font-family="Helvetica" font-size="12" font-weight="400" font-style="normal" 
>
<path vector-effect="non-scaling-stroke" fill-rule="evenodd" d="M383,139 L485,139 L485,177 L383,177 L383,139"/>
<path vector-effect="non-scaling-stroke" fill-rule="evenodd" d="M485,139 L563,139 L563,177 L485,177 L485,139"/>
<path vector-effect="non-scaling-stroke" fill-rule="evenodd" d="M563,139 L641,139 L641,177 L563,177 L563,139"/>
<path vector-effect="non-scaling-stroke" fill-rule="evenodd" d="M383,215 L485,215 L485,253 L383,253 L383,215"/>
<path vector-effect="non-scaling-stroke" fill-rule="evenodd" d="M485,215 L563,215 L563,253 L485,253 L485,215"/>
<path vector-effect="non-scaling-stroke" fill-rule="evenodd" d="M563,215 L641,215 L641,253 L563,253 L563,215"/>
</g>

<g fill="#a8a8a8" fill-opacity="1" stroke="none" transform="matrix(1,0,0,1,0,0)"
font-family="Helvetica" font-size="12" font-weight="400" font-style="normal" 
>
<path vector-effect="non-scaling-stroke" fill-rule="evenodd" d="M383,8 L641,8 L641,10 L383,10 L383,8"/>
<path vector-effect="non-scaling-stroke" fill-rule="evenodd" d="M383,99 L485,99 L485,101 L383,101 L383,99"/>
<path vector-effect="non-scaling-stroke" fill-rule="evenodd" d="M485,99 L563,99 L563,101 L485,101 L485,99"/>
<path vector-effect="non-scaling-stroke" fill-rule="evenodd" d="M563,99 L641,99 L641,101 L563,101 L563,99"/>
<path vector-effect="non-scaling-stroke" fill-rule="evenodd" d="M383,99 L485,99 L485,101 L383,101 L383,99"/>
<path vector-effect="non-scaling-stroke" fill-rule="evenodd" d="M485,99 L563,99 L563,101 L485,101 L485,99"/>
<path vector-effect="non-scaling-stroke" fill-rule="evenodd" d="M563,99 L641,99 L641,101 L563,101 L563,99"/>
<path vector-effect="non-scaling-stroke" fill-rule="evenodd" d="M383,291 L485,291 L485,293 L383,293 L383,291"/>
<path vector-effect="non-scaling-stroke" fill-rule="evenodd" d="M485,291 L563,291 L563,293 L485,293 L485,291"/>
<path vector-effect="non-scaling-stroke" fill-rule="evenodd" d="M563,291 L641,291 L641,293 L563,293 L563,291"/>
<path vector-effect="non-scaling-stroke" fill-rule="evenodd" d="M383,291 L641,291 L641,293 L383,293 L383,291"/>
<path vector-effect="non-scaling-stroke" fill-rule="evenodd" d="M383,59 L641,59 L641,61 L383,61 L383,59"/>
<path vector-effect="non-scaling-stroke" fill-rule="evenodd" d="M383,59 L485,59 L485,61 L383,61 L383,59"/>
<path vector-effect="non-scaling-stroke" fill-rule="evenodd" d="M485,59 L563,59 L563,61 L485,61 L485,59"/>
<path vector-effect="non-scaling-stroke" fill-rule="evenodd" d="M563,59 L641,59 L641,61 L563,61 L563,59"/>
</g>

<g fill="#000000" fill-opacity="1" stroke="#000000" stroke-opacity="1" stroke-width="1" stroke-linecap="square" stroke-linejoin="bevel" transform="matrix(1,0,0,1,0,0)"
font-family="Arial" font-size="20" font-weight="400" font-style="normal" 
>
<text fill="#000000" fill-opacity="1" stroke="none" xml:space="preserve" x="473" y="32" font-family="Arial" font-size="20" font-weight="400" font-style="normal" 
 >S&amp;P 500</text>
</g>

<g fill="#000000" fill-opacity="1" stroke="#000000" stroke-opacity="1" stroke-width="1" stroke-linecap="square" stroke-linejoin="bevel" transform="matrix(1,0,0,1,0,0)"
font-family="Arial" font-size="14" font-weight="400" font-style="normal" 
>
<text fill="#000000" fill-opacity="1" stroke="none" xml:space="preserve" x="434.5" y="52" font-family="Arial" font-size="14" font-weight="400" font-style="normal" 
 >Open and Close Values</text>
</g>

<g fill="#000000" fill-opacity="1" stroke="#000000" stroke-opacity="1" stroke-width="1" stroke-linecap="square" stroke-linejoin="bevel" transform="matrix(1,0,0,1,0,0)"
font-family="Arial" font-size="9" font-weight="400" font-style="italic" 
>
<text fill="#000000" fill-opacity="1" stroke="none" xml:space="preserve" x="584.5" y="47" font-family="Arial" font-size="9" font-weight="400" font-style="italic" 
 >1</text>
</g>

<g fill="#000000" fill-opacity="1" stroke="#000000" stroke-opacity="1" stroke-width="1" stroke-linecap="square" stroke-linejoin="bevel" transform="matrix(1,0,0,1,0,0)"
font-family="Arial" font-size="16" font-weight="400" font-style="normal" 
>
<text fill="#000000" fill-opacity="1" stroke="none" xml:space="preserve" x="393" y="85" font-family="Arial" font-size="16" font-weight="400" font-style="normal" 
 >date</text>
<text fill="#000000" fill-opacity="1" stroke="none" xml:space="preserve" x="517" y="85" font-family="Arial" font-size="16" font-weight="400" font-style="normal" 
 >open</text>
<text fill="#000000" fill-opacity="1" stroke="none" xml:space="preserve" x="593" y="85" font-family="Arial" font-size="16" font-weight="400" font-style="normal" 
 >close</text>
<text fill="#000000" fill-opacity="1" stroke="none" xml:space="preserve" x="393" y="125" font-family="Arial" font-size="16" font-weight="400" font-style="normal" 
 >2015-01-09</text>
<text fill="#000000" fill-opacity="1" stroke="none" xml:space="preserve" x="495" y="125" font-family="Arial" font-size="16" font-weight="400" font-style="normal" 
 >2063.45</text>
<text fill="#000000" fill-opacity="1" stroke="none" xml:space="preserve" x="573" y="125" font-family="Arial" font-size="16" font-weight="400" font-style="normal" 
 >2044.81</text>
<text fill="#000000" fill-opacity="1" stroke="none" xml:space="preserve" x="393" y="163" font-family="Arial" font-size="16" font-weight="400" font-style="normal" 
 >2015-01-08</text>
<text fill="#000000" fill-opacity="1" stroke="none" xml:space="preserve" x="495" y="163" font-family="Arial" font-size="16" font-weight="400" font-style="normal" 
 >2030.61</text>
<text fill="#000000" fill-opacity="1" stroke="none" xml:space="preserve" x="573" y="163" font-family="Arial" font-size="16" font-weight="400" font-style="normal" 
 >2062.14</text>
<text fill="#000000" fill-opacity="1" stroke="none" xml:space="preserve" x="393" y="201" font-family="Arial" font-size="16" font-weight="400" font-style="normal" 
 >2015-01-07</text>
<text fill="#000000" fill-opacity="1" stroke="none" xml:space="preserve" x="495" y="201" font-family="Arial" font-size="16" font-weight="400" font-style="normal" 
 >2005.55</text>
<text fill="#000000" fill-opacity="1" stroke="none" xml:space="preserve" x="573" y="201" font-family="Arial" font-size="16" font-weight="400" font-style="normal" 
 >2025.90</text>
<text fill="#000000" fill-opacity="1" stroke="none" xml:space="preserve" x="393" y="239" font-family="Arial" font-size="16" font-weight="400" font-style="normal" 
 >2015-01-06</text>
<text fill="#000000" fill-opacity="1" stroke="none" xml:space="preserve" x="495" y="239" font-family="Arial" font-size="16" font-weight="400" font-style="normal" 
 >2022.15</text>
<text fill="#000000" fill-opacity="1" stroke="none" xml:space="preserve" x="573" y="239" font-family="Arial" font-size="16" font-weight="400" font-style="normal" 
 >2002.61</text>
<text fill="#000000" fill-opacity="1" stroke="none" xml:space="preserve" x="393" y="277" font-family="Arial" font-size="16" font-weight="400" font-style="normal" 
 >2015-01-05</text>
<text fill="#000000" fill-opacity="1" stroke="none" xml:space="preserve" x="495" y="277" font-family="Arial" font-size="16" font-weight="400" font-style="normal" 
 >2054.44</text>
<text fill="#000000" fill-opacity="1" stroke="none" xml:space="preserve" x="573" y="277" font-family="Arial" font-size="16" font-weight="400" font-style="normal" 
 >2020.58</text>
</g>

<g fill="#000000" fill-opacity="1" stroke="#000000" stroke-opacity="1" stroke-width="1" stroke-linecap="square" stroke-linejoin="bevel" transform="matrix(1,0,0,1,0,0)"
font-family="Arial" font-size="9" font-weight="400" font-style="italic" 
>
<text fill="#000000" fill-opacity="1" stroke="none" xml:space="preserve" x="387" y="305" font-family="Arial" font-size="9" font-weight="400" font-style="italic" 
 >1</text>
</g>

<g fill="#000000" fill-opacity="1" stroke="#000000" stroke-opacity="1" stroke-width="1" stroke-linecap="square" stroke-linejoin="bevel" transform="matrix(1,0,0,1,0,0)"
font-family="Arial" font-size="14" font-weight="400" font-style="normal" 
>
<text fill="#000000" fill-opacity="1" stroke="none" xml:space="preserve" x="392" y="310" font-family="Arial" font-size="14" font-weight="400" font-style="normal" 
 > All values in USD.</text>
</g>
</g>
</svg>
