<?xml version="1.0" encoding="UTF-8" standalone="no"?>
<svg width="361.244mm" height="128.411mm"
 viewBox="0 0 1024 364"
 xmlns="http://www.w3.org/2000/svg" xmlns:xlink="http://www.w3.org/1999/xlink"  version="1.2" baseProfile="tiny">
<title>Qt Svg Document</title>
<desc>Generated with Qt</desc>
<defs>
</defs>
<g fill="none" stroke="black" stroke-width="1" fill-rule="evenodd" stroke-linecap="square" stroke-linejoin="bevel" >

<g fill="#ffffff" fill-opacity="1" stroke="none" transform="matrix(1,0,0,1,0,0)"
font-family="Helvetica" font-size="12" font-weight="400" font-style="normal" 
>
<path vector-effect="non-scaling-stroke" fill-rule="evenodd" d="M0,0 L1024,0 L1024,364 L0,364 L0,0"/>
<path vector-effect="non-scaling-stroke" fill-rule="evenodd" d="M0,0 L1024,0 L1024,364 L0,364 L0,0"/>
<path vector-effect="non-scaling-stroke" fill-rule="evenodd" d="M0,0 L1024,0 L1024,364 L0,364 L0,0"/>
<path vector-effect="non-scaling-stroke" fill-rule="evenodd" d="M401,8 L623,8 L623,356 L401,356 L401,8"/>
<path vector-effect="non-scaling-stroke" fill-rule="evenodd" d="M401,9 L523,9 L523,49 L401,49 L401,9"/>
<path vector-effect="non-scaling-stroke" fill-rule="evenodd" d="M523,9 L623,9 L623,49 L523,49 L523,9"/>
</g>

<g fill="#f2f2f2" fill-opacity="1" stroke="none" transform="matrix(1,0,0,1,0,0)"
font-family="Helvetica" font-size="12" font-weight="400" font-style="normal" 
>
<path vector-effect="non-scaling-stroke" fill-rule="evenodd" d="M401,88 L523,88 L523,126 L401,126 L401,88"/>
<path vector-effect="non-scaling-stroke" fill-rule="evenodd" d="M523,88 L623,88 L623,126 L523,126 L523,88"/>
<path vector-effect="non-scaling-stroke" fill-rule="evenodd" d="M401,164 L523,164 L523,202 L401,202 L401,164"/>
<path vector-effect="non-scaling-stroke" fill-rule="evenodd" d="M523,164 L623,164 L623,202 L523,202 L523,164"/>
<path vector-effect="non-scaling-stroke" fill-rule="evenodd" d="M401,240 L523,240 L523,278 L401,278 L401,240"/>
<path vector-effect="non-scaling-stroke" fill-rule="evenodd" d="M523,240 L623,240 L623,278 L523,278 L523,240"/>
<path vector-effect="non-scaling-stroke" fill-rule="evenodd" d="M401,316 L523,316 L523,355 L401,355 L401,316"/>
<path vector-effect="non-scaling-stroke" fill-rule="evenodd" d="M523,316 L623,316 L623,355 L523,355 L523,316"/>
</g>

<g fill="#a8a8a8" fill-opacity="1" stroke="none" transform="matrix(1,0,0,1,0,0)"
font-family="Helvetica" font-size="12" font-weight="400" font-style="normal" 
>
<path vector-effect="non-scaling-stroke" fill-rule="evenodd" d="M401,8 L523,8 L523,10 L401,10 L401,8"/>
<path vector-effect="non-scaling-stroke" fill-rule="evenodd" d="M523,8 L623,8 L623,10 L523,10 L523,8"/>
<path vector-effect="non-scaling-stroke" fill-rule="evenodd" d="M401,48 L523,48 L523,50 L401,50 L401,48"/>
<path vector-effect="non-scaling-stroke" fill-rule="evenodd" d="M523,48 L623,48 L623,50 L523,50 L523,48"/>
<path vector-effect="non-scaling-stroke" fill-rule="evenodd" d="M401,48 L523,48 L523,50 L401,50 L401,48"/>
<path vector-effect="non-scaling-stroke" fill-rule="evenodd" d="M523,48 L623,48 L623,50 L523,50 L523,48"/>
<path vector-effect="non-scaling-stroke" fill-rule="evenodd" d="M401,354 L523,354 L523,356 L401,356 L401,354"/>
<path vector-effect="non-scaling-stroke" fill-rule="evenodd" d="M523,354 L623,354 L623,356 L523,356 L523,354"/>
</g>

<g fill="#000000" fill-opacity="1" stroke="#000000" stroke-opacity="1" stroke-width="1" stroke-linecap="square" stroke-linejoin="bevel" transform="matrix(1,0,0,1,0,0)"
font-family="Arial" font-size="16" font-weight="400" font-style="normal" 
>
<text fill="#000000" fill-opacity="1" stroke="none" xml:space="preserve" x="482" y="34" font-family="Arial" font-size="16" font-weight="400" font-style="normal" 
 >num</text>
<text fill="#000000" fill-opacity="1" stroke="none" xml:space="preserve" x="552" y="34" font-family="Arial" font-size="16" font-weight="400" font-style="normal" 
 >currency</text>
<text fill="#000000" fill-opacity="1" stroke="none" xml:space="preserve" x="473" y="74" font-family="Arial" font-size="16" font-weight="400" font-style="normal" 
 >¥0.11</text>
<text fill="#000000" fill-opacity="1" stroke="none" xml:space="preserve" x="564" y="74" font-family="Arial" font-size="16" font-weight="400" font-style="normal" 
 >£49.95</text>
<text fill="#000000" fill-opacity="1" stroke="none" xml:space="preserve" x="473" y="112" font-family="Arial" font-size="16" font-weight="400" font-style="normal" 
 >¥2.22</text>
<text fill="#000000" fill-opacity="1" stroke="none" xml:space="preserve" x="564" y="112" font-family="Arial" font-size="16" font-weight="400" font-style="normal" 
 >£17.95</text>
<text fill="#000000" fill-opacity="1" stroke="none" xml:space="preserve" x="464" y="150" font-family="Arial" font-size="16" font-weight="400" font-style="normal" 
 >¥33.33</text>
<text fill="#000000" fill-opacity="1" stroke="none" xml:space="preserve" x="573" y="150" font-family="Arial" font-size="16" font-weight="400" font-style="normal" 
 >£1.39</text>
<text fill="#000000" fill-opacity="1" stroke="none" xml:space="preserve" x="455" y="188" font-family="Arial" font-size="16" font-weight="400" font-style="normal" 
 >¥444.40</text>
<text fill="#000000" fill-opacity="1" stroke="none" xml:space="preserve" x="533" y="188" font-family="Arial" font-size="16" font-weight="400" font-style="normal" 
 >£65,100.00</text>
<text fill="#000000" fill-opacity="1" stroke="none" xml:space="preserve" x="442" y="226" font-family="Arial" font-size="16" font-weight="400" font-style="normal" 
 >¥5,550.00</text>
<text fill="#000000" fill-opacity="1" stroke="none" xml:space="preserve" x="542" y="226" font-family="Arial" font-size="16" font-weight="400" font-style="normal" 
 >£1,325.81</text>
<text fill="#000000" fill-opacity="1" stroke="none" xml:space="preserve" x="490" y="264" font-family="Arial" font-size="16" font-weight="400" font-style="normal" 
 >NA</text>
<text fill="#000000" fill-opacity="1" stroke="none" xml:space="preserve" x="564" y="264" font-family="Arial" font-size="16" font-weight="400" font-style="normal" 
 >£13.26</text>
<text fill="#000000" fill-opacity="1" stroke="none" xml:space="preserve" x="424" y="302" font-family="Arial" font-size="16" font-weight="400" font-style="normal" 
 >¥777,000.00</text>
<text fill="#000000" fill-opacity="1" stroke="none" xml:space="preserve" x="590" y="302" font-family="Arial" font-size="16" font-weight="400" font-style="normal" 
 >NA</text>
<text fill="#000000" fill-opacity="1" stroke="none" xml:space="preserve" x="411" y="340" font-family="Arial" font-size="16" font-weight="400" font-style="normal" 
 >¥8,880,000.00</text>
<text fill="#000000" fill-opacity="1" stroke="none" xml:space="preserve" x="573" y="340" font-family="Arial" font-size="16" font-weight="400" font-style="normal" 
 >£0.44</text>
</g>
</g>
</svg>
