<?xml version="1.0" encoding="UTF-8" standalone="no"?>
<svg width="361.244mm" height="183.092mm"
 viewBox="0 0 1024 519"
 xmlns="http://www.w3.org/2000/svg" xmlns:xlink="http://www.w3.org/1999/xlink"  version="1.2" baseProfile="tiny">
<title>Qt Svg Document</title>
<desc>Generated with Qt</desc>
<defs>
</defs>
<g fill="none" stroke="black" stroke-width="1" fill-rule="evenodd" stroke-linecap="square" stroke-linejoin="bevel" >

<g fill="#ffffff" fill-opacity="1" stroke="none" transform="matrix(1,0,0,1,0,0)"
font-family="Helvetica" font-size="12" font-weight="400" font-style="normal" 
>
<path vector-effect="non-scaling-stroke" fill-rule="evenodd" d="M0,0 L1024,0 L1024,519 L0,519 L0,0"/>
<path vector-effect="non-scaling-stroke" fill-rule="evenodd" d="M0,0 L1024,0 L1024,519 L0,519 L0,0"/>
<path vector-effect="non-scaling-stroke" fill-rule="evenodd" d="M0,0 L1024,0 L1024,519 L0,519 L0,0"/>
<path vector-effect="non-scaling-stroke" fill-rule="evenodd" d="M444,8 L579,8 L579,511 L444,511 L444,8"/>
<path vector-effect="non-scaling-stroke" fill-rule="evenodd" d="M444,9 L514,9 L514,50 L444,50 L444,9"/>
<path vector-effect="non-scaling-stroke" fill-rule="evenodd" d="M514,9 L579,9 L579,50 L514,50 L514,9"/>
</g>

<g fill="#f2f2f2" fill-opacity="1" stroke="none" transform="matrix(1,0,0,1,0,0)"
font-family="Helvetica" font-size="12" font-weight="400" font-style="normal" 
>
<path vector-effect="non-scaling-stroke" fill-rule="evenodd" d="M444,89 L514,89 L514,127 L444,127 L444,89"/>
<path vector-effect="non-scaling-stroke" fill-rule="evenodd" d="M514,89 L579,89 L579,127 L514,127 L514,89"/>
<path vector-effect="non-scaling-stroke" fill-rule="evenodd" d="M444,165 L514,165 L514,203 L444,203 L444,165"/>
<path vector-effect="non-scaling-stroke" fill-rule="evenodd" d="M514,165 L579,165 L579,203 L514,203 L514,165"/>
<path vector-effect="non-scaling-stroke" fill-rule="evenodd" d="M444,241 L514,241 L514,279 L444,279 L444,241"/>
<path vector-effect="non-scaling-stroke" fill-rule="evenodd" d="M514,241 L579,241 L579,279 L514,279 L514,241"/>
<path vector-effect="non-scaling-stroke" fill-rule="evenodd" d="M444,317 L514,317 L514,355 L444,355 L444,317"/>
<path vector-effect="non-scaling-stroke" fill-rule="evenodd" d="M514,317 L579,317 L579,355 L514,355 L514,317"/>
<path vector-effect="non-scaling-stroke" fill-rule="evenodd" d="M444,393 L514,393 L514,431 L444,431 L444,393"/>
<path vector-effect="non-scaling-stroke" fill-rule="evenodd" d="M514,393 L579,393 L579,431 L514,431 L514,393"/>
</g>

<g fill="#a8a8a8" fill-opacity="1" stroke="none" transform="matrix(1,0,0,1,0,0)"
font-family="Helvetica" font-size="12" font-weight="400" font-style="normal" 
>
<path vector-effect="non-scaling-stroke" fill-rule="evenodd" d="M444,8 L514,8 L514,10 L444,10 L444,8"/>
<path vector-effect="non-scaling-stroke" fill-rule="evenodd" d="M514,8 L579,8 L579,10 L514,10 L514,8"/>
<path vector-effect="non-scaling-stroke" fill-rule="evenodd" d="M444,49 L514,49 L514,51 L444,51 L444,49"/>
<path vector-effect="non-scaling-stroke" fill-rule="evenodd" d="M514,49 L579,49 L579,51 L514,51 L514,49"/>
<path vector-effect="non-scaling-stroke" fill-rule="evenodd" d="M444,49 L514,49 L514,51 L444,51 L444,49"/>
<path vector-effect="non-scaling-stroke" fill-rule="evenodd" d="M514,49 L579,49 L579,51 L514,51 L514,49"/>
<path vector-effect="non-scaling-stroke" fill-rule="evenodd" d="M444,469 L514,469 L514,471 L444,471 L444,469"/>
<path vector-effect="non-scaling-stroke" fill-rule="evenodd" d="M514,469 L579,469 L579,471 L514,471 L514,469"/>
<path vector-effect="non-scaling-stroke" fill-rule="evenodd" d="M444,469 L579,469 L579,471 L444,471 L444,469"/>
</g>

<g fill="#000000" fill-opacity="1" stroke="#000000" stroke-opacity="1" stroke-width="1" stroke-linecap="square" stroke-linejoin="bevel" transform="matrix(1,0,0,1,0,0)"
font-family="Arial" font-size="16" font-weight="400" font-style="normal" 
>
<text fill="#000000" fill-opacity="1" stroke="none" xml:space="preserve" x="454" y="35" font-family="Arial" font-size="16" font-weight="400" font-style="normal" 
 >tst</text>
</g>

<g fill="#000000" fill-opacity="1" stroke="#000000" stroke-opacity="1" stroke-width="1" stroke-linecap="square" stroke-linejoin="bevel" transform="matrix(1,0,0,1,0,0)"
font-family="Arial" font-size="10" font-weight="400" font-style="italic" 
>
<text fill="#000000" fill-opacity="1" stroke="none" xml:space="preserve" x="470" y="29" font-family="Arial" font-size="10" font-weight="400" font-style="italic" 
 >1</text>
</g>

<g fill="#000000" fill-opacity="1" stroke="#000000" stroke-opacity="1" stroke-width="1" stroke-linecap="square" stroke-linejoin="bevel" transform="matrix(1,0,0,1,0,0)"
font-family="Arial" font-size="16" font-weight="400" font-style="normal" 
>
<text fill="#000000" fill-opacity="1" stroke="none" xml:space="preserve" x="538" y="35" font-family="Arial" font-size="16" font-weight="400" font-style="normal" 
 >sza</text>
</g>

<g fill="#000000" fill-opacity="1" stroke="#000000" stroke-opacity="1" stroke-width="1" stroke-linecap="square" stroke-linejoin="bevel" transform="matrix(1,0,0,1,0,0)"
font-family="Arial" font-size="10" font-weight="400" font-style="italic" 
>
<text fill="#000000" fill-opacity="1" stroke="none" xml:space="preserve" x="563" y="29" font-family="Arial" font-size="10" font-weight="400" font-style="italic" 
 >2</text>
</g>

<g fill="#000000" fill-opacity="1" stroke="#000000" stroke-opacity="1" stroke-width="1" stroke-linecap="square" stroke-linejoin="bevel" transform="matrix(1,0,0,1,0,0)"
font-family="Arial" font-size="16" font-weight="400" font-style="normal" 
>
<text fill="#000000" fill-opacity="1" stroke="none" xml:space="preserve" x="454" y="75" font-family="Arial" font-size="16" font-weight="400" font-style="normal" 
 >0700</text>
<text fill="#000000" fill-opacity="1" stroke="none" xml:space="preserve" x="538" y="75" font-family="Arial" font-size="16" font-weight="400" font-style="normal" 
 >84.9</text>
<text fill="#000000" fill-opacity="1" stroke="none" xml:space="preserve" x="454" y="113" font-family="Arial" font-size="16" font-weight="400" font-style="normal" 
 >0730</text>
<text fill="#000000" fill-opacity="1" stroke="none" xml:space="preserve" x="538" y="113" font-family="Arial" font-size="16" font-weight="400" font-style="normal" 
 >78.7</text>
<text fill="#000000" fill-opacity="1" stroke="none" xml:space="preserve" x="454" y="151" font-family="Arial" font-size="16" font-weight="400" font-style="normal" 
 >0800</text>
<text fill="#000000" fill-opacity="1" stroke="none" xml:space="preserve" x="538" y="151" font-family="Arial" font-size="16" font-weight="400" font-style="normal" 
 >72.7</text>
<text fill="#000000" fill-opacity="1" stroke="none" xml:space="preserve" x="454" y="189" font-family="Arial" font-size="16" font-weight="400" font-style="normal" 
 >0830</text>
<text fill="#000000" fill-opacity="1" stroke="none" xml:space="preserve" x="538" y="189" font-family="Arial" font-size="16" font-weight="400" font-style="normal" 
 >66.1</text>
<text fill="#000000" fill-opacity="1" stroke="none" xml:space="preserve" x="454" y="227" font-family="Arial" font-size="16" font-weight="400" font-style="normal" 
 >0900</text>
<text fill="#000000" fill-opacity="1" stroke="none" xml:space="preserve" x="538" y="227" font-family="Arial" font-size="16" font-weight="400" font-style="normal" 
 >61.5</text>
<text fill="#000000" fill-opacity="1" stroke="none" xml:space="preserve" x="454" y="265" font-family="Arial" font-size="16" font-weight="400" font-style="normal" 
 >0930</text>
<text fill="#000000" fill-opacity="1" stroke="none" xml:space="preserve" x="538" y="265" font-family="Arial" font-size="16" font-weight="400" font-style="normal" 
 >56.5</text>
<text fill="#000000" fill-opacity="1" stroke="none" xml:space="preserve" x="454" y="303" font-family="Arial" font-size="16" font-weight="400" font-style="normal" 
 >1000</text>
<text fill="#000000" fill-opacity="1" stroke="none" xml:space="preserve" x="538" y="303" font-family="Arial" font-size="16" font-weight="400" font-style="normal" 
 >52.1</text>
<text fill="#000000" fill-opacity="1" stroke="none" xml:space="preserve" x="454" y="341" font-family="Arial" font-size="16" font-weight="400" font-style="normal" 
 >1030</text>
<text fill="#000000" fill-opacity="1" stroke="none" xml:space="preserve" x="538" y="341" font-family="Arial" font-size="16" font-weight="400" font-style="normal" 
 >48.3</text>
<text fill="#000000" fill-opacity="1" stroke="none" xml:space="preserve" x="454" y="379" font-family="Arial" font-size="16" font-weight="400" font-style="normal" 
 >1100</text>
<text fill="#000000" fill-opacity="1" stroke="none" xml:space="preserve" x="538" y="379" font-family="Arial" font-size="16" font-weight="400" font-style="normal" 
 >45.5</text>
<text fill="#000000" fill-opacity="1" stroke="none" xml:space="preserve" x="454" y="417" font-family="Arial" font-size="16" font-weight="400" font-style="normal" 
 >1130</text>
<text fill="#000000" fill-opacity="1" stroke="none" xml:space="preserve" x="538" y="417" font-family="Arial" font-size="16" font-weight="400" font-style="normal" 
 >43.6</text>
<text fill="#000000" fill-opacity="1" stroke="none" xml:space="preserve" x="454" y="455" font-family="Arial" font-size="16" font-weight="400" font-style="normal" 
 >1200</text>
<text fill="#000000" fill-opacity="1" stroke="none" xml:space="preserve" x="538" y="455" font-family="Arial" font-size="16" font-weight="400" font-style="normal" 
 >43.0</text>
</g>

<g fill="#000000" fill-opacity="1" stroke="#000000" stroke-opacity="1" stroke-width="1" stroke-linecap="square" stroke-linejoin="bevel" transform="matrix(1,0,0,1,0,0)"
font-family="Arial" font-size="9" font-weight="400" font-style="italic" 
>
<text fill="#000000" fill-opacity="1" stroke="none" xml:space="preserve" x="448" y="483" font-family="Arial" font-size="9" font-weight="400" font-style="italic" 
 >1</text>
</g>

<g fill="#000000" fill-opacity="1" stroke="#000000" stroke-opacity="1" stroke-width="1" stroke-linecap="square" stroke-linejoin="bevel" transform="matrix(1,0,0,1,0,0)"
font-family="Arial" font-size="14" font-weight="400" font-style="normal" 
>
<text fill="#000000" fill-opacity="1" stroke="none" xml:space="preserve" x="453" y="488" font-family="Arial" font-size="14" font-weight="400" font-style="normal" 
 > True solar time.</text>
</g>

<g fill="#000000" fill-opacity="1" stroke="#000000" stroke-opacity="1" stroke-width="1" stroke-linecap="square" stroke-linejoin="bevel" transform="matrix(1,0,0,1,0,0)"
font-family="Arial" font-size="9" font-weight="400" font-style="italic" 
>
<text fill="#000000" fill-opacity="1" stroke="none" xml:space="preserve" x="448" y="499" font-family="Arial" font-size="9" font-weight="400" font-style="italic" 
 >2</text>
</g>

<g fill="#000000" fill-opacity="1" stroke="#000000" stroke-opacity="1" stroke-width="1" stroke-linecap="square" stroke-linejoin="bevel" transform="matrix(1,0,0,1,0,0)"
font-family="Arial" font-size="14" font-weight="400" font-style="normal" 
>
<text fill="#000000" fill-opacity="1" stroke="none" xml:space="preserve" x="453" y="504" font-family="Arial" font-size="14" font-weight="400" font-style="normal" 
 > Solar zenith angle.</text>
</g>
</g>
</svg>
