<?xml version="1.0" encoding="UTF-8" standalone="no"?>
<svg width="361.244mm" height="165.453mm"
 viewBox="0 0 1024 469"
 xmlns="http://www.w3.org/2000/svg" xmlns:xlink="http://www.w3.org/1999/xlink"  version="1.2" baseProfile="tiny">
<title>Qt Svg Document</title>
<desc>Generated with Qt</desc>
<defs>
</defs>
<g fill="none" stroke="black" stroke-width="1" fill-rule="evenodd" stroke-linecap="square" stroke-linejoin="bevel" >

<g fill="#ffffff" fill-opacity="1" stroke="none" transform="matrix(1,0,0,1,0,0)"
font-family="Helvetica" font-size="12" font-weight="400" font-style="normal" 
>
<path vector-effect="non-scaling-stroke" fill-rule="evenodd" d="M0,0 L1024,0 L1024,469 L0,469 L0,0"/>
<path vector-effect="non-scaling-stroke" fill-rule="evenodd" d="M0,0 L1024,0 L1024,469 L0,469 L0,0"/>
<path vector-effect="non-scaling-stroke" fill-rule="evenodd" d="M0,0 L1024,0 L1024,469 L0,469 L0,0"/>
<path vector-effect="non-scaling-stroke" fill-rule="evenodd" d="M393,8 L631,8 L631,461 L393,461 L393,8"/>
<path vector-effect="non-scaling-stroke" fill-rule="evenodd" d="M393,9 L429,9 L429,39 L393,39 L393,9"/>
<path vector-effect="non-scaling-stroke" fill-rule="evenodd" d="M429,9 L524,9 L524,39 L429,39 L429,9"/>
<path vector-effect="non-scaling-stroke" fill-rule="evenodd" d="M524,9 L631,9 L631,39 L524,39 L524,9"/>
<path vector-effect="non-scaling-stroke" fill-rule="evenodd" d="M393,39 L429,39 L429,74 L393,74 L393,39"/>
<path vector-effect="non-scaling-stroke" fill-rule="evenodd" d="M393,74 L429,74 L429,109 L393,109 L393,74"/>
</g>

<g fill="#808080" fill-opacity="0.0470588" stroke="none" transform="matrix(1,0,0,1,0,0)"
font-family="Helvetica" font-size="12" font-weight="400" font-style="normal" 
>
<path vector-effect="non-scaling-stroke" fill-rule="evenodd" d="M429,74 L524,74 L524,109 L429,109 L429,74"/>
<path vector-effect="non-scaling-stroke" fill-rule="evenodd" d="M524,74 L631,74 L631,109 L524,109 L524,74"/>
</g>

<g fill="#ffffff" fill-opacity="1" stroke="none" transform="matrix(1,0,0,1,0,0)"
font-family="Helvetica" font-size="12" font-weight="400" font-style="normal" 
>
<path vector-effect="non-scaling-stroke" fill-rule="evenodd" d="M393,109 L429,109 L429,144 L393,144 L393,109"/>
<path vector-effect="non-scaling-stroke" fill-rule="evenodd" d="M393,144 L429,144 L429,179 L393,179 L393,144"/>
</g>

<g fill="#808080" fill-opacity="0.0470588" stroke="none" transform="matrix(1,0,0,1,0,0)"
font-family="Helvetica" font-size="12" font-weight="400" font-style="normal" 
>
<path vector-effect="non-scaling-stroke" fill-rule="evenodd" d="M429,144 L524,144 L524,179 L429,179 L429,144"/>
<path vector-effect="non-scaling-stroke" fill-rule="evenodd" d="M524,144 L631,144 L631,179 L524,179 L524,144"/>
</g>

<g fill="#ffffff" fill-opacity="1" stroke="none" transform="matrix(1,0,0,1,0,0)"
font-family="Helvetica" font-size="12" font-weight="400" font-style="normal" 
>
<path vector-effect="non-scaling-stroke" fill-rule="evenodd" d="M393,179 L429,179 L429,214 L393,214 L393,179"/>
<path vector-effect="non-scaling-stroke" fill-rule="evenodd" d="M393,214 L429,214 L429,249 L393,249 L393,214"/>
</g>

<g fill="#808080" fill-opacity="0.0470588" stroke="none" transform="matrix(1,0,0,1,0,0)"
font-family="Helvetica" font-size="12" font-weight="400" font-style="normal" 
>
<path vector-effect="non-scaling-stroke" fill-rule="evenodd" d="M429,214 L524,214 L524,249 L429,249 L429,214"/>
<path vector-effect="non-scaling-stroke" fill-rule="evenodd" d="M524,214 L631,214 L631,249 L524,249 L524,214"/>
</g>

<g fill="#ffffff" fill-opacity="1" stroke="none" transform="matrix(1,0,0,1,0,0)"
font-family="Helvetica" font-size="12" font-weight="400" font-style="normal" 
>
<path vector-effect="non-scaling-stroke" fill-rule="evenodd" d="M393,249 L429,249 L429,284 L393,284 L393,249"/>
<path vector-effect="non-scaling-stroke" fill-rule="evenodd" d="M393,284 L429,284 L429,319 L393,319 L393,284"/>
</g>

<g fill="#808080" fill-opacity="0.0470588" stroke="none" transform="matrix(1,0,0,1,0,0)"
font-family="Helvetica" font-size="12" font-weight="400" font-style="normal" 
>
<path vector-effect="non-scaling-stroke" fill-rule="evenodd" d="M429,284 L524,284 L524,319 L429,319 L429,284"/>
<path vector-effect="non-scaling-stroke" fill-rule="evenodd" d="M524,284 L631,284 L631,319 L524,319 L524,284"/>
</g>

<g fill="#ffffff" fill-opacity="1" stroke="none" transform="matrix(1,0,0,1,0,0)"
font-family="Helvetica" font-size="12" font-weight="400" font-style="normal" 
>
<path vector-effect="non-scaling-stroke" fill-rule="evenodd" d="M393,319 L429,319 L429,354 L393,354 L393,319"/>
<path vector-effect="non-scaling-stroke" fill-rule="evenodd" d="M393,354 L429,354 L429,389 L393,389 L393,354"/>
</g>

<g fill="#808080" fill-opacity="0.0470588" stroke="none" transform="matrix(1,0,0,1,0,0)"
font-family="Helvetica" font-size="12" font-weight="400" font-style="normal" 
>
<path vector-effect="non-scaling-stroke" fill-rule="evenodd" d="M429,354 L524,354 L524,389 L429,389 L429,354"/>
<path vector-effect="non-scaling-stroke" fill-rule="evenodd" d="M524,354 L631,354 L631,389 L524,389 L524,354"/>
</g>

<g fill="#ffffff" fill-opacity="1" stroke="none" transform="matrix(1,0,0,1,0,0)"
font-family="Helvetica" font-size="12" font-weight="400" font-style="normal" 
>
<path vector-effect="non-scaling-stroke" fill-rule="evenodd" d="M393,389 L429,389 L429,424 L393,424 L393,389"/>
<path vector-effect="non-scaling-stroke" fill-rule="evenodd" d="M393,424 L429,424 L429,460 L393,460 L393,424"/>
</g>

<g fill="#808080" fill-opacity="0.0470588" stroke="none" transform="matrix(1,0,0,1,0,0)"
font-family="Helvetica" font-size="12" font-weight="400" font-style="normal" 
>
<path vector-effect="non-scaling-stroke" fill-rule="evenodd" d="M429,424 L524,424 L524,460 L429,460 L429,424"/>
<path vector-effect="non-scaling-stroke" fill-rule="evenodd" d="M524,424 L631,424 L631,460 L524,460 L524,424"/>
</g>

<g fill="#d3d3d3" fill-opacity="1" stroke="none" transform="matrix(1,0,0,1,0,0)"
font-family="Helvetica" font-size="12" font-weight="400" font-style="normal" 
>
<path vector-effect="non-scaling-stroke" fill-rule="evenodd" d="M393,74 L430,74 L430,75 L393,75 L393,74"/>
<path vector-effect="non-scaling-stroke" fill-rule="evenodd" d="M428,74 L524,74 L524,75 L428,75 L428,74"/>
<path vector-effect="non-scaling-stroke" fill-rule="evenodd" d="M524,74 L631,74 L631,75 L524,75 L524,74"/>
<path vector-effect="non-scaling-stroke" fill-rule="evenodd" d="M393,74 L430,74 L430,75 L393,75 L393,74"/>
<path vector-effect="non-scaling-stroke" fill-rule="evenodd" d="M393,109 L430,109 L430,110 L393,110 L393,109"/>
<path vector-effect="non-scaling-stroke" fill-rule="evenodd" d="M428,74 L524,74 L524,75 L428,75 L428,74"/>
<path vector-effect="non-scaling-stroke" fill-rule="evenodd" d="M428,109 L524,109 L524,110 L428,110 L428,109"/>
<path vector-effect="non-scaling-stroke" fill-rule="evenodd" d="M524,74 L631,74 L631,75 L524,75 L524,74"/>
<path vector-effect="non-scaling-stroke" fill-rule="evenodd" d="M524,109 L631,109 L631,110 L524,110 L524,109"/>
<path vector-effect="non-scaling-stroke" fill-rule="evenodd" d="M393,109 L430,109 L430,110 L393,110 L393,109"/>
<path vector-effect="non-scaling-stroke" fill-rule="evenodd" d="M393,144 L430,144 L430,145 L393,145 L393,144"/>
<path vector-effect="non-scaling-stroke" fill-rule="evenodd" d="M428,109 L524,109 L524,110 L428,110 L428,109"/>
<path vector-effect="non-scaling-stroke" fill-rule="evenodd" d="M428,144 L524,144 L524,145 L428,145 L428,144"/>
<path vector-effect="non-scaling-stroke" fill-rule="evenodd" d="M524,109 L631,109 L631,110 L524,110 L524,109"/>
<path vector-effect="non-scaling-stroke" fill-rule="evenodd" d="M524,144 L631,144 L631,145 L524,145 L524,144"/>
<path vector-effect="non-scaling-stroke" fill-rule="evenodd" d="M393,144 L430,144 L430,145 L393,145 L393,144"/>
<path vector-effect="non-scaling-stroke" fill-rule="evenodd" d="M393,179 L430,179 L430,180 L393,180 L393,179"/>
<path vector-effect="non-scaling-stroke" fill-rule="evenodd" d="M428,144 L524,144 L524,145 L428,145 L428,144"/>
<path vector-effect="non-scaling-stroke" fill-rule="evenodd" d="M428,179 L524,179 L524,180 L428,180 L428,179"/>
<path vector-effect="non-scaling-stroke" fill-rule="evenodd" d="M524,144 L631,144 L631,145 L524,145 L524,144"/>
<path vector-effect="non-scaling-stroke" fill-rule="evenodd" d="M524,179 L631,179 L631,180 L524,180 L524,179"/>
<path vector-effect="non-scaling-stroke" fill-rule="evenodd" d="M393,179 L430,179 L430,180 L393,180 L393,179"/>
<path vector-effect="non-scaling-stroke" fill-rule="evenodd" d="M393,214 L430,214 L430,215 L393,215 L393,214"/>
<path vector-effect="non-scaling-stroke" fill-rule="evenodd" d="M428,179 L524,179 L524,180 L428,180 L428,179"/>
<path vector-effect="non-scaling-stroke" fill-rule="evenodd" d="M428,214 L524,214 L524,215 L428,215 L428,214"/>
<path vector-effect="non-scaling-stroke" fill-rule="evenodd" d="M524,179 L631,179 L631,180 L524,180 L524,179"/>
<path vector-effect="non-scaling-stroke" fill-rule="evenodd" d="M524,214 L631,214 L631,215 L524,215 L524,214"/>
<path vector-effect="non-scaling-stroke" fill-rule="evenodd" d="M393,214 L430,214 L430,215 L393,215 L393,214"/>
<path vector-effect="non-scaling-stroke" fill-rule="evenodd" d="M393,249 L430,249 L430,250 L393,250 L393,249"/>
<path vector-effect="non-scaling-stroke" fill-rule="evenodd" d="M428,214 L524,214 L524,215 L428,215 L428,214"/>
<path vector-effect="non-scaling-stroke" fill-rule="evenodd" d="M428,249 L524,249 L524,250 L428,250 L428,249"/>
<path vector-effect="non-scaling-stroke" fill-rule="evenodd" d="M524,214 L631,214 L631,215 L524,215 L524,214"/>
<path vector-effect="non-scaling-stroke" fill-rule="evenodd" d="M524,249 L631,249 L631,250 L524,250 L524,249"/>
<path vector-effect="non-scaling-stroke" fill-rule="evenodd" d="M393,249 L430,249 L430,250 L393,250 L393,249"/>
<path vector-effect="non-scaling-stroke" fill-rule="evenodd" d="M393,284 L430,284 L430,285 L393,285 L393,284"/>
<path vector-effect="non-scaling-stroke" fill-rule="evenodd" d="M428,249 L524,249 L524,250 L428,250 L428,249"/>
<path vector-effect="non-scaling-stroke" fill-rule="evenodd" d="M428,284 L524,284 L524,285 L428,285 L428,284"/>
<path vector-effect="non-scaling-stroke" fill-rule="evenodd" d="M524,249 L631,249 L631,250 L524,250 L524,249"/>
<path vector-effect="non-scaling-stroke" fill-rule="evenodd" d="M524,284 L631,284 L631,285 L524,285 L524,284"/>
<path vector-effect="non-scaling-stroke" fill-rule="evenodd" d="M393,284 L430,284 L430,285 L393,285 L393,284"/>
<path vector-effect="non-scaling-stroke" fill-rule="evenodd" d="M393,319 L430,319 L430,320 L393,320 L393,319"/>
<path vector-effect="non-scaling-stroke" fill-rule="evenodd" d="M428,284 L524,284 L524,285 L428,285 L428,284"/>
<path vector-effect="non-scaling-stroke" fill-rule="evenodd" d="M428,319 L524,319 L524,320 L428,320 L428,319"/>
<path vector-effect="non-scaling-stroke" fill-rule="evenodd" d="M524,284 L631,284 L631,285 L524,285 L524,284"/>
<path vector-effect="non-scaling-stroke" fill-rule="evenodd" d="M524,319 L631,319 L631,320 L524,320 L524,319"/>
<path vector-effect="non-scaling-stroke" fill-rule="evenodd" d="M393,319 L430,319 L430,320 L393,320 L393,319"/>
<path vector-effect="non-scaling-stroke" fill-rule="evenodd" d="M393,354 L430,354 L430,355 L393,355 L393,354"/>
<path vector-effect="non-scaling-stroke" fill-rule="evenodd" d="M428,319 L524,319 L524,320 L428,320 L428,319"/>
<path vector-effect="non-scaling-stroke" fill-rule="evenodd" d="M428,354 L524,354 L524,355 L428,355 L428,354"/>
<path vector-effect="non-scaling-stroke" fill-rule="evenodd" d="M524,319 L631,319 L631,320 L524,320 L524,319"/>
<path vector-effect="non-scaling-stroke" fill-rule="evenodd" d="M524,354 L631,354 L631,355 L524,355 L524,354"/>
<path vector-effect="non-scaling-stroke" fill-rule="evenodd" d="M393,354 L430,354 L430,355 L393,355 L393,354"/>
<path vector-effect="non-scaling-stroke" fill-rule="evenodd" d="M393,389 L430,389 L430,390 L393,390 L393,389"/>
<path vector-effect="non-scaling-stroke" fill-rule="evenodd" d="M428,354 L524,354 L524,355 L428,355 L428,354"/>
<path vector-effect="non-scaling-stroke" fill-rule="evenodd" d="M428,389 L524,389 L524,390 L428,390 L428,389"/>
<path vector-effect="non-scaling-stroke" fill-rule="evenodd" d="M524,354 L631,354 L631,355 L524,355 L524,354"/>
<path vector-effect="non-scaling-stroke" fill-rule="evenodd" d="M524,389 L631,389 L631,390 L524,390 L524,389"/>
<path vector-effect="non-scaling-stroke" fill-rule="evenodd" d="M393,389 L430,389 L430,390 L393,390 L393,389"/>
<path vector-effect="non-scaling-stroke" fill-rule="evenodd" d="M393,424 L430,424 L430,425 L393,425 L393,424"/>
<path vector-effect="non-scaling-stroke" fill-rule="evenodd" d="M428,389 L524,389 L524,390 L428,390 L428,389"/>
<path vector-effect="non-scaling-stroke" fill-rule="evenodd" d="M428,424 L524,424 L524,425 L428,425 L428,424"/>
<path vector-effect="non-scaling-stroke" fill-rule="evenodd" d="M524,389 L631,389 L631,390 L524,390 L524,389"/>
<path vector-effect="non-scaling-stroke" fill-rule="evenodd" d="M524,424 L631,424 L631,425 L524,425 L524,424"/>
<path vector-effect="non-scaling-stroke" fill-rule="evenodd" d="M393,424 L430,424 L430,425 L393,425 L393,424"/>
<path vector-effect="non-scaling-stroke" fill-rule="evenodd" d="M428,424 L524,424 L524,425 L428,425 L428,424"/>
<path vector-effect="non-scaling-stroke" fill-rule="evenodd" d="M524,424 L631,424 L631,425 L524,425 L524,424"/>
<path vector-effect="non-scaling-stroke" fill-rule="evenodd" d="M393,8 L429,8 L429,10 L393,10 L393,8"/>
<path vector-effect="non-scaling-stroke" fill-rule="evenodd" d="M393,38 L429,38 L429,40 L393,40 L393,38"/>
<path vector-effect="non-scaling-stroke" fill-rule="evenodd" d="M429,8 L524,8 L524,10 L429,10 L429,8"/>
<path vector-effect="non-scaling-stroke" fill-rule="evenodd" d="M429,38 L524,38 L524,40 L429,40 L429,38"/>
<path vector-effect="non-scaling-stroke" fill-rule="evenodd" d="M524,8 L631,8 L631,10 L524,10 L524,8"/>
<path vector-effect="non-scaling-stroke" fill-rule="evenodd" d="M524,38 L631,38 L631,40 L524,40 L524,38"/>
<path vector-effect="non-scaling-stroke" fill-rule="evenodd" d="M393,38 L430,38 L430,40 L393,40 L393,38"/>
<path vector-effect="non-scaling-stroke" fill-rule="evenodd" d="M428,38 L524,38 L524,40 L428,40 L428,38"/>
<path vector-effect="non-scaling-stroke" fill-rule="evenodd" d="M524,38 L631,38 L631,40 L524,40 L524,38"/>
<path vector-effect="non-scaling-stroke" fill-rule="evenodd" d="M393,459 L430,459 L430,461 L393,461 L393,459"/>
<path vector-effect="non-scaling-stroke" fill-rule="evenodd" d="M428,459 L524,459 L524,461 L428,461 L428,459"/>
<path vector-effect="non-scaling-stroke" fill-rule="evenodd" d="M524,459 L631,459 L631,461 L524,461 L524,459"/>
<path vector-effect="non-scaling-stroke" fill-rule="evenodd" d="M428,38 L430,38 L430,75 L428,75 L428,38"/>
<path vector-effect="non-scaling-stroke" fill-rule="evenodd" d="M428,38 L430,38 L430,75 L428,75 L428,38"/>
<path vector-effect="non-scaling-stroke" fill-rule="evenodd" d="M428,74 L430,74 L430,110 L428,110 L428,74"/>
<path vector-effect="non-scaling-stroke" fill-rule="evenodd" d="M428,74 L430,74 L430,110 L428,110 L428,74"/>
<path vector-effect="non-scaling-stroke" fill-rule="evenodd" d="M428,109 L430,109 L430,145 L428,145 L428,109"/>
<path vector-effect="non-scaling-stroke" fill-rule="evenodd" d="M428,109 L430,109 L430,145 L428,145 L428,109"/>
<path vector-effect="non-scaling-stroke" fill-rule="evenodd" d="M428,144 L430,144 L430,180 L428,180 L428,144"/>
<path vector-effect="non-scaling-stroke" fill-rule="evenodd" d="M428,144 L430,144 L430,180 L428,180 L428,144"/>
<path vector-effect="non-scaling-stroke" fill-rule="evenodd" d="M428,179 L430,179 L430,215 L428,215 L428,179"/>
<path vector-effect="non-scaling-stroke" fill-rule="evenodd" d="M428,179 L430,179 L430,215 L428,215 L428,179"/>
<path vector-effect="non-scaling-stroke" fill-rule="evenodd" d="M428,214 L430,214 L430,250 L428,250 L428,214"/>
<path vector-effect="non-scaling-stroke" fill-rule="evenodd" d="M428,214 L430,214 L430,250 L428,250 L428,214"/>
<path vector-effect="non-scaling-stroke" fill-rule="evenodd" d="M428,249 L430,249 L430,285 L428,285 L428,249"/>
<path vector-effect="non-scaling-stroke" fill-rule="evenodd" d="M428,249 L430,249 L430,285 L428,285 L428,249"/>
<path vector-effect="non-scaling-stroke" fill-rule="evenodd" d="M428,284 L430,284 L430,320 L428,320 L428,284"/>
<path vector-effect="non-scaling-stroke" fill-rule="evenodd" d="M428,284 L430,284 L430,320 L428,320 L428,284"/>
<path vector-effect="non-scaling-stroke" fill-rule="evenodd" d="M428,319 L430,319 L430,355 L428,355 L428,319"/>
<path vector-effect="non-scaling-stroke" fill-rule="evenodd" d="M428,319 L430,319 L430,355 L428,355 L428,319"/>
<path vector-effect="non-scaling-stroke" fill-rule="evenodd" d="M428,354 L430,354 L430,390 L428,390 L428,354"/>
<path vector-effect="non-scaling-stroke" fill-rule="evenodd" d="M428,354 L430,354 L430,390 L428,390 L428,354"/>
<path vector-effect="non-scaling-stroke" fill-rule="evenodd" d="M428,389 L430,389 L430,425 L428,425 L428,389"/>
<path vector-effect="non-scaling-stroke" fill-rule="evenodd" d="M428,389 L430,389 L430,425 L428,425 L428,389"/>
<path vector-effect="non-scaling-stroke" fill-rule="evenodd" d="M428,424 L430,424 L430,461 L428,461 L428,424"/>
<path vector-effect="non-scaling-stroke" fill-rule="evenodd" d="M428,424 L430,424 L430,461 L428,461 L428,424"/>
</g>

<g fill="#333333" fill-opacity="1" stroke="#333333" stroke-opacity="1" stroke-width="1" stroke-linecap="square" stroke-linejoin="bevel" transform="matrix(1,0,0,1,0,0)"
font-family="Arial" font-size="16" font-weight="400" font-style="normal" 
>
<text fill="#333333" fill-opacity="1" stroke="none" xml:space="preserve" x="434" y="29" font-family="Arial" font-size="16" font-weight="400" font-style="normal" 
 >pizzas_sold</text>
<text fill="#333333" fill-opacity="1" stroke="none" xml:space="preserve" x="529" y="29" font-family="Arial" font-size="16" font-weight="400" font-style="normal" 
 >frac_of_quota</text>
<text fill="#333333" fill-opacity="1" stroke="none" xml:space="preserve" x="405" y="62" font-family="Arial" font-size="16" font-weight="400" font-style="normal" 
 >1</text>
<text fill="#333333" fill-opacity="1" stroke="none" xml:space="preserve" x="459" y="62" font-family="Arial" font-size="16" font-weight="400" font-style="normal" 
 >4232</text>
<text fill="#333333" fill-opacity="1" stroke="none" xml:space="preserve" x="572" y="62" font-family="Arial" font-size="16" font-weight="400" font-style="normal" 
 >105.8%</text>
<text fill="#333333" fill-opacity="1" stroke="none" xml:space="preserve" x="405" y="97" font-family="Arial" font-size="16" font-weight="400" font-style="normal" 
 >2</text>
<text fill="#333333" fill-opacity="1" stroke="none" xml:space="preserve" x="459" y="97" font-family="Arial" font-size="16" font-weight="400" font-style="normal" 
 >3961</text>
<text fill="#333333" fill-opacity="1" stroke="none" xml:space="preserve" x="581" y="97" font-family="Arial" font-size="16" font-weight="400" font-style="normal" 
 >99.0%</text>
<text fill="#333333" fill-opacity="1" stroke="none" xml:space="preserve" x="405" y="132" font-family="Arial" font-size="16" font-weight="400" font-style="normal" 
 >3</text>
<text fill="#333333" fill-opacity="1" stroke="none" xml:space="preserve" x="459" y="132" font-family="Arial" font-size="16" font-weight="400" font-style="normal" 
 >4261</text>
<text fill="#333333" fill-opacity="1" stroke="none" xml:space="preserve" x="572" y="132" font-family="Arial" font-size="16" font-weight="400" font-style="normal" 
 >106.5%</text>
<text fill="#333333" fill-opacity="1" stroke="none" xml:space="preserve" x="405" y="167" font-family="Arial" font-size="16" font-weight="400" font-style="normal" 
 >4</text>
<text fill="#333333" fill-opacity="1" stroke="none" xml:space="preserve" x="459" y="167" font-family="Arial" font-size="16" font-weight="400" font-style="normal" 
 >4151</text>
<text fill="#333333" fill-opacity="1" stroke="none" xml:space="preserve" x="572" y="167" font-family="Arial" font-size="16" font-weight="400" font-style="normal" 
 >103.8%</text>
<text fill="#333333" fill-opacity="1" stroke="none" xml:space="preserve" x="405" y="202" font-family="Arial" font-size="16" font-weight="400" font-style="normal" 
 >5</text>
<text fill="#333333" fill-opacity="1" stroke="none" xml:space="preserve" x="459" y="202" font-family="Arial" font-size="16" font-weight="400" font-style="normal" 
 >4328</text>
<text fill="#333333" fill-opacity="1" stroke="none" xml:space="preserve" x="572" y="202" font-family="Arial" font-size="16" font-weight="400" font-style="normal" 
 >108.2%</text>
<text fill="#333333" fill-opacity="1" stroke="none" xml:space="preserve" x="405" y="237" font-family="Arial" font-size="16" font-weight="400" font-style="normal" 
 >6</text>
<text fill="#333333" fill-opacity="1" stroke="none" xml:space="preserve" x="459" y="237" font-family="Arial" font-size="16" font-weight="400" font-style="normal" 
 >4107</text>
<text fill="#333333" fill-opacity="1" stroke="none" xml:space="preserve" x="572" y="237" font-family="Arial" font-size="16" font-weight="400" font-style="normal" 
 >102.7%</text>
<text fill="#333333" fill-opacity="1" stroke="none" xml:space="preserve" x="405" y="272" font-family="Arial" font-size="16" font-weight="400" font-style="normal" 
 >7</text>
<text fill="#333333" fill-opacity="1" stroke="none" xml:space="preserve" x="459" y="272" font-family="Arial" font-size="16" font-weight="400" font-style="normal" 
 >4392</text>
<text fill="#333333" fill-opacity="1" stroke="none" xml:space="preserve" x="572" y="272" font-family="Arial" font-size="16" font-weight="400" font-style="normal" 
 >109.8%</text>
<text fill="#333333" fill-opacity="1" stroke="none" xml:space="preserve" x="405" y="307" font-family="Arial" font-size="16" font-weight="400" font-style="normal" 
 >8</text>
<text fill="#333333" fill-opacity="1" stroke="none" xml:space="preserve" x="459" y="307" font-family="Arial" font-size="16" font-weight="400" font-style="normal" 
 >4168</text>
<text fill="#333333" fill-opacity="1" stroke="none" xml:space="preserve" x="572" y="307" font-family="Arial" font-size="16" font-weight="400" font-style="normal" 
 >104.2%</text>
<text fill="#333333" fill-opacity="1" stroke="none" xml:space="preserve" x="405" y="342" font-family="Arial" font-size="16" font-weight="400" font-style="normal" 
 >9</text>
<text fill="#333333" fill-opacity="1" stroke="none" xml:space="preserve" x="459" y="342" font-family="Arial" font-size="16" font-weight="400" font-style="normal" 
 >3890</text>
<text fill="#333333" fill-opacity="1" stroke="none" xml:space="preserve" x="581" y="342" font-family="Arial" font-size="16" font-weight="400" font-style="normal" 
 >97.2%</text>
<text fill="#333333" fill-opacity="1" stroke="none" xml:space="preserve" x="405" y="377" font-family="Arial" font-size="16" font-weight="400" font-style="normal" 
 >10</text>
<text fill="#333333" fill-opacity="1" stroke="none" xml:space="preserve" x="459" y="377" font-family="Arial" font-size="16" font-weight="400" font-style="normal" 
 >3883</text>
<text fill="#333333" fill-opacity="1" stroke="none" xml:space="preserve" x="581" y="377" font-family="Arial" font-size="16" font-weight="400" font-style="normal" 
 >97.1%</text>
<text fill="#333333" fill-opacity="1" stroke="none" xml:space="preserve" x="405" y="412" font-family="Arial" font-size="16" font-weight="400" font-style="normal" 
 >11</text>
<text fill="#333333" fill-opacity="1" stroke="none" xml:space="preserve" x="459" y="412" font-family="Arial" font-size="16" font-weight="400" font-style="normal" 
 >4266</text>
<text fill="#333333" fill-opacity="1" stroke="none" xml:space="preserve" x="572" y="412" font-family="Arial" font-size="16" font-weight="400" font-style="normal" 
 >106.7%</text>
<text fill="#333333" fill-opacity="1" stroke="none" xml:space="preserve" x="405" y="447" font-family="Arial" font-size="16" font-weight="400" font-style="normal" 
 >12</text>
<text fill="#333333" fill-opacity="1" stroke="none" xml:space="preserve" x="459" y="447" font-family="Arial" font-size="16" font-weight="400" font-style="normal" 
 >3935</text>
<text fill="#333333" fill-opacity="1" stroke="none" xml:space="preserve" x="581" y="447" font-family="Arial" font-size="16" font-weight="400" font-style="normal" 
 >98.4%</text>
</g>
</g>
</svg>
