<?xml version="1.0" encoding="UTF-8" standalone="no"?>
<svg width="361.244mm" height="119.239mm"
 viewBox="0 0 1024 338"
 xmlns="http://www.w3.org/2000/svg" xmlns:xlink="http://www.w3.org/1999/xlink"  version="1.2" baseProfile="tiny">
<title>Qt Svg Document</title>
<desc>Generated with Qt</desc>
<defs>
</defs>
<g fill="none" stroke="black" stroke-width="1" fill-rule="evenodd" stroke-linecap="square" stroke-linejoin="bevel" >

<g fill="#ffffff" fill-opacity="1" stroke="none" transform="matrix(1,0,0,1,0,0)"
font-family="Helvetica" font-size="12" font-weight="400" font-style="normal" 
>
<path vector-effect="non-scaling-stroke" fill-rule="evenodd" d="M0,0 L1024,0 L1024,338 L0,338 L0,0"/>
<path vector-effect="non-scaling-stroke" fill-rule="evenodd" d="M0,0 L1024,0 L1024,338 L0,338 L0,0"/>
<path vector-effect="non-scaling-stroke" fill-rule="evenodd" d="M0,0 L1024,0 L1024,338 L0,338 L0,0"/>
<path vector-effect="non-scaling-stroke" fill-rule="evenodd" d="M312,8 L712,8 L712,330 L312,330 L312,8"/>
<path vector-effect="non-scaling-stroke" fill-rule="evenodd" d="M312,9 L542,9 L542,49 L312,49 L312,9"/>
<path vector-effect="non-scaling-stroke" fill-rule="evenodd" d="M542,9 L712,9 L712,49 L542,49 L542,9"/>
</g>

<g fill="#f2f2f2" fill-opacity="1" stroke="none" transform="matrix(1,0,0,1,0,0)"
font-family="Helvetica" font-size="12" font-weight="400" font-style="normal" 
>
<path vector-effect="non-scaling-stroke" fill-rule="evenodd" d="M312,272 L542,272 L542,329 L312,329 L312,272"/>
<path vector-effect="non-scaling-stroke" fill-rule="evenodd" d="M542,272 L712,272 L712,329 L542,329 L542,272"/>
</g>

<g fill="#a8a8a8" fill-opacity="1" stroke="none" transform="matrix(1,0,0,1,0,0)"
font-family="Helvetica" font-size="12" font-weight="400" font-style="normal" 
>
<path vector-effect="non-scaling-stroke" fill-rule="evenodd" d="M312,8 L542,8 L542,10 L312,10 L312,8"/>
<path vector-effect="non-scaling-stroke" fill-rule="evenodd" d="M542,8 L712,8 L712,10 L542,10 L542,8"/>
<path vector-effect="non-scaling-stroke" fill-rule="evenodd" d="M312,48 L542,48 L542,50 L312,50 L312,48"/>
<path vector-effect="non-scaling-stroke" fill-rule="evenodd" d="M542,48 L712,48 L712,50 L542,50 L542,48"/>
<path vector-effect="non-scaling-stroke" fill-rule="evenodd" d="M312,48 L542,48 L542,50 L312,50 L312,48"/>
<path vector-effect="non-scaling-stroke" fill-rule="evenodd" d="M542,48 L712,48 L712,50 L542,50 L542,48"/>
<path vector-effect="non-scaling-stroke" fill-rule="evenodd" d="M312,328 L542,328 L542,330 L312,330 L312,328"/>
<path vector-effect="non-scaling-stroke" fill-rule="evenodd" d="M542,328 L712,328 L712,330 L542,330 L542,328"/>
</g>

<g fill="#000000" fill-opacity="1" stroke="#000000" stroke-opacity="1" stroke-width="1" stroke-linecap="square" stroke-linejoin="bevel" transform="matrix(1,0,0,1,0,0)"
font-family="Arial" font-size="16" font-weight="400" font-style="normal" 
>
<text fill="#000000" fill-opacity="1" stroke="none" xml:space="preserve" x="322" y="34" font-family="Arial" font-size="16" font-weight="400" font-style="normal" 
 >Markdown</text>
<text fill="#000000" fill-opacity="1" stroke="none" xml:space="preserve" x="552" y="34" font-family="Arial" font-size="16" font-weight="400" font-style="normal" 
 >md</text>
</g>

<g fill="#000000" fill-opacity="1" stroke="#000000" stroke-opacity="1" stroke-width="1" stroke-linecap="square" stroke-linejoin="bevel" transform="matrix(1,0,0,1,0,0)"
font-family="Arial" font-size="19" font-weight="700" font-style="normal" 
>
<text fill="#000000" fill-opacity="1" stroke="none" xml:space="preserve" x="322" y="95" font-family="Arial" font-size="19" font-weight="700" font-style="normal" 
 >This is Markdown.</text>
</g>

<g fill="#000000" fill-opacity="1" stroke="#000000" stroke-opacity="1" stroke-width="1" stroke-linecap="square" stroke-linejoin="bevel" transform="matrix(1,0,0,1,0,0)"
font-family="Arial" font-size="16" font-weight="400" font-style="normal" 
>
<text fill="#000000" fill-opacity="1" stroke="none" xml:space="preserve" x="322" y="132" font-family="Arial" font-size="16" font-weight="400" font-style="normal" 
 >Markdown’s syntax is</text>
<text fill="#000000" fill-opacity="1" stroke="none" xml:space="preserve" x="322" y="150" font-family="Arial" font-size="16" font-weight="400" font-style="normal" 
 >comprised entirely of</text>
<text fill="#000000" fill-opacity="1" stroke="none" xml:space="preserve" x="322" y="168" font-family="Arial" font-size="16" font-weight="400" font-style="normal" 
 >punctuation characters,</text>
<text fill="#000000" fill-opacity="1" stroke="none" xml:space="preserve" x="322" y="186" font-family="Arial" font-size="16" font-weight="400" font-style="normal" 
 >which punctuation characters</text>
<text fill="#000000" fill-opacity="1" stroke="none" xml:space="preserve" x="322" y="204" font-family="Arial" font-size="16" font-weight="400" font-style="normal" 
 >have been carefully chosen</text>
<text fill="#000000" fill-opacity="1" stroke="none" xml:space="preserve" x="322" y="222" font-family="Arial" font-size="16" font-weight="400" font-style="normal" 
 >so as to look like what they</text>
<text fill="#000000" fill-opacity="1" stroke="none" xml:space="preserve" x="322" y="240" font-family="Arial" font-size="16" font-weight="400" font-style="normal" 
 >mean... assuming you’ve</text>
<text fill="#000000" fill-opacity="1" stroke="none" xml:space="preserve" x="322" y="258" font-family="Arial" font-size="16" font-weight="400" font-style="normal" 
 >ever used email.</text>
<text fill="#000000" fill-opacity="1" stroke="none" xml:space="preserve" x="552" y="84" font-family="Arial" font-size="16" font-weight="400" font-style="normal" 
 >The </text>
</g>

<g fill="#000000" fill-opacity="1" stroke="#000000" stroke-opacity="1" stroke-width="1" stroke-linecap="square" stroke-linejoin="bevel" transform="matrix(1,0,0,1,0,0)"
font-family="Arial" font-size="16" font-weight="700" font-style="normal" 
>
<text fill="#000000" fill-opacity="1" stroke="none" xml:space="preserve" x="584" y="84" font-family="Arial" font-size="16" font-weight="700" font-style="normal" 
 >gt</text>
</g>

<g fill="#000000" fill-opacity="1" stroke="#000000" stroke-opacity="1" stroke-width="1" stroke-linecap="square" stroke-linejoin="bevel" transform="matrix(1,0,0,1,0,0)"
font-family="Arial" font-size="16" font-weight="400" font-style="normal" 
>
<text fill="#000000" fill-opacity="1" stroke="none" xml:space="preserve" x="599" y="84" font-family="Arial" font-size="16" font-weight="400" font-style="normal" 
 > package has</text>
<text fill="#000000" fill-opacity="1" stroke="none" xml:space="preserve" x="552" y="102" font-family="Arial" font-size="16" font-weight="400" font-style="normal" 
 >these datasets:</text>
</g>

<g fill="#000000" fill-opacity="1" stroke="#000000" stroke-opacity="1" stroke-width="1" stroke-linecap="square" stroke-linejoin="miter" stroke-miterlimit="2" transform="matrix(1,0,0,1,0,0)"
font-family="Arial" font-size="16" font-weight="400" font-style="normal" 
>
<path vector-effect="none" fill-rule="evenodd" d="M581,131.5 C581,132.881 579.881,134 578.5,134 C577.119,134 576,132.881 576,131.5 C576,130.119 577.119,129 578.5,129 C579.881,129 581,130.119 581,131.5 "/>
</g>

<g fill="#000000" fill-opacity="1" stroke="#000000" stroke-opacity="1" stroke-width="1" stroke-linecap="square" stroke-linejoin="bevel" transform="matrix(1,0,0,1,0,0)"
font-family="Courier New" font-size="16" font-weight="400" font-style="normal" 
>
<text fill="#000000" fill-opacity="1" stroke="none" xml:space="preserve" x="592" y="136" font-family="Courier New" font-size="16" font-weight="400" font-style="normal" 
 >countrypops</text>
</g>

<g fill="#000000" fill-opacity="1" stroke="#000000" stroke-opacity="1" stroke-width="1" stroke-linecap="square" stroke-linejoin="miter" stroke-miterlimit="2" transform="matrix(1,0,0,1,0,0)"
font-family="Courier New" font-size="16" font-weight="400" font-style="normal" 
>
<path vector-effect="none" fill-rule="evenodd" d="M581,150.5 C581,151.881 579.881,153 578.5,153 C577.119,153 576,151.881 576,150.5 C576,149.119 577.119,148 578.5,148 C579.881,148 581,149.119 581,150.5 "/>
</g>

<g fill="#000000" fill-opacity="1" stroke="#000000" stroke-opacity="1" stroke-width="1" stroke-linecap="square" stroke-linejoin="bevel" transform="matrix(1,0,0,1,0,0)"
font-family="Courier New" font-size="16" font-weight="400" font-style="normal" 
>
<text fill="#000000" fill-opacity="1" stroke="none" xml:space="preserve" x="592" y="155" font-family="Courier New" font-size="16" font-weight="400" font-style="normal" 
 >sza</text>
</g>

<g fill="#000000" fill-opacity="1" stroke="#000000" stroke-opacity="1" stroke-width="1" stroke-linecap="square" stroke-linejoin="miter" stroke-miterlimit="2" transform="matrix(1,0,0,1,0,0)"
font-family="Courier New" font-size="16" font-weight="400" font-style="normal" 
>
<path vector-effect="none" fill-rule="evenodd" d="M581,169.5 C581,170.881 579.881,172 578.5,172 C577.119,172 576,170.881 576,169.5 C576,168.119 577.119,167 578.5,167 C579.881,167 581,168.119 581,169.5 "/>
</g>

<g fill="#000000" fill-opacity="1" stroke="#000000" stroke-opacity="1" stroke-width="1" stroke-linecap="square" stroke-linejoin="bevel" transform="matrix(1,0,0,1,0,0)"
font-family="Courier New" font-size="16" font-weight="400" font-style="normal" 
>
<text fill="#000000" fill-opacity="1" stroke="none" xml:space="preserve" x="592" y="174" font-family="Courier New" font-size="16" font-weight="400" font-style="normal" 
 >gtcars</text>
</g>

<g fill="#000000" fill-opacity="1" stroke="#000000" stroke-opacity="1" stroke-width="1" stroke-linecap="square" stroke-linejoin="miter" stroke-miterlimit="2" transform="matrix(1,0,0,1,0,0)"
font-family="Courier New" font-size="16" font-weight="400" font-style="normal" 
>
<path vector-effect="none" fill-rule="evenodd" d="M581,188.5 C581,189.881 579.881,191 578.5,191 C577.119,191 576,189.881 576,188.5 C576,187.119 577.119,186 578.5,186 C579.881,186 581,187.119 581,188.5 "/>
</g>

<g fill="#000000" fill-opacity="1" stroke="#000000" stroke-opacity="1" stroke-width="1" stroke-linecap="square" stroke-linejoin="bevel" transform="matrix(1,0,0,1,0,0)"
font-family="Courier New" font-size="16" font-weight="400" font-style="normal" 
>
<text fill="#000000" fill-opacity="1" stroke="none" xml:space="preserve" x="592" y="193" font-family="Courier New" font-size="16" font-weight="400" font-style="normal" 
 >sp500</text>
</g>

<g fill="#000000" fill-opacity="1" stroke="#000000" stroke-opacity="1" stroke-width="1" stroke-linecap="square" stroke-linejoin="miter" stroke-miterlimit="2" transform="matrix(1,0,0,1,0,0)"
font-family="Courier New" font-size="16" font-weight="400" font-style="normal" 
>
<path vector-effect="none" fill-rule="evenodd" d="M581,207.5 C581,208.881 579.881,210 578.5,210 C577.119,210 576,208.881 576,207.5 C576,206.119 577.119,205 578.5,205 C579.881,205 581,206.119 581,207.5 "/>
</g>

<g fill="#000000" fill-opacity="1" stroke="#000000" stroke-opacity="1" stroke-width="1" stroke-linecap="square" stroke-linejoin="bevel" transform="matrix(1,0,0,1,0,0)"
font-family="Courier New" font-size="16" font-weight="400" font-style="normal" 
>
<text fill="#000000" fill-opacity="1" stroke="none" xml:space="preserve" x="592" y="212" font-family="Courier New" font-size="16" font-weight="400" font-style="normal" 
 >pizzaplace</text>
</g>

<g fill="#000000" fill-opacity="1" stroke="#000000" stroke-opacity="1" stroke-width="1" stroke-linecap="square" stroke-linejoin="miter" stroke-miterlimit="2" transform="matrix(1,0,0,1,0,0)"
font-family="Courier New" font-size="16" font-weight="400" font-style="normal" 
>
<path vector-effect="none" fill-rule="evenodd" d="M581,226.5 C581,227.881 579.881,229 578.5,229 C577.119,229 576,227.881 576,226.5 C576,225.119 577.119,224 578.5,224 C579.881,224 581,225.119 581,226.5 "/>
</g>

<g fill="#000000" fill-opacity="1" stroke="#000000" stroke-opacity="1" stroke-width="1" stroke-linecap="square" stroke-linejoin="bevel" transform="matrix(1,0,0,1,0,0)"
font-family="Courier New" font-size="16" font-weight="400" font-style="normal" 
>
<text fill="#000000" fill-opacity="1" stroke="none" xml:space="preserve" x="592" y="231" font-family="Courier New" font-size="16" font-weight="400" font-style="normal" 
 >exibble</text>
</g>

<g fill="#000000" fill-opacity="1" stroke="#000000" stroke-opacity="1" stroke-width="1" stroke-linecap="square" stroke-linejoin="bevel" transform="matrix(1,0,0,1,0,0)"
font-family="Arial" font-size="16" font-weight="400" font-style="normal" 
>
<text fill="#000000" fill-opacity="1" stroke="none" xml:space="preserve" x="322" y="296" font-family="Arial" font-size="16" font-weight="400" font-style="normal" 
 >Info on Markdown syntax can</text>
<text fill="#000000" fill-opacity="1" stroke="none" xml:space="preserve" x="322" y="314" font-family="Arial" font-size="16" font-weight="400" font-style="normal" 
 >be found </text>
</g>

<g fill="#0000ee" fill-opacity="1" stroke="#0000ee" stroke-opacity="1" stroke-width="1" stroke-linecap="square" stroke-linejoin="bevel" transform="matrix(1,0,0,1,0,0)"
font-family="Arial" font-size="16" font-weight="400" font-style="normal" 
>
<text fill="#0000ee" fill-opacity="1" stroke="none" xml:space="preserve" x="388" y="314" font-family="Arial" font-size="16" font-weight="400" font-style="normal" 
 >here</text>
</g>

<g fill="#000000" fill-opacity="1" stroke="#000000" stroke-opacity="1" stroke-width="1" stroke-linecap="square" stroke-linejoin="bevel" transform="matrix(1,0,0,1,0,0)"
font-family="Arial" font-size="16" font-weight="400" font-style="normal" 
>
<text fill="#000000" fill-opacity="1" stroke="none" xml:space="preserve" x="420" y="314" font-family="Arial" font-size="16" font-weight="400" font-style="normal" 
 >.</text>
<text fill="#000000" fill-opacity="1" stroke="none" xml:space="preserve" x="552" y="296" font-family="Arial" font-size="16" font-weight="400" font-style="normal" 
 >There's a quick</text>
<text fill="#000000" fill-opacity="1" stroke="none" xml:space="preserve" x="552" y="314" font-family="Arial" font-size="16" font-weight="400" font-style="normal" 
 >reference </text>
</g>

<g fill="#0000ee" fill-opacity="1" stroke="#0000ee" stroke-opacity="1" stroke-width="1" stroke-linecap="square" stroke-linejoin="bevel" transform="matrix(1,0,0,1,0,0)"
font-family="Arial" font-size="16" font-weight="400" font-style="normal" 
>
<text fill="#0000ee" fill-opacity="1" stroke="none" xml:space="preserve" x="623" y="314" font-family="Arial" font-size="16" font-weight="400" font-style="normal" 
 >here</text>
</g>

<g fill="#000000" fill-opacity="1" stroke="#000000" stroke-opacity="1" stroke-width="1" stroke-linecap="square" stroke-linejoin="bevel" transform="matrix(1,0,0,1,0,0)"
font-family="Arial" font-size="16" font-weight="400" font-style="normal" 
>
<text fill="#000000" fill-opacity="1" stroke="none" xml:space="preserve" x="655" y="314" font-family="Arial" font-size="16" font-weight="400" font-style="normal" 
 >.</text>
</g>
</g>
</svg>
