<?xml version="1.0" encoding="UTF-8" standalone="no"?>
<svg width="361.244mm" height="121.356mm"
 viewBox="0 0 1024 344"
 xmlns="http://www.w3.org/2000/svg" xmlns:xlink="http://www.w3.org/1999/xlink"  version="1.2" baseProfile="tiny">
<title>Qt Svg Document</title>
<desc>Generated with Qt</desc>
<defs>
<linearGradient gradientUnits="userSpaceOnUse" x1="0" y1="0" x2="1" y2="1" id="gradient1">
    <stop offset="1e-07" stop-color="#cbced0" stop-opacity="1" />
    <stop offset="1" stop-color="#84838b" stop-opacity="1" />
</linearGradient>
<linearGradient gradientUnits="userSpaceOnUse" x1="0" y1="0" x2="1" y2="1" id="gradient2">
    <stop offset="1e-07" stop-color="#276dc3" stop-opacity="1" />
    <stop offset="1" stop-color="#165caa" stop-opacity="1" />
</linearGradient>
<linearGradient gradientUnits="userSpaceOnUse" x1="0" y1="0" x2="1" y2="1" id="gradient3">
    <stop offset="1e-07" stop-color="#cbced0" stop-opacity="1" />
    <stop offset="1" stop-color="#84838b" stop-opacity="1" />
</linearGradient>
<linearGradient gradientUnits="userSpaceOnUse" x1="0" y1="0" x2="1" y2="1" id="gradient4">
    <stop offset="1e-07" stop-color="#276dc3" stop-opacity="1" />
    <stop offset="1" stop-color="#165caa" stop-opacity="1" />
</linearGradient>
<linearGradient gradientUnits="userSpaceOnUse" x1="0" y1="0" x2="1" y2="1" id="gradient5">
    <stop offset="1e-07" stop-color="#cbced0" stop-opacity="1" />
    <stop offset="1" stop-color="#84838b" stop-opacity="1" />
</linearGradient>
<linearGradient gradientUnits="userSpaceOnUse" x1="0" y1="0" x2="1" y2="1" id="gradient6">
    <stop offset="1e-07" stop-color="#276dc3" stop-opacity="1" />
    <stop offset="1" stop-color="#165caa" stop-opacity="1" />
</linearGradient>
<linearGradient gradientUnits="userSpaceOnUse" x1="0" y1="0" x2="1" y2="1" id="gradient7">
    <stop offset="1e-07" stop-color="#cbced0" stop-opacity="1" />
    <stop offset="1" stop-color="#84838b" stop-opacity="1" />
</linearGradient>
<linearGradient gradientUnits="userSpaceOnUse" x1="0" y1="0" x2="1" y2="1" id="gradient8">
    <stop offset="1e-07" stop-color="#276dc3" stop-opacity="1" />
    <stop offset="1" stop-color="#165caa" stop-opacity="1" />
</linearGradient>
<linearGradient gradientUnits="userSpaceOnUse" x1="0" y1="0" x2="1" y2="1" id="gradient9">
    <stop offset="1e-07" stop-color="#cbced0" stop-opacity="1" />
    <stop offset="1" stop-color="#84838b" stop-opacity="1" />
</linearGradient>
<linearGradient gradientUnits="userSpaceOnUse" x1="0" y1="0" x2="1" y2="1" id="gradient10">
    <stop offset="1e-07" stop-color="#276dc3" stop-opacity="1" />
    <stop offset="1" stop-color="#165caa" stop-opacity="1" />
</linearGradient>
<linearGradient gradientUnits="userSpaceOnUse" x1="0" y1="0" x2="1" y2="1" id="gradient11">
    <stop offset="1e-07" stop-color="#cbced0" stop-opacity="1" />
    <stop offset="1" stop-color="#84838b" stop-opacity="1" />
</linearGradient>
<linearGradient gradientUnits="userSpaceOnUse" x1="0" y1="0" x2="1" y2="1" id="gradient12">
    <stop offset="1e-07" stop-color="#276dc3" stop-opacity="1" />
    <stop offset="1" stop-color="#165caa" stop-opacity="1" />
</linearGradient>
</defs>
<g fill="none" stroke="black" stroke-width="1" fill-rule="evenodd" stroke-linecap="square" stroke-linejoin="bevel" >

<g fill="#ffffff" fill-opacity="1" stroke="none" transform="matrix(1,0,0,1,0,0)"
font-family="Helvetica" font-size="12" font-weight="400" font-style="normal" 
>
<path vector-effect="non-scaling-stroke" fill-rule="evenodd" d="M0,0 L1024,0 L1024,344 L0,344 L0,0"/>
<path vector-effect="non-scaling-stroke" fill-rule="evenodd" d="M0,0 L1024,0 L1024,344 L0,344 L0,0"/>
<path vector-effect="non-scaling-stroke" fill-rule="evenodd" d="M0,0 L1024,0 L1024,344 L0,344 L0,0"/>
<path vector-effect="non-scaling-stroke" fill-rule="evenodd" d="M442,8 L582,8 L582,336 L442,336 L442,8"/>
<path vector-effect="non-scaling-stroke" fill-rule="evenodd" d="M442,9 L582,9 L582,73 L442,73 L442,9"/>
<path vector-effect="non-scaling-stroke" fill-rule="evenodd" d="M442,73 L582,73 L582,94 L442,94 L442,73"/>
<path vector-effect="non-scaling-stroke" fill-rule="evenodd" d="M442,94 L510,94 L510,124 L442,124 L442,94"/>
<path vector-effect="non-scaling-stroke" fill-rule="evenodd" d="M510,94 L582,94 L582,124 L510,124 L510,94"/>
</g>

<g fill="#d3d3d3" fill-opacity="1" stroke="none" transform="matrix(1,0,0,1,0,0)"
font-family="Helvetica" font-size="12" font-weight="400" font-style="normal" 
>
<path vector-effect="non-scaling-stroke" fill-rule="evenodd" d="M442,159 L510,159 L510,160 L442,160 L442,159"/>
<path vector-effect="non-scaling-stroke" fill-rule="evenodd" d="M510,159 L582,159 L582,160 L510,160 L510,159"/>
<path vector-effect="non-scaling-stroke" fill-rule="evenodd" d="M442,159 L510,159 L510,160 L442,160 L442,159"/>
<path vector-effect="non-scaling-stroke" fill-rule="evenodd" d="M442,194 L510,194 L510,195 L442,195 L442,194"/>
<path vector-effect="non-scaling-stroke" fill-rule="evenodd" d="M510,159 L582,159 L582,160 L510,160 L510,159"/>
<path vector-effect="non-scaling-stroke" fill-rule="evenodd" d="M510,194 L582,194 L582,195 L510,195 L510,194"/>
<path vector-effect="non-scaling-stroke" fill-rule="evenodd" d="M442,194 L510,194 L510,195 L442,195 L442,194"/>
<path vector-effect="non-scaling-stroke" fill-rule="evenodd" d="M442,229 L510,229 L510,230 L442,230 L442,229"/>
<path vector-effect="non-scaling-stroke" fill-rule="evenodd" d="M510,194 L582,194 L582,195 L510,195 L510,194"/>
<path vector-effect="non-scaling-stroke" fill-rule="evenodd" d="M510,229 L582,229 L582,230 L510,230 L510,229"/>
<path vector-effect="non-scaling-stroke" fill-rule="evenodd" d="M442,229 L510,229 L510,230 L442,230 L442,229"/>
<path vector-effect="non-scaling-stroke" fill-rule="evenodd" d="M442,264 L510,264 L510,265 L442,265 L442,264"/>
<path vector-effect="non-scaling-stroke" fill-rule="evenodd" d="M510,229 L582,229 L582,230 L510,230 L510,229"/>
<path vector-effect="non-scaling-stroke" fill-rule="evenodd" d="M510,264 L582,264 L582,265 L510,265 L510,264"/>
<path vector-effect="non-scaling-stroke" fill-rule="evenodd" d="M442,264 L510,264 L510,265 L442,265 L442,264"/>
<path vector-effect="non-scaling-stroke" fill-rule="evenodd" d="M442,299 L510,299 L510,300 L442,300 L442,299"/>
<path vector-effect="non-scaling-stroke" fill-rule="evenodd" d="M510,264 L582,264 L582,265 L510,265 L510,264"/>
<path vector-effect="non-scaling-stroke" fill-rule="evenodd" d="M510,299 L582,299 L582,300 L510,300 L510,299"/>
<path vector-effect="non-scaling-stroke" fill-rule="evenodd" d="M442,299 L510,299 L510,300 L442,300 L442,299"/>
<path vector-effect="non-scaling-stroke" fill-rule="evenodd" d="M510,299 L582,299 L582,300 L510,300 L510,299"/>
</g>

<g fill="#a8a8a8" fill-opacity="1" stroke="none" transform="matrix(1,0,0,1,0,0)"
font-family="Helvetica" font-size="12" font-weight="400" font-style="normal" 
>
<path vector-effect="non-scaling-stroke" fill-rule="evenodd" d="M442,8 L582,8 L582,10 L442,10 L442,8"/>
<path vector-effect="non-scaling-stroke" fill-rule="evenodd" d="M442,334 L510,334 L510,336 L442,336 L442,334"/>
<path vector-effect="non-scaling-stroke" fill-rule="evenodd" d="M510,334 L582,334 L582,336 L510,336 L510,334"/>
</g>

<g fill="#d3d3d3" fill-opacity="1" stroke="none" transform="matrix(1,0,0,1,0,0)"
font-family="Helvetica" font-size="12" font-weight="400" font-style="normal" 
>
<path vector-effect="non-scaling-stroke" fill-rule="evenodd" d="M442,93 L582,93 L582,95 L442,95 L442,93"/>
<path vector-effect="non-scaling-stroke" fill-rule="evenodd" d="M442,93 L510,93 L510,95 L442,95 L442,93"/>
<path vector-effect="non-scaling-stroke" fill-rule="evenodd" d="M442,123 L510,123 L510,125 L442,125 L442,123"/>
<path vector-effect="non-scaling-stroke" fill-rule="evenodd" d="M510,93 L582,93 L582,95 L510,95 L510,93"/>
<path vector-effect="non-scaling-stroke" fill-rule="evenodd" d="M510,123 L582,123 L582,125 L510,125 L510,123"/>
<path vector-effect="non-scaling-stroke" fill-rule="evenodd" d="M442,123 L510,123 L510,125 L442,125 L442,123"/>
<path vector-effect="non-scaling-stroke" fill-rule="evenodd" d="M510,123 L582,123 L582,125 L510,125 L510,123"/>
</g>

<g fill="#333333" fill-opacity="1" stroke="#333333" stroke-opacity="1" stroke-width="1" stroke-linecap="square" stroke-linejoin="bevel" transform="matrix(1,0,0,1,0,0)"
font-family="Arial" font-size="20" font-weight="700" font-style="normal" 
>
<text fill="#333333" fill-opacity="1" stroke="none" xml:space="preserve" x="443" y="64" font-family="Arial" font-size="20" font-weight="700" font-style="normal" 
 >R Logo</text>
</g>

<g fill="#333333" fill-opacity="1" stroke="#333333" stroke-opacity="1" stroke-width="1" stroke-linecap="square" stroke-linejoin="bevel" transform="matrix(1,0,0,1,0,0)"
font-family="Arial" font-size="20" font-weight="400" font-style="normal" 
>
<text fill="#333333" fill-opacity="1" stroke="none" xml:space="preserve" x="511" y="64" font-family="Arial" font-size="20" font-weight="400" font-style="normal" 
 > </text>
</g>

<g fill="url(#gradient1)" stroke="none" transform="matrix(0.0883978,0,0,0.0891266,517,14)"
font-family="Arial" font-size="20" font-weight="400" font-style="normal" 
>
<path vector-effect="non-scaling-stroke" fill-rule="evenodd" d="M361.453,485.937 C162.329,485.937 0.906,377.828 0.906,244.469 C0.906,111.109 162.329,3 361.453,3 C560.578,3 722,111.109 722,244.469 C722,377.828 560.578,485.937 361.453,485.937 M416.641,97.406 C265.289,97.406 142.594,171.314 142.594,262.484 C142.594,353.654 265.289,427.562 416.641,427.562 C567.992,427.562 679.687,377.033 679.687,262.484 C679.687,147.971 567.992,97.406 416.641,97.406 "/>
</g>

<g fill="url(#gradient2)" stroke="none" transform="matrix(0.0883978,0,0,0.0891266,517,14)"
font-family="Arial" font-size="20" font-weight="400" font-style="normal" 
>
<path vector-effect="non-scaling-stroke" fill-rule="evenodd" d="M550,377 C550,377 571.822,383.585 584.5,390 C588.899,392.226 596.51,396.668 602,402.5 C607.378,408.212 610,414 610,414 L696,559 L557,559.062 L492,437 C492,437 478.69,414.131 470.5,407.5 C463.668,401.969 460.755,400 454,400 C449.298,400 420.974,400 420.974,400 L421,558.974 L298,559.026 L298,152.938 L545,152.938 C545,152.938 657.5,154.967 657.5,262 C657.5,369.033 550,377 550,377 M496.5,241.024 L422.037,240.976 L422,310.026 L496.5,310.002 C496.5,310.002 531,309.895 531,274.877 C531,239.155 496.5,241.024 496.5,241.024 "/>
</g>

<g fill="url(#gradient3)" stroke="none" transform="matrix(0.0207182,0,0,0.0213904,467,74)"
font-family="Arial" font-size="20" font-weight="400" font-style="normal" 
>
<path vector-effect="non-scaling-stroke" fill-rule="evenodd" d="M361.453,485.937 C162.329,485.937 0.906,377.828 0.906,244.469 C0.906,111.109 162.329,3 361.453,3 C560.578,3 722,111.109 722,244.469 C722,377.828 560.578,485.937 361.453,485.937 M416.641,97.406 C265.289,97.406 142.594,171.314 142.594,262.484 C142.594,353.654 265.289,427.562 416.641,427.562 C567.992,427.562 679.687,377.033 679.687,262.484 C679.687,147.971 567.992,97.406 416.641,97.406 "/>
</g>

<g fill="url(#gradient4)" stroke="none" transform="matrix(0.0207182,0,0,0.0213904,467,74)"
font-family="Arial" font-size="20" font-weight="400" font-style="normal" 
>
<path vector-effect="non-scaling-stroke" fill-rule="evenodd" d="M550,377 C550,377 571.822,383.585 584.5,390 C588.899,392.226 596.51,396.668 602,402.5 C607.378,408.212 610,414 610,414 L696,559 L557,559.062 L492,437 C492,437 478.69,414.131 470.5,407.5 C463.668,401.969 460.755,400 454,400 C449.298,400 420.974,400 420.974,400 L421,558.974 L298,559.026 L298,152.938 L545,152.938 C545,152.938 657.5,154.967 657.5,262 C657.5,369.033 550,377 550,377 M496.5,241.024 L422.037,240.976 L422,310.026 L496.5,310.002 C496.5,310.002 531,309.895 531,274.877 C531,239.155 496.5,241.024 496.5,241.024 "/>
</g>

<g fill="#333333" fill-opacity="1" stroke="#333333" stroke-opacity="1" stroke-width="1" stroke-linecap="square" stroke-linejoin="bevel" transform="matrix(1,0,0,1,0,0)"
font-family="Arial" font-size="14" font-weight="400" font-style="normal" 
>
<text fill="#333333" fill-opacity="1" stroke="none" xml:space="preserve" x="481.5" y="86" font-family="Arial" font-size="14" font-weight="400" font-style="normal" 
 > </text>
</g>

<g fill="url(#gradient5)" stroke="none" transform="matrix(0.0207182,0,0,0.0213904,486,74)"
font-family="Arial" font-size="14" font-weight="400" font-style="normal" 
>
<path vector-effect="non-scaling-stroke" fill-rule="evenodd" d="M361.453,485.937 C162.329,485.937 0.906,377.828 0.906,244.469 C0.906,111.109 162.329,3 361.453,3 C560.578,3 722,111.109 722,244.469 C722,377.828 560.578,485.937 361.453,485.937 M416.641,97.406 C265.289,97.406 142.594,171.314 142.594,262.484 C142.594,353.654 265.289,427.562 416.641,427.562 C567.992,427.562 679.687,377.033 679.687,262.484 C679.687,147.971 567.992,97.406 416.641,97.406 "/>
</g>

<g fill="url(#gradient6)" stroke="none" transform="matrix(0.0207182,0,0,0.0213904,486,74)"
font-family="Arial" font-size="14" font-weight="400" font-style="normal" 
>
<path vector-effect="non-scaling-stroke" fill-rule="evenodd" d="M550,377 C550,377 571.822,383.585 584.5,390 C588.899,392.226 596.51,396.668 602,402.5 C607.378,408.212 610,414 610,414 L696,559 L557,559.062 L492,437 C492,437 478.69,414.131 470.5,407.5 C463.668,401.969 460.755,400 454,400 C449.298,400 420.974,400 420.974,400 L421,558.974 L298,559.026 L298,152.938 L545,152.938 C545,152.938 657.5,154.967 657.5,262 C657.5,369.033 550,377 550,377 M496.5,241.024 L422.037,240.976 L422,310.026 L496.5,310.002 C496.5,310.002 531,309.895 531,274.877 C531,239.155 496.5,241.024 496.5,241.024 "/>
</g>

<g fill="#333333" fill-opacity="1" stroke="#333333" stroke-opacity="1" stroke-width="1" stroke-linecap="square" stroke-linejoin="bevel" transform="matrix(1,0,0,1,0,0)"
font-family="Arial" font-size="14" font-weight="400" font-style="normal" 
>
<text fill="#333333" fill-opacity="1" stroke="none" xml:space="preserve" x="500.5" y="86" font-family="Arial" font-size="14" font-weight="400" font-style="normal" 
 > </text>
</g>

<g fill="url(#gradient7)" stroke="none" transform="matrix(0.0207182,0,0,0.0213904,505,74)"
font-family="Arial" font-size="14" font-weight="400" font-style="normal" 
>
<path vector-effect="non-scaling-stroke" fill-rule="evenodd" d="M361.453,485.937 C162.329,485.937 0.906,377.828 0.906,244.469 C0.906,111.109 162.329,3 361.453,3 C560.578,3 722,111.109 722,244.469 C722,377.828 560.578,485.937 361.453,485.937 M416.641,97.406 C265.289,97.406 142.594,171.314 142.594,262.484 C142.594,353.654 265.289,427.562 416.641,427.562 C567.992,427.562 679.687,377.033 679.687,262.484 C679.687,147.971 567.992,97.406 416.641,97.406 "/>
</g>

<g fill="url(#gradient8)" stroke="none" transform="matrix(0.0207182,0,0,0.0213904,505,74)"
font-family="Arial" font-size="14" font-weight="400" font-style="normal" 
>
<path vector-effect="non-scaling-stroke" fill-rule="evenodd" d="M550,377 C550,377 571.822,383.585 584.5,390 C588.899,392.226 596.51,396.668 602,402.5 C607.378,408.212 610,414 610,414 L696,559 L557,559.062 L492,437 C492,437 478.69,414.131 470.5,407.5 C463.668,401.969 460.755,400 454,400 C449.298,400 420.974,400 420.974,400 L421,558.974 L298,559.026 L298,152.938 L545,152.938 C545,152.938 657.5,154.967 657.5,262 C657.5,369.033 550,377 550,377 M496.5,241.024 L422.037,240.976 L422,310.026 L496.5,310.002 C496.5,310.002 531,309.895 531,274.877 C531,239.155 496.5,241.024 496.5,241.024 "/>
</g>

<g fill="#333333" fill-opacity="1" stroke="#333333" stroke-opacity="1" stroke-width="1" stroke-linecap="square" stroke-linejoin="bevel" transform="matrix(1,0,0,1,0,0)"
font-family="Arial" font-size="14" font-weight="400" font-style="normal" 
>
<text fill="#333333" fill-opacity="1" stroke="none" xml:space="preserve" x="519.5" y="86" font-family="Arial" font-size="14" font-weight="400" font-style="normal" 
 > </text>
</g>

<g fill="url(#gradient9)" stroke="none" transform="matrix(0.0207182,0,0,0.0213904,524,74)"
font-family="Arial" font-size="14" font-weight="400" font-style="normal" 
>
<path vector-effect="non-scaling-stroke" fill-rule="evenodd" d="M361.453,485.937 C162.329,485.937 0.906,377.828 0.906,244.469 C0.906,111.109 162.329,3 361.453,3 C560.578,3 722,111.109 722,244.469 C722,377.828 560.578,485.937 361.453,485.937 M416.641,97.406 C265.289,97.406 142.594,171.314 142.594,262.484 C142.594,353.654 265.289,427.562 416.641,427.562 C567.992,427.562 679.687,377.033 679.687,262.484 C679.687,147.971 567.992,97.406 416.641,97.406 "/>
</g>

<g fill="url(#gradient10)" stroke="none" transform="matrix(0.0207182,0,0,0.0213904,524,74)"
font-family="Arial" font-size="14" font-weight="400" font-style="normal" 
>
<path vector-effect="non-scaling-stroke" fill-rule="evenodd" d="M550,377 C550,377 571.822,383.585 584.5,390 C588.899,392.226 596.51,396.668 602,402.5 C607.378,408.212 610,414 610,414 L696,559 L557,559.062 L492,437 C492,437 478.69,414.131 470.5,407.5 C463.668,401.969 460.755,400 454,400 C449.298,400 420.974,400 420.974,400 L421,558.974 L298,559.026 L298,152.938 L545,152.938 C545,152.938 657.5,154.967 657.5,262 C657.5,369.033 550,377 550,377 M496.5,241.024 L422.037,240.976 L422,310.026 L496.5,310.002 C496.5,310.002 531,309.895 531,274.877 C531,239.155 496.5,241.024 496.5,241.024 "/>
</g>

<g fill="#333333" fill-opacity="1" stroke="#333333" stroke-opacity="1" stroke-width="1" stroke-linecap="square" stroke-linejoin="bevel" transform="matrix(1,0,0,1,0,0)"
font-family="Arial" font-size="14" font-weight="400" font-style="normal" 
>
<text fill="#333333" fill-opacity="1" stroke="none" xml:space="preserve" x="538.5" y="86" font-family="Arial" font-size="14" font-weight="400" font-style="normal" 
 > </text>
</g>

<g fill="url(#gradient11)" stroke="none" transform="matrix(0.0207182,0,0,0.0213904,543,74)"
font-family="Arial" font-size="14" font-weight="400" font-style="normal" 
>
<path vector-effect="non-scaling-stroke" fill-rule="evenodd" d="M361.453,485.937 C162.329,485.937 0.906,377.828 0.906,244.469 C0.906,111.109 162.329,3 361.453,3 C560.578,3 722,111.109 722,244.469 C722,377.828 560.578,485.937 361.453,485.937 M416.641,97.406 C265.289,97.406 142.594,171.314 142.594,262.484 C142.594,353.654 265.289,427.562 416.641,427.562 C567.992,427.562 679.687,377.033 679.687,262.484 C679.687,147.971 567.992,97.406 416.641,97.406 "/>
</g>

<g fill="url(#gradient12)" stroke="none" transform="matrix(0.0207182,0,0,0.0213904,543,74)"
font-family="Arial" font-size="14" font-weight="400" font-style="normal" 
>
<path vector-effect="non-scaling-stroke" fill-rule="evenodd" d="M550,377 C550,377 571.822,383.585 584.5,390 C588.899,392.226 596.51,396.668 602,402.5 C607.378,408.212 610,414 610,414 L696,559 L557,559.062 L492,437 C492,437 478.69,414.131 470.5,407.5 C463.668,401.969 460.755,400 454,400 C449.298,400 420.974,400 420.974,400 L421,558.974 L298,559.026 L298,152.938 L545,152.938 C545,152.938 657.5,154.967 657.5,262 C657.5,369.033 550,377 550,377 M496.5,241.024 L422.037,240.976 L422,310.026 L496.5,310.002 C496.5,310.002 531,309.895 531,274.877 C531,239.155 496.5,241.024 496.5,241.024 "/>
</g>

<g fill="#333333" fill-opacity="1" stroke="#333333" stroke-opacity="1" stroke-width="1" stroke-linecap="square" stroke-linejoin="bevel" transform="matrix(1,0,0,1,0,0)"
font-family="Arial" font-size="16" font-weight="400" font-style="normal" 
>
<text fill="#333333" fill-opacity="1" stroke="none" xml:space="preserve" x="447" y="114" font-family="Arial" font-size="16" font-weight="400" font-style="normal" 
 >pixels</text>
<text fill="#333333" fill-opacity="1" stroke="none" xml:space="preserve" x="533" y="114" font-family="Arial" font-size="16" font-weight="400" font-style="normal" 
 >image</text>
<text fill="#333333" fill-opacity="1" stroke="none" xml:space="preserve" x="447" y="147" font-family="Arial" font-size="16" font-weight="400" font-style="normal" 
 >10px</text>
<text fill="#333333" fill-opacity="1" stroke="none" xml:space="preserve" x="559" y="147" font-family="Arial" font-size="16" font-weight="400" font-style="normal" 
 >10</text>
<text fill="#333333" fill-opacity="1" stroke="none" xml:space="preserve" x="447" y="182" font-family="Arial" font-size="16" font-weight="400" font-style="normal" 
 >15px</text>
<text fill="#333333" fill-opacity="1" stroke="none" xml:space="preserve" x="559" y="182" font-family="Arial" font-size="16" font-weight="400" font-style="normal" 
 >15</text>
<text fill="#333333" fill-opacity="1" stroke="none" xml:space="preserve" x="447" y="217" font-family="Arial" font-size="16" font-weight="400" font-style="normal" 
 >20px</text>
<text fill="#333333" fill-opacity="1" stroke="none" xml:space="preserve" x="559" y="217" font-family="Arial" font-size="16" font-weight="400" font-style="normal" 
 >20</text>
<text fill="#333333" fill-opacity="1" stroke="none" xml:space="preserve" x="447" y="252" font-family="Arial" font-size="16" font-weight="400" font-style="normal" 
 >25px</text>
<text fill="#333333" fill-opacity="1" stroke="none" xml:space="preserve" x="559" y="252" font-family="Arial" font-size="16" font-weight="400" font-style="normal" 
 >25</text>
<text fill="#333333" fill-opacity="1" stroke="none" xml:space="preserve" x="447" y="287" font-family="Arial" font-size="16" font-weight="400" font-style="normal" 
 >30px</text>
<text fill="#333333" fill-opacity="1" stroke="none" xml:space="preserve" x="559" y="287" font-family="Arial" font-size="16" font-weight="400" font-style="normal" 
 >30</text>
<text fill="#333333" fill-opacity="1" stroke="none" xml:space="preserve" x="447" y="322" font-family="Arial" font-size="16" font-weight="400" font-style="normal" 
 >35px</text>
<text fill="#333333" fill-opacity="1" stroke="none" xml:space="preserve" x="559" y="322" font-family="Arial" font-size="16" font-weight="400" font-style="normal" 
 >35</text>
</g>
</g>
</svg>
