<?xml version="1.0" encoding="UTF-8" standalone="no"?>
<svg width="361.244mm" height="215.9mm"
 viewBox="0 0 1024 612"
 xmlns="http://www.w3.org/2000/svg" xmlns:xlink="http://www.w3.org/1999/xlink"  version="1.2" baseProfile="tiny">
<title>Qt Svg Document</title>
<desc>Generated with Qt</desc>
<defs>
</defs>
<g fill="none" stroke="black" stroke-width="1" fill-rule="evenodd" stroke-linecap="square" stroke-linejoin="bevel" >

<g fill="#ffffff" fill-opacity="1" stroke="none" transform="matrix(1,0,0,1,0,0)"
font-family="Helvetica" font-size="12" font-weight="400" font-style="normal" 
>
<path vector-effect="non-scaling-stroke" fill-rule="evenodd" d="M0,0 L1024,0 L1024,612 L0,612 L0,0"/>
<path vector-effect="non-scaling-stroke" fill-rule="evenodd" d="M0,0 L1024,0 L1024,612 L0,612 L0,0"/>
<path vector-effect="non-scaling-stroke" fill-rule="evenodd" d="M0,0 L1024,0 L1024,612 L0,612 L0,0"/>
<path vector-effect="non-scaling-stroke" fill-rule="evenodd" d="M186,8 L838,8 L838,604 L186,604 L186,8"/>
<path vector-effect="non-scaling-stroke" fill-rule="evenodd" d="M186,9 L838,9 L838,41 L186,41 L186,9"/>
<path vector-effect="non-scaling-stroke" fill-rule="evenodd" d="M186,41 L838,41 L838,62 L186,62 L186,41"/>
</g>

<g fill="#01a99d" fill-opacity="1" stroke="none" transform="matrix(1,0,0,1,0,0)"
font-family="Helvetica" font-size="12" font-weight="400" font-style="normal" 
>
<path vector-effect="non-scaling-stroke" fill-rule="evenodd" d="M186,62 L248,62 L248,92 L186,92 L186,62"/>
<path vector-effect="non-scaling-stroke" fill-rule="evenodd" d="M248,62 L337,62 L337,92 L248,92 L248,62"/>
<path vector-effect="non-scaling-stroke" fill-rule="evenodd" d="M337,62 L421,62 L421,92 L337,92 L337,62"/>
<path vector-effect="non-scaling-stroke" fill-rule="evenodd" d="M421,62 L474,62 L474,92 L421,92 L421,62"/>
<path vector-effect="non-scaling-stroke" fill-rule="evenodd" d="M474,62 L566,62 L566,92 L474,92 L474,62"/>
<path vector-effect="non-scaling-stroke" fill-rule="evenodd" d="M566,62 L616,62 L616,92 L566,92 L566,62"/>
<path vector-effect="non-scaling-stroke" fill-rule="evenodd" d="M616,62 L752,62 L752,92 L616,92 L616,62"/>
<path vector-effect="non-scaling-stroke" fill-rule="evenodd" d="M752,62 L838,62 L838,92 L752,92 L752,62"/>
</g>

<g fill="#ffffff" fill-opacity="1" stroke="none" transform="matrix(1,0,0,1,0,0)"
font-family="Helvetica" font-size="12" font-weight="400" font-style="normal" 
>
<path vector-effect="non-scaling-stroke" fill-rule="evenodd" d="M186,92 L838,92 L838,128 L186,128 L186,92"/>
</g>

<g fill="#a5fef2" fill-opacity="1" stroke="none" transform="matrix(1,0,0,1,0,0)"
font-family="Helvetica" font-size="12" font-weight="400" font-style="normal" 
>
<path vector-effect="non-scaling-stroke" fill-rule="evenodd" d="M186,128 L248,128 L248,164 L186,164 L186,128"/>
<path vector-effect="non-scaling-stroke" fill-rule="evenodd" d="M186,164 L248,164 L248,198 L186,198 L186,164"/>
</g>

<g fill="#ebfbf9" fill-opacity="1" stroke="none" transform="matrix(1,0,0,1,0,0)"
font-family="Helvetica" font-size="12" font-weight="400" font-style="normal" 
>
<path vector-effect="non-scaling-stroke" fill-rule="evenodd" d="M248,164 L337,164 L337,198 L248,198 L248,164"/>
<path vector-effect="non-scaling-stroke" fill-rule="evenodd" d="M337,164 L421,164 L421,198 L337,198 L337,164"/>
<path vector-effect="non-scaling-stroke" fill-rule="evenodd" d="M421,164 L474,164 L474,198 L421,198 L421,164"/>
<path vector-effect="non-scaling-stroke" fill-rule="evenodd" d="M474,164 L566,164 L566,198 L474,198 L474,164"/>
<path vector-effect="non-scaling-stroke" fill-rule="evenodd" d="M566,164 L616,164 L616,198 L566,198 L566,164"/>
<path vector-effect="non-scaling-stroke" fill-rule="evenodd" d="M616,164 L752,164 L752,198 L616,198 L616,164"/>
<path vector-effect="non-scaling-stroke" fill-rule="evenodd" d="M752,164 L838,164 L838,198 L752,198 L752,164"/>
</g>

<g fill="#a5fef2" fill-opacity="1" stroke="none" transform="matrix(1,0,0,1,0,0)"
font-family="Helvetica" font-size="12" font-weight="400" font-style="normal" 
>
<path vector-effect="non-scaling-stroke" fill-rule="evenodd" d="M186,198 L248,198 L248,232 L186,232 L186,198"/>
<path vector-effect="non-scaling-stroke" fill-rule="evenodd" d="M186,232 L248,232 L248,267 L186,267 L186,232"/>
</g>

<g fill="#ebfbf9" fill-opacity="1" stroke="none" transform="matrix(1,0,0,1,0,0)"
font-family="Helvetica" font-size="12" font-weight="400" font-style="normal" 
>
<path vector-effect="non-scaling-stroke" fill-rule="evenodd" d="M248,232 L337,232 L337,267 L248,267 L248,232"/>
<path vector-effect="non-scaling-stroke" fill-rule="evenodd" d="M337,232 L421,232 L421,267 L337,267 L337,232"/>
<path vector-effect="non-scaling-stroke" fill-rule="evenodd" d="M421,232 L474,232 L474,267 L421,267 L421,232"/>
<path vector-effect="non-scaling-stroke" fill-rule="evenodd" d="M474,232 L566,232 L566,267 L474,267 L474,232"/>
<path vector-effect="non-scaling-stroke" fill-rule="evenodd" d="M566,232 L616,232 L616,267 L566,267 L566,232"/>
<path vector-effect="non-scaling-stroke" fill-rule="evenodd" d="M616,232 L752,232 L752,267 L616,267 L616,232"/>
<path vector-effect="non-scaling-stroke" fill-rule="evenodd" d="M752,232 L838,232 L838,267 L752,267 L752,232"/>
</g>

<g fill="#ffffff" fill-opacity="1" stroke="none" transform="matrix(1,0,0,1,0,0)"
font-family="Helvetica" font-size="12" font-weight="400" font-style="normal" 
>
<path vector-effect="non-scaling-stroke" fill-rule="evenodd" d="M186,267 L248,267 L248,302 L186,302 L186,267"/>
<path vector-effect="non-scaling-stroke" fill-rule="evenodd" d="M248,267 L337,267 L337,302 L248,302 L248,267"/>
<path vector-effect="non-scaling-stroke" fill-rule="evenodd" d="M337,267 L421,267 L421,302 L337,302 L337,267"/>
<path vector-effect="non-scaling-stroke" fill-rule="evenodd" d="M421,267 L474,267 L474,302 L421,302 L421,267"/>
<path vector-effect="non-scaling-stroke" fill-rule="evenodd" d="M474,267 L566,267 L566,302 L474,302 L474,267"/>
<path vector-effect="non-scaling-stroke" fill-rule="evenodd" d="M566,267 L616,267 L616,302 L566,302 L566,267"/>
<path vector-effect="non-scaling-stroke" fill-rule="evenodd" d="M616,267 L752,267 L752,302 L616,302 L616,267"/>
<path vector-effect="non-scaling-stroke" fill-rule="evenodd" d="M752,267 L838,267 L838,302 L752,302 L752,267"/>
<path vector-effect="non-scaling-stroke" fill-rule="evenodd" d="M186,302 L248,302 L248,337 L186,337 L186,302"/>
<path vector-effect="non-scaling-stroke" fill-rule="evenodd" d="M248,302 L337,302 L337,337 L248,337 L248,302"/>
<path vector-effect="non-scaling-stroke" fill-rule="evenodd" d="M337,302 L421,302 L421,337 L337,337 L337,302"/>
<path vector-effect="non-scaling-stroke" fill-rule="evenodd" d="M421,302 L474,302 L474,337 L421,337 L421,302"/>
<path vector-effect="non-scaling-stroke" fill-rule="evenodd" d="M474,302 L566,302 L566,337 L474,337 L474,302"/>
<path vector-effect="non-scaling-stroke" fill-rule="evenodd" d="M566,302 L616,302 L616,337 L566,337 L566,302"/>
<path vector-effect="non-scaling-stroke" fill-rule="evenodd" d="M616,302 L752,302 L752,337 L616,337 L616,302"/>
<path vector-effect="non-scaling-stroke" fill-rule="evenodd" d="M752,302 L838,302 L838,337 L752,337 L752,302"/>
<path vector-effect="non-scaling-stroke" fill-rule="evenodd" d="M186,337 L838,337 L838,373 L186,373 L186,337"/>
</g>

<g fill="#a5fef2" fill-opacity="1" stroke="none" transform="matrix(1,0,0,1,0,0)"
font-family="Helvetica" font-size="12" font-weight="400" font-style="normal" 
>
<path vector-effect="non-scaling-stroke" fill-rule="evenodd" d="M186,373 L248,373 L248,408 L186,408 L186,373"/>
<path vector-effect="non-scaling-stroke" fill-rule="evenodd" d="M186,408 L248,408 L248,442 L186,442 L186,408"/>
</g>

<g fill="#ebfbf9" fill-opacity="1" stroke="none" transform="matrix(1,0,0,1,0,0)"
font-family="Helvetica" font-size="12" font-weight="400" font-style="normal" 
>
<path vector-effect="non-scaling-stroke" fill-rule="evenodd" d="M248,408 L337,408 L337,442 L248,442 L248,408"/>
<path vector-effect="non-scaling-stroke" fill-rule="evenodd" d="M337,408 L421,408 L421,442 L337,442 L337,408"/>
<path vector-effect="non-scaling-stroke" fill-rule="evenodd" d="M421,408 L474,408 L474,442 L421,442 L421,408"/>
<path vector-effect="non-scaling-stroke" fill-rule="evenodd" d="M474,408 L566,408 L566,442 L474,442 L474,408"/>
<path vector-effect="non-scaling-stroke" fill-rule="evenodd" d="M566,408 L616,408 L616,442 L566,442 L566,408"/>
<path vector-effect="non-scaling-stroke" fill-rule="evenodd" d="M616,408 L752,408 L752,442 L616,442 L616,408"/>
<path vector-effect="non-scaling-stroke" fill-rule="evenodd" d="M752,408 L838,408 L838,442 L752,442 L752,408"/>
</g>

<g fill="#a5fef2" fill-opacity="1" stroke="none" transform="matrix(1,0,0,1,0,0)"
font-family="Helvetica" font-size="12" font-weight="400" font-style="normal" 
>
<path vector-effect="non-scaling-stroke" fill-rule="evenodd" d="M186,442 L248,442 L248,476 L186,476 L186,442"/>
<path vector-effect="non-scaling-stroke" fill-rule="evenodd" d="M186,476 L248,476 L248,513 L186,513 L186,476"/>
</g>

<g fill="#ebfbf9" fill-opacity="1" stroke="none" transform="matrix(1,0,0,1,0,0)"
font-family="Helvetica" font-size="12" font-weight="400" font-style="normal" 
>
<path vector-effect="non-scaling-stroke" fill-rule="evenodd" d="M248,476 L337,476 L337,513 L248,513 L248,476"/>
<path vector-effect="non-scaling-stroke" fill-rule="evenodd" d="M337,476 L421,476 L421,513 L337,513 L337,476"/>
<path vector-effect="non-scaling-stroke" fill-rule="evenodd" d="M421,476 L474,476 L474,513 L421,513 L421,476"/>
<path vector-effect="non-scaling-stroke" fill-rule="evenodd" d="M474,476 L566,476 L566,513 L474,513 L474,476"/>
<path vector-effect="non-scaling-stroke" fill-rule="evenodd" d="M566,476 L616,476 L616,513 L566,513 L566,476"/>
<path vector-effect="non-scaling-stroke" fill-rule="evenodd" d="M616,476 L752,476 L752,513 L616,513 L616,476"/>
<path vector-effect="non-scaling-stroke" fill-rule="evenodd" d="M752,476 L838,476 L838,513 L752,513 L752,476"/>
</g>

<g fill="#d5d5d5" fill-opacity="1" stroke="none" transform="matrix(1,0,0,1,0,0)"
font-family="Helvetica" font-size="12" font-weight="400" font-style="normal" 
>
<path vector-effect="non-scaling-stroke" fill-rule="evenodd" d="M186,513 L248,513 L248,551 L186,551 L186,513"/>
<path vector-effect="non-scaling-stroke" fill-rule="evenodd" d="M248,513 L337,513 L337,551 L248,551 L248,513"/>
<path vector-effect="non-scaling-stroke" fill-rule="evenodd" d="M337,513 L421,513 L421,551 L337,551 L337,513"/>
<path vector-effect="non-scaling-stroke" fill-rule="evenodd" d="M421,513 L474,513 L474,551 L421,551 L421,513"/>
<path vector-effect="non-scaling-stroke" fill-rule="evenodd" d="M474,513 L566,513 L566,551 L474,551 L474,513"/>
<path vector-effect="non-scaling-stroke" fill-rule="evenodd" d="M566,513 L616,513 L616,551 L566,551 L566,513"/>
<path vector-effect="non-scaling-stroke" fill-rule="evenodd" d="M616,513 L752,513 L752,551 L616,551 L616,513"/>
<path vector-effect="non-scaling-stroke" fill-rule="evenodd" d="M752,513 L838,513 L838,551 L752,551 L752,513"/>
</g>

<g fill="#ffffff" fill-opacity="1" stroke="none" transform="matrix(1,0,0,1,0,0)"
font-family="Helvetica" font-size="12" font-weight="400" font-style="normal" 
>
<path vector-effect="non-scaling-stroke" fill-rule="evenodd" d="M186,578 L838,578 L838,603 L186,603 L186,578"/>
<path vector-effect="non-scaling-stroke" fill-rule="evenodd" d="M186,551 L838,551 L838,578 L186,578 L186,551"/>
</g>

<g fill="#5f5f5f" fill-opacity="1" stroke="none" transform="matrix(1,0,0,1,0,0)"
font-family="Helvetica" font-size="12" font-weight="400" font-style="normal" 
>
<path vector-effect="non-scaling-stroke" fill-rule="evenodd" d="M186,8 L838,8 L838,10 L186,10 L186,8"/>
<path vector-effect="non-scaling-stroke" fill-rule="evenodd" d="M186,602 L838,602 L838,604 L186,604 L186,602"/>
<path vector-effect="non-scaling-stroke" fill-rule="evenodd" d="M186,550 L249,550 L249,552 L186,552 L186,550"/>
<path vector-effect="non-scaling-stroke" fill-rule="evenodd" d="M247,550 L337,550 L337,552 L247,552 L247,550"/>
<path vector-effect="non-scaling-stroke" fill-rule="evenodd" d="M337,550 L421,550 L421,552 L337,552 L337,550"/>
<path vector-effect="non-scaling-stroke" fill-rule="evenodd" d="M421,550 L474,550 L474,552 L421,552 L421,550"/>
<path vector-effect="non-scaling-stroke" fill-rule="evenodd" d="M474,550 L566,550 L566,552 L474,552 L474,550"/>
<path vector-effect="non-scaling-stroke" fill-rule="evenodd" d="M566,550 L616,550 L616,552 L566,552 L566,550"/>
<path vector-effect="non-scaling-stroke" fill-rule="evenodd" d="M616,550 L752,550 L752,552 L616,552 L616,550"/>
<path vector-effect="non-scaling-stroke" fill-rule="evenodd" d="M752,550 L838,550 L838,552 L752,552 L752,550"/>
<path vector-effect="non-scaling-stroke" fill-rule="evenodd" d="M186,550 L838,550 L838,552 L186,552 L186,550"/>
<path vector-effect="non-scaling-stroke" fill-rule="evenodd" d="M186,61 L838,61 L838,63 L186,63 L186,61"/>
<path vector-effect="non-scaling-stroke" fill-rule="evenodd" d="M186,61 L248,61 L248,63 L186,63 L186,61"/>
<path vector-effect="non-scaling-stroke" fill-rule="evenodd" d="M186,91 L248,91 L248,93 L186,93 L186,91"/>
<path vector-effect="non-scaling-stroke" fill-rule="evenodd" d="M248,61 L337,61 L337,63 L248,63 L248,61"/>
<path vector-effect="non-scaling-stroke" fill-rule="evenodd" d="M248,91 L337,91 L337,93 L248,93 L248,91"/>
<path vector-effect="non-scaling-stroke" fill-rule="evenodd" d="M337,61 L421,61 L421,63 L337,63 L337,61"/>
<path vector-effect="non-scaling-stroke" fill-rule="evenodd" d="M337,91 L421,91 L421,93 L337,93 L337,91"/>
<path vector-effect="non-scaling-stroke" fill-rule="evenodd" d="M421,61 L474,61 L474,63 L421,63 L421,61"/>
<path vector-effect="non-scaling-stroke" fill-rule="evenodd" d="M421,91 L474,91 L474,93 L421,93 L421,91"/>
<path vector-effect="non-scaling-stroke" fill-rule="evenodd" d="M474,61 L566,61 L566,63 L474,63 L474,61"/>
<path vector-effect="non-scaling-stroke" fill-rule="evenodd" d="M474,91 L566,91 L566,93 L474,93 L474,91"/>
<path vector-effect="non-scaling-stroke" fill-rule="evenodd" d="M566,61 L616,61 L616,63 L566,63 L566,61"/>
<path vector-effect="non-scaling-stroke" fill-rule="evenodd" d="M566,91 L616,91 L616,93 L566,93 L566,91"/>
<path vector-effect="non-scaling-stroke" fill-rule="evenodd" d="M616,61 L752,61 L752,63 L616,63 L616,61"/>
<path vector-effect="non-scaling-stroke" fill-rule="evenodd" d="M616,91 L752,91 L752,93 L616,93 L616,91"/>
<path vector-effect="non-scaling-stroke" fill-rule="evenodd" d="M752,61 L838,61 L838,63 L752,63 L752,61"/>
<path vector-effect="non-scaling-stroke" fill-rule="evenodd" d="M752,91 L838,91 L838,93 L752,93 L752,91"/>
<path vector-effect="non-scaling-stroke" fill-rule="evenodd" d="M186,91 L838,91 L838,93 L186,93 L186,91"/>
<path vector-effect="non-scaling-stroke" fill-rule="evenodd" d="M186,127 L838,127 L838,129 L186,129 L186,127"/>
<path vector-effect="non-scaling-stroke" fill-rule="evenodd" d="M186,127 L249,127 L249,129 L186,129 L186,127"/>
<path vector-effect="non-scaling-stroke" fill-rule="evenodd" d="M247,127 L337,127 L337,129 L247,129 L247,127"/>
<path vector-effect="non-scaling-stroke" fill-rule="evenodd" d="M337,127 L421,127 L421,129 L337,129 L337,127"/>
<path vector-effect="non-scaling-stroke" fill-rule="evenodd" d="M421,127 L474,127 L474,129 L421,129 L421,127"/>
<path vector-effect="non-scaling-stroke" fill-rule="evenodd" d="M474,127 L566,127 L566,129 L474,129 L474,127"/>
<path vector-effect="non-scaling-stroke" fill-rule="evenodd" d="M566,127 L616,127 L616,129 L566,129 L566,127"/>
<path vector-effect="non-scaling-stroke" fill-rule="evenodd" d="M616,127 L752,127 L752,129 L616,129 L616,127"/>
<path vector-effect="non-scaling-stroke" fill-rule="evenodd" d="M752,127 L838,127 L838,129 L752,129 L752,127"/>
<path vector-effect="non-scaling-stroke" fill-rule="evenodd" d="M186,266 L249,266 L249,268 L186,268 L186,266"/>
<path vector-effect="non-scaling-stroke" fill-rule="evenodd" d="M247,266 L337,266 L337,268 L247,268 L247,266"/>
<path vector-effect="non-scaling-stroke" fill-rule="evenodd" d="M337,266 L421,266 L421,268 L337,268 L337,266"/>
<path vector-effect="non-scaling-stroke" fill-rule="evenodd" d="M421,266 L474,266 L474,268 L421,268 L421,266"/>
<path vector-effect="non-scaling-stroke" fill-rule="evenodd" d="M474,266 L566,266 L566,268 L474,268 L474,266"/>
<path vector-effect="non-scaling-stroke" fill-rule="evenodd" d="M566,266 L616,266 L616,268 L566,268 L566,266"/>
<path vector-effect="non-scaling-stroke" fill-rule="evenodd" d="M616,266 L752,266 L752,268 L616,268 L616,266"/>
<path vector-effect="non-scaling-stroke" fill-rule="evenodd" d="M752,266 L838,266 L838,268 L752,268 L752,266"/>
<path vector-effect="non-scaling-stroke" fill-rule="evenodd" d="M186,266 L249,266 L249,268 L186,268 L186,266"/>
<path vector-effect="non-scaling-stroke" fill-rule="evenodd" d="M247,266 L337,266 L337,268 L247,268 L247,266"/>
<path vector-effect="non-scaling-stroke" fill-rule="evenodd" d="M337,266 L421,266 L421,268 L337,268 L337,266"/>
<path vector-effect="non-scaling-stroke" fill-rule="evenodd" d="M421,266 L474,266 L474,268 L421,268 L421,266"/>
<path vector-effect="non-scaling-stroke" fill-rule="evenodd" d="M474,266 L566,266 L566,268 L474,268 L474,266"/>
<path vector-effect="non-scaling-stroke" fill-rule="evenodd" d="M566,266 L616,266 L616,268 L566,268 L566,266"/>
<path vector-effect="non-scaling-stroke" fill-rule="evenodd" d="M616,266 L752,266 L752,268 L616,268 L616,266"/>
<path vector-effect="non-scaling-stroke" fill-rule="evenodd" d="M752,266 L838,266 L838,268 L752,268 L752,266"/>
<path vector-effect="non-scaling-stroke" fill-rule="evenodd" d="M186,336 L249,336 L249,338 L186,338 L186,336"/>
<path vector-effect="non-scaling-stroke" fill-rule="evenodd" d="M247,336 L337,336 L337,338 L247,338 L247,336"/>
<path vector-effect="non-scaling-stroke" fill-rule="evenodd" d="M337,336 L421,336 L421,338 L337,338 L337,336"/>
<path vector-effect="non-scaling-stroke" fill-rule="evenodd" d="M421,336 L474,336 L474,338 L421,338 L421,336"/>
<path vector-effect="non-scaling-stroke" fill-rule="evenodd" d="M474,336 L566,336 L566,338 L474,338 L474,336"/>
<path vector-effect="non-scaling-stroke" fill-rule="evenodd" d="M566,336 L616,336 L616,338 L566,338 L566,336"/>
<path vector-effect="non-scaling-stroke" fill-rule="evenodd" d="M616,336 L752,336 L752,338 L616,338 L616,336"/>
<path vector-effect="non-scaling-stroke" fill-rule="evenodd" d="M752,336 L838,336 L838,338 L752,338 L752,336"/>
<path vector-effect="non-scaling-stroke" fill-rule="evenodd" d="M186,336 L838,336 L838,338 L186,338 L186,336"/>
<path vector-effect="non-scaling-stroke" fill-rule="evenodd" d="M186,372 L838,372 L838,374 L186,374 L186,372"/>
<path vector-effect="non-scaling-stroke" fill-rule="evenodd" d="M186,372 L249,372 L249,374 L186,374 L186,372"/>
<path vector-effect="non-scaling-stroke" fill-rule="evenodd" d="M247,372 L337,372 L337,374 L247,374 L247,372"/>
<path vector-effect="non-scaling-stroke" fill-rule="evenodd" d="M337,372 L421,372 L421,374 L337,374 L337,372"/>
<path vector-effect="non-scaling-stroke" fill-rule="evenodd" d="M421,372 L474,372 L474,374 L421,374 L421,372"/>
<path vector-effect="non-scaling-stroke" fill-rule="evenodd" d="M474,372 L566,372 L566,374 L474,374 L474,372"/>
<path vector-effect="non-scaling-stroke" fill-rule="evenodd" d="M566,372 L616,372 L616,374 L566,374 L566,372"/>
<path vector-effect="non-scaling-stroke" fill-rule="evenodd" d="M616,372 L752,372 L752,374 L616,374 L616,372"/>
<path vector-effect="non-scaling-stroke" fill-rule="evenodd" d="M752,372 L838,372 L838,374 L752,374 L752,372"/>
</g>

<g fill="#d5d5d5" fill-opacity="1" stroke="none" transform="matrix(1,0,0,1,0,0)"
font-family="Helvetica" font-size="12" font-weight="400" font-style="normal" 
>
<path vector-effect="non-scaling-stroke" fill-rule="evenodd" d="M247,127 L249,127 L249,164 L247,164 L247,127"/>
<path vector-effect="non-scaling-stroke" fill-rule="evenodd" d="M247,127 L249,127 L249,164 L247,164 L247,127"/>
<path vector-effect="non-scaling-stroke" fill-rule="evenodd" d="M247,164 L249,164 L249,198 L247,198 L247,164"/>
<path vector-effect="non-scaling-stroke" fill-rule="evenodd" d="M247,164 L249,164 L249,198 L247,198 L247,164"/>
<path vector-effect="non-scaling-stroke" fill-rule="evenodd" d="M247,198 L249,198 L249,232 L247,232 L247,198"/>
<path vector-effect="non-scaling-stroke" fill-rule="evenodd" d="M247,198 L249,198 L249,232 L247,232 L247,198"/>
<path vector-effect="non-scaling-stroke" fill-rule="evenodd" d="M247,232 L249,232 L249,268 L247,268 L247,232"/>
<path vector-effect="non-scaling-stroke" fill-rule="evenodd" d="M247,232 L249,232 L249,268 L247,268 L247,232"/>
<path vector-effect="non-scaling-stroke" fill-rule="evenodd" d="M247,266 L249,266 L249,302 L247,302 L247,266"/>
<path vector-effect="non-scaling-stroke" fill-rule="evenodd" d="M247,266 L249,266 L249,302 L247,302 L247,266"/>
<path vector-effect="non-scaling-stroke" fill-rule="evenodd" d="M247,302 L249,302 L249,338 L247,338 L247,302"/>
<path vector-effect="non-scaling-stroke" fill-rule="evenodd" d="M247,302 L249,302 L249,338 L247,338 L247,302"/>
<path vector-effect="non-scaling-stroke" fill-rule="evenodd" d="M247,372 L249,372 L249,408 L247,408 L247,372"/>
<path vector-effect="non-scaling-stroke" fill-rule="evenodd" d="M247,372 L249,372 L249,408 L247,408 L247,372"/>
<path vector-effect="non-scaling-stroke" fill-rule="evenodd" d="M247,408 L249,408 L249,442 L247,442 L247,408"/>
<path vector-effect="non-scaling-stroke" fill-rule="evenodd" d="M247,408 L249,408 L249,442 L247,442 L247,408"/>
<path vector-effect="non-scaling-stroke" fill-rule="evenodd" d="M247,442 L249,442 L249,476 L247,476 L247,442"/>
<path vector-effect="non-scaling-stroke" fill-rule="evenodd" d="M247,442 L249,442 L249,476 L247,476 L247,442"/>
<path vector-effect="non-scaling-stroke" fill-rule="evenodd" d="M247,476 L249,476 L249,516 L247,516 L247,476"/>
<path vector-effect="non-scaling-stroke" fill-rule="evenodd" d="M247,476 L249,476 L249,516 L247,516 L247,476"/>
<path vector-effect="non-scaling-stroke" fill-rule="evenodd" d="M247,510 L249,510 L249,552 L247,552 L247,510"/>
<path vector-effect="non-scaling-stroke" fill-rule="evenodd" d="M247,510 L249,510 L249,552 L247,552 L247,510"/>
</g>

<g fill="#5f5f5f" fill-opacity="1" stroke="none" transform="matrix(1,0,0,1,0,0)"
font-family="Helvetica" font-size="12" font-weight="400" font-style="normal" 
>
<path vector-effect="non-scaling-stroke" fill-rule="evenodd" d="M186,510 L249,510 L249,512 L186,512 L186,510"/>
<path vector-effect="non-scaling-stroke" fill-rule="evenodd" d="M186,514 L249,514 L249,516 L186,516 L186,514"/>
<path vector-effect="non-scaling-stroke" fill-rule="evenodd" d="M247,510 L337,510 L337,512 L247,512 L247,510"/>
<path vector-effect="non-scaling-stroke" fill-rule="evenodd" d="M247,514 L337,514 L337,516 L247,516 L247,514"/>
<path vector-effect="non-scaling-stroke" fill-rule="evenodd" d="M337,510 L421,510 L421,512 L337,512 L337,510"/>
<path vector-effect="non-scaling-stroke" fill-rule="evenodd" d="M337,514 L421,514 L421,516 L337,516 L337,514"/>
<path vector-effect="non-scaling-stroke" fill-rule="evenodd" d="M421,510 L474,510 L474,512 L421,512 L421,510"/>
<path vector-effect="non-scaling-stroke" fill-rule="evenodd" d="M421,514 L474,514 L474,516 L421,516 L421,514"/>
<path vector-effect="non-scaling-stroke" fill-rule="evenodd" d="M474,510 L566,510 L566,512 L474,512 L474,510"/>
<path vector-effect="non-scaling-stroke" fill-rule="evenodd" d="M474,514 L566,514 L566,516 L474,516 L474,514"/>
<path vector-effect="non-scaling-stroke" fill-rule="evenodd" d="M566,510 L616,510 L616,512 L566,512 L566,510"/>
<path vector-effect="non-scaling-stroke" fill-rule="evenodd" d="M566,514 L616,514 L616,516 L566,516 L566,514"/>
<path vector-effect="non-scaling-stroke" fill-rule="evenodd" d="M616,510 L752,510 L752,512 L616,512 L616,510"/>
<path vector-effect="non-scaling-stroke" fill-rule="evenodd" d="M616,514 L752,514 L752,516 L616,516 L616,514"/>
<path vector-effect="non-scaling-stroke" fill-rule="evenodd" d="M752,510 L838,510 L838,512 L752,512 L752,510"/>
<path vector-effect="non-scaling-stroke" fill-rule="evenodd" d="M752,514 L838,514 L838,516 L752,516 L752,514"/>
<path vector-effect="non-scaling-stroke" fill-rule="evenodd" d="M186,510 L249,510 L249,512 L186,512 L186,510"/>
<path vector-effect="non-scaling-stroke" fill-rule="evenodd" d="M186,514 L249,514 L249,516 L186,516 L186,514"/>
<path vector-effect="non-scaling-stroke" fill-rule="evenodd" d="M247,510 L337,510 L337,512 L247,512 L247,510"/>
<path vector-effect="non-scaling-stroke" fill-rule="evenodd" d="M247,514 L337,514 L337,516 L247,516 L247,514"/>
<path vector-effect="non-scaling-stroke" fill-rule="evenodd" d="M337,510 L421,510 L421,512 L337,512 L337,510"/>
<path vector-effect="non-scaling-stroke" fill-rule="evenodd" d="M337,514 L421,514 L421,516 L337,516 L337,514"/>
<path vector-effect="non-scaling-stroke" fill-rule="evenodd" d="M421,510 L474,510 L474,512 L421,512 L421,510"/>
<path vector-effect="non-scaling-stroke" fill-rule="evenodd" d="M421,514 L474,514 L474,516 L421,516 L421,514"/>
<path vector-effect="non-scaling-stroke" fill-rule="evenodd" d="M474,510 L566,510 L566,512 L474,512 L474,510"/>
<path vector-effect="non-scaling-stroke" fill-rule="evenodd" d="M474,514 L566,514 L566,516 L474,516 L474,514"/>
<path vector-effect="non-scaling-stroke" fill-rule="evenodd" d="M566,510 L616,510 L616,512 L566,512 L566,510"/>
<path vector-effect="non-scaling-stroke" fill-rule="evenodd" d="M566,514 L616,514 L616,516 L566,516 L566,514"/>
<path vector-effect="non-scaling-stroke" fill-rule="evenodd" d="M616,510 L752,510 L752,512 L616,512 L616,510"/>
<path vector-effect="non-scaling-stroke" fill-rule="evenodd" d="M616,514 L752,514 L752,516 L616,516 L616,514"/>
<path vector-effect="non-scaling-stroke" fill-rule="evenodd" d="M752,510 L838,510 L838,512 L752,512 L752,510"/>
<path vector-effect="non-scaling-stroke" fill-rule="evenodd" d="M752,514 L838,514 L838,516 L752,516 L752,514"/>
</g>

<g fill="#333333" fill-opacity="1" stroke="#333333" stroke-opacity="1" stroke-width="1" stroke-linecap="square" stroke-linejoin="bevel" transform="matrix(1,0,0,1,0,0)"
font-family="Arial" font-size="20" font-weight="400" font-style="normal" 
>
<text fill="#333333" fill-opacity="1" stroke="none" xml:space="preserve" x="423.5" y="32" font-family="Arial" font-size="20" font-weight="400" font-style="normal" 
 >The title of the table</text>
</g>

<g fill="#333333" fill-opacity="1" stroke="#333333" stroke-opacity="1" stroke-width="1" stroke-linecap="square" stroke-linejoin="bevel" transform="matrix(1,0,0,1,0,0)"
font-family="Arial" font-size="14" font-weight="400" font-style="normal" 
>
<text fill="#333333" fill-opacity="1" stroke="none" xml:space="preserve" x="452.5" y="54" font-family="Arial" font-size="14" font-weight="400" font-style="normal" 
 >The table's subtitle</text>
</g>

<g fill="#ffffff" fill-opacity="1" stroke="#ffffff" stroke-opacity="1" stroke-width="1" stroke-linecap="square" stroke-linejoin="bevel" transform="matrix(1,0,0,1,0,0)"
font-family="Arial" font-size="16" font-weight="400" font-style="normal" 
>
<text fill="#ffffff" fill-opacity="1" stroke="none" xml:space="preserve" x="301" y="82" font-family="Arial" font-size="16" font-weight="400" font-style="normal" 
 >num</text>
<text fill="#ffffff" fill-opacity="1" stroke="none" xml:space="preserve" x="342" y="82" font-family="Arial" font-size="16" font-weight="400" font-style="normal" 
 >char</text>
<text fill="#ffffff" fill-opacity="1" stroke="none" xml:space="preserve" x="437" y="82" font-family="Arial" font-size="16" font-weight="400" font-style="normal" 
 >fctr</text>
<text fill="#ffffff" fill-opacity="1" stroke="none" xml:space="preserve" x="479" y="82" font-family="Arial" font-size="16" font-weight="400" font-style="normal" 
 >date</text>
<text fill="#ffffff" fill-opacity="1" stroke="none" xml:space="preserve" x="571" y="82" font-family="Arial" font-size="16" font-weight="400" font-style="normal" 
 >time</text>
<text fill="#ffffff" fill-opacity="1" stroke="none" xml:space="preserve" x="621" y="82" font-family="Arial" font-size="16" font-weight="400" font-style="normal" 
 >datetime</text>
<text fill="#ffffff" fill-opacity="1" stroke="none" xml:space="preserve" x="772" y="82" font-family="Arial" font-size="16" font-weight="400" font-style="normal" 
 >currency</text>
</g>

<g fill="#333333" fill-opacity="1" stroke="#333333" stroke-opacity="1" stroke-width="1" stroke-linecap="square" stroke-linejoin="bevel" transform="matrix(1,0,0,1,0,0)"
font-family="Arial" font-size="16" font-weight="400" font-style="normal" 
>
<text fill="#333333" fill-opacity="1" stroke="none" xml:space="preserve" x="194" y="115" font-family="Arial" font-size="16" font-weight="400" font-style="normal" 
 >grp_a</text>
<text fill="#333333" fill-opacity="1" stroke="none" xml:space="preserve" x="198" y="151" font-family="Arial" font-size="16" font-weight="400" font-style="normal" 
 >row_1</text>
<text fill="#333333" fill-opacity="1" stroke="none" xml:space="preserve" x="254" y="152" font-family="Arial" font-size="16" font-weight="400" font-style="normal" 
 >1.111e-01</text>
</g>

<g fill="#333333" fill-opacity="1" stroke="#333333" stroke-opacity="1" stroke-width="1" stroke-linecap="square" stroke-linejoin="bevel" transform="matrix(1,0,0,1,0,0)"
font-family="Arial" font-size="10" font-weight="400" font-style="italic" 
>
<text fill="#333333" fill-opacity="1" stroke="none" xml:space="preserve" x="326" y="146" font-family="Arial" font-size="10" font-weight="400" font-style="italic" 
 >1</text>
</g>

<g fill="#333333" fill-opacity="1" stroke="#333333" stroke-opacity="1" stroke-width="1" stroke-linecap="square" stroke-linejoin="bevel" transform="matrix(1,0,0,1,0,0)"
font-family="Arial" font-size="16" font-weight="400" font-style="normal" 
>
<text fill="#333333" fill-opacity="1" stroke="none" xml:space="preserve" x="342" y="151" font-family="Arial" font-size="16" font-weight="400" font-style="normal" 
 >apricot</text>
<text fill="#333333" fill-opacity="1" stroke="none" xml:space="preserve" x="434" y="151" font-family="Arial" font-size="16" font-weight="400" font-style="normal" 
 >one</text>
<text fill="#333333" fill-opacity="1" stroke="none" xml:space="preserve" x="479" y="151" font-family="Arial" font-size="16" font-weight="400" font-style="normal" 
 >2015-01-15</text>
<text fill="#333333" fill-opacity="1" stroke="none" xml:space="preserve" x="571" y="151" font-family="Arial" font-size="16" font-weight="400" font-style="normal" 
 >13:35</text>
<text fill="#333333" fill-opacity="1" stroke="none" xml:space="preserve" x="621" y="151" font-family="Arial" font-size="16" font-weight="400" font-style="normal" 
 >2018-01-01 02:22</text>
<text fill="#333333" fill-opacity="1" stroke="none" xml:space="preserve" x="784" y="151" font-family="Arial" font-size="16" font-weight="400" font-style="normal" 
 >49.950</text>
<text fill="#333333" fill-opacity="1" stroke="none" xml:space="preserve" x="198" y="186" font-family="Arial" font-size="16" font-weight="400" font-style="normal" 
 >row_2</text>
<text fill="#333333" fill-opacity="1" stroke="none" xml:space="preserve" x="256" y="186" font-family="Arial" font-size="16" font-weight="400" font-style="normal" 
 >2.222e+00</text>
<text fill="#333333" fill-opacity="1" stroke="none" xml:space="preserve" x="342" y="186" font-family="Arial" font-size="16" font-weight="400" font-style="normal" 
 >banana</text>
<text fill="#333333" fill-opacity="1" stroke="none" xml:space="preserve" x="435" y="186" font-family="Arial" font-size="16" font-weight="400" font-style="normal" 
 >two</text>
<text fill="#333333" fill-opacity="1" stroke="none" xml:space="preserve" x="479" y="186" font-family="Arial" font-size="16" font-weight="400" font-style="normal" 
 >2015-02-15</text>
<text fill="#333333" fill-opacity="1" stroke="none" xml:space="preserve" x="571" y="186" font-family="Arial" font-size="16" font-weight="400" font-style="normal" 
 >14:40</text>
<text fill="#333333" fill-opacity="1" stroke="none" xml:space="preserve" x="621" y="186" font-family="Arial" font-size="16" font-weight="400" font-style="normal" 
 >2018-02-02 14:33</text>
<text fill="#333333" fill-opacity="1" stroke="none" xml:space="preserve" x="784" y="186" font-family="Arial" font-size="16" font-weight="400" font-style="normal" 
 >17.950</text>
<text fill="#333333" fill-opacity="1" stroke="none" xml:space="preserve" x="198" y="220" font-family="Arial" font-size="16" font-weight="400" font-style="normal" 
 >row_3</text>
<text fill="#333333" fill-opacity="1" stroke="none" xml:space="preserve" x="256" y="220" font-family="Arial" font-size="16" font-weight="400" font-style="normal" 
 >3.333e+01</text>
<text fill="#333333" fill-opacity="1" stroke="none" xml:space="preserve" x="342" y="220" font-family="Arial" font-size="16" font-weight="400" font-style="normal" 
 >coconut</text>
<text fill="#333333" fill-opacity="1" stroke="none" xml:space="preserve" x="429.5" y="220" font-family="Arial" font-size="16" font-weight="400" font-style="normal" 
 >three</text>
<text fill="#333333" fill-opacity="1" stroke="none" xml:space="preserve" x="479" y="220" font-family="Arial" font-size="16" font-weight="400" font-style="normal" 
 >2015-03-15</text>
<text fill="#333333" fill-opacity="1" stroke="none" xml:space="preserve" x="571" y="220" font-family="Arial" font-size="16" font-weight="400" font-style="normal" 
 >15:45</text>
<text fill="#333333" fill-opacity="1" stroke="none" xml:space="preserve" x="621" y="220" font-family="Arial" font-size="16" font-weight="400" font-style="normal" 
 >2018-03-03 03:44</text>
<text fill="#333333" fill-opacity="1" stroke="none" xml:space="preserve" x="793" y="220" font-family="Arial" font-size="16" font-weight="400" font-style="normal" 
 >1.390</text>
<text fill="#333333" fill-opacity="1" stroke="none" xml:space="preserve" x="198" y="254" font-family="Arial" font-size="16" font-weight="400" font-style="normal" 
 >row_4</text>
<text fill="#333333" fill-opacity="1" stroke="none" xml:space="preserve" x="256" y="254" font-family="Arial" font-size="16" font-weight="400" font-style="normal" 
 >4.444e+02</text>
<text fill="#333333" fill-opacity="1" stroke="none" xml:space="preserve" x="342" y="254" font-family="Arial" font-size="16" font-weight="400" font-style="normal" 
 >durian</text>
<text fill="#333333" fill-opacity="1" stroke="none" xml:space="preserve" x="434" y="254" font-family="Arial" font-size="16" font-weight="400" font-style="normal" 
 >four</text>
<text fill="#333333" fill-opacity="1" stroke="none" xml:space="preserve" x="479" y="254" font-family="Arial" font-size="16" font-weight="400" font-style="normal" 
 >2015-04-15</text>
<text fill="#333333" fill-opacity="1" stroke="none" xml:space="preserve" x="571" y="254" font-family="Arial" font-size="16" font-weight="400" font-style="normal" 
 >16:50</text>
<text fill="#333333" fill-opacity="1" stroke="none" xml:space="preserve" x="621" y="254" font-family="Arial" font-size="16" font-weight="400" font-style="normal" 
 >2018-04-04 15:55</text>
<text fill="#333333" fill-opacity="1" stroke="none" xml:space="preserve" x="757" y="254" font-family="Arial" font-size="16" font-weight="400" font-style="normal" 
 >65100.000</text>
<text fill="#333333" fill-opacity="1" stroke="none" xml:space="preserve" x="216" y="290" font-family="Arial" font-size="16" font-weight="400" font-style="normal" 
 >min</text>
<text fill="#333333" fill-opacity="1" stroke="none" xml:space="preserve" x="301" y="290" font-family="Arial" font-size="16" font-weight="400" font-style="normal" 
 >0.11</text>
<text fill="#333333" fill-opacity="1" stroke="none" xml:space="preserve" x="342" y="290" font-family="Arial" font-size="16" font-weight="400" font-style="normal" 
 >—</text>
<text fill="#333333" fill-opacity="1" stroke="none" xml:space="preserve" x="439.5" y="290" font-family="Arial" font-size="16" font-weight="400" font-style="normal" 
 >—</text>
<text fill="#333333" fill-opacity="1" stroke="none" xml:space="preserve" x="479" y="290" font-family="Arial" font-size="16" font-weight="400" font-style="normal" 
 >—</text>
<text fill="#333333" fill-opacity="1" stroke="none" xml:space="preserve" x="571" y="290" font-family="Arial" font-size="16" font-weight="400" font-style="normal" 
 >—</text>
<text fill="#333333" fill-opacity="1" stroke="none" xml:space="preserve" x="621" y="290" font-family="Arial" font-size="16" font-weight="400" font-style="normal" 
 >—</text>
<text fill="#333333" fill-opacity="1" stroke="none" xml:space="preserve" x="802" y="290" font-family="Arial" font-size="16" font-weight="400" font-style="normal" 
 >1.39</text>
<text fill="#333333" fill-opacity="1" stroke="none" xml:space="preserve" x="212" y="324" font-family="Arial" font-size="16" font-weight="400" font-style="normal" 
 >max</text>
<text fill="#333333" fill-opacity="1" stroke="none" xml:space="preserve" x="283" y="324" font-family="Arial" font-size="16" font-weight="400" font-style="normal" 
 >444.40</text>
<text fill="#333333" fill-opacity="1" stroke="none" xml:space="preserve" x="342" y="324" font-family="Arial" font-size="16" font-weight="400" font-style="normal" 
 >—</text>
<text fill="#333333" fill-opacity="1" stroke="none" xml:space="preserve" x="439.5" y="324" font-family="Arial" font-size="16" font-weight="400" font-style="normal" 
 >—</text>
<text fill="#333333" fill-opacity="1" stroke="none" xml:space="preserve" x="479" y="324" font-family="Arial" font-size="16" font-weight="400" font-style="normal" 
 >—</text>
<text fill="#333333" fill-opacity="1" stroke="none" xml:space="preserve" x="571" y="324" font-family="Arial" font-size="16" font-weight="400" font-style="normal" 
 >—</text>
<text fill="#333333" fill-opacity="1" stroke="none" xml:space="preserve" x="621" y="324" font-family="Arial" font-size="16" font-weight="400" font-style="normal" 
 >—</text>
<text fill="#333333" fill-opacity="1" stroke="none" xml:space="preserve" x="762" y="324" font-family="Arial" font-size="16" font-weight="400" font-style="normal" 
 >65,100.00</text>
<text fill="#333333" fill-opacity="1" stroke="none" xml:space="preserve" x="194" y="360" font-family="Arial" font-size="16" font-weight="400" font-style="normal" 
 >grp_b</text>
<text fill="#333333" fill-opacity="1" stroke="none" xml:space="preserve" x="198" y="396" font-family="Arial" font-size="16" font-weight="400" font-style="normal" 
 >row_5</text>
<text fill="#333333" fill-opacity="1" stroke="none" xml:space="preserve" x="256" y="396" font-family="Arial" font-size="16" font-weight="400" font-style="normal" 
 >5.550e+03</text>
<text fill="#333333" fill-opacity="1" stroke="none" xml:space="preserve" x="342" y="396" font-family="Arial" font-size="16" font-weight="400" font-style="normal" 
 >NA</text>
<text fill="#333333" fill-opacity="1" stroke="none" xml:space="preserve" x="435" y="396" font-family="Arial" font-size="16" font-weight="400" font-style="normal" 
 >five</text>
<text fill="#333333" fill-opacity="1" stroke="none" xml:space="preserve" x="479" y="396" font-family="Arial" font-size="16" font-weight="400" font-style="normal" 
 >2015-05-15</text>
<text fill="#333333" fill-opacity="1" stroke="none" xml:space="preserve" x="571" y="396" font-family="Arial" font-size="16" font-weight="400" font-style="normal" 
 >17:55</text>
<text fill="#333333" fill-opacity="1" stroke="none" xml:space="preserve" x="621" y="396" font-family="Arial" font-size="16" font-weight="400" font-style="normal" 
 >2018-05-05 04:00</text>
<text fill="#333333" fill-opacity="1" stroke="none" xml:space="preserve" x="766" y="396" font-family="Arial" font-size="16" font-weight="400" font-style="normal" 
 >1325.810</text>
<text fill="#333333" fill-opacity="1" stroke="none" xml:space="preserve" x="198" y="430" font-family="Arial" font-size="16" font-weight="400" font-style="normal" 
 >row_6</text>
<text fill="#333333" fill-opacity="1" stroke="none" xml:space="preserve" x="309" y="430" font-family="Arial" font-size="16" font-weight="400" font-style="normal" 
 >NA</text>
<text fill="#333333" fill-opacity="1" stroke="none" xml:space="preserve" x="342" y="430" font-family="Arial" font-size="16" font-weight="400" font-style="normal" 
 >fig</text>
<text fill="#333333" fill-opacity="1" stroke="none" xml:space="preserve" x="437.5" y="430" font-family="Arial" font-size="16" font-weight="400" font-style="normal" 
 >six</text>
<text fill="#333333" fill-opacity="1" stroke="none" xml:space="preserve" x="479" y="430" font-family="Arial" font-size="16" font-weight="400" font-style="normal" 
 >2015-06-15</text>
<text fill="#333333" fill-opacity="1" stroke="none" xml:space="preserve" x="571" y="430" font-family="Arial" font-size="16" font-weight="400" font-style="normal" 
 >NA</text>
<text fill="#333333" fill-opacity="1" stroke="none" xml:space="preserve" x="621" y="430" font-family="Arial" font-size="16" font-weight="400" font-style="normal" 
 >2018-06-06 16:11</text>
<text fill="#333333" fill-opacity="1" stroke="none" xml:space="preserve" x="784" y="430" font-family="Arial" font-size="16" font-weight="400" font-style="normal" 
 >13.255</text>
<text fill="#333333" fill-opacity="1" stroke="none" xml:space="preserve" x="198" y="464" font-family="Arial" font-size="16" font-weight="400" font-style="normal" 
 >row_7</text>
<text fill="#333333" fill-opacity="1" stroke="none" xml:space="preserve" x="256" y="464" font-family="Arial" font-size="16" font-weight="400" font-style="normal" 
 >7.770e+05</text>
<text fill="#333333" fill-opacity="1" stroke="none" xml:space="preserve" x="342" y="464" font-family="Arial" font-size="16" font-weight="400" font-style="normal" 
 >grapefruit</text>
<text fill="#333333" fill-opacity="1" stroke="none" xml:space="preserve" x="426" y="464" font-family="Arial" font-size="16" font-weight="400" font-style="normal" 
 >seven</text>
<text fill="#333333" fill-opacity="1" stroke="none" xml:space="preserve" x="479" y="464" font-family="Arial" font-size="16" font-weight="400" font-style="normal" 
 >NA</text>
<text fill="#333333" fill-opacity="1" stroke="none" xml:space="preserve" x="571" y="464" font-family="Arial" font-size="16" font-weight="400" font-style="normal" 
 >19:10</text>
<text fill="#333333" fill-opacity="1" stroke="none" xml:space="preserve" x="621" y="464" font-family="Arial" font-size="16" font-weight="400" font-style="normal" 
 >2018-07-07 05:22</text>
<text fill="#333333" fill-opacity="1" stroke="none" xml:space="preserve" x="810" y="464" font-family="Arial" font-size="16" font-weight="400" font-style="normal" 
 >NA</text>
<text fill="#333333" fill-opacity="1" stroke="none" xml:space="preserve" x="198" y="498" font-family="Arial" font-size="16" font-weight="400" font-style="normal" 
 >row_8</text>
<text fill="#333333" fill-opacity="1" stroke="none" xml:space="preserve" x="256" y="498" font-family="Arial" font-size="16" font-weight="400" font-style="normal" 
 >8.880e+06</text>
<text fill="#333333" fill-opacity="1" stroke="none" xml:space="preserve" x="342" y="498" font-family="Arial" font-size="16" font-weight="400" font-style="normal" 
 >honeydew</text>
<text fill="#333333" fill-opacity="1" stroke="none" xml:space="preserve" x="430" y="498" font-family="Arial" font-size="16" font-weight="400" font-style="normal" 
 >eight</text>
<text fill="#333333" fill-opacity="1" stroke="none" xml:space="preserve" x="479" y="498" font-family="Arial" font-size="16" font-weight="400" font-style="normal" 
 >2015-08-15</text>
<text fill="#333333" fill-opacity="1" stroke="none" xml:space="preserve" x="571" y="498" font-family="Arial" font-size="16" font-weight="400" font-style="normal" 
 >20:20</text>
<text fill="#333333" fill-opacity="1" stroke="none" xml:space="preserve" x="621" y="498" font-family="Arial" font-size="16" font-weight="400" font-style="normal" 
 >NA</text>
<text fill="#333333" fill-opacity="1" stroke="none" xml:space="preserve" x="793" y="498" font-family="Arial" font-size="16" font-weight="400" font-style="normal" 
 >0.440</text>
<text fill="#333333" fill-opacity="1" stroke="none" xml:space="preserve" x="212" y="538" font-family="Arial" font-size="16" font-weight="400" font-style="normal" 
 >total</text>
<text fill="#333333" fill-opacity="1" stroke="none" xml:space="preserve" x="316" y="538" font-family="Arial" font-size="16" font-weight="400" font-style="normal" 
 >—</text>
<text fill="#333333" fill-opacity="1" stroke="none" xml:space="preserve" x="342" y="538" font-family="Arial" font-size="16" font-weight="400" font-style="normal" 
 >—</text>
<text fill="#333333" fill-opacity="1" stroke="none" xml:space="preserve" x="439.5" y="538" font-family="Arial" font-size="16" font-weight="400" font-style="normal" 
 >—</text>
<text fill="#333333" fill-opacity="1" stroke="none" xml:space="preserve" x="479" y="538" font-family="Arial" font-size="16" font-weight="400" font-style="normal" 
 >—</text>
<text fill="#333333" fill-opacity="1" stroke="none" xml:space="preserve" x="571" y="538" font-family="Arial" font-size="16" font-weight="400" font-style="normal" 
 >—</text>
<text fill="#333333" fill-opacity="1" stroke="none" xml:space="preserve" x="621" y="538" font-family="Arial" font-size="16" font-weight="400" font-style="normal" 
 >—</text>
<text fill="#333333" fill-opacity="1" stroke="none" xml:space="preserve" x="762" y="538" font-family="Arial" font-size="16" font-weight="400" font-style="normal" 
 >66,508.79</text>
</g>

<g fill="#333333" fill-opacity="1" stroke="#333333" stroke-opacity="1" stroke-width="1" stroke-linecap="square" stroke-linejoin="bevel" transform="matrix(1,0,0,1,0,0)"
font-family="Arial" font-size="14" font-weight="400" font-style="normal" 
>
<text fill="#333333" fill-opacity="1" stroke="none" xml:space="preserve" x="190" y="595" font-family="Arial" font-size="14" font-weight="400" font-style="normal" 
 >This is a source note.</text>
</g>

<g fill="#333333" fill-opacity="1" stroke="#333333" stroke-opacity="1" stroke-width="1" stroke-linecap="square" stroke-linejoin="bevel" transform="matrix(1,0,0,1,0,0)"
font-family="Arial" font-size="9" font-weight="400" font-style="italic" 
>
<text fill="#333333" fill-opacity="1" stroke="none" xml:space="preserve" x="191" y="565" font-family="Arial" font-size="9" font-weight="400" font-style="italic" 
 >1</text>
<text fill="#333333" fill-opacity="1" stroke="none" xml:space="preserve" x="196" y="565" font-family="Arial" font-size="9" font-weight="400" font-style="italic" 
 > </text>
</g>

<g fill="#333333" fill-opacity="1" stroke="#333333" stroke-opacity="1" stroke-width="1" stroke-linecap="square" stroke-linejoin="bevel" transform="matrix(1,0,0,1,0,0)"
font-family="Arial" font-size="14" font-weight="400" font-style="normal" 
>
<text fill="#333333" fill-opacity="1" stroke="none" xml:space="preserve" x="199" y="570" font-family="Arial" font-size="14" font-weight="400" font-style="normal" 
 >This is a footnote. </text>
</g>
</g>
</svg>
