<?xml version="1.0" encoding="UTF-8" standalone="no"?>
<svg width="361.244mm" height="160.867mm"
 viewBox="0 0 1024 456"
 xmlns="http://www.w3.org/2000/svg" xmlns:xlink="http://www.w3.org/1999/xlink"  version="1.2" baseProfile="tiny">
<title>Qt Svg Document</title>
<desc>Generated with Qt</desc>
<defs>
</defs>
<g fill="none" stroke="black" stroke-width="1" fill-rule="evenodd" stroke-linecap="square" stroke-linejoin="bevel" >

<g fill="#ffffff" fill-opacity="1" stroke="none" transform="matrix(1,0,0,1,0,0)"
font-family="Helvetica" font-size="12" font-weight="400" font-style="normal" 
>
<path vector-effect="non-scaling-stroke" fill-rule="evenodd" d="M0,0 L1024,0 L1024,456 L0,456 L0,0"/>
<path vector-effect="non-scaling-stroke" fill-rule="evenodd" d="M0,0 L1024,0 L1024,456 L0,456 L0,0"/>
<path vector-effect="non-scaling-stroke" fill-rule="evenodd" d="M0,0 L1024,0 L1024,456 L0,456 L0,0"/>
<path vector-effect="non-scaling-stroke" fill-rule="evenodd" d="M337,8 L687,8 L687,448 L337,448 L337,8"/>
<path vector-effect="non-scaling-stroke" fill-rule="evenodd" d="M337,9 L687,9 L687,38 L337,38 L337,9"/>
<path vector-effect="non-scaling-stroke" fill-rule="evenodd" d="M337,38 L687,38 L687,62 L337,62 L337,38"/>
<path vector-effect="non-scaling-stroke" fill-rule="evenodd" d="M337,62 L397,62 L397,103 L337,103 L337,62"/>
<path vector-effect="non-scaling-stroke" fill-rule="evenodd" d="M397,62 L507,62 L507,103 L397,103 L397,62"/>
<path vector-effect="non-scaling-stroke" fill-rule="evenodd" d="M507,62 L591,62 L591,103 L507,103 L507,62"/>
<path vector-effect="non-scaling-stroke" fill-rule="evenodd" d="M591,62 L687,62 L687,103 L591,103 L591,62"/>
<path vector-effect="non-scaling-stroke" fill-rule="evenodd" d="M337,103 L687,103 L687,139 L337,139 L337,103"/>
</g>

<g fill="#f2f2f2" fill-opacity="1" stroke="none" transform="matrix(1,0,0,1,0,0)"
font-family="Helvetica" font-size="12" font-weight="400" font-style="normal" 
>
<path vector-effect="non-scaling-stroke" fill-rule="evenodd" d="M337,139 L397,139 L397,168 L337,168 L337,139"/>
</g>

<g fill="#ffffff" fill-opacity="1" stroke="none" transform="matrix(1,0,0,1,0,0)"
font-family="Helvetica" font-size="12" font-weight="400" font-style="normal" 
>
<path vector-effect="non-scaling-stroke" fill-rule="evenodd" d="M337,139 L397,139 L397,168 L337,168 L337,139"/>
</g>

<g fill="#f2f2f2" fill-opacity="1" stroke="none" transform="matrix(1,0,0,1,0,0)"
font-family="Helvetica" font-size="12" font-weight="400" font-style="normal" 
>
<path vector-effect="non-scaling-stroke" fill-rule="evenodd" d="M397,139 L507,139 L507,168 L397,168 L397,139"/>
<path vector-effect="non-scaling-stroke" fill-rule="evenodd" d="M507,139 L591,139 L591,168 L507,168 L507,139"/>
<path vector-effect="non-scaling-stroke" fill-rule="evenodd" d="M591,139 L687,139 L687,168 L591,168 L591,139"/>
</g>

<g fill="#ffffff" fill-opacity="1" stroke="none" transform="matrix(1,0,0,1,0,0)"
font-family="Helvetica" font-size="12" font-weight="400" font-style="normal" 
>
<path vector-effect="non-scaling-stroke" fill-rule="evenodd" d="M337,168 L397,168 L397,196 L337,196 L337,168"/>
</g>

<g fill="#f2f2f2" fill-opacity="1" stroke="none" transform="matrix(1,0,0,1,0,0)"
font-family="Helvetica" font-size="12" font-weight="400" font-style="normal" 
>
<path vector-effect="non-scaling-stroke" fill-rule="evenodd" d="M337,196 L397,196 L397,224 L337,224 L337,196"/>
</g>

<g fill="#ffffff" fill-opacity="1" stroke="none" transform="matrix(1,0,0,1,0,0)"
font-family="Helvetica" font-size="12" font-weight="400" font-style="normal" 
>
<path vector-effect="non-scaling-stroke" fill-rule="evenodd" d="M337,196 L397,196 L397,224 L337,224 L337,196"/>
</g>

<g fill="#f2f2f2" fill-opacity="1" stroke="none" transform="matrix(1,0,0,1,0,0)"
font-family="Helvetica" font-size="12" font-weight="400" font-style="normal" 
>
<path vector-effect="non-scaling-stroke" fill-rule="evenodd" d="M397,196 L507,196 L507,224 L397,224 L397,196"/>
<path vector-effect="non-scaling-stroke" fill-rule="evenodd" d="M507,196 L591,196 L591,224 L507,224 L507,196"/>
<path vector-effect="non-scaling-stroke" fill-rule="evenodd" d="M591,196 L687,196 L687,224 L591,224 L591,196"/>
</g>

<g fill="#ffffff" fill-opacity="1" stroke="none" transform="matrix(1,0,0,1,0,0)"
font-family="Helvetica" font-size="12" font-weight="400" font-style="normal" 
>
<path vector-effect="non-scaling-stroke" fill-rule="evenodd" d="M337,224 L397,224 L397,254 L337,254 L337,224"/>
</g>

<g fill="#f2f2f2" fill-opacity="1" stroke="none" transform="matrix(1,0,0,1,0,0)"
font-family="Helvetica" font-size="12" font-weight="400" font-style="normal" 
>
<path vector-effect="non-scaling-stroke" fill-rule="evenodd" d="M337,254 L687,254 L687,290 L337,290 L337,254"/>
</g>

<g fill="#ffffff" fill-opacity="1" stroke="none" transform="matrix(1,0,0,1,0,0)"
font-family="Helvetica" font-size="12" font-weight="400" font-style="normal" 
>
<path vector-effect="non-scaling-stroke" fill-rule="evenodd" d="M337,254 L687,254 L687,290 L337,290 L337,254"/>
<path vector-effect="non-scaling-stroke" fill-rule="evenodd" d="M337,290 L397,290 L397,320 L337,320 L337,290"/>
</g>

<g fill="#f2f2f2" fill-opacity="1" stroke="none" transform="matrix(1,0,0,1,0,0)"
font-family="Helvetica" font-size="12" font-weight="400" font-style="normal" 
>
<path vector-effect="non-scaling-stroke" fill-rule="evenodd" d="M337,320 L397,320 L397,348 L337,348 L337,320"/>
</g>

<g fill="#ffffff" fill-opacity="1" stroke="none" transform="matrix(1,0,0,1,0,0)"
font-family="Helvetica" font-size="12" font-weight="400" font-style="normal" 
>
<path vector-effect="non-scaling-stroke" fill-rule="evenodd" d="M337,320 L397,320 L397,348 L337,348 L337,320"/>
</g>

<g fill="#f2f2f2" fill-opacity="1" stroke="none" transform="matrix(1,0,0,1,0,0)"
font-family="Helvetica" font-size="12" font-weight="400" font-style="normal" 
>
<path vector-effect="non-scaling-stroke" fill-rule="evenodd" d="M397,320 L507,320 L507,348 L397,348 L397,320"/>
<path vector-effect="non-scaling-stroke" fill-rule="evenodd" d="M507,320 L591,320 L591,348 L507,348 L507,320"/>
<path vector-effect="non-scaling-stroke" fill-rule="evenodd" d="M591,320 L687,320 L687,348 L591,348 L591,320"/>
</g>

<g fill="#ffffff" fill-opacity="1" stroke="none" transform="matrix(1,0,0,1,0,0)"
font-family="Helvetica" font-size="12" font-weight="400" font-style="normal" 
>
<path vector-effect="non-scaling-stroke" fill-rule="evenodd" d="M337,348 L397,348 L397,377 L337,377 L337,348"/>
</g>

<g fill="#f2f2f2" fill-opacity="1" stroke="none" transform="matrix(1,0,0,1,0,0)"
font-family="Helvetica" font-size="12" font-weight="400" font-style="normal" 
>
<path vector-effect="non-scaling-stroke" fill-rule="evenodd" d="M337,377 L397,377 L397,407 L337,407 L337,377"/>
</g>

<g fill="#ffffff" fill-opacity="1" stroke="none" transform="matrix(1,0,0,1,0,0)"
font-family="Helvetica" font-size="12" font-weight="400" font-style="normal" 
>
<path vector-effect="non-scaling-stroke" fill-rule="evenodd" d="M337,377 L397,377 L397,407 L337,407 L337,377"/>
</g>

<g fill="#f2f2f2" fill-opacity="1" stroke="none" transform="matrix(1,0,0,1,0,0)"
font-family="Helvetica" font-size="12" font-weight="400" font-style="normal" 
>
<path vector-effect="non-scaling-stroke" fill-rule="evenodd" d="M397,377 L507,377 L507,407 L397,407 L397,377"/>
<path vector-effect="non-scaling-stroke" fill-rule="evenodd" d="M507,377 L591,377 L591,407 L507,407 L507,377"/>
<path vector-effect="non-scaling-stroke" fill-rule="evenodd" d="M591,377 L687,377 L687,407 L591,407 L591,377"/>
</g>

<g fill="#a8a8a8" fill-opacity="1" stroke="none" transform="matrix(1,0,0,1,0,0)"
font-family="Helvetica" font-size="12" font-weight="400" font-style="normal" 
>
<path vector-effect="non-scaling-stroke" fill-rule="evenodd" d="M337,8 L687,8 L687,10 L337,10 L337,8"/>
<path vector-effect="non-scaling-stroke" fill-rule="evenodd" d="M337,406 L398,406 L398,408 L337,408 L337,406"/>
<path vector-effect="non-scaling-stroke" fill-rule="evenodd" d="M396,406 L507,406 L507,408 L396,408 L396,406"/>
<path vector-effect="non-scaling-stroke" fill-rule="evenodd" d="M507,406 L591,406 L591,408 L507,408 L507,406"/>
<path vector-effect="non-scaling-stroke" fill-rule="evenodd" d="M591,406 L687,406 L687,408 L591,408 L591,406"/>
<path vector-effect="non-scaling-stroke" fill-rule="evenodd" d="M337,406 L687,406 L687,408 L337,408 L337,406"/>
<path vector-effect="non-scaling-stroke" fill-rule="evenodd" d="M337,61 L687,61 L687,63 L337,63 L337,61"/>
<path vector-effect="non-scaling-stroke" fill-rule="evenodd" d="M337,61 L397,61 L397,63 L337,63 L337,61"/>
<path vector-effect="non-scaling-stroke" fill-rule="evenodd" d="M337,102 L397,102 L397,104 L337,104 L337,102"/>
<path vector-effect="non-scaling-stroke" fill-rule="evenodd" d="M397,61 L507,61 L507,63 L397,63 L397,61"/>
<path vector-effect="non-scaling-stroke" fill-rule="evenodd" d="M397,102 L507,102 L507,104 L397,104 L397,102"/>
<path vector-effect="non-scaling-stroke" fill-rule="evenodd" d="M507,61 L591,61 L591,63 L507,63 L507,61"/>
<path vector-effect="non-scaling-stroke" fill-rule="evenodd" d="M507,102 L591,102 L591,104 L507,104 L507,102"/>
<path vector-effect="non-scaling-stroke" fill-rule="evenodd" d="M591,61 L687,61 L687,63 L591,63 L591,61"/>
<path vector-effect="non-scaling-stroke" fill-rule="evenodd" d="M591,102 L687,102 L687,104 L591,104 L591,102"/>
<path vector-effect="non-scaling-stroke" fill-rule="evenodd" d="M337,102 L687,102 L687,104 L337,104 L337,102"/>
<path vector-effect="non-scaling-stroke" fill-rule="evenodd" d="M337,138 L687,138 L687,140 L337,140 L337,138"/>
<path vector-effect="non-scaling-stroke" fill-rule="evenodd" d="M337,138 L398,138 L398,140 L337,140 L337,138"/>
<path vector-effect="non-scaling-stroke" fill-rule="evenodd" d="M396,138 L398,138 L398,168 L396,168 L396,138"/>
<path vector-effect="non-scaling-stroke" fill-rule="evenodd" d="M396,138 L507,138 L507,140 L396,140 L396,138"/>
<path vector-effect="non-scaling-stroke" fill-rule="evenodd" d="M396,138 L398,138 L398,168 L396,168 L396,138"/>
<path vector-effect="non-scaling-stroke" fill-rule="evenodd" d="M507,138 L591,138 L591,140 L507,140 L507,138"/>
<path vector-effect="non-scaling-stroke" fill-rule="evenodd" d="M591,138 L687,138 L687,140 L591,140 L591,138"/>
<path vector-effect="non-scaling-stroke" fill-rule="evenodd" d="M396,168 L398,168 L398,196 L396,196 L396,168"/>
<path vector-effect="non-scaling-stroke" fill-rule="evenodd" d="M396,168 L398,168 L398,196 L396,196 L396,168"/>
<path vector-effect="non-scaling-stroke" fill-rule="evenodd" d="M396,196 L398,196 L398,224 L396,224 L396,196"/>
<path vector-effect="non-scaling-stroke" fill-rule="evenodd" d="M396,196 L398,196 L398,224 L396,224 L396,196"/>
<path vector-effect="non-scaling-stroke" fill-rule="evenodd" d="M337,253 L398,253 L398,255 L337,255 L337,253"/>
<path vector-effect="non-scaling-stroke" fill-rule="evenodd" d="M396,224 L398,224 L398,255 L396,255 L396,224"/>
<path vector-effect="non-scaling-stroke" fill-rule="evenodd" d="M396,253 L507,253 L507,255 L396,255 L396,253"/>
<path vector-effect="non-scaling-stroke" fill-rule="evenodd" d="M396,224 L398,224 L398,255 L396,255 L396,224"/>
<path vector-effect="non-scaling-stroke" fill-rule="evenodd" d="M507,253 L591,253 L591,255 L507,255 L507,253"/>
<path vector-effect="non-scaling-stroke" fill-rule="evenodd" d="M591,253 L687,253 L687,255 L591,255 L591,253"/>
<path vector-effect="non-scaling-stroke" fill-rule="evenodd" d="M337,253 L687,253 L687,255 L337,255 L337,253"/>
<path vector-effect="non-scaling-stroke" fill-rule="evenodd" d="M337,289 L687,289 L687,291 L337,291 L337,289"/>
<path vector-effect="non-scaling-stroke" fill-rule="evenodd" d="M337,289 L398,289 L398,291 L337,291 L337,289"/>
<path vector-effect="non-scaling-stroke" fill-rule="evenodd" d="M396,289 L398,289 L398,320 L396,320 L396,289"/>
<path vector-effect="non-scaling-stroke" fill-rule="evenodd" d="M396,289 L507,289 L507,291 L396,291 L396,289"/>
<path vector-effect="non-scaling-stroke" fill-rule="evenodd" d="M396,289 L398,289 L398,320 L396,320 L396,289"/>
<path vector-effect="non-scaling-stroke" fill-rule="evenodd" d="M507,289 L591,289 L591,291 L507,291 L507,289"/>
<path vector-effect="non-scaling-stroke" fill-rule="evenodd" d="M591,289 L687,289 L687,291 L591,291 L591,289"/>
<path vector-effect="non-scaling-stroke" fill-rule="evenodd" d="M396,320 L398,320 L398,348 L396,348 L396,320"/>
<path vector-effect="non-scaling-stroke" fill-rule="evenodd" d="M396,320 L398,320 L398,348 L396,348 L396,320"/>
<path vector-effect="non-scaling-stroke" fill-rule="evenodd" d="M396,348 L398,348 L398,377 L396,377 L396,348"/>
<path vector-effect="non-scaling-stroke" fill-rule="evenodd" d="M396,348 L398,348 L398,377 L396,377 L396,348"/>
<path vector-effect="non-scaling-stroke" fill-rule="evenodd" d="M396,377 L398,377 L398,408 L396,408 L396,377"/>
<path vector-effect="non-scaling-stroke" fill-rule="evenodd" d="M396,377 L398,377 L398,408 L396,408 L396,377"/>
</g>

<g fill="#000000" fill-opacity="1" stroke="#000000" stroke-opacity="1" stroke-width="1" stroke-linecap="square" stroke-linejoin="bevel" transform="matrix(1,0,0,1,0,0)"
font-family="Arial" font-size="20" font-weight="400" font-style="normal" 
>
<text fill="#000000" fill-opacity="1" stroke="none" xml:space="preserve" x="402" y="32" font-family="Arial" font-size="20" font-weight="400" font-style="normal" 
 >Data listing from </text>
</g>

<g fill="#000000" fill-opacity="1" stroke="#000000" stroke-opacity="1" stroke-width="1" stroke-linecap="square" stroke-linejoin="bevel" transform="matrix(1,0,0,1,0,0)"
font-family="Arial" font-size="20" font-weight="700" font-style="normal" 
>
<text fill="#000000" fill-opacity="1" stroke="none" xml:space="preserve" x="553" y="32" font-family="Arial" font-size="20" font-weight="700" font-style="normal" 
 >exibble</text>
</g>

<g fill="#000000" fill-opacity="1" stroke="#000000" stroke-opacity="1" stroke-width="1" stroke-linecap="square" stroke-linejoin="bevel" transform="matrix(1,0,0,1,0,0)"
font-family="Courier New" font-size="14" font-weight="400" font-style="normal" 
>
<text fill="#000000" fill-opacity="1" stroke="none" xml:space="preserve" x="434.5" y="52" font-family="Courier New" font-size="14" font-weight="400" font-style="normal" 
 >exibble</text>
</g>

<g fill="#000000" fill-opacity="1" stroke="#000000" stroke-opacity="1" stroke-width="1" stroke-linecap="square" stroke-linejoin="bevel" transform="matrix(1,0,0,1,0,0)"
font-family="Arial" font-size="14" font-weight="400" font-style="normal" 
>
<text fill="#000000" fill-opacity="1" stroke="none" xml:space="preserve" x="490.5" y="52" font-family="Arial" font-size="14" font-weight="400" font-style="normal" 
 > is an R dataset</text>
</g>

<g fill="#000000" fill-opacity="1" stroke="#000000" stroke-opacity="1" stroke-width="1" stroke-linecap="square" stroke-linejoin="bevel" transform="matrix(1,0,0,1,0,0)"
font-family="Arial" font-size="16" font-weight="400" font-style="normal" 
>
<text fill="#000000" fill-opacity="1" stroke="none" xml:space="preserve" x="466" y="87" font-family="Arial" font-size="16" font-weight="400" font-style="normal" 
 >num</text>
<text fill="#000000" fill-opacity="1" stroke="none" xml:space="preserve" x="517" y="88" font-family="Arial" font-size="16" font-weight="400" font-style="normal" 
 >char</text>
</g>

<g fill="#000000" fill-opacity="1" stroke="#000000" stroke-opacity="1" stroke-width="1" stroke-linecap="square" stroke-linejoin="bevel" transform="matrix(1,0,0,1,0,0)"
font-family="Arial" font-size="10" font-weight="400" font-style="italic" 
>
<text fill="#000000" fill-opacity="1" stroke="none" xml:space="preserve" x="548" y="82" font-family="Arial" font-size="10" font-weight="400" font-style="italic" 
 >1</text>
</g>

<g fill="#000000" fill-opacity="1" stroke="#000000" stroke-opacity="1" stroke-width="1" stroke-linecap="square" stroke-linejoin="bevel" transform="matrix(1,0,0,1,0,0)"
font-family="Arial" font-size="16" font-weight="400" font-style="normal" 
>
<text fill="#000000" fill-opacity="1" stroke="none" xml:space="preserve" x="616" y="87" font-family="Arial" font-size="16" font-weight="400" font-style="normal" 
 >currency</text>
<text fill="#000000" fill-opacity="1" stroke="none" xml:space="preserve" x="345" y="126" font-family="Arial" font-size="16" font-weight="400" font-style="normal" 
 >grp_a</text>
<text fill="#000000" fill-opacity="1" stroke="none" xml:space="preserve" x="347" y="159" font-family="Arial" font-size="16" font-weight="400" font-style="normal" 
 >row_1</text>
<text fill="#000000" fill-opacity="1" stroke="none" xml:space="preserve" x="471" y="159" font-family="Arial" font-size="16" font-weight="400" font-style="normal" 
 >0.11</text>
<text fill="#000000" fill-opacity="1" stroke="none" xml:space="preserve" x="512" y="159" font-family="Arial" font-size="16" font-weight="400" font-style="normal" 
 >apricot</text>
<text fill="#000000" fill-opacity="1" stroke="none" xml:space="preserve" x="633" y="159" font-family="Arial" font-size="16" font-weight="400" font-style="normal" 
 >$49.95</text>
<text fill="#000000" fill-opacity="1" stroke="none" xml:space="preserve" x="347" y="187" font-family="Arial" font-size="16" font-weight="400" font-style="normal" 
 >row_2</text>
<text fill="#000000" fill-opacity="1" stroke="none" xml:space="preserve" x="471" y="187" font-family="Arial" font-size="16" font-weight="400" font-style="normal" 
 >2.22</text>
<text fill="#000000" fill-opacity="1" stroke="none" xml:space="preserve" x="512" y="187" font-family="Arial" font-size="16" font-weight="400" font-style="normal" 
 >banana</text>
<text fill="#000000" fill-opacity="1" stroke="none" xml:space="preserve" x="633" y="187" font-family="Arial" font-size="16" font-weight="400" font-style="normal" 
 >$17.95</text>
<text fill="#000000" fill-opacity="1" stroke="none" xml:space="preserve" x="347" y="215" font-family="Arial" font-size="16" font-weight="400" font-style="normal" 
 >row_3</text>
<text fill="#000000" fill-opacity="1" stroke="none" xml:space="preserve" x="462" y="215" font-family="Arial" font-size="16" font-weight="400" font-style="normal" 
 >33.33</text>
<text fill="#000000" fill-opacity="1" stroke="none" xml:space="preserve" x="512" y="215" font-family="Arial" font-size="16" font-weight="400" font-style="normal" 
 >coconut</text>
<text fill="#000000" fill-opacity="1" stroke="none" xml:space="preserve" x="642" y="215" font-family="Arial" font-size="16" font-weight="400" font-style="normal" 
 >$1.39</text>
<text fill="#000000" fill-opacity="1" stroke="none" xml:space="preserve" x="347" y="243" font-family="Arial" font-size="16" font-weight="400" font-style="normal" 
 >row_4</text>
<text fill="#000000" fill-opacity="1" stroke="none" xml:space="preserve" x="453" y="243" font-family="Arial" font-size="16" font-weight="400" font-style="normal" 
 >444.40</text>
<text fill="#000000" fill-opacity="1" stroke="none" xml:space="preserve" x="512" y="243" font-family="Arial" font-size="16" font-weight="400" font-style="normal" 
 >durian</text>
<text fill="#000000" fill-opacity="1" stroke="none" xml:space="preserve" x="596" y="244" font-family="Arial" font-size="16" font-weight="400" font-style="normal" 
 >$65,100.00</text>
</g>

<g fill="#000000" fill-opacity="1" stroke="#000000" stroke-opacity="1" stroke-width="1" stroke-linecap="square" stroke-linejoin="bevel" transform="matrix(1,0,0,1,0,0)"
font-family="Arial" font-size="10" font-weight="400" font-style="italic" 
>
<text fill="#000000" fill-opacity="1" stroke="none" xml:space="preserve" x="676" y="238" font-family="Arial" font-size="10" font-weight="400" font-style="italic" 
 >2</text>
</g>

<g fill="#000000" fill-opacity="1" stroke="#000000" stroke-opacity="1" stroke-width="1" stroke-linecap="square" stroke-linejoin="bevel" transform="matrix(1,0,0,1,0,0)"
font-family="Arial" font-size="16" font-weight="400" font-style="normal" 
>
<text fill="#000000" fill-opacity="1" stroke="none" xml:space="preserve" x="345" y="277" font-family="Arial" font-size="16" font-weight="400" font-style="normal" 
 >grp_b</text>
<text fill="#000000" fill-opacity="1" stroke="none" xml:space="preserve" x="347" y="310" font-family="Arial" font-size="16" font-weight="400" font-style="normal" 
 >row_5</text>
<text fill="#000000" fill-opacity="1" stroke="none" xml:space="preserve" x="434" y="311" font-family="Arial" font-size="16" font-weight="400" font-style="normal" 
 >5,550.00</text>
</g>

<g fill="#000000" fill-opacity="1" stroke="#000000" stroke-opacity="1" stroke-width="1" stroke-linecap="square" stroke-linejoin="bevel" transform="matrix(1,0,0,1,0,0)"
font-family="Arial" font-size="10" font-weight="400" font-style="italic" 
>
<text fill="#000000" fill-opacity="1" stroke="none" xml:space="preserve" x="496" y="305" font-family="Arial" font-size="10" font-weight="400" font-style="italic" 
 >2</text>
</g>

<g fill="#000000" fill-opacity="1" stroke="#000000" stroke-opacity="1" stroke-width="1" stroke-linecap="square" stroke-linejoin="bevel" transform="matrix(1,0,0,1,0,0)"
font-family="Arial" font-size="16" font-weight="400" font-style="normal" 
>
<text fill="#000000" fill-opacity="1" stroke="none" xml:space="preserve" x="512" y="310" font-family="Arial" font-size="16" font-weight="400" font-style="normal" 
 >NA</text>
<text fill="#000000" fill-opacity="1" stroke="none" xml:space="preserve" x="605" y="311" font-family="Arial" font-size="16" font-weight="400" font-style="normal" 
 >$1,325.81</text>
</g>

<g fill="#000000" fill-opacity="1" stroke="#000000" stroke-opacity="1" stroke-width="1" stroke-linecap="square" stroke-linejoin="bevel" transform="matrix(1,0,0,1,0,0)"
font-family="Arial" font-size="10" font-weight="400" font-style="italic" 
>
<text fill="#000000" fill-opacity="1" stroke="none" xml:space="preserve" x="676" y="305" font-family="Arial" font-size="10" font-weight="400" font-style="italic" 
 >2</text>
</g>

<g fill="#000000" fill-opacity="1" stroke="#000000" stroke-opacity="1" stroke-width="1" stroke-linecap="square" stroke-linejoin="bevel" transform="matrix(1,0,0,1,0,0)"
font-family="Arial" font-size="16" font-weight="400" font-style="normal" 
>
<text fill="#000000" fill-opacity="1" stroke="none" xml:space="preserve" x="347" y="339" font-family="Arial" font-size="16" font-weight="400" font-style="normal" 
 >row_6</text>
<text fill="#000000" fill-opacity="1" stroke="none" xml:space="preserve" x="479" y="339" font-family="Arial" font-size="16" font-weight="400" font-style="normal" 
 >NA</text>
<text fill="#000000" fill-opacity="1" stroke="none" xml:space="preserve" x="512" y="339" font-family="Arial" font-size="16" font-weight="400" font-style="normal" 
 >fig</text>
<text fill="#000000" fill-opacity="1" stroke="none" xml:space="preserve" x="633" y="339" font-family="Arial" font-size="16" font-weight="400" font-style="normal" 
 >$13.26</text>
<text fill="#000000" fill-opacity="1" stroke="none" xml:space="preserve" x="347" y="367" font-family="Arial" font-size="16" font-weight="400" font-style="normal" 
 >row_7</text>
<text fill="#000000" fill-opacity="1" stroke="none" xml:space="preserve" x="416" y="368" font-family="Arial" font-size="16" font-weight="400" font-style="normal" 
 >777,000.00</text>
</g>

<g fill="#000000" fill-opacity="1" stroke="#000000" stroke-opacity="1" stroke-width="1" stroke-linecap="square" stroke-linejoin="bevel" transform="matrix(1,0,0,1,0,0)"
font-family="Arial" font-size="10" font-weight="400" font-style="italic" 
>
<text fill="#000000" fill-opacity="1" stroke="none" xml:space="preserve" x="496" y="362" font-family="Arial" font-size="10" font-weight="400" font-style="italic" 
 >2</text>
</g>

<g fill="#000000" fill-opacity="1" stroke="#000000" stroke-opacity="1" stroke-width="1" stroke-linecap="square" stroke-linejoin="bevel" transform="matrix(1,0,0,1,0,0)"
font-family="Arial" font-size="16" font-weight="400" font-style="normal" 
>
<text fill="#000000" fill-opacity="1" stroke="none" xml:space="preserve" x="512" y="367" font-family="Arial" font-size="16" font-weight="400" font-style="normal" 
 >grapefruit</text>
<text fill="#000000" fill-opacity="1" stroke="none" xml:space="preserve" x="659" y="367" font-family="Arial" font-size="16" font-weight="400" font-style="normal" 
 >NA</text>
<text fill="#000000" fill-opacity="1" stroke="none" xml:space="preserve" x="347" y="396" font-family="Arial" font-size="16" font-weight="400" font-style="normal" 
 >row_8</text>
<text fill="#000000" fill-opacity="1" stroke="none" xml:space="preserve" x="403" y="397" font-family="Arial" font-size="16" font-weight="400" font-style="normal" 
 >8,880,000.00</text>
</g>

<g fill="#000000" fill-opacity="1" stroke="#000000" stroke-opacity="1" stroke-width="1" stroke-linecap="square" stroke-linejoin="bevel" transform="matrix(1,0,0,1,0,0)"
font-family="Arial" font-size="10" font-weight="400" font-style="italic" 
>
<text fill="#000000" fill-opacity="1" stroke="none" xml:space="preserve" x="496" y="391" font-family="Arial" font-size="10" font-weight="400" font-style="italic" 
 >2</text>
</g>

<g fill="#000000" fill-opacity="1" stroke="#000000" stroke-opacity="1" stroke-width="1" stroke-linecap="square" stroke-linejoin="bevel" transform="matrix(1,0,0,1,0,0)"
font-family="Arial" font-size="16" font-weight="400" font-style="normal" 
>
<text fill="#000000" fill-opacity="1" stroke="none" xml:space="preserve" x="512" y="396" font-family="Arial" font-size="16" font-weight="400" font-style="normal" 
 >honeydew</text>
<text fill="#000000" fill-opacity="1" stroke="none" xml:space="preserve" x="642" y="396" font-family="Arial" font-size="16" font-weight="400" font-style="normal" 
 >$0.44</text>
</g>

<g fill="#000000" fill-opacity="1" stroke="#000000" stroke-opacity="1" stroke-width="1" stroke-linecap="square" stroke-linejoin="bevel" transform="matrix(1,0,0,1,0,0)"
font-family="Arial" font-size="9" font-weight="400" font-style="italic" 
>
<text fill="#000000" fill-opacity="1" stroke="none" xml:space="preserve" x="341" y="420" font-family="Arial" font-size="9" font-weight="400" font-style="italic" 
 >1</text>
</g>

<g fill="#000000" fill-opacity="1" stroke="#000000" stroke-opacity="1" stroke-width="1" stroke-linecap="square" stroke-linejoin="bevel" transform="matrix(1,0,0,1,0,0)"
font-family="Arial" font-size="14" font-weight="400" font-style="normal" 
>
<text fill="#000000" fill-opacity="1" stroke="none" xml:space="preserve" x="346" y="425" font-family="Arial" font-size="14" font-weight="400" font-style="normal" 
 > Alphabetical fruit.</text>
</g>

<g fill="#000000" fill-opacity="1" stroke="#000000" stroke-opacity="1" stroke-width="1" stroke-linecap="square" stroke-linejoin="bevel" transform="matrix(1,0,0,1,0,0)"
font-family="Arial" font-size="9" font-weight="400" font-style="italic" 
>
<text fill="#000000" fill-opacity="1" stroke="none" xml:space="preserve" x="341" y="436" font-family="Arial" font-size="9" font-weight="400" font-style="italic" 
 >2</text>
</g>

<g fill="#000000" fill-opacity="1" stroke="#000000" stroke-opacity="1" stroke-width="1" stroke-linecap="square" stroke-linejoin="bevel" transform="matrix(1,0,0,1,0,0)"
font-family="Arial" font-size="14" font-weight="400" font-style="normal" 
>
<text fill="#000000" fill-opacity="1" stroke="none" xml:space="preserve" x="346" y="441" font-family="Arial" font-size="14" font-weight="400" font-style="normal" 
 > Using commas for separators.</text>
</g>
</g>
</svg>
