<?xml version="1.0" encoding="UTF-8" standalone="no"?>
<svg width="361.244mm" height="116.064mm"
 viewBox="0 0 1024 329"
 xmlns="http://www.w3.org/2000/svg" xmlns:xlink="http://www.w3.org/1999/xlink"  version="1.2" baseProfile="tiny">
<title>Qt Svg Document</title>
<desc>Generated with Qt</desc>
<defs>
</defs>
<g fill="none" stroke="black" stroke-width="1" fill-rule="evenodd" stroke-linecap="square" stroke-linejoin="bevel" >

<g fill="#ffffff" fill-opacity="1" stroke="none" transform="matrix(1,0,0,1,0,0)"
font-family="Helvetica" font-size="12" font-weight="400" font-style="normal" 
>
<path vector-effect="non-scaling-stroke" fill-rule="evenodd" d="M0,0 L1024,0 L1024,329 L0,329 L0,0"/>
<path vector-effect="non-scaling-stroke" fill-rule="evenodd" d="M0,0 L1024,0 L1024,329 L0,329 L0,0"/>
<path vector-effect="non-scaling-stroke" fill-rule="evenodd" d="M0,0 L1024,0 L1024,329 L0,329 L0,0"/>
<path vector-effect="non-scaling-stroke" fill-rule="evenodd" d="M429,8 L595,8 L595,321 L429,321 L429,8"/>
<path vector-effect="non-scaling-stroke" fill-rule="evenodd" d="M429,9 L523,9 L523,39 L429,39 L429,9"/>
<path vector-effect="non-scaling-stroke" fill-rule="evenodd" d="M523,9 L595,9 L595,39 L523,39 L523,9"/>
</g>

<g fill="#808080" fill-opacity="0.0470588" stroke="none" transform="matrix(1,0,0,1,0,0)"
font-family="Helvetica" font-size="12" font-weight="400" font-style="normal" 
>
<path vector-effect="non-scaling-stroke" fill-rule="evenodd" d="M429,74 L523,74 L523,109 L429,109 L429,74"/>
<path vector-effect="non-scaling-stroke" fill-rule="evenodd" d="M523,74 L595,74 L595,109 L523,109 L523,74"/>
<path vector-effect="non-scaling-stroke" fill-rule="evenodd" d="M429,144 L523,144 L523,179 L429,179 L429,144"/>
<path vector-effect="non-scaling-stroke" fill-rule="evenodd" d="M523,144 L595,144 L595,179 L523,179 L523,144"/>
<path vector-effect="non-scaling-stroke" fill-rule="evenodd" d="M429,214 L523,214 L523,249 L429,249 L429,214"/>
<path vector-effect="non-scaling-stroke" fill-rule="evenodd" d="M523,214 L595,214 L595,249 L523,249 L523,214"/>
<path vector-effect="non-scaling-stroke" fill-rule="evenodd" d="M429,284 L523,284 L523,320 L429,320 L429,284"/>
<path vector-effect="non-scaling-stroke" fill-rule="evenodd" d="M523,284 L595,284 L595,320 L523,320 L523,284"/>
</g>

<g fill="#d3d3d3" fill-opacity="1" stroke="none" transform="matrix(1,0,0,1,0,0)"
font-family="Helvetica" font-size="12" font-weight="400" font-style="normal" 
>
<path vector-effect="non-scaling-stroke" fill-rule="evenodd" d="M429,74 L523,74 L523,75 L429,75 L429,74"/>
<path vector-effect="non-scaling-stroke" fill-rule="evenodd" d="M523,74 L595,74 L595,75 L523,75 L523,74"/>
<path vector-effect="non-scaling-stroke" fill-rule="evenodd" d="M429,74 L523,74 L523,75 L429,75 L429,74"/>
<path vector-effect="non-scaling-stroke" fill-rule="evenodd" d="M429,109 L523,109 L523,110 L429,110 L429,109"/>
<path vector-effect="non-scaling-stroke" fill-rule="evenodd" d="M523,74 L595,74 L595,75 L523,75 L523,74"/>
<path vector-effect="non-scaling-stroke" fill-rule="evenodd" d="M523,109 L595,109 L595,110 L523,110 L523,109"/>
<path vector-effect="non-scaling-stroke" fill-rule="evenodd" d="M429,109 L523,109 L523,110 L429,110 L429,109"/>
<path vector-effect="non-scaling-stroke" fill-rule="evenodd" d="M429,144 L523,144 L523,145 L429,145 L429,144"/>
<path vector-effect="non-scaling-stroke" fill-rule="evenodd" d="M523,109 L595,109 L595,110 L523,110 L523,109"/>
<path vector-effect="non-scaling-stroke" fill-rule="evenodd" d="M523,144 L595,144 L595,145 L523,145 L523,144"/>
<path vector-effect="non-scaling-stroke" fill-rule="evenodd" d="M429,144 L523,144 L523,145 L429,145 L429,144"/>
<path vector-effect="non-scaling-stroke" fill-rule="evenodd" d="M429,179 L523,179 L523,180 L429,180 L429,179"/>
<path vector-effect="non-scaling-stroke" fill-rule="evenodd" d="M523,144 L595,144 L595,145 L523,145 L523,144"/>
<path vector-effect="non-scaling-stroke" fill-rule="evenodd" d="M523,179 L595,179 L595,180 L523,180 L523,179"/>
<path vector-effect="non-scaling-stroke" fill-rule="evenodd" d="M429,179 L523,179 L523,180 L429,180 L429,179"/>
<path vector-effect="non-scaling-stroke" fill-rule="evenodd" d="M429,214 L523,214 L523,215 L429,215 L429,214"/>
<path vector-effect="non-scaling-stroke" fill-rule="evenodd" d="M523,179 L595,179 L595,180 L523,180 L523,179"/>
<path vector-effect="non-scaling-stroke" fill-rule="evenodd" d="M523,214 L595,214 L595,215 L523,215 L523,214"/>
<path vector-effect="non-scaling-stroke" fill-rule="evenodd" d="M429,214 L523,214 L523,215 L429,215 L429,214"/>
<path vector-effect="non-scaling-stroke" fill-rule="evenodd" d="M429,249 L523,249 L523,250 L429,250 L429,249"/>
<path vector-effect="non-scaling-stroke" fill-rule="evenodd" d="M523,214 L595,214 L595,215 L523,215 L523,214"/>
<path vector-effect="non-scaling-stroke" fill-rule="evenodd" d="M523,249 L595,249 L595,250 L523,250 L523,249"/>
<path vector-effect="non-scaling-stroke" fill-rule="evenodd" d="M429,249 L523,249 L523,250 L429,250 L429,249"/>
<path vector-effect="non-scaling-stroke" fill-rule="evenodd" d="M429,284 L523,284 L523,285 L429,285 L429,284"/>
<path vector-effect="non-scaling-stroke" fill-rule="evenodd" d="M523,249 L595,249 L595,250 L523,250 L523,249"/>
<path vector-effect="non-scaling-stroke" fill-rule="evenodd" d="M523,284 L595,284 L595,285 L523,285 L523,284"/>
<path vector-effect="non-scaling-stroke" fill-rule="evenodd" d="M429,284 L523,284 L523,285 L429,285 L429,284"/>
<path vector-effect="non-scaling-stroke" fill-rule="evenodd" d="M523,284 L595,284 L595,285 L523,285 L523,284"/>
<path vector-effect="non-scaling-stroke" fill-rule="evenodd" d="M429,8 L523,8 L523,10 L429,10 L429,8"/>
<path vector-effect="non-scaling-stroke" fill-rule="evenodd" d="M429,38 L523,38 L523,40 L429,40 L429,38"/>
<path vector-effect="non-scaling-stroke" fill-rule="evenodd" d="M523,8 L595,8 L595,10 L523,10 L523,8"/>
<path vector-effect="non-scaling-stroke" fill-rule="evenodd" d="M523,38 L595,38 L595,40 L523,40 L523,38"/>
<path vector-effect="non-scaling-stroke" fill-rule="evenodd" d="M429,38 L523,38 L523,40 L429,40 L429,38"/>
<path vector-effect="non-scaling-stroke" fill-rule="evenodd" d="M523,38 L595,38 L595,40 L523,40 L523,38"/>
<path vector-effect="non-scaling-stroke" fill-rule="evenodd" d="M429,319 L523,319 L523,321 L429,321 L429,319"/>
<path vector-effect="non-scaling-stroke" fill-rule="evenodd" d="M523,319 L595,319 L595,321 L523,321 L523,319"/>
</g>

<g fill="#333333" fill-opacity="1" stroke="#333333" stroke-opacity="1" stroke-width="1" stroke-linecap="square" stroke-linejoin="bevel" transform="matrix(1,0,0,1,0,0)"
font-family="Arial" font-size="16" font-weight="400" font-style="normal" 
>
<text fill="#333333" fill-opacity="1" stroke="none" xml:space="preserve" x="487" y="29" font-family="Arial" font-size="16" font-weight="400" font-style="normal" 
 >num</text>
<text fill="#333333" fill-opacity="1" stroke="none" xml:space="preserve" x="529" y="29" font-family="Arial" font-size="16" font-weight="400" font-style="normal" 
 >currency</text>
<text fill="#333333" fill-opacity="1" stroke="none" xml:space="preserve" x="496" y="62" font-family="Arial" font-size="16" font-weight="400" font-style="normal" 
 >0.1</text>
</g>

<g fill="#333333" fill-opacity="1" stroke="#333333" stroke-opacity="1" stroke-width="1" stroke-linecap="square" stroke-linejoin="bevel" transform="matrix(1,0,0,1,0,0)"
font-family="Arial" font-size="16" font-weight="400" font-style="italic" 
>
<text fill="#333333" fill-opacity="1" stroke="none" xml:space="preserve" x="559" y="62" font-family="Arial" font-size="16" font-weight="400" font-style="italic" 
 >50.0</text>
</g>

<g fill="#333333" fill-opacity="1" stroke="#333333" stroke-opacity="1" stroke-width="1" stroke-linecap="square" stroke-linejoin="bevel" transform="matrix(1,0,0,1,0,0)"
font-family="Arial" font-size="16" font-weight="400" font-style="normal" 
>
<text fill="#333333" fill-opacity="1" stroke="none" xml:space="preserve" x="496" y="97" font-family="Arial" font-size="16" font-weight="400" font-style="normal" 
 >2.2</text>
</g>

<g fill="#333333" fill-opacity="1" stroke="#333333" stroke-opacity="1" stroke-width="1" stroke-linecap="square" stroke-linejoin="bevel" transform="matrix(1,0,0,1,0,0)"
font-family="Arial" font-size="16" font-weight="400" font-style="italic" 
>
<text fill="#333333" fill-opacity="1" stroke="none" xml:space="preserve" x="559" y="97" font-family="Arial" font-size="16" font-weight="400" font-style="italic" 
 >17.9</text>
</g>

<g fill="#333333" fill-opacity="1" stroke="#333333" stroke-opacity="1" stroke-width="1" stroke-linecap="square" stroke-linejoin="bevel" transform="matrix(1,0,0,1,0,0)"
font-family="Arial" font-size="16" font-weight="400" font-style="normal" 
>
<text fill="#333333" fill-opacity="1" stroke="none" xml:space="preserve" x="487" y="132" font-family="Arial" font-size="16" font-weight="400" font-style="normal" 
 >33.3</text>
</g>

<g fill="#333333" fill-opacity="1" stroke="#333333" stroke-opacity="1" stroke-width="1" stroke-linecap="square" stroke-linejoin="bevel" transform="matrix(1,0,0,1,0,0)"
font-family="Arial" font-size="16" font-weight="400" font-style="italic" 
>
<text fill="#333333" fill-opacity="1" stroke="none" xml:space="preserve" x="568" y="132" font-family="Arial" font-size="16" font-weight="400" font-style="italic" 
 >1.4</text>
</g>

<g fill="#333333" fill-opacity="1" stroke="#333333" stroke-opacity="1" stroke-width="1" stroke-linecap="square" stroke-linejoin="bevel" transform="matrix(1,0,0,1,0,0)"
font-family="Arial" font-size="16" font-weight="400" font-style="normal" 
>
<text fill="#333333" fill-opacity="1" stroke="none" xml:space="preserve" x="478" y="167" font-family="Arial" font-size="16" font-weight="400" font-style="normal" 
 >444.4</text>
<text fill="#333333" fill-opacity="1" stroke="none" xml:space="preserve" x="528" y="167" font-family="Arial" font-size="16" font-weight="400" font-style="normal" 
 >65,100.0</text>
</g>

<g fill="#333333" fill-opacity="1" stroke="#333333" stroke-opacity="1" stroke-width="1" stroke-linecap="square" stroke-linejoin="bevel" transform="matrix(1,0,0,1,0,0)"
font-family="Arial" font-size="16" font-weight="700" font-style="normal" 
>
<text fill="#333333" fill-opacity="1" stroke="none" xml:space="preserve" x="465" y="202" font-family="Arial" font-size="16" font-weight="700" font-style="normal" 
 >5,550.0</text>
</g>

<g fill="#333333" fill-opacity="1" stroke="#333333" stroke-opacity="1" stroke-width="1" stroke-linecap="square" stroke-linejoin="bevel" transform="matrix(1,0,0,1,0,0)"
font-family="Arial" font-size="16" font-weight="400" font-style="normal" 
>
<text fill="#333333" fill-opacity="1" stroke="none" xml:space="preserve" x="537" y="202" font-family="Arial" font-size="16" font-weight="400" font-style="normal" 
 >1,325.8</text>
<text fill="#333333" fill-opacity="1" stroke="none" xml:space="preserve" x="495" y="237" font-family="Arial" font-size="16" font-weight="400" font-style="normal" 
 >NA</text>
</g>

<g fill="#333333" fill-opacity="1" stroke="#333333" stroke-opacity="1" stroke-width="1" stroke-linecap="square" stroke-linejoin="bevel" transform="matrix(1,0,0,1,0,0)"
font-family="Arial" font-size="16" font-weight="400" font-style="italic" 
>
<text fill="#333333" fill-opacity="1" stroke="none" xml:space="preserve" x="559" y="237" font-family="Arial" font-size="16" font-weight="400" font-style="italic" 
 >13.3</text>
</g>

<g fill="#333333" fill-opacity="1" stroke="#333333" stroke-opacity="1" stroke-width="1" stroke-linecap="square" stroke-linejoin="bevel" transform="matrix(1,0,0,1,0,0)"
font-family="Arial" font-size="16" font-weight="700" font-style="normal" 
>
<text fill="#333333" fill-opacity="1" stroke="none" xml:space="preserve" x="447" y="272" font-family="Arial" font-size="16" font-weight="700" font-style="normal" 
 >777,000.0</text>
</g>

<g fill="#333333" fill-opacity="1" stroke="#333333" stroke-opacity="1" stroke-width="1" stroke-linecap="square" stroke-linejoin="bevel" transform="matrix(1,0,0,1,0,0)"
font-family="Arial" font-size="16" font-weight="400" font-style="normal" 
>
<text fill="#333333" fill-opacity="1" stroke="none" xml:space="preserve" x="567" y="272" font-family="Arial" font-size="16" font-weight="400" font-style="normal" 
 >NA</text>
</g>

<g fill="#333333" fill-opacity="1" stroke="#333333" stroke-opacity="1" stroke-width="1" stroke-linecap="square" stroke-linejoin="bevel" transform="matrix(1,0,0,1,0,0)"
font-family="Arial" font-size="16" font-weight="700" font-style="normal" 
>
<text fill="#333333" fill-opacity="1" stroke="none" xml:space="preserve" x="434" y="307" font-family="Arial" font-size="16" font-weight="700" font-style="normal" 
 >8,880,000.0</text>
</g>

<g fill="#333333" fill-opacity="1" stroke="#333333" stroke-opacity="1" stroke-width="1" stroke-linecap="square" stroke-linejoin="bevel" transform="matrix(1,0,0,1,0,0)"
font-family="Arial" font-size="16" font-weight="400" font-style="italic" 
>
<text fill="#333333" fill-opacity="1" stroke="none" xml:space="preserve" x="568" y="307" font-family="Arial" font-size="16" font-weight="400" font-style="italic" 
 >0.4</text>
</g>
</g>
</svg>
