<?xml version="1.0" encoding="UTF-8" standalone="no"?>
<svg width="361.244mm" height="189.794mm"
 viewBox="0 0 1024 538"
 xmlns="http://www.w3.org/2000/svg" xmlns:xlink="http://www.w3.org/1999/xlink"  version="1.2" baseProfile="tiny">
<title>Qt Svg Document</title>
<desc>Generated with Qt</desc>
<defs>
</defs>
<g fill="none" stroke="black" stroke-width="1" fill-rule="evenodd" stroke-linecap="square" stroke-linejoin="bevel" >

<g fill="#ffffff" fill-opacity="1" stroke="none" transform="matrix(1,0,0,1,0,0)"
font-family="Helvetica" font-size="12" font-weight="400" font-style="normal" 
>
<path vector-effect="non-scaling-stroke" fill-rule="evenodd" d="M0,0 L1024,0 L1024,538 L0,538 L0,0"/>
<path vector-effect="non-scaling-stroke" fill-rule="evenodd" d="M0,0 L1024,0 L1024,538 L0,538 L0,0"/>
<path vector-effect="non-scaling-stroke" fill-rule="evenodd" d="M0,0 L1024,0 L1024,538 L0,538 L0,0"/>
<path vector-effect="non-scaling-stroke" fill-rule="evenodd" d="M427,8 L596,8 L596,530 L427,530 L427,8"/>
<path vector-effect="non-scaling-stroke" fill-rule="evenodd" d="M427,9 L486,9 L486,49 L427,49 L427,9"/>
<path vector-effect="non-scaling-stroke" fill-rule="evenodd" d="M486,9 L596,9 L596,49 L486,49 L486,9"/>
<path vector-effect="non-scaling-stroke" fill-rule="evenodd" d="M427,49 L596,49 L596,85 L427,85 L427,49"/>
</g>

<g fill="#f2f2f2" fill-opacity="1" stroke="none" transform="matrix(1,0,0,1,0,0)"
font-family="Helvetica" font-size="12" font-weight="400" font-style="normal" 
>
<path vector-effect="non-scaling-stroke" fill-rule="evenodd" d="M427,85 L486,85 L486,124 L427,124 L427,85"/>
</g>

<g fill="#ffffff" fill-opacity="1" stroke="none" transform="matrix(1,0,0,1,0,0)"
font-family="Helvetica" font-size="12" font-weight="400" font-style="normal" 
>
<path vector-effect="non-scaling-stroke" fill-rule="evenodd" d="M427,85 L486,85 L486,124 L427,124 L427,85"/>
</g>

<g fill="#f2f2f2" fill-opacity="1" stroke="none" transform="matrix(1,0,0,1,0,0)"
font-family="Helvetica" font-size="12" font-weight="400" font-style="normal" 
>
<path vector-effect="non-scaling-stroke" fill-rule="evenodd" d="M486,85 L596,85 L596,124 L486,124 L486,85"/>
</g>

<g fill="#ffffff" fill-opacity="1" stroke="none" transform="matrix(1,0,0,1,0,0)"
font-family="Helvetica" font-size="12" font-weight="400" font-style="normal" 
>
<path vector-effect="non-scaling-stroke" fill-rule="evenodd" d="M427,124 L486,124 L486,162 L427,162 L427,124"/>
</g>

<g fill="#f2f2f2" fill-opacity="1" stroke="none" transform="matrix(1,0,0,1,0,0)"
font-family="Helvetica" font-size="12" font-weight="400" font-style="normal" 
>
<path vector-effect="non-scaling-stroke" fill-rule="evenodd" d="M427,162 L486,162 L486,200 L427,200 L427,162"/>
</g>

<g fill="#ffffff" fill-opacity="1" stroke="none" transform="matrix(1,0,0,1,0,0)"
font-family="Helvetica" font-size="12" font-weight="400" font-style="normal" 
>
<path vector-effect="non-scaling-stroke" fill-rule="evenodd" d="M427,162 L486,162 L486,200 L427,200 L427,162"/>
</g>

<g fill="#f2f2f2" fill-opacity="1" stroke="none" transform="matrix(1,0,0,1,0,0)"
font-family="Helvetica" font-size="12" font-weight="400" font-style="normal" 
>
<path vector-effect="non-scaling-stroke" fill-rule="evenodd" d="M486,162 L596,162 L596,200 L486,200 L486,162"/>
</g>

<g fill="#ffffff" fill-opacity="1" stroke="none" transform="matrix(1,0,0,1,0,0)"
font-family="Helvetica" font-size="12" font-weight="400" font-style="normal" 
>
<path vector-effect="non-scaling-stroke" fill-rule="evenodd" d="M427,200 L486,200 L486,238 L427,238 L427,200"/>
</g>

<g fill="#f2f2f2" fill-opacity="1" stroke="none" transform="matrix(1,0,0,1,0,0)"
font-family="Helvetica" font-size="12" font-weight="400" font-style="normal" 
>
<path vector-effect="non-scaling-stroke" fill-rule="evenodd" d="M427,238 L486,238 L486,276 L427,276 L427,238"/>
</g>

<g fill="#ffffff" fill-opacity="1" stroke="none" transform="matrix(1,0,0,1,0,0)"
font-family="Helvetica" font-size="12" font-weight="400" font-style="normal" 
>
<path vector-effect="non-scaling-stroke" fill-rule="evenodd" d="M427,238 L486,238 L486,276 L427,276 L427,238"/>
</g>

<g fill="#f2f2f2" fill-opacity="1" stroke="none" transform="matrix(1,0,0,1,0,0)"
font-family="Helvetica" font-size="12" font-weight="400" font-style="normal" 
>
<path vector-effect="non-scaling-stroke" fill-rule="evenodd" d="M486,238 L596,238 L596,276 L486,276 L486,238"/>
</g>

<g fill="#ffffff" fill-opacity="1" stroke="none" transform="matrix(1,0,0,1,0,0)"
font-family="Helvetica" font-size="12" font-weight="400" font-style="normal" 
>
<path vector-effect="non-scaling-stroke" fill-rule="evenodd" d="M427,276 L486,276 L486,314 L427,314 L427,276"/>
</g>

<g fill="#f2f2f2" fill-opacity="1" stroke="none" transform="matrix(1,0,0,1,0,0)"
font-family="Helvetica" font-size="12" font-weight="400" font-style="normal" 
>
<path vector-effect="non-scaling-stroke" fill-rule="evenodd" d="M427,314 L486,314 L486,352 L427,352 L427,314"/>
</g>

<g fill="#ffffff" fill-opacity="1" stroke="none" transform="matrix(1,0,0,1,0,0)"
font-family="Helvetica" font-size="12" font-weight="400" font-style="normal" 
>
<path vector-effect="non-scaling-stroke" fill-rule="evenodd" d="M427,314 L486,314 L486,352 L427,352 L427,314"/>
</g>

<g fill="#f2f2f2" fill-opacity="1" stroke="none" transform="matrix(1,0,0,1,0,0)"
font-family="Helvetica" font-size="12" font-weight="400" font-style="normal" 
>
<path vector-effect="non-scaling-stroke" fill-rule="evenodd" d="M486,314 L596,314 L596,352 L486,352 L486,314"/>
</g>

<g fill="#ffffff" fill-opacity="1" stroke="none" transform="matrix(1,0,0,1,0,0)"
font-family="Helvetica" font-size="12" font-weight="400" font-style="normal" 
>
<path vector-effect="non-scaling-stroke" fill-rule="evenodd" d="M427,352 L486,352 L486,390 L427,390 L427,352"/>
</g>

<g fill="#f2f2f2" fill-opacity="1" stroke="none" transform="matrix(1,0,0,1,0,0)"
font-family="Helvetica" font-size="12" font-weight="400" font-style="normal" 
>
<path vector-effect="non-scaling-stroke" fill-rule="evenodd" d="M427,390 L486,390 L486,428 L427,428 L427,390"/>
</g>

<g fill="#ffffff" fill-opacity="1" stroke="none" transform="matrix(1,0,0,1,0,0)"
font-family="Helvetica" font-size="12" font-weight="400" font-style="normal" 
>
<path vector-effect="non-scaling-stroke" fill-rule="evenodd" d="M427,390 L486,390 L486,428 L427,428 L427,390"/>
</g>

<g fill="#f2f2f2" fill-opacity="1" stroke="none" transform="matrix(1,0,0,1,0,0)"
font-family="Helvetica" font-size="12" font-weight="400" font-style="normal" 
>
<path vector-effect="non-scaling-stroke" fill-rule="evenodd" d="M486,390 L596,390 L596,428 L486,428 L486,390"/>
</g>

<g fill="#ffffff" fill-opacity="1" stroke="none" transform="matrix(1,0,0,1,0,0)"
font-family="Helvetica" font-size="12" font-weight="400" font-style="normal" 
>
<path vector-effect="non-scaling-stroke" fill-rule="evenodd" d="M427,428 L486,428 L486,467 L427,467 L427,428"/>
</g>

<g fill="#f2f2f2" fill-opacity="1" stroke="none" transform="matrix(1,0,0,1,0,0)"
font-family="Helvetica" font-size="12" font-weight="400" font-style="normal" 
>
<path vector-effect="non-scaling-stroke" fill-rule="evenodd" d="M427,467 L486,467 L486,498 L427,498 L427,467"/>
</g>

<g fill="#ffffff" fill-opacity="1" stroke="none" transform="matrix(1,0,0,1,0,0)"
font-family="Helvetica" font-size="12" font-weight="400" font-style="normal" 
>
<path vector-effect="non-scaling-stroke" fill-rule="evenodd" d="M427,467 L486,467 L486,498 L427,498 L427,467"/>
</g>

<g fill="#f2f2f2" fill-opacity="1" stroke="none" transform="matrix(1,0,0,1,0,0)"
font-family="Helvetica" font-size="12" font-weight="400" font-style="normal" 
>
<path vector-effect="non-scaling-stroke" fill-rule="evenodd" d="M486,467 L596,467 L596,498 L486,498 L486,467"/>
</g>

<g fill="#add8e6" fill-opacity="1" stroke="none" transform="matrix(1,0,0,1,0,0)"
font-family="Helvetica" font-size="12" font-weight="400" font-style="normal" 
>
<path vector-effect="non-scaling-stroke" fill-rule="evenodd" d="M486,467 L596,467 L596,498 L486,498 L486,467"/>
</g>

<g fill="#ffffff" fill-opacity="1" stroke="none" transform="matrix(1,0,0,1,0,0)"
font-family="Helvetica" font-size="12" font-weight="400" font-style="normal" 
>
<path vector-effect="non-scaling-stroke" fill-rule="evenodd" d="M427,498 L486,498 L486,529 L427,529 L427,498"/>
</g>

<g fill="#90ee90" fill-opacity="1" stroke="none" transform="matrix(1,0,0,1,0,0)"
font-family="Helvetica" font-size="12" font-weight="400" font-style="normal" 
>
<path vector-effect="non-scaling-stroke" fill-rule="evenodd" d="M486,498 L596,498 L596,529 L486,529 L486,498"/>
</g>

<g fill="#a8a8a8" fill-opacity="1" stroke="none" transform="matrix(1,0,0,1,0,0)"
font-family="Helvetica" font-size="12" font-weight="400" font-style="normal" 
>
<path vector-effect="non-scaling-stroke" fill-rule="evenodd" d="M427,8 L486,8 L486,10 L427,10 L427,8"/>
<path vector-effect="non-scaling-stroke" fill-rule="evenodd" d="M486,8 L596,8 L596,10 L486,10 L486,8"/>
<path vector-effect="non-scaling-stroke" fill-rule="evenodd" d="M427,528 L487,528 L487,530 L427,530 L427,528"/>
<path vector-effect="non-scaling-stroke" fill-rule="evenodd" d="M485,528 L596,528 L596,530 L485,530 L485,528"/>
<path vector-effect="non-scaling-stroke" fill-rule="evenodd" d="M427,48 L486,48 L486,50 L427,50 L427,48"/>
<path vector-effect="non-scaling-stroke" fill-rule="evenodd" d="M486,48 L596,48 L596,50 L486,50 L486,48"/>
<path vector-effect="non-scaling-stroke" fill-rule="evenodd" d="M427,48 L596,48 L596,50 L427,50 L427,48"/>
<path vector-effect="non-scaling-stroke" fill-rule="evenodd" d="M427,84 L596,84 L596,86 L427,86 L427,84"/>
<path vector-effect="non-scaling-stroke" fill-rule="evenodd" d="M427,84 L487,84 L487,86 L427,86 L427,84"/>
<path vector-effect="non-scaling-stroke" fill-rule="evenodd" d="M485,84 L487,84 L487,124 L485,124 L485,84"/>
<path vector-effect="non-scaling-stroke" fill-rule="evenodd" d="M485,84 L596,84 L596,86 L485,86 L485,84"/>
<path vector-effect="non-scaling-stroke" fill-rule="evenodd" d="M485,84 L487,84 L487,124 L485,124 L485,84"/>
<path vector-effect="non-scaling-stroke" fill-rule="evenodd" d="M485,124 L487,124 L487,162 L485,162 L485,124"/>
<path vector-effect="non-scaling-stroke" fill-rule="evenodd" d="M485,124 L487,124 L487,162 L485,162 L485,124"/>
<path vector-effect="non-scaling-stroke" fill-rule="evenodd" d="M485,162 L487,162 L487,200 L485,200 L485,162"/>
<path vector-effect="non-scaling-stroke" fill-rule="evenodd" d="M485,162 L487,162 L487,200 L485,200 L485,162"/>
<path vector-effect="non-scaling-stroke" fill-rule="evenodd" d="M485,200 L487,200 L487,238 L485,238 L485,200"/>
<path vector-effect="non-scaling-stroke" fill-rule="evenodd" d="M485,200 L487,200 L487,238 L485,238 L485,200"/>
<path vector-effect="non-scaling-stroke" fill-rule="evenodd" d="M485,238 L487,238 L487,276 L485,276 L485,238"/>
<path vector-effect="non-scaling-stroke" fill-rule="evenodd" d="M485,238 L487,238 L487,276 L485,276 L485,238"/>
<path vector-effect="non-scaling-stroke" fill-rule="evenodd" d="M485,276 L487,276 L487,314 L485,314 L485,276"/>
<path vector-effect="non-scaling-stroke" fill-rule="evenodd" d="M485,276 L487,276 L487,314 L485,314 L485,276"/>
<path vector-effect="non-scaling-stroke" fill-rule="evenodd" d="M485,314 L487,314 L487,352 L485,352 L485,314"/>
<path vector-effect="non-scaling-stroke" fill-rule="evenodd" d="M485,314 L487,314 L487,352 L485,352 L485,314"/>
<path vector-effect="non-scaling-stroke" fill-rule="evenodd" d="M485,352 L487,352 L487,390 L485,390 L485,352"/>
<path vector-effect="non-scaling-stroke" fill-rule="evenodd" d="M485,352 L487,352 L487,390 L485,390 L485,352"/>
<path vector-effect="non-scaling-stroke" fill-rule="evenodd" d="M485,390 L487,390 L487,428 L485,428 L485,390"/>
<path vector-effect="non-scaling-stroke" fill-rule="evenodd" d="M485,390 L487,390 L487,428 L485,428 L485,390"/>
<path vector-effect="non-scaling-stroke" fill-rule="evenodd" d="M427,466 L487,466 L487,468 L427,468 L427,466"/>
<path vector-effect="non-scaling-stroke" fill-rule="evenodd" d="M485,428 L487,428 L487,468 L485,468 L485,428"/>
<path vector-effect="non-scaling-stroke" fill-rule="evenodd" d="M485,466 L596,466 L596,468 L485,468 L485,466"/>
<path vector-effect="non-scaling-stroke" fill-rule="evenodd" d="M485,428 L487,428 L487,468 L485,468 L485,428"/>
<path vector-effect="non-scaling-stroke" fill-rule="evenodd" d="M427,466 L487,466 L487,468 L427,468 L427,466"/>
<path vector-effect="non-scaling-stroke" fill-rule="evenodd" d="M485,466 L487,466 L487,498 L485,498 L485,466"/>
<path vector-effect="non-scaling-stroke" fill-rule="evenodd" d="M485,466 L596,466 L596,468 L485,468 L485,466"/>
<path vector-effect="non-scaling-stroke" fill-rule="evenodd" d="M485,466 L487,466 L487,498 L485,498 L485,466"/>
<path vector-effect="non-scaling-stroke" fill-rule="evenodd" d="M485,498 L487,498 L487,530 L485,530 L485,498"/>
<path vector-effect="non-scaling-stroke" fill-rule="evenodd" d="M485,498 L487,498 L487,530 L485,530 L485,498"/>
</g>

<g fill="#000000" fill-opacity="1" stroke="#000000" stroke-opacity="1" stroke-width="1" stroke-linecap="square" stroke-linejoin="bevel" transform="matrix(1,0,0,1,0,0)"
font-family="Arial" font-size="16" font-weight="400" font-style="normal" 
>
<text fill="#000000" fill-opacity="1" stroke="none" xml:space="preserve" x="511" y="34" font-family="Arial" font-size="16" font-weight="400" font-style="normal" 
 >population</text>
<text fill="#000000" fill-opacity="1" stroke="none" xml:space="preserve" x="435" y="72" font-family="Arial" font-size="16" font-weight="400" font-style="normal" 
 >1960s</text>
<text fill="#000000" fill-opacity="1" stroke="none" xml:space="preserve" x="439" y="110" font-family="Arial" font-size="16" font-weight="400" font-style="normal" 
 >1960</text>
<text fill="#000000" fill-opacity="1" stroke="none" xml:space="preserve" x="506" y="110" font-family="Arial" font-size="16" font-weight="400" font-style="normal" 
 >92,500,572</text>
<text fill="#000000" fill-opacity="1" stroke="none" xml:space="preserve" x="439" y="148" font-family="Arial" font-size="16" font-weight="400" font-style="normal" 
 >1961</text>
<text fill="#000000" fill-opacity="1" stroke="none" xml:space="preserve" x="506" y="148" font-family="Arial" font-size="16" font-weight="400" font-style="normal" 
 >94,943,000</text>
<text fill="#000000" fill-opacity="1" stroke="none" xml:space="preserve" x="439" y="186" font-family="Arial" font-size="16" font-weight="400" font-style="normal" 
 >1962</text>
<text fill="#000000" fill-opacity="1" stroke="none" xml:space="preserve" x="506" y="186" font-family="Arial" font-size="16" font-weight="400" font-style="normal" 
 >95,832,000</text>
<text fill="#000000" fill-opacity="1" stroke="none" xml:space="preserve" x="439" y="224" font-family="Arial" font-size="16" font-weight="400" font-style="normal" 
 >1963</text>
<text fill="#000000" fill-opacity="1" stroke="none" xml:space="preserve" x="506" y="224" font-family="Arial" font-size="16" font-weight="400" font-style="normal" 
 >96,812,000</text>
<text fill="#000000" fill-opacity="1" stroke="none" xml:space="preserve" x="439" y="262" font-family="Arial" font-size="16" font-weight="400" font-style="normal" 
 >1964</text>
<text fill="#000000" fill-opacity="1" stroke="none" xml:space="preserve" x="506" y="262" font-family="Arial" font-size="16" font-weight="400" font-style="normal" 
 >97,826,000</text>
<text fill="#000000" fill-opacity="1" stroke="none" xml:space="preserve" x="439" y="300" font-family="Arial" font-size="16" font-weight="400" font-style="normal" 
 >1965</text>
<text fill="#000000" fill-opacity="1" stroke="none" xml:space="preserve" x="506" y="300" font-family="Arial" font-size="16" font-weight="400" font-style="normal" 
 >98,883,000</text>
<text fill="#000000" fill-opacity="1" stroke="none" xml:space="preserve" x="439" y="338" font-family="Arial" font-size="16" font-weight="400" font-style="normal" 
 >1966</text>
<text fill="#000000" fill-opacity="1" stroke="none" xml:space="preserve" x="506" y="338" font-family="Arial" font-size="16" font-weight="400" font-style="normal" 
 >99,790,000</text>
<text fill="#000000" fill-opacity="1" stroke="none" xml:space="preserve" x="439" y="376" font-family="Arial" font-size="16" font-weight="400" font-style="normal" 
 >1967</text>
<text fill="#000000" fill-opacity="1" stroke="none" xml:space="preserve" x="497" y="376" font-family="Arial" font-size="16" font-weight="400" font-style="normal" 
 >100,725,000</text>
<text fill="#000000" fill-opacity="1" stroke="none" xml:space="preserve" x="439" y="414" font-family="Arial" font-size="16" font-weight="400" font-style="normal" 
 >1968</text>
<text fill="#000000" fill-opacity="1" stroke="none" xml:space="preserve" x="497" y="414" font-family="Arial" font-size="16" font-weight="400" font-style="normal" 
 >101,061,000</text>
<text fill="#000000" fill-opacity="1" stroke="none" xml:space="preserve" x="439" y="452" font-family="Arial" font-size="16" font-weight="400" font-style="normal" 
 >1969</text>
<text fill="#000000" fill-opacity="1" stroke="none" xml:space="preserve" x="497" y="452" font-family="Arial" font-size="16" font-weight="400" font-style="normal" 
 >103,172,000</text>
<text fill="#000000" fill-opacity="1" stroke="none" xml:space="preserve" x="433" y="488" font-family="Arial" font-size="16" font-weight="400" font-style="normal" 
 >min</text>
</g>

<g fill="#000000" fill-opacity="1" stroke="#000000" stroke-opacity="1" stroke-width="1" stroke-linecap="square" stroke-linejoin="bevel" transform="matrix(1,0,0,1,0,0)"
font-family="Arial" font-size="16" font-weight="400" font-style="italic" 
>
<text fill="#000000" fill-opacity="1" stroke="none" xml:space="preserve" x="510" y="488" font-family="Arial" font-size="16" font-weight="400" font-style="italic" 
 >92,500,572</text>
</g>

<g fill="#000000" fill-opacity="1" stroke="#000000" stroke-opacity="1" stroke-width="1" stroke-linecap="square" stroke-linejoin="bevel" transform="matrix(1,0,0,1,0,0)"
font-family="Arial" font-size="16" font-weight="400" font-style="normal" 
>
<text fill="#000000" fill-opacity="1" stroke="none" xml:space="preserve" x="433" y="518" font-family="Arial" font-size="16" font-weight="400" font-style="normal" 
 >max</text>
</g>

<g fill="#000000" fill-opacity="1" stroke="#000000" stroke-opacity="1" stroke-width="1" stroke-linecap="square" stroke-linejoin="bevel" transform="matrix(1,0,0,1,0,0)"
font-family="Arial" font-size="16" font-weight="400" font-style="italic" 
>
<text fill="#000000" fill-opacity="1" stroke="none" xml:space="preserve" x="501" y="518" font-family="Arial" font-size="16" font-weight="400" font-style="italic" 
 >103,172,000</text>
</g>
</g>
</svg>
