<?xml version="1.0" encoding="UTF-8" standalone="no"?>
<svg width="361.244mm" height="128.411mm"
 viewBox="0 0 1024 364"
 xmlns="http://www.w3.org/2000/svg" xmlns:xlink="http://www.w3.org/1999/xlink"  version="1.2" baseProfile="tiny">
<title>Qt Svg Document</title>
<desc>Generated with Qt</desc>
<defs>
</defs>
<g fill="none" stroke="black" stroke-width="1" fill-rule="evenodd" stroke-linecap="square" stroke-linejoin="bevel" >

<g fill="#ffffff" fill-opacity="1" stroke="none" transform="matrix(1,0,0,1,0,0)"
font-family="Helvetica" font-size="12" font-weight="400" font-style="normal" 
>
<path vector-effect="non-scaling-stroke" fill-rule="evenodd" d="M0,0 L1024,0 L1024,364 L0,364 L0,0"/>
<path vector-effect="non-scaling-stroke" fill-rule="evenodd" d="M0,0 L1024,0 L1024,364 L0,364 L0,0"/>
<path vector-effect="non-scaling-stroke" fill-rule="evenodd" d="M0,0 L1024,0 L1024,364 L0,364 L0,0"/>
<path vector-effect="non-scaling-stroke" fill-rule="evenodd" d="M112,8 L912,8 L912,356 L112,356 L112,8"/>
<path vector-effect="non-scaling-stroke" fill-rule="evenodd" d="M112,9 L226,9 L226,49 L112,49 L112,9"/>
<path vector-effect="non-scaling-stroke" fill-rule="evenodd" d="M226,9 L320,9 L320,49 L226,49 L226,9"/>
<path vector-effect="non-scaling-stroke" fill-rule="evenodd" d="M320,9 L383,9 L383,49 L320,49 L320,9"/>
<path vector-effect="non-scaling-stroke" fill-rule="evenodd" d="M383,9 L485,9 L485,49 L383,49 L383,9"/>
<path vector-effect="non-scaling-stroke" fill-rule="evenodd" d="M485,9 L545,9 L545,49 L485,49 L485,9"/>
<path vector-effect="non-scaling-stroke" fill-rule="evenodd" d="M545,9 L691,9 L691,49 L545,49 L545,9"/>
<path vector-effect="non-scaling-stroke" fill-rule="evenodd" d="M691,9 L787,9 L787,49 L691,49 L691,9"/>
<path vector-effect="non-scaling-stroke" fill-rule="evenodd" d="M787,9 L851,9 L851,49 L787,49 L787,9"/>
<path vector-effect="non-scaling-stroke" fill-rule="evenodd" d="M851,9 L912,9 L912,49 L851,49 L851,9"/>
</g>

<g fill="#f2f2f2" fill-opacity="1" stroke="none" transform="matrix(1,0,0,1,0,0)"
font-family="Helvetica" font-size="12" font-weight="400" font-style="normal" 
>
<path vector-effect="non-scaling-stroke" fill-rule="evenodd" d="M112,88 L226,88 L226,126 L112,126 L112,88"/>
<path vector-effect="non-scaling-stroke" fill-rule="evenodd" d="M226,88 L320,88 L320,126 L226,126 L226,88"/>
<path vector-effect="non-scaling-stroke" fill-rule="evenodd" d="M320,88 L383,88 L383,126 L320,126 L320,88"/>
<path vector-effect="non-scaling-stroke" fill-rule="evenodd" d="M383,88 L485,88 L485,126 L383,126 L383,88"/>
<path vector-effect="non-scaling-stroke" fill-rule="evenodd" d="M485,88 L545,88 L545,126 L485,126 L485,88"/>
<path vector-effect="non-scaling-stroke" fill-rule="evenodd" d="M545,88 L691,88 L691,126 L545,126 L545,88"/>
<path vector-effect="non-scaling-stroke" fill-rule="evenodd" d="M691,88 L787,88 L787,126 L691,126 L691,88"/>
<path vector-effect="non-scaling-stroke" fill-rule="evenodd" d="M787,88 L851,88 L851,126 L787,126 L787,88"/>
<path vector-effect="non-scaling-stroke" fill-rule="evenodd" d="M851,88 L912,88 L912,126 L851,126 L851,88"/>
<path vector-effect="non-scaling-stroke" fill-rule="evenodd" d="M112,164 L226,164 L226,202 L112,202 L112,164"/>
<path vector-effect="non-scaling-stroke" fill-rule="evenodd" d="M226,164 L320,164 L320,202 L226,202 L226,164"/>
<path vector-effect="non-scaling-stroke" fill-rule="evenodd" d="M320,164 L383,164 L383,202 L320,202 L320,164"/>
<path vector-effect="non-scaling-stroke" fill-rule="evenodd" d="M383,164 L485,164 L485,202 L383,202 L383,164"/>
<path vector-effect="non-scaling-stroke" fill-rule="evenodd" d="M485,164 L545,164 L545,202 L485,202 L485,164"/>
<path vector-effect="non-scaling-stroke" fill-rule="evenodd" d="M545,164 L691,164 L691,202 L545,202 L545,164"/>
<path vector-effect="non-scaling-stroke" fill-rule="evenodd" d="M691,164 L787,164 L787,202 L691,202 L691,164"/>
<path vector-effect="non-scaling-stroke" fill-rule="evenodd" d="M787,164 L851,164 L851,202 L787,202 L787,164"/>
<path vector-effect="non-scaling-stroke" fill-rule="evenodd" d="M851,164 L912,164 L912,202 L851,202 L851,164"/>
<path vector-effect="non-scaling-stroke" fill-rule="evenodd" d="M112,240 L226,240 L226,278 L112,278 L112,240"/>
<path vector-effect="non-scaling-stroke" fill-rule="evenodd" d="M226,240 L320,240 L320,278 L226,278 L226,240"/>
<path vector-effect="non-scaling-stroke" fill-rule="evenodd" d="M320,240 L383,240 L383,278 L320,278 L320,240"/>
<path vector-effect="non-scaling-stroke" fill-rule="evenodd" d="M383,240 L485,240 L485,278 L383,278 L383,240"/>
<path vector-effect="non-scaling-stroke" fill-rule="evenodd" d="M485,240 L545,240 L545,278 L485,278 L485,240"/>
<path vector-effect="non-scaling-stroke" fill-rule="evenodd" d="M545,240 L691,240 L691,278 L545,278 L545,240"/>
<path vector-effect="non-scaling-stroke" fill-rule="evenodd" d="M691,240 L787,240 L787,278 L691,278 L691,240"/>
<path vector-effect="non-scaling-stroke" fill-rule="evenodd" d="M787,240 L851,240 L851,278 L787,278 L787,240"/>
<path vector-effect="non-scaling-stroke" fill-rule="evenodd" d="M851,240 L912,240 L912,278 L851,278 L851,240"/>
<path vector-effect="non-scaling-stroke" fill-rule="evenodd" d="M112,316 L226,316 L226,355 L112,355 L112,316"/>
<path vector-effect="non-scaling-stroke" fill-rule="evenodd" d="M226,316 L320,316 L320,355 L226,355 L226,316"/>
<path vector-effect="non-scaling-stroke" fill-rule="evenodd" d="M320,316 L383,316 L383,355 L320,355 L320,316"/>
<path vector-effect="non-scaling-stroke" fill-rule="evenodd" d="M383,316 L485,316 L485,355 L383,355 L383,316"/>
<path vector-effect="non-scaling-stroke" fill-rule="evenodd" d="M485,316 L545,316 L545,355 L485,355 L485,316"/>
<path vector-effect="non-scaling-stroke" fill-rule="evenodd" d="M545,316 L691,316 L691,355 L545,355 L545,316"/>
<path vector-effect="non-scaling-stroke" fill-rule="evenodd" d="M691,316 L787,316 L787,355 L691,355 L691,316"/>
<path vector-effect="non-scaling-stroke" fill-rule="evenodd" d="M787,316 L851,316 L851,355 L787,355 L787,316"/>
<path vector-effect="non-scaling-stroke" fill-rule="evenodd" d="M851,316 L912,316 L912,355 L851,355 L851,316"/>
</g>

<g fill="#a8a8a8" fill-opacity="1" stroke="none" transform="matrix(1,0,0,1,0,0)"
font-family="Helvetica" font-size="12" font-weight="400" font-style="normal" 
>
<path vector-effect="non-scaling-stroke" fill-rule="evenodd" d="M112,8 L226,8 L226,10 L112,10 L112,8"/>
<path vector-effect="non-scaling-stroke" fill-rule="evenodd" d="M226,8 L320,8 L320,10 L226,10 L226,8"/>
<path vector-effect="non-scaling-stroke" fill-rule="evenodd" d="M320,8 L383,8 L383,10 L320,10 L320,8"/>
<path vector-effect="non-scaling-stroke" fill-rule="evenodd" d="M383,8 L485,8 L485,10 L383,10 L383,8"/>
<path vector-effect="non-scaling-stroke" fill-rule="evenodd" d="M485,8 L545,8 L545,10 L485,10 L485,8"/>
<path vector-effect="non-scaling-stroke" fill-rule="evenodd" d="M545,8 L691,8 L691,10 L545,10 L545,8"/>
<path vector-effect="non-scaling-stroke" fill-rule="evenodd" d="M691,8 L787,8 L787,10 L691,10 L691,8"/>
<path vector-effect="non-scaling-stroke" fill-rule="evenodd" d="M787,8 L851,8 L851,10 L787,10 L787,8"/>
<path vector-effect="non-scaling-stroke" fill-rule="evenodd" d="M851,8 L912,8 L912,10 L851,10 L851,8"/>
<path vector-effect="non-scaling-stroke" fill-rule="evenodd" d="M112,48 L226,48 L226,50 L112,50 L112,48"/>
<path vector-effect="non-scaling-stroke" fill-rule="evenodd" d="M226,48 L320,48 L320,50 L226,50 L226,48"/>
<path vector-effect="non-scaling-stroke" fill-rule="evenodd" d="M320,48 L383,48 L383,50 L320,50 L320,48"/>
<path vector-effect="non-scaling-stroke" fill-rule="evenodd" d="M383,48 L485,48 L485,50 L383,50 L383,48"/>
<path vector-effect="non-scaling-stroke" fill-rule="evenodd" d="M485,48 L545,48 L545,50 L485,50 L485,48"/>
<path vector-effect="non-scaling-stroke" fill-rule="evenodd" d="M545,48 L691,48 L691,50 L545,50 L545,48"/>
<path vector-effect="non-scaling-stroke" fill-rule="evenodd" d="M691,48 L787,48 L787,50 L691,50 L691,48"/>
<path vector-effect="non-scaling-stroke" fill-rule="evenodd" d="M787,48 L851,48 L851,50 L787,50 L787,48"/>
<path vector-effect="non-scaling-stroke" fill-rule="evenodd" d="M851,48 L912,48 L912,50 L851,50 L851,48"/>
<path vector-effect="non-scaling-stroke" fill-rule="evenodd" d="M112,48 L226,48 L226,50 L112,50 L112,48"/>
<path vector-effect="non-scaling-stroke" fill-rule="evenodd" d="M226,48 L320,48 L320,50 L226,50 L226,48"/>
<path vector-effect="non-scaling-stroke" fill-rule="evenodd" d="M320,48 L383,48 L383,50 L320,50 L320,48"/>
<path vector-effect="non-scaling-stroke" fill-rule="evenodd" d="M383,48 L485,48 L485,50 L383,50 L383,48"/>
<path vector-effect="non-scaling-stroke" fill-rule="evenodd" d="M485,48 L545,48 L545,50 L485,50 L485,48"/>
<path vector-effect="non-scaling-stroke" fill-rule="evenodd" d="M545,48 L691,48 L691,50 L545,50 L545,48"/>
<path vector-effect="non-scaling-stroke" fill-rule="evenodd" d="M691,48 L787,48 L787,50 L691,50 L691,48"/>
<path vector-effect="non-scaling-stroke" fill-rule="evenodd" d="M787,48 L851,48 L851,50 L787,50 L787,48"/>
<path vector-effect="non-scaling-stroke" fill-rule="evenodd" d="M851,48 L912,48 L912,50 L851,50 L851,48"/>
<path vector-effect="non-scaling-stroke" fill-rule="evenodd" d="M112,354 L226,354 L226,356 L112,356 L112,354"/>
<path vector-effect="non-scaling-stroke" fill-rule="evenodd" d="M226,354 L320,354 L320,356 L226,356 L226,354"/>
<path vector-effect="non-scaling-stroke" fill-rule="evenodd" d="M320,354 L383,354 L383,356 L320,356 L320,354"/>
<path vector-effect="non-scaling-stroke" fill-rule="evenodd" d="M383,354 L485,354 L485,356 L383,356 L383,354"/>
<path vector-effect="non-scaling-stroke" fill-rule="evenodd" d="M485,354 L545,354 L545,356 L485,356 L485,354"/>
<path vector-effect="non-scaling-stroke" fill-rule="evenodd" d="M545,354 L691,354 L691,356 L545,356 L545,354"/>
<path vector-effect="non-scaling-stroke" fill-rule="evenodd" d="M691,354 L787,354 L787,356 L691,356 L691,354"/>
<path vector-effect="non-scaling-stroke" fill-rule="evenodd" d="M787,354 L851,354 L851,356 L787,356 L787,354"/>
<path vector-effect="non-scaling-stroke" fill-rule="evenodd" d="M851,354 L912,354 L912,356 L851,356 L851,354"/>
</g>

<g fill="#000000" fill-opacity="1" stroke="#000000" stroke-opacity="1" stroke-width="1" stroke-linecap="square" stroke-linejoin="bevel" transform="matrix(1,0,0,1,0,0)"
font-family="Arial" font-size="16" font-weight="400" font-style="normal" 
>
<text fill="#000000" fill-opacity="1" stroke="none" xml:space="preserve" x="185" y="34" font-family="Arial" font-size="16" font-weight="400" font-style="normal" 
 >num</text>
<text fill="#000000" fill-opacity="1" stroke="none" xml:space="preserve" x="236" y="34" font-family="Arial" font-size="16" font-weight="400" font-style="normal" 
 >char</text>
<text fill="#000000" fill-opacity="1" stroke="none" xml:space="preserve" x="341" y="34" font-family="Arial" font-size="16" font-weight="400" font-style="normal" 
 >fctr</text>
<text fill="#000000" fill-opacity="1" stroke="none" xml:space="preserve" x="393" y="34" font-family="Arial" font-size="16" font-weight="400" font-style="normal" 
 >date</text>
<text fill="#000000" fill-opacity="1" stroke="none" xml:space="preserve" x="495" y="34" font-family="Arial" font-size="16" font-weight="400" font-style="normal" 
 >time</text>
<text fill="#000000" fill-opacity="1" stroke="none" xml:space="preserve" x="555" y="34" font-family="Arial" font-size="16" font-weight="400" font-style="normal" 
 >datetime</text>
<text fill="#000000" fill-opacity="1" stroke="none" xml:space="preserve" x="716" y="34" font-family="Arial" font-size="16" font-weight="400" font-style="normal" 
 >currency</text>
<text fill="#000000" fill-opacity="1" stroke="none" xml:space="preserve" x="797" y="34" font-family="Arial" font-size="16" font-weight="400" font-style="normal" 
 >row</text>
<text fill="#000000" fill-opacity="1" stroke="none" xml:space="preserve" x="861" y="34" font-family="Arial" font-size="16" font-weight="400" font-style="normal" 
 >group</text>
<text fill="#000000" fill-opacity="1" stroke="none" xml:space="preserve" x="176" y="74" font-family="Arial" font-size="16" font-weight="400" font-style="normal" 
 >0.111</text>
<text fill="#000000" fill-opacity="1" stroke="none" xml:space="preserve" x="236" y="74" font-family="Arial" font-size="16" font-weight="400" font-style="normal" 
 >apricot</text>
<text fill="#000000" fill-opacity="1" stroke="none" xml:space="preserve" x="338" y="74" font-family="Arial" font-size="16" font-weight="400" font-style="normal" 
 >one</text>
<text fill="#000000" fill-opacity="1" stroke="none" xml:space="preserve" x="393" y="74" font-family="Arial" font-size="16" font-weight="400" font-style="normal" 
 >2015-01-15</text>
<text fill="#000000" fill-opacity="1" stroke="none" xml:space="preserve" x="495" y="74" font-family="Arial" font-size="16" font-weight="400" font-style="normal" 
 >13:35</text>
<text fill="#000000" fill-opacity="1" stroke="none" xml:space="preserve" x="555" y="74" font-family="Arial" font-size="16" font-weight="400" font-style="normal" 
 >2018-01-01 02:22</text>
<text fill="#000000" fill-opacity="1" stroke="none" xml:space="preserve" x="728" y="74" font-family="Arial" font-size="16" font-weight="400" font-style="normal" 
 >49.950</text>
<text fill="#000000" fill-opacity="1" stroke="none" xml:space="preserve" x="797" y="74" font-family="Arial" font-size="16" font-weight="400" font-style="normal" 
 >row_1</text>
<text fill="#000000" fill-opacity="1" stroke="none" xml:space="preserve" x="861" y="74" font-family="Arial" font-size="16" font-weight="400" font-style="normal" 
 >grp_a</text>
<text fill="#000000" fill-opacity="1" stroke="none" xml:space="preserve" x="176" y="112" font-family="Arial" font-size="16" font-weight="400" font-style="normal" 
 >2.222</text>
<text fill="#000000" fill-opacity="1" stroke="none" xml:space="preserve" x="236" y="112" font-family="Arial" font-size="16" font-weight="400" font-style="normal" 
 >banana</text>
<text fill="#000000" fill-opacity="1" stroke="none" xml:space="preserve" x="339" y="112" font-family="Arial" font-size="16" font-weight="400" font-style="normal" 
 >two</text>
<text fill="#000000" fill-opacity="1" stroke="none" xml:space="preserve" x="393" y="112" font-family="Arial" font-size="16" font-weight="400" font-style="normal" 
 >2015-02-15</text>
<text fill="#000000" fill-opacity="1" stroke="none" xml:space="preserve" x="495" y="112" font-family="Arial" font-size="16" font-weight="400" font-style="normal" 
 >14:40</text>
<text fill="#000000" fill-opacity="1" stroke="none" xml:space="preserve" x="555" y="112" font-family="Arial" font-size="16" font-weight="400" font-style="normal" 
 >2018-02-02 14:33</text>
<text fill="#000000" fill-opacity="1" stroke="none" xml:space="preserve" x="728" y="112" font-family="Arial" font-size="16" font-weight="400" font-style="normal" 
 >17.950</text>
<text fill="#000000" fill-opacity="1" stroke="none" xml:space="preserve" x="797" y="112" font-family="Arial" font-size="16" font-weight="400" font-style="normal" 
 >row_2</text>
<text fill="#000000" fill-opacity="1" stroke="none" xml:space="preserve" x="861" y="112" font-family="Arial" font-size="16" font-weight="400" font-style="normal" 
 >grp_a</text>
<text fill="#000000" fill-opacity="1" stroke="none" xml:space="preserve" x="167" y="150" font-family="Arial" font-size="16" font-weight="400" font-style="normal" 
 >33.330</text>
<text fill="#000000" fill-opacity="1" stroke="none" xml:space="preserve" x="236" y="150" font-family="Arial" font-size="16" font-weight="400" font-style="normal" 
 >coconut</text>
<text fill="#000000" fill-opacity="1" stroke="none" xml:space="preserve" x="333.5" y="150" font-family="Arial" font-size="16" font-weight="400" font-style="normal" 
 >three</text>
<text fill="#000000" fill-opacity="1" stroke="none" xml:space="preserve" x="393" y="150" font-family="Arial" font-size="16" font-weight="400" font-style="normal" 
 >2015-03-15</text>
<text fill="#000000" fill-opacity="1" stroke="none" xml:space="preserve" x="495" y="150" font-family="Arial" font-size="16" font-weight="400" font-style="normal" 
 >15:45</text>
<text fill="#000000" fill-opacity="1" stroke="none" xml:space="preserve" x="555" y="150" font-family="Arial" font-size="16" font-weight="400" font-style="normal" 
 >2018-03-03 03:44</text>
<text fill="#000000" fill-opacity="1" stroke="none" xml:space="preserve" x="737" y="150" font-family="Arial" font-size="16" font-weight="400" font-style="normal" 
 >1.390</text>
<text fill="#000000" fill-opacity="1" stroke="none" xml:space="preserve" x="797" y="150" font-family="Arial" font-size="16" font-weight="400" font-style="normal" 
 >row_3</text>
<text fill="#000000" fill-opacity="1" stroke="none" xml:space="preserve" x="861" y="150" font-family="Arial" font-size="16" font-weight="400" font-style="normal" 
 >grp_a</text>
<text fill="#000000" fill-opacity="1" stroke="none" xml:space="preserve" x="158" y="188" font-family="Arial" font-size="16" font-weight="400" font-style="normal" 
 >444.400</text>
<text fill="#000000" fill-opacity="1" stroke="none" xml:space="preserve" x="236" y="188" font-family="Arial" font-size="16" font-weight="400" font-style="normal" 
 >durian</text>
<text fill="#000000" fill-opacity="1" stroke="none" xml:space="preserve" x="338" y="188" font-family="Arial" font-size="16" font-weight="400" font-style="normal" 
 >four</text>
<text fill="#000000" fill-opacity="1" stroke="none" xml:space="preserve" x="393" y="188" font-family="Arial" font-size="16" font-weight="400" font-style="normal" 
 >2015-04-15</text>
<text fill="#000000" fill-opacity="1" stroke="none" xml:space="preserve" x="495" y="188" font-family="Arial" font-size="16" font-weight="400" font-style="normal" 
 >16:50</text>
<text fill="#000000" fill-opacity="1" stroke="none" xml:space="preserve" x="555" y="188" font-family="Arial" font-size="16" font-weight="400" font-style="normal" 
 >2018-04-04 15:55</text>
<text fill="#000000" fill-opacity="1" stroke="none" xml:space="preserve" x="701" y="188" font-family="Arial" font-size="16" font-weight="400" font-style="normal" 
 >65100.000</text>
<text fill="#000000" fill-opacity="1" stroke="none" xml:space="preserve" x="797" y="188" font-family="Arial" font-size="16" font-weight="400" font-style="normal" 
 >row_4</text>
<text fill="#000000" fill-opacity="1" stroke="none" xml:space="preserve" x="861" y="188" font-family="Arial" font-size="16" font-weight="400" font-style="normal" 
 >grp_a</text>
<text fill="#000000" fill-opacity="1" stroke="none" xml:space="preserve" x="149" y="226" font-family="Arial" font-size="16" font-weight="400" font-style="normal" 
 >5550.000</text>
<text fill="#000000" fill-opacity="1" stroke="none" xml:space="preserve" x="236" y="226" font-family="Arial" font-size="16" font-weight="400" font-style="normal" 
 >NA</text>
<text fill="#000000" fill-opacity="1" stroke="none" xml:space="preserve" x="339" y="226" font-family="Arial" font-size="16" font-weight="400" font-style="normal" 
 >five</text>
<text fill="#000000" fill-opacity="1" stroke="none" xml:space="preserve" x="393" y="226" font-family="Arial" font-size="16" font-weight="400" font-style="normal" 
 >2015-05-15</text>
<text fill="#000000" fill-opacity="1" stroke="none" xml:space="preserve" x="495" y="226" font-family="Arial" font-size="16" font-weight="400" font-style="normal" 
 >17:55</text>
<text fill="#000000" fill-opacity="1" stroke="none" xml:space="preserve" x="555" y="226" font-family="Arial" font-size="16" font-weight="400" font-style="normal" 
 >2018-05-05 04:00</text>
<text fill="#000000" fill-opacity="1" stroke="none" xml:space="preserve" x="710" y="226" font-family="Arial" font-size="16" font-weight="400" font-style="normal" 
 >1325.810</text>
<text fill="#000000" fill-opacity="1" stroke="none" xml:space="preserve" x="797" y="226" font-family="Arial" font-size="16" font-weight="400" font-style="normal" 
 >row_5</text>
<text fill="#000000" fill-opacity="1" stroke="none" xml:space="preserve" x="861" y="226" font-family="Arial" font-size="16" font-weight="400" font-style="normal" 
 >grp_b</text>
<text fill="#000000" fill-opacity="1" stroke="none" xml:space="preserve" x="193" y="264" font-family="Arial" font-size="16" font-weight="400" font-style="normal" 
 >NA</text>
<text fill="#000000" fill-opacity="1" stroke="none" xml:space="preserve" x="236" y="264" font-family="Arial" font-size="16" font-weight="400" font-style="normal" 
 >fig</text>
<text fill="#000000" fill-opacity="1" stroke="none" xml:space="preserve" x="341.5" y="264" font-family="Arial" font-size="16" font-weight="400" font-style="normal" 
 >six</text>
<text fill="#000000" fill-opacity="1" stroke="none" xml:space="preserve" x="393" y="264" font-family="Arial" font-size="16" font-weight="400" font-style="normal" 
 >2015-06-15</text>
<text fill="#000000" fill-opacity="1" stroke="none" xml:space="preserve" x="495" y="264" font-family="Arial" font-size="16" font-weight="400" font-style="normal" 
 >NA</text>
<text fill="#000000" fill-opacity="1" stroke="none" xml:space="preserve" x="555" y="264" font-family="Arial" font-size="16" font-weight="400" font-style="normal" 
 >2018-06-06 16:11</text>
<text fill="#000000" fill-opacity="1" stroke="none" xml:space="preserve" x="728" y="264" font-family="Arial" font-size="16" font-weight="400" font-style="normal" 
 >13.255</text>
<text fill="#000000" fill-opacity="1" stroke="none" xml:space="preserve" x="797" y="264" font-family="Arial" font-size="16" font-weight="400" font-style="normal" 
 >row_6</text>
<text fill="#000000" fill-opacity="1" stroke="none" xml:space="preserve" x="861" y="264" font-family="Arial" font-size="16" font-weight="400" font-style="normal" 
 >grp_b</text>
<text fill="#000000" fill-opacity="1" stroke="none" xml:space="preserve" x="131" y="302" font-family="Arial" font-size="16" font-weight="400" font-style="normal" 
 >777000.000</text>
<text fill="#000000" fill-opacity="1" stroke="none" xml:space="preserve" x="236" y="302" font-family="Arial" font-size="16" font-weight="400" font-style="normal" 
 >grapefruit</text>
<text fill="#000000" fill-opacity="1" stroke="none" xml:space="preserve" x="330" y="302" font-family="Arial" font-size="16" font-weight="400" font-style="normal" 
 >seven</text>
<text fill="#000000" fill-opacity="1" stroke="none" xml:space="preserve" x="393" y="302" font-family="Arial" font-size="16" font-weight="400" font-style="normal" 
 >NA</text>
<text fill="#000000" fill-opacity="1" stroke="none" xml:space="preserve" x="495" y="302" font-family="Arial" font-size="16" font-weight="400" font-style="normal" 
 >19:10</text>
<text fill="#000000" fill-opacity="1" stroke="none" xml:space="preserve" x="555" y="302" font-family="Arial" font-size="16" font-weight="400" font-style="normal" 
 >2018-07-07 05:22</text>
<text fill="#000000" fill-opacity="1" stroke="none" xml:space="preserve" x="754" y="302" font-family="Arial" font-size="16" font-weight="400" font-style="normal" 
 >NA</text>
<text fill="#000000" fill-opacity="1" stroke="none" xml:space="preserve" x="797" y="302" font-family="Arial" font-size="16" font-weight="400" font-style="normal" 
 >row_7</text>
<text fill="#000000" fill-opacity="1" stroke="none" xml:space="preserve" x="861" y="302" font-family="Arial" font-size="16" font-weight="400" font-style="normal" 
 >grp_b</text>
<text fill="#000000" fill-opacity="1" stroke="none" xml:space="preserve" x="122" y="340" font-family="Arial" font-size="16" font-weight="400" font-style="normal" 
 >8880000.000</text>
<text fill="#000000" fill-opacity="1" stroke="none" xml:space="preserve" x="236" y="340" font-family="Arial" font-size="16" font-weight="400" font-style="normal" 
 >honeydew</text>
<text fill="#000000" fill-opacity="1" stroke="none" xml:space="preserve" x="334" y="340" font-family="Arial" font-size="16" font-weight="400" font-style="normal" 
 >eight</text>
<text fill="#000000" fill-opacity="1" stroke="none" xml:space="preserve" x="393" y="340" font-family="Arial" font-size="16" font-weight="400" font-style="normal" 
 >2015-08-15</text>
<text fill="#000000" fill-opacity="1" stroke="none" xml:space="preserve" x="495" y="340" font-family="Arial" font-size="16" font-weight="400" font-style="normal" 
 >20:20</text>
<text fill="#000000" fill-opacity="1" stroke="none" xml:space="preserve" x="555" y="340" font-family="Arial" font-size="16" font-weight="400" font-style="normal" 
 >NA</text>
<text fill="#000000" fill-opacity="1" stroke="none" xml:space="preserve" x="737" y="340" font-family="Arial" font-size="16" font-weight="400" font-style="normal" 
 >0.440</text>
<text fill="#000000" fill-opacity="1" stroke="none" xml:space="preserve" x="797" y="340" font-family="Arial" font-size="16" font-weight="400" font-style="normal" 
 >row_8</text>
<text fill="#000000" fill-opacity="1" stroke="none" xml:space="preserve" x="861" y="340" font-family="Arial" font-size="16" font-weight="400" font-style="normal" 
 >grp_b</text>
</g>
</g>
</svg>
