<?xml version="1.0" encoding="UTF-8" standalone="no"?>
<svg width="361.244mm" height="140.758mm"
 viewBox="0 0 1024 399"
 xmlns="http://www.w3.org/2000/svg" xmlns:xlink="http://www.w3.org/1999/xlink"  version="1.2" baseProfile="tiny">
<title>Qt Svg Document</title>
<desc>Generated with Qt</desc>
<defs>
</defs>
<g fill="none" stroke="black" stroke-width="1" fill-rule="evenodd" stroke-linecap="square" stroke-linejoin="bevel" >

<g fill="#ffffff" fill-opacity="1" stroke="none" transform="matrix(1,0,0,1,0,0)"
font-family="Helvetica" font-size="12" font-weight="400" font-style="normal" 
>
<path vector-effect="non-scaling-stroke" fill-rule="evenodd" d="M0,0 L1024,0 L1024,399 L0,399 L0,0"/>
<path vector-effect="non-scaling-stroke" fill-rule="evenodd" d="M0,0 L1024,0 L1024,399 L0,399 L0,0"/>
<path vector-effect="non-scaling-stroke" fill-rule="evenodd" d="M0,0 L1024,0 L1024,399 L0,399 L0,0"/>
<path vector-effect="non-scaling-stroke" fill-rule="evenodd" d="M417,8 L607,8 L607,391 L417,391 L417,8"/>
<path vector-effect="non-scaling-stroke" fill-rule="evenodd" d="M417,9 L607,9 L607,38 L417,38 L417,9"/>
<path vector-effect="non-scaling-stroke" fill-rule="evenodd" d="M417,38 L607,38 L607,44 L417,44 L417,38"/>
<path vector-effect="non-scaling-stroke" fill-rule="evenodd" d="M417,44 L513,44 L513,84 L417,84 L417,44"/>
<path vector-effect="non-scaling-stroke" fill-rule="evenodd" d="M513,44 L607,44 L607,84 L513,84 L513,44"/>
</g>

<g fill="#f2f2f2" fill-opacity="1" stroke="none" transform="matrix(1,0,0,1,0,0)"
font-family="Helvetica" font-size="12" font-weight="400" font-style="normal" 
>
<path vector-effect="non-scaling-stroke" fill-rule="evenodd" d="M417,123 L513,123 L513,161 L417,161 L417,123"/>
<path vector-effect="non-scaling-stroke" fill-rule="evenodd" d="M513,123 L607,123 L607,161 L513,161 L513,123"/>
<path vector-effect="non-scaling-stroke" fill-rule="evenodd" d="M417,199 L513,199 L513,237 L417,237 L417,199"/>
<path vector-effect="non-scaling-stroke" fill-rule="evenodd" d="M513,199 L607,199 L607,237 L513,237 L513,199"/>
<path vector-effect="non-scaling-stroke" fill-rule="evenodd" d="M417,275 L513,275 L513,313 L417,313 L417,275"/>
<path vector-effect="non-scaling-stroke" fill-rule="evenodd" d="M513,275 L607,275 L607,313 L513,313 L513,275"/>
<path vector-effect="non-scaling-stroke" fill-rule="evenodd" d="M417,351 L513,351 L513,390 L417,390 L417,351"/>
<path vector-effect="non-scaling-stroke" fill-rule="evenodd" d="M513,351 L607,351 L607,390 L513,390 L513,351"/>
</g>

<g fill="#a8a8a8" fill-opacity="1" stroke="none" transform="matrix(1,0,0,1,0,0)"
font-family="Helvetica" font-size="12" font-weight="400" font-style="normal" 
>
<path vector-effect="non-scaling-stroke" fill-rule="evenodd" d="M417,8 L607,8 L607,10 L417,10 L417,8"/>
<path vector-effect="non-scaling-stroke" fill-rule="evenodd" d="M417,83 L513,83 L513,85 L417,85 L417,83"/>
<path vector-effect="non-scaling-stroke" fill-rule="evenodd" d="M513,83 L607,83 L607,85 L513,85 L513,83"/>
<path vector-effect="non-scaling-stroke" fill-rule="evenodd" d="M417,83 L513,83 L513,85 L417,85 L417,83"/>
<path vector-effect="non-scaling-stroke" fill-rule="evenodd" d="M513,83 L607,83 L607,85 L513,85 L513,83"/>
<path vector-effect="non-scaling-stroke" fill-rule="evenodd" d="M417,389 L513,389 L513,391 L417,391 L417,389"/>
<path vector-effect="non-scaling-stroke" fill-rule="evenodd" d="M513,389 L607,389 L607,391 L513,391 L513,389"/>
<path vector-effect="non-scaling-stroke" fill-rule="evenodd" d="M417,43 L607,43 L607,45 L417,45 L417,43"/>
<path vector-effect="non-scaling-stroke" fill-rule="evenodd" d="M417,43 L513,43 L513,45 L417,45 L417,43"/>
<path vector-effect="non-scaling-stroke" fill-rule="evenodd" d="M513,43 L607,43 L607,45 L513,45 L513,43"/>
</g>

<g fill="#000000" fill-opacity="1" stroke="#000000" stroke-opacity="1" stroke-width="1" stroke-linecap="square" stroke-linejoin="bevel" transform="matrix(1,0,0,1,0,0)"
font-family="Arial" font-size="20" font-weight="400" font-style="normal" 
>
<text fill="#000000" fill-opacity="1" stroke="none" xml:space="preserve" x="438" y="32" font-family="Arial" font-size="20" font-weight="400" font-style="normal" 
 >Using </text>
</g>

<g fill="#000000" fill-opacity="1" stroke="#000000" stroke-opacity="1" stroke-width="1" stroke-linecap="square" stroke-linejoin="bevel" transform="matrix(1,0,0,1,0,0)"
font-family="Arial" font-size="20" font-weight="400" font-style="italic" 
>
<text fill="#000000" fill-opacity="1" stroke="none" xml:space="preserve" x="494" y="32" font-family="Arial" font-size="20" font-weight="400" font-style="italic" 
 >Markdown</text>
</g>

<g fill="#000000" fill-opacity="1" stroke="#000000" stroke-opacity="1" stroke-width="1" stroke-linecap="square" stroke-linejoin="bevel" transform="matrix(1,0,0,1,0,0)"
font-family="Arial" font-size="16" font-weight="400" font-style="normal" 
>
<text fill="#000000" fill-opacity="1" stroke="none" xml:space="preserve" x="442" y="69" font-family="Arial" font-size="16" font-weight="400" font-style="normal" 
 >currency</text>
<text fill="#000000" fill-opacity="1" stroke="none" xml:space="preserve" x="523" y="69" font-family="Arial" font-size="16" font-weight="400" font-style="normal" 
 >char</text>
<text fill="#000000" fill-opacity="1" stroke="none" xml:space="preserve" x="454" y="109" font-family="Arial" font-size="16" font-weight="400" font-style="normal" 
 >49.950</text>
<text fill="#000000" fill-opacity="1" stroke="none" xml:space="preserve" x="523" y="109" font-family="Arial" font-size="16" font-weight="400" font-style="normal" 
 >apricot</text>
<text fill="#000000" fill-opacity="1" stroke="none" xml:space="preserve" x="454" y="147" font-family="Arial" font-size="16" font-weight="400" font-style="normal" 
 >17.950</text>
<text fill="#000000" fill-opacity="1" stroke="none" xml:space="preserve" x="523" y="147" font-family="Arial" font-size="16" font-weight="400" font-style="normal" 
 >banana</text>
<text fill="#000000" fill-opacity="1" stroke="none" xml:space="preserve" x="463" y="185" font-family="Arial" font-size="16" font-weight="400" font-style="normal" 
 >1.390</text>
<text fill="#000000" fill-opacity="1" stroke="none" xml:space="preserve" x="523" y="185" font-family="Arial" font-size="16" font-weight="400" font-style="normal" 
 >coconut</text>
<text fill="#000000" fill-opacity="1" stroke="none" xml:space="preserve" x="427" y="223" font-family="Arial" font-size="16" font-weight="400" font-style="normal" 
 >65100.000</text>
<text fill="#000000" fill-opacity="1" stroke="none" xml:space="preserve" x="523" y="223" font-family="Arial" font-size="16" font-weight="400" font-style="normal" 
 >durian</text>
<text fill="#000000" fill-opacity="1" stroke="none" xml:space="preserve" x="436" y="261" font-family="Arial" font-size="16" font-weight="400" font-style="normal" 
 >1325.810</text>
<text fill="#000000" fill-opacity="1" stroke="none" xml:space="preserve" x="523" y="261" font-family="Arial" font-size="16" font-weight="400" font-style="normal" 
 >NA</text>
<text fill="#000000" fill-opacity="1" stroke="none" xml:space="preserve" x="454" y="299" font-family="Arial" font-size="16" font-weight="400" font-style="normal" 
 >13.255</text>
<text fill="#000000" fill-opacity="1" stroke="none" xml:space="preserve" x="523" y="299" font-family="Arial" font-size="16" font-weight="400" font-style="normal" 
 >fig</text>
<text fill="#000000" fill-opacity="1" stroke="none" xml:space="preserve" x="480" y="337" font-family="Arial" font-size="16" font-weight="400" font-style="normal" 
 >NA</text>
<text fill="#000000" fill-opacity="1" stroke="none" xml:space="preserve" x="523" y="337" font-family="Arial" font-size="16" font-weight="400" font-style="normal" 
 >grapefruit</text>
<text fill="#000000" fill-opacity="1" stroke="none" xml:space="preserve" x="463" y="375" font-family="Arial" font-size="16" font-weight="400" font-style="normal" 
 >0.440</text>
<text fill="#000000" fill-opacity="1" stroke="none" xml:space="preserve" x="523" y="375" font-family="Arial" font-size="16" font-weight="400" font-style="normal" 
 >honeydew</text>
</g>
</g>
</svg>
