<?xml version="1.0" encoding="UTF-8"?>
<svg width="176px" height="30px" viewBox="0 0 176 30" version="1.1" xmlns="http://www.w3.org/2000/svg" xmlns:xlink="http://www.w3.org/1999/xlink">
    <!-- Generator: Sketch 48.2 (47327) - http://www.bohemiancoding.com/sketch -->
    <title>rstudio-cloud-example</title>
    <desc>Created with Sketch.</desc>
    <defs></defs>
    <g id="rstudio-cloud" stroke="none" stroke-width="1" fill="none" fill-rule="evenodd">
        <g id="r-orb" transform="translate(4.696761, 4.334034)" fill-rule="nonzero">
            <circle id="Oval" fill="#74AADB" cx="11" cy="11" r="11"></circle>
            <path d="M14.8,14.5 L16,14.5 L16,15.4 L14.2,15.4 L11.2,10.9 L9.5,10.9 L9.5,14.5 L11.1,14.5 L11.1,15.4 L7.1,15.4 L7.1,14.5 L8.4,14.5 L8.4,6.6 L7.1,6.4 L7.1,5.5 C7.6,5.6 8.1,5.7 8.6,5.7 C9.4,5.7 10.3,5.5 11.2,5.5 C12.9,5.5 14.4,6.2 14.4,8.1 C14.4,9.5 13.6,10.4 12.2,10.8 L14.8,14.5 Z M9.5,10 L10.4,10 C12.5,10 13.3,9.2 13.3,8.2 C13.3,6.9 12.4,6.4 11.2,6.4 C10.6,6.4 10.1,6.4 9.5,6.5 C9.5,6.6 9.5,10 9.5,10 Z" id="Shape" fill="#FFFFFF"></path>
        </g>
        <path d="M34.640377,11.3236212 C34.5983767,11.3936216 34.5528772,11.4461211 34.503877,11.4811212 C34.4548767,11.5161214 34.3953773,11.5336212 34.325377,11.5336212 C34.2460432,11.5336212 34.1527108,11.493955 34.045377,11.4146212 C33.9380431,11.3352875 33.8038778,11.2477884 33.642877,11.1521212 C33.4818762,11.0564541 33.2882114,10.968955 33.061877,10.8896212 C32.8355425,10.8102875 32.5613786,10.7706212 32.239377,10.7706212 C31.9360421,10.7706212 31.6688781,10.8114542 31.437877,10.8931212 C31.2068758,10.9747883 31.0132111,11.0856205 30.856877,11.2256212 C30.7005428,11.3656219 30.5827107,11.5301203 30.503377,11.7191212 C30.4240432,11.9081222 30.384377,12.1122868 30.384377,12.3316212 C30.384377,12.6116226 30.4532096,12.843787 30.590877,13.0281212 C30.7285443,13.2124555 30.9105425,13.3699539 31.136877,13.5006212 C31.3632114,13.6312885 31.6198755,13.7444541 31.906877,13.8401212 C32.1938784,13.9357884 32.4878755,14.034954 32.788877,14.1376212 C33.0898785,14.2402884 33.3838755,14.3557873 33.670877,14.4841212 C33.9578784,14.6124552 34.2145425,14.7746202 34.440877,14.9706212 C34.6672114,15.1666222 34.8492096,15.4069531 34.986877,15.6916212 C35.1245443,15.9762893 35.193377,16.3262858 35.193377,16.7416212 C35.193377,17.1802901 35.118711,17.5921193 34.969377,17.9771212 C34.8200429,18.3621232 34.6018784,18.6969531 34.314877,18.9816212 C34.0278755,19.2662893 33.6755457,19.4902871 33.257877,19.6536212 C32.8402082,19.8169554 32.3653796,19.8986212 31.833377,19.8986212 C31.1800404,19.8986212 30.5873796,19.7807891 30.055377,19.5451212 C29.5233743,19.3094534 29.0683788,18.9909566 28.690377,18.5896212 L29.082377,17.9456212 C29.1197105,17.8942876 29.16521,17.8511214 29.218877,17.8161212 C29.2725439,17.7811211 29.3320433,17.7636212 29.397377,17.7636212 C29.4580439,17.7636212 29.5268766,17.788121 29.603877,17.8371212 C29.6808773,17.8861215 29.7683765,17.9479542 29.866377,18.0226212 C29.9643774,18.0972883 30.0763763,18.1789541 30.202377,18.2676212 C30.3283776,18.3562883 30.4718762,18.4379542 30.632877,18.5126212 C30.7938778,18.5872883 30.9770426,18.649121 31.182377,18.6981212 C31.3877113,18.7471215 31.618709,18.7716212 31.875377,18.7716212 C32.1973786,18.7716212 32.4843757,18.7272883 32.736377,18.6386212 C32.9883782,18.5499541 33.2018761,18.425122 33.376877,18.2641212 C33.5518778,18.1031204 33.6860432,17.9106223 33.779377,17.6866212 C33.8727108,17.4626201 33.919377,17.2129559 33.919377,16.9376212 C33.919377,16.6342864 33.8505443,16.3857889 33.712877,16.1921212 C33.5752096,15.9984536 33.3943781,15.8362885 33.170377,15.7056212 C32.9463758,15.5749539 32.6897117,15.4641217 32.400377,15.3731212 C32.1110422,15.2821208 31.8170451,15.1887884 31.518377,15.0931212 C31.2197088,14.9974541 30.9257117,14.8866219 30.636377,14.7606212 C30.3470422,14.6346206 30.0903781,14.4712889 29.866377,14.2706212 C29.6423758,14.0699536 29.4615443,13.8191227 29.323877,13.5181212 C29.1862096,13.2171197 29.117377,12.8449568 29.117377,12.4016212 C29.117377,12.0469528 29.1862096,11.7039562 29.323877,11.3726212 C29.4615443,11.0412862 29.662209,10.7472892 29.925877,10.4906212 C30.1895449,10.2339533 30.513875,10.028622 30.898877,9.87462123 C31.2838789,9.72062046 31.7260411,9.64362123 32.225377,9.64362123 C32.7853798,9.64362123 33.295208,9.73228701 33.754877,9.90962123 C34.2145459,10.0869554 34.6193752,10.3436195 34.969377,10.6796212 L34.640377,11.3236212 Z M38.987377,19.8986212 C38.4273742,19.8986212 37.9968785,19.7422895 37.695877,19.4296212 C37.3948755,19.116953 37.244377,18.6666242 37.244377,18.0786212 L37.244377,13.7386212 L36.390377,13.7386212 C36.3157099,13.7386212 36.2527105,13.7164548 36.201377,13.6721212 C36.1500434,13.6277877 36.124377,13.558955 36.124377,13.4656212 L36.124377,12.9686212 L37.286377,12.8216212 L37.573377,10.6306212 C37.587377,10.5606209 37.6188767,10.5034548 37.667877,10.4591212 C37.7168772,10.4147877 37.7810432,10.3926212 37.860377,10.3926212 L38.490377,10.3926212 L38.490377,12.8356212 L40.541377,12.8356212 L40.541377,13.7386212 L38.490377,13.7386212 L38.490377,17.9946212 C38.490377,18.2932894 38.5627096,18.5149538 38.707377,18.6596212 C38.8520443,18.8042886 39.0387091,18.8766212 39.267377,18.8766212 C39.3980443,18.8766212 39.5112098,18.8591214 39.606877,18.8241212 C39.7025441,18.7891211 39.7853766,18.7506214 39.855377,18.7086212 C39.9253773,18.666621 39.9848767,18.6281214 40.033877,18.5931212 C40.0828772,18.5581211 40.1260434,18.5406212 40.163377,18.5406212 C40.2287106,18.5406212 40.2870434,18.5802875 40.338377,18.6596212 L40.702377,19.2546212 C40.4877092,19.4552889 40.2287118,19.6127873 39.925377,19.7271212 C39.6220421,19.8414551 39.3093786,19.8986212 38.987377,19.8986212 Z M47.660377,12.6956212 L47.660377,19.7866212 L46.918377,19.7866212 C46.7410427,19.7866212 46.6290439,19.7002888 46.582377,19.5276212 L46.484377,18.7646212 C46.1763754,19.1052896 45.8310455,19.3794535 45.448377,19.5871212 C45.0657084,19.7947889 44.6270461,19.8986212 44.132377,19.8986212 C43.7450417,19.8986212 43.4032118,19.8344552 43.106877,19.7061212 C42.8105421,19.5777873 42.5620446,19.3969557 42.361377,19.1636212 C42.1607093,18.9302867 42.0102108,18.6479562 41.909877,18.3166212 C41.8095431,17.9852862 41.759377,17.6189566 41.759377,17.2176212 L41.759377,12.6956212 L43.005377,12.6956212 L43.005377,17.2176212 C43.005377,17.7542906 43.1278757,18.1696198 43.372877,18.4636212 C43.6178782,18.7576227 43.9923744,18.9046212 44.496377,18.9046212 C44.8650455,18.9046212 45.2092087,18.8171221 45.528877,18.6421212 C45.8485452,18.4671204 46.1437089,18.2256228 46.414377,17.9176212 L46.414377,12.6956212 L47.660377,12.6956212 Z M54.254377,14.3826212 C54.0210425,14.069953 53.769045,13.8517885 53.498377,13.7281212 C53.2277089,13.6044539 52.9243786,13.5426212 52.588377,13.5426212 C51.9303737,13.5426212 51.4240454,13.7782855 51.069377,14.2496212 C50.7147085,14.7209569 50.537377,15.3929502 50.537377,16.2656212 C50.537377,16.7276235 50.5770432,17.1231196 50.656377,17.4521212 C50.7357107,17.7811229 50.8523762,18.0517868 51.006377,18.2641212 C51.1603777,18.4764556 51.3493758,18.6316207 51.573377,18.7296212 C51.7973781,18.8276217 52.0517089,18.8766212 52.336377,18.8766212 C52.7470457,18.8766212 53.1052088,18.7832888 53.410877,18.5966212 C53.7165452,18.4099536 53.997709,18.1462896 54.254377,17.8056212 L54.254377,14.3826212 Z M55.500377,9.47562123 L55.500377,19.7866212 L54.758377,19.7866212 C54.5810427,19.7866212 54.4690439,19.7002888 54.422377,19.5276212 L54.310377,18.6666212 C54.0070421,19.030623 53.6617122,19.3246201 53.274377,19.5486212 C52.8870417,19.7726223 52.4390462,19.8846212 51.930377,19.8846212 C51.5243749,19.8846212 51.1557119,19.8064553 50.824377,19.6501212 C50.493042,19.4937871 50.2107115,19.2639561 49.977377,18.9606212 C49.7440425,18.6572864 49.5643776,18.2792902 49.438377,17.8266212 C49.3123763,17.3739523 49.249377,16.8536242 49.249377,16.2656212 C49.249377,15.7429519 49.3193763,15.2564568 49.459377,14.8061212 C49.5993777,14.3557856 49.8000423,13.9649562 50.061377,13.6336212 C50.3227116,13.3022862 50.6435417,13.0421222 51.023877,12.8531212 C51.4042122,12.6641203 51.8323746,12.5696212 52.308377,12.5696212 C52.7423791,12.5696212 53.1145421,12.6431205 53.424877,12.7901212 C53.7352118,12.937122 54.0117091,13.1412866 54.254377,13.4026212 L54.254377,9.47562123 L55.500377,9.47562123 Z M58.790377,12.6956212 L58.790377,19.7866212 L57.544377,19.7866212 L57.544377,12.6956212 L58.790377,12.6956212 Z M59.056377,10.4696212 C59.056377,10.5909552 59.0318772,10.7041207 58.982877,10.8091212 C58.9338767,10.9141218 58.868544,11.0074542 58.786877,11.0891212 C58.7052099,11.1707883 58.6095442,11.2349543 58.499877,11.2816212 C58.3902097,11.3282881 58.2747109,11.3516212 58.153377,11.3516212 C58.032043,11.3516212 57.9188775,11.3282881 57.813877,11.2816212 C57.7088764,11.2349543 57.6167107,11.1707883 57.537377,11.0891212 C57.4580432,11.0074542 57.3950439,10.9141218 57.348377,10.8091212 C57.3017101,10.7041207 57.278377,10.5909552 57.278377,10.4696212 C57.278377,10.3482873 57.3017101,10.2327884 57.348377,10.1231212 C57.3950439,10.013454 57.4580432,9.9177883 57.537377,9.83612123 C57.6167107,9.75445415 57.7088764,9.69028813 57.813877,9.64362123 C57.9188775,9.59695433 58.032043,9.57362123 58.153377,9.57362123 C58.2747109,9.57362123 58.3902097,9.59695433 58.499877,9.64362123 C58.6095442,9.69028813 58.7052099,9.75445415 58.786877,9.83612123 C58.868544,9.9177883 58.9338767,10.013454 58.982877,10.1231212 C59.0318772,10.2327884 59.056377,10.3482873 59.056377,10.4696212 Z M63.823377,12.5836212 C64.3413795,12.5836212 64.8080415,12.6699537 65.223377,12.8426212 C65.6387124,13.0152888 65.9933755,13.2602863 66.287377,13.5776212 C66.5813784,13.8949561 66.8065428,14.2787856 66.962877,14.7291212 C67.1192111,15.1794568 67.197377,15.6822851 67.197377,16.2376212 C67.197377,16.797624 67.1192111,17.301619 66.962877,17.7496212 C66.8065428,18.1976235 66.5813784,18.5802863 66.287377,18.8976212 C65.9933755,19.2149561 65.6387124,19.458787 65.223377,19.6291212 C64.8080415,19.7994554 64.3413795,19.8846212 63.823377,19.8846212 C63.3007077,19.8846212 62.8305457,19.7994554 62.412877,19.6291212 C61.9952082,19.458787 61.6393784,19.2149561 61.345377,18.8976212 C61.0513755,18.5802863 60.8262111,18.1976235 60.669877,17.7496212 C60.5135428,17.301619 60.435377,16.797624 60.435377,16.2376212 C60.435377,15.6822851 60.5135428,15.1794568 60.669877,14.7291212 C60.8262111,14.2787856 61.0513755,13.8949561 61.345377,13.5776212 C61.6393784,13.2602863 61.9952082,13.0152888 62.412877,12.8426212 C62.8305457,12.6699537 63.3007077,12.5836212 63.823377,12.5836212 Z M63.823377,18.9116212 C64.5233805,18.9116212 65.0460419,18.6771236 65.391377,18.2081212 C65.736712,17.7391189 65.909377,17.0846254 65.909377,16.2446212 C65.909377,15.3999503 65.736712,14.7419569 65.391377,14.2706212 C65.0460419,13.7992855 64.5233805,13.5636212 63.823377,13.5636212 C63.4687085,13.5636212 63.1595449,13.6242873 62.895877,13.7456212 C62.632209,13.8669552 62.4128778,14.0419534 62.237877,14.2706212 C62.0628761,14.499289 61.9322107,14.7804529 61.845877,15.1141212 C61.7595432,15.4477896 61.716377,15.8246191 61.716377,16.2446212 C61.716377,17.0846254 61.8902086,17.7391189 62.237877,18.2081212 C62.5855454,18.6771236 63.1140401,18.9116212 63.823377,18.9116212 Z" id="Studio" fill="#4E4E4E"></path>
        <path d="M79.61,18.1206212 C79.6566669,18.1206212 79.6963332,18.1369544 79.729,18.1696212 L80.009,18.4706212 C79.8036656,18.6899557 79.5808345,18.8871204 79.3405,19.0621212 C79.1001655,19.2371221 78.8365014,19.3864539 78.5495,19.5101212 C78.2624986,19.6337885 77.9475017,19.7294542 77.6045,19.7971212 C77.2614983,19.8647882 76.8846687,19.8986212 76.474,19.8986212 C75.7879966,19.8986212 75.1591695,19.7784558 74.5875,19.5381212 C74.0158305,19.2977867 73.5246687,18.9571234 73.114,18.5161212 C72.7033313,18.075119 72.3848345,17.5419577 72.1585,16.9166212 C71.9321655,16.2912848 71.819,15.5959584 71.819,14.8306212 C71.819,14.0792841 71.9356655,13.393291 72.169,12.7726212 C72.4023345,12.1519515 72.7289979,11.6187901 73.149,11.1731212 C73.5690021,10.7274523 74.0729971,10.3821225 74.661,10.1371212 C75.2490029,9.89212 75.8976631,9.76962123 76.607,9.76962123 C77.2836701,9.76962123 77.8833307,9.87462018 78.406,10.0846212 C78.9286693,10.2946223 79.4046645,10.5909526 79.834,10.9736212 L79.617,11.2886212 C79.5796665,11.3446215 79.5213337,11.3726212 79.442,11.3726212 C79.3859997,11.3726212 79.2950006,11.3212884 79.169,11.2186212 C79.0429994,11.115954 78.8680011,11.0027885 78.644,10.8791212 C78.4199989,10.7554539 78.1411683,10.6422884 77.8075,10.5396212 C77.4738317,10.436954 77.073669,10.3856212 76.607,10.3856212 C76.0096637,10.3856212 75.4625025,10.4882869 74.9655,10.6936212 C74.4684975,10.8989556 74.0415018,11.1929526 73.6845,11.5756212 C73.3274982,11.9582898 73.0486677,12.4249518 72.848,12.9756212 C72.6473323,13.5262906 72.547,14.1446178 72.547,14.8306212 C72.547,15.5306247 72.648499,16.1559518 72.8515,16.7066212 C73.054501,17.2572906 73.3333316,17.722786 73.688,18.1031212 C74.0426684,18.4834565 74.4614976,18.7751202 74.9445,18.9781212 C75.4275024,19.1811222 75.9489972,19.2826212 76.509,19.2826212 C76.8636684,19.2826212 77.1798319,19.2592881 77.4575,19.2126212 C77.7351681,19.1659543 77.9906655,19.095955 78.224,19.0026212 C78.4573345,18.9092874 78.6743323,18.7949552 78.875,18.6596212 C79.0756677,18.5242872 79.273999,18.3656221 79.47,18.1836212 C79.4933334,18.1649545 79.5166665,18.149788 79.54,18.1381212 C79.5633335,18.1264545 79.5866665,18.1206212 79.61,18.1206212 Z M82.347,9.60162123 L82.347,19.7866212 L81.675,19.7866212 L81.675,9.60162123 L82.347,9.60162123 Z M87.464,12.7096212 C87.9633358,12.7096212 88.4101647,12.794787 88.8045,12.9651212 C89.1988353,13.1354554 89.531332,13.376953 89.802,13.6896212 C90.072668,14.0022895 90.279166,14.379119 90.4215,14.8201212 C90.563834,15.2611234 90.635,15.7546185 90.635,16.3006212 C90.635,16.846624 90.563834,17.3389524 90.4215,17.7776212 C90.279166,18.2162901 90.072668,18.591953 89.802,18.9046212 C89.531332,19.2172895 89.1988353,19.4576204 88.8045,19.6256212 C88.4101647,19.7936221 87.9633358,19.8776212 87.464,19.8776212 C86.9646642,19.8776212 86.5178353,19.7936221 86.1235,19.6256212 C85.7291647,19.4576204 85.3955014,19.2172895 85.1225,18.9046212 C84.8494986,18.591953 84.641834,18.2162901 84.4995,17.7776212 C84.357166,17.3389524 84.286,16.846624 84.286,16.3006212 C84.286,15.7546185 84.357166,15.2611234 84.4995,14.8201212 C84.641834,14.379119 84.8494986,14.0022895 85.1225,13.6896212 C85.3955014,13.376953 85.7291647,13.1354554 86.1235,12.9651212 C86.5178353,12.794787 86.9646642,12.7096212 87.464,12.7096212 Z M87.464,19.3526212 C87.8793354,19.3526212 88.2421651,19.2814553 88.5525,19.1391212 C88.8628349,18.9967872 89.1218323,18.7926226 89.3295,18.5266212 C89.5371677,18.2606199 89.6923328,17.9397898 89.795,17.5641212 C89.8976672,17.1884527 89.949,16.7672902 89.949,16.3006212 C89.949,15.8386189 89.8976672,15.4186231 89.795,15.0406212 C89.6923328,14.6626193 89.5371677,14.3394559 89.3295,14.0711212 C89.1218323,13.8027866 88.8628349,13.5962886 88.5525,13.4516212 C88.2421651,13.3069538 87.8793354,13.2346212 87.464,13.2346212 C87.0486646,13.2346212 86.6858349,13.3069538 86.3755,13.4516212 C86.0651651,13.5962886 85.8061677,13.8027866 85.5985,14.0711212 C85.3908323,14.3394559 85.2345005,14.6626193 85.1295,15.0406212 C85.0244995,15.4186231 84.972,15.8386189 84.972,16.3006212 C84.972,16.7672902 85.0244995,17.1884527 85.1295,17.5641212 C85.2345005,17.9397898 85.3908323,18.2606199 85.5985,18.5266212 C85.8061677,18.7926226 86.0651651,18.9967872 86.3755,19.1391212 C86.6858349,19.2814553 87.0486646,19.3526212 87.464,19.3526212 Z M97.922,12.8216212 L97.922,19.7866212 L97.551,19.7866212 C97.4343328,19.7866212 97.3666668,19.7259552 97.348,19.6046212 L97.285,18.5686212 C96.9629984,18.9699566 96.5908354,19.2919533 96.1685,19.5346212 C95.7461646,19.7772891 95.2760026,19.8986212 94.758,19.8986212 C94.3706647,19.8986212 94.0323348,19.8379552 93.743,19.7166212 C93.4536652,19.5952873 93.2133343,19.420289 93.022,19.1916212 C92.8306657,18.9629534 92.6860005,18.6876228 92.588,18.3656212 C92.4899995,18.0436196 92.441,17.6796233 92.441,17.2736212 L92.441,12.8216212 L93.113,12.8216212 L93.113,17.2736212 C93.113,17.9269578 93.2623318,18.4391194 93.561,18.8101212 C93.8596682,19.1811231 94.3146636,19.3666212 94.926,19.3666212 C95.3786689,19.3666212 95.8021647,19.2511224 96.1965,19.0201212 C96.5908353,18.7891201 96.9419985,18.4682899 97.25,18.0576212 L97.25,12.8216212 L97.922,12.8216212 Z M104.964,14.3196212 C104.697999,13.9182859 104.402835,13.6359554 104.0785,13.4726212 C103.754165,13.3092871 103.384335,13.2276212 102.969,13.2276212 C102.558331,13.2276212 102.199002,13.3022871 101.891,13.4516212 C101.582998,13.6009553 101.325168,13.8121199 101.1175,14.0851212 C100.909832,14.3581226 100.753501,14.684786 100.6485,15.0651212 C100.543499,15.4454565 100.491,15.8642856 100.491,16.3216212 C100.491,17.3576264 100.681165,18.1194521 101.0615,18.6071212 C101.441835,19.0947903 101.99133,19.3386212 102.71,19.3386212 C103.167336,19.3386212 103.584998,19.2196224 103.963,18.9816212 C104.341002,18.74362 104.674665,18.4099567 104.964,17.9806212 L104.964,14.3196212 Z M105.629,9.60162123 L105.629,19.7866212 L105.265,19.7866212 C105.143666,19.7866212 105.073667,19.7259552 105.055,19.6046212 L104.985,18.5056212 C104.676998,18.9256233 104.317669,19.2592867 103.907,19.5066212 C103.496331,19.7539558 103.034336,19.8776212 102.521,19.8776212 C101.662329,19.8776212 100.995002,19.5812909 100.519,18.9886212 C100.042998,18.3959516 99.805,17.5069605 99.805,16.3216212 C99.805,15.812952 99.8714993,15.3381234 100.0045,14.8971212 C100.137501,14.456119 100.332332,14.0734562 100.589,13.7491212 C100.845668,13.4247863 101.161831,13.1692888 101.5375,12.9826212 C101.913169,12.7959536 102.345998,12.7026212 102.836,12.7026212 C103.307336,12.7026212 103.715665,12.7889537 104.061,12.9616212 C104.406335,13.1342888 104.707332,13.3909529 104.964,13.7316212 L104.964,9.60162123 L105.629,9.60162123 Z" id="Cloud" fill="#4E4E4E"></path>
        <path d="M117.385,19.4576212 L117.371,19.7866212 L111.561,19.7866212 L111.561,9.94462123 L117.371,9.94462123 L117.371,10.2736212 L111.946,10.2736212 L111.946,14.6346212 L116.517,14.6346212 L116.517,14.9566212 L111.946,14.9566212 L111.946,19.4576212 L117.385,19.4576212 Z M126.31,19.7866212 L125.932,19.7866212 C125.885333,19.7866212 125.850333,19.7714547 125.827,19.7411212 C125.803667,19.7107877 125.780333,19.6839547 125.757,19.6606212 L122.404,14.9216212 C122.39,14.9776215 122.366667,15.0242877 122.334,15.0616212 L119.03,19.6606212 C119.002,19.6886214 118.975167,19.7166211 118.9495,19.7446212 C118.923833,19.7726214 118.892334,19.7866212 118.855,19.7866212 L118.498,19.7866212 L122.138,14.7466212 L118.659,9.94462123 L119.037,9.94462123 C119.083667,9.94462123 119.1175,9.95745443 119.1385,9.98312123 C119.1595,10.008788 119.181667,10.0332878 119.205,10.0566212 L122.418,14.5576212 C122.427333,14.5342878 122.437833,14.509788 122.4495,14.4841212 C122.461167,14.4584544 122.476333,14.4316214 122.495,14.4036212 L125.624,10.0636212 C125.642667,10.0356211 125.664833,10.008788 125.6905,9.98312123 C125.716167,9.95745443 125.747666,9.94462123 125.785,9.94462123 L126.149,9.94462123 L122.684,14.7186212 L126.31,19.7866212 Z M133.583,16.2586212 L131.329,10.7776212 C131.277666,10.6516206 131.228667,10.511622 131.182,10.3576212 C131.14,10.511622 131.091,10.6516206 131.035,10.7776212 L128.781,16.2586212 L133.583,16.2586212 Z M135.445,19.7866212 L135.144,19.7866212 C135.074,19.7866212 135.022667,19.746955 134.99,19.6676212 L133.709,16.5526212 L128.655,16.5526212 L127.374,19.6676212 C127.350667,19.746955 127.297,19.7866212 127.213,19.7866212 L126.926,19.7866212 L131,9.94462123 L131.371,9.94462123 L135.445,19.7866212 Z M146.708,9.94462123 L146.708,19.7866212 L146.372,19.7866212 L146.372,10.7846212 C146.372,10.7472877 146.373167,10.7099547 146.3755,10.6726212 C146.377833,10.6352877 146.379,10.5979547 146.379,10.5606212 L142.249,17.8056212 C142.202333,17.884955 142.146334,17.9246212 142.081,17.9246212 L142.011,17.9246212 C141.941,17.9246212 141.882667,17.884955 141.836,17.8056212 L137.58,10.5466212 C137.584667,10.5886214 137.588167,10.6294544 137.5905,10.6691212 C137.592833,10.7087881 137.594,10.7472877 137.594,10.7846212 L137.594,19.7866212 L137.258,19.7866212 L137.258,9.94462123 L137.489,9.94462123 C137.526334,9.94462123 137.557833,9.9504545 137.5835,9.96212123 C137.609167,9.97378795 137.633667,9.99828771 137.657,10.0356212 L141.927,17.2876212 C141.969,17.3762883 142.008666,17.4626208 142.046,17.5466212 C142.064667,17.504621 142.083333,17.4614548 142.102,17.4171212 C142.120667,17.3727877 142.141667,17.3272881 142.165,17.2806212 L146.309,10.0356212 C146.332333,9.99828771 146.356833,9.97378795 146.3825,9.96212123 C146.408167,9.9504545 146.439666,9.94462123 146.477,9.94462123 L146.708,9.94462123 Z M152.182,15.3556212 C152.644002,15.3556212 153.060498,15.2902885 153.4315,15.1596212 C153.802502,15.0289539 154.117499,14.849289 154.3765,14.6206212 C154.635501,14.3919534 154.834999,14.1212895 154.975,13.8086212 C155.115001,13.495953 155.185,13.1599564 155.185,12.8006212 C155.185,11.9699504 154.935336,11.3376234 154.436,10.9036212 C153.936664,10.4696191 153.185338,10.2526212 152.182,10.2526212 L150.215,10.2526212 L150.215,15.3556212 L152.182,15.3556212 Z M152.182,9.94462123 C153.292672,9.94462123 154.136164,10.1826188 154.7125,10.6586212 C155.288836,11.1346236 155.577,11.8486165 155.577,12.8006212 C155.577,13.2159566 155.496501,13.5997861 155.3355,13.9521212 C155.174499,14.3044563 154.944668,14.6077866 154.646,14.8621212 C154.347332,15.1164558 153.989169,15.3147872 153.5715,15.4571212 C153.153831,15.5994553 152.690669,15.6706212 152.182,15.6706212 L150.215,15.6706212 L150.215,19.7866212 L149.83,19.7866212 L149.83,9.94462123 L152.182,9.94462123 Z M163.025,19.4506212 L163.025,19.7866212 L157.761,19.7866212 L157.761,9.94462123 L158.146,9.94462123 L158.146,19.4506212 L163.025,19.4506212 Z M170.62,19.4576212 L170.606,19.7866212 L164.796,19.7866212 L164.796,9.94462123 L170.606,9.94462123 L170.606,10.2736212 L165.181,10.2736212 L165.181,14.6346212 L169.752,14.6346212 L169.752,14.9566212 L165.181,14.9566212 L165.181,19.4576212 L170.62,19.4576212 Z" id="EXAMPLE" fill="#000000"></path>
    </g>
</svg>