<?xml version="1.0" encoding="UTF-8"?>
<svg width="500px" height="501px" viewBox="0 0 500 501" version="1.1" xmlns="http://www.w3.org/2000/svg" xmlns:xlink="http://www.w3.org/1999/xlink">
    <!-- Generator: Sketch 48.2 (47327) - http://www.bohemiancoding.com/sketch -->
    <title>sza</title>
    <desc>Created with Sketch.</desc>
    <defs>
        <linearGradient x1="50%" y1="0%" x2="50%" y2="77.2261639%" id="linearGradient-1">
            <stop stop-color="#2B65FF" offset="0%"></stop>
            <stop stop-color="#000514" offset="100%"></stop>
        </linearGradient>
        <radialGradient cx="50%" cy="50%" fx="50%" fy="50%" r="42.2808124%" id="radialGradient-2">
            <stop stop-color="#FFFFFF" offset="0%"></stop>
            <stop stop-color="#FFFFFF" stop-opacity="0" offset="100%"></stop>
        </radialGradient>
    </defs>
    <g id="Page-3" stroke="none" stroke-width="1" fill="none" fill-rule="evenodd">
        <circle id="Oval-2-Copy-3" stroke="#979797" fill="url(#linearGradient-1)" cx="250" cy="250.905045" r="237.5"></circle>
        <path d="M433.75199,251.043521 C433.75199,144.36868 351.483422,57.8916351 250,57.8916351 C148.516578,57.8916351 66.2480104,144.36868 66.2480104,251.043521" id="Oval-2-Copy-4" stroke="#979797" stroke-width="2" stroke-dasharray="10,5"></path>
        <path d="M433.75199,444.056931 C433.75199,337.38209 351.483422,250.905045 250,250.905045 C148.516578,250.905045 66.2480104,337.38209 66.2480104,444.056931" id="Oval-2-Copy-7" stroke-opacity="0.299932065" stroke="#979797" stroke-width="2" stroke-dasharray="10,5" transform="translate(250.000000, 347.480988) scale(1, -1) translate(-250.000000, -347.480988) "></path>
        <path d="M203.002,384.269045 C203.730004,387.753062 205.04299,390.210038 206.941,391.640045 C208.839009,393.070052 211.555982,393.785045 215.092,393.785045 C216.808008,393.785045 218.289994,393.577047 219.538,393.161045 C220.786006,392.745043 221.812996,392.186049 222.619,391.484045 C223.425004,390.782041 224.035998,389.989049 224.452,389.105045 C224.868002,388.221041 225.076,387.28505 225.076,386.297045 C225.076,384.321035 224.439006,382.85205 223.165,381.890045 C221.890994,380.92804 220.29201,380.174048 218.368,379.628045 C216.44399,379.082042 214.364011,378.614047 212.128,378.224045 C209.891989,377.834043 207.81201,377.249049 205.888,376.469045 C203.96399,375.689041 202.365006,374.571052 201.091,373.115045 C199.816994,371.659038 199.18,369.605058 199.18,366.953045 C199.18,363.573028 200.414988,360.804056 202.885,358.646045 C205.355012,356.488034 208.851977,355.409045 213.376,355.409045 C217.744022,355.409045 221.292986,356.384035 224.023,358.334045 C226.753014,360.284055 228.403997,363.547022 228.976,368.123045 L224.218,368.123045 C223.801998,365.003029 222.61901,362.806051 220.669,361.532045 C218.71899,360.258039 216.262015,359.621045 213.298,359.621045 C210.333985,359.621045 208.072008,360.258039 206.512,361.532045 C204.951992,362.806051 204.172,364.483035 204.172,366.563045 C204.172,368.383054 204.808994,369.77404 206.083,370.736045 C207.357006,371.69805 208.95599,372.478042 210.88,373.076045 C212.80401,373.674048 214.883989,374.207043 217.12,374.675045 C219.356011,375.143047 221.43599,375.806041 223.36,376.664045 C225.28401,377.522049 226.882994,378.679038 228.157,380.135045 C229.431006,381.591052 230.068,383.619032 230.068,386.219045 C230.068,388.143055 229.652004,389.846038 228.82,391.328045 C227.987996,392.810052 226.844007,394.04504 225.388,395.033045 C223.931993,396.02105 222.20301,396.762043 220.201,397.256045 C218.19899,397.750047 216.002012,397.997045 213.61,397.997045 C211.217988,397.997045 209.099009,397.646049 207.253,396.944045 C205.406991,396.242041 203.834006,395.267051 202.534,394.019045 C201.233993,392.771039 200.220004,391.315053 199.492,389.651045 C198.763996,387.987037 198.348,386.193055 198.244,384.269045 L203.002,384.269045 Z M232.89,396.905045 L232.89,392.771045 L259.722,360.401045 L234.684,360.401045 L234.684,356.501045 L265.728,356.501045 L265.728,360.635045 L238.896,393.005045 L266.742,393.005045 L266.742,396.905045 L232.89,396.905045 Z M298.034,375.689045 C296.05799,376.521049 294.05601,377.067044 292.028,377.327045 C289.99999,377.587046 287.97201,377.795044 285.944,377.951045 C282.355982,378.211046 279.56101,379.017038 277.559,380.369045 C275.55699,381.721052 274.556,383.775031 274.556,386.531045 C274.556,387.779051 274.802998,388.85804 275.297,389.768045 C275.791003,390.67805 276.440996,391.432042 277.247,392.030045 C278.053004,392.628048 278.988995,393.070044 280.055,393.356045 C281.121005,393.642046 282.199995,393.785045 283.292,393.785045 C285.164009,393.785045 286.983991,393.551047 288.752,393.083045 C290.520009,392.615043 292.092993,391.90005 293.471,390.938045 C294.849007,389.97604 295.953996,388.754052 296.786,387.272045 C297.618004,385.790038 298.034,384.035055 298.034,382.007045 L298.034,375.689045 Z M290.156,373.349045 C291.040005,373.245044 292.092994,373.089046 293.315,372.881045 C294.537006,372.673044 295.537996,372.387047 296.318,372.023045 C297.098004,371.659043 297.578999,371.048049 297.761,370.190045 C297.943001,369.332041 298.034,368.539049 298.034,367.811045 C298.034,365.419033 297.267008,363.456053 295.733,361.922045 C294.198992,360.388037 291.612018,359.621045 287.972,359.621045 C286.359992,359.621045 284.878007,359.764044 283.526,360.050045 C282.173993,360.336046 280.991005,360.830041 279.977,361.532045 C278.962995,362.234049 278.131003,363.170039 277.481,364.340045 C276.830997,365.510051 276.402001,366.979036 276.194,368.747045 L271.436,368.747045 C271.592001,366.355033 272.137995,364.314053 273.074,362.624045 C274.010005,360.934037 275.218993,359.55605 276.701,358.490045 C278.183007,357.42404 279.89899,356.644047 281.849,356.150045 C283.79901,355.656043 285.865989,355.409045 288.05,355.409045 C290.07801,355.409045 291.988991,355.630043 293.783,356.072045 C295.577009,356.514047 297.136993,357.21604 298.463,358.178045 C299.789007,359.14005 300.828996,360.427037 301.583,362.039045 C302.337004,363.651053 302.714,365.627033 302.714,367.967045 L302.714,389.963045 C302.714,391.783054 303.038997,392.940043 303.689,393.434045 C304.339003,393.928047 305.65199,393.811049 307.628,393.083045 L307.628,396.749045 C307.263998,396.853046 306.731004,397.009044 306.029,397.217045 C305.326997,397.425046 304.638003,397.529045 303.962,397.529045 C303.233996,397.529045 302.532003,397.451046 301.856,397.295045 C301.075996,397.191044 300.452002,396.944047 299.984,396.554045 C299.515998,396.164043 299.139002,395.696048 298.853,395.150045 C298.566999,394.604042 298.372001,394.006048 298.268,393.356045 C298.164,392.706042 298.112,392.017049 298.112,391.289045 C296.13599,393.473056 293.874013,395.137039 291.326,396.281045 C288.777987,397.425051 286.022015,397.997045 283.058,397.997045 C281.289991,397.997045 279.587008,397.763047 277.949,397.295045 C276.310992,396.827043 274.868006,396.09905 273.62,395.111045 C272.371994,394.12304 271.384004,392.914052 270.656,391.484045 C269.927996,390.054038 269.564,388.351055 269.564,386.375045 C269.564,379.511011 274.269953,375.455051 283.682,374.207045 L290.156,373.349045 Z" id="sza" fill-opacity="0.758406929" fill="#979797" transform="translate(252.936000, 376.703045) rotate(-360.000000) translate(-252.936000, -376.703045) "></path>
        <path d="M300.751778,293.511049 C322.971039,169.851381 276.119727,51.8987133 220.16364,52.983288 C164.207553,54.0678627 127.933714,137.836822 127.933714,246.060454" id="Oval-2-Copy-5" stroke-opacity="0.701596467" stroke="#979797" stroke-width="2" stroke-dasharray="10,5" transform="translate(217.163153, 173.243457) rotate(22.000000) translate(-217.163153, -173.243457) "></path>
        <path d="M368.509995,284.649473 C386.525813,188.578641 335.95983,64.5464323 284.748836,68.5611845 C238.414768,71.8629287 192.665437,140.895532 192.665437,225.728859" id="Oval-2-Copy-5" stroke="#979797" stroke-width="2" stroke-dasharray="10,5" transform="translate(282.448075, 176.557820) rotate(22.000000) translate(-282.448075, -176.557820) "></path>
        <path d="M285.1544,165.092061 C279.529648,158.3274 271.165849,155.75395 263.970117,156.37253 C258.822333,156.774774 259.092972,156.617867 248.653293,160.835771" id="Oval-2-Copy-6" stroke="#A500C3" stroke-width="2" stroke-linecap="square" transform="translate(266.903846, 160.687787) rotate(25.000000) translate(-266.903846, -160.687787) "></path>
        <path d="M180.5,189.405045 L319,310.905045" id="Line-4" stroke="#979797" stroke-width="2" stroke-dasharray="3,3"></path>
        <path d="M444.622772,252.846212 C444.686574,253.985541 444.955451,254.910662 445.429412,255.621603 C446.33176,256.952339 447.922239,257.617696 450.200897,257.617696 C451.221735,257.617696 452.151413,257.471865 452.989959,257.180196 C454.612363,256.615089 455.423553,255.603381 455.423553,254.14504 C455.423553,253.051285 455.081759,252.271996 454.398162,251.80715 C453.70545,251.351418 452.620826,250.954938 451.144256,250.617696 L448.423553,250.002462 C446.6462,249.601418 445.3884,249.159366 444.650115,248.67629 C443.374067,247.837744 442.736053,246.584502 442.736053,244.916525 C442.736053,243.111828 443.360396,241.630723 444.6091,240.473165 C445.857804,239.315607 447.626015,238.736837 449.913787,238.736837 C452.019266,238.736837 453.807986,239.24497 455.279998,240.261251 C456.752011,241.277532 457.488006,242.90219 457.488006,245.135275 L454.931365,245.135275 C454.794646,244.059748 454.502982,243.234887 454.056365,242.660665 C453.226934,241.612483 451.818745,241.0884 449.831756,241.0884 C448.227581,241.0884 447.074598,241.425636 446.372772,242.100118 C445.670945,242.774601 445.320037,243.558447 445.320037,244.451681 C445.320037,245.436061 445.730189,246.156106 446.550506,246.611837 C447.088269,246.903505 448.305054,247.268085 450.200897,247.705587 L453.017303,248.348165 C454.375383,248.658063 455.423549,249.081886 456.161834,249.61965 C457.437882,250.558456 458.075897,251.921073 458.075897,253.70754 C458.075897,255.93151 457.266985,257.521989 455.649139,258.479025 C454.031292,259.436061 452.151428,259.914571 450.00949,259.914571 C447.512082,259.914571 445.557023,259.276557 444.144256,258.000509 C442.731488,256.733576 442.038787,255.015494 442.066131,252.846212 L444.622772,252.846212 Z" id="S" fill="#979797"></path>
        <polygon id="N" fill="#979797" points="41.3052661 239.242696 44.5181568 239.242696 54.662688 255.512228 54.662688 239.242696 57.2466724 239.242696 57.2466724 259.326681 54.1978443 259.326681 43.9029224 243.070821 43.9029224 259.326681 41.3052661 259.326681"></polygon>
        <path d="M443.300233,254.729541 C436.960588,192.662038 395.473725,130.957748 366.780821,128.423504 C333.908618,129.375942 303.849841,159.66221 284.551124,215.184012" id="Oval-2-Copy-5" stroke-opacity="0.697916667" stroke="#979797" stroke-width="2" stroke-dasharray="10,5" transform="translate(363.925679, 191.576522) rotate(22.000000) translate(-363.925679, -191.576522) "></path>
        <ellipse id="Oval-5" stroke="#979797" stroke-width="2" stroke-dasharray="10,5" cx="250.095652" cy="249.405045" rx="183.658127" ry="67.1157605"></ellipse>
        <path d="M66.3773502,250.905045 L434.355964,250.905045" id="Line-3" stroke="#979797" stroke-linecap="square"></path>
        <path d="M250,59.0184113 L250,250.543693" id="Line-3-Copy" stroke="#A500C3" stroke-width="2" stroke-linecap="square"></path>
        <path d="M322,74.905045 L250,250.543693" id="Line-3-Copy" stroke="#A500C3" stroke-width="2" stroke-linecap="square"></path>
        <circle id="Oval-6-Copy" fill="url(#radialGradient-2)" style="mix-blend-mode: screen;" cx="321.842308" cy="77.2023519" r="30.2582744"></circle>
        <circle id="Oval-6" stroke-opacity="0.904325181" stroke="#F8E71C" fill="#F8E71C" cx="321.842308" cy="77.2023519" r="17"></circle>
    </g>
</svg>