<?xml version="1.0" encoding="UTF-8"?>
<svg width="500px" height="501px" viewBox="0 0 500 501" version="1.1" xmlns="http://www.w3.org/2000/svg" xmlns:xlink="http://www.w3.org/1999/xlink">
    <g id="dataset-badges" stroke="none" stroke-width="1" fill="none" fill-rule="evenodd">
        <g id="photolysis" transform="translate(12.500000, 12.729629)">
            <circle id="Oval" fill="#F15137" cx="237.5" cy="237.5" r="237.5"></circle>
            <circle id="Oval" fill="#F3792C" cx="237.5" cy="238" r="197.5"></circle>
            <circle id="Oval" fill="#F9BD3F" cx="237.5" cy="238" r="154"></circle>
            <path d="M237.5,475 C368.667628,475 475,368.667628 475,237.5 L0,237.5 C0,368.667628 106.332372,475 237.5,475 Z" id="Oval" fill="#F48E63"></path>
            <path d="M472.89328,269.271621 C457.365783,385.417022 357.894504,475 237.5,475 C117.105496,475 17.634217,385.417022 2.10672037,269.271621 Z" id="Combined" fill="#EF6571"></path>
            <path d="M237.5,475 C138.673213,475 53.944658,414.638291 18.1710362,328.771574 L456.828964,328.771574 C421.055342,414.638291 336.326787,475 237.5,475 Z" id="Combined" fill="#C9539D"></path>
            <path d="M237.5,475 C165.329098,475 100.676841,442.808854 57.1185046,392.001838 L417.881495,392.001838 C374.323159,442.808854 309.670902,475 237.5,475 Z" id="Combined" fill="#642C8B"></path>
            <path d="M417.881495,392.001838 C414.56676,395.868188 411.12987,399.626734 407.576807,403.271492 L67.4231928,403.271492 C63.8701297,399.626734 60.4332395,395.868188 57.1185046,392.001838 L417.881495,392.001838 Z" id="Combined" fill="#FFFFFF"></path>
            <g transform="translate(289.215162, 285.488628)" fill="#FFFFFF" fill-rule="nonzero">
                <path d="M23.1498013,20.7 C22.4658013,20.7 22.3578013,21.996 20.2698013,22.68 C23.4738013,18.324 22.8978013,10.152 17.0658013,10.152 C14.7618013,10.152 12.9978013,10.692 11.8098013,11.268 C12.0258013,10.044 11.5218013,9.108 9.50580129,9.108 C-1.11419871,9.108 -4.71419871,40.176 8.60580129,40.176 C12.8538013,40.176 16.2378013,34.272 13.2138013,34.272 C8.92980129,34.272 6.62580129,27.144 8.06580129,20.7 C8.46180129,18.792 9.03780129,17.388 9.75780129,15.84 C10.6578013,14.832 11.7738013,13.896 12.7458013,13.896 C14.0778013,13.896 14.1858013,16.02 13.3938013,18.144 C8.06580129,19.296 7.52580129,28.692 15.0138013,28.692 C22.2138013,28.692 24.9498013,20.7 23.1498013,20.7 Z" id="p"></path>
                <path d="M43.7170513,20.7 C43.1050513,20.7 42.2410513,22.5 41.0890513,22.5 C40.4410513,22.5 41.1250513,20.448 41.9890513,18.252 C43.7890513,13.644 43.0690513,10.152 39.1090513,10.152 C37.1650513,10.152 35.5810513,10.764 34.5370513,11.304 C34.8610513,10.656 35.1490513,10.008 35.4010513,9.288 C36.4450513,6.66 37.0570513,0 30.1090513,0 C27.0490513,0 25.7890513,1.26 27.0490513,3.996 C28.7410513,7.668 25.2130513,16.56 23.5210513,20.7 C21.8650513,24.84 24.2410513,28.512 27.6610513,28.512 C30.5410513,28.512 29.6770513,23.904 30.8650513,20.124 C30.9730513,19.764 31.0810513,19.44 31.1890513,19.116 C31.2970513,18.864 33.2770513,13.896 35.2570513,13.896 C36.3370513,13.896 34.4650513,17.604 32.9530513,20.7 C30.8650513,24.948 32.0890513,28.512 36.4450513,28.512 C42.3490513,28.512 45.6970513,20.7 43.7170513,20.7 Z" id="h"></path>
                <path d="M53.3403013,10.152 C47.5803013,10.152 45.8883013,15.264 47.3643013,15.264 C47.9403013,15.264 48.0483013,14.94 49.8123013,14.94 C55.1403013,14.94 53.7003013,22.896 51.3963013,22.896 C50.6763013,22.896 50.7483013,21.744 51.7563013,20.304 C52.7643013,18.864 52.5843013,15.876 49.7403013,15.876 C42.7923013,15.876 41.0283013,28.512 49.4523013,28.512 C61.3683013,28.512 63.0243013,10.152 53.3403013,10.152 Z" id="o"></path>
                <path d="M75.5635513,4.5 C74.8435513,4.5 73.9435513,4.572 72.9715513,4.716 C72.6835513,2.124 71.2075513,0 66.9955513,0 C63.8995513,0 62.6755513,1.26 63.9355513,3.996 C64.1515513,4.464 64.2595513,5.04 64.3315513,5.652 C61.0915513,5.508 61.3075513,3.996 60.3355513,3.996 C58.6075513,3.996 58.1035513,9.36 63.6115513,9.36 C63.7555513,9.36 63.8995513,9.36 64.0435513,9.36 C63.6475513,11.304 62.9275513,13.464 62.0635513,15.552 C59.7595513,21.096 58.1755513,28.512 63.5035513,28.512 C69.4075513,28.512 72.7555513,20.7 70.7755513,20.7 C70.1635513,20.7 69.2995513,22.5 68.1475513,22.5 C66.9955513,22.5 70.0915513,15.876 70.9195513,13.896 C71.0995513,13.428 72.2515513,10.872 72.7915513,8.064 C73.6555513,7.92 74.4115513,7.812 74.9515513,7.812 C76.0315513,7.812 75.9955513,8.604 76.6435513,8.604 C77.9755513,8.604 79.0915513,4.5 75.5635513,4.5 Z" id="t"></path>
                <path d="M80.3988013,10.152 C74.6388013,10.152 72.9468013,15.264 74.4228013,15.264 C74.9988013,15.264 75.1068013,14.94 76.8708013,14.94 C82.1988013,14.94 80.7588013,22.896 78.4548013,22.896 C77.7348013,22.896 77.8068013,21.744 78.8148013,20.304 C79.8228013,18.864 79.6428013,15.876 76.7988013,15.876 C69.8508013,15.876 68.0868013,28.512 76.5108013,28.512 C88.4268013,28.512 90.0828013,10.152 80.3988013,10.152 Z" id="o"></path>
                <path d="M94.9900513,0 C91.8940513,0 90.6700513,1.26 91.9300513,3.996 C93.0100513,6.408 91.8940513,11.124 90.0580513,15.552 C87.7540513,21.096 86.1340513,28.512 91.4980513,28.512 C97.4020513,28.512 100.750051,20.7 98.7700513,20.7 C98.1220513,20.7 97.2940513,22.5 96.1420513,22.5 C94.9900513,22.5 98.0860513,15.876 98.8780513,13.896 C99.3460513,12.78 105.250051,0 94.9900513,0 Z" id="l"></path>
                <path d="M118.329301,10.152 C115.341301,10.152 112.749301,13.284 111.345301,16.524 C111.237301,16.74 111.129301,16.992 111.057301,17.244 C110.085301,18.828 108.393301,22.5 107.421301,22.5 C105.729301,22.5 108.897301,15.876 109.689301,13.896 C110.517301,11.916 110.805301,10.152 107.961301,10.152 C99.8973013,10.152 95.0373013,28.512 102.741301,28.512 C104.649301,28.512 106.413301,27.288 107.925301,25.632 C106.521301,28.584 104.613301,30.888 101.445301,30.888 C99.1053013,30.888 98.7453013,29.412 97.5573013,29.412 C94.7493013,29.412 92.5533013,41.436 102.921301,41.436 C115.269301,41.436 114.297301,24.372 120.057301,13.896 C121.065301,12.024 121.173301,10.152 118.329301,10.152 Z" id="y"></path>
                <path d="M137.672551,20.7 C137.168551,20.7 136.520551,21.888 135.656551,22.32 C134.684551,19.98 130.652551,19.044 131.192551,16.308 C131.336551,15.66 131.768551,15.012 132.236551,15.012 C132.812551,15.012 132.632551,16.128 132.452551,16.668 C132.236551,17.172 132.272551,17.568 133.136551,17.568 C137.024551,17.568 138.428551,9.324 131.912551,9.324 C129.608551,9.324 125.972551,10.404 125.432551,14.508 C125.360551,15.156 125.360551,15.732 125.432551,16.272 C125.144551,16.2 124.856551,16.2 124.568551,16.2 C117.692551,16.2 116.720551,29.016 127.304551,29.016 C127.484551,29.016 127.628551,28.98 127.808551,28.98 C136.808551,28.98 139.652551,20.7 137.672551,20.7 Z M127.340551,19.872 C128.348551,20.808 129.392551,21.384 129.392551,22.032 C129.392551,22.428 128.996551,22.932 128.384551,22.932 C127.520551,22.932 126.656551,22.104 127.340551,19.872 Z" id="s"></path>
                <path d="M147.079801,10.152 C139.771801,10.152 133.291801,28.512 141.391801,28.512 C147.295801,28.512 150.643801,20.7 148.663801,20.7 C148.051801,20.7 147.223801,22.5 146.035801,22.5 C144.883801,22.5 147.979801,15.876 148.807801,13.896 C149.635801,11.916 149.923801,10.152 147.079801,10.152 Z M146.323801,8.892 C149.599801,8.892 151.687801,1.476 148.699801,1.476 C145.675801,1.476 143.263801,8.892 146.323801,8.892 Z" id="i"></path>
                <path d="M167.179051,20.7 C166.675051,20.7 166.027051,21.888 165.163051,22.32 C164.191051,19.98 160.159051,19.044 160.699051,16.308 C160.843051,15.66 161.275051,15.012 161.743051,15.012 C162.319051,15.012 162.139051,16.128 161.959051,16.668 C161.743051,17.172 161.779051,17.568 162.643051,17.568 C166.531051,17.568 167.935051,9.324 161.419051,9.324 C159.115051,9.324 155.479051,10.404 154.939051,14.508 C154.867051,15.156 154.867051,15.732 154.939051,16.272 C154.651051,16.2 154.363051,16.2 154.075051,16.2 C147.199051,16.2 146.227051,29.016 156.811051,29.016 C156.991051,29.016 157.135051,28.98 157.315051,28.98 C166.315051,28.98 169.159051,20.7 167.179051,20.7 Z M156.847051,19.872 C157.855051,20.808 158.899051,21.384 158.899051,22.032 C158.899051,22.428 158.503051,22.932 157.891051,22.932 C157.027051,22.932 156.163051,22.104 156.847051,19.872 Z" id="s"></path>
            </g>
        </g>
        <path d="M487.5,250.229629 C487.5,253.839769 487.419451,257.431096 487.260052,261.00191 L12.7399479,261.00191 C12.580549,257.431096 12.5,253.839769 12.5,250.229629 L12.5,250.229629 Z" id="Combined-Shape" fill="#FFFFFF"></path>
        <path d="M485.39328,282.00125 C484.934265,285.434674 484.401893,288.844886 483.797793,292.230258 L16.2022072,292.230258 C15.598107,288.844886 15.0657354,285.434674 14.6067204,282.00125 L485.39328,282.00125 Z" id="Combined-Shape" fill="#FFFFFF"></path>
        <path d="M469.328964,341.501204 C467.819617,345.124059 466.223124,348.701513 464.542102,352.230946 L35.4578979,352.230946 C33.7768764,348.701513 32.1803832,345.124059 30.6710362,341.501204 L469.328964,341.501204 Z" id="Combined-Shape" fill="#FFFFFF"></path>
    </g>
</svg>
