<?xml version="1.0" encoding="UTF-8"?>
<svg width="500px" height="501px" viewBox="0 0 500 501" version="1.1" xmlns="http://www.w3.org/2000/svg" xmlns:xlink="http://www.w3.org/1999/xlink">
    <defs>
        <radialGradient cx="23.438881%" cy="30.4747787%" fx="23.438881%" fy="30.4747787%" r="38.0649297%" id="radialGradient-1">
            <stop stop-color="#F5D2D2" stop-opacity="0.482298951" offset="0%"></stop>
            <stop stop-color="#FFD3D3" stop-opacity="0.505654502" offset="100%"></stop>
        </radialGradient>
        <radialGradient cx="82.5238425%" cy="50%" fx="82.5238425%" fy="50%" r="47.6459946%" id="radialGradient-2">
            <stop stop-color="#DAF9FC" stop-opacity="0.5" offset="0%"></stop>
            <stop stop-color="#F6F6F6" stop-opacity="0.5" offset="57.348396%"></stop>
            <stop stop-color="#B5FBF2" stop-opacity="0.508550044" offset="100%"></stop>
        </radialGradient>
        <path d="M475,237.5 C475,368.667628 368.667628,475 237.5,475 C206.325827,475 176.554485,468.993769 149.280048,458.075381 C155.670311,455.89415 162.118851,452.109909 168.628,446.71952 C179.550667,437.674186 185.865333,428.202186 187.572,418.30352 L187.572,418.30352 L194.228,382.97552 C195.593333,379.90352 199.006667,374.100853 204.468,365.56752 L204.468,365.56752 L215.22,388.09552 C226.142667,410.964853 236.212,428.714186 245.428,441.34352 C254.644,453.972853 264.201333,460.28752 274.1,460.28752 C281.950667,460.28752 290.228,456.44752 298.932,448.76752 C307.636,441.08752 315.230667,431.61552 321.716,420.35152 C328.201333,409.08752 331.956,398.676853 332.98,389.11952 C333.321333,387.754186 333.492,385.706186 333.492,382.97552 C333.492,377.85552 331.956,375.29552 328.884,375.29552 C326.836,375.29552 325.044,376.148853 323.508,377.85552 C321.972,379.562186 320.18,382.122186 318.132,385.53552 C306.185333,402.260853 296.798667,410.62352 289.972,410.62352 C277.342667,410.62352 257.886667,381.610186 231.604,323.58352 L231.604,323.58352 L256.18,288.76752 C265.054667,276.47952 272.905333,267.77552 279.732,262.65552 C286.558667,257.53552 294.409333,254.97552 303.284,254.97552 C308.062667,254.97552 312.073333,255.74352 315.316,257.27952 C318.558667,258.81552 321.716,260.948853 324.788,263.67952 C327.86,265.72752 330.078667,266.75152 331.444,266.75152 C335.198667,266.75152 338.526667,263.764853 341.428,257.79152 C344.329333,251.818186 345.78,245.588853 345.78,239.10352 C345.78,230.570186 342.708,223.828853 336.564,218.87952 C330.42,213.930186 322.057333,211.45552 311.476,211.45552 C302.26,211.45552 293.470667,213.844853 285.108,218.62352 C276.745333,223.402186 266.932,232.532853 255.668,246.01552 C244.404,259.498186 230.921333,279.03952 215.22,304.63952 L215.22,304.63952 L203.444,323.58352 L202.932,323.58352 L216.756,237.56752 C224.606667,188.41552 231.262667,152.490186 236.724,129.79152 C242.185333,107.092853 249.353333,88.5755196 258.228,74.2395196 C265.396,63.6581863 272.905333,55.9781863 280.756,51.1995196 C288.606667,46.4208529 297.822667,43.5195196 308.404,42.4955196 C315.230667,42.1541863 320.265333,41.5568529 323.508,40.7035196 C326.750667,39.8501863 329.908,37.8875196 332.98,34.8155196 C336.370021,31.4254988 339.273098,27.8267879 341.689231,24.0193868 C420.631172,62.6131804 475,143.70733 475,237.5 Z M237.5,0 L241.427497,0.0318182145 C265.794226,0.426887587 289.26892,4.49152382 311.323038,11.6971864 C295.131939,14.3818562 281.700939,17.9053174 271.028,22.2715196 C259.764,26.8795196 247.817333,36.0101863 235.188,49.6635196 C220.169333,66.3888529 207.284,88.4048529 196.532,115.71152 C185.78,143.018186 176.990667,178.004853 170.164,220.67152 L170.164,220.67152 L138.42,418.30352 C136.713333,427.51952 134.58,435.540853 132.02,442.36752 C131.030553,445.006044 130.232318,447.262145 129.625295,449.135822 C52.6800464,409.844926 0,329.824505 0,237.5 C0,106.332372 106.332372,0 237.5,0 Z" id="path-3"></path>
    </defs>
    <g id="dataset-badges" stroke="none" stroke-width="1" fill="none" fill-rule="evenodd">
        <g id="reactions" transform="translate(12.500000, 12.562110)">
            <g id="combined">
                <use fill="url(#radialGradient-1)" xlink:href="#path-3"></use>
                <use stroke-opacity="0.520460009" stroke="#DEDEDE" stroke-width="2" fill="url(#radialGradient-2)" xlink:href="#path-3"></use>
            </g>
            <g transform="translate(250.688000, 141.659810)" fill="#9B9B9B" fill-rule="nonzero">
                <path d="M1.856,43.712 C1.68533333,43.712 1.54666667,43.68 1.44,43.616 C1.33333333,43.552 1.28,43.4773333 1.28,43.392 C1.28,43.264 1.408,42.9866667 1.664,42.56 C1.92,42.1333333 2.112,41.536 2.24,40.768 C2.41066667,39.872 2.56,39.0506667 2.688,38.304 C2.816,37.5573333 2.944,36.864 3.072,36.224 C4.13866667,30.3786667 4.85333333,26.2933333 5.216,23.968 C5.57866667,21.6426667 5.73866667,19.9466667 5.696,18.88 C5.696,18.3253333 5.65333333,17.92 5.568,17.664 C5.48266667,17.408 5.29066667,17.28 4.992,17.28 C4.608,17.28 4.11733333,17.6 3.52,18.24 C2.92266667,18.88 2.368,19.6266667 1.856,20.48 C1.64266667,20.864 1.45066667,21.1946667 1.28,21.472 C1.10933333,21.7493333 0.970666667,21.952 0.864,22.08 C0.757333333,22.208 0.64,22.272 0.512,22.272 C0.341333333,22.272 0.213333333,22.208 0.128,22.08 C0.0426666667,21.952 0,21.7813333 0,21.568 C0,20.7573333 0.458666667,19.6266667 1.376,18.176 C2.29333333,16.7253333 3.38133333,15.4346667 4.64,14.304 C5.89866667,13.1733333 7.01866667,12.608 8,12.608 C8.81066667,12.608 9.376,12.928 9.696,13.568 C10.016,14.208 10.176,15.2106667 10.176,16.576 C10.176,18.4533333 9.77066667,20.992 8.96,24.192 L9.088,24.192 C13.1413333,16.4693333 16.896,12.608 20.352,12.608 C21.248,12.608 21.9413333,12.8533333 22.432,13.344 C22.9226667,13.8346667 23.168,14.528 23.168,15.424 C23.168,16.3626667 22.9653333,17.3226667 22.56,18.304 C22.1546667,19.2853333 21.664,20.096 21.088,20.736 C20.512,21.376 19.9893333,21.696 19.52,21.696 C19.2213333,21.696 19.1146667,21.504 19.2,21.12 C19.328,20.5226667 19.392,20.0533333 19.392,19.712 C19.392,18.688 18.8373333,18.176 17.728,18.176 C16.4053333,18.176 15.0826667,18.944 13.76,20.48 C12.4373333,22.016 11.2746667,23.8933333 10.272,26.112 C9.26933333,28.3306667 8.576,30.3573333 8.192,32.192 C7.68,34.1546667 7.36,36.2026667 7.232,38.336 C7.14666667,39.1466667 6.77333333,39.968 6.112,40.8 C5.45066667,41.632 4.69333333,42.3253333 3.84,42.88 C2.98666667,43.4346667 2.32533333,43.712 1.856,43.712 Z" id="r"></path>
                <path d="M26.736,43.712 C24.816,43.712 23.2906667,42.976 22.16,41.504 C21.0293333,40.032 20.464,37.9946667 20.464,35.392 C20.464,32.2346667 21.2213333,28.8533333 22.736,25.248 C24.2506667,21.6426667 26.2026667,18.6346667 28.592,16.224 C30.9813333,13.8133333 33.392,12.608 35.824,12.608 C38.0426667,12.608 39.152,13.952 39.152,16.64 C39.152,18.816 38.512,20.9493333 37.232,23.04 C35.952,25.1306667 34.2346667,26.976 32.08,28.576 C29.9253333,30.176 27.568,31.4026667 25.008,32.256 C25.008,34.56 25.3813333,36.224 26.128,37.248 C26.8746667,38.272 27.9733333,38.784 29.424,38.784 C30.96,38.784 32.368,38.2933333 33.648,37.312 C34.928,36.3306667 36.016,34.9866667 36.912,33.28 C37.04,33.024 37.168,32.8106667 37.296,32.64 C37.424,32.4693333 37.5946667,32.384 37.808,32.384 C38.1493333,32.384 38.32,32.64 38.32,33.152 C38.32,34.304 37.744,35.7333333 36.592,37.44 C35.44,39.1466667 33.968,40.6186667 32.176,41.856 C30.384,43.0933333 28.5706667,43.712 26.736,43.712 Z M27.056,28.864 C28.1653333,28.864 29.3493333,28.4693333 30.608,27.68 C31.8666667,26.8906667 32.9226667,25.8133333 33.776,24.448 C34.6293333,23.0826667 35.056,21.5466667 35.056,19.84 C35.056,17.8346667 34.352,16.832 32.944,16.832 C31.792,16.832 30.6933333,17.4506667 29.648,18.688 C28.6026667,19.9253333 27.728,21.4613333 27.024,23.296 C26.32,25.1306667 25.84,26.9013333 25.584,28.608 C25.84,28.7786667 26.3306667,28.864 27.056,28.864 Z" id="e"></path>
                <path d="M43.872,43.712 C41.696,43.712 40.608,41.6426667 40.608,37.504 C40.608,33.536 41.472,29.6213333 43.2,25.76 C44.928,21.8986667 47.264,18.7413333 50.208,16.288 C53.152,13.8346667 56.3306667,12.608 59.744,12.608 C61.4933333,12.608 63.008,12.8853333 64.288,13.44 C63.7333333,15.616 63.3493333,17.216 63.136,18.24 L61.792,25.152 C60.5973333,30.6133333 59.872,34.3893333 59.616,36.48 C59.5733333,36.7786667 59.552,37.1413333 59.552,37.568 C59.552,38.5066667 59.8293333,38.976 60.384,38.976 C61.0666667,38.976 61.7066667,38.5386667 62.304,37.664 C62.9013333,36.7893333 63.584,35.5413333 64.352,33.92 C64.3946667,33.8773333 64.4693333,33.7493333 64.576,33.536 C64.6826667,33.3226667 64.8213333,33.216 64.992,33.216 C65.248,33.216 65.376,33.472 65.376,33.984 L65.248,35.008 C64.9493333,36.416 64.3413333,37.8026667 63.424,39.168 C62.5066667,40.5333333 61.4826667,41.632 60.352,42.464 C59.2213333,43.296 58.208,43.712 57.312,43.712 C55.8186667,43.712 55.072,42.496 55.072,40.064 C55.072,39.1253333 55.1786667,38.1653333 55.392,37.184 L56.48,31.616 L56.416,31.616 C54.368,35.2 52.1813333,38.112 49.856,40.352 C47.5306667,42.592 45.536,43.712 43.872,43.712 Z M46.88,38.464 C48.0746667,38.464 49.4506667,37.536 51.008,35.68 C52.5653333,33.824 54.016,31.552 55.36,28.864 C56.704,26.176 57.632,23.7653333 58.144,21.632 L59.168,17.536 C57.888,16.6826667 56.544,16.256 55.136,16.256 C53.3013333,16.256 51.6266667,17.312 50.112,19.424 C48.5973333,21.536 47.4133333,24.096 46.56,27.104 C45.7066667,30.112 45.28,32.832 45.28,35.264 C45.28,36.3306667 45.3973333,37.1306667 45.632,37.664 C45.8666667,38.1973333 46.2826667,38.464 46.88,38.464 Z" id="a"></path>
                <path d="M73.104,43.712 C71.2693333,43.712 69.904,42.8906667 69.008,41.248 C68.112,39.6053333 67.664,37.6533333 67.664,35.392 C67.664,32.1493333 68.4426667,28.736 70,25.152 C71.5573333,21.568 73.5733333,18.5813333 76.048,16.192 C78.5226667,13.8026667 81.0826667,12.608 83.728,12.608 C84.88,12.608 85.7866667,12.832 86.448,13.28 C87.1093333,13.728 87.44,14.3146667 87.44,15.04 C87.44,15.7226667 87.184,16.512 86.672,17.408 C86.3733333,17.92 86.096,18.176 85.84,18.176 C85.6693333,18.176 85.52,18.0693333 85.392,17.856 C84.4533333,16.6186667 83.28,16 81.872,16 C80.1653333,16 78.576,16.7146667 77.104,18.144 C75.632,19.5733333 74.4693333,21.4826667 73.616,23.872 C72.7626667,26.2613333 72.336,28.8426667 72.336,31.616 C72.336,36.3946667 73.6586667,38.784 76.304,38.784 C77.6693333,38.784 78.8426667,38.272 79.824,37.248 C80.8053333,36.224 81.7226667,34.9653333 82.576,33.472 C82.6613333,33.344 82.768,33.1733333 82.896,32.96 C83.024,32.7466667 83.1413333,32.5973333 83.248,32.512 C83.3546667,32.4266667 83.4933333,32.384 83.664,32.384 C83.792,32.384 83.8986667,32.4586667 83.984,32.608 C84.0693333,32.7573333 84.112,32.9386667 84.112,33.152 C84.112,34.3893333 83.536,35.8506667 82.384,37.536 C81.232,39.2213333 79.792,40.672 78.064,41.888 C76.336,43.104 74.6826667,43.712 73.104,43.712 Z" id="c"></path>
                <path d="M95.552,43.712 C94.272,43.712 93.376,43.2746667 92.864,42.4 C92.352,41.5253333 92.096,40.3413333 92.096,38.848 C92.096,37.7386667 92.192,36.5546667 92.384,35.296 C92.576,34.0373333 92.6933333,33.28 92.736,33.024 L95.36,16.576 L88.896,16.576 C88.6826667,16.576 88.576,16.4693333 88.576,16.256 C88.576,15.8293333 89.0453333,15.2213333 89.984,14.432 C90.9226667,13.6426667 91.6053333,13.248 92.032,13.248 L95.872,13.248 L96.512,9.28 C96.6826667,7.872 97.344,6.61333333 98.496,5.504 C99.648,4.39466667 100.8,3.84 101.952,3.84 C102.165333,3.84 102.272,3.94666667 102.272,4.16 C102.272,4.33066667 102.08,4.832 101.696,5.664 C101.312,6.496 101.034667,7.38133333 100.864,8.32 L100.096,13.248 L106.368,13.248 C106.624,13.248 106.752,13.376 106.752,13.632 C106.752,13.9733333 106.250667,14.5493333 105.248,15.36 C104.245333,16.1706667 103.594667,16.576 103.296,16.576 L99.712,16.576 L97.088,32.896 C97.0453333,33.1946667 96.928,33.92 96.736,35.072 C96.544,36.224 96.448,37.12 96.448,37.76 C96.448,39.168 96.9173333,39.872 97.856,39.872 C98.5386667,39.872 99.264,39.5413333 100.032,38.88 C100.8,38.2186667 101.482667,37.2906667 102.08,36.096 C102.122667,36.0106667 102.176,35.9253333 102.24,35.84 C102.304,35.7546667 102.378667,35.712 102.464,35.712 C102.677333,35.712 102.784,35.9893333 102.784,36.544 C102.784,37.3973333 102.410667,38.4 101.664,39.552 C100.917333,40.704 99.9786667,41.6853333 98.848,42.496 C97.7173333,43.3066667 96.6186667,43.712 95.552,43.712 Z" id="t"></path>
                <path d="M114.928,8.96 C114.501333,8.96 114.309333,8.74666667 114.352,8.32 L115.12,3.84 C115.333333,2.60266667 115.792,1.65333333 116.496,0.992 C117.2,0.330666667 118.085333,0 119.152,0 L119.408,0 C119.664,0 119.824,0.0426666667 119.888,0.128 C119.952,0.213333333 119.962667,0.384 119.92,0.64 L119.216,5.056 C119.045333,6.25066667 118.597333,7.2 117.872,7.904 C117.146667,8.608 116.250667,8.96 115.184,8.96 L114.928,8.96 Z M111.152,43.712 C109.786667,43.712 109.104,42.7306667 109.104,40.768 C109.104,39.7866667 109.232,38.656 109.488,37.376 L112.56,20.288 C112.730667,19.1786667 112.816,18.496 112.816,18.24 C112.816,17.6 112.624,17.28 112.24,17.28 C111.728,17.28 111.109333,17.6853333 110.384,18.496 C109.658667,19.3066667 108.869333,20.5866667 108.016,22.336 C107.845333,22.848 107.632,23.104 107.376,23.104 C107.12,23.104 106.992,22.8906667 106.992,22.464 C106.992,21.44 107.450667,20.128 108.368,18.528 C109.285333,16.928 110.416,15.5413333 111.76,14.368 C113.104,13.1946667 114.352,12.608 115.504,12.608 C116.826667,12.608 117.488,13.5466667 117.488,15.424 C117.488,16.32 117.36,17.4933333 117.104,18.944 L113.776,37.44 L113.648,38.272 C113.648,38.7413333 113.84,38.976 114.224,38.976 C114.736,38.976 115.354667,38.56 116.08,37.728 C116.805333,36.896 117.594667,35.6266667 118.448,33.92 C118.661333,33.4506667 118.874667,33.216 119.088,33.216 C119.344,33.216 119.472,33.4933333 119.472,34.048 C119.472,35.0293333 119.013333,36.2986667 118.096,37.856 C117.178667,39.4133333 116.058667,40.7786667 114.736,41.952 C113.413333,43.1253333 112.218667,43.712 111.152,43.712 Z" id="i"></path>
                <path d="M127.456,43.712 C125.664,43.712 124.309333,43.0186667 123.392,41.632 C122.474667,40.2453333 122.016,38.3146667 122.016,35.84 C122.016,32.384 122.848,28.8426667 124.512,25.216 C126.176,21.5893333 128.234667,18.5813333 130.688,16.192 C133.141333,13.8026667 135.477333,12.608 137.696,12.608 C139.36,12.608 140.64,13.344 141.536,14.816 C142.432,16.288 142.88,18.2186667 142.88,20.608 C142.88,23.808 142.101333,27.2213333 140.544,30.848 C138.986667,34.4746667 137.013333,37.5253333 134.624,40 C132.234667,42.4746667 129.845333,43.712 127.456,43.712 Z M130.592,39.488 C132,39.488 133.28,38.7733333 134.432,37.344 C135.584,35.9146667 136.501333,34.016 137.184,31.648 C137.866667,29.28 138.208,26.7733333 138.208,24.128 C138.208,19.264 136.949333,16.832 134.432,16.832 C132.853333,16.832 131.477333,17.6853333 130.304,19.392 C129.130667,21.0986667 128.234667,23.1786667 127.616,25.632 C126.997333,28.0853333 126.688,30.3786667 126.688,32.512 C126.688,34.56 126.997333,36.2346667 127.616,37.536 C128.234667,38.8373333 129.226667,39.488 130.592,39.488 Z" id="o"></path>
                <path d="M146.896,43.712 C146.512,43.712 146.32,43.584 146.32,43.328 C146.32,43.1573333 146.416,42.784 146.608,42.208 C146.8,41.632 147.066667,40.64 147.408,39.232 C148.261333,35.6906667 149.285333,29.7813333 150.48,21.504 C150.736,19.8826667 150.864,18.752 150.864,18.112 C150.864,17.5573333 150.736,17.28 150.48,17.28 C149.754667,17.28 148.666667,18.56 147.216,21.12 C147.002667,21.504 146.810667,21.8346667 146.64,22.112 C146.469333,22.3893333 146.330667,22.592 146.224,22.72 C146.117333,22.848 146,22.912 145.872,22.912 C145.530667,22.912 145.36,22.6986667 145.36,22.272 C145.36,21.4186667 145.829333,20.2026667 146.768,18.624 C147.706667,17.0453333 148.816,15.648 150.096,14.432 C151.376,13.216 152.528,12.608 153.552,12.608 C154.234667,12.608 154.725333,12.9066667 155.024,13.504 C155.322667,14.1013333 155.472,14.848 155.472,15.744 C155.472,17.152 155.130667,19.904 154.448,24 L154.512,24 C156.474667,20.544 158.629333,17.7813333 160.976,15.712 C163.322667,13.6426667 165.349333,12.608 167.056,12.608 C168.848,12.608 169.744,13.8666667 169.744,16.384 C169.744,17.3226667 169.552,18.9013333 169.168,21.12 L167.696,28.8 C166.629333,34.2186667 166.096,37.2906667 166.096,38.016 C166.096,38.3146667 166.170667,38.5813333 166.32,38.816 C166.469333,39.0506667 166.714667,39.168 167.056,39.168 C168.208,39.168 169.530667,37.4186667 171.024,33.92 C171.152,33.4506667 171.365333,33.216 171.664,33.216 C171.92,33.216 172.048,33.472 172.048,33.984 C172.048,34.368 172.026667,34.7093333 171.984,35.008 C171.685333,36.544 171.066667,37.984 170.128,39.328 C169.189333,40.672 168.144,41.7386667 166.992,42.528 C165.84,43.3173333 164.794667,43.712 163.856,43.712 C162.96,43.712 162.352,43.3386667 162.032,42.592 C161.712,41.8453333 161.552,41.024 161.552,40.128 C161.552,38.208 162.085333,34.752 163.152,29.76 C164.176,24.896 164.730667,21.5253333 164.816,19.648 C164.858667,18.88 164.805333,18.336 164.656,18.016 C164.506667,17.696 164.154667,17.536 163.6,17.536 C162.277333,17.536 160.858667,18.4106667 159.344,20.16 C157.829333,21.9093333 156.474667,24.0533333 155.28,26.592 C154.085333,29.1306667 153.296,31.4453333 152.912,33.536 L151.888,39.104 C151.632,40.2133333 150.949333,41.2586667 149.84,42.24 C148.730667,43.2213333 147.749333,43.712 146.896,43.712 Z" id="n"></path>
                <path d="M177.536,43.712 C176.213333,43.712 175.082667,43.3493333 174.144,42.624 C173.205333,41.8986667 172.586667,40.9386667 172.288,39.744 C172.202667,39.4026667 172.341333,38.8586667 172.704,38.112 C173.066667,37.3653333 173.546667,36.6293333 174.144,35.904 C174.485333,35.52 174.762667,35.328 174.976,35.328 C175.189333,35.328 175.36,35.4986667 175.488,35.84 C176.768,38.8266667 178.538667,40.32 180.8,40.32 C181.952,40.32 182.858667,39.968 183.52,39.264 C184.181333,38.56 184.512,37.6106667 184.512,36.416 C184.512,34.7946667 183.594667,32.704 181.76,30.144 L180.416,28.224 C179.392,26.7733333 178.677333,25.5786667 178.272,24.64 C177.866667,23.7013333 177.664,22.6986667 177.664,21.632 C177.664,19.9253333 178.122667,18.3893333 179.04,17.024 C179.957333,15.6586667 181.162667,14.5813333 182.656,13.792 C184.149333,13.0026667 185.706667,12.608 187.328,12.608 C190.4,12.608 191.936,13.6533333 191.936,15.744 C191.936,16.512 191.658667,17.28 191.104,18.048 C190.805333,18.56 190.549333,18.816 190.336,18.816 C190.08,18.816 189.845333,18.56 189.632,18.048 C189.162667,17.2373333 188.597333,16.6506667 187.936,16.288 C187.274667,15.9253333 186.432,15.744 185.408,15.744 C184.213333,15.744 183.253333,16.064 182.528,16.704 C181.802667,17.344 181.44,18.1546667 181.44,19.136 C181.44,19.6906667 181.621333,20.32 181.984,21.024 C182.346667,21.728 183.04,22.8053333 184.064,24.256 L185.408,26.112 C186.602667,27.6906667 187.434667,29.0453333 187.904,30.176 C188.373333,31.3066667 188.608,32.4906667 188.608,33.728 C188.608,35.3066667 188.096,36.8746667 187.072,38.432 C186.048,39.9893333 184.682667,41.2586667 182.976,42.24 C181.269333,43.2213333 179.456,43.712 177.536,43.712 Z" id="s"></path>
            </g>
        </g>
    </g>
</svg>
