<?xml version="1.0" encoding="UTF-8"?>
<svg width="500px" height="501px" viewBox="0 0 500 501" version="1.1" xmlns="http://www.w3.org/2000/svg" xmlns:xlink="http://www.w3.org/1999/xlink">
    <title>illness</title>
    <defs>
        <filter x="-0.7%" y="-0.7%" width="101.5%" height="101.5%" filterUnits="objectBoundingBox" id="filter-1">
            <feGaussianBlur stdDeviation="1 0" in="SourceGraphic"></feGaussianBlur>
        </filter>
    </defs>
    <g id="dataset-badges" stroke="none" stroke-width="1" fill="none" fill-rule="evenodd">
        <g id="illness" transform="translate(12.500000, 13.394590)">
            <circle id="Oval" fill="#E3DA4F" cx="237.5" cy="237.5" r="237.5"></circle>
            <circle id="outline" stroke="#D8D8D8" filter="url(#filter-1)" cx="237.5" cy="237.5" r="237.5"></circle>
            <path d="M311.555821,175.761047 C352.870547,175.761047 389.833196,194.394505 414.498291,223.715945 L414.499845,247.096768 C393.259961,212.532052 355.099772,189.481423 311.555821,189.481423 C244.873344,189.481423 190.816515,243.538251 190.816515,310.220729 C190.816515,354.692716 214.860153,393.549011 250.657434,414.499617 L226.662773,414.497817 C196.414118,389.842277 177.09614,352.287481 177.09614,310.220729 C177.09614,235.960697 237.29579,175.761047 311.555821,175.761047 Z M167.867519,346.572769 C174.444913,372.652309 187.936034,395.981941 206.277642,414.498423 L187.704959,414.498639 C180.060376,405.428516 173.393966,395.506919 167.868345,384.896462 L167.867519,346.572769 Z M311.555821,203.201799 C360.480186,203.201799 401.736787,236.031397 414.497803,280.862772 L414.495472,290.133644 C414.495472,296.93246 410.504365,302.799103 404.737241,305.518482 L404.655923,304.086323 C401.497071,255.418499 361.022095,216.922174 311.555821,216.922174 C260.028452,216.922174 218.257267,258.69336 218.257267,310.220729 C218.257267,359.914886 257.109102,400.534712 306.094676,403.362109 C303.70703,409.858685 297.461784,414.495584 290.133533,414.495584 L287.373179,414.496044 C239.915748,403.534302 204.536891,361.009103 204.536891,310.220729 C204.536891,251.115806 252.450898,203.201799 311.555821,203.201799 Z M311.555821,230.64255 C354.471503,230.64255 389.452732,264.613979 391.075178,307.132507 L377.342529,307.1332 C375.730103,272.194395 346.893156,244.362926 311.555821,244.362926 C275.183561,244.362926 245.698018,273.848468 245.698018,310.220729 C245.698018,345.106855 272.823286,373.657535 307.13345,375.932399 L307.132887,389.678072 C265.240351,387.383133 231.977642,352.686392 231.977642,310.220729 C231.977642,266.270914 267.606007,230.64255 311.555821,230.64255 Z M311.555821,258.083301 C339.313986,258.083301 362.005618,279.775705 363.603339,307.133132 L349.850581,307.132894 C348.277972,287.359598 331.733537,271.803677 311.555821,271.803677 C290.338669,271.803677 273.138769,289.003577 273.138769,310.220729 C273.138769,329.94202 287.998894,346.192543 307.132763,348.385919 L307.132426,362.173155 C280.408024,359.927976 259.418394,337.525548 259.418394,310.220729 C259.418394,281.426023 282.761115,258.083301 311.555821,258.083301 Z M311.555821,285.524053 C324.149716,285.524053 334.541899,294.950703 336.061343,307.132979 L307.13278,307.132892 L307.133712,334.522615 C295.604273,332.438399 286.859145,322.350831 286.859145,310.220729 C286.859145,296.581131 297.916224,285.524053 311.555821,285.524053 Z M113.090408,167.86475 L130.251558,167.866927 C100.051083,206.277365 81.7937337,254.521175 81.0755199,307.002349 L81.0744812,307.132001 L77.50978,307.133644 C73.733987,307.133644 70.2456996,305.902686 67.4243344,303.820187 C68.7194661,253.153479 85.4526131,206.327833 113.090408,167.86475 Z M148.061486,167.864191 L166.747408,167.867157 C131.439956,203.779643 109.388788,252.766261 108.520864,306.900051 L108.51778,307.132892 L94.7954276,307.132997 C95.5392142,253.857315 115.501172,205.227774 148.061486,167.864191 Z M307.130862,120.930234 L307.130257,134.654593 C213.208134,136.977625 137.584261,213.037819 135.961625,307.132186 L122.239312,307.132545 C123.865137,205.459987 205.630273,123.25793 307.130862,120.930234 Z M307.131407,148.379582 L307.132774,162.105421 C228.365817,164.414464 165.021229,228.192892 163.407308,307.132408 L149.684267,307.131743 C151.303195,220.615065 220.787049,150.696204 307.131407,148.379582 Z M96.4164068,167.868465 C79.889601,192.795619 67.5792098,220.761344 60.5024812,250.748391 L60.4989714,206.249059 C66.0400649,192.88414 72.6172825,180.057399 80.1304281,167.869033 L96.4164068,167.868465 Z M388.739961,167.867747 C397.895365,172.842329 406.517277,178.674391 414.497904,185.256142 L414.496274,203.634454 C397.388575,187.108346 376.313196,174.66324 352.838428,167.867428 L388.739961,167.867747 Z M307.130695,93.4830593 L307.131432,107.206415 C252.764318,108.368583 203.656881,130.898139 167.870423,166.733783 L167.869919,147.894388 C205.09527,114.919159 253.745575,94.5520026 307.130695,93.4830593 Z M302.786018,66.1525669 C305.489596,69.1669723 307.133533,73.146451 307.133533,77.5098916 L307.132049,79.7600192 C254.508207,80.7505452 206.198622,99.3764184 167.866163,129.974771 L167.865457,112.720961 C205.981202,84.9423084 252.444888,67.9293449 302.786018,66.1525669 Z M246.686638,60.5030013 C218.205078,67.8806349 191.633618,80.0022319 167.865775,95.9742759 L167.867657,79.6245075 C179.49182,72.3659755 191.704482,65.9619531 204.417715,60.500367 L246.686638,60.5030013 Z" id="Combined-Shape" fill="#370101" opacity="0.569176084"></path>
            <g transform="translate(181.253906, 420.249941)" fill="#3E8EEB" fill-rule="nonzero">
                <path d="M1.06640625,6.09765625 L7.50585938,6.09765625 L7.50585938,19.4003906 L12.4960938,19.4003906 L12.4960938,21.3554688 L0,21.3554688 L0,19.4003906 L4.99023438,19.4003906 L4.99023438,8.05273438 L1.06640625,8.05273438 L1.06640625,6.09765625 Z M4.99023438,0.150390625 L7.50585938,0.150390625 L7.50585938,3.32226562 L4.99023438,3.32226562 L4.99023438,0.150390625 Z" id="i"></path>
                <path d="M23.4335938,15.8183594 C23.4335938,16.9485677 23.6409505,17.8007812 24.0556641,18.375 C24.4703776,18.9492188 25.0833333,19.2363281 25.8945312,19.2363281 L28.8339844,19.2363281 L28.8339844,21.3554688 L25.6484375,21.3554688 C24.1445312,21.3554688 22.9801432,20.8746745 22.1552734,19.9130859 C21.3304036,18.9514974 20.9179688,17.5865885 20.9179688,15.8183594 L20.9179688,1.96875 L16.8847656,1.96875 L16.8847656,0 L23.4335938,0 L23.4335938,15.8183594 Z" id="l"></path>
                <path d="M40.2910156,15.8183594 C40.2910156,16.9485677 40.4983724,17.8007812 40.9130859,18.375 C41.3277995,18.9492188 41.9407552,19.2363281 42.7519531,19.2363281 L45.6914062,19.2363281 L45.6914062,21.3554688 L42.5058594,21.3554688 C41.0019531,21.3554688 39.8375651,20.8746745 39.0126953,19.9130859 C38.1878255,18.9514974 37.7753906,17.5865885 37.7753906,15.8183594 L37.7753906,1.96875 L33.7421875,1.96875 L33.7421875,0 L40.2910156,0 L40.2910156,15.8183594 Z" id="l"></path>
                <path d="M61.6875,11.8671875 L61.6875,21.3554688 L59.1582031,21.3554688 L59.1582031,11.8671875 C59.1582031,10.4908854 58.9166667,9.47916667 58.4335938,8.83203125 C57.9505208,8.18489583 57.1940104,7.86132812 56.1640625,7.86132812 C54.9882812,7.86132812 54.0836589,8.27832031 53.4501953,9.11230469 C52.8167318,9.94628906 52.5,11.1425781 52.5,12.7011719 L52.5,21.3554688 L49.984375,21.3554688 L49.984375,6.04296875 L52.5,6.04296875 L52.5,8.33984375 C52.9466146,7.46484375 53.5527344,6.80175781 54.3183594,6.35058594 C55.0839844,5.89941406 55.9908854,5.67382812 57.0390625,5.67382812 C58.5976562,5.67382812 59.7620443,6.18652344 60.5322266,7.21191406 C61.3024089,8.23730469 61.6875,9.7890625 61.6875,11.8671875 Z" id="n"></path>
                <path d="M79.4882812,12.4414062 L79.4882812,13.671875 L68.5917969,13.671875 L68.5917969,13.7539062 C68.5188802,15.8411458 68.9176432,17.3404948 69.7880859,18.2519531 C70.6585286,19.1634115 71.8867188,19.6191406 73.4726562,19.6191406 C74.2747396,19.6191406 75.1132812,19.4915365 75.9882812,19.2363281 C76.8632812,18.9811198 77.797526,18.59375 78.7910156,18.0742188 L78.7910156,20.5761719 C77.8339844,20.968099 76.9111328,21.2620443 76.0224609,21.4580078 C75.1337891,21.6539714 74.2747396,21.7519531 73.4453125,21.7519531 C71.0664062,21.7519531 69.2070312,21.038737 67.8671875,19.6123047 C66.5273438,18.1858724 65.8574219,16.219401 65.8574219,13.7128906 C65.8574219,11.2701823 66.5136719,9.31966146 67.8261719,7.86132812 C69.1386719,6.40299479 70.8886719,5.67382812 73.0761719,5.67382812 C75.0266927,5.67382812 76.5647786,6.33463542 77.6904297,7.65625 C78.8160807,8.97786458 79.4153646,10.5729167 79.4882812,12.4414062 Z M76.9726562,11.703125 C76.8632812,10.6458333 76.4781901,9.73209635 75.8173828,8.96191406 C75.1565755,8.19173177 74.2063802,7.80664062 72.9667969,7.80664062 C71.7545573,7.80664062 70.7565104,8.20768229 69.9726562,9.00976562 C69.1888021,9.81184896 68.7604167,10.7141927 68.6875,11.7167969 L76.9726562,11.703125 Z" id="e"></path>
                <path d="M94.3359375,6.57617188 L94.3359375,9.03710938 C93.6158854,8.61783854 92.891276,8.30338542 92.1621094,8.09375 C91.4329427,7.88411458 90.6901042,7.77929688 89.9335938,7.77929688 C88.7942708,7.77929688 87.9443359,7.96386719 87.3837891,8.33300781 C86.8232422,8.70214844 86.5429688,9.26497396 86.5429688,10.0214844 C86.5429688,10.7050781 86.7526042,11.2154948 87.171875,11.5527344 C87.5911458,11.889974 88.6347656,12.218099 90.3027344,12.5371094 L91.3144531,12.7285156 C92.563151,12.9654948 93.5087891,13.4394531 94.1513672,14.1503906 C94.7939453,14.8613281 95.1152344,15.7864583 95.1152344,16.9257812 C95.1152344,18.4388021 94.577474,19.6214193 93.5019531,20.4736328 C92.4264323,21.3258464 90.9316406,21.7519531 89.0175781,21.7519531 C88.2610677,21.7519531 87.468099,21.6722005 86.6386719,21.5126953 C85.8092448,21.3531901 84.9114583,21.1139323 83.9453125,20.7949219 L83.9453125,18.1972656 C84.8841146,18.6803385 85.781901,19.0426432 86.6386719,19.2841797 C87.4954427,19.5257161 88.3066406,19.6464844 89.0722656,19.6464844 C90.1842448,19.6464844 91.0455729,19.4208984 91.65625,18.9697266 C92.2669271,18.5185547 92.5722656,17.8873698 92.5722656,17.0761719 C92.5722656,15.9095052 91.4557292,15.1028646 89.2226562,14.65625 L89.1132812,14.6289062 L88.1699219,14.4375 C86.7207031,14.1549479 85.6634115,13.6787109 84.9980469,13.0087891 C84.3326823,12.3388672 84,11.4251302 84,10.2675781 C84,8.80013021 84.4967448,7.66764323 85.4902344,6.87011719 C86.483724,6.07259115 87.9010417,5.67382812 89.7421875,5.67382812 C90.5625,5.67382812 91.3509115,5.74902344 92.1074219,5.89941406 C92.8639323,6.04980469 93.6067708,6.27539062 94.3359375,6.57617188 Z" id="s"></path>
                <path d="M111.193359,6.57617188 L111.193359,9.03710938 C110.473307,8.61783854 109.748698,8.30338542 109.019531,8.09375 C108.290365,7.88411458 107.547526,7.77929688 106.791016,7.77929688 C105.651693,7.77929688 104.801758,7.96386719 104.241211,8.33300781 C103.680664,8.70214844 103.400391,9.26497396 103.400391,10.0214844 C103.400391,10.7050781 103.610026,11.2154948 104.029297,11.5527344 C104.448568,11.889974 105.492188,12.218099 107.160156,12.5371094 L108.171875,12.7285156 C109.420573,12.9654948 110.366211,13.4394531 111.008789,14.1503906 C111.651367,14.8613281 111.972656,15.7864583 111.972656,16.9257812 C111.972656,18.4388021 111.434896,19.6214193 110.359375,20.4736328 C109.283854,21.3258464 107.789062,21.7519531 105.875,21.7519531 C105.11849,21.7519531 104.325521,21.6722005 103.496094,21.5126953 C102.666667,21.3531901 101.76888,21.1139323 100.802734,20.7949219 L100.802734,18.1972656 C101.741536,18.6803385 102.639323,19.0426432 103.496094,19.2841797 C104.352865,19.5257161 105.164062,19.6464844 105.929688,19.6464844 C107.041667,19.6464844 107.902995,19.4208984 108.513672,18.9697266 C109.124349,18.5185547 109.429688,17.8873698 109.429688,17.0761719 C109.429688,15.9095052 108.313151,15.1028646 106.080078,14.65625 L105.970703,14.6289062 L105.027344,14.4375 C103.578125,14.1549479 102.520833,13.6787109 101.855469,13.0087891 C101.190104,12.3388672 100.857422,11.4251302 100.857422,10.2675781 C100.857422,8.80013021 101.354167,7.66764323 102.347656,6.87011719 C103.341146,6.07259115 104.758464,5.67382812 106.599609,5.67382812 C107.419922,5.67382812 108.208333,5.74902344 108.964844,5.89941406 C109.721354,6.04980469 110.464193,6.27539062 111.193359,6.57617188 Z" id="s"></path>
            </g>
        </g>
    </g>
</svg>