<?xml version="1.0" encoding="UTF-8"?>
<svg width="500px" height="501px" viewBox="0 0 500 501" version="1.1" xmlns="http://www.w3.org/2000/svg" xmlns:xlink="http://www.w3.org/1999/xlink">
    <title>constants</title>
    <defs>
        <radialGradient cx="50%" cy="28.1780963%" fx="50%" fy="28.1780963%" r="70.8256221%" id="radialGradient-1">
            <stop stop-color="#80DD9E" offset="0%"></stop>
            <stop stop-color="#32E7E2" offset="67.865289%"></stop>
            <stop stop-color="#FF9E9E" offset="100%"></stop>
        </radialGradient>
        <filter x="-1.1%" y="-1.1%" width="102.1%" height="102.1%" filterUnits="objectBoundingBox" id="filter-2">
            <feGaussianBlur stdDeviation="1 0" in="SourceGraphic"></feGaussianBlur>
        </filter>
    </defs>
    <g id="dataset-badges" stroke="none" stroke-width="1" fill="none" fill-rule="evenodd">
        <g id="constants" transform="translate(12.500000, 12.727070)">
            <circle id="Oval" fill="url(#radialGradient-1)" cx="237.5" cy="237.5" r="237.5"></circle>
            <g transform="translate(127.620390, 47.132000)" fill-rule="nonzero">
                <path d="M12.3508468,24.3042831 C9.38315213,24.3042831 7.20102373,22.7331506 7.20102373,17.5833276 C7.20102373,12.3462195 9.25222443,10.3823039 12.3944893,10.3823039 C14.2711198,10.3823039 16.0168225,11.0369424 17.5879549,12.1280066 L20.5556496,7.98196265 C18.2425934,6.06168965 15.5803968,5.05791059 12.0889914,5.05791059 C4.62611221,5.05791059 0,10.3386613 0,17.5833276 C0,24.8279939 4.45154194,29.7596041 11.9580636,29.7596041 C15.5367542,29.7596041 18.5044489,28.4503271 20.5556496,26.7046243 L17.5006698,22.3403675 C15.8422522,23.4750743 14.2274772,24.3042831 12.3508468,24.3042831 Z" id="c-copy" fill="#FFFFFF"></path>
                <path d="M12.250514,23.9705446 C9.42645364,23.9705446 7.34993869,22.4754538 7.34993869,17.5748785 C7.34993869,12.5912427 9.30186275,10.7223792 12.2920443,10.7223792 C14.0778471,10.7223792 15.7390591,11.3453337 17.2341499,12.3835912 L20.0582102,8.43821274 C17.8571044,6.61087958 15.3237561,5.65568271 12.0013322,5.65568271 C4.89965104,5.65568271 0.497439342,10.6808489 0.497439342,17.5748785 C0.497439342,24.4689082 4.73352985,29.161832 11.8767413,29.161832 C15.2822258,29.161832 18.1062862,27.915923 20.0582102,26.2547111 L17.1510893,22.1016811 C15.5729379,23.1814689 14.0363168,23.9705446 12.250514,23.9705446 Z" id="c" fill="#1D4B82"></path>
                <path d="M35.0091179,5.09710471 C27.917954,5.09710471 23.7850671,10.056569 23.7850671,17.4087573 C23.7850671,25.1959864 27.917954,29.72041 35.0091179,29.72041 C42.1002818,29.72041 46.2331687,25.1089783 46.2331687,17.3652533 C46.2331687,9.96956088 42.1437858,5.09710471 35.0091179,5.09710471 Z M35.0091179,10.1870812 C37.8368826,10.1870812 39.1420048,12.3622849 39.1420048,17.3652533 C39.1420048,22.542238 37.8368826,24.6739375 35.0091179,24.6739375 C32.1813531,24.6739375 30.876231,22.542238 30.876231,17.4087573 C30.876231,12.3622849 32.1813531,10.1870812 35.0091179,10.1870812 Z" id="o-copy" fill="#FFFFFF"></path>
                <path d="M35.0091179,5.65568271 C28.2396791,5.65568271 24.2943007,10.3901368 24.2943007,17.4087573 C24.2943007,24.8426809 28.2396791,29.161832 35.0091179,29.161832 C41.7785566,29.161832 45.723935,24.7596203 45.723935,17.367227 C45.723935,10.3070762 41.8200869,5.65568271 35.0091179,5.65568271 Z M35.0091179,10.5147277 C37.7085873,10.5147277 38.9544963,12.5912427 38.9544963,17.367227 C38.9544963,22.3093326 37.7085873,24.3443173 35.0091179,24.3443173 C32.3096484,24.3443173 31.0637395,22.3093326 31.0637395,17.4087573 C31.0637395,12.5912427 32.3096484,10.5147277 35.0091179,10.5147277 Z" id="o" fill="#1D4B82"></path>
                <path d="M49.9470415,28.9669681 L56.8030433,28.9669681 L56.8030433,12.8683816 C58.1048158,11.2194698 59.3631959,10.2214442 60.8385381,10.2214442 C62.5308423,10.2214442 63.0515513,11.1760774 63.0515513,14.0399769 L63.0515513,28.9669681 L69.9075531,28.9669681 L69.9075531,12.0439257 C69.9075531,7.66129163 67.5209702,5.14453147 63.5722603,5.14453147 C60.621576,5.14453147 58.4519552,6.2727343 56.4125116,8.57253238 L55.935195,5.92559497 L49.9470415,5.92559497 L49.9470415,28.9669681 Z" id="n-copy-2" fill="#FFFFFF"></path>
                <path d="M50.3753285,28.4558169 L56.9371158,28.4558169 L56.9371158,13.0480759 C58.1830248,11.4699246 59.3874034,10.5147277 60.7994336,10.5147277 C62.4191153,10.5147277 62.9174789,11.4283943 62.9174789,14.169394 L62.9174789,28.4558169 L69.4792661,28.4558169 L69.4792661,12.2590003 C69.4792661,8.06444005 67.1950997,5.65568271 63.4158425,5.65568271 C60.5917821,5.65568271 58.5152672,6.73547048 56.5633431,8.93657633 L56.1065098,6.40322809 L50.3753285,6.40322809 L50.3753285,28.4558169 Z" id="n" fill="#1D4B82"></path>
                <path d="M84.1202948,24.8522457 C81.4056108,24.8522457 79.0849939,23.8014003 77.2897996,22.4002731 L73.8307668,26.2971581 C76.195169,28.398849 79.6542018,29.7999762 84.16408,29.7999762 C90.0750855,29.7999762 95.1541717,27.2166479 95.1541717,22.0937765 C95.1541717,17.540113 92.2205616,16.0076301 87.7106833,14.7378586 C83.1570199,13.468087 82.2375301,12.9426643 82.2375301,11.7604632 C82.2375301,10.5344769 83.2883755,9.965269 85.5652073,9.965269 C87.7982538,9.965269 90.0750855,10.7534031 92.0016354,11.9356041 L94.7601046,7.86357817 C92.4832729,6.19973959 89.5058776,5.0175385 85.3462811,5.0175385 C78.8222825,5.0175385 75.2756793,8.0825043 75.2756793,12.2421007 C75.2756793,16.3579119 78.2092894,18.1968914 82.4564563,19.3353073 C87.0976902,20.6050788 87.9733947,21.1742867 87.9733947,22.6629844 C87.9733947,24.1516821 86.4409118,24.8522457 84.1202948,24.8522457 Z" id="s-copy-2" fill="#FFFFFF"></path>
                <path d="M84.1394617,24.4689082 C81.5645832,24.4689082 79.3634773,23.472181 77.660735,22.1432114 L74.3798414,25.8394081 C76.6224776,27.8328624 79.9033712,29.161832 84.180992,29.161832 C89.7875824,29.161832 94.6050971,26.7115443 94.6050971,21.8524993 C94.6050971,17.5333482 91.822567,16.0797878 87.5449462,14.8754091 C83.2257951,13.6710304 82.3536588,13.1726668 82.3536588,12.0513488 C82.3536588,10.8885004 83.350386,10.3486065 85.5099616,10.3486065 C87.6280068,10.3486065 89.7875824,11.0961519 91.6149155,12.21747 L94.2313244,8.35515215 C92.0717488,6.77700078 89.2476885,5.65568271 85.3023101,5.65568271 C79.1142955,5.65568271 75.7503413,8.56280364 75.7503413,12.5081821 C75.7503413,16.4120302 78.5328713,18.1563027 82.5613103,19.2360905 C86.963522,20.4404692 87.794128,20.9803631 87.794128,22.3923932 C87.794128,23.8044234 86.3405676,24.4689082 84.1394617,24.4689082 Z" id="s" fill="#1D4B82"></path>
                <path d="M120.665373,27.888563 L118.377983,23.4457478 C117.278276,24.0615836 115.91464,24.5014663 114.287074,24.5014663 C111.955696,24.5014663 110.943966,23.6217009 110.943966,21.2903226 L110.943966,10.6891496 L117.762147,10.6891496 L118.46596,5.89442815 L110.943966,5.89442815 L110.943966,0 L103.993819,0.835777126 L103.993819,5.89442815 L99.111121,5.89442815 L99.111121,10.6891496 L103.993819,10.6891496 L103.993819,21.2903226 C103.993819,26.6568915 106.897045,30 113.011414,30 C116.222558,30 118.817866,29.0762463 120.665373,27.888563 Z" id="t-copy-2" fill="#FFFFFF"></path>
                <path d="M120.06317,27.1683776 L117.903595,22.9738174 C116.865337,23.5552416 115.577898,23.9705446 114.041277,23.9705446 C111.840171,23.9705446 110.884974,23.1399386 110.884974,20.9388328 L110.884974,10.9300307 L117.322171,10.9300307 L117.986655,6.40322809 L110.884974,6.40322809 L110.884974,0.838168012 L104.323187,1.62724369 L104.323187,6.40322809 L99.7133239,6.40322809 L99.7133239,10.9300307 L104.323187,10.9300307 L104.323187,20.9388328 C104.323187,26.0055293 107.064187,29.161832 112.836898,29.161832 C115.86861,29.161832 118.318898,28.2896957 120.06317,27.1683776 Z" id="t" fill="#1D4B82"></path>
                <path d="M144.15963,22.3371453 L144.15963,13.2654223 C144.15963,7.94450784 140.93219,5.06598034 134.041169,5.06598034 C131.46794,5.06598034 128.02243,5.67657708 125.01306,6.81054246 L126.583166,11.390018 C128.894711,10.6049651 131.46794,10.1688245 132.950818,10.1688245 C135.916574,10.1688245 137.530294,11.3027899 137.530294,13.7451769 L137.530294,14.5738439 L134.433696,14.5738439 C127.280991,14.5738439 123.137656,17.4523714 123.137656,22.4679875 C123.137656,26.7421647 126.19064,29.7515344 130.988186,29.7515344 C133.866713,29.7515344 136.788855,28.7484111 138.577031,26.6113225 C139.667382,28.5303409 141.542786,29.4026219 144.246858,29.6643063 L145.686121,25.1284447 C144.59577,24.7359183 144.15963,24.0817075 144.15963,22.3371453 Z M133.343344,24.8231464 C131.380712,24.8231464 130.246747,23.7764091 130.246747,21.9882329 C130.246747,19.7203022 131.991309,18.4991087 135.829345,18.4991087 L137.530294,18.4991087 L137.530294,22.2935313 C136.658012,23.9072513 134.826222,24.8231464 133.343344,24.8231464 Z" id="a-copy" fill="#FFFFFF"></path>
                <path d="M143.693911,22.1016811 L143.693911,13.4633789 C143.693911,8.39668245 140.620668,5.65568271 134.058881,5.65568271 C131.608594,5.65568271 128.3277,6.23710689 125.462109,7.31689467 L126.9572,11.6775761 C129.158306,10.9300307 131.608594,10.5147277 133.020624,10.5147277 C135.844684,10.5147277 137.381305,11.5945155 137.381305,13.9202122 L137.381305,14.7092879 L134.432654,14.7092879 C127.621685,14.7092879 123.676306,17.4502876 123.676306,22.226272 C123.676306,26.2962414 126.583427,29.161832 131.15176,29.161832 C133.89276,29.161832 136.67529,28.2066351 138.378032,26.1716505 C139.41629,27.9989836 141.202093,28.8295896 143.776971,29.0787714 L145.147471,24.7596203 C144.109214,24.3858476 143.693911,23.7628931 143.693911,22.1016811 Z M133.394396,24.4689082 C131.525533,24.4689082 130.445745,23.472181 130.445745,21.7694388 C130.445745,19.6098632 132.106957,18.4470148 135.761623,18.4470148 L137.381305,18.4470148 L137.381305,22.0601508 C136.550699,23.5967719 134.806427,24.4689082 133.394396,24.4689082 Z" id="a" fill="#1D4B82"></path>
                <path d="M149.623433,28.9625835 L156.476911,28.9625835 L156.476911,12.869923 C157.778205,11.2216182 159.036121,10.22396 160.51092,10.22396 C162.202602,10.22396 162.723119,11.1782418 162.723119,14.041087 L162.723119,28.9625835 L169.576597,28.9625835 L169.576597,12.0457706 C169.576597,7.66474986 167.190893,5.14891616 163.243636,5.14891616 C160.294038,5.14891616 158.125216,6.27670368 156.086523,8.57565517 L155.609382,5.92969213 L149.623433,5.92969213 L149.623433,28.9625835 Z" id="n-copy" fill="#FFFFFF"></path>
                <path d="M150.048046,28.4558169 L156.609834,28.4558169 L156.609834,13.0480759 C157.855743,11.4699246 159.060121,10.5147277 160.472151,10.5147277 C162.091833,10.5147277 162.590197,11.4283943 162.590197,14.169394 L162.590197,28.4558169 L169.151984,28.4558169 L169.151984,12.2590003 C169.151984,8.06444005 166.867817,5.65568271 163.08856,5.65568271 C160.2645,5.65568271 158.187985,6.73547048 156.236061,8.93657633 L155.779228,6.40322809 L150.048046,6.40322809 L150.048046,28.4558169 Z" id="n" fill="#1D4B82"></path>
                <path d="M195.379064,27.8397128 L193.100344,23.4137367 C192.004805,24.0272383 190.646337,24.4654538 189.02494,24.4654538 C186.702398,24.4654538 185.694503,23.5890229 185.694503,21.266481 L185.694503,10.7054886 L192.486842,10.7054886 L193.187987,5.92894012 L185.694503,5.92894012 L185.694503,0.0568530398 L178.770698,0.889462401 L178.770698,5.92894012 L173.906507,5.92894012 L173.906507,10.7054886 L178.770698,10.7054886 L178.770698,21.266481 C178.770698,26.6127095 181.66292,29.943147 187.754115,29.943147 C190.953088,29.943147 193.538559,29.0228945 195.379064,27.8397128 Z" id="t-copy" fill="#FFFFFF"></path>
                <path d="M194.817709,27.1683776 L192.658133,22.9738174 C191.619876,23.5552416 190.332436,23.9705446 188.795815,23.9705446 C186.59471,23.9705446 185.639513,23.1399386 185.639513,20.9388328 L185.639513,10.9300307 L192.076709,10.9300307 L192.741194,6.40322809 L185.639513,6.40322809 L185.639513,0.838168012 L179.077725,1.62724369 L179.077725,6.40322809 L174.467862,6.40322809 L174.467862,10.9300307 L179.077725,10.9300307 L179.077725,20.9388328 C179.077725,26.0055293 181.818725,29.161832 187.591437,29.161832 C190.623149,29.161832 193.073436,28.2896957 194.817709,27.1683776 Z" id="t" fill="#1D4B82"></path>
                <path d="M208.710698,24.8621258 C205.992411,24.8621258 203.668714,23.8098855 201.871136,22.4068985 L198.407512,26.3089561 C200.775053,28.4134366 204.238677,29.8164237 208.754541,29.8164237 C214.673393,29.8164237 219.759221,27.2296664 219.759221,22.0999951 C219.759221,17.5402874 216.821717,16.0057703 212.305852,14.7343134 C207.746145,13.4628564 206.825434,12.9367363 206.825434,11.752966 C206.825434,10.5253524 207.877675,9.9553889 210.157528,9.9553889 C212.393539,9.9553889 214.673393,10.7445691 216.6025,11.9283394 L219.364631,7.85090839 C217.084777,6.18486133 214.103429,5.00109104 209.938312,5.00109104 C203.405653,5.00109104 199.854343,8.07012511 199.854343,12.2352428 C199.854343,16.3565171 202.791847,18.1979375 207.044651,19.3378645 C211.692045,20.6093214 212.568912,21.1792849 212.568912,22.6699586 C212.568912,24.1606323 211.034395,24.8621258 208.710698,24.8621258 Z" id="s-copy" fill="#FFFFFF"></path>
                <path d="M208.730359,24.4689082 C206.15548,24.4689082 203.954375,23.472181 202.251632,22.1432114 L198.970739,25.8394081 C201.213375,27.8328624 204.494268,29.161832 208.771889,29.161832 C214.37848,29.161832 219.195994,26.7115443 219.195994,21.8524993 C219.195994,17.5333482 216.413464,16.0797878 212.135843,14.8754091 C207.816692,13.6710304 206.944556,13.1726668 206.944556,12.0513488 C206.944556,10.8885004 207.941283,10.3486065 210.100859,10.3486065 C212.218904,10.3486065 214.37848,11.0961519 216.205813,12.21747 L218.822222,8.35515215 C216.662646,6.77700078 213.838586,5.65568271 209.893207,5.65568271 C203.705193,5.65568271 200.341239,8.56280364 200.341239,12.5081821 C200.341239,16.4120302 203.123769,18.1563027 207.152208,19.2360905 C211.554419,20.4404692 212.385025,20.9803631 212.385025,22.3923932 C212.385025,23.8044234 210.931465,24.4689082 208.730359,24.4689082 Z" id="s" fill="#1D4B82"></path>
            </g>
            <g id="atom" transform="translate(86.682649, 92.500000)" fill-rule="nonzero">
                <circle id="Oval" fill="#D71920" cx="144.56885" cy="129.946326" r="14.0969574"></circle>
                <circle id="Oval" fill="#D71920" cx="157.065853" cy="177.555494" r="14.0969574"></circle>
                <circle id="Oval" fill="#3B4D81" cx="164.505018" cy="149.883115" r="14.0969574"></circle>
                <circle id="Oval" fill="#3B4D81" cx="136.980852" cy="157.470493" r="14.0969574"></circle>
                <path d="M184.493278,149.883115 C184.493278,144.543734 182.413959,139.524344 178.638564,135.748949 C174.752164,131.86317 169.650916,129.915939 164.546567,129.905397 C164.536025,124.800428 162.588795,119.69918 158.702395,115.812781 C150.909132,108.019517 138.227947,108.019517 130.434684,115.812781 C123.890997,122.356468 122.844206,132.344396 127.289348,139.993788 C125.696836,140.876243 124.197345,141.986909 122.847306,143.336947 C115.054043,151.130831 115.054043,163.811395 122.847306,171.604658 C126.744248,175.5016 131.86286,177.449451 136.981472,177.449451 C137.01744,177.449451 137.054028,177.44697 137.089996,177.44697 C137.06209,182.60155 139.00808,187.765432 142.932308,191.68966 C146.82925,195.586602 151.947861,197.534452 157.066473,197.534452 C162.185085,197.534452 167.303697,195.585981 171.200639,191.68966 C177.793937,185.095742 178.807861,175.00487 174.244272,167.333774 C175.81942,166.45566 177.302168,165.353676 178.639184,164.01666 C182.413959,160.241265 184.493278,155.221875 184.493278,149.883115 Z M172.710673,149.883115 C172.710673,152.074679 171.856744,154.135395 170.307021,155.685118 C167.108354,158.884405 161.901683,158.884405 158.703015,155.685118 C157.153293,154.135395 156.299364,152.074679 156.299364,149.883115 C156.299364,147.69093 157.153293,145.630835 158.703015,144.081112 C160.302349,142.481158 162.403994,141.681181 164.505018,141.681181 C166.606043,141.681181 168.707688,142.481158 170.307021,144.081112 C171.856744,145.630214 172.710673,147.69093 172.710673,149.883115 Z M138.766847,124.144323 C140.36618,122.544369 142.467825,121.744392 144.56885,121.744392 C146.669874,121.744392 148.771519,122.544369 150.370853,124.144323 C153.57014,127.343611 153.57014,132.549662 150.370853,135.748949 C147.172805,138.948857 141.966134,138.948857 138.766847,135.748949 C135.567559,132.549662 135.567559,127.343611 138.766847,124.144323 Z M131.178849,163.272496 C127.979561,160.073208 127.979561,154.867777 131.178849,151.66849 C132.778182,150.068536 134.879827,149.268559 136.980852,149.268559 C139.081876,149.268559 141.183521,150.068536 142.782855,151.66849 C145.982142,154.867777 145.982142,160.073208 142.782855,163.272496 C139.584187,166.471783 134.377516,166.471783 131.178849,163.272496 Z M162.867856,183.357497 C159.669189,186.556785 154.462518,186.556785 151.26385,183.357497 C148.064563,180.15821 148.064563,174.952159 151.26385,171.752871 C152.863184,170.152917 154.964208,169.35356 157.065853,169.35356 C159.166878,169.35356 161.268523,170.153537 162.867856,171.752871 C166.067144,174.952779 166.067144,180.15821 162.867856,183.357497 Z" id="Shape" fill="#000000"></path>
                <path d="M31.4080855,120.760235 C29.5327908,120.760235 27.688503,119.866617 26.5468305,118.204029 C24.7044031,115.521936 25.3859338,111.854445 28.0680269,110.012018 C31.79009,107.455813 35.8929173,104.992628 40.2617834,102.692539 C43.1410801,101.175684 46.703768,102.282008 48.2193831,105.160685 C49.7356184,108.039982 48.6299139,111.60267 45.7512373,113.118285 C41.7879409,115.205046 38.0820014,117.428238 34.7376018,119.725226 C33.7193366,120.42412 32.5571996,120.760235 31.4080855,120.760235 Z" id="Path" fill="#000000"></path>
                <path d="M179.091884,283.537551 C178.289427,283.537551 177.473946,283.372594 176.693194,283.024077 C172.83346,281.300716 168.863342,279.230698 164.893224,276.871077 C162.095786,275.208489 161.176122,271.59371 162.83809,268.796891 C164.500057,266.000073 168.115457,265.079169 170.912275,266.742377 C174.491087,268.868827 178.051914,270.727378 181.496776,272.265318 C184.467853,273.591792 185.800528,277.075722 184.474054,280.046799 C183.496098,282.237743 181.344842,283.537551 179.091884,283.537551 Z" id="Path" fill="#000000"></path>
                <path d="M166.14032,42.6576832 C164.163323,42.6576832 162.233456,41.6629833 161.12031,39.8577641 C159.412452,37.0882316 160.273202,33.458569 163.042735,31.7507113 C167.49532,29.0053642 171.947284,26.621557 176.275221,24.6650244 C179.241337,23.3242879 182.730229,24.6414592 184.070345,27.606955 C185.410461,30.5718306 184.09329,34.0619624 181.129034,35.4014586 C177.256898,37.1514856 173.252673,39.2971601 169.226742,41.7795691 C168.263049,42.3742806 167.195173,42.6576832 166.14032,42.6576832 Z" id="Path" fill="#000000"></path>
                <circle id="Oval" fill="#D7E1F2" cx="65.7742252" cy="266.066427" r="18.0546726"></circle>
                <circle id="Oval" fill="#D7E1F2" cx="94.4692107" cy="23.9338827" r="18.0546726"></circle>
                <circle id="Oval" fill="#D7E1F2" cx="277.099597" cy="187.7121" r="18.0546726"></circle>
                <path d="M301.634703,153.75091 C301.634703,133.022206 285.362925,113.903998 255.815871,99.9180457 C253.657173,98.8960597 251.438943,97.9143826 249.176062,96.9637124 C249.48427,94.5284338 249.742868,92.1161004 249.937591,89.736014 C252.599219,57.1552492 244.177757,33.503839 226.226027,23.139487 C217.733869,18.2360627 207.713693,16.6429304 196.448902,18.4034997 C193.234111,18.9058108 191.035105,21.9190571 191.538036,25.1338481 C192.039727,28.3492591 195.056694,30.5495057 198.268385,30.044714 C206.810154,28.7101789 214.231955,29.8208445 220.334724,33.3432235 C233.920689,41.1873381 240.430888,61.3920261 238.194054,88.7766619 C238.089871,90.0535243 237.961502,91.3427894 237.821971,92.6376357 C223.93214,87.8520374 208.537856,84.2806677 192.221427,82.0376316 C177.519216,63.1029845 161.355962,47.2584806 144.939072,35.9031496 C135.744298,29.5436432 126.806262,24.8312211 118.306662,21.7944096 C117.826676,16.3936353 115.527207,11.1261904 111.402675,7.00165834 C102.065271,-2.33450624 86.8737711,-2.33326597 77.5376065,7.00165834 C73.0149464,11.5243185 70.5244756,17.5377883 70.5244756,23.9338827 C70.5244756,24.7549443 70.566645,25.5691843 70.6478829,26.3747425 C55.9872209,37.9830895 49.2841586,60.1864795 51.6983525,89.736014 C53.3231118,109.631254 58.963259,131.551861 68.0104397,153.75153 C61.7948052,169.003183 57.1909071,184.120886 54.3903678,198.542795 C53.1990843,198.016299 52.0183432,197.482981 50.8605472,196.93478 C26.0259153,185.17884 11.7826056,169.439139 11.7826056,153.75091 C11.7826056,147.170635 14.1874974,140.630669 18.9309263,134.311471 C20.8849785,131.709376 20.358482,128.016459 17.7563866,126.063647 C15.1542912,124.109595 11.4619947,124.636092 9.50794257,127.238187 C3.19866735,135.642286 0,144.562338 0,153.75091 C0,174.479614 16.2717783,193.597822 45.8188323,207.583775 C47.9775297,208.605761 50.1957602,209.587438 52.4586406,210.538108 C52.1504324,212.973386 51.8918353,215.38572 51.6971122,217.765806 C50.8456639,228.18535 51.1340277,237.686471 52.4989495,246.13646 C51.2072039,246.99721 49.9799525,247.995011 48.8413807,249.133583 C39.5052161,258.470368 39.5052161,273.661867 48.8413807,282.998032 C53.5103932,287.666424 59.641689,290 65.7742252,290 C70.3334734,290 74.8914813,288.707014 78.8498167,286.126623 C84.2735361,288.584227 90.2355345,289.805897 96.6279081,289.805897 C110.980982,289.805897 127.498335,283.660958 144.939072,271.598671 C161.355962,260.24396 177.519836,244.398836 192.221427,225.464189 C208.537856,223.221153 223.93214,219.649783 237.821971,214.864185 C237.961502,216.159031 238.089871,217.448296 238.194054,218.725158 C240.430888,246.109794 233.921309,266.314482 220.334724,274.158597 C214.871936,277.311994 208.327629,278.536145 200.889084,277.793841 C197.645147,277.47447 194.76523,279.834092 194.442759,283.071828 C194.120287,286.309564 196.48301,289.195682 199.720126,289.518153 C201.531546,289.698613 203.308859,289.788533 205.050204,289.788533 C212.871994,289.788533 219.975045,287.970911 226.226027,284.362333 C244.177757,273.997981 252.598599,250.346571 249.937591,217.765806 C249.742868,215.38572 249.48427,212.973386 249.176062,210.538108 C251.438943,209.587438 253.657793,208.605141 255.815871,207.583775 C257.490241,206.791239 259.11624,205.9801 260.704412,205.155318 C265.301488,209.478294 271.198372,211.646293 277.098977,211.646293 C283.231513,211.646293 289.363429,209.312717 294.031822,204.644325 C302.48305,196.192476 303.283648,182.943246 296.433613,173.582276 C299.85801,167.230211 301.634703,160.57862 301.634703,153.75091 Z M236.09675,104.515122 C234.116032,115.44876 231.012866,126.855563 226.87345,138.458949 C223.375257,131.106603 219.522345,123.7679 215.329598,116.504854 C211.13623,109.242428 206.707211,102.236738 202.08905,95.5305754 C214.207149,97.7475657 225.637517,100.763293 236.09675,104.515122 Z M220.866802,153.75091 C216.384451,164.212004 211.115766,174.730149 205.125861,185.105664 C199.135336,195.481178 192.660485,205.30229 185.842697,214.415205 C174.541938,215.764004 162.798401,216.460418 150.817972,216.460418 C138.850565,216.460418 127.119431,215.765244 115.829834,214.419546 C108.956854,205.248338 102.460918,195.413583 96.5094619,185.105664 C90.5189372,174.730149 85.2508722,164.212004 80.768521,153.75091 C85.2508722,143.289817 90.5195573,132.771671 96.5094619,122.396156 C102.450996,112.105601 108.941971,102.278908 115.81061,93.1120406 C127.178964,91.748359 138.931803,91.0414027 150.817972,91.0414027 C162.798401,91.0414027 174.541938,91.7378167 185.842697,93.086615 C192.661105,102.19891 199.135957,112.020642 205.125861,122.396156 C211.115766,132.771671 216.383831,143.289817 220.866802,153.75091 Z M82.6853649,21.0620276 C83.9243989,15.6197041 88.8873564,11.6948562 94.4698309,11.6967159 C99.3341866,11.6979569 103.835762,14.8116654 105.707336,19.2766528 C106.849629,22.0015354 106.956292,25.1319876 105.876013,27.8934583 C105.019604,30.0813021 104.202883,31.51878 101.919538,33.4908161 C97.848338,36.646694 92.028351,36.8401768 87.7425832,33.9906466 C83.5386736,31.1950684 81.5709784,25.9586304 82.6853649,21.0620276 Z M63.4406491,88.7766619 C61.5696954,65.8737572 65.8213556,47.9989244 75.2089916,38.1709911 C75.9109868,39.1167002 76.6880186,40.0177595 77.5363662,40.8661071 C82.2053787,45.5344994 88.3366746,47.8680755 94.4685906,47.8680755 C100.601127,47.8680755 106.733043,45.5344994 111.401435,40.8661071 C113.534087,38.7334554 115.173729,36.2925957 116.332145,33.6886398 C123.292565,36.3756941 130.659174,40.3538738 138.235389,45.5934124 C151.032539,54.4446298 163.702561,66.2414985 175.601132,80.2386138 C167.484777,79.5924309 159.202846,79.2587971 150.816111,79.2587971 C142.483328,79.2587971 134.206358,79.5942913 126.065198,80.2466756 C131.038077,74.3987824 136.154829,68.9155298 141.363361,63.8731948 C143.701278,61.6096942 143.762051,57.8801895 141.498551,55.5422725 C139.23505,53.2049756 135.506166,53.1442022 133.168249,55.4070826 C124.965075,63.3479386 116.991351,72.3200827 109.426298,82.0568559 C96.9522398,83.7752559 84.9556869,86.2644864 73.7708935,89.496021 C70.6454024,90.3995608 68.8432839,93.6652029 69.7468237,96.7913142 C70.6497433,99.9168054 73.9141452,101.719544 77.0421169,100.815384 C84.2127626,98.7428858 91.7430879,96.9928588 99.5301499,95.5665434 C94.8946248,102.29069 90.4674658,109.291418 86.3026248,116.504234 C82.1092575,123.76666 78.2569656,131.105983 74.758772,138.458328 C68.5884075,121.155882 64.7075893,104.284431 63.4406491,88.7766619 Z M74.7612525,169.042872 C78.2594461,176.395218 82.1123582,183.733921 86.3051053,190.996967 C90.4798685,198.227766 94.9175699,205.239656 99.5611567,211.973725 C87.4368556,209.756735 76.0015268,206.739768 65.5373328,202.986698 C67.5186709,192.05306 70.6218372,180.646258 74.7612525,169.042872 Z M72.144894,276.425198 C67.4132476,279.323099 61.0983912,278.591957 57.1735432,274.667109 C53.58667,271.080856 52.600652,265.481638 54.7680313,260.888282 C56.9651772,256.231052 61.9510797,253.454698 67.0572889,253.989257 C72.0642761,254.513273 76.3438425,258.193166 77.571714,263.083568 C78.8479563,268.172413 76.6241445,273.681711 72.144894,276.425198 Z M138.236009,261.908408 C118.719673,275.406933 100.583763,280.570195 87.2477138,276.675733 C88.8613106,273.417533 89.7195804,269.808955 89.7195804,266.066427 C89.7195804,259.670333 87.2291097,253.656863 82.7064495,249.134203 C77.5531099,243.981484 70.6174962,241.678914 63.8666833,242.214093 C62.8986493,235.197241 62.739274,227.315298 63.4406491,218.725779 C63.5448322,217.448916 63.6732006,216.159651 63.8127314,214.864805 C77.7112449,219.653504 93.1154514,223.226114 109.443042,225.46915 C117.243747,235.50731 125.480408,244.728749 133.958923,252.855646 C136.307383,255.106124 140.037508,255.028606 142.289226,252.678907 C144.540323,250.330448 144.460946,246.600323 142.112486,244.349225 C136.648458,239.112167 131.286752,233.387061 126.081321,227.267547 C134.182173,227.91125 142.447361,228.243643 150.816731,228.243643 C159.202846,228.243643 167.485397,227.91063 175.601752,227.263827 C163.703801,241.260322 151.033159,253.057811 138.236009,261.908408 Z M202.08905,211.971245 C206.707211,205.265702 211.13623,198.260013 215.329598,190.996967 C219.522965,183.734541 223.375257,176.395218 226.87345,169.042872 C231.012866,180.646258 234.116032,192.05244 236.09675,202.986698 C225.637517,206.738528 214.207149,209.754255 202.08905,211.971245 Z M281.553422,199.027122 C277.077892,200.775909 271.809827,199.672685 268.43194,196.243947 C264.882896,192.64157 263.933466,187.026849 266.12131,182.461399 C268.3414,177.827734 273.411642,175.025955 278.51599,175.640511 C284.567289,176.368552 289.262967,181.601269 289.262967,187.7121 C289.262967,192.655213 286.162901,197.226244 281.553422,199.027122 Z M287.021791,165.921722 C278.194139,161.913775 267.416156,163.531713 260.167373,170.779876 C255.644713,175.302536 253.154242,181.316006 253.154242,187.7121 C253.154242,190.28691 253.564153,192.796605 254.341805,195.174831 C253.175947,195.769542 251.992725,196.358052 250.775396,196.93416 C249.6176,197.482361 248.436859,198.015679 247.245575,198.542175 C244.445036,184.120266 239.841138,169.002563 233.625503,153.75091 C239.841138,138.499257 244.445036,123.381554 247.245575,108.959645 C248.436859,109.486142 249.6176,110.019459 250.775396,110.567661 C275.609408,122.32298 289.852717,138.062681 289.852717,153.75091 C289.852097,157.828312 288.881583,161.908194 287.021791,165.921722 Z" id="Shape" fill="#000000"></path>
            </g>
            <circle id="outline" stroke="#E8F7E2" stroke-width="4" filter="url(#filter-2)" cx="237.5" cy="237.5" r="237.5"></circle>
        </g>
    </g>
</svg>