<svg xmlns="http://www.w3.org/2000/svg" role="img" viewBox="0 0 1050 1050" style="height:1em;width:1.13em;vertical-align:-0.125em;margin-left:auto;margin-right:auto;font-size:inherit;overflow:visible;position:relative;"><circle fill="#007E49" cx="500" cy="500" r="500"/><path fill="#fff" d="M379.88 753.27V223.12h-92.476c-23.93 18.857-81.063 54.234-142.58 83.512l-32.234 14.816 35.938 81.174 27.836-14.262c19.531-9.785 72.852-37.597 90.914-51.779v416.69h112.6M812.7 753.27v-88.7H594.34c6.93-30.861 59.962-75.113 87.109-99.875 63.867-57.722 121.68-99.199 121.68-189.84 0-108.15-88.086-160.681-181.06-160.681-71.289 0-118.65 21.234-169.53 65.209l55.367 73.528c12.797-13.985 45.022-47.936 91.608-47.936 57.906 0 87.789 36.883 87.789 82.561 0 51.104-38.279 87.711-73.438 118.61-70.603 61.523-131.44 115.64-144.92 177.119v70.004H812.7z"/></svg>