<svg xmlns="http://www.w3.org/2000/svg" role="img" viewBox="0 0 1050 1050" style="height:1em;width:1.13em;vertical-align:-0.125em;margin-left:auto;margin-right:auto;font-size:inherit;overflow:visible;position:relative;"><circle fill="#99D4DE" cx="500" cy="500" r="500"/><path fill="#231F20" d="M387.5 764.11V234.03h-92.361c-24.092 18.695-81.189 53.871-142.73 83.105l-32.292 14.974 36.096 81.6 27.776-14.26c19.456-9.745 72.828-37.435 90.777-51.613v416.28h112.72M821.22 606.93c0-74.151-44.297-117.569-102.859-128.859v-1.465c56.266-20.994 85.428-62.863 85.428-117.57 0-71.143-61.495-134.04-169.51-134.04-62.447 0-113.38 17.27-159.15 47.217l36.711 77.877c17.236-14.221 49.45-38.186 98.346-38.186 55.593 0 81.029 29.985 81.029 63.694 0 40.324-32.213 65.875-84.121 65.875H551.58v87.58h54.801c54.203 0 100.64 19.449 100.64 80.097 0 44.92-38.197 78.67-99.932 78.67-44.774 0-81.604-17.271-104.17-34.464l-40.596 81.601c42.794 23.926 84.062 39.613 152.37 39.613 123.149-.011 206.52-74.881 206.52-167.65l.007.01z"/></svg>