<svg xmlns="http://www.w3.org/2000/svg" role="img" viewBox="0 0 1050 1050" style="height:1em;width:1.13em;vertical-align:-0.125em;margin-left:auto;margin-right:auto;font-size:inherit;overflow:visible;position:relative;"><circle fill="#E4B327" cx="500" cy="500" r="500"/><path fill="#231F20" d="M379.74 765.04V235.13h-92.366c-24.056 18.722-81.097 54.049-142.52 83.443l-32.381 14.919 36.053 81.18 27.859-14.419c19.372-9.784 72.688-37.59 90.756-51.703v416.5h112.6M649.64 224.66c-159.84 0-194.52 154.6-194.52 277.02 0 122.431 31.597 277.04 191.46 277.04 160.06 0 194.439-154.609 194.439-277.04.021-122.41-31.439-277.02-191.379-277.02zm-1.52 465.36c-74.88 0-78.82-134.93-78.82-188.329 0-54.194 2.248-187.65 78.82-187.65 75.84 0 78.185 132.07 78.185 187.65 0 52.649-2.93 188.329-78.18 188.329h-.005z"/></svg>