<svg xmlns="http://www.w3.org/2000/svg" role="img" viewBox="0 0 1050 1050" style="height:1em;width:1.13em;vertical-align:-0.125em;margin-left:auto;margin-right:auto;font-size:inherit;overflow:visible;position:relative;"><circle fill="#99D4DE" cx="500" cy="500" r="500"/><path fill="#231F20" d="M650.98 425.78c-19.302 0-31.084 10.506-41.396 25.479v-80.153H569.06v212.399h39.137v-8.012c7.604 7.21 21.209 11.776 32.696 11.776 49.012-.001 67.205-47.934 67.205-82.309 0-37.16-16.75-79.19-57.12-79.19l.002.01zm-16.81 132.78c-18.349 0-24.576-9.581-24.576-19.954v-50.332c0-8.858.661-13.277 7.688-19.87 4.461-4.284 10.59-7.785 18.713-7.785 25.445.021 29.766 29.34 29.766 49.974 0 20.95-5.689 47.971-31.59 47.971l-.001-.004zm151.32-169.02c0-12.506-8.627-21.287-22.443-21.287-13.747 0-22.684 8.781-22.684 21.287 0 12.288 8.936 21.217 22.684 21.217 13.811 0 22.44-8.93 22.44-21.22l.003.003zm-42.72 40.66h40.524v153.31H742.77zm184.01 107.41c0-23.217-13.662-35.874-34.059-43.661l-18.74-6.874c-9.649-3.479-16.145-7.279-16.145-15.15 0-9.132 7.757-14.582 21.279-14.582 9.733 0 22.105 3.297 30.857 9.209l12.358-29.696c-7.757-4.097-22.093-10.087-41.254-10.087-35.909 0-60.415 22.6-60.415 51.748 0 18.146 9.131 32.074 30.803 40.442l18.138 6.839c7.981 3.143 19.61 6.291 19.61 17.037 0 12.001-13.018 15.354-23.621 15.354-12.146 0-25.978-4.566-35.77-11.44l-12.43 30.237c8.627 5.112 25.811 11.628 44.973 11.628 40.2.02 64.399-21.07 64.399-51.011l.017.007zM512.92 603.61c0-74.312-44.391-117.82-102.83-128.98v-1.57c56.242-21.069 85.644-63.229 85.644-117.829 0-70.554-61.511-133.701-169.621-133.701-62.31 0-113.37 17.339-159 47.427l36.717 77.889c17.337-14.85 49.522-38.142 98.45-38.142 55.289 0 80.958 29.283 80.958 62.935 0 40.52-32.389 66.113-84.107 66.113h-55.436v87.778h54.636c54.202 0 100.56 19.491 100.56 80.229 0 45.163-38.252 78.113-99.762 78.113-45.041 0-81.835-17.305-104.28-34.453l-40.588 81.691c42.776 23.95 84.1 39.789 152.27 39.789 123.07.032 206.39-74.209 206.389-167.289"/></svg>