<svg xmlns="http://www.w3.org/2000/svg" role="img" viewBox="0 0 1050 1050" style="height:1em;width:1.13em;vertical-align:-0.125em;margin-left:auto;margin-right:auto;font-size:inherit;overflow:visible;position:relative;"><circle fill="#9F971A" cx="500" cy="500" r="500"/><path fill="#fff" d="M685.43 605.92c0-74.18-44.136-117.93-102.569-129.18v-1.348c56.139-21.041 85.376-63.202 85.376-117.89 0-70.614-61.407-133.66-170-133.66-61.646 0-112.91 17.197-158.63 47.393l36.784 78.104c17.334-15.098 49.443-38.637 98.372-38.637 55.725 0 81.198 29.562 81.198 63.363 0 40.537-32.211 66.135-84.189 66.135h-55.739v87.891h54.93c54.257 0 100.69 19.258 100.69 80.203 0 45.014-38.151 77.943-99.877 77.943-44.985 0-81.832-17.476-104.59-34.355l-40.291 81.59c42.788 24.134 84.03 39.943 152.19 39.943 123.31.07 206.35-74.43 206.35-167.47"/></svg>