<svg xmlns="http://www.w3.org/2000/svg" role="img" viewBox="0 0 1050 1050" style="height:1em;width:1.13em;vertical-align:-0.125em;margin-left:auto;margin-right:auto;font-size:inherit;overflow:visible;position:relative;"><circle fill="#84C28E" cx="500" cy="500" r="500"/><path fill="#231F20" d="M672.16 570.56c0-99.305-70.519-157.01-157.11-157.01-55.947 0-89.887 20.287-107.79 36.068 6.699-106.521 61.438-159.87 134.41-159.87 29.768 0 56.973 6.701 71.031 12.891l16.66-90.115c-21.713-5.417-48.916-8.934-78.83-8.934-166.59 0-251.36 125.891-251.36 309.891 0 140.35 50.895 240.31 193.58 240.31 108.89-.001 179.41-77.561 179.409-183.231m-105.809 11.28c0 45.625-26.254 88.43-77.401 88.43-52.578 0-80.953-48.772-80.953-99.12 0-15.638 0-35.959 6.004-44.968 10.471-16.586 36.797-29.184 69.055-29.184 50.92 0 83.29 35.19 83.29 84.84l.005.002z"/></svg>