<svg xmlns="http://www.w3.org/2000/svg" xmlns:xlink="http://www.w3.org/1999/xlink" x="0px" y="0px" role="img" viewBox="0 0 92 92" overflow="visible" xml:space="preserve" style="height:1em;width:1.13em;vertical-align:-0.125em;margin-left:auto;margin-right:auto;font-size:inherit;overflow:visible;position:relative;"><path id="XMLID_9_" fill="#3C91DC" d="M71.3000031,92.0000076H20.7000008C9.2677059,92.0000076,0,82.7323074,0,71.3000107 V20.7000008C0,9.2677059,9.2677059,0,20.7000008,0h50.6000023C82.7322922,0,92,9.2677059,92,20.7000008v50.6000099 C92,82.7323074,82.7322922,92.0000076,71.3000031,92.0000076z"/><path id="XMLID_1_" fill="#FFFFFF" d="M44.860424,70.3215942h-17.737608V21.5950356h18.4982853 c9.1079559,0,17.668457,2.4851685,17.668457,12.3538017c0,5.0394859-4.0050812,8.8342285-7.7998238,9.5243111v0.1383057 c5.1057587,0.6900826,9.3874474,4.6937256,9.3874474,11.5960045C64.877182,67.4921036,54.1095695,70.3215942,44.860424,70.3215942z M43.2036476,29.7391796h-5.3132172V40.920269h5.4515228c5.6589775,0,9.3874474-0.897541,9.3874474-5.52211 C52.7294006,30.913332,49.415844,29.7391796,43.2036476,29.7391796z M43.6877136,48.649498h-5.7972832v13.5971069h6.350502 c6.8316879,0,9.5228729-2.1394043,9.5228729-7.3157578C53.7638054,49.547039,48.5888939,48.649498,43.6877136,48.649498z"/></svg>