<svg xmlns="http://www.w3.org/2000/svg" xmlns:xlink="http://www.w3.org/1999/xlink" x="0px" y="0px" role="img" viewBox="0 0 92 92" overflow="visible" xml:space="preserve" style="height:1em;width:1.13em;vertical-align:-0.125em;margin-left:auto;margin-right:auto;font-size:inherit;overflow:visible;position:relative;"><path id="XMLID_1255_" fill="#FF1400" d="M71.3000031,92.0000076H20.6999989C9.267705,92.0000076,0,82.7323074,0,71.3000107 V20.7000008C0,9.2677059,9.2677059,0,20.7000008,0h50.6000023C82.7322922,0,92,9.267705,92,20.6999989v50.6000137 C92,82.7323074,82.7322922,92.0000076,71.3000031,92.0000076z"/><path id="XMLID_3_" fill="#FFFFFF" d="M57.5960045,70.3215942l-3.0369453-9.2476997H36.5448418l-3.0369453,9.2476997H22.8785839 l17.2535419-48.7957077h11.6665955l17.3226929,48.7957077H57.5960045z M47.793644,40.2301865 c-1.0344086-3.1060982-1.8613548-7.1082993-2.0688133-8.9033813H45.586525 c-0.2074547,1.7950821-1.1727104,5.7972832-2.2099953,8.9033813l-4.1405067,12.7687149h12.6981239L47.793644,40.2301865z"/></svg>