<svg xmlns="http://www.w3.org/2000/svg" xmlns:xlink="http://www.w3.org/1999/xlink" x="0px" y="0px" role="img" viewBox="0 0 92 92" overflow="visible" xml:space="preserve" style="height:1em;width:1.13em;vertical-align:-0.125em;margin-left:auto;margin-right:auto;font-size:inherit;overflow:visible;position:relative;"><path id="XMLID_5_" fill="#FFBE00" d="M71.3000031,92.0000076H20.6999989C9.267705,92.0000076,0,82.7323074,0,71.3000107V20.7000008 C0,9.2677059,9.2677059,0,20.7000008,0h50.6000023C82.7322922,0,92,9.267705,92,20.6999989v50.6000137 C92,82.7323074,82.7322922,92.0000076,71.3000031,92.0000076z"/><path id="XMLID_2_" d="M48.1211967,71.4943085c-12.3552399,0-24.1572628-8.144146-24.1572628-24.9842148 c0-14.5623569,8.4884663-26.2260723,24.1572628-26.2260723c6.0047379,0,10.4218521,1.2418633,13.9399834,2.8294888 l-3.5181313,8.9033813c-3.175251-1.795084-6.7654152-2.6220322-9.8715134-2.6220322 c-7.4540596,0-13.5250702,4.8997383-13.5250702,16.6326103c0,11.1810875,7.3157539,16.3574371,14.3549004,16.3574371 c3.8638916,0,7.3157539-1.1741486,9.7303276-2.6234703l2.8986397,8.3516006 C58.4047432,70.1141357,53.0886497,71.4943085,48.1211967,71.4943085z"/></svg>