<svg xmlns="http://www.w3.org/2000/svg" xmlns:xlink="http://www.w3.org/1999/xlink" x="0px" y="0px" role="img" viewBox="0 0 92 92" overflow="visible" xml:space="preserve" style="height:1em;width:1.13em;vertical-align:-0.125em;margin-left:auto;margin-right:auto;font-size:inherit;overflow:visible;position:relative;"><g><path id="XMLID_8_" fill="#00643C" d="M71.3000031,92.0000076H20.7000008C9.2677059,92.0000076,0,82.7323074,0,71.3000107V20.7000008C0,9.2677059,9.2677059,0,20.7000008,0h50.6000023C82.7322922,0,92,9.2677059,92,20.7000008v50.6000099 C92,82.7323074,82.7322922,92.0000076,71.3000031,92.0000076z"/><path id="XMLID_1_" fill="#FFFFFF" d="M40.8072815,70.3215942H27.0747528V21.5950356h14.2165947 c14.2165947,0,29.5396309,3.175251,29.5396309,23.2597237C70.8309784,66.1810913,55.7154007,70.3215942,40.8072815,70.3215942z M42.8098221,30.0849419H37.839489v31.8158989h5.3160934c9.3845673,0,16.5620193-3.588726,16.5620193-16.355999 C59.7176018,31.8785858,49.4340515,30.0849419,42.8098221,30.0849419z"/></g></svg>