<svg xmlns="http://www.w3.org/2000/svg" xmlns:xlink="http://www.w3.org/1999/xlink" x="0px" y="0px" role="img" viewBox="0 0 92 92" overflow="visible" xml:space="preserve" style="height:1em;width:1.13em;vertical-align:-0.125em;margin-left:auto;margin-right:auto;font-size:inherit;overflow:visible;position:relative;"><path d="M33.6577263,34.8617287v29.0642052H25.82621V34.8617287H14.9318161v-6.3764324h29.617424v6.3764324H33.6577263z M64.9204025,64.7788162c-9.689991,0-13.1533775-6.7250786-13.1533775-16.1125259 c0-12.3004951,5.774231-21.1347218,17.1181145-21.1347218c2.0083084,0,3.8149109,0.250679,5.3218613,0.6022034L73.1034393,34.15868 c-0.9537277-0.403389-2.8121948-0.8528786-4.8694839-0.8528786c-4.9703331,0-8.5835495,3.9647408-9.0877838,11.0932045 c1.2044029-1.0545731,3.5152473-2.4088097,7.330162-2.4088097c5.8721924,0,10.5918503,3.8638954,10.5918503,10.4910049 C77.0681839,59.5578041,72.348526,64.7788162,64.9204025,64.7788162z M64.2173538,47.5598526 c-2.2589836,0-4.0655899,0.8557587-4.7686424,1.9593163c-0.4005089,0.6022034-0.4005089,2.0083046-0.4005089,3.0628777 c0,3.3625412,1.95644,6.6242294,5.5696564,6.6242294c3.5152512,0,5.3218613-2.8611794,5.3218613-5.9211769 C69.9397202,49.9715424,67.7325974,47.5598526,64.2173538,47.5598526z"/><path fill="#FF0000" d="M87.4000015,13.8000002H4.6000013c-2.5405097,0-4.5999999-2.0594902-4.5999999-4.6000004V4.5999999 C0.0000013,2.0594902,2.0594916,0,4.6000013,0h82.8000031C89.9405136,0,92,2.0594902,92,4.5999999v4.5999999 C92,11.74051,89.9405136,13.8000002,87.4000015,13.8000002z M92,87.4000015v-4.5999985 c0-2.5405121-2.059494-4.5999985-4.5999985-4.5999985H4.5999999C2.0594902,78.2000046,0,80.259491,0,82.8000031v4.5999985 C0,89.9405136,2.0594902,92,4.5999999,92h82.8000031C89.940506,92,92,89.9405136,92,87.4000015z"/></svg>