<svg xmlns="http://www.w3.org/2000/svg" xmlns:xlink="http://www.w3.org/1999/xlink" x="0px" y="0px" role="img" viewBox="0 0 92 92" overflow="visible" xml:space="preserve" style="height:1em;width:1.13em;vertical-align:-0.125em;margin-left:auto;margin-right:auto;font-size:inherit;overflow:visible;position:relative;"><path d="M33.9084015,34.8606491v29.0642014h-7.8315144V34.8606491H15.1824932v-6.3764343h29.6174221v6.3764343H33.9084015z M64.3181992,63.9248505h-8.0821953c0-4.6677895,1.2533875-7.6816826,4.3652496-13.4530334l8.6354103-16.0635414H52.017704 v-5.9240608h24.7998009v5.774231C69.0349731,47.7604637,64.3181992,58.3523178,64.3181992,63.9248505z"/><path fill="#6E491E" d="M87.4000015,13.8000002H4.6000013c-2.5405097,0-4.5999999-2.0594902-4.5999999-4.6000004V4.5999999 C0.0000013,2.0594902,2.0594916,0,4.6000013,0h82.8000031C89.9405136,0,92,2.0594902,92,4.5999999v4.5999999 C92,11.74051,89.9405136,13.8000002,87.4000015,13.8000002z M92,87.4000015v-4.5999985 c0-2.5405121-2.059494-4.5999985-4.5999985-4.5999985H4.5999999C2.0594902,78.2000046,0,80.259491,0,82.8000031v4.5999985 C0,89.9405136,2.0594902,92,4.5999999,92h82.8000031C89.940506,92,92,89.9405136,92,87.4000015z"/></svg>