<svg xmlns="http://www.w3.org/2000/svg" xmlns:xlink="http://www.w3.org/1999/xlink" x="0px" y="0px" role="img" viewBox="0 0 92 92" overflow="visible" xml:space="preserve" style="height:1em;width:1.13em;vertical-align:-0.125em;margin-left:auto;margin-right:auto;font-size:inherit;overflow:visible;position:relative;"><path d="M34.3852654,34.8617287v29.0642052H26.553751V34.8617287H15.6593571v-6.3764324h29.6174221v6.3764324H34.3852654z M53.3503304,63.9259338v-4.6677933c0.9018631-4.1174507,4.967453-7.880497,9.6871071-11.9979515 c2.3598251-2.0572853,4.9184723-4.6188087,4.9184723-8.0332108c0-3.0599976-2.0083084-5.6215172-5.8722-5.6215172 c-3.1118622,0-5.2699928,2.2589798-6.1257553,3.2127075l-3.7140656-4.9184704 c3.4144058-2.9620304,6.5752487-4.3681297,11.3467674-4.3681297c6.2237206,0,12.0959206,3.6160965,12.0959206,10.8425312 c0,6.0738907-3.8638992,8.9350739-8.1311798,12.8018494c-1.8066101,1.6567764-5.370842,4.7686386-5.8232117,6.8259239h14.6084595 v5.9240608H53.3503304z"/><path fill="#A0006E" d="M87.4000015,13.8000002H4.6000013c-2.5405097,0-4.5999999-2.0594902-4.5999999-4.6000004V4.5999999 C0.0000013,2.0594902,2.0594916,0,4.6000013,0h82.8000031C89.9405136,0,92,2.0594902,92,4.5999999v4.5999999 C92,11.74051,89.9405136,13.8000002,87.4000015,13.8000002z M92,87.4000015v-4.5999985 c0-2.5405121-2.059494-4.5999985-4.5999985-4.5999985H4.5999999C2.0594902,78.2000046,0,80.259491,0,82.8000031v4.5999985 C0,89.9405136,2.0594902,92,4.5999999,92h82.8000031C89.940506,92,92,89.9405136,92,87.4000015z"/></svg>