<svg xmlns="http://www.w3.org/2000/svg" xmlns:xlink="http://www.w3.org/1999/xlink" x="0px" y="0px" role="img" viewBox="0 0 92 92" overflow="visible" xml:space="preserve" style="height:1em;width:1.13em;vertical-align:-0.125em;margin-left:auto;margin-right:auto;font-size:inherit;overflow:visible;position:relative;"><path d="M33.8839111,34.8606491v29.0642052h-7.8315163V34.8606491h-10.894393v-6.3764324h29.617424v6.3764324H33.8839111z M64.1928558,64.8785782c-7.880497,0-12.349472-4.7196541-12.349472-10.0904961c0-4.716774,2.6594887-7.6788025,6.0738907-9.4364281 c-3.0628777-1.9074554-4.9703331-4.3162651-4.9703331-7.9813461c0-5.8750782,5.3218575-9.9406662,11.3957481-9.9406662 c6.2237244,0,11.395752,3.0628777,11.395752,9.1367683c0,3.3135567-1.7057648,6.1257553-5.0193176,8.131176 c3.2616882,1.5559311,6.1228714,4.569828,6.1228714,9.2376175C76.8419952,60.6631622,71.4711533,64.8785782,64.1928558,64.8785782z M63.5906563,47.8123283c-2.3108444,0.9018631-4.6188087,3.4115219-4.6188087,6.1718597 c0,2.913044,1.9074554,5.6733818,5.3218613,5.6733818c3.3625336,0,5.2210083-2.3598289,5.2210083-5.1691475 C69.5147171,51.2757149,66.6016693,49.3163948,63.5906563,47.8123283z M64.4435349,32.5498047 c-2.760334,0-4.5179596,1.7086411-4.5179596,4.1664352c0,2.9130478,2.9101677,4.7196579,5.1691437,5.6733856 c1.8584747-0.8528824,3.8667755-3.1637268,3.8667755-5.370842C68.9614944,34.5581093,67.3537064,32.5498047,64.4435349,32.5498047z"/><path fill="#6E6E00" d="M87.4000015,13.8000002H4.6000013c-2.5405097,0-4.5999999-2.0594902-4.5999999-4.6000004V4.5999999 C0.0000013,2.0594902,2.0594916,0,4.6000013,0h82.8000031C89.9405136,0,92,2.0594902,92,4.5999999v4.5999999 C92,11.74051,89.9405136,13.8000002,87.4000015,13.8000002z M92,87.4000015v-4.5999985 c0-2.5405121-2.059494-4.5999985-4.5999985-4.5999985H4.5999999C2.0594902,78.2000046,0,80.259491,0,82.8000031v4.5999985 C0,89.9405136,2.0594902,92,4.5999999,92h82.8000031C89.940506,92,92,89.9405136,92,87.4000015z"/></svg>