<svg xmlns="http://www.w3.org/2000/svg" xmlns:xlink="http://www.w3.org/1999/xlink" x="0px" y="0px" role="img" viewBox="0 0 92 92" overflow="visible" xml:space="preserve" style="height:1em;width:1.13em;vertical-align:-0.125em;margin-left:auto;margin-right:auto;font-size:inherit;overflow:visible;position:relative;"><path d="M33.3062019,34.8617287v29.0642052h-7.8315182V34.8617287h-10.894393v-6.3764324h29.6174202v6.3764324H33.3062019z M73.253273,56.5467911v7.3791428h-7.0276184v-7.3791428H50.2629623v-6.5752487l13.7526932-21.4862461h9.2376175v22.540823 h4.1664352v5.5206718H73.253273z M66.2256546,34.7090187h-0.1008453c-0.1498337,0.6050835-1.155426,2.7632179-2.5615273,4.9703331 l-7.226429,11.3467674h9.8888016V34.7090187z"/><path fill="#DC9600" d="M87.4000015,13.8000002H4.6000013c-2.5405097,0-4.5999999-2.0594902-4.5999999-4.6000004V4.5999999 C0.0000013,2.0594902,2.0594916,0,4.6000013,0h82.8000031C89.9405136,0,92,2.0594902,92,4.5999999v4.5999999 C92,11.74051,89.9405136,13.8000002,87.4000015,13.8000002z M92,87.4000015v-4.5999985 c0-2.5405121-2.059494-4.5999985-4.5999985-4.5999985H4.5999999C2.0594902,78.2000046,0,80.259491,0,82.8000031v4.5999985 C0,89.9405136,2.0594902,92,4.5999999,92h82.8000031C89.940506,92,92,89.9405136,92,87.4000015z"/></svg>