<svg xmlns="http://www.w3.org/2000/svg" xmlns:xlink="http://www.w3.org/1999/xlink" x="0px" y="0px" role="img" viewBox="0 0 92 92" overflow="visible" xml:space="preserve" style="height:1em;width:1.13em;vertical-align:-0.125em;margin-left:auto;margin-right:auto;font-size:inherit;overflow:visible;position:relative;"><path d="M26.282896,34.8765411v29.0642052h-7.8315163V34.8765411H7.5569863v-6.3764324H37.174408v6.3764324H26.282896z M54.8342171,63.9407463V36.0809479c-2.1581306,1.705761-5.5725327,3.3625374-7.9323616,4.4171143l-2.4088097-5.4227066 c3.7140617-1.5559311,8.1830406-3.9128761,11.6954079-6.5752468h6.1747398v35.4406357H54.8342171z M76.9140244,63.9407463 V36.0809479c-2.1581345,1.705761-5.5725403,3.3625374-7.9323654,4.4171143l-2.4088135-5.4227066 c3.7140656-1.5559311,8.1830444-3.9128761,11.6954117-6.5752468h6.1747437v35.4406357H76.9140244z"/><path fill="#FF5A00" d="M87.4000015,13.8000002H4.6000013c-2.5405097,0-4.5999999-2.0594902-4.5999999-4.6000004V4.5999999 C0.0000013,2.0594902,2.0594916,0,4.6000013,0h82.8000031C89.9405136,0,92,2.0594902,92,4.5999999v4.5999999 C92,11.74051,89.9405136,13.8000002,87.4000015,13.8000002z M92,87.4000015v-4.5999985 c0-2.5405121-2.059494-4.5999985-4.5999985-4.5999985H4.5999999C2.0594902,78.2000046,0,80.259491,0,82.8000031v4.5999985 C0,89.9405136,2.0594902,92,4.5999999,92h82.8000031C89.940506,92,92,89.9405136,92,87.4000015z"/></svg>