<svg xmlns="http://www.w3.org/2000/svg" xmlns:xlink="http://www.w3.org/1999/xlink" x="0px" y="0px" role="img" viewBox="0 0 92 92" overflow="visible" xml:space="preserve" style="height:1em;width:1.13em;vertical-align:-0.125em;margin-left:auto;margin-right:auto;font-size:inherit;overflow:visible;position:relative;"><path d="M22.8195171,34.8757858V63.939991h-7.8315163V34.8757858H4.0936069v-6.3764324h29.6174221v6.3764324H22.8195171z M51.370842,63.939991V36.0801926c-2.1581345,1.705761-5.5725365,3.3625374-7.9323654,4.4171143l-2.4088097-5.4227066 c3.7140617-1.5559311,8.1830406-3.9128761,11.6954079-6.5752468h6.1747398V63.939991H51.370842z M74.1018295,64.7928696 c-5.0682983,0-7.8805008-1.2533875-10.2403259-2.6594887l2.7603378-5.4716873 c1.5069427,1.0545769,3.9676208,2.3079643,6.9786377,2.3079643c4.1174469,0,6.6760941-2.4088135,6.6760941-5.4198265 c0-4.0655861-3.1118622-5.4716873-6.7250824-5.4716873h-3.6650772v-5.8750763h3.7140656 c3.4633789,0,5.6215134-1.8066101,5.6215134-4.5179634c0-2.2589798-1.7057571-4.3162651-5.4198227-4.3162651 c-3.2645721,0-5.4227066,1.5559311-6.578125,2.5615234l-2.5586472-5.2210121 c3.0110168-2.0083027,6.275589-3.1637249,10.741684-3.1637249c7.2293167,0,11.3438873,4.316267,11.3438873,9.0359211 c0,3.665081-1.9564362,6.5752487-5.7223663,7.9813461v0.1008492c3.9157562,0.7520332,6.8777924,3.7659264,6.8777924,8.7333794 C87.906395,59.6237259,82.3338547,64.7928696,74.1018295,64.7928696z"/><path fill="#6E491E" d="M87.4000015,13.8000002H4.6000013c-2.5405097,0-4.5999999-2.0594902-4.5999999-4.6000004V4.5999999 C0.0000013,2.0594902,2.0594916,0,4.6000013,0h82.8000031C89.9405136,0,92,2.0594902,92,4.5999999v4.5999999 C92,11.74051,89.9405136,13.8000002,87.4000015,13.8000002z M92,87.4000015v-4.5999985 c0-2.5405121-2.059494-4.5999985-4.5999985-4.5999985H4.5999999C2.0594902,78.2000046,0,80.259491,0,82.8000031v4.5999985 C0,89.9405136,2.0594902,92,4.5999999,92h82.8000031C89.940506,92,92,89.9405136,92,87.4000015z"/></svg>