<svg xmlns="http://www.w3.org/2000/svg" xmlns:xlink="http://www.w3.org/1999/xlink" x="0px" y="0px" role="img" viewBox="0 0 92 92" overflow="visible" xml:space="preserve" style="height:1em;width:1.13em;vertical-align:-0.125em;margin-left:auto;margin-right:auto;font-size:inherit;overflow:visible;position:relative;"><path d="M50.895607,64.8226242c-5.0708313,0-7.8822975-1.2534904-10.2411804-2.6586304l2.7605209-5.4736519 c1.5058479,1.0544472,3.9666214,2.3103065,6.9783134,2.3103065c4.1170883,0,6.6773834-2.4098282,6.6773834-5.4238892 c0-4.066143-3.1124001-5.471283-6.7271423-5.471283h-3.664505V42.231369h3.7142639 c3.4642792,0,5.6229362-1.8079605,5.6229362-4.5187225c0-2.2581787-1.7060738-4.3173141-5.421524-4.3173141 c-3.2640495,0-5.4227066,1.5567932-6.5766754,2.5614815l-2.5602951-5.2224808 c3.0116959-2.0070057,6.2757454-3.1633453,10.7435226-3.1633453c7.2294846,0,11.3465729,4.3173141,11.3465729,9.0374489 c0,3.6656876-1.9584312,6.5778618-5.7236404,7.9830017v0.0995216c3.9156761,0.7535172,6.8776093,3.7652092,6.8776093,8.736515 C64.701767,59.6522751,59.1297798,64.8226242,50.895607,64.8226242z M83.9306335,57.0078621 c-1.8932648,0-2.8387146-1.1729279-3.1420135-2.7605209c-1.6634216,1.9667206-3.215477,2.9500847-5.9783707,2.9500847 c-3.5566864,0-5.978363-2.5733299-5.978363-6.0162773c0-5.4855003,5.7520752-6.5446892,10.2174835-6.5446892 c0.8317108,0,1.3245773-0.0379105,1.3245773-0.7203407v-1.3245773c0-1.4359436-0.9075394-2.7984352-3.7083435-2.7984352 c-2.3470306,0-4.1253738,1.0971031-4.9961853,1.8529854l-1.8529892-3.7841644 c2.2321167-1.4383125,4.6917038-2.0804596,8.1737518-2.0804596c2.8363495,0,7.4166794,1.0212746,7.4166794,6.8479881v9.309948 c0,0.7179718,0.0758286,1.3245735,0.7179718,1.3245735c0.227478,0,0.644516-0.1137352,0.8696289-0.1895638l0.303299,3.4429512 C86.5039597,56.7069283,85.1793823,57.0078621,83.9306335,57.0078621z M80.3360367,47.9277611 c-0.5686951-0.0379143-1.1350174-0.0379143-1.5899658-0.0379143c-1.8529892,0-4.6549759,0.4549522-4.6549759,2.8766289 c0,1.4738579,1.0603714,2.5354156,2.5365982,2.5354156c1.1729279,0,2.1562881-0.3791275,2.8387146-1.0994682 c0.6042328-0.6421471,0.8696289-1.3980331,0.8696289-2.3837662V47.9277611z M22.6949558,34.9011497v29.0642014h-7.8315153 V34.9011497H3.9690461v-6.3764343h29.6174221v6.3764343H22.6949558z"/><path fill="#FF5A00" d="M87.4000015,13.8000002H4.6000013c-2.5405097,0-4.5999999-2.0594902-4.5999999-4.6000004V4.5999999 C0.0000013,2.0594902,2.0594916,0,4.6000013,0h82.8000031C89.9405136,0,92,2.0594902,92,4.5999999v4.5999999 C92,11.74051,89.9405136,13.8000002,87.4000015,13.8000002z M92,87.4000015v-4.5999985 c0-2.5405121-2.059494-4.5999985-4.5999985-4.5999985H4.5999999C2.0594902,78.2000046,0,80.259491,0,82.8000031v4.5999985 C0,89.9405136,2.0594902,92,4.5999999,92h82.8000031C89.940506,92,92,89.9405136,92,87.4000015z"/></svg>