<svg xmlns="http://www.w3.org/2000/svg" xmlns:xlink="http://www.w3.org/1999/xlink" x="0px" y="0px" role="img" viewBox="0 0 92 92" overflow="visible" xml:space="preserve" style="height:1em;width:1.13em;vertical-align:-0.125em;margin-left:auto;margin-right:auto;font-size:inherit;overflow:visible;position:relative;"><path d="M33.958828,34.872448v29.0642052h-7.8315182V34.872448H15.2329159v-6.3764324H44.850338v6.3764324H33.958828z M59.6489639,64.8903809c-2.0083008,0-3.8149109-0.250679-5.3218575-0.6022034l1.1064415-6.02491 c0.9537277,0.403389,2.8093185,0.8528824,4.8694839,0.8528824c4.967453,0,8.5835495-3.9647408,9.0849075-11.0932083 c-1.2044067,1.0545731-3.5152512,2.4116936-7.330162,2.4116936c-5.8721962,0-10.5918541-3.8667755-10.5918541-10.4938889 c0-7.0765991,4.7196579-12.2976112,12.1477852-12.2976112c9.6899872,0,13.1533737,6.7279587,13.1533737,16.1125221 C76.7670822,56.0561523,70.9928513,64.8903809,59.6489639,64.8903809z M63.9162483,33.2156715 c-3.5152512,0-5.3218575,2.8611832-5.3218575,5.9240608c0,3.3106728,2.2099953,5.7223663,5.7223663,5.7223663 c2.2589798,0,4.0655899-0.8528824,4.7686386-1.9593201c0.403389-0.6022034,0.403389-2.0083046,0.403389-3.0628777 C69.4887848,36.4773598,67.5294647,33.2156715,63.9162483,33.2156715z"/><path fill="#3C91DC" d="M87.4000015,13.8000002H4.6000013c-2.5405097,0-4.5999999-2.0594902-4.5999999-4.6000004V4.5999999 C0.0000013,2.0594902,2.0594916,0,4.6000013,0h82.8000031C89.9405136,0,92,2.0594902,92,4.5999999v4.5999999 C92,11.74051,89.9405136,13.8000002,87.4000015,13.8000002z M92,87.4000015v-4.5999985 c0-2.5405121-2.059494-4.5999985-4.5999985-4.5999985H4.5999999C2.0594902,78.2000046,0,80.259491,0,82.8000031v4.5999985 C0,89.9405136,2.0594902,92,4.5999999,92h82.8000031C89.940506,92,92,89.9405136,92,87.4000015z"/></svg>