<svg xmlns="http://www.w3.org/2000/svg" xmlns:xlink="http://www.w3.org/1999/xlink" x="0px" y="0px" role="img" viewBox="0 0 92 92" overflow="visible" xml:space="preserve" style="height:1em;width:1.13em;vertical-align:-0.125em;margin-left:auto;margin-right:auto;font-size:inherit;overflow:visible;position:relative;"><path d="M50.895607,64.8226242c-5.0708313,0-7.8811111-1.2534943-10.2411804-2.6586342l2.7605209-5.4736519 c1.5070343,1.0544472,3.9666214,2.3103065,6.9783134,2.3103065c4.1182709,0,6.6773834-2.4098282,6.6773834-5.4238892 c0-4.066143-3.1112137-5.471283-6.7271423-5.471283h-3.6633186V42.231369h3.7130775 c3.4642792,0,5.6229362-1.8079643,5.6229362-4.5187263c0-2.2581787-1.7060738-4.3173141-5.421524-4.3173141 c-3.2628632,0-5.4215202,1.5567932-6.575489,2.5614815l-2.5614815-5.2224808 c3.0116959-2.0070057,6.2769279-3.1633434,10.7435226-3.1633434c7.2294846,0,11.3477592,4.3173122,11.3477592,9.037447 c0,3.6656914-1.9596176,6.5778618-5.7248268,7.9830017v0.0995216c3.9168625,0.7535172,6.8787918,3.7652092,6.8787918,8.7365189 C64.7029495,59.6522713,59.1297798,64.8226242,50.895607,64.8226242z M78.9747314,57.2732468 c-1.5141449,0-3.2936707-0.6042328-4.314949-1.5496826v0.9075356h-5.1466522v-28.000927H74.84935v10.4425888 c1.3624878-1.9667206,2.9145432-3.2912979,5.4878693-3.2912979c5.2959366,0,7.4901352,5.6371498,7.4901352,10.5184135 C87.8273544,50.8423004,85.4435883,57.2732468,78.9747314,57.2732468z M78.2922974,40.3973389 c-1.0591812,0-1.890892,0.4549522-2.4595871,1.0212746c-0.9075394,0.871994-1.0212708,1.4383163-1.0212708,2.6112404v6.8503571 c0,1.3980331,0.8317108,2.6467857,3.2533875,2.6467857c3.407402,0,4.2391129-3.6704292,4.2391129-6.4309502 C82.3039398,44.371067,81.6594238,40.3973389,78.2922974,40.3973389z M22.6949558,34.9011497v29.0642014h-7.8315153V34.9011497 H3.9690461v-6.3764343h29.6174221v6.3764343H22.6949558z"/><path fill="#00643C" d="M87.4000015,13.8000002H4.6000013c-2.5405097,0-4.5999999-2.0594902-4.5999999-4.6000004V4.5999999 C0.0000013,2.0594902,2.0594916,0,4.6000013,0h82.8000031C89.9405136,0,92,2.0594902,92,4.5999999v4.5999999 C92,11.74051,89.9405136,13.8000002,87.4000015,13.8000002z M92,87.4000015v-4.5999985 c0-2.5405121-2.059494-4.5999985-4.5999985-4.5999985H4.5999999C2.0594902,78.2000046,0,80.259491,0,82.8000031v4.5999985 C0,89.9405136,2.0594902,92,4.5999999,92h82.8000031C89.940506,92,92,89.9405136,92,87.4000015z"/></svg>