<svg xmlns="http://www.w3.org/2000/svg" xmlns:xlink="http://www.w3.org/1999/xlink" x="0px" y="0px" role="img" viewBox="0 0 92 92" overflow="visible" xml:space="preserve" style="height:1em;width:1.13em;vertical-align:-0.125em;margin-left:auto;margin-right:auto;font-size:inherit;overflow:visible;position:relative;"><path d="M34.360775,34.8617287v29.0642052h-7.8315163V34.8617287h-10.894393v-6.3764324h29.617424v6.3764324H34.360775z M62.9120979,64.7788162c-4.1174507,0-7.2782974-0.9018669-9.9896507-2.5586433l2.8611832-5.5235519 c1.9593201,1.3571167,3.9676247,2.2589798,6.7279587,2.2589798c2.7603378,0,6.2237244-1.6567764,6.2237244-5.8232155 c0-2.5586395-1.7057648-6.0738907-8.2320251-6.174736c-2.0083046,0-4.3681297-0.0489845-5.5235519-0.0489845l1.4060974-18.4233685 h18.625061v5.9240627H62.2609138l-0.5042381,6.7250748c0.2016945,0,0.654068,0.0518646,1.0055923,0.0518646 c9.6871033,0.4523735,13.6028671,5.9240608,13.6028671,11.2430382 C76.3651352,59.2062759,70.9942932,64.7788162,62.9120979,64.7788162z"/><path fill="#640082" d="M87.4000015,13.8000002H4.6000013c-2.5405097,0-4.5999999-2.0594902-4.5999999-4.6000004V4.5999999 C0.0000013,2.0594902,2.0594916,0,4.6000013,0h82.8000031C89.9405136,0,92,2.0594902,92,4.5999999v4.5999999 C92,11.74051,89.9405136,13.8000002,87.4000015,13.8000002z M92,87.4000015v-4.5999985 c0-2.5405121-2.059494-4.5999985-4.5999985-4.5999985H4.5999999C2.0594902,78.2000046,0,80.259491,0,82.8000031v4.5999985 C0,89.9405136,2.0594902,92,4.5999999,92h82.8000031C89.940506,92,92,89.9405136,92,87.4000015z"/></svg>