<svg xmlns="http://www.w3.org/2000/svg" xmlns:xlink="http://www.w3.org/1999/xlink" x="0px" y="0px" role="img" viewBox="0 0 92 92" overflow="visible" xml:space="preserve" style="height:1em;width:1.13em;vertical-align:-0.125em;margin-left:auto;margin-right:auto;font-size:inherit;overflow:visible;position:relative;"><path d="M37.3228073,34.8617287v29.0642052h-7.8315182V34.8617287H18.5968952v-6.3764324h29.6174221v6.3764324H37.3228073z M65.8741302,63.9259338V36.0661354c-2.1581345,1.705761-5.5725365,3.3625374-7.9323654,4.4171143l-2.4088097-5.4227066 c3.7140617-1.5559311,8.1830406-3.912878,11.6954079-6.5752468h6.1747437v35.4406357H65.8741302z"/><path fill="#0055C8" d="M87.4000015,13.8000002H4.6000013c-2.5405097,0-4.5999999-2.0594902-4.5999999-4.6000004V4.5999999 C0.0000013,2.0594902,2.0594916,0,4.6000013,0h82.8000031C89.9405136,0,92,2.0594902,92,4.5999999v4.5999999 C92,11.74051,89.9405136,13.8000002,87.4000015,13.8000002z M92,87.4000015v-4.5999985 c0-2.5405121-2.059494-4.5999985-4.5999985-4.5999985H4.5999999C2.0594902,78.2000046,0,80.259491,0,82.8000031v4.5999985 C0,89.9405136,2.0594902,92,4.5999999,92h82.8000031C89.940506,92,92,89.9405136,92,87.4000015z"/></svg>