<svg xmlns="http://www.w3.org/2000/svg" xmlns:xlink="http://www.w3.org/1999/xlink" x="0px" y="0px" role="img" viewBox="0 0 92 92" overflow="visible" xml:space="preserve" style="height:1em;width:1.13em;vertical-align:-0.125em;margin-left:auto;margin-right:auto;font-size:inherit;overflow:visible;position:relative;"><path id="XMLID_11_" fill="#D2D200" d="M71.3000031,92.0000076H20.7000008C9.2677059,92.0000076,0,82.7323074,0,71.3000107 V20.7000008C0,9.2677059,9.2677059,0,20.7000008,0h50.6000023C82.7322922,0,92,9.2677059,92,20.7000008v50.6000099 C92,82.7323074,82.7322922,92.0000076,71.3000031,92.0000076z"/><path id="XMLID_2_" d="M37.8904305,70.8733063c-0.8269463,0-1.6567764,0-2.4837227-0.0691528l0.2766075-8.0058403 c0.3428802,0,0.7577972,0.069149,1.1035576,0.069149c5.7281303,0,9.041687-3.3121147,9.041687-10.7661743V21.594965h10.7647324 v31.4038639C56.5932922,61.9007683,51.8332977,70.8733063,37.8904305,70.8733063z"/></svg>