<svg xmlns="http://www.w3.org/2000/svg" xmlns:xlink="http://www.w3.org/1999/xlink" x="0px" y="0px" role="img" viewBox="0 0 92 92" overflow="visible" xml:space="preserve" style="height:1em;width:1.13em;vertical-align:-0.125em;margin-left:auto;margin-right:auto;font-size:inherit;overflow:visible;position:relative;"><path id="XMLID_20_" fill="#FF5A00" d="M71.3000031,92.0000076H20.6999989C9.267705,92.0000076,0,82.7323074,0,71.3000107 V20.7000008C0,9.2677059,9.2677059,0,20.7000008,0h50.6000023C82.7322922,0,92,9.267705,92,20.6999989v50.6000137 C92,82.7323074,82.7322922,92.0000076,71.3000031,92.0000076z"/><path id="XMLID_2_" d="M46.7443085,53.2048454h-4.9703331v17.1166801H31.0092411V21.594965h14.97439 c11.2516823,0,20.9128609,3.0369453,20.9128609,15.1155758C66.896492,50.8579865,55.094471,53.2048454,46.7443085,53.2048454z M46.6060028,29.9465656h-4.8320274v14.9772739h4.9703331c4.0022011,0,9.2491417-1.2433052,9.2491417-7.5232124 C55.9934502,30.7749557,50.1961708,29.9465656,46.6060028,29.9465656z"/></svg>