<svg xmlns="http://www.w3.org/2000/svg" xmlns:xlink="http://www.w3.org/1999/xlink" x="0px" y="0px" role="img" viewBox="0 0 92 92" overflow="visible" xml:space="preserve" style="height:1em;width:1.13em;vertical-align:-0.125em;margin-left:auto;margin-right:auto;font-size:inherit;overflow:visible;position:relative;"><path id="XMLID_24_" fill="#A50034" d="M71.3000031,92.0000076H20.7000008C9.2677059,92.0000076,0,82.7323074,0,71.3000107 V20.7000008C0,9.2677059,9.2677059,0,20.7000008,0h50.6000023C82.7322922,0,92,9.2677059,92,20.7000008v50.6000099 C92,82.7323074,82.7322922,92.0000076,71.3000031,92.0000076z"/><path id="XMLID_3_" fill="#FFFFFF" d="M46.0691528,71.4942322c-14.2194767,0-21.0511646-6.5565186-21.0511646-19.6695518V21.594965 h10.7676144v29.8853931c0,6.4182129,2.8294907,11.2488022,10.4910049,11.2488022 c7.5923653,0,10.2143974-4.8305893,10.2143974-11.2488022V21.594965h10.4910049v30.2297153 C66.9820099,64.9377136,60.493206,71.4942322,46.0691528,71.4942322z"/></svg>