<svg xmlns="http://www.w3.org/2000/svg" xmlns:xlink="http://www.w3.org/1999/xlink" x="0px" y="0px" role="img" viewBox="0 0 92 92" overflow="visible" xml:space="preserve" style="height:1em;width:1.13em;vertical-align:-0.125em;margin-left:auto;margin-right:auto;font-size:inherit;overflow:visible;position:relative;"><path id="XMLID_17_" fill="#00A092" d="M71.3000031,92.0000076H20.7000008C9.2677059,92.0000076,0,82.7323074,0,71.3000107 V20.7000008C0,9.2677059,9.2677059,0,20.7000008,0h50.6000023C82.7322922,0,92,9.2677059,92,20.7000008v50.6000099 C92,82.7323074,82.7322922,92.0000076,71.3000031,92.0000076z"/><path id="XMLID_3_" fill="#FFFFFF" d="M57.0442238,70.3215256L39.5111923,46.09655 c-2.4837265-3.3827095-3.7947426-6.3490601-4.2096558-7.4540596h-0.1383057v31.6790352h-10.006937V21.594965h9.8686314 l17.256424,25.1225147c2.6220322,3.7961845,4.2096558,6.6256714,4.4862671,7.7983818h0.1383057V21.594965h9.9377823v48.7265625 H57.0442238z"/></svg>