<svg xmlns="http://www.w3.org/2000/svg" xmlns:xlink="http://www.w3.org/1999/xlink" x="0px" y="0px" role="img" viewBox="0 0 92 92" overflow="visible" xml:space="preserve" style="height:1em;width:1.13em;vertical-align:-0.125em;margin-left:auto;margin-right:auto;font-size:inherit;overflow:visible;position:relative;"><path id="XMLID_22_" fill="#FF82B4" d="M71.3000031,92.0000076H20.7000008C9.2677059,92.0000076,0,82.7323074,0,71.3000107 V20.7000008C0,9.2677059,9.2677059,0,20.7000008,0h50.6000023C82.7322922,0,92,9.2677059,92,20.7000008v50.6000099 C92,82.7323074,82.7322922,92.0000076,71.3000031,92.0000076z"/><path id="XMLID_1_" d="M56.3723488,70.3215256l-9.7303276-16.5634575c-1.5876274-2.692627-3.1060982-2.9000816-4.2096558-2.9000816 h-3.175251v19.4635391H28.4894981V21.594965h15.8042183c10.9750748,0,20.9820099,2.4851665,20.9820099,14.0105801 c0,8.1441422-6.3504982,11.802021-10.6293068,12.4921036c2.0025406,3.5195732,10.2835503,15.8748131,14.7698174,22.223877 H56.3723488z M44.5011749,29.9465656h-5.2440605v12.9055805h5.8664322c4.1405067,0,8.9725342-1.2418633,8.9725342-6.6256714 C54.0960808,30.6366501,48.7799835,29.9465656,44.5011749,29.9465656z"/></svg>