<?xml version="1.0" encoding="UTF-8"?>
<svg width="500px" height="500px" viewBox="0 0 500 500" version="1.1" xmlns="http://www.w3.org/2000/svg" xmlns:xlink="http://www.w3.org/1999/xlink">
    <!-- Generator: Sketch 48.2 (47327) - http://www.bohemiancoding.com/sketch -->
    <title>gtcars</title>
    <desc>Created with Sketch.</desc>
    <defs></defs>
    <g id="Page-3" stroke="none" stroke-width="1" fill="none" fill-rule="evenodd">
        <circle id="Oval-2" fill="#153BAB" cx="250" cy="250" r="237.5"></circle>
        <g id="Group-2" transform="translate(40.000000, 39.500000)" stroke="#FFFFFF">
            <circle id="Oval" stroke-width="35" cx="209.961166" cy="210.59418" r="209.735989"></circle>
            <circle id="Oval-Copy" stroke-width="26" cx="209.961166" cy="212.183109" r="70.1323631"></circle>
            <g id="Group" transform="translate(303.657452, 195.009373)" stroke-width="10">
                <circle id="Oval-Copy-2" cx="17.5841435" cy="17.1341226" r="16.9595019"></circle>
                <circle id="Oval-Copy-3" cx="69.7390442" cy="17.1341226" r="16.9595019"></circle>
            </g>
            <g id="Group-Copy" transform="translate(29.251406, 195.009373)" stroke-width="10">
                <circle id="Oval-Copy-2" cx="17.5841435" cy="17.1341226" r="16.9595019"></circle>
                <circle id="Oval-Copy-3" cx="69.7390442" cy="17.1341226" r="16.9595019"></circle>
            </g>
            <path d="M272.077821,169.472431 L417.197028,169.472431" id="Line" stroke-width="24" stroke-linecap="square"></path>
            <path d="M7.89323652,169.472431 L147.669234,169.472431" id="Line-Copy-2" stroke-width="24" stroke-linecap="square"></path>
            <path d="M7.89323652,253.976493 L143.676149,253.976493" id="Line-Copy" stroke-width="24" stroke-linecap="square"></path>
            <path d="M103.076383,390.947362 L172.722587,282.299283" id="Line-Copy-4" stroke-width="24" stroke-linecap="square"></path>
            <path d="M248.907283,390.947362 L318.553488,282.299283" id="Line-Copy-5" stroke-width="24" stroke-linecap="square" transform="translate(283.748448, 336.979438) scale(-1, 1) translate(-283.748448, -336.979438) "></path>
            <path d="M279.168612,253.976493 L417.197028,253.976493" id="Line-Copy-3" stroke-width="24" stroke-linecap="square"></path>
        </g>
        <path d="M192.160156,122.633011 L186.789062,122.633011 C183.208315,122.633011 181.031254,124.065288 180.257812,126.929886 L178.818359,132.300979 C178.689452,132.802284 178.625,133.260613 178.625,133.675979 C178.625,135.623906 180.100246,136.597854 183.050781,136.597854 L188.421875,136.597854 L192.160156,122.633011 Z M187.261719,140.894729 L177.59375,140.894729 C173.067686,140.894729 170.804688,139.111544 170.804688,135.54512 C170.804688,134.58548 170.969399,133.50411 171.298828,132.300979 L172.738281,126.929886 C174.270841,121.20069 177.901664,118.336136 183.630859,118.336136 L200.818359,118.336136 L194.78125,140.894729 C193.24869,146.623925 189.617867,149.488479 183.888672,149.488479 L170.998047,149.488479 L172.136719,145.191604 L180.730469,145.191604 C184.311216,145.191604 186.488277,143.759327 187.261719,140.894729 Z M218.005859,118.336136 L216.867188,122.633011 L213.644531,122.633011 L211.044922,132.300979 C210.916015,132.802284 210.851562,133.260613 210.851562,133.675979 C210.851562,135.623906 212.326808,136.597854 215.277344,136.597854 L214.117188,140.894729 L209.820312,140.894729 C205.294248,140.894729 203.03125,139.111544 203.03125,135.54512 C203.03125,134.58548 203.195962,133.50411 203.525391,132.300979 L206.125,122.633011 L202.902344,122.633011 L204.041016,118.336136 L207.263672,118.336136 L208.423828,114.039261 L215.943359,114.039261 L214.783203,118.336136 L218.005859,118.336136 Z M241.058594,136.597854 L239.919922,140.894729 L225.933594,140.894729 C221.407529,140.894729 219.144531,139.111544 219.144531,135.54512 C219.144531,134.58548 219.309243,133.50411 219.638672,132.300979 L221.078125,126.929886 C222.610685,121.20069 226.241508,118.336136 231.970703,118.336136 L245.957031,118.336136 L244.818359,122.633011 L235.128906,122.633011 C231.548159,122.633011 229.371098,124.065288 228.597656,126.929886 L227.158203,132.300979 C227.029296,132.802284 226.964844,133.260613 226.964844,133.675979 C226.964844,135.623906 228.440089,136.597854 231.390625,136.597854 L241.058594,136.597854 Z M263.982422,131.205276 L256.462891,131.226761 C254.285796,131.298375 253.018231,132.014514 252.660156,133.375198 L252.359375,134.449417 C252.302083,134.664262 252.273438,134.857619 252.273438,135.029495 C252.273438,136.075073 253.190095,136.597854 255.023438,136.597854 L262.542969,136.597854 L263.982422,131.205276 Z M268.902344,140.894729 L252.789062,140.894729 C247.317681,140.894729 244.582031,139.34787 244.582031,136.254104 C244.582031,135.695508 244.667968,135.093951 244.839844,134.449417 L245.140625,133.353714 C246.272141,129.142755 250.060515,127.037307 256.505859,127.037307 L261.876953,127.037307 C264.025401,127.037307 265.300128,126.285362 265.701172,124.781448 C265.758464,124.566603 265.787109,124.366084 265.787109,124.179886 C265.787109,123.14863 264.877613,122.633011 263.058594,122.633011 L248.019531,122.633011 L249.158203,118.336136 L265.271484,118.336136 C270.671251,118.336136 273.371094,119.968932 273.371094,123.234573 C273.371094,123.864785 273.270834,124.559439 273.070312,125.318557 L268.902344,140.894729 Z M279.644531,140.894729 L272.125,140.894729 L278.162109,118.336136 L295.349609,118.336136 C299.875674,118.336136 302.138672,120.119321 302.138672,123.685745 C302.138672,124.645385 301.97396,125.726755 301.644531,126.929886 L294.125,126.929886 C294.26823,126.414258 294.339844,125.948768 294.339844,125.533401 C294.339844,123.599798 292.864598,122.633011 289.914062,122.633011 L284.542969,122.633011 L279.644531,140.894729 Z M320.980469,126.929886 C326.45185,126.929886 329.1875,128.476745 329.1875,131.570511 C329.1875,132.129107 329.101563,132.730664 328.929688,133.375198 L328.628906,134.449417 C327.483067,138.746313 323.687532,140.894729 317.242188,140.894729 L301.128906,140.894729 L302.289062,136.597854 L317.328125,136.597854 C319.476573,136.597854 320.736977,135.881716 321.109375,134.449417 L321.410156,133.375198 C321.467448,133.160353 321.496094,132.959834 321.496094,132.773636 C321.496094,131.74238 320.586598,131.226761 318.767578,131.226761 L313.396484,131.226761 C307.925103,131.226761 305.189453,129.679901 305.189453,126.586136 C305.189453,126.027539 305.27539,125.425983 305.447266,124.781448 C306.593105,120.484552 310.38864,118.336136 316.833984,118.336136 L332.947266,118.336136 L331.808594,122.633011 L316.769531,122.633011 C314.621083,122.633011 313.353518,123.349149 312.966797,124.781448 C312.909505,124.996293 312.880859,125.196812 312.880859,125.383011 C312.880859,126.414266 313.790355,126.929886 315.609375,126.929886 L320.980469,126.929886 Z" id="gtcars" fill="#FFFFFF"></path>
    </g>
</svg>